<?xml version="1.0" standalone="no"?>
<!DOCTYPE svg PUBLIC "-//W3C//DTD SVG 1.1//EN" "http://www.w3.org/Graphics/SVG/1.1/DTD/svg11.dtd" >
<svg xmlns="http://www.w3.org/2000/svg" xmlns:xlink="http://www.w3.org/1999/xlink" version="1.1">
<metadata>
Created by FontForge 20170731 at Fri Jun  7 20:40:34 2019
 By Aleksey,,,
Copyright (c) 2019 by Lisa Fischbach, Jakob Runge and Nils Thomsen. All rights reserved.
</metadata>
<defs>
<font id="HalvarBreit-XTh" horiz-adv-x="554" >
  <font-face 
    font-family="Halvar Breit XTh"
    font-weight="200"
    font-stretch="expanded"
    units-per-em="1000"
    panose-1="0 0 3 5 0 0 0 0 0 0"
    ascent="800"
    descent="-200"
    x-height="488"
    cap-height="656"
    bbox="-213 -205 1392 917"
    underline-thickness="50"
    underline-position="-200"
    unicode-range="U+0020-FB02"
  />
<missing-glyph horiz-adv-x="436" 
d="M92 656h33l-125 -125v33zM311 656h33l-344 -344v33zM436 564v-33l-436 -437v32zM437 313l-311 -312h-32l343 344v-32zM436 94l-91 -93h-33l124 125v-32z" />
    <glyph glyph-name=".notdef" horiz-adv-x="436" 
d="M92 656h33l-125 -125v33zM311 656h33l-344 -344v33zM436 564v-33l-436 -437v32zM437 313l-311 -312h-32l343 344v-32zM436 94l-91 -93h-33l124 125v-32z" />
    <glyph glyph-name=".null" horiz-adv-x="0" 
 />
    <glyph glyph-name="nonmarkingreturn" horiz-adv-x="333" 
 />
    <glyph glyph-name="space" unicode=" " horiz-adv-x="400" 
 />
    <glyph glyph-name="exclam" unicode="!" horiz-adv-x="352" 
d="M191 656l-1 -516h-27l-2 516h30zM157.5 -3q-7.5 7 -7.5 19t7.5 19t18.5 7t19 -7t8 -19t-8 -19t-19 -7t-18.5 7z" />
    <glyph glyph-name="quotedbl" unicode="&#x22;" horiz-adv-x="573" 
d="M182 696l-1 -238h-28l-1 238h30zM421 696l-1 -238h-28l-1 238h30z" />
    <glyph glyph-name="numbersign" unicode="#" horiz-adv-x="844" 
d="M606 465l-19 -273h182v-27h-184l-11 -165h-29l12 165h-293l-10 -165h-29l11 165h-184v27h186l19 273h-182v27h184l11 164h29l-12 -164h292l11 164h29l-11 -164h184v-27h-186zM577 465h-291l-19 -273h291z" />
    <glyph glyph-name="dollar" unicode="$" horiz-adv-x="816" 
d="M668 294.5q53 -32.5 53 -94.5v-11q0 -78 -75.5 -120t-220.5 -43v-86h-29v86q-145 2 -223.5 43.5t-78.5 114.5v14h29v-14q0 -63 76 -97t216 -34q277 0 277 133v11q0 36 -19.5 58.5t-63 35.5t-117.5 20l-153 14q-117 10 -171 45t-54 98v11q0 70 74 109.5t208 41.5v87h29
v-87q136 -3 210 -43t74 -112v-14h-29v14q0 61 -71.5 94.5t-203.5 33.5q-126 0 -194 -31.5t-68 -90.5v-11q0 -52 47.5 -80t152.5 -38l153 -14q119 -11 172 -43.5z" />
    <glyph glyph-name="percent" unicode="%" horiz-adv-x="970" 
d="M87.5 380q-50.5 42 -50.5 113v14q0 71 50 112.5t136 41.5q85 0 135 -41.5t50 -112.5v-14q0 -70 -50.5 -112.5t-134.5 -42.5q-85 0 -135.5 42zM338 397q43 36 43 96v14q0 61 -42.5 96t-115.5 35q-74 0 -117 -35t-43 -96v-14q0 -61 43.5 -96.5t116.5 -35.5q72 0 115 36z
M613.5 37q-50.5 42 -50.5 113v14q0 71 50 112.5t136 41.5q85 0 135 -41.5t50 -112.5v-14q0 -70 -50.5 -112.5t-134.5 -42.5q-85 0 -135.5 42zM864 54q43 36 43 96v14q0 61 -42.5 96t-115.5 35q-74 0 -117 -35t-43 -96v-14q0 -61 43.5 -96.5t116.5 -35.5q72 0 115 36z
M789 656h30v-6l-637 -650h-31v5z" />
    <glyph glyph-name="ampersand" unicode="&#x26;" horiz-adv-x="915" 
d="M880 360l-223 -218l213 -137v-5h-40l-193 123q-76 -71 -146.5 -102t-156.5 -31q-127 0 -198.5 41t-71.5 115v10q0 50 35 86.5t107 61.5l95 34l-65 41q-63 40 -87 70.5t-24 69.5v10q0 64 63.5 100.5t174.5 36.5q70 0 125 -18t85.5 -51t30.5 -75v-9q0 -56 -36.5 -92
t-122.5 -65l-79 -27l267 -172l213 208h34v-5zM175.5 462.5q21.5 -25.5 78.5 -61.5l83 -53l94 30q77 25 110.5 56t33.5 78v10q0 53 -59 85.5t-154 32.5q-97 0 -152.5 -29.5t-55.5 -81.5v-10q0 -31 21.5 -56.5zM478.5 45q67.5 29 135.5 93l-285 182l-111 -39
q-65 -23 -95 -52.5t-30 -71.5v-10q0 -63 62.5 -97t178.5 -34q77 0 144.5 29z" />
    <glyph glyph-name="quotesingle" unicode="'" horiz-adv-x="334" 
d="M182 696l-1 -238h-28l-1 238h30z" />
    <glyph glyph-name="parenleft" unicode="(" horiz-adv-x="466" 
d="M177.5 32.5q-77.5 89.5 -77.5 242.5v106q0 154 77.5 243.5t215.5 95.5v-26q-126 -7 -195 -89.5t-69 -223.5v-106q0 -141 69 -223.5t195 -89.5v-26q-138 7 -215.5 96.5z" />
    <glyph glyph-name="parenright" unicode=")" horiz-adv-x="466" 
d="M288.5 623.5q77.5 -89.5 77.5 -242.5v-106q0 -154 -77 -243t-216 -96v26q126 7 195.5 89.5t69.5 223.5v106q0 141 -69.5 223.5t-195.5 89.5v26q138 -7 215.5 -96.5z" />
    <glyph glyph-name="asterisk" unicode="*" horiz-adv-x="640" 
d="M352 507l234 -80l-10 -27l-242 88l1 -157h-29l1 157l-243 -88l-9 27l234 80l-234 80l9 26l243 -88l-1 157h29l-1 -157l242 88l10 -26z" />
    <glyph glyph-name="plus" unicode="+" horiz-adv-x="816" 
d="M715 315h-293v-274h-27v274h-294v27h294v273h27v-273h293v-27z" />
    <glyph glyph-name="comma" unicode="," horiz-adv-x="334" 
d="M212 95v-5l-80 -233h-28l76 238h32z" />
    <glyph glyph-name="hyphen" unicode="-" horiz-adv-x="442" 
d="M392 289v-28h-342v28h342z" />
    <glyph glyph-name="period" unicode="." horiz-adv-x="334" 
d="M148.5 -2.5q-7.5 7.5 -7.5 18.5t7.5 18.5t18.5 7.5q12 0 19.5 -7.5t7.5 -18.5t-7.5 -18.5t-19.5 -7.5q-11 0 -18.5 7.5z" />
    <glyph glyph-name="slash" unicode="/" horiz-adv-x="703" 
d="M576 717h28v-6l-476 -772h-29v6z" />
    <glyph glyph-name="zero" unicode="0" horiz-adv-x="817" 
d="M248 23q-70 33 -109 92.5t-39 137.5v149q0 79 39 138.5t109 92.5t161 33t160.5 -33t108.5 -93t39 -138v-149q0 -78 -39 -137.5t-108.5 -92.5t-160.5 -33t-161 33zM555.5 46.5q63.5 29.5 98.5 83t35 123.5v149q0 70 -35 123.5t-98.5 83.5t-146.5 30t-146.5 -29.5
t-98.5 -83t-35 -124.5v-149q0 -70 35 -123.5t98.5 -83t146.5 -29.5t146.5 29.5z" />
    <glyph glyph-name="one" unicode="1" horiz-adv-x="519" 
d="M348 0h-28v584q-42 -56 -167 -56h-115v28h113q169 0 169 100h28v-656z" />
    <glyph glyph-name="two" unicode="2" horiz-adv-x="755" 
d="M674 27v-27h-580v25l258 155q107 65 161.5 108t76 81t21.5 88v10q0 83 -61.5 127.5t-175.5 44.5q-116 0 -177.5 -44.5t-61.5 -127.5v-20h-29v20q0 95 69.5 147t197.5 52q126 0 196.5 -52t70.5 -146v-10q0 -55 -23 -97.5t-80.5 -88.5t-168.5 -113l-219 -132h525z" />
    <glyph glyph-name="three" unicode="3" horiz-adv-x="790" 
d="M604 338.5q73 -47.5 73 -136.5v-15q0 -96 -75.5 -146.5t-218.5 -50.5q-86 0 -152.5 20.5t-103 57.5t-36.5 85v10h29v-10q0 -40 33 -70.5t93 -48t137 -17.5q129 0 197 43.5t68 126.5v14q0 78 -65.5 118.5t-191.5 40.5h-88v26l313 243h-515v27h562v-27l-317 -243h47
q138 0 211 -47.5z" />
    <glyph glyph-name="four" unicode="4" horiz-adv-x="898" 
d="M824 172h-215v-172h-28v172h-487v27q88 134 144.5 241.5t95.5 215.5h30v-6q-76 -210 -236 -451h453v337h28v-337h215v-27z" />
    <glyph glyph-name="five" unicode="5" horiz-adv-x="801" 
d="M548 391.5q67 -24.5 103.5 -69.5t36.5 -105v-28q0 -59 -37 -104.5t-103.5 -70t-154.5 -24.5q-87 0 -153.5 19t-103 54t-36.5 81v9h30v-9q0 -37 33 -66t92.5 -45t136.5 -16q79 0 139.5 21.5t94 60.5t33.5 90v28q0 52 -33 90.5t-93.5 59.5t-140.5 21q-71 0 -130.5 -18.5
t-94.5 -50.5t-37 -71h-30l23 408h523v-27h-496l-17 -309q33 45 101.5 70.5t158.5 25.5q88 0 155 -24.5z" />
    <glyph glyph-name="six" unicode="6" horiz-adv-x="786" 
d="M702 211v-19q0 -94 -80 -148t-219 -54q-90 0 -159 29t-106.5 81.5t-37.5 120.5v195q0 77 36.5 133.5t104.5 86.5t161 30q86 0 151.5 -23.5t101 -66.5t35.5 -100v-9h-29v9q0 49 -32 85.5t-91 57t-136 20.5q-127 0 -200 -59.5t-73 -162.5v-120q42 49 114.5 76.5t161.5 27.5
q297 0 297 -190zM673 210q0 164 -269 164q-91 0 -165 -31t-110 -83v-39q0 -60 34.5 -106.5t96.5 -72t143 -25.5q125 0 197.5 47t72.5 127v19z" />
    <glyph glyph-name="seven" unicode="7" horiz-adv-x="757" 
d="M654 656v-27q-146 -158 -233.5 -323t-87.5 -283v-23h-30v23q0 122 85.5 287t229.5 319h-540v27h576z" />
    <glyph glyph-name="eight" unicode="8" horiz-adv-x="853" 
d="M698.5 277q49.5 -40 49.5 -104v-11q0 -86 -81.5 -129t-240.5 -43q-158 0 -239.5 43.5t-81.5 128.5v11q0 64 49.5 104t146.5 55q-80 17 -123.5 55.5t-43.5 96.5v11q0 80 79 125.5t213 45.5q135 0 214 -45.5t79 -125.5v-11q0 -58 -43.5 -97t-123.5 -55q97 -15 146.5 -55z
M232 379q69 -37 194 -37t194.5 37t69.5 106v10q0 69 -70 106.5t-194 37.5t-193.5 -37.5t-69.5 -106.5v-10q0 -69 69 -106zM719 172q0 143 -293 143q-292 0 -292 -143v-11q0 -72 74 -108t218 -36q145 0 219 36t74 108v11z" />
    <glyph glyph-name="nine" unicode="9" horiz-adv-x="786" 
d="M542.5 637.5q68.5 -28.5 106 -81t37.5 -121.5v-195q0 -77 -36.5 -133.5t-104.5 -86.5t-161 -30q-86 0 -151.5 23.5t-101 66.5t-35.5 100v9h29v-9q0 -49 32 -85.5t91 -57t136 -20.5q127 0 200 59.5t73 163.5v119q-42 -49 -114.5 -76.5t-160.5 -27.5q-298 0 -298 190v20
q0 94 80 147.5t219 53.5q91 0 159.5 -28.5zM547 313.5q74 30.5 110 82.5v39q0 60 -34.5 106.5t-96.5 72t-143 25.5q-125 0 -197 -46.5t-72 -127.5v-19q0 -82 66.5 -122.5t201.5 -40.5q91 0 165 30.5z" />
    <glyph glyph-name="colon" unicode=":" horiz-adv-x="374" 
d="M168.5 -2.5q-7.5 7.5 -7.5 18.5t7.5 18.5t18.5 7.5q12 0 19.5 -7.5t7.5 -18.5t-7.5 -18.5t-19.5 -7.5q-11 0 -18.5 7.5zM168.5 428.5q-7.5 7.5 -7.5 18.5t7.5 18.5t18.5 7.5q12 0 19.5 -7.5t7.5 -18.5t-7.5 -18.5t-19.5 -7.5q-11 0 -18.5 7.5z" />
    <glyph glyph-name="semicolon" unicode=";" horiz-adv-x="374" 
d="M222 95v-5l-80 -233h-28l76 238h32zM168.5 428.5q-7.5 7.5 -7.5 18.5t7.5 18.5t18.5 7.5q12 0 19.5 -7.5t7.5 -18.5t-7.5 -18.5t-19.5 -7.5q-11 0 -18.5 7.5z" />
    <glyph glyph-name="less" unicode="&#x3c;" horiz-adv-x="816" 
d="M705 527l-566 -199l566 -200v-27h-5l-590 210v34l590 209h5v-27z" />
    <glyph glyph-name="equal" unicode="=" horiz-adv-x="816" 
d="M705 444v-27h-594v27h594zM705 240v-27h-594v27h594z" />
    <glyph glyph-name="greater" unicode="&#x3e;" horiz-adv-x="816" 
d="M706 345v-34l-590 -210h-5v27l566 200l-566 199v27h5z" />
    <glyph glyph-name="question" unicode="?" horiz-adv-x="632" 
d="M312.5 272.5q24.5 34.5 89.5 72.5q71 41 98 72t27 70v10q0 66 -58 104.5t-158 38.5q-106 0 -166.5 -43.5t-60.5 -119.5v-22h-28v22q0 88 68.5 138.5t186.5 50.5q73 0 128.5 -21t86 -59.5t30.5 -88.5v-11q0 -45 -29.5 -80t-103.5 -78q-61 -35 -84.5 -66.5t-23.5 -77.5v-44
h-27v44q0 54 24.5 88.5zM283 -3q-8 7 -8 19t8 19t19 7t18.5 -7t7.5 -19t-7.5 -19t-18.5 -7t-19 7z" />
    <glyph glyph-name="at" unicode="@" horiz-adv-x="1030" 
d="M748.5 622q97.5 -44 151.5 -123.5t54 -183.5v-98q0 -87 -31.5 -131.5t-93.5 -44.5q-47 0 -76 22.5t-38 65.5q-35 -44 -91.5 -71t-116.5 -27q-106 0 -168.5 56.5t-62.5 153.5v33q0 97 62 153.5t169 56.5q59 0 114.5 -25t90.5 -68l1 84h25v-305q0 -103 91 -103
q49 0 73.5 38t24.5 112v100q0 96 -50.5 169t-142 113.5t-211.5 40.5q-121 0 -214 -44t-145 -123t-52 -181v-87q0 -95 49.5 -167.5t139.5 -112t208 -39.5h191v-26h-191q-125 0 -221.5 43t-149.5 121t-53 180v88q0 110 55 195t154.5 132t228.5 47q128 0 225.5 -44zM625.5 86
q55.5 29 86.5 76v4v188q-30 47 -86 76t-117 29q-98 0 -152 -48.5t-54 -136.5v-33q0 -86 55 -135t151 -49q61 0 116.5 29z" />
    <glyph glyph-name="A" unicode="A" horiz-adv-x="770" 
d="M737 6v-6h-30l-109 211h-426l-109 -211h-30v6l336 650h33zM584 238l-199 387l-199 -387h398z" />
    <glyph glyph-name="B" unicode="B" horiz-adv-x="785" 
d="M666 280.5q39 -39.5 39 -100.5v-14q0 -77 -59 -121.5t-159 -44.5h-375v656h353q102 0 160 -42t58 -115v-13q0 -56 -33.5 -95.5t-93.5 -56.5q71 -14 110 -53.5zM141 629v-284h323q88 0 138.5 36.5t50.5 101.5v14q0 63 -49.5 97.5t-138.5 34.5h-324zM676 180
q0 65 -50 101.5t-139 36.5h-346v-291h346q89 0 139 37t50 103v13z" />
    <glyph glyph-name="C" unicode="C" horiz-adv-x="874" 
d="M254.5 29.5q-81.5 39.5 -125.5 113t-44 172.5v25q0 99 44 172.5t125.5 113.5t191.5 40q95 0 172.5 -33t122.5 -91t45 -128v-11h-30v11q0 63 -40.5 114.5t-111.5 81t-158 29.5q-103 0 -177.5 -36t-114 -103.5t-39.5 -159.5v-25q0 -92 39.5 -159.5t114 -103t177.5 -35.5
q87 0 158 29.5t111.5 80.5t40.5 114v13h30v-13q0 -70 -45 -127.5t-122.5 -90.5t-172.5 -33q-110 0 -191.5 39.5z" />
    <glyph glyph-name="D" unicode="D" horiz-adv-x="826" 
d="M391 656q169 0 259 -82t90 -236v-20q0 -154 -90 -236t-259 -82h-279v656h279zM629 101q82 74 82 216v21q0 142 -82 216.5t-238 74.5h-250v-602h250q156 0 238 74z" />
    <glyph glyph-name="E" unicode="E" horiz-adv-x="723" 
d="M635 656v-27h-494v-287h474v-27h-474v-288h494v-27h-523v656h523z" />
    <glyph glyph-name="F" unicode="F" horiz-adv-x="704" 
d="M644 656v-27h-503v-289h483v-27h-483v-313h-29v656h532z" />
    <glyph glyph-name="G" unicode="G" horiz-adv-x="879" 
d="M759 420v9q0 59 -40.5 107t-112 75.5t-158.5 27.5q-101 0 -176.5 -36.5t-116 -104t-40.5 -158.5v-25q0 -93 39.5 -160t114.5 -102.5t178 -35.5q106 0 182.5 33.5t129.5 100.5v144h-379v27h408v-322h-27l-2 115q-105 -125 -312 -125q-111 0 -192.5 39.5t-125.5 112.5
t-44 173v25q0 98 45 172t127 114t191 40q96 0 174 -30.5t122 -84.5t44 -122v-9h-29z" />
    <glyph glyph-name="H" unicode="H" horiz-adv-x="819" 
d="M141 656v-314h537v314h29v-656h-29v315h-537v-315h-29v656h29z" />
    <glyph glyph-name="I" unicode="I" horiz-adv-x="299" 
d="M164 656v-656h-29v656h29z" />
    <glyph glyph-name="J" unicode="J" horiz-adv-x="749" 
d="M207 21.5q-65 31.5 -100.5 89t-35.5 133.5v55h29v-55q0 -67 32 -118.5t90.5 -80t134.5 -28.5q77 0 136.5 28.5t92 80t32.5 118.5v385h-371v27h400v-412q0 -75 -37 -132.5t-102.5 -89.5t-150.5 -32t-150 31.5z" />
    <glyph glyph-name="K" unicode="K" horiz-adv-x="813" 
d="M729 650l-390 -288l386 -356v-6h-36l-374 344l-174 -128v-216h-29v656h29v-402l549 402h39v-6z" />
    <glyph glyph-name="L" unicode="L" horiz-adv-x="687" 
d="M141 656v-629h536v-27h-565v656h29z" />
    <glyph glyph-name="M" unicode="M" horiz-adv-x="1029" 
d="M917 0h-29v616l-358 -616h-32l-357 619v-619h-29v656h39l363 -623l365 623h38v-656z" />
    <glyph glyph-name="N" unicode="N" horiz-adv-x="819" 
d="M707 656v-656h-28l-539 615v-615h-28v656h29l538 -615v615h28z" />
    <glyph glyph-name="O" unicode="O" horiz-adv-x="877" 
d="M251.5 30q-79.5 40 -123 114t-43.5 174v19q0 100 43 174.5t123 114.5t187 40t186.5 -40.5t123 -114.5t43.5 -174v-19q0 -100 -43 -174t-123 -114t-187 -40t-186.5 40zM610 53.5q73 36.5 112.5 104.5t39.5 160v19q0 92 -39.5 160t-112.5 105t-172 37t-172 -37t-112 -105
t-39 -160v-19q0 -92 39 -160t112 -104.5t172 -36.5t172 36.5z" />
    <glyph glyph-name="P" unicode="P" horiz-adv-x="787" 
d="M500 656q102 0 161 -45.5t59 -124.5v-14q0 -78 -59.5 -124t-160.5 -46h-359v-302h-29v656h388zM639.5 367q50.5 38 50.5 105v14q0 67 -50.5 105t-139.5 38h-359v-300h359q89 0 139.5 38z" />
    <glyph glyph-name="Q" unicode="Q" horiz-adv-x="877" 
d="M624.5 625.5q79.5 -40.5 123 -114.5t43.5 -174v-19q0 -93 -38 -164.5t-108.5 -113.5t-166.5 -49l43 -128v-6h-29l-45 133h-9q-107 0 -186.5 40t-123 114t-43.5 174v19q0 100 43 174.5t123 114.5t187 40t186.5 -40.5zM762 337q0 92 -39.5 160t-112.5 105t-172 37t-172 -37
t-112 -105t-39 -160v-19q0 -92 39 -160t112 -104.5t172 -36.5t172 36.5t112.5 104.5t39.5 160v19z" />
    <glyph glyph-name="R" unicode="R" horiz-adv-x="806" 
d="M661 348.5q-59 -45.5 -161 -45.5h-52l270 -297v-6h-33l-276 303h-268v-303h-29v656h388q102 0 161 -46t59 -125v-14q0 -77 -59 -122.5zM141 329h359q89 0 139.5 38t50.5 105v14q0 67 -50.5 105t-139.5 38h-359v-300z" />
    <glyph glyph-name="S" unicode="S" horiz-adv-x="771" 
d="M160 40.5q-78 50.5 -78 150.5v12h29v-12q0 -174 281 -174q132 0 199.5 37t67.5 109v9q0 44 -21 72t-67 44.5t-124 24.5l-126 13q-111 11 -165.5 50t-54.5 108v10q0 82 74 127t209 45q145 0 219 -50.5t74 -149.5v-11h-30v11q0 173 -263 173q-121 0 -187 -37.5t-66 -106.5
v-10q0 -58 47 -89.5t148 -42.5l126 -13q127 -13 182 -51.5t55 -115.5v-10q0 -85 -76 -129t-222 -44q-153 0 -231 50.5z" />
    <glyph glyph-name="T" unicode="T" horiz-adv-x="691" 
d="M11 629v27h670v-27h-320v-629h-30v629h-320z" />
    <glyph glyph-name="U" unicode="U" horiz-adv-x="793" 
d="M242.5 23q-66.5 33 -103.5 93t-37 138v402h29v-402q0 -70 33 -124t93 -83.5t139 -29.5t139.5 29.5t93.5 83.5t33 124v402h29v-402q0 -78 -37 -138t-104 -93t-154 -33t-153.5 33z" />
    <glyph glyph-name="V" unicode="V" horiz-adv-x="770" 
d="M737 656v-6l-335 -650h-34l-335 650v6h30l322 -627l322 627h30z" />
    <glyph glyph-name="W" unicode="W" horiz-adv-x="1175" 
d="M1142 656v-6l-265 -650h-35l-254 620l-255 -620h-35l-265 650v6h30l253 -622l255 622h33l255 -622l253 622h30z" />
    <glyph glyph-name="X" unicode="X" horiz-adv-x="819" 
d="M735 650l-304 -322l304 -322v-6h-35l-290 309l-291 -309h-35v6l304 322l-304 322v6h35l291 -309l291 309h34v-6z" />
    <glyph glyph-name="Y" unicode="Y" horiz-adv-x="726" 
d="M707 650l-329 -357v-293h-29v293l-330 357v6h32l312 -337l313 337h31v-6z" />
    <glyph glyph-name="Z" unicode="Z" horiz-adv-x="696" 
d="M643 629l-552 -602h552v-27h-590v27l552 602h-552v27h590v-27z" />
    <glyph glyph-name="bracketleft" unicode="[" horiz-adv-x="457" 
d="M384 717v-26h-246v-726h246v-26h-272v778h272z" />
    <glyph glyph-name="backslash" unicode="\" horiz-adv-x="703" 
d="M99 717h29l476 -772v-6h-28l-477 772v6z" />
    <glyph glyph-name="bracketright" unicode="]" horiz-adv-x="457" 
d="M73 -35h246v726h-246v26h272v-778h-272v26z" />
    <glyph glyph-name="asciicircum" unicode="^" horiz-adv-x="557" 
d="M499 377v-6h-29l-192 259l-192 -259h-29v6l208 279h26z" />
    <glyph glyph-name="underscore" unicode="_" horiz-adv-x="564" 
d="M530 -81v-25h-496v25h496z" />
    <glyph glyph-name="grave" unicode="`" horiz-adv-x="600" 
d="M97 689l406 -87v-27l-406 87v27z" />
    <glyph glyph-name="a" unicode="a" horiz-adv-x="716" 
d="M715 26v-26h-48q-51 0 -80 26.5t-29 72.5v1q-44 -54 -112 -82t-156 -28q-208 0 -208 126q0 59 45 91t140 42l291 30v19q0 84 -57.5 128.5t-165.5 44.5q-65 0 -115.5 -19.5t-79 -54t-28.5 -78.5v-9h-28v9q0 52 32 92.5t89 63.5t130 23q119 0 185 -52.5t66 -147.5v-195
q0 -36 22.5 -56.5t62.5 -20.5h44zM450 48q71 32 108 89v117l-287 -29q-83 -8 -122 -35t-39 -74q0 -100 179 -100q90 0 161 32z" />
    <glyph glyph-name="b" unicode="b" horiz-adv-x="710" 
d="M518 468.5q64 -29.5 98 -84.5t34 -129v-22q0 -74 -34 -129t-98 -84.5t-150 -29.5q-73 0 -135.5 27t-102.5 76l-1 -93h-27v696h28v-300q41 48 103.5 75t134.5 27q86 0 150 -29.5zM621 255q0 101 -68 159t-187 58q-74 0 -137 -29.5t-99 -81.5v-234q36 -52 99 -81.5
t137 -29.5q118 0 186.5 58t68.5 159v22z" />
    <glyph glyph-name="c" unicode="c" horiz-adv-x="670" 
d="M194 20q-64 30 -99 84.5t-35 127.5v22q0 74 35 129t99 85t150 30q76 0 137.5 -25.5t96.5 -70t35 -99.5v-7h-29v7q0 48 -31 86.5t-86 60.5t-123 22q-77 0 -135 -26.5t-89 -76t-31 -115.5v-22q0 -65 31 -114t89 -75.5t135 -26.5q68 0 123 22t86 60.5t31 85.5v7h29v-7
q0 -55 -35 -99t-96.5 -69.5t-137.5 -25.5q-86 0 -150 30z" />
    <glyph glyph-name="d" unicode="d" horiz-adv-x="710" 
d="M609 696v-696h-27l-2 93q-40 -49 -102.5 -76t-135.5 -27q-86 0 -150 29.5t-98 84.5t-34 129v22q0 74 34 129t98 84.5t150 29.5q72 0 134.5 -27t103.5 -75v300h29zM481 45.5q63 29.5 99 81.5v234q-36 52 -99 81.5t-137 29.5q-119 0 -187 -58t-68 -159v-22
q0 -101 68.5 -159t186.5 -58q74 0 137 29.5z" />
    <glyph glyph-name="e" unicode="e" horiz-adv-x="671" 
d="M89 235v-5q0 -65 31 -113.5t88 -74.5t133 -26q70 0 124.5 20t85.5 56.5t31 83.5h29q-1 -55 -35 -97.5t-95 -65.5t-140 -23q-85 0 -148.5 30t-98 84.5t-34.5 127.5v24q0 73 34.5 127.5t98 84.5t148.5 30q81 0 142.5 -29.5t94.5 -83.5t33 -126v-24h-522zM208.5 446
q-56.5 -26 -88 -74t-31.5 -112h493v1q0 97 -65 154t-176 57q-76 0 -132.5 -26z" />
    <glyph glyph-name="f" unicode="f" horiz-adv-x="500" 
d="M483 462h-245v-462h-29v462h-197v26h197v70q0 67 35 102.5t97 35.5h102v-26h-100q-51 0 -78 -28.5t-27 -84.5v-69h245v-26z" />
    <glyph glyph-name="g" unicode="g" horiz-adv-x="709" 
d="M608 488v-466q0 -96 -72 -149t-200 -53q-83 0 -145.5 22t-96.5 62t-34 94v10h29v-10q0 -45 30.5 -79.5t86.5 -53.5t129 -19q115 0 179.5 46.5t64.5 128.5v95q-41 -47 -106.5 -75t-136.5 -28q-131 0 -204 61t-73 170v22q0 109 73 170.5t204 61.5q73 0 137.5 -27.5
t105.5 -76.5l2 94h27zM477 70q66 31 102 82v207q-36 51 -102 82t-140 31q-118 0 -183.5 -54t-65.5 -152v-22q0 -98 65.5 -151.5t183.5 -53.5q74 0 140 31z" />
    <glyph glyph-name="h" unicode="h" horiz-adv-x="711" 
d="M552 437q65 -61 65 -176v-261h-28v261q0 103 -59 157t-169 54q-71 0 -134.5 -32.5t-96.5 -84.5v-355h-28v696h28v-303q40 49 102 77t131 28q124 0 189 -61z" />
    <glyph glyph-name="i" unicode="i" horiz-adv-x="286" 
d="M157 488v-488h-28v488h28zM124 605.5q-8 7.5 -8 18.5q0 12 8 19.5t19 7.5q12 0 19.5 -7.5t7.5 -19.5q0 -11 -7.5 -18.5t-19.5 -7.5q-11 0 -19 7.5z" />
    <glyph glyph-name="j" unicode="j" horiz-adv-x="286" 
d="M16 -144q113 0 113 120v512h28v-512q0 -71 -36 -108.5t-104 -37.5h-118v26h117zM124 605.5q-8 7.5 -8 18.5q0 12 8 19.5t19 7.5q12 0 19.5 -7.5t7.5 -19.5q0 -11 -7.5 -18.5t-19.5 -7.5q-11 0 -19 7.5z" />
    <glyph glyph-name="k" unicode="k" horiz-adv-x="681" 
d="M635 5v-5h-35l-307 263l-163 -110v-153h-28v696h28v-509l453 301h38v-5l-305 -205z" />
    <glyph glyph-name="l" unicode="l" horiz-adv-x="319" 
d="M158 27q-29 27 -29 85v584h28v-581q0 -48 22 -68.5t74 -20.5h42v-26h-46q-62 0 -91 27z" />
    <glyph glyph-name="m" unicode="m" horiz-adv-x="1108" 
d="M967 437.5q59 -60.5 59 -172.5v-265h-28v265q0 100 -52 153.5t-148 53.5q-72 0 -136 -34.5t-98 -89.5q10 -36 10 -83v-265h-28v265q0 99 -52 153t-149 54q-70 0 -130.5 -32t-93.5 -85v-355h-28v488h27l1 -94q38 48 98 76t128 28q77 0 130 -31t77 -90q40 57 105 89t140 32
q109 0 168 -60.5z" />
    <glyph glyph-name="n" unicode="n" horiz-adv-x="711" 
d="M552.5 437.5q64.5 -60.5 64.5 -176.5v-261h-28v261q0 103 -58 157t-170 54q-73 0 -135.5 -32t-95.5 -85v-355h-28v488h27l1 -94q39 48 101.5 76t131.5 28q125 0 189.5 -60.5z" />
    <glyph glyph-name="o" unicode="o" horiz-adv-x="685" 
d="M193.5 19.5q-64.5 29.5 -99 84t-34.5 128.5v22q0 75 34.5 130t99 84.5t150.5 29.5q85 0 148.5 -29.5t98 -85t34.5 -129.5v-22q0 -73 -34.5 -128t-98 -84.5t-148.5 -29.5q-86 0 -150.5 29.5zM478 42.5q57 26.5 87.5 75t30.5 114.5v22q0 100 -67.5 159t-184.5 59
q-119 0 -187 -58.5t-68 -159.5v-22q0 -100 69 -158t186 -58q77 0 134 26.5z" />
    <glyph glyph-name="p" unicode="p" horiz-adv-x="710" 
d="M517 468.5q64 -29.5 98.5 -84.5t34.5 -129v-22q0 -74 -34.5 -129t-98.5 -84.5t-150 -29.5q-72 0 -134 27t-103 76v-263h-28v658h27l1 -92q41 48 103 75t134 27q86 0 150 -29.5zM621 255q0 101 -68.5 159t-186.5 58q-74 0 -137 -29.5t-99 -81.5v-234q36 -52 99 -81.5
t137 -29.5q118 0 186.5 58t68.5 159v22z" />
    <glyph glyph-name="q" unicode="q" horiz-adv-x="710" 
d="M609 488v-658h-29v263q-41 -49 -103 -76t-133 -27q-87 0 -151 29.5t-98.5 84.5t-34.5 129v22q0 74 34.5 129t98.5 84.5t151 29.5q71 0 133.5 -27t102.5 -76l2 93h27zM481 45.5q63 29.5 99 81.5v234q-36 52 -99 81.5t-137 29.5q-118 0 -186.5 -58t-68.5 -159v-22
q0 -101 68.5 -159t186.5 -58q74 0 137 29.5z" />
    <glyph glyph-name="r" unicode="r" horiz-adv-x="473" 
d="M463 488v-26h-105q-66 0 -119 -27.5t-82 -76.5v-358h-28v488h27l1 -92q32 45 85.5 68.5t118.5 23.5h102z" />
    <glyph glyph-name="s" unicode="s" horiz-adv-x="688" 
d="M205.5 8q-61.5 18 -95.5 51.5t-34 77.5v7h28v-7q0 -56 66 -88.5t179 -32.5q109 0 171.5 29t62.5 79v10q0 43 -45 66t-149 32l-96 9q-101 9 -147 37t-46 80v10q0 61 65.5 95.5t180.5 34.5q78 0 138.5 -18.5t94 -52t33.5 -76.5v-7h-29v7q0 36 -30 63.5t-83.5 42.5
t-123.5 15q-101 0 -159 -27.5t-58 -76.5v-9q0 -41 38.5 -63t126.5 -30l96 -9q118 -11 170 -39.5t52 -83.5v-10q0 -62 -71 -98t-193 -36q-81 0 -142.5 18z" />
    <glyph glyph-name="t" unicode="t" horiz-adv-x="520" 
d="M248 462v-331q0 -50 28 -77.5t79 -27.5h117v-26h-118q-64 0 -99 34.5t-35 96.5v331h-208v26h191q10 0 13.5 3.5t3.5 13.5v116h28v-133h254v-26h-254z" />
    <glyph glyph-name="u" unicode="u" horiz-adv-x="711" 
d="M610 488v-488h-27l-2 95q-38 -49 -100.5 -77t-132.5 -28q-125 0 -189.5 60.5t-64.5 176.5v261h28v-261q0 -103 58 -157t170 -54q73 0 136 32t95 85v355h29z" />
    <glyph glyph-name="v" unicode="v" horiz-adv-x="697" 
d="M634 488v-5l-268 -483h-36l-267 483v5h28l257 -464l258 464h28z" />
    <glyph glyph-name="w" unicode="w" horiz-adv-x="1067" 
d="M1004 488v-5l-227 -483h-36l-207 453l-208 -453h-36l-227 483v5h29l216 -462l211 462h28l212 -463l217 463h28z" />
    <glyph glyph-name="x" unicode="x" horiz-adv-x="656" 
d="M603 5v-5h-33l-242 230l-242 -230h-33v5l254 242l-250 236v5h33l238 -224l238 224h32v-5l-250 -235z" />
    <glyph glyph-name="y" unicode="y" horiz-adv-x="697" 
d="M634 488v-5l-308 -556q-20 -37 -40 -57.5t-49.5 -30t-76.5 -9.5h-65v26h64q56 0 85 17t55 64l33 59l-269 487v5h29l257 -463l256 463h29z" />
    <glyph glyph-name="z" unicode="z" horiz-adv-x="642" 
d="M577 463l-468 -437h468v-26h-507v25l468 437h-468v26h507v-25z" />
    <glyph glyph-name="braceleft" unicode="{" horiz-adv-x="544" 
d="M205 361q-22 -26 -65 -33q43 -7 65 -33t22 -68v-175q0 -42 28 -64.5t79 -22.5h137v-26h-141q-61 0 -96 29.5t-35 81.5v178q0 42 -28 64.5t-78 22.5h-80v26h80q50 0 78 22.5t28 64.5v178q0 52 35 81.5t96 29.5h141v-26h-137q-51 0 -79 -22.5t-28 -64.5v-175q0 -42 -22 -68
z" />
    <glyph glyph-name="bar" unicode="|" horiz-adv-x="308" 
d="M167 717v-778h-26v778h26z" />
    <glyph glyph-name="braceright" unicode="}" horiz-adv-x="544" 
d="M531 341v-26h-80q-50 0 -78 -22.5t-28 -64.5v-178q0 -52 -34.5 -81.5t-96.5 -29.5h-141v26h137q51 0 79 22.5t28 64.5v175q0 42 22.5 67.5t64.5 33.5q-42 8 -64.5 33.5t-22.5 67.5v175q0 42 -28 64.5t-79 22.5h-137v26h141q62 0 96.5 -29.5t34.5 -81.5v-178
q0 -42 28 -64.5t78 -22.5h80z" />
    <glyph glyph-name="asciitilde" unicode="~" horiz-adv-x="816" 
d="M477.5 292.5q-35.5 6.5 -82.5 19.5q-46 12 -76 18t-64 6q-69 0 -153 -32v27q80 32 153 32q34 0 64 -6t76 -18q47 -13 82.5 -19.5t76.5 -6.5q70 0 160 27v-26q-87 -28 -160 -28q-41 0 -76.5 6.5z" />
    <glyph glyph-name="uni00A0" unicode="&#xa0;" horiz-adv-x="400" 
 />
    <glyph glyph-name="exclamdown" unicode="&#xa1;" horiz-adv-x="352" 
d="M157.5 453q-7.5 7 -7.5 19t7.5 19t18.5 7t19 -7t8 -19t-8 -19t-19 -7t-18.5 7zM190 349l1 -519h-30l1 519h28z" />
    <glyph glyph-name="cent" unicode="&#xa2;" horiz-adv-x="816" 
d="M686 380v7q0 51 -33.5 89t-94.5 58.5t-143 20.5q-139 0 -212 -55.5t-73 -159.5v-24q0 -104 73.5 -159.5t212.5 -55.5q81 0 142.5 20.5t94.5 58t33 88.5v7h29v-7q0 -58 -36 -101.5t-102.5 -67.5t-154.5 -25v-84h-28v84q-140 5 -216.5 68t-76.5 174v24q0 112 76.5 174.5
t217.5 67.5v84h27v-84q88 -1 154 -25.5t102.5 -68.5t36.5 -101v-7h-29z" />
    <glyph glyph-name="sterling" unicode="&#xa3;" horiz-adv-x="816" 
d="M735 447v9q0 86 -61.5 134.5t-169.5 48.5q-110 0 -171 -46.5t-61 -131.5v-153h341v-26h-341v-139q0 -85 -57 -117h548v-26h-691v26h59q111 0 111 116v140h-170v26h170v153q0 97 69.5 151t192.5 54q120 0 189.5 -56t70.5 -154v-9h-29z" />
    <glyph glyph-name="currency" unicode="&#xa4;" horiz-adv-x="816" 
d="M597 176l102 -102l-22 -19l-101 103q-67 -48 -168 -48t-168 48l-101 -102l-22 19l101 101q-53 53 -53 131v19q0 79 54 133l-101 102l22 19l101 -103q65 48 167 48t168 -49l101 103l22 -19l-101 -102q53 -53 53 -132v-19q0 -77 -54 -131zM221 219q27 -39 75.5 -60.5
t111.5 -21.5t111.5 21.5t75.5 60.5t27 89v18q0 51 -27 90.5t-75.5 61t-111.5 21.5t-111.5 -21.5t-75.5 -61t-27 -90.5v-18q0 -50 27 -89z" />
    <glyph glyph-name="yen" unicode="&#xa5;" horiz-adv-x="816" 
d="M752 650l-314 -331h265v-27h-280v-145h280v-27h-280v-120h-29v120h-280v27h280v145h-280v27h265l-315 331v6h31l313 -328l313 328h31v-6z" />
    <glyph glyph-name="brokenbar" unicode="&#xa6;" horiz-adv-x="308" 
d="M167 717v-261h-26v261h26zM167 200v-261h-26v261h26z" />
    <glyph glyph-name="section" unicode="&#xa7;" horiz-adv-x="690" 
d="M577.5 391q40.5 -30 40.5 -78v-13q0 -37 -26.5 -64t-77.5 -41q63 -24 63 -77v-13q0 -55 -61.5 -85t-175.5 -30q-117 0 -182 32t-65 90v12h28v-12q0 -46 58 -72t162 -26q102 0 155 23t53 67v11q0 28 -23 44.5t-76 25.5l-212 36q-86 15 -126 45t-40 78v12q0 76 105 105
q-64 25 -64 78v12q0 55 61.5 85t175.5 30q117 0 182 -32t65 -90v-12h-28v12q0 46 -58 72t-162 26q-102 0 -155 -22.5t-53 -66.5v-12q0 -28 23.5 -44.5t75.5 -25.5l212 -36q85 -14 125.5 -44zM589 310q0 40 -33.5 63.5t-109.5 36.5l-211 36l-22 4q-58 -13 -85 -35.5
t-27 -56.5v-11q0 -40 33.5 -64t109.5 -37l212 -36l22 -4q57 13 84 35.5t27 56.5v12z" />
    <glyph glyph-name="dieresis" unicode="&#xa8;" horiz-adv-x="600" 
d="M153 605.5q-8 7.5 -8 18.5q0 12 7.5 19t19.5 7q11 0 18.5 -7t7.5 -19q0 -11 -7.5 -18.5t-18.5 -7.5t-19 7.5zM409 606q-8 8 -8 18q0 12 7.5 19t18.5 7q12 0 19.5 -7t7.5 -19q0 -11 -7.5 -18.5t-19.5 -7.5q-10 0 -18 8z" />
    <glyph glyph-name="copyright" unicode="&#xa9;" horiz-adv-x="897" 
d="M255.5 30q-82.5 40 -127 114t-44.5 174v20q0 100 44.5 174t126.5 114t193 40q110 0 192.5 -40.5t127 -114.5t44.5 -173v-20q0 -100 -44.5 -174t-126.5 -114t-193 -40q-110 0 -192.5 40zM627.5 49.5q76.5 37.5 118 106.5t41.5 162v20q0 92 -41.5 161.5t-118 107
t-179.5 37.5q-102 0 -178.5 -37.5t-118.5 -107t-42 -161.5v-20q0 -93 41.5 -162t118.5 -106.5t179 -37.5q103 0 179.5 37.5zM303.5 193q-55.5 47 -55.5 126v20q0 79 55.5 125.5t149.5 46.5q57 0 101.5 -18t69.5 -50t25 -73v-4h-25v4q0 53 -47 85.5t-123 32.5
q-85 0 -133 -39.5t-48 -109.5v-20q0 -70 48 -110t133 -40q75 0 122.5 33t47.5 85v4h25v-4q0 -41 -25 -73t-69.5 -50t-100.5 -18q-95 0 -150.5 47z" />
    <glyph glyph-name="ordfeminine" unicode="&#xaa;" horiz-adv-x="606" 
d="M601 273v-25h-42q-43 0 -67 22t-26 60q-37 -44 -95.5 -67t-132.5 -23q-89 0 -135 26.5t-46 78.5q0 49 38.5 77t119.5 35l251 24v15q0 68 -49.5 105.5t-140.5 37.5q-55 0 -98 -16t-67.5 -44.5t-24.5 -64.5v-8h-27v8q0 43 27.5 77t77 53t112.5 19q103 0 160 -44t57 -124
v-159q0 -29 18.5 -46t52.5 -17h37zM374 289.5q61 26.5 92 72.5v97l-245 -24q-71 -7 -104 -28.5t-33 -61.5q0 -82 153 -82q76 0 137 26.5z" />
    <glyph glyph-name="guillemotleft" unicode="&#xab;" horiz-adv-x="809" 
d="M144 275l256 -207v-5h-34l-259 209v7l259 209h34v-5zM438 275l256 -207v-5h-34l-259 209v7l259 209h34v-5z" />
    <glyph glyph-name="logicalnot" unicode="&#xac;" horiz-adv-x="816" 
d="M101 315v27h614v-257h-26v230h-588z" />
    <glyph glyph-name="uni00AD" unicode="&#xad;" horiz-adv-x="442" 
d="M392 289v-28h-342v28h342z" />
    <glyph glyph-name="registered" unicode="&#xae;" horiz-adv-x="581" 
d="M407.5 681q50.5 -25 78.5 -71t28 -107v-13q0 -60 -28 -106t-78.5 -71.5t-117.5 -25.5t-117.5 25.5t-78 71.5t-27.5 106v13q0 93 61 148t162 55q67 0 117.5 -25zM493 504q0 84 -55 133.5t-148 49.5t-147.5 -49.5t-54.5 -133.5v-14q0 -84 54.5 -134t147.5 -50t148 50
t55 134v14zM386 589.5q19 -14.5 19 -41.5v-8q0 -26 -19.5 -42t-53.5 -16h-15l85 -86v-4h-22l-88 90h-78v-90h-21v212h139q35 0 54 -14.5zM384 548q0 19 -14.5 29t-41.5 10h-114v-88h114q27 0 41.5 10.5t14.5 30.5v8z" />
    <glyph glyph-name="macron" unicode="&#xaf;" horiz-adv-x="600" 
d="M503 637v-25h-406v25h406z" />
    <glyph glyph-name="degree" unicode="&#xb0;" horiz-adv-x="446" 
d="M138.5 382.5q-38.5 18.5 -60 51.5t-21.5 74v15q0 41 21.5 73.5t60 51t85.5 18.5q73 0 119 -40t46 -104v-14q0 -64 -46 -104t-119 -40q-47 0 -85.5 18.5zM325 421q39 34 39 87v15q0 53 -39 86.5t-101 33.5t-102 -33.5t-40 -86.5v-16q0 -52 40 -86t102 -34t101 34z" />
    <glyph glyph-name="plusminus" unicode="&#xb1;" horiz-adv-x="816" 
d="M705 369v-27h-283v-194h-27v194h-285v27h285v203h27v-203h283zM110 64h595v-27h-595v27z" />
    <glyph glyph-name="uni00B2" unicode="&#xb2;" 
d="M263 463q72 37 109.5 62.5t53 49t15.5 52.5v11q0 49 -43 75.5t-122 26.5q-82 0 -125 -27t-43 -78v-13h-27v13q0 61 51 94.5t143 33.5t142.5 -32.5t50.5 -91.5v-11q0 -34 -16.5 -60.5t-56.5 -54.5t-117 -68l-151 -79h365v-23h-419v23z" />
    <glyph glyph-name="uni00B3" unicode="&#xb3;" 
d="M121 365.5q-56 28.5 -56 76.5v6h27v-6q0 -37 49.5 -59t128.5 -22q87 0 133 26t46 75v9q0 46 -44 70t-130 24h-62v21l210 146h-352v24h396v-24l-212 -146l38 -1q90 -2 137 -30.5t47 -83.5v-9q0 -61 -53.5 -93t-153.5 -32q-93 0 -149 28.5z" />
    <glyph glyph-name="acute" unicode="&#xb4;" horiz-adv-x="600" 
d="M503 688v-26l-406 -87v27z" />
    <glyph glyph-name="uni00B5" unicode="&#xb5;" horiz-adv-x="740" 
d="M750 26v-26h-53q-54 0 -84 24.5t-33 71.5q-35 -49 -93.5 -77.5t-128.5 -28.5q-87 0 -145 31.5t-83 91.5v-283h-28v658h28v-261q0 -103 58 -157t169 -54q70 0 130.5 31.5t92.5 84.5v356h28v-378q0 -41 24 -62.5t70 -21.5h48z" />
    <glyph glyph-name="paragraph" unicode="&#xb6;" horiz-adv-x="967" 
d="M645 0h-28v304h-330q-101 0 -160.5 45.5t-59.5 123.5v13q0 79 59 124.5t161 45.5h358v-656zM855 656v-656h-28v656h28z" />
    <glyph glyph-name="periodcentered" unicode="&#xb7;" horiz-adv-x="334" 
d="M148.5 263.5q-7.5 7.5 -7.5 18.5t7.5 18.5t18.5 7.5q12 0 19.5 -7.5t7.5 -18.5t-7.5 -18.5t-19.5 -7.5q-11 0 -18.5 7.5z" />
    <glyph glyph-name="cedilla" unicode="&#xb8;" horiz-adv-x="600" 
d="M341 0l-51 -170h-31l53 176z" />
    <glyph glyph-name="uni00B9" unicode="&#xb9;" 
d="M301 367v338q-25 -33 -105 -33h-127v24h127q52 0 78.5 15.5t26.5 45.5h28v-390h212v-24h-472v24h232z" />
    <glyph glyph-name="ordmasculine" unicode="&#xba;" horiz-adv-x="575" 
d="M159.5 265q-55.5 25 -85.5 70t-30 106v19q0 94 66 148.5t179 54.5q111 0 176.5 -55t65.5 -148v-19q0 -92 -65 -146.5t-177 -54.5q-74 0 -129.5 25zM445.5 313q58.5 48 58.5 128v18q0 82 -58 130.5t-157 48.5q-101 0 -159.5 -48t-58.5 -131v-18q0 -81 59 -128.5t159 -47.5
q98 0 156.5 48z" />
    <glyph glyph-name="guillemotright" unicode="&#xbb;" horiz-adv-x="809" 
d="M371 275l-256 208v5h34l259 -209v-7l-259 -209h-34v5zM665 275l-256 208v5h34l259 -209v-7l-259 -209h-34v5z" />
    <glyph glyph-name="onequarter" unicode="&#xbc;" horiz-adv-x="1408" 
d="M301 267v338q-25 -33 -105 -33h-127v24h127q52 0 78.5 15.5t26.5 45.5h28v-390h212v-24h-472v24h232zM1042 656h30v-6l-637 -650h-31v5zM888 105v24q55 83 90 150.5t59 134.5h29v-4q-50 -136 -147 -281h302v210h28v-210h143v-24h-143v-105h-28v105h-333z" />
    <glyph glyph-name="onehalf" unicode="&#xbd;" horiz-adv-x="1418" 
d="M301 267v338q-25 -33 -105 -33h-127v24h127q52 0 78.5 15.5t26.5 45.5h28v-390h212v-24h-472v24h232zM1042 656h30v-6l-637 -650h-31v5zM1127 120q72 37 109.5 62.5t53 49t15.5 52.5v11q0 49 -43 75.5t-122 26.5q-82 0 -125 -27t-43 -78v-13h-27v13q0 61 51 94.5
t143 33.5t142.5 -32.5t50.5 -91.5v-11q0 -34 -16.5 -60.5t-56.5 -54.5t-117 -68l-151 -79h365v-23h-419v23z" />
    <glyph glyph-name="threequarters" unicode="&#xbe;" horiz-adv-x="1359" 
d="M121 265.5q-56 28.5 -56 76.5v6h27v-6q0 -37 49.5 -59t128.5 -22q87 0 133 26t46 75v9q0 46 -44 70t-130 24h-62v21l210 146h-352v24h396v-24l-212 -146l38 -1q90 -2 137 -30.5t47 -83.5v-9q0 -61 -53.5 -93t-153.5 -32q-93 0 -149 28.5zM993 656h30v-6l-637 -650h-31v5z
M839 105v24q55 83 90 150.5t59 134.5h29v-4q-50 -136 -147 -281h302v210h28v-210h143v-24h-143v-105h-28v105h-333z" />
    <glyph glyph-name="questiondown" unicode="&#xbf;" horiz-adv-x="632" 
d="M311.5 453q-7.5 7 -7.5 19t7.5 19t18.5 7t19 -7t8 -19t-8 -19t-19 -7t-18.5 7zM193 -159q-55 21 -85.5 59.5t-30.5 88.5v11q0 46 29 81t103 79q61 35 84.5 66t23.5 78v45h27v-45q0 -54 -24.5 -88.5t-89.5 -72.5q-70 -42 -97 -73t-27 -71v-10q0 -66 57.5 -104.5
t157.5 -38.5q106 0 166.5 43.5t60.5 119.5v22h28v-22q0 -88 -68.5 -138.5t-186.5 -50.5q-73 0 -128 21z" />
    <glyph glyph-name="Agrave" unicode="&#xc0;" horiz-adv-x="770" 
d="M737 6v-6h-30l-109 211h-426l-109 -211h-30v6l336 650h33zM584 238l-199 387l-199 -387h398zM182 857l406 -87v-27l-406 87v27z" />
    <glyph glyph-name="Aacute" unicode="&#xc1;" horiz-adv-x="770" 
d="M737 6v-6h-30l-109 211h-426l-109 -211h-30v6l336 650h33zM584 238l-199 387l-199 -387h398zM588 856v-26l-406 -87v27z" />
    <glyph glyph-name="Acircumflex" unicode="&#xc2;" horiz-adv-x="770" 
d="M737 6v-6h-30l-109 211h-426l-109 -211h-30v6l336 650h33zM584 238l-199 387l-199 -387h398zM385 856l203 -85v-28l-203 86l-203 -86v28z" />
    <glyph glyph-name="Atilde" unicode="&#xc3;" horiz-adv-x="770" 
d="M737 6v-6h-30l-109 211h-426l-109 -211h-30v6l336 650h33zM584 238l-199 387l-199 -387h398zM434 766.5q-22 4.5 -57 14.5q-28 9 -48.5 13t-42.5 4q-51 0 -104 -25v25q55 26 104 26q23 0 42.5 -4.5t50.5 -13.5q34 -10 55.5 -14.5t47.5 -4.5q48 0 106 21v-25
q-55 -21 -106 -21q-26 0 -48 4.5z" />
    <glyph glyph-name="Adieresis" unicode="&#xc4;" horiz-adv-x="770" 
d="M737 6v-6h-30l-109 211h-426l-109 -211h-30v6l336 650h33zM584 238l-199 387l-199 -387h398zM238 773.5q-8 7.5 -8 18.5q0 12 7.5 19t19.5 7q11 0 18.5 -7t7.5 -19q0 -11 -7.5 -18.5t-18.5 -7.5t-19 7.5zM494 774q-8 8 -8 18q0 12 7.5 19t18.5 7q12 0 19.5 -7t7.5 -19
q0 -11 -7.5 -18.5t-19.5 -7.5q-10 0 -18 8z" />
    <glyph glyph-name="Aring" unicode="&#xc5;" horiz-adv-x="770" 
d="M737 6v-6h-30l-109 211h-426l-109 -211h-30v6l336 650h33zM584 238l-199 387l-199 -387h398zM290.5 669q-33.5 26 -33.5 74q0 47 34 73.5t94 26.5t93.5 -26.5t33.5 -73.5q0 -49 -32.5 -74.5t-94.5 -25.5q-61 0 -94.5 26zM460 684.5q26 20.5 26 58.5t-26.5 58.5
t-74.5 20.5q-49 0 -75.5 -20.5t-26.5 -58.5t26.5 -58.5t75.5 -20.5t75 20.5z" />
    <glyph glyph-name="AE" unicode="&#xc6;" horiz-adv-x="1072" 
d="M457 629l73 -287h434v-27h-427l74 -288h373v-27h-396l-54 211h-363l-108 -211h-30v6l336 650h615v-27h-527zM428 629h-42l-201 -391h342z" />
    <glyph glyph-name="Ccedilla" unicode="&#xc7;" horiz-adv-x="874" 
d="M254.5 29.5q-81.5 39.5 -125.5 113t-44 172.5v25q0 99 44 172.5t125.5 113.5t191.5 40q95 0 172.5 -33t122.5 -91t45 -128v-11h-30v11q0 63 -40.5 114.5t-111.5 81t-158 29.5q-103 0 -177.5 -36t-114 -103.5t-39.5 -159.5v-25q0 -92 39.5 -159.5t114 -103t177.5 -35.5
q87 0 158 29.5t111.5 80.5t40.5 114v13h30v-13q0 -70 -45 -127.5t-122.5 -90.5t-172.5 -33q-110 0 -191.5 39.5zM467 0l-51 -170h-31l53 176z" />
    <glyph glyph-name="Egrave" unicode="&#xc8;" horiz-adv-x="723" 
d="M635 656v-27h-494v-287h474v-27h-474v-288h494v-27h-523v656h523zM170 857l406 -87v-27l-406 87v27z" />
    <glyph glyph-name="Eacute" unicode="&#xc9;" horiz-adv-x="723" 
d="M635 656v-27h-494v-287h474v-27h-474v-288h494v-27h-523v656h523zM576 856v-26l-406 -87v27z" />
    <glyph glyph-name="Ecircumflex" unicode="&#xca;" horiz-adv-x="723" 
d="M635 656v-27h-494v-287h474v-27h-474v-288h494v-27h-523v656h523zM373 856l203 -85v-28l-203 86l-203 -86v28z" />
    <glyph glyph-name="Edieresis" unicode="&#xcb;" horiz-adv-x="723" 
d="M635 656v-27h-494v-287h474v-27h-474v-288h494v-27h-523v656h523zM226 773.5q-8 7.5 -8 18.5q0 12 7.5 19t19.5 7q11 0 18.5 -7t7.5 -19q0 -11 -7.5 -18.5t-18.5 -7.5t-19 7.5zM482 774q-8 8 -8 18q0 12 7.5 19t18.5 7q12 0 19.5 -7t7.5 -19q0 -11 -7.5 -18.5t-19.5 -7.5
q-10 0 -18 8z" />
    <glyph glyph-name="Igrave" unicode="&#xcc;" horiz-adv-x="299" 
d="M164 656v-656h-29v656h29zM9 840l280 -53v-27l-280 53v27z" />
    <glyph glyph-name="Iacute" unicode="&#xcd;" horiz-adv-x="299" 
d="M164 656v-656h-29v656h29zM290 840v-27l-280 -53v27z" />
    <glyph glyph-name="Icircumflex" unicode="&#xce;" horiz-adv-x="299" 
d="M164 656v-656h-29v656h29zM150 847l140 -59v-27l-140 59l-140 -59v27z" />
    <glyph glyph-name="Idieresis" unicode="&#xcf;" horiz-adv-x="299" 
d="M164 656v-656h-29v656h29zM3 773.5q-8 7.5 -8 18.5q0 12 7.5 19t19.5 7q11 0 18.5 -7t7.5 -19q0 -11 -7.5 -18.5t-18.5 -7.5t-19 7.5zM259 774q-8 8 -8 18q0 12 7.5 19t18.5 7q12 0 19.5 -7t7.5 -19q0 -11 -7.5 -18.5t-19.5 -7.5q-10 0 -18 8z" />
    <glyph glyph-name="Eth" unicode="&#xd0;" horiz-adv-x="859" 
d="M683 574q90 -82 90 -236v-20q0 -154 -90 -236t-259 -82h-279v315h-130v26h130v315h279q169 0 259 -82zM744 338q0 142 -82 216.5t-238 74.5h-250v-288h252v-26h-252v-288h250q156 0 238 74t82 216v21z" />
    <glyph glyph-name="Ntilde" unicode="&#xd1;" horiz-adv-x="819" 
d="M707 656v-656h-28l-539 615v-615h-28v656h29l538 -615v615h28zM459 766.5q-22 4.5 -57 14.5q-28 9 -48.5 13t-42.5 4q-51 0 -104 -25v25q55 26 104 26q23 0 42.5 -4.5t50.5 -13.5q34 -10 55.5 -14.5t47.5 -4.5q48 0 106 21v-25q-55 -21 -106 -21q-26 0 -48 4.5z" />
    <glyph glyph-name="Ograve" unicode="&#xd2;" horiz-adv-x="877" 
d="M251.5 30q-79.5 40 -123 114t-43.5 174v19q0 100 43 174.5t123 114.5t187 40t186.5 -40.5t123 -114.5t43.5 -174v-19q0 -100 -43 -174t-123 -114t-187 -40t-186.5 40zM610 53.5q73 36.5 112.5 104.5t39.5 160v19q0 92 -39.5 160t-112.5 105t-172 37t-172 -37t-112 -105
t-39 -160v-19q0 -92 39 -160t112 -104.5t172 -36.5t172 36.5zM235 857l406 -87v-27l-406 87v27z" />
    <glyph glyph-name="Oacute" unicode="&#xd3;" horiz-adv-x="877" 
d="M251.5 30q-79.5 40 -123 114t-43.5 174v19q0 100 43 174.5t123 114.5t187 40t186.5 -40.5t123 -114.5t43.5 -174v-19q0 -100 -43 -174t-123 -114t-187 -40t-186.5 40zM610 53.5q73 36.5 112.5 104.5t39.5 160v19q0 92 -39.5 160t-112.5 105t-172 37t-172 -37t-112 -105
t-39 -160v-19q0 -92 39 -160t112 -104.5t172 -36.5t172 36.5zM641 856v-26l-406 -87v27z" />
    <glyph glyph-name="Ocircumflex" unicode="&#xd4;" horiz-adv-x="877" 
d="M251.5 30q-79.5 40 -123 114t-43.5 174v19q0 100 43 174.5t123 114.5t187 40t186.5 -40.5t123 -114.5t43.5 -174v-19q0 -100 -43 -174t-123 -114t-187 -40t-186.5 40zM610 53.5q73 36.5 112.5 104.5t39.5 160v19q0 92 -39.5 160t-112.5 105t-172 37t-172 -37t-112 -105
t-39 -160v-19q0 -92 39 -160t112 -104.5t172 -36.5t172 36.5zM438 856l203 -85v-28l-203 86l-203 -86v28z" />
    <glyph glyph-name="Otilde" unicode="&#xd5;" horiz-adv-x="877" 
d="M251.5 30q-79.5 40 -123 114t-43.5 174v19q0 100 43 174.5t123 114.5t187 40t186.5 -40.5t123 -114.5t43.5 -174v-19q0 -100 -43 -174t-123 -114t-187 -40t-186.5 40zM610 53.5q73 36.5 112.5 104.5t39.5 160v19q0 92 -39.5 160t-112.5 105t-172 37t-172 -37t-112 -105
t-39 -160v-19q0 -92 39 -160t112 -104.5t172 -36.5t172 36.5zM487 766.5q-22 4.5 -57 14.5q-28 9 -48.5 13t-42.5 4q-51 0 -104 -25v25q55 26 104 26q23 0 42.5 -4.5t50.5 -13.5q34 -10 55.5 -14.5t47.5 -4.5q48 0 106 21v-25q-55 -21 -106 -21q-26 0 -48 4.5z" />
    <glyph glyph-name="Odieresis" unicode="&#xd6;" horiz-adv-x="877" 
d="M251.5 30q-79.5 40 -123 114t-43.5 174v19q0 100 43 174.5t123 114.5t187 40t186.5 -40.5t123 -114.5t43.5 -174v-19q0 -100 -43 -174t-123 -114t-187 -40t-186.5 40zM610 53.5q73 36.5 112.5 104.5t39.5 160v19q0 92 -39.5 160t-112.5 105t-172 37t-172 -37t-112 -105
t-39 -160v-19q0 -92 39 -160t112 -104.5t172 -36.5t172 36.5zM291 773.5q-8 7.5 -8 18.5q0 12 7.5 19t19.5 7q11 0 18.5 -7t7.5 -19q0 -11 -7.5 -18.5t-18.5 -7.5t-19 7.5zM547 774q-8 8 -8 18q0 12 7.5 19t18.5 7q12 0 19.5 -7t7.5 -19q0 -11 -7.5 -18.5t-19.5 -7.5
q-10 0 -18 8z" />
    <glyph glyph-name="multiply" unicode="&#xd7;" horiz-adv-x="816" 
d="M427 328l219 -219l-19 -19l-219 219l-219 -219l-19 19l219 219l-219 219l19 19l219 -219l219 219l19 -19z" />
    <glyph glyph-name="Oslash" unicode="&#xd8;" horiz-adv-x="877" 
d="M753.5 500.5q37.5 -70.5 37.5 -163.5v-19q0 -100 -43 -174t-123 -114t-187 -40q-104 0 -183 38l-60 -89h-30v6l64 97q-69 42 -106.5 112.5t-37.5 163.5v19q0 100 43 174.5t123 114.5t187 40q103 0 184 -39l60 90h30v-6l-65 -98q69 -42 106.5 -112.5zM149 168
q34 -65 97 -103l360 539q-72 35 -168 35q-99 0 -172 -37t-112 -105t-39 -160v-19q0 -85 34 -150zM762 337q0 85 -34 150t-97 103l-361 -538q72 -35 168 -35q99 0 172 36.5t112.5 104.5t39.5 160v19z" />
    <glyph glyph-name="Ugrave" unicode="&#xd9;" horiz-adv-x="793" 
d="M242.5 23q-66.5 33 -103.5 93t-37 138v402h29v-402q0 -70 33 -124t93 -83.5t139 -29.5t139.5 29.5t93.5 83.5t33 124v402h29v-402q0 -78 -37 -138t-104 -93t-154 -33t-153.5 33zM194 857l406 -87v-27l-406 87v27z" />
    <glyph glyph-name="Uacute" unicode="&#xda;" horiz-adv-x="793" 
d="M242.5 23q-66.5 33 -103.5 93t-37 138v402h29v-402q0 -70 33 -124t93 -83.5t139 -29.5t139.5 29.5t93.5 83.5t33 124v402h29v-402q0 -78 -37 -138t-104 -93t-154 -33t-153.5 33zM600 856v-26l-406 -87v27z" />
    <glyph glyph-name="Ucircumflex" unicode="&#xdb;" horiz-adv-x="793" 
d="M242.5 23q-66.5 33 -103.5 93t-37 138v402h29v-402q0 -70 33 -124t93 -83.5t139 -29.5t139.5 29.5t93.5 83.5t33 124v402h29v-402q0 -78 -37 -138t-104 -93t-154 -33t-153.5 33zM397 856l203 -85v-28l-203 86l-203 -86v28z" />
    <glyph glyph-name="Udieresis" unicode="&#xdc;" horiz-adv-x="793" 
d="M242.5 23q-66.5 33 -103.5 93t-37 138v402h29v-402q0 -70 33 -124t93 -83.5t139 -29.5t139.5 29.5t93.5 83.5t33 124v402h29v-402q0 -78 -37 -138t-104 -93t-154 -33t-153.5 33zM250 773.5q-8 7.5 -8 18.5q0 12 7.5 19t19.5 7q11 0 18.5 -7t7.5 -19q0 -11 -7.5 -18.5
t-18.5 -7.5t-19 7.5zM506 774q-8 8 -8 18q0 12 7.5 19t18.5 7q12 0 19.5 -7t7.5 -19q0 -11 -7.5 -18.5t-19.5 -7.5q-10 0 -18 8z" />
    <glyph glyph-name="Yacute" unicode="&#xdd;" horiz-adv-x="726" 
d="M707 650l-329 -357v-293h-29v293l-330 357v6h32l312 -337l313 337h31v-6zM565 856v-26l-406 -87v27z" />
    <glyph glyph-name="Thorn" unicode="&#xde;" horiz-adv-x="787" 
d="M661 459.5q59 -45.5 59 -124.5v-14q0 -78 -59.5 -123.5t-160.5 -45.5h-359v-152h-29v656h29v-151h359q102 0 161 -45.5zM690 335q0 67 -50.5 105t-139.5 38h-359v-299h359q88 0 139 38t51 104v14z" />
    <glyph glyph-name="germandbls" unicode="&#xdf;" horiz-adv-x="723" 
d="M623 284q39 -39 39 -103v-12q0 -78 -58 -123.5t-159 -45.5h-118v26h114q91 0 141.5 38t50.5 107v11q0 68 -53 103.5t-154 35.5h-88v26h85q81 0 131 41t50 108v17q0 79 -61 123t-170 44q-114 0 -178.5 -49t-64.5 -135v-496h-28v497q0 98 72 153.5t199 55.5
q123 0 191 -50.5t68 -141.5v-18q0 -57 -32.5 -99t-90.5 -60q75 -14 114 -53z" />
    <glyph glyph-name="agrave" unicode="&#xe0;" horiz-adv-x="716" 
d="M715 26v-26h-48q-51 0 -80 26.5t-29 72.5v1q-44 -54 -112 -82t-156 -28q-208 0 -208 126q0 59 45 91t140 42l291 30v19q0 84 -57.5 128.5t-165.5 44.5q-65 0 -115.5 -19.5t-79 -54t-28.5 -78.5v-9h-28v9q0 52 32 92.5t89 63.5t130 23q119 0 185 -52.5t66 -147.5v-195
q0 -36 22.5 -56.5t62.5 -20.5h44zM450 48q71 32 108 89v117l-287 -29q-83 -8 -122 -35t-39 -74q0 -100 179 -100q90 0 161 32zM133 689l406 -87v-27l-406 87v27z" />
    <glyph glyph-name="aacute" unicode="&#xe1;" horiz-adv-x="716" 
d="M715 26v-26h-48q-51 0 -80 26.5t-29 72.5v1q-44 -54 -112 -82t-156 -28q-208 0 -208 126q0 59 45 91t140 42l291 30v19q0 84 -57.5 128.5t-165.5 44.5q-65 0 -115.5 -19.5t-79 -54t-28.5 -78.5v-9h-28v9q0 52 32 92.5t89 63.5t130 23q119 0 185 -52.5t66 -147.5v-195
q0 -36 22.5 -56.5t62.5 -20.5h44zM450 48q71 32 108 89v117l-287 -29q-83 -8 -122 -35t-39 -74q0 -100 179 -100q90 0 161 32zM539 688v-26l-406 -87v27z" />
    <glyph glyph-name="acircumflex" unicode="&#xe2;" horiz-adv-x="716" 
d="M715 26v-26h-48q-51 0 -80 26.5t-29 72.5v1q-44 -54 -112 -82t-156 -28q-208 0 -208 126q0 59 45 91t140 42l291 30v19q0 84 -57.5 128.5t-165.5 44.5q-65 0 -115.5 -19.5t-79 -54t-28.5 -78.5v-9h-28v9q0 52 32 92.5t89 63.5t130 23q119 0 185 -52.5t66 -147.5v-195
q0 -36 22.5 -56.5t62.5 -20.5h44zM450 48q71 32 108 89v117l-287 -29q-83 -8 -122 -35t-39 -74q0 -100 179 -100q90 0 161 32zM336 688l203 -85v-28l-203 86l-203 -86v28z" />
    <glyph glyph-name="atilde" unicode="&#xe3;" horiz-adv-x="716" 
d="M715 26v-26h-48q-51 0 -80 26.5t-29 72.5v1q-44 -54 -112 -82t-156 -28q-208 0 -208 126q0 59 45 91t140 42l291 30v19q0 84 -57.5 128.5t-165.5 44.5q-65 0 -115.5 -19.5t-79 -54t-28.5 -78.5v-9h-28v9q0 52 32 92.5t89 63.5t130 23q119 0 185 -52.5t66 -147.5v-195
q0 -36 22.5 -56.5t62.5 -20.5h44zM450 48q71 32 108 89v117l-287 -29q-83 -8 -122 -35t-39 -74q0 -100 179 -100q90 0 161 32zM385 598.5q-22 4.5 -57 14.5q-28 9 -48.5 13t-42.5 4q-51 0 -104 -25v25q55 26 104 26q23 0 42.5 -4.5t50.5 -13.5q34 -10 55.5 -14.5t47.5 -4.5
q48 0 106 21v-25q-55 -21 -106 -21q-26 0 -48 4.5z" />
    <glyph glyph-name="adieresis" unicode="&#xe4;" horiz-adv-x="716" 
d="M715 26v-26h-48q-51 0 -80 26.5t-29 72.5v1q-44 -54 -112 -82t-156 -28q-208 0 -208 126q0 59 45 91t140 42l291 30v19q0 84 -57.5 128.5t-165.5 44.5q-65 0 -115.5 -19.5t-79 -54t-28.5 -78.5v-9h-28v9q0 52 32 92.5t89 63.5t130 23q119 0 185 -52.5t66 -147.5v-195
q0 -36 22.5 -56.5t62.5 -20.5h44zM450 48q71 32 108 89v117l-287 -29q-83 -8 -122 -35t-39 -74q0 -100 179 -100q90 0 161 32zM189 605.5q-8 7.5 -8 18.5q0 12 7.5 19t19.5 7q11 0 18.5 -7t7.5 -19q0 -11 -7.5 -18.5t-18.5 -7.5t-19 7.5zM445 606q-8 8 -8 18q0 12 7.5 19
t18.5 7q12 0 19.5 -7t7.5 -19q0 -11 -7.5 -18.5t-19.5 -7.5q-10 0 -18 8z" />
    <glyph glyph-name="aring" unicode="&#xe5;" horiz-adv-x="716" 
d="M715 26v-26h-48q-51 0 -80 26.5t-29 72.5v1q-44 -54 -112 -82t-156 -28q-208 0 -208 126q0 59 45 91t140 42l291 30v19q0 84 -57.5 128.5t-165.5 44.5q-65 0 -115.5 -19.5t-79 -54t-28.5 -78.5v-9h-28v9q0 52 32 92.5t89 63.5t130 23q119 0 185 -52.5t66 -147.5v-195
q0 -36 22.5 -56.5t62.5 -20.5h44zM450 48q71 32 108 89v117l-287 -29q-83 -8 -122 -35t-39 -74q0 -100 179 -100q90 0 161 32zM241.5 575q-33.5 26 -33.5 74q0 47 34 73.5t94 26.5t93.5 -26.5t33.5 -73.5q0 -49 -32.5 -74.5t-94.5 -25.5q-61 0 -94.5 26zM411 590.5
q26 20.5 26 58.5t-26.5 58.5t-74.5 20.5q-49 0 -75.5 -20.5t-26.5 -58.5t26.5 -58.5t75.5 -20.5t75 20.5z" />
    <glyph glyph-name="ae" unicode="&#xe6;" horiz-adv-x="1098" 
d="M560 241v-11q0 -99 63 -156.5t171 -57.5q62 0 111 20.5t76.5 57t27.5 82.5h29q-1 -54 -32 -96.5t-85.5 -66t-124.5 -23.5q-86 0 -147.5 33t-91.5 93q-43 -65 -108 -95.5t-159 -30.5q-208 0 -208 125q0 59 45 90.5t140 39.5l265 22v15q0 189 -207 189q-62 0 -110.5 -19
t-75 -53.5t-26.5 -79.5v-9h-29v9q0 53 30.5 93.5t85.5 63t126 22.5q191 0 225 -146q25 67 90.5 106.5t153.5 39.5q72 0 127.5 -29.5t85.5 -83.5t30 -126v-18h-478zM626 416q-64 -56 -66 -151h449q-2 95 -59.5 151t-154.5 56q-105 0 -169 -56zM547 141q-15 41 -15 91v10
l-259 -21q-85 -7 -124 -32t-39 -73q0 -100 178 -100q182 0 259 125z" />
    <glyph glyph-name="ccedilla" unicode="&#xe7;" horiz-adv-x="670" 
d="M194 20q-64 30 -99 84.5t-35 127.5v22q0 74 35 129t99 85t150 30q76 0 137.5 -25.5t96.5 -70t35 -99.5v-7h-29v7q0 48 -31 86.5t-86 60.5t-123 22q-77 0 -135 -26.5t-89 -76t-31 -115.5v-22q0 -65 31 -114t89 -75.5t135 -26.5q68 0 123 22t86 60.5t31 85.5v7h29v-7
q0 -55 -35 -99t-96.5 -69.5t-137.5 -25.5q-86 0 -150 30zM347 0l-51 -170h-31l53 176z" />
    <glyph glyph-name="egrave" unicode="&#xe8;" horiz-adv-x="671" 
d="M89 235v-5q0 -65 31 -113.5t88 -74.5t133 -26q70 0 124.5 20t85.5 56.5t31 83.5h29q-1 -55 -35 -97.5t-95 -65.5t-140 -23q-85 0 -148.5 30t-98 84.5t-34.5 127.5v24q0 73 34.5 127.5t98 84.5t148.5 30q81 0 142.5 -29.5t94.5 -83.5t33 -126v-24h-522zM208.5 446
q-56.5 -26 -88 -74t-31.5 -112h493v1q0 97 -65 154t-176 57q-76 0 -132.5 -26zM134 689l406 -87v-27l-406 87v27z" />
    <glyph glyph-name="eacute" unicode="&#xe9;" horiz-adv-x="671" 
d="M89 235v-5q0 -65 31 -113.5t88 -74.5t133 -26q70 0 124.5 20t85.5 56.5t31 83.5h29q-1 -55 -35 -97.5t-95 -65.5t-140 -23q-85 0 -148.5 30t-98 84.5t-34.5 127.5v24q0 73 34.5 127.5t98 84.5t148.5 30q81 0 142.5 -29.5t94.5 -83.5t33 -126v-24h-522zM208.5 446
q-56.5 -26 -88 -74t-31.5 -112h493v1q0 97 -65 154t-176 57q-76 0 -132.5 -26zM540 688v-26l-406 -87v27z" />
    <glyph glyph-name="ecircumflex" unicode="&#xea;" horiz-adv-x="671" 
d="M89 235v-5q0 -65 31 -113.5t88 -74.5t133 -26q70 0 124.5 20t85.5 56.5t31 83.5h29q-1 -55 -35 -97.5t-95 -65.5t-140 -23q-85 0 -148.5 30t-98 84.5t-34.5 127.5v24q0 73 34.5 127.5t98 84.5t148.5 30q81 0 142.5 -29.5t94.5 -83.5t33 -126v-24h-522zM208.5 446
q-56.5 -26 -88 -74t-31.5 -112h493v1q0 97 -65 154t-176 57q-76 0 -132.5 -26zM337 688l203 -85v-28l-203 86l-203 -86v28z" />
    <glyph glyph-name="edieresis" unicode="&#xeb;" horiz-adv-x="671" 
d="M89 235v-5q0 -65 31 -113.5t88 -74.5t133 -26q70 0 124.5 20t85.5 56.5t31 83.5h29q-1 -55 -35 -97.5t-95 -65.5t-140 -23q-85 0 -148.5 30t-98 84.5t-34.5 127.5v24q0 73 34.5 127.5t98 84.5t148.5 30q81 0 142.5 -29.5t94.5 -83.5t33 -126v-24h-522zM208.5 446
q-56.5 -26 -88 -74t-31.5 -112h493v1q0 97 -65 154t-176 57q-76 0 -132.5 -26zM190 605.5q-8 7.5 -8 18.5q0 12 7.5 19t19.5 7q11 0 18.5 -7t7.5 -19q0 -11 -7.5 -18.5t-18.5 -7.5t-19 7.5zM446 606q-8 8 -8 18q0 12 7.5 19t18.5 7q12 0 19.5 -7t7.5 -19q0 -11 -7.5 -18.5
t-19.5 -7.5q-10 0 -18 8z" />
    <glyph glyph-name="igrave" unicode="&#xec;" horiz-adv-x="286" 
d="M157 488v-488h-28v488h28zM2 672l280 -53v-27l-280 53v27z" />
    <glyph glyph-name="iacute" unicode="&#xed;" horiz-adv-x="286" 
d="M157 488v-488h-28v488h28zM283 672v-27l-280 -53v27z" />
    <glyph glyph-name="icircumflex" unicode="&#xee;" horiz-adv-x="286" 
d="M157 488v-488h-28v488h28zM143 679l140 -59v-27l-140 59l-140 -59v27z" />
    <glyph glyph-name="idieresis" unicode="&#xef;" horiz-adv-x="286" 
d="M157 488v-488h-28v488h28zM24 605.5q-8 7.5 -8 18.5q0 12 7.5 19t19.5 7q11 0 18.5 -7t7.5 -19q0 -11 -7.5 -18.5t-18.5 -7.5t-19 7.5zM224 605.5q-8 7.5 -8 18.5q0 12 7.5 19t19.5 7q11 0 18.5 -7t7.5 -19q0 -11 -7.5 -18.5t-18.5 -7.5t-19 7.5z" />
    <glyph glyph-name="eth" unicode="&#xf0;" horiz-adv-x="684" 
d="M626 674l-240 -44q89 -38 139 -80.5t72 -99t22 -137.5v-84q0 -72 -34.5 -126t-97.5 -83.5t-147 -29.5q-130 0 -205 61t-75 167v29q0 107 75 168t208 61q73 0 137.5 -27t106.5 -74q-8 59 -34 102t-76.5 77t-134.5 67l-266 -45v26l224 37l-132 56v5h50l125 -51l283 50v-25z
M590 316v19q-36 52 -102.5 83t-143.5 31q-121 0 -188 -53t-67 -148v-29q0 -95 66.5 -149t184.5 -54q76 0 132.5 26t87 74.5t30.5 112.5v87z" />
    <glyph glyph-name="ntilde" unicode="&#xf1;" horiz-adv-x="711" 
d="M552.5 437.5q64.5 -60.5 64.5 -176.5v-261h-28v261q0 103 -58 157t-170 54q-73 0 -135.5 -32t-95.5 -85v-355h-28v488h27l1 -94q39 48 101.5 76t131.5 28q125 0 189.5 -60.5zM409 598.5q-22 4.5 -57 14.5q-28 9 -48.5 13t-42.5 4q-51 0 -104 -25v25q55 26 104 26
q23 0 42.5 -4.5t50.5 -13.5q34 -10 55.5 -14.5t47.5 -4.5q48 0 106 21v-25q-55 -21 -106 -21q-26 0 -48 4.5z" />
    <glyph glyph-name="ograve" unicode="&#xf2;" horiz-adv-x="685" 
d="M193.5 19.5q-64.5 29.5 -99 84t-34.5 128.5v22q0 75 34.5 130t99 84.5t150.5 29.5q85 0 148.5 -29.5t98 -85t34.5 -129.5v-22q0 -73 -34.5 -128t-98 -84.5t-148.5 -29.5q-86 0 -150.5 29.5zM478 42.5q57 26.5 87.5 75t30.5 114.5v22q0 100 -67.5 159t-184.5 59
q-119 0 -187 -58.5t-68 -159.5v-22q0 -100 69 -158t186 -58q77 0 134 26.5zM140 689l406 -87v-27l-406 87v27z" />
    <glyph glyph-name="oacute" unicode="&#xf3;" horiz-adv-x="685" 
d="M193.5 19.5q-64.5 29.5 -99 84t-34.5 128.5v22q0 75 34.5 130t99 84.5t150.5 29.5q85 0 148.5 -29.5t98 -85t34.5 -129.5v-22q0 -73 -34.5 -128t-98 -84.5t-148.5 -29.5q-86 0 -150.5 29.5zM478 42.5q57 26.5 87.5 75t30.5 114.5v22q0 100 -67.5 159t-184.5 59
q-119 0 -187 -58.5t-68 -159.5v-22q0 -100 69 -158t186 -58q77 0 134 26.5zM546 688v-26l-406 -87v27z" />
    <glyph glyph-name="ocircumflex" unicode="&#xf4;" horiz-adv-x="685" 
d="M193.5 19.5q-64.5 29.5 -99 84t-34.5 128.5v22q0 75 34.5 130t99 84.5t150.5 29.5q85 0 148.5 -29.5t98 -85t34.5 -129.5v-22q0 -73 -34.5 -128t-98 -84.5t-148.5 -29.5q-86 0 -150.5 29.5zM478 42.5q57 26.5 87.5 75t30.5 114.5v22q0 100 -67.5 159t-184.5 59
q-119 0 -187 -58.5t-68 -159.5v-22q0 -100 69 -158t186 -58q77 0 134 26.5zM343 688l203 -85v-28l-203 86l-203 -86v28z" />
    <glyph glyph-name="otilde" unicode="&#xf5;" horiz-adv-x="685" 
d="M193.5 19.5q-64.5 29.5 -99 84t-34.5 128.5v22q0 75 34.5 130t99 84.5t150.5 29.5q85 0 148.5 -29.5t98 -85t34.5 -129.5v-22q0 -73 -34.5 -128t-98 -84.5t-148.5 -29.5q-86 0 -150.5 29.5zM478 42.5q57 26.5 87.5 75t30.5 114.5v22q0 100 -67.5 159t-184.5 59
q-119 0 -187 -58.5t-68 -159.5v-22q0 -100 69 -158t186 -58q77 0 134 26.5zM392 598.5q-22 4.5 -57 14.5q-28 9 -48.5 13t-42.5 4q-51 0 -104 -25v25q55 26 104 26q23 0 42.5 -4.5t50.5 -13.5q34 -10 55.5 -14.5t47.5 -4.5q48 0 106 21v-25q-55 -21 -106 -21q-26 0 -48 4.5z
" />
    <glyph glyph-name="odieresis" unicode="&#xf6;" horiz-adv-x="685" 
d="M193.5 19.5q-64.5 29.5 -99 84t-34.5 128.5v22q0 75 34.5 130t99 84.5t150.5 29.5q85 0 148.5 -29.5t98 -85t34.5 -129.5v-22q0 -73 -34.5 -128t-98 -84.5t-148.5 -29.5q-86 0 -150.5 29.5zM478 42.5q57 26.5 87.5 75t30.5 114.5v22q0 100 -67.5 159t-184.5 59
q-119 0 -187 -58.5t-68 -159.5v-22q0 -100 69 -158t186 -58q77 0 134 26.5zM196 605.5q-8 7.5 -8 18.5q0 12 7.5 19t19.5 7q11 0 18.5 -7t7.5 -19q0 -11 -7.5 -18.5t-18.5 -7.5t-19 7.5zM452 606q-8 8 -8 18q0 12 7.5 19t18.5 7q12 0 19.5 -7t7.5 -19q0 -11 -7.5 -18.5
t-19.5 -7.5q-10 0 -18 8z" />
    <glyph glyph-name="divide" unicode="&#xf7;" horiz-adv-x="816" 
d="M389.5 513.5q-7.5 7.5 -7.5 18.5q0 12 7.5 19t18.5 7q12 0 19.5 -7t7.5 -19q0 -11 -7.5 -18.5t-19.5 -7.5q-11 0 -18.5 7.5zM715 342v-27h-614v27h614zM389.5 105.5q-7.5 7.5 -7.5 18.5t7.5 18.5t18.5 7.5q12 0 19.5 -7.5t7.5 -18.5t-7.5 -18.5t-19.5 -7.5
q-11 0 -18.5 7.5z" />
    <glyph glyph-name="oslash" unicode="&#xf8;" horiz-adv-x="685" 
d="M596 374.5q29 -52.5 29 -120.5v-22q0 -73 -34.5 -128t-98 -84.5t-148.5 -29.5q-81 0 -146 27l-47 -65h-29v5l51 73q-55 31 -84 82.5t-29 119.5v22q0 75 34.5 130t98.5 84.5t151 29.5q83 0 144 -27l46 65h30v-5l-52 -72q55 -32 84 -84.5zM115 126q26 -46 74 -74l282 396
q-54 24 -127 24q-118 0 -186.5 -58.5t-68.5 -159.5v-22q0 -60 26 -106zM596 254q0 61 -25.5 107.5t-73.5 74.5l-283 -396q56 -24 130 -24q77 0 134 26.5t87.5 75t30.5 114.5v22z" />
    <glyph glyph-name="ugrave" unicode="&#xf9;" horiz-adv-x="711" 
d="M610 488v-488h-27l-2 95q-38 -49 -100.5 -77t-132.5 -28q-125 0 -189.5 60.5t-64.5 176.5v261h28v-261q0 -103 58 -157t170 -54q73 0 136 32t95 85v355h29zM151 689l406 -87v-27l-406 87v27z" />
    <glyph glyph-name="uacute" unicode="&#xfa;" horiz-adv-x="711" 
d="M610 488v-488h-27l-2 95q-38 -49 -100.5 -77t-132.5 -28q-125 0 -189.5 60.5t-64.5 176.5v261h28v-261q0 -103 58 -157t170 -54q73 0 136 32t95 85v355h29zM557 688v-26l-406 -87v27z" />
    <glyph glyph-name="ucircumflex" unicode="&#xfb;" horiz-adv-x="711" 
d="M610 488v-488h-27l-2 95q-38 -49 -100.5 -77t-132.5 -28q-125 0 -189.5 60.5t-64.5 176.5v261h28v-261q0 -103 58 -157t170 -54q73 0 136 32t95 85v355h29zM354 688l203 -85v-28l-203 86l-203 -86v28z" />
    <glyph glyph-name="udieresis" unicode="&#xfc;" horiz-adv-x="711" 
d="M610 488v-488h-27l-2 95q-38 -49 -100.5 -77t-132.5 -28q-125 0 -189.5 60.5t-64.5 176.5v261h28v-261q0 -103 58 -157t170 -54q73 0 136 32t95 85v355h29zM207 605.5q-8 7.5 -8 18.5q0 12 7.5 19t19.5 7q11 0 18.5 -7t7.5 -19q0 -11 -7.5 -18.5t-18.5 -7.5t-19 7.5z
M463 606q-8 8 -8 18q0 12 7.5 19t18.5 7q12 0 19.5 -7t7.5 -19q0 -11 -7.5 -18.5t-19.5 -7.5q-10 0 -18 8z" />
    <glyph glyph-name="yacute" unicode="&#xfd;" horiz-adv-x="697" 
d="M634 488v-5l-308 -556q-20 -37 -40 -57.5t-49.5 -30t-76.5 -9.5h-65v26h64q56 0 85 17t55 64l33 59l-269 487v5h29l257 -463l256 463h29zM552 688v-26l-406 -87v27z" />
    <glyph glyph-name="thorn" unicode="&#xfe;" horiz-adv-x="710" 
d="M517.5 468.5q63.5 -29.5 98 -84.5t34.5 -129v-22q0 -74 -34.5 -129t-98.5 -84.5t-150 -29.5q-73 0 -134.5 27t-102.5 77v-264h-28v866h28v-301q40 49 102 76t136 27q86 0 149.5 -29.5zM621 255q0 101 -68.5 159t-186.5 58q-74 0 -137 -29.5t-99 -81.5v-234
q36 -52 99 -81.5t137 -29.5q118 0 186.5 58t68.5 159v22z" />
    <glyph glyph-name="ydieresis" unicode="&#xff;" horiz-adv-x="697" 
d="M634 488v-5l-308 -556q-20 -37 -40 -57.5t-49.5 -30t-76.5 -9.5h-65v26h64q56 0 85 17t55 64l33 59l-269 487v5h29l257 -463l256 463h29zM202 605.5q-8 7.5 -8 18.5q0 12 7.5 19t19.5 7q11 0 18.5 -7t7.5 -19q0 -11 -7.5 -18.5t-18.5 -7.5t-19 7.5zM458 606q-8 8 -8 18
q0 12 7.5 19t18.5 7q12 0 19.5 -7t7.5 -19q0 -11 -7.5 -18.5t-19.5 -7.5q-10 0 -18 8z" />
    <glyph glyph-name="Amacron" unicode="&#x100;" horiz-adv-x="770" 
d="M737 6v-6h-30l-109 211h-426l-109 -211h-30v6l336 650h33zM584 238l-199 387l-199 -387h398zM588 805v-25h-406v25h406z" />
    <glyph glyph-name="amacron" unicode="&#x101;" horiz-adv-x="716" 
d="M715 26v-26h-48q-51 0 -80 26.5t-29 72.5v1q-44 -54 -112 -82t-156 -28q-208 0 -208 126q0 59 45 91t140 42l291 30v19q0 84 -57.5 128.5t-165.5 44.5q-65 0 -115.5 -19.5t-79 -54t-28.5 -78.5v-9h-28v9q0 52 32 92.5t89 63.5t130 23q119 0 185 -52.5t66 -147.5v-195
q0 -36 22.5 -56.5t62.5 -20.5h44zM450 48q71 32 108 89v117l-287 -29q-83 -8 -122 -35t-39 -74q0 -100 179 -100q90 0 161 32zM539 637v-25h-406v25h406z" />
    <glyph glyph-name="Abreve" unicode="&#x102;" horiz-adv-x="770" 
d="M737 6v-6h-30l-109 211h-426l-109 -211h-30v6l336 650h33zM584 238l-199 387l-199 -387h398zM182 811v26q112 -65 208 -65q93 0 198 65v-26q-98 -64 -198 -64q-96 0 -208 64z" />
    <glyph glyph-name="abreve" unicode="&#x103;" horiz-adv-x="716" 
d="M715 26v-26h-48q-51 0 -80 26.5t-29 72.5v1q-44 -54 -112 -82t-156 -28q-208 0 -208 126q0 59 45 91t140 42l291 30v19q0 84 -57.5 128.5t-165.5 44.5q-65 0 -115.5 -19.5t-79 -54t-28.5 -78.5v-9h-28v9q0 52 32 92.5t89 63.5t130 23q119 0 185 -52.5t66 -147.5v-195
q0 -36 22.5 -56.5t62.5 -20.5h44zM450 48q71 32 108 89v117l-287 -29q-83 -8 -122 -35t-39 -74q0 -100 179 -100q90 0 161 32zM133 643v26q112 -65 208 -65q93 0 198 65v-26q-98 -64 -198 -64q-96 0 -208 64z" />
    <glyph glyph-name="Aogonek" unicode="&#x104;" horiz-adv-x="770" 
d="M737 6v-6h-30l-109 211h-426l-109 -211h-30v6l336 650h33zM584 238l-199 387l-199 -387h398zM564.5 -155.5q-19.5 14.5 -19.5 39.5q0 23 14.5 41t47.5 35l117 60l13 -20l-117 -57q-25 -12 -35.5 -24.5t-10.5 -29.5q0 -16 12.5 -25t35.5 -9h115v-25h-120q-33 0 -52.5 14.5
z" />
    <glyph glyph-name="aogonek" unicode="&#x105;" horiz-adv-x="716" 
d="M715 26v-26h-48q-51 0 -80 26.5t-29 72.5v1q-44 -54 -112 -82t-156 -28q-208 0 -208 126q0 59 45 91t140 42l291 30v19q0 84 -57.5 128.5t-165.5 44.5q-65 0 -115.5 -19.5t-79 -54t-28.5 -78.5v-9h-28v9q0 52 32 92.5t89 63.5t130 23q119 0 185 -52.5t66 -147.5v-195
q0 -36 22.5 -56.5t62.5 -20.5h44zM450 48q71 32 108 89v117l-287 -29q-83 -8 -122 -35t-39 -74q0 -100 179 -100q90 0 161 32zM542.5 -155.5q-19.5 14.5 -19.5 39.5q0 23 14.5 41t47.5 35l117 60l13 -20l-117 -57q-25 -12 -35.5 -24.5t-10.5 -29.5q0 -16 12.5 -25t35.5 -9
h115v-25h-120q-33 0 -52.5 14.5z" />
    <glyph glyph-name="Cacute" unicode="&#x106;" horiz-adv-x="874" 
d="M254.5 29.5q-81.5 39.5 -125.5 113t-44 172.5v25q0 99 44 172.5t125.5 113.5t191.5 40q95 0 172.5 -33t122.5 -91t45 -128v-11h-30v11q0 63 -40.5 114.5t-111.5 81t-158 29.5q-103 0 -177.5 -36t-114 -103.5t-39.5 -159.5v-25q0 -92 39.5 -159.5t114 -103t177.5 -35.5
q87 0 158 29.5t111.5 80.5t40.5 114v13h30v-13q0 -70 -45 -127.5t-122.5 -90.5t-172.5 -33q-110 0 -191.5 39.5zM655 856v-26l-406 -87v27z" />
    <glyph glyph-name="cacute" unicode="&#x107;" horiz-adv-x="670" 
d="M194 20q-64 30 -99 84.5t-35 127.5v22q0 74 35 129t99 85t150 30q76 0 137.5 -25.5t96.5 -70t35 -99.5v-7h-29v7q0 48 -31 86.5t-86 60.5t-123 22q-77 0 -135 -26.5t-89 -76t-31 -115.5v-22q0 -65 31 -114t89 -75.5t135 -26.5q68 0 123 22t86 60.5t31 85.5v7h29v-7
q0 -55 -35 -99t-96.5 -69.5t-137.5 -25.5q-86 0 -150 30zM535 688v-26l-406 -87v27z" />
    <glyph glyph-name="Ccircumflex" unicode="&#x108;" horiz-adv-x="874" 
d="M254.5 29.5q-81.5 39.5 -125.5 113t-44 172.5v25q0 99 44 172.5t125.5 113.5t191.5 40q95 0 172.5 -33t122.5 -91t45 -128v-11h-30v11q0 63 -40.5 114.5t-111.5 81t-158 29.5q-103 0 -177.5 -36t-114 -103.5t-39.5 -159.5v-25q0 -92 39.5 -159.5t114 -103t177.5 -35.5
q87 0 158 29.5t111.5 80.5t40.5 114v13h30v-13q0 -70 -45 -127.5t-122.5 -90.5t-172.5 -33q-110 0 -191.5 39.5zM452 856l203 -85v-28l-203 86l-203 -86v28z" />
    <glyph glyph-name="ccircumflex" unicode="&#x109;" horiz-adv-x="670" 
d="M194 20q-64 30 -99 84.5t-35 127.5v22q0 74 35 129t99 85t150 30q76 0 137.5 -25.5t96.5 -70t35 -99.5v-7h-29v7q0 48 -31 86.5t-86 60.5t-123 22q-77 0 -135 -26.5t-89 -76t-31 -115.5v-22q0 -65 31 -114t89 -75.5t135 -26.5q68 0 123 22t86 60.5t31 85.5v7h29v-7
q0 -55 -35 -99t-96.5 -69.5t-137.5 -25.5q-86 0 -150 30zM332 688l203 -85v-28l-203 86l-203 -86v28z" />
    <glyph glyph-name="Cdotaccent" unicode="&#x10a;" horiz-adv-x="874" 
d="M254.5 29.5q-81.5 39.5 -125.5 113t-44 172.5v25q0 99 44 172.5t125.5 113.5t191.5 40q95 0 172.5 -33t122.5 -91t45 -128v-11h-30v11q0 63 -40.5 114.5t-111.5 81t-158 29.5q-103 0 -177.5 -36t-114 -103.5t-39.5 -159.5v-25q0 -92 39.5 -159.5t114 -103t177.5 -35.5
q87 0 158 29.5t111.5 80.5t40.5 114v13h30v-13q0 -70 -45 -127.5t-122.5 -90.5t-172.5 -33q-110 0 -191.5 39.5zM433 773.5q-8 7.5 -8 18.5q0 12 8 19.5t19 7.5q12 0 19.5 -7.5t7.5 -19.5q0 -11 -7.5 -18.5t-19.5 -7.5q-11 0 -19 7.5z" />
    <glyph glyph-name="cdotaccent" unicode="&#x10b;" horiz-adv-x="670" 
d="M194 20q-64 30 -99 84.5t-35 127.5v22q0 74 35 129t99 85t150 30q76 0 137.5 -25.5t96.5 -70t35 -99.5v-7h-29v7q0 48 -31 86.5t-86 60.5t-123 22q-77 0 -135 -26.5t-89 -76t-31 -115.5v-22q0 -65 31 -114t89 -75.5t135 -26.5q68 0 123 22t86 60.5t31 85.5v7h29v-7
q0 -55 -35 -99t-96.5 -69.5t-137.5 -25.5q-86 0 -150 30zM313 605.5q-8 7.5 -8 18.5q0 12 8 19.5t19 7.5q12 0 19.5 -7.5t7.5 -19.5q0 -11 -7.5 -18.5t-19.5 -7.5q-11 0 -19 7.5z" />
    <glyph glyph-name="Ccaron" unicode="&#x10c;" horiz-adv-x="874" 
d="M254.5 29.5q-81.5 39.5 -125.5 113t-44 172.5v25q0 99 44 172.5t125.5 113.5t191.5 40q95 0 172.5 -33t122.5 -91t45 -128v-11h-30v11q0 63 -40.5 114.5t-111.5 81t-158 29.5q-103 0 -177.5 -36t-114 -103.5t-39.5 -159.5v-25q0 -92 39.5 -159.5t114 -103t177.5 -35.5
q87 0 158 29.5t111.5 80.5t40.5 114v13h30v-13q0 -70 -45 -127.5t-122.5 -90.5t-172.5 -33q-110 0 -191.5 39.5zM249 856l203 -85l203 85v-27l-203 -86l-203 86v27z" />
    <glyph glyph-name="ccaron" unicode="&#x10d;" horiz-adv-x="670" 
d="M194 20q-64 30 -99 84.5t-35 127.5v22q0 74 35 129t99 85t150 30q76 0 137.5 -25.5t96.5 -70t35 -99.5v-7h-29v7q0 48 -31 86.5t-86 60.5t-123 22q-77 0 -135 -26.5t-89 -76t-31 -115.5v-22q0 -65 31 -114t89 -75.5t135 -26.5q68 0 123 22t86 60.5t31 85.5v7h29v-7
q0 -55 -35 -99t-96.5 -69.5t-137.5 -25.5q-86 0 -150 30zM129 688l203 -85l203 85v-27l-203 -86l-203 86v27z" />
    <glyph glyph-name="Dcaron" unicode="&#x10e;" horiz-adv-x="826" 
d="M391 656q169 0 259 -82t90 -236v-20q0 -154 -90 -236t-259 -82h-279v656h279zM629 101q82 74 82 216v21q0 142 -82 216.5t-238 74.5h-250v-602h250q156 0 238 74zM165 856l203 -85l203 85v-27l-203 -86l-203 86v27z" />
    <glyph glyph-name="dcaron" unicode="&#x10f;" horiz-adv-x="920" 
d="M609 696v-696h-27l-2 93q-40 -49 -102.5 -76t-135.5 -27q-86 0 -150 29.5t-98 84.5t-34 129v22q0 74 34 129t98 84.5t150 29.5q72 0 134.5 -27t103.5 -75v300h29zM481 45.5q63 29.5 99 81.5v234q-36 52 -99 81.5t-137 29.5q-119 0 -187 -58t-68 -159v-22
q0 -101 68.5 -159t186.5 -58q74 0 137 29.5zM854 696l-42 -177h-28l36 177h34z" />
    <glyph glyph-name="Dcroat" unicode="&#x110;" horiz-adv-x="859" 
d="M683 574q90 -82 90 -236v-20q0 -154 -90 -236t-259 -82h-279v315h-130v26h130v315h279q169 0 259 -82zM744 338q0 142 -82 216.5t-238 74.5h-250v-288h252v-26h-252v-288h250q156 0 238 74t82 216v21z" />
    <glyph glyph-name="dcroat" unicode="&#x111;" horiz-adv-x="736" 
d="M738 608h-129v-608h-27l-2 94q-40 -49 -102.5 -76.5t-132.5 -27.5q-134 0 -209.5 64t-75.5 177v22q0 112 75.5 176.5t207.5 64.5q72 0 134 -27.5t103 -76.5v218h-259v26h259v62h29v-62h129v-26zM480.5 46q62.5 30 99.5 82v229q-37 51 -100 80.5t-136 29.5
q-119 0 -187 -57t-68 -157v-22q0 -101 68 -158t187 -57q74 0 136.5 30z" />
    <glyph glyph-name="Emacron" unicode="&#x112;" horiz-adv-x="723" 
d="M635 656v-27h-494v-287h474v-27h-474v-288h494v-27h-523v656h523zM576 805v-25h-406v25h406z" />
    <glyph glyph-name="emacron" unicode="&#x113;" horiz-adv-x="671" 
d="M89 235v-5q0 -65 31 -113.5t88 -74.5t133 -26q70 0 124.5 20t85.5 56.5t31 83.5h29q-1 -55 -35 -97.5t-95 -65.5t-140 -23q-85 0 -148.5 30t-98 84.5t-34.5 127.5v24q0 73 34.5 127.5t98 84.5t148.5 30q81 0 142.5 -29.5t94.5 -83.5t33 -126v-24h-522zM208.5 446
q-56.5 -26 -88 -74t-31.5 -112h493v1q0 97 -65 154t-176 57q-76 0 -132.5 -26zM540 637v-25h-406v25h406z" />
    <glyph glyph-name="Ebreve" unicode="&#x114;" horiz-adv-x="723" 
d="M635 656v-27h-494v-287h474v-27h-474v-288h494v-27h-523v656h523zM170 811v26q112 -65 208 -65q93 0 198 65v-26q-98 -64 -198 -64q-96 0 -208 64z" />
    <glyph glyph-name="ebreve" unicode="&#x115;" horiz-adv-x="671" 
d="M89 235v-5q0 -65 31 -113.5t88 -74.5t133 -26q70 0 124.5 20t85.5 56.5t31 83.5h29q-1 -55 -35 -97.5t-95 -65.5t-140 -23q-85 0 -148.5 30t-98 84.5t-34.5 127.5v24q0 73 34.5 127.5t98 84.5t148.5 30q81 0 142.5 -29.5t94.5 -83.5t33 -126v-24h-522zM208.5 446
q-56.5 -26 -88 -74t-31.5 -112h493v1q0 97 -65 154t-176 57q-76 0 -132.5 -26zM134 643v26q112 -65 208 -65q93 0 198 65v-26q-98 -64 -198 -64q-96 0 -208 64z" />
    <glyph glyph-name="Edotaccent" unicode="&#x116;" horiz-adv-x="723" 
d="M635 656v-27h-494v-287h474v-27h-474v-288h494v-27h-523v656h523zM354 773.5q-8 7.5 -8 18.5q0 12 8 19.5t19 7.5q12 0 19.5 -7.5t7.5 -19.5q0 -11 -7.5 -18.5t-19.5 -7.5q-11 0 -19 7.5z" />
    <glyph glyph-name="edotaccent" unicode="&#x117;" horiz-adv-x="671" 
d="M89 235v-5q0 -65 31 -113.5t88 -74.5t133 -26q70 0 124.5 20t85.5 56.5t31 83.5h29q-1 -55 -35 -97.5t-95 -65.5t-140 -23q-85 0 -148.5 30t-98 84.5t-34.5 127.5v24q0 73 34.5 127.5t98 84.5t148.5 30q81 0 142.5 -29.5t94.5 -83.5t33 -126v-24h-522zM208.5 446
q-56.5 -26 -88 -74t-31.5 -112h493v1q0 97 -65 154t-176 57q-76 0 -132.5 -26zM318 605.5q-8 7.5 -8 18.5q0 12 8 19.5t19 7.5q12 0 19.5 -7.5t7.5 -19.5q0 -11 -7.5 -18.5t-19.5 -7.5q-11 0 -19 7.5z" />
    <glyph glyph-name="Eogonek" unicode="&#x118;" horiz-adv-x="723" 
d="M635 656v-27h-494v-287h474v-27h-474v-288h494v-27h-523v656h523zM462.5 -155.5q-19.5 14.5 -19.5 39.5q0 23 14.5 41t47.5 35l117 60l13 -20l-117 -57q-25 -12 -35.5 -24.5t-10.5 -29.5q0 -16 12.5 -25t35.5 -9h115v-25h-120q-33 0 -52.5 14.5z" />
    <glyph glyph-name="eogonek" unicode="&#x119;" horiz-adv-x="671" 
d="M89 235v-5q0 -65 31 -113.5t88 -74.5t133 -26q70 0 124.5 20t85.5 56.5t31 83.5h29q-1 -55 -35 -97.5t-95 -65.5t-140 -23q-85 0 -148.5 30t-98 84.5t-34.5 127.5v24q0 73 34.5 127.5t98 84.5t148.5 30q81 0 142.5 -29.5t94.5 -83.5t33 -126v-24h-522zM208.5 446
q-56.5 -26 -88 -74t-31.5 -112h493v1q0 97 -65 154t-176 57q-76 0 -132.5 -26zM369.5 -154q-20.5 16 -20.5 41q0 20 13.5 38t50.5 48l113 91l26 -9l-124 -101q-27 -22 -37.5 -35t-10.5 -28q0 -17 13.5 -26.5t36.5 -9.5h112v-25h-119q-33 0 -53.5 16z" />
    <glyph glyph-name="Ecaron" unicode="&#x11a;" horiz-adv-x="723" 
d="M635 656v-27h-494v-287h474v-27h-474v-288h494v-27h-523v656h523zM170 856l203 -85l203 85v-27l-203 -86l-203 86v27z" />
    <glyph glyph-name="ecaron" unicode="&#x11b;" horiz-adv-x="671" 
d="M89 235v-5q0 -65 31 -113.5t88 -74.5t133 -26q70 0 124.5 20t85.5 56.5t31 83.5h29q-1 -55 -35 -97.5t-95 -65.5t-140 -23q-85 0 -148.5 30t-98 84.5t-34.5 127.5v24q0 73 34.5 127.5t98 84.5t148.5 30q81 0 142.5 -29.5t94.5 -83.5t33 -126v-24h-522zM208.5 446
q-56.5 -26 -88 -74t-31.5 -112h493v1q0 97 -65 154t-176 57q-76 0 -132.5 -26zM134 688l203 -85l203 85v-27l-203 -86l-203 86v27z" />
    <glyph glyph-name="Gcircumflex" unicode="&#x11c;" horiz-adv-x="879" 
d="M759 420v9q0 59 -40.5 107t-112 75.5t-158.5 27.5q-101 0 -176.5 -36.5t-116 -104t-40.5 -158.5v-25q0 -93 39.5 -160t114.5 -102.5t178 -35.5q106 0 182.5 33.5t129.5 100.5v144h-379v27h408v-322h-27l-2 115q-105 -125 -312 -125q-111 0 -192.5 39.5t-125.5 112.5
t-44 173v25q0 98 45 172t127 114t191 40q96 0 174 -30.5t122 -84.5t44 -122v-9h-29zM446 856l203 -85v-28l-203 86l-203 -86v28z" />
    <glyph glyph-name="gcircumflex" unicode="&#x11d;" horiz-adv-x="709" 
d="M608 488v-466q0 -96 -72 -149t-200 -53q-83 0 -145.5 22t-96.5 62t-34 94v10h29v-10q0 -45 30.5 -79.5t86.5 -53.5t129 -19q115 0 179.5 46.5t64.5 128.5v95q-41 -47 -106.5 -75t-136.5 -28q-131 0 -204 61t-73 170v22q0 109 73 170.5t204 61.5q73 0 137.5 -27.5
t105.5 -76.5l2 94h27zM477 70q66 31 102 82v207q-36 51 -102 82t-140 31q-118 0 -183.5 -54t-65.5 -152v-22q0 -98 65.5 -151.5t183.5 -53.5q74 0 140 31zM344 688l203 -85v-28l-203 86l-203 -86v28z" />
    <glyph glyph-name="Gbreve" unicode="&#x11e;" horiz-adv-x="879" 
d="M759 420v9q0 59 -40.5 107t-112 75.5t-158.5 27.5q-101 0 -176.5 -36.5t-116 -104t-40.5 -158.5v-25q0 -93 39.5 -160t114.5 -102.5t178 -35.5q106 0 182.5 33.5t129.5 100.5v144h-379v27h408v-322h-27l-2 115q-105 -125 -312 -125q-111 0 -192.5 39.5t-125.5 112.5
t-44 173v25q0 98 45 172t127 114t191 40q96 0 174 -30.5t122 -84.5t44 -122v-9h-29zM243 811v26q112 -65 208 -65q93 0 198 65v-26q-98 -64 -198 -64q-96 0 -208 64z" />
    <glyph glyph-name="gbreve" unicode="&#x11f;" horiz-adv-x="709" 
d="M608 488v-466q0 -96 -72 -149t-200 -53q-83 0 -145.5 22t-96.5 62t-34 94v10h29v-10q0 -45 30.5 -79.5t86.5 -53.5t129 -19q115 0 179.5 46.5t64.5 128.5v95q-41 -47 -106.5 -75t-136.5 -28q-131 0 -204 61t-73 170v22q0 109 73 170.5t204 61.5q73 0 137.5 -27.5
t105.5 -76.5l2 94h27zM477 70q66 31 102 82v207q-36 51 -102 82t-140 31q-118 0 -183.5 -54t-65.5 -152v-22q0 -98 65.5 -151.5t183.5 -53.5q74 0 140 31zM141 643v26q112 -65 208 -65q93 0 198 65v-26q-98 -64 -198 -64q-96 0 -208 64z" />
    <glyph glyph-name="Gdotaccent" unicode="&#x120;" horiz-adv-x="879" 
d="M759 420v9q0 59 -40.5 107t-112 75.5t-158.5 27.5q-101 0 -176.5 -36.5t-116 -104t-40.5 -158.5v-25q0 -93 39.5 -160t114.5 -102.5t178 -35.5q106 0 182.5 33.5t129.5 100.5v144h-379v27h408v-322h-27l-2 115q-105 -125 -312 -125q-111 0 -192.5 39.5t-125.5 112.5
t-44 173v25q0 98 45 172t127 114t191 40q96 0 174 -30.5t122 -84.5t44 -122v-9h-29zM427 773.5q-8 7.5 -8 18.5q0 12 8 19.5t19 7.5q12 0 19.5 -7.5t7.5 -19.5q0 -11 -7.5 -18.5t-19.5 -7.5q-11 0 -19 7.5z" />
    <glyph glyph-name="gdotaccent" unicode="&#x121;" horiz-adv-x="709" 
d="M608 488v-466q0 -96 -72 -149t-200 -53q-83 0 -145.5 22t-96.5 62t-34 94v10h29v-10q0 -45 30.5 -79.5t86.5 -53.5t129 -19q115 0 179.5 46.5t64.5 128.5v95q-41 -47 -106.5 -75t-136.5 -28q-131 0 -204 61t-73 170v22q0 109 73 170.5t204 61.5q73 0 137.5 -27.5
t105.5 -76.5l2 94h27zM477 70q66 31 102 82v207q-36 51 -102 82t-140 31q-118 0 -183.5 -54t-65.5 -152v-22q0 -98 65.5 -151.5t183.5 -53.5q74 0 140 31zM325 605.5q-8 7.5 -8 18.5q0 12 8 19.5t19 7.5q12 0 19.5 -7.5t7.5 -19.5q0 -11 -7.5 -18.5t-19.5 -7.5
q-11 0 -19 7.5z" />
    <glyph glyph-name="uni0122" unicode="&#x122;" horiz-adv-x="879" 
d="M759 420v9q0 59 -40.5 107t-112 75.5t-158.5 27.5q-101 0 -176.5 -36.5t-116 -104t-40.5 -158.5v-25q0 -93 39.5 -160t114.5 -102.5t178 -35.5q106 0 182.5 33.5t129.5 100.5v144h-379v27h408v-322h-27l-2 115q-105 -125 -312 -125q-111 0 -192.5 39.5t-125.5 112.5
t-44 173v25q0 98 45 172t127 114t191 40q96 0 174 -30.5t122 -84.5t44 -122v-9h-29zM459 -58l-53 -147h-29l51 147h31z" />
    <glyph glyph-name="uni0123" unicode="&#x123;" horiz-adv-x="709" 
d="M608 488v-466q0 -96 -72 -149t-200 -53q-83 0 -145.5 22t-96.5 62t-34 94v10h29v-10q0 -45 30.5 -79.5t86.5 -53.5t129 -19q115 0 179.5 46.5t64.5 128.5v95q-41 -47 -106.5 -75t-136.5 -28q-131 0 -204 61t-73 170v22q0 109 73 170.5t204 61.5q73 0 137.5 -27.5
t105.5 -76.5l2 94h27zM477 70q66 31 102 82v207q-36 51 -102 82t-140 31q-118 0 -183.5 -54t-65.5 -152v-22q0 -98 65.5 -151.5t183.5 -53.5q74 0 140 31zM394 705l-50 -146h-31l52 146h29z" />
    <glyph glyph-name="Hcircumflex" unicode="&#x124;" horiz-adv-x="819" 
d="M141 656v-314h537v314h29v-656h-29v315h-537v-315h-29v656h29zM410 856l203 -85v-28l-203 86l-203 -86v28z" />
    <glyph glyph-name="hcircumflex" unicode="&#x125;" horiz-adv-x="711" 
d="M552 437q65 -61 65 -176v-261h-28v261q0 103 -59 157t-169 54q-71 0 -134.5 -32.5t-96.5 -84.5v-355h-28v696h28v-303q40 49 102 77t131 28q124 0 189 -61zM116 866l203 -85v-28l-203 86l-203 -86v28z" />
    <glyph glyph-name="Hbar" unicode="&#x126;" horiz-adv-x="819" 
d="M800 471h-93v-471h-29v309h-537v-309h-29v471h-93v26h93v159h29v-159h537v159h29v-159h93v-26zM678 471h-537v-136h537v136z" />
    <glyph glyph-name="hbar" unicode="&#x127;" horiz-adv-x="737" 
d="M578 433q65 -61 65 -177v-256h-28v256q0 103 -59 157t-169 54q-71 0 -134.5 -32.5t-96.5 -84.5v-350h-28v608h-130v26h130v62h28v-62h256v-26h-256v-219q40 49 102 77t131 28q124 0 189 -61z" />
    <glyph glyph-name="Itilde" unicode="&#x128;" horiz-adv-x="299" 
d="M164 656v-656h-29v656h29zM181.5 766.5q-15.5 4.5 -37.5 14.5q-19 8 -32.5 12.5t-29.5 4.5q-37 0 -72 -23v25q35 24 72 24q16 0 29 -4t36 -14t37.5 -14.5t32.5 -4.5q35 0 73 19v-26q-37 -18 -74 -18q-19 0 -34.5 4.5z" />
    <glyph glyph-name="itilde" unicode="&#x129;" horiz-adv-x="286" 
d="M157 488v-488h-28v488h28zM174.5 598.5q-15.5 4.5 -37.5 14.5q-19 8 -32.5 12.5t-29.5 4.5q-37 0 -72 -23v25q35 24 72 24q16 0 29 -4t36 -14t37.5 -14.5t32.5 -4.5q35 0 73 19v-26q-37 -18 -74 -18q-19 0 -34.5 4.5z" />
    <glyph glyph-name="Imacron" unicode="&#x12a;" horiz-adv-x="299" 
d="M164 656v-656h-29v656h29zM290 805v-25h-280v25h280z" />
    <glyph glyph-name="imacron" unicode="&#x12b;" horiz-adv-x="286" 
d="M157 488v-488h-28v488h28zM283 637v-25h-280v25h280z" />
    <glyph glyph-name="Ibreve" unicode="&#x12c;" horiz-adv-x="299" 
d="M164 656v-656h-29v656h29zM77 762.5q-35 15.5 -67 47.5v27q63 -64 144 -64q79 0 137 64v-27q-54 -63 -137 -63q-42 0 -77 15.5z" />
    <glyph glyph-name="ibreve" unicode="&#x12d;" horiz-adv-x="286" 
d="M157 488v-488h-28v488h28zM70 594.5q-35 15.5 -67 47.5v27q63 -64 144 -64q79 0 137 64v-27q-54 -63 -137 -63q-42 0 -77 15.5z" />
    <glyph glyph-name="Iogonek" unicode="&#x12e;" horiz-adv-x="299" 
d="M164 656v-656h-29v656h29zM-8.5 -155.5q-19.5 14.5 -19.5 39.5q0 23 14.5 41t47.5 35l117 60l13 -20l-117 -57q-25 -12 -35.5 -24.5t-10.5 -29.5q0 -16 12.5 -25t35.5 -9h115v-25h-120q-33 0 -52.5 14.5z" />
    <glyph glyph-name="iogonek" unicode="&#x12f;" horiz-adv-x="286" 
d="M157 488v-488h-28v488h28zM124 605.5q-8 7.5 -8 18.5q0 12 8 19.5t19 7.5q12 0 19.5 -7.5t7.5 -19.5q0 -11 -7.5 -18.5t-19.5 -7.5q-11 0 -19 7.5zM-15.5 -155.5q-19.5 14.5 -19.5 39.5q0 23 14.5 41t47.5 35l117 60l13 -20l-117 -57q-25 -12 -35.5 -24.5t-10.5 -29.5
q0 -16 12.5 -25t35.5 -9h115v-25h-120q-33 0 -52.5 14.5z" />
    <glyph glyph-name="Idotaccent" unicode="&#x130;" horiz-adv-x="299" 
d="M164 656v-656h-29v656h29zM131 773.5q-8 7.5 -8 18.5q0 12 8 19.5t19 7.5q12 0 19.5 -7.5t7.5 -19.5q0 -11 -7.5 -18.5t-19.5 -7.5q-11 0 -19 7.5z" />
    <glyph glyph-name="dotlessi" unicode="&#x131;" horiz-adv-x="286" 
d="M157 488v-488h-28v488h28z" />
    <glyph glyph-name="IJ" unicode="&#x132;" horiz-adv-x="841" 
d="M141 656v-656h-29v656h29zM449 28q77 0 136.5 28.5t92 79.5t32.5 118v375h-386v27h415v-402q0 -74 -37 -132t-102.5 -90t-150.5 -32h-125v28h125z" />
    <glyph glyph-name="ij" unicode="&#x133;" horiz-adv-x="572" 
d="M157 488v-488h-28v488h28zM124 605.5q-8 7.5 -8 18.5q0 12 8 19.5t19 7.5q12 0 19.5 -7.5t7.5 -19.5q0 -11 -7.5 -18.5t-19.5 -7.5q-11 0 -19 7.5zM302 -144q113 0 113 120v512h28v-512q0 -71 -36 -108.5t-104 -37.5h-118v26h117zM410 605.5q-8 7.5 -8 18.5q0 12 8 19.5
t19 7.5q12 0 19.5 -7.5t7.5 -19.5q0 -11 -7.5 -18.5t-19.5 -7.5q-11 0 -19 7.5z" />
    <glyph glyph-name="Jcircumflex" unicode="&#x134;" horiz-adv-x="749" 
d="M207 21.5q-65 31.5 -100.5 89t-35.5 133.5v55h29v-55q0 -67 32 -118.5t90.5 -80t134.5 -28.5q77 0 136.5 28.5t92 80t32.5 118.5v385h-371v27h400v-412q0 -75 -37 -132.5t-102.5 -89.5t-150.5 -32t-150 31.5zM436 856l203 -85v-28l-203 86l-203 -86v28z" />
    <glyph glyph-name="jcircumflex" unicode="&#x135;" horiz-adv-x="286" 
d="M16 -144q113 0 113 120v512h28v-512q0 -71 -36 -108.5t-104 -37.5h-118v26h117zM143 679l140 -59v-27l-140 59l-140 -59v27z" />
    <glyph glyph-name="uni0136" unicode="&#x136;" horiz-adv-x="813" 
d="M729 650l-390 -288l386 -356v-6h-36l-374 344l-174 -128v-216h-29v656h29v-402l549 402h39v-6zM404 -58l-53 -147h-29l51 147h31z" />
    <glyph glyph-name="uni0137" unicode="&#x137;" horiz-adv-x="681" 
d="M635 5v-5h-35l-307 263l-163 -110v-153h-28v696h28v-509l453 301h38v-5l-305 -205zM333 -58l-53 -147h-29l51 147h31z" />
    <glyph glyph-name="Lacute" unicode="&#x139;" horiz-adv-x="687" 
d="M141 656v-629h536v-27h-565v656h29zM329 856v-26l-406 -87v27z" />
    <glyph glyph-name="lacute" unicode="&#x13a;" horiz-adv-x="319" 
d="M158 27q-29 27 -29 85v584h28v-581q0 -48 22 -68.5t74 -20.5h42v-26h-46q-62 0 -91 27zM283 850v-27l-280 -53v27z" />
    <glyph glyph-name="uni013B" unicode="&#x13b;" horiz-adv-x="687" 
d="M141 656v-629h536v-27h-565v656h29zM348 -58l-53 -147h-29l51 147h31z" />
    <glyph glyph-name="uni013C" unicode="&#x13c;" horiz-adv-x="319" 
d="M158 27q-29 27 -29 85v584h28v-581q0 -48 22 -68.5t74 -20.5h42v-26h-46q-62 0 -91 27zM262 -58l-53 -147h-29l51 147h31z" />
    <glyph glyph-name="Lcaron" unicode="&#x13d;" horiz-adv-x="687" 
d="M141 656v-629h536v-27h-565v656h29zM496 656l-42 -177h-28l36 177h34z" />
    <glyph glyph-name="lcaron" unicode="&#x13e;" horiz-adv-x="509" 
d="M158 27q-29 27 -29 85v584h28v-581q0 -48 22 -68.5t74 -20.5h42v-26h-46q-62 0 -91 27zM403 696l-42 -177h-28l36 177h34z" />
    <glyph glyph-name="Ldot" unicode="&#x13f;" horiz-adv-x="687" 
d="M141 656v-629h536v-27h-565v656h29zM450.5 316.5q-7.5 7.5 -7.5 18.5t7.5 18.5t18.5 7.5q12 0 19.5 -7.5t7.5 -18.5t-7.5 -18.5t-19.5 -7.5q-11 0 -18.5 7.5z" />
    <glyph glyph-name="ldot" unicode="&#x140;" horiz-adv-x="407" 
d="M158 27q-29 27 -29 85v584h28v-581q0 -48 22 -68.5t74 -20.5h42v-26h-46q-62 0 -91 27zM328.5 271q-7.5 8 -7.5 19t7.5 18.5t18.5 7.5q12 0 19.5 -7.5t7.5 -18.5t-7.5 -19t-19.5 -8q-11 0 -18.5 8z" />
    <glyph glyph-name="Lslash" unicode="&#x141;" horiz-adv-x="720" 
d="M710 27v-27h-565v315l-130 -29v27l130 29v314h29v-309l323 72v-26l-323 -73v-293h536z" />
    <glyph glyph-name="lslash" unicode="&#x142;" horiz-adv-x="398" 
d="M172 361v-246q0 -48 22 -68.5t74 -20.5h42v-26h-46q-62 0 -91 27t-29 85v244l-129 -29v26l129 29v314h28v-309l169 38v-26z" />
    <glyph glyph-name="Nacute" unicode="&#x143;" horiz-adv-x="819" 
d="M707 656v-656h-28l-539 615v-615h-28v656h29l538 -615v615h28zM613 856v-26l-406 -87v27z" />
    <glyph glyph-name="nacute" unicode="&#x144;" horiz-adv-x="711" 
d="M552.5 437.5q64.5 -60.5 64.5 -176.5v-261h-28v261q0 103 -58 157t-170 54q-73 0 -135.5 -32t-95.5 -85v-355h-28v488h27l1 -94q39 48 101.5 76t131.5 28q125 0 189.5 -60.5zM563 688v-26l-406 -87v27z" />
    <glyph glyph-name="uni0145" unicode="&#x145;" horiz-adv-x="819" 
d="M707 656v-656h-28l-539 615v-615h-28v656h29l538 -615v615h28zM423 -58l-53 -147h-29l51 147h31z" />
    <glyph glyph-name="uni0146" unicode="&#x146;" horiz-adv-x="711" 
d="M552.5 437.5q64.5 -60.5 64.5 -176.5v-261h-28v261q0 103 -58 157t-170 54q-73 0 -135.5 -32t-95.5 -85v-355h-28v488h27l1 -94q39 48 101.5 76t131.5 28q125 0 189.5 -60.5zM373 -58l-53 -147h-29l51 147h31z" />
    <glyph glyph-name="Ncaron" unicode="&#x147;" horiz-adv-x="819" 
d="M707 656v-656h-28l-539 615v-615h-28v656h29l538 -615v615h28zM207 856l203 -85l203 85v-27l-203 -86l-203 86v27z" />
    <glyph glyph-name="ncaron" unicode="&#x148;" horiz-adv-x="711" 
d="M552.5 437.5q64.5 -60.5 64.5 -176.5v-261h-28v261q0 103 -58 157t-170 54q-73 0 -135.5 -32t-95.5 -85v-355h-28v488h27l1 -94q39 48 101.5 76t131.5 28q125 0 189.5 -60.5zM157 688l203 -85l203 85v-27l-203 -86l-203 86v27z" />
    <glyph glyph-name="Eng" unicode="&#x14a;" horiz-adv-x="819" 
d="M707 656v-591q0 -119 -53 -177t-163 -58h-62v27h61q81 0 127 36.5t58 112.5l-535 609v-615h-28v656h29l538 -612v21v591h28z" />
    <glyph glyph-name="eng" unicode="&#x14b;" horiz-adv-x="711" 
d="M552.5 437.5q64.5 -60.5 64.5 -176.5v-196q0 -119 -53.5 -177t-164.5 -58h-60v26h60q96 0 143 51.5t47 157.5v196q0 103 -58 157t-170 54q-73 0 -135.5 -32t-95.5 -85v-355h-28v488h27l1 -94q39 48 101.5 76t131.5 28q125 0 189.5 -60.5z" />
    <glyph glyph-name="Omacron" unicode="&#x14c;" horiz-adv-x="877" 
d="M251.5 30q-79.5 40 -123 114t-43.5 174v19q0 100 43 174.5t123 114.5t187 40t186.5 -40.5t123 -114.5t43.5 -174v-19q0 -100 -43 -174t-123 -114t-187 -40t-186.5 40zM610 53.5q73 36.5 112.5 104.5t39.5 160v19q0 92 -39.5 160t-112.5 105t-172 37t-172 -37t-112 -105
t-39 -160v-19q0 -92 39 -160t112 -104.5t172 -36.5t172 36.5zM641 805v-25h-406v25h406z" />
    <glyph glyph-name="omacron" unicode="&#x14d;" horiz-adv-x="685" 
d="M193.5 19.5q-64.5 29.5 -99 84t-34.5 128.5v22q0 75 34.5 130t99 84.5t150.5 29.5q85 0 148.5 -29.5t98 -85t34.5 -129.5v-22q0 -73 -34.5 -128t-98 -84.5t-148.5 -29.5q-86 0 -150.5 29.5zM478 42.5q57 26.5 87.5 75t30.5 114.5v22q0 100 -67.5 159t-184.5 59
q-119 0 -187 -58.5t-68 -159.5v-22q0 -100 69 -158t186 -58q77 0 134 26.5zM546 637v-25h-406v25h406z" />
    <glyph glyph-name="Obreve" unicode="&#x14e;" horiz-adv-x="877" 
d="M251.5 30q-79.5 40 -123 114t-43.5 174v19q0 100 43 174.5t123 114.5t187 40t186.5 -40.5t123 -114.5t43.5 -174v-19q0 -100 -43 -174t-123 -114t-187 -40t-186.5 40zM610 53.5q73 36.5 112.5 104.5t39.5 160v19q0 92 -39.5 160t-112.5 105t-172 37t-172 -37t-112 -105
t-39 -160v-19q0 -92 39 -160t112 -104.5t172 -36.5t172 36.5zM235 811v26q112 -65 208 -65q93 0 198 65v-26q-98 -64 -198 -64q-96 0 -208 64z" />
    <glyph glyph-name="obreve" unicode="&#x14f;" horiz-adv-x="685" 
d="M193.5 19.5q-64.5 29.5 -99 84t-34.5 128.5v22q0 75 34.5 130t99 84.5t150.5 29.5q85 0 148.5 -29.5t98 -85t34.5 -129.5v-22q0 -73 -34.5 -128t-98 -84.5t-148.5 -29.5q-86 0 -150.5 29.5zM478 42.5q57 26.5 87.5 75t30.5 114.5v22q0 100 -67.5 159t-184.5 59
q-119 0 -187 -58.5t-68 -159.5v-22q0 -100 69 -158t186 -58q77 0 134 26.5zM140 643v26q112 -65 208 -65q93 0 198 65v-26q-98 -64 -198 -64q-96 0 -208 64z" />
    <glyph glyph-name="Ohungarumlaut" unicode="&#x150;" horiz-adv-x="877" 
d="M251.5 30q-79.5 40 -123 114t-43.5 174v19q0 100 43 174.5t123 114.5t187 40t186.5 -40.5t123 -114.5t43.5 -174v-19q0 -100 -43 -174t-123 -114t-187 -40t-186.5 40zM610 53.5q73 36.5 112.5 104.5t39.5 160v19q0 92 -39.5 160t-112.5 105t-172 37t-172 -37t-112 -105
t-39 -160v-19q0 -92 39 -160t112 -104.5t172 -36.5t172 36.5zM494 856v-28l-269 -85v28zM765 856v-28l-267 -85v28z" />
    <glyph glyph-name="ohungarumlaut" unicode="&#x151;" horiz-adv-x="685" 
d="M193.5 19.5q-64.5 29.5 -99 84t-34.5 128.5v22q0 75 34.5 130t99 84.5t150.5 29.5q85 0 148.5 -29.5t98 -85t34.5 -129.5v-22q0 -73 -34.5 -128t-98 -84.5t-148.5 -29.5q-86 0 -150.5 29.5zM478 42.5q57 26.5 87.5 75t30.5 114.5v22q0 100 -67.5 159t-184.5 59
q-119 0 -187 -58.5t-68 -159.5v-22q0 -100 69 -158t186 -58q77 0 134 26.5zM399 688v-28l-269 -85v28zM670 688v-28l-267 -85v28z" />
    <glyph glyph-name="OE" unicode="&#x152;" horiz-adv-x="1263" 
d="M175 82q-90 82 -90 236v20q0 154 90 236t259 82h741v-27h-479v-287h456v-27h-456v-288h479v-27h-741q-169 0 -259 82zM667 629h-233q-155 0 -237 -74.5t-82 -216.5v-21q0 -141 81.5 -215.5t237.5 -74.5h233v602z" />
    <glyph glyph-name="oe" unicode="&#x153;" horiz-adv-x="1114" 
d="M580 235v-21q0 -58 28.5 -103t80 -70t117.5 -25q63 0 112.5 20.5t78 57t28.5 82.5h29q0 -54 -32 -96.5t-88 -66t-127 -23.5q-91 0 -155 41t-87 112q-24 -70 -88.5 -111.5t-151.5 -41.5q-80 0 -140 29.5t-92.5 84.5t-32.5 128v22q0 74 32 129.5t92 85t141 29.5
q88 0 152.5 -41.5t87.5 -111.5q23 71 87 112t155 41q73 0 129 -30t87 -84t31 -125v-24h-474zM551 271q0 58 -29 103.5t-80 71.5t-116 26q-110 0 -173.5 -58.5t-63.5 -159.5v-22q0 -99 64 -157.5t173 -58.5q65 0 116 26t80 71.5t29 102.5v55zM688 447q-51 -25 -79.5 -69.5
t-28.5 -102.5v-15h445v1q0 63 -27 111t-77 74t-116 26t-117 -25z" />
    <glyph glyph-name="Racute" unicode="&#x154;" horiz-adv-x="806" 
d="M661 348.5q-59 -45.5 -161 -45.5h-52l270 -297v-6h-33l-276 303h-268v-303h-29v656h388q102 0 161 -46t59 -125v-14q0 -77 -59 -122.5zM141 329h359q89 0 139.5 38t50.5 105v14q0 67 -50.5 105t-139.5 38h-359v-300zM597 856v-26l-406 -87v27z" />
    <glyph glyph-name="racute" unicode="&#x155;" horiz-adv-x="473" 
d="M463 488v-26h-105q-66 0 -119 -27.5t-82 -76.5v-358h-28v488h27l1 -92q32 45 85.5 68.5t118.5 23.5h102zM504 688v-26l-406 -87v27z" />
    <glyph glyph-name="uni0156" unicode="&#x156;" horiz-adv-x="806" 
d="M661 348.5q-59 -45.5 -161 -45.5h-52l270 -297v-6h-33l-276 303h-268v-303h-29v656h388q102 0 161 -46t59 -125v-14q0 -77 -59 -122.5zM141 329h359q89 0 139.5 38t50.5 105v14q0 67 -50.5 105t-139.5 38h-359v-300zM407 -58l-53 -147h-29l51 147h31z" />
    <glyph glyph-name="uni0157" unicode="&#x157;" horiz-adv-x="473" 
d="M463 488v-26h-105q-66 0 -119 -27.5t-82 -76.5v-358h-28v488h27l1 -92q32 45 85.5 68.5t118.5 23.5h102zM157 -58l-53 -147h-29l51 147h31z" />
    <glyph glyph-name="Rcaron" unicode="&#x158;" horiz-adv-x="806" 
d="M661 348.5q-59 -45.5 -161 -45.5h-52l270 -297v-6h-33l-276 303h-268v-303h-29v656h388q102 0 161 -46t59 -125v-14q0 -77 -59 -122.5zM141 329h359q89 0 139.5 38t50.5 105v14q0 67 -50.5 105t-139.5 38h-359v-300zM191 856l203 -85l203 85v-27l-203 -86l-203 86v27z
" />
    <glyph glyph-name="rcaron" unicode="&#x159;" horiz-adv-x="473" 
d="M463 488v-26h-105q-66 0 -119 -27.5t-82 -76.5v-358h-28v488h27l1 -92q32 45 85.5 68.5t118.5 23.5h102zM98 688l203 -85l203 85v-27l-203 -86l-203 86v27z" />
    <glyph glyph-name="Sacute" unicode="&#x15a;" horiz-adv-x="771" 
d="M160 40.5q-78 50.5 -78 150.5v12h29v-12q0 -174 281 -174q132 0 199.5 37t67.5 109v9q0 44 -21 72t-67 44.5t-124 24.5l-126 13q-111 11 -165.5 50t-54.5 108v10q0 82 74 127t209 45q145 0 219 -50.5t74 -149.5v-11h-30v11q0 173 -263 173q-121 0 -187 -37.5t-66 -106.5
v-10q0 -58 47 -89.5t148 -42.5l126 -13q127 -13 182 -51.5t55 -115.5v-10q0 -85 -76 -129t-222 -44q-153 0 -231 50.5zM586 856v-26l-406 -87v27z" />
    <glyph glyph-name="sacute" unicode="&#x15b;" horiz-adv-x="688" 
d="M205.5 8q-61.5 18 -95.5 51.5t-34 77.5v7h28v-7q0 -56 66 -88.5t179 -32.5q109 0 171.5 29t62.5 79v10q0 43 -45 66t-149 32l-96 9q-101 9 -147 37t-46 80v10q0 61 65.5 95.5t180.5 34.5q78 0 138.5 -18.5t94 -52t33.5 -76.5v-7h-29v7q0 36 -30 63.5t-83.5 42.5
t-123.5 15q-101 0 -159 -27.5t-58 -76.5v-9q0 -41 38.5 -63t126.5 -30l96 -9q118 -11 170 -39.5t52 -83.5v-10q0 -62 -71 -98t-193 -36q-81 0 -142.5 18zM541 688v-26l-406 -87v27z" />
    <glyph glyph-name="Scircumflex" unicode="&#x15c;" horiz-adv-x="771" 
d="M160 40.5q-78 50.5 -78 150.5v12h29v-12q0 -174 281 -174q132 0 199.5 37t67.5 109v9q0 44 -21 72t-67 44.5t-124 24.5l-126 13q-111 11 -165.5 50t-54.5 108v10q0 82 74 127t209 45q145 0 219 -50.5t74 -149.5v-11h-30v11q0 173 -263 173q-121 0 -187 -37.5t-66 -106.5
v-10q0 -58 47 -89.5t148 -42.5l126 -13q127 -13 182 -51.5t55 -115.5v-10q0 -85 -76 -129t-222 -44q-153 0 -231 50.5zM383 856l203 -85v-28l-203 86l-203 -86v28z" />
    <glyph glyph-name="scircumflex" unicode="&#x15d;" horiz-adv-x="688" 
d="M205.5 8q-61.5 18 -95.5 51.5t-34 77.5v7h28v-7q0 -56 66 -88.5t179 -32.5q109 0 171.5 29t62.5 79v10q0 43 -45 66t-149 32l-96 9q-101 9 -147 37t-46 80v10q0 61 65.5 95.5t180.5 34.5q78 0 138.5 -18.5t94 -52t33.5 -76.5v-7h-29v7q0 36 -30 63.5t-83.5 42.5
t-123.5 15q-101 0 -159 -27.5t-58 -76.5v-9q0 -41 38.5 -63t126.5 -30l96 -9q118 -11 170 -39.5t52 -83.5v-10q0 -62 -71 -98t-193 -36q-81 0 -142.5 18zM338 688l203 -85v-28l-203 86l-203 -86v28z" />
    <glyph glyph-name="Scedilla" unicode="&#x15e;" horiz-adv-x="771" 
d="M160 40.5q-78 50.5 -78 150.5v12h29v-12q0 -174 281 -174q132 0 199.5 37t67.5 109v9q0 44 -21 72t-67 44.5t-124 24.5l-126 13q-111 11 -165.5 50t-54.5 108v10q0 82 74 127t209 45q145 0 219 -50.5t74 -149.5v-11h-30v11q0 173 -263 173q-121 0 -187 -37.5t-66 -106.5
v-10q0 -58 47 -89.5t148 -42.5l126 -13q127 -13 182 -51.5t55 -115.5v-10q0 -85 -76 -129t-222 -44q-153 0 -231 50.5zM398 0l-51 -170h-31l53 176z" />
    <glyph glyph-name="scedilla" unicode="&#x15f;" horiz-adv-x="688" 
d="M205.5 8q-61.5 18 -95.5 51.5t-34 77.5v7h28v-7q0 -56 66 -88.5t179 -32.5q109 0 171.5 29t62.5 79v10q0 43 -45 66t-149 32l-96 9q-101 9 -147 37t-46 80v10q0 61 65.5 95.5t180.5 34.5q78 0 138.5 -18.5t94 -52t33.5 -76.5v-7h-29v7q0 36 -30 63.5t-83.5 42.5
t-123.5 15q-101 0 -159 -27.5t-58 -76.5v-9q0 -41 38.5 -63t126.5 -30l96 -9q118 -11 170 -39.5t52 -83.5v-10q0 -62 -71 -98t-193 -36q-81 0 -142.5 18zM353 0l-51 -170h-31l53 176z" />
    <glyph glyph-name="Scaron" unicode="&#x160;" horiz-adv-x="771" 
d="M160 40.5q-78 50.5 -78 150.5v12h29v-12q0 -174 281 -174q132 0 199.5 37t67.5 109v9q0 44 -21 72t-67 44.5t-124 24.5l-126 13q-111 11 -165.5 50t-54.5 108v10q0 82 74 127t209 45q145 0 219 -50.5t74 -149.5v-11h-30v11q0 173 -263 173q-121 0 -187 -37.5t-66 -106.5
v-10q0 -58 47 -89.5t148 -42.5l126 -13q127 -13 182 -51.5t55 -115.5v-10q0 -85 -76 -129t-222 -44q-153 0 -231 50.5zM180 856l203 -85l203 85v-27l-203 -86l-203 86v27z" />
    <glyph glyph-name="scaron" unicode="&#x161;" horiz-adv-x="688" 
d="M205.5 8q-61.5 18 -95.5 51.5t-34 77.5v7h28v-7q0 -56 66 -88.5t179 -32.5q109 0 171.5 29t62.5 79v10q0 43 -45 66t-149 32l-96 9q-101 9 -147 37t-46 80v10q0 61 65.5 95.5t180.5 34.5q78 0 138.5 -18.5t94 -52t33.5 -76.5v-7h-29v7q0 36 -30 63.5t-83.5 42.5
t-123.5 15q-101 0 -159 -27.5t-58 -76.5v-9q0 -41 38.5 -63t126.5 -30l96 -9q118 -11 170 -39.5t52 -83.5v-10q0 -62 -71 -98t-193 -36q-81 0 -142.5 18zM135 688l203 -85l203 85v-27l-203 -86l-203 86v27z" />
    <glyph glyph-name="uni0162" unicode="&#x162;" horiz-adv-x="691" 
d="M11 629v27h670v-27h-320v-629h-30v629h-320zM361 0l-51 -170h-31l53 176z" />
    <glyph glyph-name="uni0163" unicode="&#x163;" horiz-adv-x="520" 
d="M248 462v-331q0 -50 28 -77.5t79 -27.5h117v-26h-118q-64 0 -99 34.5t-35 96.5v331h-208v26h191q10 0 13.5 3.5t3.5 13.5v116h28v-133h254v-26h-254zM375 0l-51 -170h-31l53 176z" />
    <glyph glyph-name="Tcaron" unicode="&#x164;" horiz-adv-x="691" 
d="M11 629v27h670v-27h-320v-629h-30v629h-320zM143 856l203 -85l203 85v-27l-203 -86l-203 86v27z" />
    <glyph glyph-name="tcaron" unicode="&#x165;" horiz-adv-x="570" 
d="M248 462v-331q0 -50 28 -77.5t79 -27.5h117v-26h-118q-64 0 -99 34.5t-35 96.5v331h-208v26h191q10 0 13.5 3.5t3.5 13.5v116h28v-133h254v-26h-254zM493 740l-42 -177h-28l36 177h34z" />
    <glyph glyph-name="Tbar" unicode="&#x166;" horiz-adv-x="711" 
d="M371 629v-293h261v-26h-261v-310h-30v310h-242v26h242v293h-320v27h670v-27h-320z" />
    <glyph glyph-name="tbar" unicode="&#x167;" horiz-adv-x="558" 
d="M260 460v-201h262v-28h-262v-100q0 -50 28 -77.5t78 -27.5h117v-26h-118q-63 0 -98.5 34.5t-35.5 96.5v100h-207v28h207v201h-207v28h191q10 0 13.5 3.5t3.5 13.5v116h28v-133h262v-28h-262z" />
    <glyph glyph-name="Utilde" unicode="&#x168;" horiz-adv-x="793" 
d="M242.5 23q-66.5 33 -103.5 93t-37 138v402h29v-402q0 -70 33 -124t93 -83.5t139 -29.5t139.5 29.5t93.5 83.5t33 124v402h29v-402q0 -78 -37 -138t-104 -93t-154 -33t-153.5 33zM446 766.5q-22 4.5 -57 14.5q-28 9 -48.5 13t-42.5 4q-51 0 -104 -25v25q55 26 104 26
q23 0 42.5 -4.5t50.5 -13.5q34 -10 55.5 -14.5t47.5 -4.5q48 0 106 21v-25q-55 -21 -106 -21q-26 0 -48 4.5z" />
    <glyph glyph-name="utilde" unicode="&#x169;" horiz-adv-x="711" 
d="M610 488v-488h-27l-2 95q-38 -49 -100.5 -77t-132.5 -28q-125 0 -189.5 60.5t-64.5 176.5v261h28v-261q0 -103 58 -157t170 -54q73 0 136 32t95 85v355h29zM403 598.5q-22 4.5 -57 14.5q-28 9 -48.5 13t-42.5 4q-51 0 -104 -25v25q55 26 104 26q23 0 42.5 -4.5
t50.5 -13.5q34 -10 55.5 -14.5t47.5 -4.5q48 0 106 21v-25q-55 -21 -106 -21q-26 0 -48 4.5z" />
    <glyph glyph-name="Umacron" unicode="&#x16a;" horiz-adv-x="793" 
d="M242.5 23q-66.5 33 -103.5 93t-37 138v402h29v-402q0 -70 33 -124t93 -83.5t139 -29.5t139.5 29.5t93.5 83.5t33 124v402h29v-402q0 -78 -37 -138t-104 -93t-154 -33t-153.5 33zM600 805v-25h-406v25h406z" />
    <glyph glyph-name="umacron" unicode="&#x16b;" horiz-adv-x="711" 
d="M610 488v-488h-27l-2 95q-38 -49 -100.5 -77t-132.5 -28q-125 0 -189.5 60.5t-64.5 176.5v261h28v-261q0 -103 58 -157t170 -54q73 0 136 32t95 85v355h29zM557 637v-25h-406v25h406z" />
    <glyph glyph-name="Ubreve" unicode="&#x16c;" horiz-adv-x="793" 
d="M242.5 23q-66.5 33 -103.5 93t-37 138v402h29v-402q0 -70 33 -124t93 -83.5t139 -29.5t139.5 29.5t93.5 83.5t33 124v402h29v-402q0 -78 -37 -138t-104 -93t-154 -33t-153.5 33zM194 811v26q112 -65 208 -65q93 0 198 65v-26q-98 -64 -198 -64q-96 0 -208 64z" />
    <glyph glyph-name="ubreve" unicode="&#x16d;" horiz-adv-x="711" 
d="M610 488v-488h-27l-2 95q-38 -49 -100.5 -77t-132.5 -28q-125 0 -189.5 60.5t-64.5 176.5v261h28v-261q0 -103 58 -157t170 -54q73 0 136 32t95 85v355h29zM151 643v26q112 -65 208 -65q93 0 198 65v-26q-98 -64 -198 -64q-96 0 -208 64z" />
    <glyph glyph-name="Uring" unicode="&#x16e;" horiz-adv-x="793" 
d="M242.5 23q-66.5 33 -103.5 93t-37 138v402h29v-402q0 -70 33 -124t93 -83.5t139 -29.5t139.5 29.5t93.5 83.5t33 124v402h29v-402q0 -78 -37 -138t-104 -93t-154 -33t-153.5 33zM302.5 743q-33.5 26 -33.5 74q0 47 34 73.5t94 26.5t93.5 -26.5t33.5 -73.5
q0 -49 -32.5 -74.5t-94.5 -25.5q-61 0 -94.5 26zM472 758.5q26 20.5 26 58.5t-26.5 58.5t-74.5 20.5q-49 0 -75.5 -20.5t-26.5 -58.5t26.5 -58.5t75.5 -20.5t75 20.5z" />
    <glyph glyph-name="uring" unicode="&#x16f;" horiz-adv-x="711" 
d="M610 488v-488h-27l-2 95q-38 -49 -100.5 -77t-132.5 -28q-125 0 -189.5 60.5t-64.5 176.5v261h28v-261q0 -103 58 -157t170 -54q73 0 136 32t95 85v355h29zM259.5 575q-33.5 26 -33.5 74q0 47 34 73.5t94 26.5t93.5 -26.5t33.5 -73.5q0 -49 -32.5 -74.5t-94.5 -25.5
q-61 0 -94.5 26zM429 590.5q26 20.5 26 58.5t-26.5 58.5t-74.5 20.5q-49 0 -75.5 -20.5t-26.5 -58.5t26.5 -58.5t75.5 -20.5t75 20.5z" />
    <glyph glyph-name="Uhungarumlaut" unicode="&#x170;" horiz-adv-x="793" 
d="M242.5 23q-66.5 33 -103.5 93t-37 138v402h29v-402q0 -70 33 -124t93 -83.5t139 -29.5t139.5 29.5t93.5 83.5t33 124v402h29v-402q0 -78 -37 -138t-104 -93t-154 -33t-153.5 33zM453 856v-28l-269 -85v28zM724 856v-28l-267 -85v28z" />
    <glyph glyph-name="uhungarumlaut" unicode="&#x171;" horiz-adv-x="711" 
d="M610 488v-488h-27l-2 95q-38 -49 -100.5 -77t-132.5 -28q-125 0 -189.5 60.5t-64.5 176.5v261h28v-261q0 -103 58 -157t170 -54q73 0 136 32t95 85v355h29zM410 688v-28l-269 -85v28zM681 688v-28l-267 -85v28z" />
    <glyph glyph-name="Uogonek" unicode="&#x172;" horiz-adv-x="793" 
d="M242.5 23q-66.5 33 -103.5 93t-37 138v402h29v-402q0 -70 33 -124t93 -83.5t139 -29.5t139.5 29.5t93.5 83.5t33 124v402h29v-402q0 -78 -37 -138t-104 -93t-154 -33t-153.5 33zM416.5 -154q-20.5 16 -20.5 41q0 20 13.5 38t50.5 48l113 91l26 -9l-124 -101
q-27 -22 -37.5 -35t-10.5 -28q0 -17 13.5 -26.5t36.5 -9.5h112v-25h-119q-33 0 -53.5 16z" />
    <glyph glyph-name="uogonek" unicode="&#x173;" horiz-adv-x="711" 
d="M610 488v-488h-27l-2 95q-38 -49 -100.5 -77t-132.5 -28q-125 0 -189.5 60.5t-64.5 176.5v261h28v-261q0 -103 58 -157t170 -54q73 0 136 32t95 85v355h29zM437.5 -155.5q-19.5 14.5 -19.5 39.5q0 23 14.5 41t47.5 35l117 60l13 -20l-117 -57q-25 -12 -35.5 -24.5
t-10.5 -29.5q0 -16 12.5 -25t35.5 -9h115v-25h-120q-33 0 -52.5 14.5z" />
    <glyph glyph-name="Wcircumflex" unicode="&#x174;" horiz-adv-x="1175" 
d="M1142 656v-6l-265 -650h-35l-254 620l-255 -620h-35l-265 650v6h30l253 -622l255 622h33l255 -622l253 622h30zM588 856l203 -85v-28l-203 86l-203 -86v28z" />
    <glyph glyph-name="wcircumflex" unicode="&#x175;" horiz-adv-x="1067" 
d="M1004 488v-5l-227 -483h-36l-207 453l-208 -453h-36l-227 483v5h29l216 -462l211 462h28l212 -463l217 463h28zM534 688l203 -85v-28l-203 86l-203 -86v28z" />
    <glyph glyph-name="Ycircumflex" unicode="&#x176;" horiz-adv-x="726" 
d="M707 650l-329 -357v-293h-29v293l-330 357v6h32l312 -337l313 337h31v-6zM362 856l203 -85v-28l-203 86l-203 -86v28z" />
    <glyph glyph-name="ycircumflex" unicode="&#x177;" horiz-adv-x="697" 
d="M634 488v-5l-308 -556q-20 -37 -40 -57.5t-49.5 -30t-76.5 -9.5h-65v26h64q56 0 85 17t55 64l33 59l-269 487v5h29l257 -463l256 463h29zM349 688l203 -85v-28l-203 86l-203 -86v28z" />
    <glyph glyph-name="Ydieresis" unicode="&#x178;" horiz-adv-x="726" 
d="M707 650l-329 -357v-293h-29v293l-330 357v6h32l312 -337l313 337h31v-6zM215 773.5q-8 7.5 -8 18.5q0 12 7.5 19t19.5 7q11 0 18.5 -7t7.5 -19q0 -11 -7.5 -18.5t-18.5 -7.5t-19 7.5zM471 774q-8 8 -8 18q0 12 7.5 19t18.5 7q12 0 19.5 -7t7.5 -19q0 -11 -7.5 -18.5
t-19.5 -7.5q-10 0 -18 8z" />
    <glyph glyph-name="Zacute" unicode="&#x179;" horiz-adv-x="696" 
d="M643 629l-552 -602h552v-27h-590v27l552 602h-552v27h590v-27zM551 856v-26l-406 -87v27z" />
    <glyph glyph-name="zacute" unicode="&#x17a;" horiz-adv-x="642" 
d="M577 463l-468 -437h468v-26h-507v25l468 437h-468v26h507v-25zM527 688v-26l-406 -87v27z" />
    <glyph glyph-name="Zdotaccent" unicode="&#x17b;" horiz-adv-x="696" 
d="M643 629l-552 -602h552v-27h-590v27l552 602h-552v27h590v-27zM329 773.5q-8 7.5 -8 18.5q0 12 8 19.5t19 7.5q12 0 19.5 -7.5t7.5 -19.5q0 -11 -7.5 -18.5t-19.5 -7.5q-11 0 -19 7.5z" />
    <glyph glyph-name="zdotaccent" unicode="&#x17c;" horiz-adv-x="642" 
d="M577 463l-468 -437h468v-26h-507v25l468 437h-468v26h507v-25zM305 605.5q-8 7.5 -8 18.5q0 12 8 19.5t19 7.5q12 0 19.5 -7.5t7.5 -19.5q0 -11 -7.5 -18.5t-19.5 -7.5q-11 0 -19 7.5z" />
    <glyph glyph-name="Zcaron" unicode="&#x17d;" horiz-adv-x="696" 
d="M643 629l-552 -602h552v-27h-590v27l552 602h-552v27h590v-27zM145 856l203 -85l203 85v-27l-203 -86l-203 86v27z" />
    <glyph glyph-name="zcaron" unicode="&#x17e;" horiz-adv-x="642" 
d="M577 463l-468 -437h468v-26h-507v25l468 437h-468v26h507v-25zM121 688l203 -85l203 85v-27l-203 -86l-203 86v27z" />
    <glyph glyph-name="uni018F" unicode="&#x18f;" horiz-adv-x="877" 
d="M624 625.5q80 -40.5 123.5 -114.5t43.5 -174v-19q0 -100 -43 -174t-123 -114t-187 -40q-108 0 -187.5 40t-122.5 115t-43 176v18h677q0 91 -40 159t-113.5 104.5t-171.5 36.5q-87 0 -155.5 -27t-110.5 -76.5t-51 -115.5h-31q10 75 55.5 130.5t121 85.5t171.5 30
q107 0 187 -40.5zM607.5 53q72.5 36 113 102.5t41.5 156.5h-647q1 -90 40.5 -156.5t112 -102.5t169.5 -36q98 0 170.5 36z" />
    <glyph glyph-name="florin" unicode="&#x192;" horiz-adv-x="816" 
d="M737 314h-335v-282q0 -65 -34.5 -101t-97.5 -36h-163v26h161q52 0 79 29t27 85v279h-307v26h307v218q0 66 34.5 102t97.5 36h191v-26h-189q-52 0 -79 -29t-27 -85v-216h335v-26z" />
    <glyph glyph-name="uni01CD" unicode="&#x1cd;" horiz-adv-x="770" 
d="M737 6v-6h-30l-109 211h-426l-109 -211h-30v6l336 650h33zM584 238l-199 387l-199 -387h398zM182 856l203 -85l203 85v-27l-203 -86l-203 86v27z" />
    <glyph glyph-name="uni01CE" unicode="&#x1ce;" horiz-adv-x="716" 
d="M715 26v-26h-48q-51 0 -80 26.5t-29 72.5v1q-44 -54 -112 -82t-156 -28q-208 0 -208 126q0 59 45 91t140 42l291 30v19q0 84 -57.5 128.5t-165.5 44.5q-65 0 -115.5 -19.5t-79 -54t-28.5 -78.5v-9h-28v9q0 52 32 92.5t89 63.5t130 23q119 0 185 -52.5t66 -147.5v-195
q0 -36 22.5 -56.5t62.5 -20.5h44zM450 48q71 32 108 89v117l-287 -29q-83 -8 -122 -35t-39 -74q0 -100 179 -100q90 0 161 32zM133 688l203 -85l203 85v-27l-203 -86l-203 86v27z" />
    <glyph glyph-name="uni01D2" unicode="&#x1d2;" horiz-adv-x="685" 
d="M193.5 19.5q-64.5 29.5 -99 84t-34.5 128.5v22q0 75 34.5 130t99 84.5t150.5 29.5q85 0 148.5 -29.5t98 -85t34.5 -129.5v-22q0 -73 -34.5 -128t-98 -84.5t-148.5 -29.5q-86 0 -150.5 29.5zM478 42.5q57 26.5 87.5 75t30.5 114.5v22q0 100 -67.5 159t-184.5 59
q-119 0 -187 -58.5t-68 -159.5v-22q0 -100 69 -158t186 -58q77 0 134 26.5zM140 688l203 -85l203 85v-27l-203 -86l-203 86v27z" />
    <glyph glyph-name="Gcaron" unicode="&#x1e6;" horiz-adv-x="879" 
d="M759 420v9q0 59 -40.5 107t-112 75.5t-158.5 27.5q-101 0 -176.5 -36.5t-116 -104t-40.5 -158.5v-25q0 -93 39.5 -160t114.5 -102.5t178 -35.5q106 0 182.5 33.5t129.5 100.5v144h-379v27h408v-322h-27l-2 115q-105 -125 -312 -125q-111 0 -192.5 39.5t-125.5 112.5
t-44 173v25q0 98 45 172t127 114t191 40q96 0 174 -30.5t122 -84.5t44 -122v-9h-29zM243 856l203 -85l203 85v-27l-203 -86l-203 86v27z" />
    <glyph glyph-name="gcaron" unicode="&#x1e7;" horiz-adv-x="709" 
d="M608 488v-466q0 -96 -72 -149t-200 -53q-83 0 -145.5 22t-96.5 62t-34 94v10h29v-10q0 -45 30.5 -79.5t86.5 -53.5t129 -19q115 0 179.5 46.5t64.5 128.5v95q-41 -47 -106.5 -75t-136.5 -28q-131 0 -204 61t-73 170v22q0 109 73 170.5t204 61.5q73 0 137.5 -27.5
t105.5 -76.5l2 94h27zM477 70q66 31 102 82v207q-36 51 -102 82t-140 31q-118 0 -183.5 -54t-65.5 -152v-22q0 -98 65.5 -151.5t183.5 -53.5q74 0 140 31zM141 688l203 -85l203 85v-27l-203 -86l-203 86v27z" />
    <glyph glyph-name="uni01F4" unicode="&#x1f4;" horiz-adv-x="879" 
d="M759 420v9q0 59 -40.5 107t-112 75.5t-158.5 27.5q-101 0 -176.5 -36.5t-116 -104t-40.5 -158.5v-25q0 -93 39.5 -160t114.5 -102.5t178 -35.5q106 0 182.5 33.5t129.5 100.5v144h-379v27h408v-322h-27l-2 115q-105 -125 -312 -125q-111 0 -192.5 39.5t-125.5 112.5
t-44 173v25q0 98 45 172t127 114t191 40q96 0 174 -30.5t122 -84.5t44 -122v-9h-29zM649 856v-26l-406 -87v27z" />
    <glyph glyph-name="uni01F5" unicode="&#x1f5;" horiz-adv-x="709" 
d="M608 488v-466q0 -96 -72 -149t-200 -53q-83 0 -145.5 22t-96.5 62t-34 94v10h29v-10q0 -45 30.5 -79.5t86.5 -53.5t129 -19q115 0 179.5 46.5t64.5 128.5v95q-41 -47 -106.5 -75t-136.5 -28q-131 0 -204 61t-73 170v22q0 109 73 170.5t204 61.5q73 0 137.5 -27.5
t105.5 -76.5l2 94h27zM477 70q66 31 102 82v207q-36 51 -102 82t-140 31q-118 0 -183.5 -54t-65.5 -152v-22q0 -98 65.5 -151.5t183.5 -53.5q74 0 140 31zM547 688v-26l-406 -87v27z" />
    <glyph glyph-name="AEacute" unicode="&#x1fc;" horiz-adv-x="1072" 
d="M457 629l73 -287h434v-27h-427l74 -288h373v-27h-396l-54 211h-363l-108 -211h-30v6l336 650h615v-27h-527zM428 629h-42l-201 -391h342zM739 856v-26l-406 -87v27z" />
    <glyph glyph-name="aeacute" unicode="&#x1fd;" horiz-adv-x="1098" 
d="M560 241v-11q0 -99 63 -156.5t171 -57.5q62 0 111 20.5t76.5 57t27.5 82.5h29q-1 -54 -32 -96.5t-85.5 -66t-124.5 -23.5q-86 0 -147.5 33t-91.5 93q-43 -65 -108 -95.5t-159 -30.5q-208 0 -208 125q0 59 45 90.5t140 39.5l265 22v15q0 189 -207 189q-62 0 -110.5 -19
t-75 -53.5t-26.5 -79.5v-9h-29v9q0 53 30.5 93.5t85.5 63t126 22.5q191 0 225 -146q25 67 90.5 106.5t153.5 39.5q72 0 127.5 -29.5t85.5 -83.5t30 -126v-18h-478zM626 416q-64 -56 -66 -151h449q-2 95 -59.5 151t-154.5 56q-105 0 -169 -56zM547 141q-15 41 -15 91v10
l-259 -21q-85 -7 -124 -32t-39 -73q0 -100 178 -100q182 0 259 125zM752 688v-26l-406 -87v27z" />
    <glyph glyph-name="Oslashacute" unicode="&#x1fe;" horiz-adv-x="877" 
d="M753.5 500.5q37.5 -70.5 37.5 -163.5v-19q0 -100 -43 -174t-123 -114t-187 -40q-104 0 -183 38l-60 -89h-30v6l64 97q-69 42 -106.5 112.5t-37.5 163.5v19q0 100 43 174.5t123 114.5t187 40q103 0 184 -39l60 90h30v-6l-65 -98q69 -42 106.5 -112.5zM149 168
q34 -65 97 -103l360 539q-72 35 -168 35q-99 0 -172 -37t-112 -105t-39 -160v-19q0 -85 34 -150zM762 337q0 85 -34 150t-97 103l-361 -538q72 -35 168 -35q99 0 172 36.5t112.5 104.5t39.5 160v19zM642 856v-26l-406 -87v27z" />
    <glyph glyph-name="oslashacute" unicode="&#x1ff;" horiz-adv-x="685" 
d="M596 374.5q29 -52.5 29 -120.5v-22q0 -73 -34.5 -128t-98 -84.5t-148.5 -29.5q-81 0 -146 27l-47 -65h-29v5l51 73q-55 31 -84 82.5t-29 119.5v22q0 75 34.5 130t98.5 84.5t151 29.5q83 0 144 -27l46 65h30v-5l-52 -72q55 -32 84 -84.5zM115 126q26 -46 74 -74l282 396
q-54 24 -127 24q-118 0 -186.5 -58.5t-68.5 -159.5v-22q0 -60 26 -106zM596 254q0 61 -25.5 107.5t-73.5 74.5l-283 -396q56 -24 130 -24q77 0 134 26.5t87.5 75t30.5 114.5v22zM546 688v-26l-406 -87v27z" />
    <glyph glyph-name="uni0218" unicode="&#x218;" horiz-adv-x="771" 
d="M160 40.5q-78 50.5 -78 150.5v12h29v-12q0 -174 281 -174q132 0 199.5 37t67.5 109v9q0 44 -21 72t-67 44.5t-124 24.5l-126 13q-111 11 -165.5 50t-54.5 108v10q0 82 74 127t209 45q145 0 219 -50.5t74 -149.5v-11h-30v11q0 173 -263 173q-121 0 -187 -37.5t-66 -106.5
v-10q0 -58 47 -89.5t148 -42.5l126 -13q127 -13 182 -51.5t55 -115.5v-10q0 -85 -76 -129t-222 -44q-153 0 -231 50.5zM396 -58l-53 -147h-29l51 147h31z" />
    <glyph glyph-name="uni0219" unicode="&#x219;" horiz-adv-x="688" 
d="M205.5 8q-61.5 18 -95.5 51.5t-34 77.5v7h28v-7q0 -56 66 -88.5t179 -32.5q109 0 171.5 29t62.5 79v10q0 43 -45 66t-149 32l-96 9q-101 9 -147 37t-46 80v10q0 61 65.5 95.5t180.5 34.5q78 0 138.5 -18.5t94 -52t33.5 -76.5v-7h-29v7q0 36 -30 63.5t-83.5 42.5
t-123.5 15q-101 0 -159 -27.5t-58 -76.5v-9q0 -41 38.5 -63t126.5 -30l96 -9q118 -11 170 -39.5t52 -83.5v-10q0 -62 -71 -98t-193 -36q-81 0 -142.5 18zM351 -58l-53 -147h-29l51 147h31z" />
    <glyph glyph-name="uni021A" unicode="&#x21a;" horiz-adv-x="691" 
d="M11 629v27h670v-27h-320v-629h-30v629h-320zM359 -58l-53 -147h-29l51 147h31z" />
    <glyph glyph-name="uni021B" unicode="&#x21b;" horiz-adv-x="520" 
d="M248 462v-331q0 -50 28 -77.5t79 -27.5h117v-26h-118q-64 0 -99 34.5t-35 96.5v331h-208v26h191q10 0 13.5 3.5t3.5 13.5v116h28v-133h254v-26h-254zM372 -58l-53 -147h-29l51 147h31z" />
    <glyph glyph-name="uni0232" unicode="&#x232;" horiz-adv-x="726" 
d="M707 650l-329 -357v-293h-29v293l-330 357v6h32l312 -337l313 337h31v-6zM565 805v-25h-406v25h406z" />
    <glyph glyph-name="uni0233" unicode="&#x233;" horiz-adv-x="697" 
d="M634 488v-5l-308 -556q-20 -37 -40 -57.5t-49.5 -30t-76.5 -9.5h-65v26h64q56 0 85 17t55 64l33 59l-269 487v5h29l257 -463l256 463h29zM552 637v-25h-406v25h406z" />
    <glyph glyph-name="uni0237" unicode="&#x237;" horiz-adv-x="286" 
d="M16 -144q113 0 113 120v512h28v-512q0 -71 -36 -108.5t-104 -37.5h-118v26h117z" />
    <glyph glyph-name="uni0259" unicode="&#x259;" horiz-adv-x="671" 
d="M478.5 468q63.5 -30 98 -84.5t34.5 -127.5v-23q0 -73 -34.5 -128t-98 -85t-148.5 -30q-81 0 -142 29.5t-94.5 83.5t-33.5 126v24h522v5q0 65 -31 113.5t-88 74.5t-133 26q-70 0 -124.5 -20t-85 -56.5t-30.5 -83.5h-30q1 55 35 97.5t95 65.5t140 23q85 0 148.5 -30z
M463 42q57 26 88 74t31 112h-493q0 -64 29.5 -112t84.5 -74t128 -26q75 0 132 26z" />
    <glyph glyph-name="uni02BB" unicode="&#x2bb;" horiz-adv-x="600" 
d="M650 705l-50 -146h-31l52 146h29z" />
    <glyph glyph-name="uni02BC" unicode="&#x2bc;" horiz-adv-x="334" 
d="M212 696v-5l-80 -233h-28l76 238h32z" />
    <glyph glyph-name="circumflex" unicode="&#x2c6;" horiz-adv-x="600" 
d="M300 688l203 -85v-28l-203 86l-203 -86v28z" />
    <glyph glyph-name="caron" unicode="&#x2c7;" horiz-adv-x="600" 
d="M97 688l203 -85l203 85v-27l-203 -86l-203 86v27z" />
    <glyph glyph-name="uni02C9" unicode="&#x2c9;" horiz-adv-x="600" 
d="M803 637v-25h-406v25h406z" />
    <glyph glyph-name="breve" unicode="&#x2d8;" horiz-adv-x="600" 
d="M97 643v26q112 -65 208 -65q93 0 198 65v-26q-98 -64 -198 -64q-96 0 -208 64z" />
    <glyph glyph-name="dotaccent" unicode="&#x2d9;" horiz-adv-x="600" 
d="M281 605.5q-8 7.5 -8 18.5q0 12 8 19.5t19 7.5q12 0 19.5 -7.5t7.5 -19.5q0 -11 -7.5 -18.5t-19.5 -7.5q-11 0 -19 7.5z" />
    <glyph glyph-name="ring" unicode="&#x2da;" horiz-adv-x="600" 
d="M205.5 575q-33.5 26 -33.5 74q0 47 34 73.5t94 26.5t93.5 -26.5t33.5 -73.5q0 -49 -32.5 -74.5t-94.5 -25.5q-61 0 -94.5 26zM375 590.5q26 20.5 26 58.5t-26.5 58.5t-74.5 20.5q-49 0 -75.5 -20.5t-26.5 -58.5t26.5 -58.5t75.5 -20.5t75 20.5z" />
    <glyph glyph-name="ogonek" unicode="&#x2db;" horiz-adv-x="600" 
d="M223.5 -155.5q-19.5 14.5 -19.5 39.5q0 23 14.5 41t47.5 35l117 60l13 -20l-117 -57q-25 -12 -35.5 -24.5t-10.5 -29.5q0 -16 12.5 -25t35.5 -9h115v-25h-120q-33 0 -52.5 14.5z" />
    <glyph glyph-name="tilde" unicode="&#x2dc;" horiz-adv-x="600" 
d="M349 598.5q-22 4.5 -57 14.5q-28 9 -48.5 13t-42.5 4q-51 0 -104 -25v25q55 26 104 26q23 0 42.5 -4.5t50.5 -13.5q34 -10 55.5 -14.5t47.5 -4.5q48 0 106 21v-25q-55 -21 -106 -21q-26 0 -48 4.5z" />
    <glyph glyph-name="hungarumlaut" unicode="&#x2dd;" horiz-adv-x="600" 
d="M299 688v-28l-269 -85v28zM570 688v-28l-267 -85v28z" />
    <glyph glyph-name="gravecomb" unicode="&#x300;" horiz-adv-x="0" 
d="M-203 689l406 -87v-27l-406 87v27z" />
    <glyph glyph-name="acutecomb" unicode="&#x301;" horiz-adv-x="0" 
d="M203 688v-26l-406 -87v27z" />
    <glyph glyph-name="uni0302" unicode="&#x302;" horiz-adv-x="0" 
d="M0 688l203 -85v-28l-203 86l-203 -86v28z" />
    <glyph glyph-name="tildecomb" unicode="&#x303;" horiz-adv-x="0" 
d="M49 598.5q-22 4.5 -57 14.5q-28 9 -48.5 13t-42.5 4q-51 0 -104 -25v25q55 26 104 26q23 0 42.5 -4.5t50.5 -13.5q34 -10 55.5 -14.5t47.5 -4.5q48 0 106 21v-25q-55 -21 -106 -21q-26 0 -48 4.5z" />
    <glyph glyph-name="uni0304" unicode="&#x304;" horiz-adv-x="0" 
d="M203 637v-25h-406v25h406z" />
    <glyph glyph-name="uni0306" unicode="&#x306;" horiz-adv-x="0" 
d="M-203 643v26q112 -65 208 -65q93 0 198 65v-26q-98 -64 -198 -64q-96 0 -208 64z" />
    <glyph glyph-name="uni0307" unicode="&#x307;" horiz-adv-x="0" 
d="M-19 605.5q-8 7.5 -8 18.5q0 12 8 19.5t19 7.5q12 0 19.5 -7.5t7.5 -19.5q0 -11 -7.5 -18.5t-19.5 -7.5q-11 0 -19 7.5z" />
    <glyph glyph-name="uni0308" unicode="&#x308;" horiz-adv-x="0" 
d="M-147 605.5q-8 7.5 -8 18.5q0 12 7.5 19t19.5 7q11 0 18.5 -7t7.5 -19q0 -11 -7.5 -18.5t-18.5 -7.5t-19 7.5zM109 606q-8 8 -8 18q0 12 7.5 19t18.5 7q12 0 19.5 -7t7.5 -19q0 -11 -7.5 -18.5t-19.5 -7.5q-10 0 -18 8z" />
    <glyph glyph-name="uni030A" unicode="&#x30a;" horiz-adv-x="0" 
d="M-94.5 575q-33.5 26 -33.5 74q0 47 34 73.5t94 26.5t93.5 -26.5t33.5 -73.5q0 -49 -32.5 -74.5t-94.5 -25.5q-61 0 -94.5 26zM75 590.5q26 20.5 26 58.5t-26.5 58.5t-74.5 20.5q-49 0 -75.5 -20.5t-26.5 -58.5t26.5 -58.5t75.5 -20.5t75 20.5z" />
    <glyph glyph-name="uni030B" unicode="&#x30b;" horiz-adv-x="0" 
d="M56 688v-28l-269 -85v28zM327 688v-28l-267 -85v28z" />
    <glyph glyph-name="uni030C" unicode="&#x30c;" horiz-adv-x="0" 
d="M-203 688l203 -85l203 85v-27l-203 -86l-203 86v27z" />
    <glyph glyph-name="uni0312" unicode="&#x312;" horiz-adv-x="0" 
d="M50 705l-50 -146h-31l52 146h29z" />
    <glyph glyph-name="dotbelowcomb" unicode="&#x323;" horiz-adv-x="0" 
d="M-19 -155.5q-8 7.5 -8 19.5q0 11 8 18.5t19 7.5q12 0 19.5 -7.5t7.5 -18.5q0 -12 -7.5 -19.5t-19.5 -7.5q-11 0 -19 7.5z" />
    <glyph glyph-name="uni0326" unicode="&#x326;" horiz-adv-x="0" 
d="M12 -58l-53 -147h-29l51 147h31z" />
    <glyph glyph-name="uni0327" unicode="&#x327;" horiz-adv-x="0" 
d="M15 0l-51 -170h-31l53 176z" />
    <glyph glyph-name="uni0328" unicode="&#x328;" horiz-adv-x="0" 
d="M-172.5 -155.5q-19.5 14.5 -19.5 39.5q0 23 14.5 41t47.5 35l117 60l13 -20l-117 -57q-25 -12 -35.5 -24.5t-10.5 -29.5q0 -16 12.5 -25t35.5 -9h115v-25h-120q-33 0 -52.5 14.5z" />
    <glyph glyph-name="uni0374" unicode="&#x374;" horiz-adv-x="334" 
d="M212 656v-5l-80 -276h-28l76 281h32z" />
    <glyph glyph-name="tonos" unicode="&#x384;" horiz-adv-x="600" 
d="M323 818l-20 -259h-26l20 259h26z" />
    <glyph glyph-name="dieresistonos" unicode="&#x385;" horiz-adv-x="600" 
d="M329 818l-20 -259h-26l20 259h26zM126 605.5q-8 7.5 -8 18.5q0 12 7.5 19t19.5 7t19.5 -7t7.5 -19q0 -11 -7.5 -18.5t-19.5 -7.5q-11 0 -19 7.5zM435.5 605.5q-7.5 7.5 -7.5 18.5q0 12 7.5 19t18.5 7q12 0 19.5 -7t7.5 -19q0 -11 -7.5 -18.5t-19.5 -7.5q-11 0 -18.5 7.5z
" />
    <glyph glyph-name="Alphatonos" unicode="&#x386;" horiz-adv-x="770" 
d="M737 6v-6h-30l-109 211h-426l-109 -211h-30v6l336 650h33zM584 238l-199 387l-199 -387h398zM49 656l-20 -259h-26l20 259h26z" />
    <glyph glyph-name="anoteleia" unicode="&#x387;" horiz-adv-x="334" 
d="M148.5 443.5q-7.5 7.5 -7.5 18.5t7.5 18.5t18.5 7.5q12 0 19.5 -7.5t7.5 -18.5t-7.5 -18.5t-19.5 -7.5q-11 0 -18.5 7.5z" />
    <glyph glyph-name="Epsilontonos" unicode="&#x388;" horiz-adv-x="723" 
d="M635 656v-27h-494v-287h474v-27h-474v-288h494v-27h-523v656h523zM-115 656l-20 -259h-26l20 259h26z" />
    <glyph glyph-name="Etatonos" unicode="&#x389;" horiz-adv-x="819" 
d="M141 656v-314h537v314h29v-656h-29v315h-537v-315h-29v656h29zM-115 656l-20 -259h-26l20 259h26z" />
    <glyph glyph-name="Iotatonos" unicode="&#x38a;" horiz-adv-x="299" 
d="M164 656v-656h-29v656h29zM-116 656l-20 -259h-26l20 259h26z" />
    <glyph glyph-name="Omicrontonos" unicode="&#x38c;" horiz-adv-x="877" 
d="M251.5 30q-79.5 40 -123 114t-43.5 174v19q0 100 43 174.5t123 114.5t187 40t186.5 -40.5t123 -114.5t43.5 -174v-19q0 -100 -43 -174t-123 -114t-187 -40t-186.5 40zM610 53.5q73 36.5 112.5 104.5t39.5 160v19q0 92 -39.5 160t-112.5 105t-172 37t-172 -37t-112 -105
t-39 -160v-19q0 -92 39 -160t112 -104.5t172 -36.5t172 36.5zM-36 656l-20 -259h-26l20 259h26z" />
    <glyph glyph-name="Upsilontonos" unicode="&#x38e;" horiz-adv-x="726" 
d="M707 650l-329 -357v-293h-29v293l-330 357v6h32l312 -337l313 337h31v-6zM-119 656l-20 -259h-26l20 259h26z" />
    <glyph glyph-name="Omegatonos" unicode="&#x38f;" horiz-adv-x="880" 
d="M793 27v-27h-275v117q113 14 179 80t66 166v12q0 81 -39 140.5t-112 91.5t-172 32q-100 0 -173 -32t-112.5 -92t-39.5 -140v-12q0 -99 66.5 -165.5t180.5 -80.5v-117h-275v27h247v70q-113 17 -180.5 89t-67.5 176v13q0 89 43 155t123 101t188 35t187.5 -35t122 -101
t42.5 -155v-13q0 -105 -66.5 -176.5t-179.5 -88.5v-70h247zM-17 656l-20 -259h-26l20 259h26z" />
    <glyph glyph-name="iotadieresistonos" unicode="&#x390;" horiz-adv-x="329" 
d="M158 27q-29 27 -29 86v375h28v-373q0 -48 22 -68.5t74 -20.5h52v-26h-56q-62 0 -91 27zM172 818l-20 -259h-26l20 259h26zM-31 605.5q-8 7.5 -8 18.5q0 12 7.5 19t19.5 7t19.5 -7t7.5 -19q0 -11 -7.5 -18.5t-19.5 -7.5q-11 0 -19 7.5zM278.5 605.5q-7.5 7.5 -7.5 18.5
q0 12 7.5 19t18.5 7q12 0 19.5 -7t7.5 -19q0 -11 -7.5 -18.5t-19.5 -7.5q-11 0 -18.5 7.5z" />
    <glyph glyph-name="Alpha" unicode="&#x391;" horiz-adv-x="770" 
d="M737 6v-6h-30l-109 211h-426l-109 -211h-30v6l336 650h33zM584 238l-199 387l-199 -387h398z" />
    <glyph glyph-name="Beta" unicode="&#x392;" horiz-adv-x="785" 
d="M666 280.5q39 -39.5 39 -100.5v-14q0 -77 -59 -121.5t-159 -44.5h-375v656h353q102 0 160 -42t58 -115v-13q0 -56 -33.5 -95.5t-93.5 -56.5q71 -14 110 -53.5zM141 629v-284h323q88 0 138.5 36.5t50.5 101.5v14q0 63 -49.5 97.5t-138.5 34.5h-324zM676 180
q0 65 -50 101.5t-139 36.5h-346v-291h346q89 0 139 37t50 103v13z" />
    <glyph glyph-name="Gamma" unicode="&#x393;" horiz-adv-x="687" 
d="M677 656v-27h-536v-629h-29v656h565z" />
    <glyph glyph-name="uni0394" unicode="&#x394;" horiz-adv-x="773" 
d="M725 27v-27h-677v27l320 629h37zM80 27h613l-306 603z" />
    <glyph glyph-name="Epsilon" unicode="&#x395;" horiz-adv-x="723" 
d="M635 656v-27h-494v-287h474v-27h-474v-288h494v-27h-523v656h523z" />
    <glyph glyph-name="Zeta" unicode="&#x396;" horiz-adv-x="696" 
d="M643 629l-552 -602h552v-27h-590v27l552 602h-552v27h590v-27z" />
    <glyph glyph-name="Eta" unicode="&#x397;" horiz-adv-x="819" 
d="M141 656v-314h537v314h29v-656h-29v315h-537v-315h-29v656h29z" />
    <glyph glyph-name="Theta" unicode="&#x398;" horiz-adv-x="877" 
d="M624.5 625.5q79.5 -40.5 123 -114.5t43.5 -174v-19q0 -100 -43 -174t-123 -114t-187 -40t-186.5 40t-123 114t-43.5 174v19q0 100 43 174.5t123 114.5t187 40t186.5 -40.5zM267.5 603q-72.5 -36 -112 -103.5t-40.5 -157.5h647q-1 90 -41 157t-112.5 103.5t-170.5 36.5
t-170.5 -36zM608 53.5q73 36.5 113.5 104t40.5 157.5h-647q0 -91 39.5 -158t112.5 -103.5t171 -36.5q97 0 170 36.5z" />
    <glyph glyph-name="Iota" unicode="&#x399;" horiz-adv-x="299" 
d="M164 656v-656h-29v656h29z" />
    <glyph glyph-name="Kappa" unicode="&#x39a;" horiz-adv-x="813" 
d="M729 650l-390 -288l386 -356v-6h-36l-374 344l-174 -128v-216h-29v656h29v-402l549 402h39v-6z" />
    <glyph glyph-name="Lambda" unicode="&#x39b;" horiz-adv-x="770" 
d="M737 6v-6h-30l-322 627l-322 -627h-30v6l335 650h34z" />
    <glyph glyph-name="Mu" unicode="&#x39c;" horiz-adv-x="1029" 
d="M917 0h-29v616l-358 -616h-32l-357 619v-619h-29v656h39l363 -623l365 623h38v-656z" />
    <glyph glyph-name="Nu" unicode="&#x39d;" horiz-adv-x="819" 
d="M707 656v-656h-28l-539 615v-615h-28v656h29l538 -615v615h28z" />
    <glyph glyph-name="Xi" unicode="&#x39e;" horiz-adv-x="790" 
d="M409 629v-287h271v-27h-271v-288h293v-27h-614v27h293v288h-271v27h271v287h-293v27h614v-27h-293z" />
    <glyph glyph-name="Omicron" unicode="&#x39f;" horiz-adv-x="877" 
d="M251.5 30q-79.5 40 -123 114t-43.5 174v19q0 100 43 174.5t123 114.5t187 40t186.5 -40.5t123 -114.5t43.5 -174v-19q0 -100 -43 -174t-123 -114t-187 -40t-186.5 40zM610 53.5q73 36.5 112.5 104.5t39.5 160v19q0 92 -39.5 160t-112.5 105t-172 37t-172 -37t-112 -105
t-39 -160v-19q0 -92 39 -160t112 -104.5t172 -36.5t172 36.5z" />
    <glyph glyph-name="Pi" unicode="&#x3a0;" horiz-adv-x="799" 
d="M687 656v-656h-29v629h-517v-629h-29v656h575z" />
    <glyph glyph-name="Rho" unicode="&#x3a1;" horiz-adv-x="787" 
d="M500 656q102 0 161 -45.5t59 -124.5v-14q0 -78 -59.5 -124t-160.5 -46h-359v-302h-29v656h388zM639.5 367q50.5 38 50.5 105v14q0 67 -50.5 105t-139.5 38h-359v-300h359q89 0 139.5 38z" />
    <glyph glyph-name="Sigma" unicode="&#x3a3;" horiz-adv-x="703" 
d="M635 629h-506l341 -291v-20l-341 -291h506v-27h-548v27l354 301l-354 301v27h548v-27z" />
    <glyph glyph-name="Tau" unicode="&#x3a4;" horiz-adv-x="691" 
d="M11 629v27h670v-27h-320v-629h-30v629h-320z" />
    <glyph glyph-name="Upsilon" unicode="&#x3a5;" horiz-adv-x="726" 
d="M707 650l-329 -357v-293h-29v293l-330 357v6h32l312 -337l313 337h31v-6z" />
    <glyph glyph-name="Phi" unicode="&#x3a6;" horiz-adv-x="1077" 
d="M908 517.5q83 -62.5 83 -184.5v-9q0 -121 -83.5 -184.5t-244.5 -63.5h-110v-116h-29v116h-102q-172 0 -254.5 62.5t-82.5 185.5v9q0 123 82 185t255 62h102v116h29v-116h110q162 0 245 -62.5zM188.5 157.5q73.5 -54.5 233.5 -54.5h102v450h-102q-160 0 -233.5 -54.5
t-73.5 -165.5v-10q0 -111 73.5 -165.5zM962 333q0 220 -299 220h-110v-450h110q299 0 299 220v10z" />
    <glyph glyph-name="Chi" unicode="&#x3a7;" horiz-adv-x="819" 
d="M735 650l-304 -322l304 -322v-6h-35l-290 309l-291 -309h-35v6l304 322l-304 322v6h35l291 -309l291 309h34v-6z" />
    <glyph glyph-name="Psi" unicode="&#x3a8;" horiz-adv-x="1057" 
d="M980 656v-228q0 -122 -83 -187t-240 -65h-113v-176h-30v176h-113q-157 0 -240 65t-83 187v228h30v-227q0 -111 74.5 -168.5t217.5 -57.5h114v453h30v-453h114q143 0 218 57.5t75 168.5v227h29z" />
    <glyph glyph-name="uni03A9" unicode="&#x3a9;" horiz-adv-x="880" 
d="M793 27v-27h-275v117q113 14 179 80t66 166v12q0 81 -39 140.5t-112 91.5t-172 32q-100 0 -173 -32t-112.5 -92t-39.5 -140v-12q0 -99 66.5 -165.5t180.5 -80.5v-117h-275v27h247v70q-113 17 -180.5 89t-67.5 176v13q0 89 43 155t123 101t188 35t187.5 -35t122 -101
t42.5 -155v-13q0 -105 -66.5 -176.5t-179.5 -88.5v-70h247z" />
    <glyph glyph-name="Iotadieresis" unicode="&#x3aa;" horiz-adv-x="299" 
d="M164 656v-656h-29v656h29zM3 773.5q-8 7.5 -8 18.5q0 12 7.5 19t19.5 7q11 0 18.5 -7t7.5 -19q0 -11 -7.5 -18.5t-18.5 -7.5t-19 7.5zM259 774q-8 8 -8 18q0 12 7.5 19t18.5 7q12 0 19.5 -7t7.5 -19q0 -11 -7.5 -18.5t-19.5 -7.5q-10 0 -18 8z" />
    <glyph glyph-name="Upsilondieresis" unicode="&#x3ab;" horiz-adv-x="726" 
d="M707 650l-329 -357v-293h-29v293l-330 357v6h32l312 -337l313 337h31v-6zM215 773.5q-8 7.5 -8 18.5q0 12 7.5 19t19.5 7q11 0 18.5 -7t7.5 -19q0 -11 -7.5 -18.5t-18.5 -7.5t-19 7.5zM471 774q-8 8 -8 18q0 12 7.5 19t18.5 7q12 0 19.5 -7t7.5 -19q0 -11 -7.5 -18.5
t-19.5 -7.5q-10 0 -18 8z" />
    <glyph glyph-name="alphatonos" unicode="&#x3ac;" horiz-adv-x="737" 
d="M736 26v-26h-48q-50 0 -79 25t-30 69q-41 -50 -103 -77t-133 -27q-132 0 -207.5 65t-75.5 178v22q0 113 75.5 178t207.5 65q71 0 133.5 -27.5t102.5 -76.5l1 94h27v-385q0 -37 22.5 -57t63.5 -20h43zM480 46q62 30 99 82v232q-37 52 -99.5 82t-134.5 30q-120 0 -188 -58
t-68 -159v-22q0 -101 68 -159t188 -58q73 0 135 30zM397 818l-20 -259h-26l20 259h26z" />
    <glyph glyph-name="epsilontonos" unicode="&#x3ad;" horiz-adv-x="684" 
d="M589 307v7q0 158 -243 158q-120 0 -177 -26.5t-57 -81.5v-9q0 -46 37.5 -71t105.5 -25h178v-26h-190q-68 0 -106 -24.5t-38 -68.5v-9q0 -60 59 -87.5t186 -27.5q245 0 245 157v7h29v-7q0 -90 -69.5 -136.5t-203.5 -46.5q-140 0 -207.5 34.5t-67.5 105.5v9q0 41 28.5 69
t79.5 39q-45 14 -70 41.5t-25 66.5v10q0 133 262 133q133 0 203 -47t70 -137v-7h-29zM379 818l-20 -259h-26l20 259h26z" />
    <glyph glyph-name="etatonos" unicode="&#x3ae;" horiz-adv-x="733" 
d="M579 437.5q60 -60.5 60 -176.5v-431h-28v431q0 103 -53.5 157t-154.5 54q-73 0 -136 -32t-96 -85v-355h-28v377q0 42 -24 63.5t-70 21.5h-48v26h53q53 0 83 -24.5t34 -70.5q37 49 99 77t134 28q115 0 175 -60.5zM433 818l-20 -259h-26l20 259h26z" />
    <glyph glyph-name="iotatonos" unicode="&#x3af;" horiz-adv-x="329" 
d="M158 27q-29 27 -29 86v375h28v-373q0 -48 22 -68.5t74 -20.5h52v-26h-56q-62 0 -91 27zM176 818l-20 -259h-26l20 259h26z" />
    <glyph glyph-name="upsilondieresistonos" unicode="&#x3b0;" horiz-adv-x="704" 
d="M162.5 51.5q-68.5 61.5 -68.5 172.5v264h28v-264q0 -98 61 -153t171 -55q108 0 168 55t60 153v264h28v-264q0 -110 -67.5 -172t-188.5 -62q-123 0 -191.5 61.5zM381 818l-20 -259h-26l20 259h26zM178 605.5q-8 7.5 -8 18.5q0 12 7.5 19t19.5 7t19.5 -7t7.5 -19
q0 -11 -7.5 -18.5t-19.5 -7.5q-11 0 -19 7.5zM487.5 605.5q-7.5 7.5 -7.5 18.5q0 12 7.5 19t18.5 7q12 0 19.5 -7t7.5 -19q0 -11 -7.5 -18.5t-19.5 -7.5q-11 0 -18.5 7.5z" />
    <glyph glyph-name="alpha" unicode="&#x3b1;" horiz-adv-x="737" 
d="M736 26v-26h-48q-50 0 -79 25t-30 69q-41 -50 -103 -77t-133 -27q-132 0 -207.5 65t-75.5 178v22q0 113 75.5 178t207.5 65q71 0 133.5 -27.5t102.5 -76.5l1 94h27v-385q0 -37 22.5 -57t63.5 -20h43zM480 46q62 30 99 82v232q-37 52 -99.5 82t-134.5 30q-120 0 -188 -58
t-68 -159v-22q0 -101 68 -159t188 -58q73 0 135 30z" />
    <glyph glyph-name="beta" unicode="&#x3b2;" horiz-adv-x="723" 
d="M626 289q36 -40 36 -101v-6q0 -94 -68.5 -143t-198.5 -49q-176 0 -265 101v-261h-28v642q0 115 71.5 174.5t210.5 59.5q123 0 194 -52.5t71 -143.5v-6q0 -62 -32.5 -103.5t-92.5 -57.5q66 -14 102 -54zM633 188q0 67 -46.5 103.5t-130.5 36.5h-128v26h116q85 0 130.5 39
t45.5 111v5q0 80 -62 125.5t-173 45.5q-127 0 -191 -52.5t-64 -155.5v-342q77 -114 264 -114q239 0 239 167v5z" />
    <glyph glyph-name="gamma" unicode="&#x3b3;" horiz-adv-x="695" 
d="M633 483l-271 -489v-164h-28v164l-272 489v5h29l257 -462l257 462h28v-5z" />
    <glyph glyph-name="delta" unicode="&#x3b4;" horiz-adv-x="685" 
d="M590.5 367q34.5 -51 34.5 -122v-16q0 -72 -34.5 -126t-98 -83.5t-148.5 -29.5q-86 0 -150 29.5t-99 84.5t-35 128v16q0 72 34.5 124.5t99.5 80.5t153 28q22 0 58 -2l-319 191v26h494v-26h-445l341 -204q80 -48 114.5 -99zM596 245q0 64 -31 109.5t-105 90.5
q-44 11 -111 11q-121 0 -190.5 -55.5t-69.5 -152.5v-15q0 -65 31 -114.5t89 -76t135 -26.5t134 26t87.5 74t30.5 113v16z" />
    <glyph glyph-name="epsilon" unicode="&#x3b5;" horiz-adv-x="684" 
d="M589 307v7q0 158 -243 158q-120 0 -177 -26.5t-57 -81.5v-9q0 -46 37.5 -71t105.5 -25h178v-26h-190q-68 0 -106 -24.5t-38 -68.5v-9q0 -60 59 -87.5t186 -27.5q245 0 245 157v7h29v-7q0 -90 -69.5 -136.5t-203.5 -46.5q-140 0 -207.5 34.5t-67.5 105.5v9q0 41 28.5 69
t79.5 39q-45 14 -70 41.5t-25 66.5v10q0 133 262 133q133 0 203 -47t70 -137v-7h-29z" />
    <glyph glyph-name="zeta" unicode="&#x3b6;" horiz-adv-x="599" 
d="M562 3q33 -23 33 -71v-9q0 -48 -33 -70.5t-103 -22.5h-137v26h138q57 0 82 16t25 52v8q0 36 -25 52t-82 16h-128q-83 0 -144.5 24.5t-95 69.5t-33.5 105v9q0 51 16 88.5t55.5 76t114.5 91.5l292 206h-478v26h523v-25l-321 -229q-72 -51 -108 -86t-50.5 -68.5t-14.5 -79.5
v-8q0 -80 66 -127t178 -47h127q70 0 103 -23z" />
    <glyph glyph-name="eta" unicode="&#x3b7;" horiz-adv-x="733" 
d="M579 437.5q60 -60.5 60 -176.5v-431h-28v431q0 103 -53.5 157t-154.5 54q-73 0 -136 -32t-96 -85v-355h-28v377q0 42 -24 63.5t-70 21.5h-48v26h53q53 0 83 -24.5t34 -70.5q37 49 99 77t134 28q115 0 175 -60.5z" />
    <glyph glyph-name="theta" unicode="&#x3b8;" horiz-adv-x="675" 
d="M484.5 637q62.5 -30 96.5 -85.5t34 -129.5v-190q0 -73 -34 -128t-96.5 -84.5t-145.5 -29.5q-84 0 -147 29.5t-97.5 84t-34.5 128.5v190q0 75 34 130t97.5 85t147.5 30q83 0 145.5 -30zM156 581.5q-68 -58.5 -68 -158.5v-82h499v82q0 66 -30.5 115t-87 75.5t-130.5 26.5
q-115 0 -183 -58.5zM469.5 42.5q56.5 26.5 87 75.5t30.5 114v83h-499v-83q0 -66 31 -114.5t87.5 -75t132.5 -26.5q74 0 130.5 26.5z" />
    <glyph glyph-name="iota" unicode="&#x3b9;" horiz-adv-x="329" 
d="M158 27q-29 27 -29 86v375h28v-373q0 -48 22 -68.5t74 -20.5h52v-26h-56q-62 0 -91 27z" />
    <glyph glyph-name="kappa" unicode="&#x3ba;" horiz-adv-x="681" 
d="M635 6v-6h-34l-308 263l-163 -110v-153h-28v488h28v-300l453 300h38v-5l-306 -205z" />
    <glyph glyph-name="lambda" unicode="&#x3bb;" horiz-adv-x="705" 
d="M642 5v-5h-29l-259 460l-254 -460h-29v5l266 485l-55 98q-18 32 -33.5 49t-38 25t-59.5 8h-75v26h75q61 0 93.5 -19.5t63.5 -74.5z" />
    <glyph glyph-name="uni03BC" unicode="&#x3bc;" horiz-adv-x="740" 
d="M750 26v-26h-53q-54 0 -84 24.5t-33 71.5q-35 -49 -93.5 -77.5t-128.5 -28.5q-87 0 -145 31.5t-83 91.5v-283h-28v658h28v-261q0 -103 58 -157t169 -54q70 0 130.5 31.5t92.5 84.5v356h28v-378q0 -41 24 -62.5t70 -21.5h48z" />
    <glyph glyph-name="nu" unicode="&#x3bd;" horiz-adv-x="697" 
d="M634 488v-5l-268 -483h-36l-267 483v5h28l257 -464l258 464h28z" />
    <glyph glyph-name="xi" unicode="&#x3be;" horiz-adv-x="663" 
d="M606 504v7q0 80 -67 124.5t-187 44.5q-107 0 -171.5 -43t-64.5 -115v-10q0 -66 46.5 -103.5t126.5 -37.5h129v-26h-142q-80 0 -126 -42t-46 -115v-10q0 -77 61 -114.5t187 -37.5h143q70 0 103.5 -23t33.5 -71v-9q0 -48 -33 -70.5t-104 -22.5h-137v26h139q56 0 81 16
t25 52v8q0 36 -25 52t-81 16h-145q-137 0 -207 44.5t-70 132.5v10q0 67 36 112t102 60q-60 16 -93 56.5t-33 98.5v10q0 54 33 95.5t93.5 64t139.5 22.5q131 0 206.5 -52t75.5 -143v-7h-29z" />
    <glyph glyph-name="omicron" unicode="&#x3bf;" horiz-adv-x="685" 
d="M193.5 19.5q-64.5 29.5 -99 84t-34.5 128.5v22q0 75 34.5 130t99 84.5t150.5 29.5q85 0 148.5 -29.5t98 -85t34.5 -129.5v-22q0 -73 -34.5 -128t-98 -84.5t-148.5 -29.5q-86 0 -150.5 29.5zM478 42.5q57 26.5 87.5 75t30.5 114.5v22q0 100 -67.5 159t-184.5 59
q-119 0 -187 -58.5t-68 -159.5v-22q0 -100 69 -158t186 -58q77 0 134 26.5z" />
    <glyph glyph-name="pi" unicode="&#x3c0;" horiz-adv-x="814" 
d="M15 462v26h781v-26h-218v-334q0 -102 95 -102h104v-26h-105q-60 0 -91.5 32.5t-31.5 95.5v334h-326v-462h-29v462h-179z" />
    <glyph glyph-name="rho" unicode="&#x3c1;" horiz-adv-x="704" 
d="M514 468q62 -30 96 -85t34 -128v-22q0 -73 -34 -128t-97 -85t-148 -30q-74 0 -137.5 27t-104.5 77v-264h-28v425q0 114 73 178.5t201 64.5q83 0 145 -30zM615 255q0 65 -30 114.5t-86 76t-130 26.5q-115 0 -180.5 -58t-65.5 -159v-127q37 -52 102 -82t139 -30
q117 0 184 58t67 159v22z" />
    <glyph glyph-name="uni03C2" unicode="&#x3c2;" horiz-adv-x="665" 
d="M482 -144q57 0 82 16t25 52v8q0 36 -25 52t-82 16h-138q-133 0 -208.5 62t-75.5 170v24q0 73 35 127.5t99 84.5t150 30q77 0 140 -26.5t98.5 -73t35.5 -104.5v-15h-29v15q0 50 -32 91t-88 64t-125 23q-77 0 -135 -26.5t-89 -75.5t-31 -114v-24q0 -97 68 -151.5t188 -54.5
h136q70 0 103 -23t33 -71v-9q0 -48 -33 -70.5t-103 -22.5h-137v26h138z" />
    <glyph glyph-name="sigma" unicode="&#x3c3;" horiz-adv-x="735" 
d="M731 462h-240q134 -59 134 -210v-22q0 -72 -34.5 -126.5t-98 -84t-148.5 -29.5q-86 0 -150.5 29.5t-99 84t-34.5 128.5v22q0 72 34.5 124.5t98.5 81t151 28.5h387v-26zM449 462h-105q-119 0 -187 -56t-68 -153v-22q0 -99 68.5 -157t186.5 -58q77 0 134 26.5t87.5 75
t30.5 113.5v22q0 148 -147 209z" />
    <glyph glyph-name="tau" unicode="&#x3c4;" horiz-adv-x="572" 
d="M258.5 34.5q-35.5 34.5 -35.5 96.5v331h-208v26h524v-26h-287v-331q0 -50 27.5 -77.5t77.5 -27.5h152v-26h-153q-62 0 -97.5 34.5z" />
    <glyph glyph-name="upsilon" unicode="&#x3c5;" horiz-adv-x="704" 
d="M162.5 51.5q-68.5 61.5 -68.5 172.5v264h28v-264q0 -98 61 -153t171 -55q108 0 168 55t60 153v264h28v-264q0 -110 -67.5 -172t-188.5 -62q-123 0 -191.5 61.5z" />
    <glyph glyph-name="phi" unicode="&#x3c6;" horiz-adv-x="968" 
d="M818.5 425.5q81.5 -62.5 81.5 -175.5v-14q0 -112 -82 -174t-228 -62h-92v-170h-28v170h-92q-146 0 -228 62t-82 174v14q0 113 81.5 175.5t228.5 62.5h92v208h28v-208h92q147 0 228.5 -62.5zM470 26v436h-93q-133 0 -206.5 -55.5t-73.5 -156.5v-14q0 -100 74 -155t206 -55
h93zM871 250q0 101 -73.5 156.5t-206.5 55.5h-93v-436h93q132 0 206 55t74 155v14z" />
    <glyph glyph-name="chi" unicode="&#x3c7;" horiz-adv-x="656" 
d="M603 -165v-5h-31l-244 314l-244 -314h-31v5l255 328l-251 320v5h31l240 -306l240 306h31v-5l-252 -320z" />
    <glyph glyph-name="psi" unicode="&#x3c8;" horiz-adv-x="898" 
d="M804 488v-250q0 -115 -76 -176.5t-216 -61.5h-49v-170h-28v170h-49q-140 0 -216 61.5t-76 176.5v250h28v-250q0 -103 68 -157.5t195 -54.5h50v670h28v-670h50q127 0 195 54.5t68 157.5v250h28z" />
    <glyph glyph-name="omega" unicode="&#x3c9;" horiz-adv-x="968" 
d="M843 427q65 -61 65 -174v-22q0 -111 -63 -176t-172 -65q-64 0 -113.5 25.5t-75.5 71.5q-26 -46 -75 -71.5t-113 -25.5q-109 0 -172.5 65t-63.5 176v22q0 113 65 174t184 61h32v-26h-33q-105 0 -162 -54t-57 -154v-23q0 -100 55.5 -157.5t152.5 -57.5q58 0 104 25.5
t69 69.5v256h28v-256q23 -44 69 -69.5t104 -25.5q97 0 152.5 57.5t55.5 157.5v23q0 100 -57 154t-162 54h-33v26h32q119 0 184 -61z" />
    <glyph glyph-name="iotadieresis" unicode="&#x3ca;" horiz-adv-x="329" 
d="M158 27q-29 27 -29 86v375h28v-373q0 -48 22 -68.5t74 -20.5h52v-26h-56q-62 0 -91 27zM-4 605.5q-8 7.5 -8 18.5q0 12 7.5 19t19.5 7q11 0 18.5 -7t7.5 -19q0 -11 -7.5 -18.5t-18.5 -7.5t-19 7.5zM252 606q-8 8 -8 18q0 12 7.5 19t18.5 7q12 0 19.5 -7t7.5 -19
q0 -11 -7.5 -18.5t-19.5 -7.5q-10 0 -18 8z" />
    <glyph glyph-name="upsilondieresis" unicode="&#x3cb;" horiz-adv-x="704" 
d="M162.5 51.5q-68.5 61.5 -68.5 172.5v264h28v-264q0 -98 61 -153t171 -55q108 0 168 55t60 153v264h28v-264q0 -110 -67.5 -172t-188.5 -62q-123 0 -191.5 61.5zM205 605.5q-8 7.5 -8 18.5q0 12 7.5 19t19.5 7q11 0 18.5 -7t7.5 -19q0 -11 -7.5 -18.5t-18.5 -7.5t-19 7.5z
M461 606q-8 8 -8 18q0 12 7.5 19t18.5 7q12 0 19.5 -7t7.5 -19q0 -11 -7.5 -18.5t-19.5 -7.5q-10 0 -18 8z" />
    <glyph glyph-name="omicrontonos" unicode="&#x3cc;" horiz-adv-x="685" 
d="M193.5 19.5q-64.5 29.5 -99 84t-34.5 128.5v22q0 75 34.5 130t99 84.5t150.5 29.5q85 0 148.5 -29.5t98 -85t34.5 -129.5v-22q0 -73 -34.5 -128t-98 -84.5t-148.5 -29.5q-86 0 -150.5 29.5zM478 42.5q57 26.5 87.5 75t30.5 114.5v22q0 100 -67.5 159t-184.5 59
q-119 0 -187 -58.5t-68 -159.5v-22q0 -100 69 -158t186 -58q77 0 134 26.5zM376 818l-20 -259h-26l20 259h26z" />
    <glyph glyph-name="upsilontonos" unicode="&#x3cd;" horiz-adv-x="704" 
d="M162.5 51.5q-68.5 61.5 -68.5 172.5v264h28v-264q0 -98 61 -153t171 -55q108 0 168 55t60 153v264h28v-264q0 -110 -67.5 -172t-188.5 -62q-123 0 -191.5 61.5zM385 818l-20 -259h-26l20 259h26z" />
    <glyph glyph-name="omegatonos" unicode="&#x3ce;" horiz-adv-x="968" 
d="M843 427q65 -61 65 -174v-22q0 -111 -63 -176t-172 -65q-64 0 -113.5 25.5t-75.5 71.5q-26 -46 -75 -71.5t-113 -25.5q-109 0 -172.5 65t-63.5 176v22q0 113 65 174t184 61h32v-26h-33q-105 0 -162 -54t-57 -154v-23q0 -100 55.5 -157.5t152.5 -57.5q58 0 104 25.5
t69 69.5v256h28v-256q23 -44 69 -69.5t104 -25.5q97 0 152.5 57.5t55.5 157.5v23q0 100 -57 154t-162 54h-33v26h32q119 0 184 -61zM517 818l-20 -259h-26l20 259h26z" />
    <glyph glyph-name="uni0400" unicode="&#x400;" horiz-adv-x="723" 
d="M635 656v-27h-494v-287h474v-27h-474v-288h494v-27h-523v656h523zM170 857l406 -87v-27l-406 87v27z" />
    <glyph glyph-name="uni0401" unicode="&#x401;" horiz-adv-x="723" 
d="M635 656v-27h-494v-287h474v-27h-474v-288h494v-27h-523v656h523zM226 773.5q-8 7.5 -8 18.5q0 12 7.5 19t19.5 7q11 0 18.5 -7t7.5 -19q0 -11 -7.5 -18.5t-18.5 -7.5t-19 7.5zM482 774q-8 8 -8 18q0 12 7.5 19t18.5 7q12 0 19.5 -7t7.5 -19q0 -11 -7.5 -18.5t-19.5 -7.5
q-10 0 -18 8z" />
    <glyph glyph-name="uni0402" unicode="&#x402;" horiz-adv-x="944" 
d="M794.5 355q73.5 -51 73.5 -144v-10q0 -100 -70 -150.5t-208 -50.5h-75v27h74q127 0 188.5 43t61.5 131v10q0 80 -67.5 124t-188.5 44q-63 0 -138 -9t-143 -25v-345h-29v629h-262v27h631v-27h-340v-256q68 16 143 24.5t141 8.5q135 0 208.5 -51z" />
    <glyph glyph-name="uni0403" unicode="&#x403;" horiz-adv-x="627" 
d="M617 656v-27h-476v-629h-29v656h505zM564 856v-26l-406 -87v27z" />
    <glyph glyph-name="uni0404" unicode="&#x404;" horiz-adv-x="874" 
d="M756 403v11q0 63 -41.5 114.5t-114.5 81t-163 29.5q-98 0 -170.5 -36t-112 -103t-39.5 -158h441v-27h-441q0 -91 39 -158.5t111.5 -103.5t171.5 -36q91 0 163.5 29.5t114 80.5t41.5 115v12h30v-12q0 -71 -45.5 -128.5t-125 -90.5t-178.5 -33q-107 0 -186.5 39.5
t-122.5 113t-43 172.5v25q0 99 43 172.5t122.5 113.5t186.5 40q99 0 178.5 -33t125 -90.5t45.5 -128.5v-11h-30z" />
    <glyph glyph-name="uni0405" unicode="&#x405;" horiz-adv-x="771" 
d="M160 40.5q-78 50.5 -78 150.5v12h29v-12q0 -174 281 -174q132 0 199.5 37t67.5 109v9q0 44 -21 72t-67 44.5t-124 24.5l-126 13q-111 11 -165.5 50t-54.5 108v10q0 82 74 127t209 45q145 0 219 -50.5t74 -149.5v-11h-30v11q0 173 -263 173q-121 0 -187 -37.5t-66 -106.5
v-10q0 -58 47 -89.5t148 -42.5l126 -13q127 -13 182 -51.5t55 -115.5v-10q0 -85 -76 -129t-222 -44q-153 0 -231 50.5z" />
    <glyph glyph-name="uni0406" unicode="&#x406;" horiz-adv-x="299" 
d="M164 656v-656h-29v656h29z" />
    <glyph glyph-name="uni0407" unicode="&#x407;" horiz-adv-x="299" 
d="M164 656v-656h-29v656h29zM3 773.5q-8 7.5 -8 18.5q0 12 7.5 19t19.5 7q11 0 18.5 -7t7.5 -19q0 -11 -7.5 -18.5t-18.5 -7.5t-19 7.5zM259 774q-8 8 -8 18q0 12 7.5 19t18.5 7q12 0 19.5 -7t7.5 -19q0 -11 -7.5 -18.5t-19.5 -7.5q-10 0 -18 8z" />
    <glyph glyph-name="uni0408" unicode="&#x408;" horiz-adv-x="749" 
d="M207 21.5q-65 31.5 -100.5 89t-35.5 133.5v55h29v-55q0 -67 32 -118.5t90.5 -80t134.5 -28.5q77 0 136.5 28.5t92 80t32.5 118.5v385h-371v27h400v-412q0 -75 -37 -132.5t-102.5 -89.5t-150.5 -32t-150 31.5z" />
    <glyph glyph-name="uni0409" unicode="&#x409;" horiz-adv-x="1240" 
d="M1113.5 322q59.5 -47 59.5 -129v-18q0 -81 -59.5 -128t-160.5 -47h-324v629h-422l-7 -382q-2 -130 -42.5 -188.5t-126.5 -58.5h-31v27h27q76 0 109.5 51.5t35.5 170.5l8 407h478v-287h295q101 0 160.5 -47zM1143 193q0 70 -51 109.5t-139 39.5h-295v-315h295
q88 0 139 39.5t51 108.5v18z" />
    <glyph glyph-name="uni040A" unicode="&#x40a;" horiz-adv-x="1276" 
d="M141 656v-304h523v304h29v-304h296q102 0 161 -45t59 -123v-18q0 -77 -59 -121.5t-161 -44.5h-325v325h-523v-325h-29v656h29zM1128 64q51 37 51 102v18q0 66 -50.5 103.5t-139.5 37.5h-296v-298h296q88 0 139 37z" />
    <glyph glyph-name="uni040B" unicode="&#x40b;" horiz-adv-x="960" 
d="M868 177v-177h-29v175q0 102 -62.5 152.5t-191.5 50.5q-62 0 -137 -9t-146 -25v-344h-29v629h-262v27h631v-27h-340v-258q69 16 144.5 25t140.5 9q281 0 281 -228z" />
    <glyph glyph-name="uni040C" unicode="&#x40c;" horiz-adv-x="803" 
d="M719 650l-353 -321l349 -323v-6h-34l-340 315h-200v-315h-29v656h29v-314h199l344 314h35v-6zM600 856v-26l-406 -87v27z" />
    <glyph glyph-name="uni040D" unicode="&#x40d;" horiz-adv-x="819" 
d="M141 656v-615l537 615h29v-656h-29v615l-537 -615h-29v656h29zM207 857l406 -87v-27l-406 87v27z" />
    <glyph glyph-name="uni040E" unicode="&#x40e;" horiz-adv-x="763" 
d="M731 656v-6l-325 -557q-31 -54 -66.5 -73.5t-101.5 -19.5h-77v27h77q57 0 85.5 15.5t55.5 60.5l14 24l-335 523v6h30l321 -502l292 502h30zM251.5 770.5q-51.5 26.5 -51.5 78.5v3h27v-3q0 -40 44.5 -60t131.5 -20q86 0 130.5 20t44.5 60v3h28v-3q0 -52 -51.5 -78.5
t-151.5 -26.5t-151.5 26.5z" />
    <glyph glyph-name="uni040F" unicode="&#x40f;" horiz-adv-x="799" 
d="M687 0h-272v-143h-30v143h-273v656h29v-629h517v629h29v-656z" />
    <glyph glyph-name="uni0410" unicode="&#x410;" horiz-adv-x="770" 
d="M737 6v-6h-30l-109 211h-426l-109 -211h-30v6l336 650h33zM584 238l-199 387l-199 -387h398z" />
    <glyph glyph-name="uni0411" unicode="&#x411;" horiz-adv-x="785" 
d="M657 656v-27h-516v-275h348q101 0 160.5 -46t59.5 -124v-14q0 -78 -59.5 -124t-160.5 -46h-377v656h545zM628.5 65.5q51.5 38.5 51.5 104.5v14q0 66 -51.5 104.5t-139.5 38.5h-348v-300h348q88 0 139.5 38.5z" />
    <glyph glyph-name="uni0412" unicode="&#x412;" horiz-adv-x="785" 
d="M666 280.5q39 -39.5 39 -100.5v-14q0 -77 -59 -121.5t-159 -44.5h-375v656h353q102 0 160 -42t58 -115v-13q0 -56 -33.5 -95.5t-93.5 -56.5q71 -14 110 -53.5zM141 629v-284h323q88 0 138.5 36.5t50.5 101.5v14q0 63 -49.5 97.5t-138.5 34.5h-324zM676 180
q0 65 -50 101.5t-139 36.5h-346v-291h346q89 0 139 37t50 103v13z" />
    <glyph glyph-name="uni0413" unicode="&#x413;" horiz-adv-x="627" 
d="M617 656v-27h-476v-629h-29v656h505z" />
    <glyph glyph-name="uni0414" unicode="&#x414;" horiz-adv-x="867" 
d="M809 27v-160h-29v133h-717v-133h-29v160h87q31 41 49 100t19 132l8 397h507v-629h105zM198.5 125q-17.5 -59 -46.5 -98h523v602h-451l-7 -371q-1 -74 -18.5 -133z" />
    <glyph glyph-name="uni0415" unicode="&#x415;" horiz-adv-x="723" 
d="M635 656v-27h-494v-287h474v-27h-474v-288h494v-27h-523v656h523z" />
    <glyph glyph-name="uni0416" unicode="&#x416;" horiz-adv-x="1257" 
d="M1173 650l-332 -321l328 -323v-6h-33l-322 315h-170v-315h-30v315h-171l-321 -315h-34v6l328 323l-332 321v6h35l325 -314h170v314h30v-314h169l325 314h35v-6z" />
    <glyph glyph-name="uni0417" unicode="&#x417;" horiz-adv-x="833" 
d="M731 279q40 -37 40 -95v-14q0 -88 -87.5 -134t-257.5 -46q-344 0 -344 251v12h29v-12q0 -114 77.5 -169t238.5 -55q156 0 235.5 39t79.5 115v13q0 64 -58.5 97.5t-171.5 33.5h-204v27h195q220 0 220 132v14q0 151 -292 151q-159 0 -239 -56.5t-80 -168.5v-11h-30v11
q0 124 89 188t260 64q159 0 240.5 -45t81.5 -132v-14q0 -56 -35.5 -93t-103.5 -52q77 -14 117 -51z" />
    <glyph glyph-name="uni0418" unicode="&#x418;" horiz-adv-x="819" 
d="M141 656v-615l537 615h29v-656h-29v615l-537 -615h-29v656h29z" />
    <glyph glyph-name="uni0419" unicode="&#x419;" horiz-adv-x="819" 
d="M141 656v-615l537 615h29v-656h-29v615l-537 -615h-29v656h29zM258.5 770.5q-51.5 26.5 -51.5 78.5v3h27v-3q0 -40 44.5 -60t131.5 -20q86 0 130.5 20t44.5 60v3h28v-3q0 -52 -51.5 -78.5t-151.5 -26.5t-151.5 26.5z" />
    <glyph glyph-name="uni041A" unicode="&#x41a;" horiz-adv-x="803" 
d="M719 650l-353 -321l349 -323v-6h-34l-340 315h-200v-315h-29v656h29v-314h199l344 314h35v-6z" />
    <glyph glyph-name="uni041B" unicode="&#x41b;" horiz-adv-x="794" 
d="M682 0h-29v629h-446l-7 -382q-2 -130 -42.5 -188.5t-126.5 -58.5h-31v27h27q76 0 109.5 51.5t35.5 170.5l8 407h502v-656z" />
    <glyph glyph-name="uni041C" unicode="&#x41c;" horiz-adv-x="1029" 
d="M917 0h-29v616l-358 -616h-32l-357 619v-619h-29v656h39l363 -623l365 623h38v-656z" />
    <glyph glyph-name="uni041D" unicode="&#x41d;" horiz-adv-x="819" 
d="M141 656v-314h537v314h29v-656h-29v315h-537v-315h-29v656h29z" />
    <glyph glyph-name="uni041E" unicode="&#x41e;" horiz-adv-x="877" 
d="M251.5 30q-79.5 40 -123 114t-43.5 174v19q0 100 43 174.5t123 114.5t187 40t186.5 -40.5t123 -114.5t43.5 -174v-19q0 -100 -43 -174t-123 -114t-187 -40t-186.5 40zM610 53.5q73 36.5 112.5 104.5t39.5 160v19q0 92 -39.5 160t-112.5 105t-172 37t-172 -37t-112 -105
t-39 -160v-19q0 -92 39 -160t112 -104.5t172 -36.5t172 36.5z" />
    <glyph glyph-name="uni041F" unicode="&#x41f;" horiz-adv-x="799" 
d="M687 656v-656h-29v629h-517v-629h-29v656h575z" />
    <glyph glyph-name="uni0420" unicode="&#x420;" horiz-adv-x="787" 
d="M500 656q102 0 161 -45.5t59 -124.5v-14q0 -78 -59.5 -124t-160.5 -46h-359v-302h-29v656h388zM639.5 367q50.5 38 50.5 105v14q0 67 -50.5 105t-139.5 38h-359v-300h359q89 0 139.5 38z" />
    <glyph glyph-name="uni0421" unicode="&#x421;" horiz-adv-x="874" 
d="M254.5 29.5q-81.5 39.5 -125.5 113t-44 172.5v25q0 99 44 172.5t125.5 113.5t191.5 40q95 0 172.5 -33t122.5 -91t45 -128v-11h-30v11q0 63 -40.5 114.5t-111.5 81t-158 29.5q-103 0 -177.5 -36t-114 -103.5t-39.5 -159.5v-25q0 -92 39.5 -159.5t114 -103t177.5 -35.5
q87 0 158 29.5t111.5 80.5t40.5 114v13h30v-13q0 -70 -45 -127.5t-122.5 -90.5t-172.5 -33q-110 0 -191.5 39.5z" />
    <glyph glyph-name="uni0422" unicode="&#x422;" horiz-adv-x="691" 
d="M11 629v27h670v-27h-320v-629h-30v629h-320z" />
    <glyph glyph-name="uni0423" unicode="&#x423;" horiz-adv-x="738" 
d="M731 656v-6l-325 -557q-31 -54 -66.5 -73.5t-101.5 -19.5h-77v27h77q57 0 85.5 15.5t55.5 60.5l14 24l-335 523v6h30l321 -502l292 502h30z" />
    <glyph glyph-name="uni0424" unicode="&#x424;" horiz-adv-x="1096" 
d="M1029 333v-10q0 -247 -336 -247h-130v-86h-29v86h-131q-336 0 -336 247v10q0 125 83.5 186.5t252.5 61.5h131v85h29v-85h130q336 0 336 -248zM172 157q75 -54 231 -54h131v451h-131q-157 0 -231.5 -54t-74.5 -167v-10q0 -112 75 -166zM999 333q0 113 -74.5 167t-231.5 54
h-130v-451h130q156 0 231 54t75 166v10z" />
    <glyph glyph-name="uni0425" unicode="&#x425;" horiz-adv-x="819" 
d="M735 650l-304 -322l304 -322v-6h-35l-290 309l-291 -309h-35v6l304 322l-304 322v6h35l291 -309l291 309h34v-6z" />
    <glyph glyph-name="uni0426" unicode="&#x426;" horiz-adv-x="850" 
d="M792 27v-160h-29v133h-651v656h29v-629h517v629h29v-629h105z" />
    <glyph glyph-name="uni0427" unicode="&#x427;" horiz-adv-x="799" 
d="M687 656v-656h-29v272q-68 -16 -143.5 -24.5t-139.5 -8.5q-283 0 -283 229v188h29v-187q0 -102 63.5 -152t192.5 -50q61 0 136 9t145 25v355h29z" />
    <glyph glyph-name="uni0428" unicode="&#x428;" horiz-adv-x="1159" 
d="M141 656v-629h424v629h29v-629h424v629h29v-656h-935v656h29z" />
    <glyph glyph-name="uni0429" unicode="&#x429;" horiz-adv-x="1208" 
d="M1150 27v-160h-29v133h-1009v656h29v-629h423v629h29v-629h423v629h29v-629h105z" />
    <glyph glyph-name="uni042A" unicode="&#x42a;" horiz-adv-x="937" 
d="M810.5 322q59.5 -47 59.5 -129v-18q0 -81 -59.5 -128t-160.5 -47h-377v629h-262v27h291v-287h348q101 0 160.5 -47zM840 193q0 70 -51 109.5t-139 39.5h-348v-315h348q88 0 139 39.5t51 109.5v17z" />
    <glyph glyph-name="uni042B" unicode="&#x42b;" horiz-adv-x="1013" 
d="M150 656v-287h356q101 0 160 -47t59 -129v-18q0 -81 -59 -128t-160 -47h-385v656h29zM892 656v-656h-29v656h29zM645 66.5q51 39.5 51 108.5v18q0 70 -51 109.5t-140 39.5h-355v-315h355q89 0 140 39.5z" />
    <glyph glyph-name="uni042C" unicode="&#x42c;" horiz-adv-x="776" 
d="M141 656v-287h348q101 0 160.5 -47t59.5 -129v-18q0 -81 -59.5 -128t-160.5 -47h-377v656h29zM628 66.5q51 39.5 51 109.5v17q0 70 -51 109.5t-139 39.5h-348v-315h348q88 0 139 39.5z" />
    <glyph glyph-name="uni042D" unicode="&#x42d;" horiz-adv-x="874" 
d="M623.5 626q79.5 -40 122.5 -113.5t43 -172.5v-25q0 -99 -43 -172.5t-122.5 -113t-186.5 -39.5q-98 0 -178 33t-125.5 90.5t-45.5 128.5v12h30v-12q0 -64 41.5 -115t114 -80.5t163.5 -29.5q99 0 171.5 36t111.5 103.5t39 158.5h-440v27h440q0 91 -39.5 158t-112 103
t-170.5 36q-90 0 -163 -29.5t-114.5 -81t-41.5 -114.5v-11h-30v11q0 71 45.5 128.5t125.5 90.5t178 33q107 0 186.5 -40z" />
    <glyph glyph-name="uni042E" unicode="&#x42e;" horiz-adv-x="1161" 
d="M908.5 625.5q79.5 -40.5 123 -114.5t43.5 -174v-19q0 -100 -43 -174t-122.5 -114t-186.5 -40q-106 0 -185.5 39.5t-123.5 113t-44 172.5h-229v-315h-29v656h29v-314h229q1 99 44.5 172t123 112.5t185.5 39.5t185.5 -40.5zM1046 337q0 92 -39.5 160t-112.5 105t-171 37
q-99 0 -172 -37t-112 -105t-39 -160v-19q0 -92 39 -160t112 -104.5t172 -36.5q98 0 171 36.5t112.5 104.5t39.5 160v19z" />
    <glyph glyph-name="uni042F" unicode="&#x42f;" horiz-adv-x="806" 
d="M694 656v-656h-29v286h-237l-305 -286h-35v6l300 280h-77q-104 0 -164.5 48t-60.5 130v13q0 83 60.5 131t164.5 48h383zM665 629h-353q-93 0 -144.5 -40t-51.5 -112v-13q0 -71 52 -111t144 -40h353v316z" />
    <glyph glyph-name="uni0430" unicode="&#x430;" horiz-adv-x="716" 
d="M715 26v-26h-48q-51 0 -80 26.5t-29 72.5v1q-44 -54 -112 -82t-156 -28q-208 0 -208 126q0 59 45 91t140 42l291 30v19q0 84 -57.5 128.5t-165.5 44.5q-65 0 -115.5 -19.5t-79 -54t-28.5 -78.5v-9h-28v9q0 52 32 92.5t89 63.5t130 23q119 0 185 -52.5t66 -147.5v-195
q0 -36 22.5 -56.5t62.5 -20.5h44zM450 48q71 32 108 89v117l-287 -29q-83 -8 -122 -35t-39 -74q0 -100 179 -100q90 0 161 32z" />
    <glyph glyph-name="uni0431" unicode="&#x431;" horiz-adv-x="704" 
d="M512.5 446q62.5 -29 97 -82t34.5 -122v-20q0 -70 -34 -122.5t-97 -81t-147 -28.5q-141 0 -215.5 74.5t-74.5 216.5v59q0 143 72 215.5t226 83.5l163 12q29 2 40.5 9.5t11.5 25.5v10h29v-10q0 -30 -17.5 -44t-58.5 -17l-167 -13q-140 -11 -205 -73.5t-66 -186.5
q39 58 109 90.5t155 32.5q82 0 144.5 -29zM615 242q0 62 -31 108.5t-88 72t-132 25.5q-85 0 -153.5 -35t-105.5 -98v-39q0 -127 66.5 -193.5t193.5 -66.5q75 0 131.5 25.5t87.5 72.5t31 108v20z" />
    <glyph glyph-name="uni0432" unicode="&#x432;" horiz-adv-x="710" 
d="M611.5 208q28.5 -29 28.5 -74v-10q0 -59 -45 -91.5t-125 -32.5h-368v488h355q81 0 126 -31.5t45 -87.5v-10q0 -41 -25.5 -70t-72.5 -41q53 -11 81.5 -40zM130 464v-206h327q67 0 104.5 26.5t37.5 74.5v10q0 46 -37 70.5t-105 24.5h-327zM611 134q0 48 -37 74t-105 26
h-339v-210h339q68 0 105 26t37 74v10z" />
    <glyph glyph-name="uni0433" unicode="&#x433;" horiz-adv-x="513" 
d="M503 488v-26h-373v-462h-28v488h401z" />
    <glyph glyph-name="uni0434" unicode="&#x434;" horiz-adv-x="762" 
d="M737 26v-154h-28v128h-648v-128h-29v154h72q61 80 62 196l4 266h464v-462h103zM605 26v436h-408l-4 -240q-1 -113 -57 -196h469z" />
    <glyph glyph-name="uni0435" unicode="&#x435;" horiz-adv-x="671" 
d="M89 235v-5q0 -65 31 -113.5t88 -74.5t133 -26q70 0 124.5 20t85.5 56.5t31 83.5h29q-1 -55 -35 -97.5t-95 -65.5t-140 -23q-85 0 -148.5 30t-98 84.5t-34.5 127.5v24q0 73 34.5 127.5t98 84.5t148.5 30q81 0 142.5 -29.5t94.5 -83.5t33 -126v-24h-522zM208.5 446
q-56.5 -26 -88 -74t-31.5 -112h493v1q0 97 -65 154t-176 57q-76 0 -132.5 -26z" />
    <glyph glyph-name="uni0436" unicode="&#x436;" horiz-adv-x="1018" 
d="M965 5v-5h-32l-258 231h-152v-231h-28v231h-151l-259 -231h-32v5l265 240l-251 238v5h33l245 -231h150v231h28v-231h150l245 231h33v-5l-251 -238z" />
    <glyph glyph-name="uni0437" unicode="&#x437;" horiz-adv-x="684" 
d="M586 208q28 -28 28 -69v-9q0 -71 -67.5 -105.5t-206.5 -34.5q-134 0 -204 48t-70 140v7h29v-7q0 -80 62 -121t183 -41q128 0 186.5 27.5t58.5 87.5v9q0 44 -38 68.5t-106 24.5h-190v26h178q68 0 106 25t38 71v9q0 55 -57.5 81.5t-177.5 26.5q-121 0 -182 -41t-61 -121v-7
h-29v7q0 91 70 139.5t203 48.5q131 0 197 -33.5t66 -99.5v-10q0 -39 -25 -66.5t-70 -41.5q51 -11 79 -39z" />
    <glyph glyph-name="uni0438" unicode="&#x438;" horiz-adv-x="713" 
d="M129 488v-452l456 452h27v-488h-28v452l-456 -452h-26v488h27z" />
    <glyph glyph-name="uni0439" unicode="&#x439;" horiz-adv-x="713" 
d="M129 488v-452l456 452h27v-488h-28v452l-456 -452h-26v488h27zM205.5 602.5q-51.5 26.5 -51.5 78.5v3h27v-3q0 -40 44.5 -60t131.5 -20q86 0 130.5 20t44.5 60v3h28v-3q0 -52 -51.5 -78.5t-151.5 -26.5t-151.5 26.5z" />
    <glyph glyph-name="uni043A" unicode="&#x43a;" horiz-adv-x="687" 
d="M634 5v-5h-32l-290 232h-182v-232h-28v488h28v-231h182l275 231h33v-5l-282 -238z" />
    <glyph glyph-name="uni043B" unicode="&#x43b;" horiz-adv-x="712" 
d="M611 0h-29v462h-400l-5 -245q-2 -115 -36.5 -166t-110.5 -51h-29v26h24q65 0 93.5 44t30.5 148l5 270h457v-488z" />
    <glyph glyph-name="uni043C" unicode="&#x43c;" horiz-adv-x="913" 
d="M812 488v-488h-28v457l-13 -21l-301 -436h-26l-303 438l-12 19v-457h-27v488h38l317 -459l316 459h39z" />
    <glyph glyph-name="uni043D" unicode="&#x43d;" horiz-adv-x="718" 
d="M130 488v-231h458v231h29v-488h-29v231h-458v-231h-28v488h28z" />
    <glyph glyph-name="uni043E" unicode="&#x43e;" horiz-adv-x="685" 
d="M193.5 19.5q-64.5 29.5 -99 84t-34.5 128.5v22q0 75 34.5 130t99 84.5t150.5 29.5q85 0 148.5 -29.5t98 -85t34.5 -129.5v-22q0 -73 -34.5 -128t-98 -84.5t-148.5 -29.5q-86 0 -150.5 29.5zM478 42.5q57 26.5 87.5 75t30.5 114.5v22q0 100 -67.5 159t-184.5 59
q-119 0 -187 -58.5t-68 -159.5v-22q0 -100 69 -158t186 -58q77 0 134 26.5z" />
    <glyph glyph-name="uni043F" unicode="&#x43f;" horiz-adv-x="708" 
d="M607 488v-488h-29v462h-448v-462h-28v488h505z" />
    <glyph glyph-name="uni0440" unicode="&#x440;" horiz-adv-x="710" 
d="M517 468.5q64 -29.5 98.5 -84.5t34.5 -129v-22q0 -74 -34.5 -129t-98.5 -84.5t-150 -29.5q-72 0 -134 27t-103 76v-263h-28v658h27l1 -92q41 48 103 75t134 27q86 0 150 -29.5zM621 255q0 101 -68.5 159t-186.5 58q-74 0 -137 -29.5t-99 -81.5v-234q36 -52 99 -81.5
t137 -29.5q118 0 186.5 58t68.5 159v22z" />
    <glyph glyph-name="uni0441" unicode="&#x441;" horiz-adv-x="670" 
d="M194 20q-64 30 -99 84.5t-35 127.5v22q0 74 35 129t99 85t150 30q76 0 137.5 -25.5t96.5 -70t35 -99.5v-7h-29v7q0 48 -31 86.5t-86 60.5t-123 22q-77 0 -135 -26.5t-89 -76t-31 -115.5v-22q0 -65 31 -114t89 -75.5t135 -26.5q68 0 123 22t86 60.5t31 85.5v7h29v-7
q0 -55 -35 -99t-96.5 -69.5t-137.5 -25.5q-86 0 -150 30z" />
    <glyph glyph-name="uni0442" unicode="&#x442;" horiz-adv-x="606" 
d="M11 462v26h585v-26h-275v-462h-29v462h-281z" />
    <glyph glyph-name="uni0443" unicode="&#x443;" horiz-adv-x="697" 
d="M634 488v-5l-308 -556q-20 -37 -40 -57.5t-49.5 -30t-76.5 -9.5h-65v26h64q56 0 85 17t55 64l33 59l-269 487v5h29l257 -463l256 463h29z" />
    <glyph glyph-name="uni0444" unicode="&#x444;" horiz-adv-x="968" 
d="M818.5 425.5q81.5 -62.5 81.5 -175.5v-14q0 -112 -82 -174t-228 -62h-92v-170h-28v170h-92q-146 0 -228 62t-82 174v14q0 113 81.5 175.5t228.5 62.5h92v208h28v-208h92q147 0 228.5 -62.5zM470 26v436h-93q-133 0 -206.5 -55.5t-73.5 -156.5v-14q0 -100 74 -155t206 -55
h93zM871 250q0 101 -73.5 156.5t-206.5 55.5h-93v-436h93q132 0 206 55t74 155v14z" />
    <glyph glyph-name="uni0445" unicode="&#x445;" horiz-adv-x="656" 
d="M603 5v-5h-33l-242 230l-242 -230h-33v5l254 242l-250 236v5h33l238 -224l238 224h32v-5l-250 -235z" />
    <glyph glyph-name="uni0446" unicode="&#x446;" horiz-adv-x="734" 
d="M709 26v-154h-28v128h-579v488h28v-462h447v462h29v-462h103z" />
    <glyph glyph-name="uni0447" unicode="&#x447;" horiz-adv-x="677" 
d="M576 488v-488h-29v198q-58 -15 -121.5 -23.5t-119.5 -8.5q-108 0 -164 43.5t-56 126.5v152h29v-150q0 -71 49 -108t144 -37q54 0 117 8.5t122 23.5v263h29z" />
    <glyph glyph-name="uni0448" unicode="&#x448;" horiz-adv-x="1039" 
d="M130 488v-462h376v462h28v-462h375v462h29v-488h-836v488h28z" />
    <glyph glyph-name="uni0449" unicode="&#x449;" horiz-adv-x="1075" 
d="M1041 26v-154h-28v128h-911v488h28v-462h376v462h28v-462h375v462h29v-462h103z" />
    <glyph glyph-name="uni044A" unicode="&#x44a;" horiz-adv-x="835" 
d="M726 264.5q45 -37.5 45 -106.5v-14q0 -68 -45.5 -106t-126.5 -38h-366v462h-222v26h250v-186h338q82 0 127 -37.5zM742 158q0 57 -37.5 87.5t-107.5 30.5h-336v-250h336q70 0 107.5 30.5t37.5 87.5v14z" />
    <glyph glyph-name="uni044B" unicode="&#x44b;" horiz-adv-x="902" 
d="M611 263q44 -39 44 -105v-14q0 -65 -44 -104.5t-129 -39.5h-361v488h28v-186h333q85 0 129 -39zM782 488v-488h-29v488h29zM626 158q0 54 -36 86t-109 32h-332v-250h332q73 0 109 32t36 86v14z" />
    <glyph glyph-name="uni044C" unicode="&#x44c;" horiz-adv-x="704" 
d="M595 264.5q45 -37.5 45 -106.5v-14q0 -68 -45.5 -106t-126.5 -38h-366v488h28v-186h338q82 0 127 -37.5zM611 158q0 57 -37.5 87.5t-107.5 30.5h-336v-250h336q70 0 107.5 30.5t37.5 87.5v14z" />
    <glyph glyph-name="uni044D" unicode="&#x44d;" horiz-adv-x="670" 
d="M476 468q64 -30 99 -84.5t35 -127.5v-24q0 -73 -35 -127.5t-99 -84.5t-150 -30q-76 0 -137.5 24t-96.5 66.5t-35 95.5v9h29v-9q0 -45 31 -81.5t85.5 -57.5t123.5 -21q77 0 134.5 26.5t89 75t31.5 113.5h-320v26h320q0 65 -31.5 113.5t-89 75t-134.5 26.5q-68 0 -123 -21
t-86 -57.5t-31 -82.5v-8h-29v8q0 53 35 95.5t96.5 67t137.5 24.5q86 0 150 -30z" />
    <glyph glyph-name="uni044E" unicode="&#x44e;" horiz-adv-x="928" 
d="M739 468.5q62 -29.5 95.5 -85t33.5 -129.5v-22q0 -73 -33.5 -128t-95.5 -84.5t-145 -29.5q-84 0 -146.5 29.5t-96.5 84t-34 127.5h-187v-231h-28v488h28v-231h187q0 74 34 128.5t96.5 83.5t146.5 29q83 0 145 -29.5zM839 254q0 100 -66 159t-179 59q-115 0 -181.5 -58.5
t-66.5 -159.5v-22q0 -100 67 -158t181 -58q74 0 129.5 26.5t85.5 75.5t30 114v22z" />
    <glyph glyph-name="uni044F" unicode="&#x44f;" horiz-adv-x="715" 
d="M614 0h-29v197h-212l-259 -197h-37v5l252 192h-69q-89 0 -137 37t-48 105v7q0 68 48 105t137 37h354v-488zM585 222v240h-323q-77 0 -117.5 -30t-40.5 -86v-7q0 -57 40.5 -87t117.5 -30h323z" />
    <glyph glyph-name="uni0450" unicode="&#x450;" horiz-adv-x="671" 
d="M89 235v-5q0 -65 31 -113.5t88 -74.5t133 -26q70 0 124.5 20t85.5 56.5t31 83.5h29q-1 -55 -35 -97.5t-95 -65.5t-140 -23q-85 0 -148.5 30t-98 84.5t-34.5 127.5v24q0 73 34.5 127.5t98 84.5t148.5 30q81 0 142.5 -29.5t94.5 -83.5t33 -126v-24h-522zM208.5 446
q-56.5 -26 -88 -74t-31.5 -112h493v1q0 97 -65 154t-176 57q-76 0 -132.5 -26zM134 689l406 -87v-27l-406 87v27z" />
    <glyph glyph-name="uni0451" unicode="&#x451;" horiz-adv-x="671" 
d="M89 235v-5q0 -65 31 -113.5t88 -74.5t133 -26q70 0 124.5 20t85.5 56.5t31 83.5h29q-1 -55 -35 -97.5t-95 -65.5t-140 -23q-85 0 -148.5 30t-98 84.5t-34.5 127.5v24q0 73 34.5 127.5t98 84.5t148.5 30q81 0 142.5 -29.5t94.5 -83.5t33 -126v-24h-522zM208.5 446
q-56.5 -26 -88 -74t-31.5 -112h493v1q0 97 -65 154t-176 57q-76 0 -132.5 -26zM190 605.5q-8 7.5 -8 18.5q0 12 7.5 19t19.5 7q11 0 18.5 -7t7.5 -19q0 -11 -7.5 -18.5t-18.5 -7.5t-19 7.5zM446 606q-8 8 -8 18q0 12 7.5 19t18.5 7q12 0 19.5 -7t7.5 -19q0 -11 -7.5 -18.5
t-19.5 -7.5q-10 0 -18 8z" />
    <glyph glyph-name="uni0452" unicode="&#x452;" horiz-adv-x="737" 
d="M578 433q65 -61 65 -177v-179q0 -247 -244 -247h-52v26h50q110 0 164 54.5t54 165.5v180q0 102 -58.5 156.5t-169.5 54.5q-71 0 -134 -32t-97 -85v-350h-28v608h-130v26h130v62h28v-62h256v-26h-256v-219q40 49 102 77t131 28q124 0 189 -61z" />
    <glyph glyph-name="uni0453" unicode="&#x453;" horiz-adv-x="513" 
d="M503 488v-26h-373v-462h-28v488h401zM507 688v-26l-406 -87v27z" />
    <glyph glyph-name="uni0454" unicode="&#x454;" horiz-adv-x="670" 
d="M584 303v8q0 46 -31 82.5t-86 57.5t-123 21q-77 0 -134.5 -26.5t-89 -75t-31.5 -113.5h320v-26h-320q0 -65 31.5 -113.5t89 -75t134.5 -26.5q69 0 123.5 21t85.5 57.5t31 81.5v9h29v-9q0 -53 -35 -95.5t-96.5 -66.5t-137.5 -24q-86 0 -150 30t-99 84.5t-35 127.5v24
q0 73 35 127.5t99 84.5t150 30q76 0 137.5 -24.5t96.5 -67t35 -95.5v-8h-29z" />
    <glyph glyph-name="uni0455" unicode="&#x455;" horiz-adv-x="688" 
d="M205.5 8q-61.5 18 -95.5 51.5t-34 77.5v7h28v-7q0 -56 66 -88.5t179 -32.5q109 0 171.5 29t62.5 79v10q0 43 -45 66t-149 32l-96 9q-101 9 -147 37t-46 80v10q0 61 65.5 95.5t180.5 34.5q78 0 138.5 -18.5t94 -52t33.5 -76.5v-7h-29v7q0 36 -30 63.5t-83.5 42.5
t-123.5 15q-101 0 -159 -27.5t-58 -76.5v-9q0 -41 38.5 -63t126.5 -30l96 -9q118 -11 170 -39.5t52 -83.5v-10q0 -62 -71 -98t-193 -36q-81 0 -142.5 18z" />
    <glyph glyph-name="uni0456" unicode="&#x456;" horiz-adv-x="286" 
d="M157 488v-488h-28v488h28zM124 605.5q-8 7.5 -8 18.5q0 12 8 19.5t19 7.5q12 0 19.5 -7.5t7.5 -19.5q0 -11 -7.5 -18.5t-19.5 -7.5q-11 0 -19 7.5z" />
    <glyph glyph-name="uni0457" unicode="&#x457;" horiz-adv-x="336" 
d="M66.5 605q-7.5 7 -7.5 19t7.5 19t17.5 7q11 0 18 -7t7 -19t-7 -19t-18 -7q-10 0 -17.5 7zM234.5 605q-7.5 7 -7.5 19t7.5 19t17.5 7t17.5 -7t7.5 -19t-7.5 -19t-17.5 -7t-17.5 7zM182 488v-488h-28v488h28z" />
    <glyph glyph-name="uni0458" unicode="&#x458;" horiz-adv-x="286" 
d="M16 -144q113 0 113 120v512h28v-512q0 -71 -36 -108.5t-104 -37.5h-118v26h117zM124 605.5q-8 7.5 -8 18.5q0 12 8 19.5t19 7.5q12 0 19.5 -7.5t7.5 -19.5q0 -11 -7.5 -18.5t-19.5 -7.5q-11 0 -19 7.5z" />
    <glyph glyph-name="uni0459" unicode="&#x459;" horiz-adv-x="1100" 
d="M992.5 263q43.5 -39 43.5 -105v-14q0 -65 -44 -104.5t-128 -39.5h-323v462h-359l-5 -245q-2 -115 -36.5 -166t-110.5 -51h-29v26h24q65 0 93.5 44t30.5 148l5 270h415v-186h295q85 0 128.5 -39zM1007 158q0 54 -36 86t-109 32h-293v-250h293q73 0 109 32t36 86v14z" />
    <glyph glyph-name="uni045A" unicode="&#x45a;" horiz-adv-x="1107" 
d="M130 488v-220h443v220h28v-219h271q81 0 126 -31.5t45 -89.5v-14q0 -62 -46 -98t-125 -36h-299v242h-443v-242h-28v488h28zM976.5 54q37.5 28 37.5 80v14q0 47 -36.5 71.5t-106.5 24.5h-270v-218h270q68 0 105.5 28z" />
    <glyph glyph-name="uni045B" unicode="&#x45b;" horiz-adv-x="737" 
d="M578 433q65 -61 65 -177v-256h-28v256q0 103 -59 157t-169 54q-71 0 -134.5 -32.5t-96.5 -84.5v-350h-28v608h-130v26h130v62h28v-62h256v-26h-256v-219q40 49 102 77t131 28q124 0 189 -61z" />
    <glyph glyph-name="uni045C" unicode="&#x45c;" horiz-adv-x="687" 
d="M634 5v-5h-32l-290 232h-182v-232h-28v488h28v-231h182l275 231h33v-5l-282 -238zM538 688v-26l-406 -87v27z" />
    <glyph glyph-name="uni045D" unicode="&#x45d;" horiz-adv-x="713" 
d="M129 488v-452l456 452h27v-488h-28v452l-456 -452h-26v488h27zM154 689l406 -87v-27l-406 87v27z" />
    <glyph glyph-name="uni045E" unicode="&#x45e;" horiz-adv-x="697" 
d="M634 488v-5l-308 -556q-20 -37 -40 -57.5t-49.5 -30t-76.5 -9.5h-65v26h64q56 0 85 17t55 64l33 59l-269 487v5h29l257 -463l256 463h29zM197.5 602.5q-51.5 26.5 -51.5 78.5v3h27v-3q0 -40 44.5 -60t131.5 -20q86 0 130.5 20t44.5 60v3h28v-3q0 -52 -51.5 -78.5
t-151.5 -26.5t-151.5 26.5z" />
    <glyph glyph-name="uni045F" unicode="&#x45f;" horiz-adv-x="698" 
d="M597 0h-235v-128h-26v128h-234v488h28v-462h438v462h29v-488z" />
    <glyph glyph-name="uni0462" unicode="&#x462;" horiz-adv-x="893" 
d="M795.5 301q57.5 -43 57.5 -121v-14q0 -78 -58 -122t-162 -44h-377v530h-246v27h246v100h29v-100h343v-27h-343v-186h348q105 0 162.5 -43zM824 180q0 66 -49.5 101.5t-141.5 35.5h-348v-290h348q92 0 141.5 36t49.5 103v14z" />
    <glyph glyph-name="uni0463" unicode="&#x463;" horiz-adv-x="815" 
d="M708 248.5q43 -37.5 43 -98.5v-14q0 -60 -43.5 -98t-124.5 -38h-370v462h-202v26h202v208h28v-208h303v-26h-303v-176h342q82 0 125 -37.5zM722 150q0 50 -34.5 80t-105.5 30h-341v-234h341q70 0 105 30.5t35 79.5v14z" />
    <glyph glyph-name="uni0472" unicode="&#x472;" horiz-adv-x="877" 
d="M624.5 625.5q79.5 -40.5 123 -114.5t43.5 -174v-19q0 -100 -43 -174t-123 -114t-187 -40t-186.5 40t-123 114t-43.5 174v19q0 100 43 174.5t123 114.5t187 40t186.5 -40.5zM266 602q-73 -37 -112 -105t-39 -160v-1q89 20 161 20q48 0 93.5 -6t55.5 -7q96 -15 170 -15
q73 0 167 15q-1 90 -41 157t-112.5 103t-170.5 36q-99 0 -172 -37zM609 54q73 37 113 104.5t40 158.5q-92 -16 -168 -16q-74 0 -170 15q-9 1 -55.5 7t-94.5 6q-70 0 -159 -20q2 -89 42 -155t112 -101.5t169 -35.5q98 0 171 37z" />
    <glyph glyph-name="uni0473" unicode="&#x473;" horiz-adv-x="685" 
d="M493.5 468.5q63.5 -29.5 97.5 -85t34 -129.5v-22q0 -73 -34.5 -128t-98 -84.5t-148.5 -29.5q-87 0 -151 29.5t-98.5 84.5t-34.5 128v22q0 75 34.5 130t98.5 84.5t151 29.5q86 0 149.5 -29.5zM157.5 413.5q-68.5 -58.5 -68.5 -159.5v-2q61 15 125 15q36 0 72.5 -4t45.5 -5
q75 -11 136 -11q53 0 128 11q-2 99 -69.5 156.5t-182.5 57.5q-118 0 -186.5 -58.5zM478 42.5q57 26.5 87.5 75t30.5 114.5v2q-73 -12 -129 -12q-61 0 -136 11q-9 1 -45.5 5t-72.5 4q-61 0 -124 -14q1 -98 70 -155t185 -57q77 0 134 26.5z" />
    <glyph glyph-name="uni0474" unicode="&#x474;" horiz-adv-x="793" 
d="M783 656v-27h-38q-38 0 -59 -17t-44 -67l-248 -545h-35l-326 650v6h29l314 -630l239 529q26 58 53 79.5t74 21.5h41z" />
    <glyph glyph-name="uni0475" unicode="&#x475;" horiz-adv-x="705" 
d="M695 488v-26h-34q-32 0 -51 -14.5t-42 -57.5l-205 -390h-36l-264 483v5h28l253 -463l200 379q26 50 49.5 67t64.5 17h37z" />
    <glyph glyph-name="uni0490" unicode="&#x490;" horiz-adv-x="627" 
d="M577 656v133h30v-160h-466v-629h-29v656h465z" />
    <glyph glyph-name="uni0491" unicode="&#x491;" horiz-adv-x="513" 
d="M454 488v128h29v-154h-353v-462h-28v488h352z" />
    <glyph glyph-name="uni0492" unicode="&#x492;" horiz-adv-x="710" 
d="M174 629v-296h376v-26h-376v-307h-29v307h-130v26h130v323h555v-27h-526z" />
    <glyph glyph-name="uni0493" unicode="&#x493;" horiz-adv-x="603" 
d="M173 462v-229h244v-25h-244v-208h-28v208h-130v25h130v255h401v-26h-373z" />
    <glyph glyph-name="uni0494" unicode="&#x494;" horiz-adv-x="790" 
d="M638 318q72 -60 72 -175v-77q0 -116 -73.5 -176t-216.5 -60h-65v28h64q262 0 262 209v75q0 103 -65 156t-191 53q-62 0 -137 -9.5t-147 -25.5v-316h-29v656h548v-27h-519v-285q69 16 145 25t142 9q138 0 210 -60z" />
    <glyph glyph-name="uni0495" unicode="&#x495;" horiz-adv-x="696" 
d="M591 83v-68q0 -90 -52.5 -137.5t-150.5 -47.5h-55v26h53q87 0 131.5 40.5t44.5 119.5v66q0 80 -48 120t-145 40q-104 0 -239 -33v-209h-28v488h456v-26h-428v-225q57 15 120 23t121 8q220 0 220 -185z" />
    <glyph glyph-name="uni0496" unicode="&#x496;" horiz-adv-x="1236" 
d="M1190 27v-160h-29v133h-87l-263 315h-167v-315h-30v315h-169l-323 -315h-34v6l330 323l-334 321v6h35l326 -314h169v314h30v-314h168l326 314h35v-6l-334 -321l251 -302h100z" />
    <glyph glyph-name="uni0497" unicode="&#x497;" horiz-adv-x="1049" 
d="M1024 26v-154h-28v128h-87l-242 232h-151v-232h-28v232h-150l-260 -232h-32v5l265 240l-251 238v5h33l244 -230h151v230h28v-230h152l243 230h33v-5l-251 -239l226 -218h105z" />
    <glyph glyph-name="uni0498" unicode="&#x498;" horiz-adv-x="833" 
d="M731 279q40 -37 40 -95v-14q0 -88 -87.5 -134t-257.5 -46q-344 0 -344 251v12h29v-12q0 -114 77.5 -169t238.5 -55q156 0 235.5 39t79.5 115v13q0 64 -58.5 97.5t-171.5 33.5h-204v27h195q220 0 220 132v14q0 151 -292 151q-159 0 -239 -56.5t-80 -168.5v-11h-30v11
q0 124 89 188t260 64q159 0 240.5 -45t81.5 -132v-14q0 -56 -35.5 -93t-103.5 -52q77 -14 117 -51zM447 4v-147h-29v147h29z" />
    <glyph glyph-name="uni0499" unicode="&#x499;" horiz-adv-x="684" 
d="M586 208q28 -28 28 -69v-9q0 -71 -67.5 -105.5t-206.5 -34.5q-134 0 -204 48t-70 140v7h29v-7q0 -80 62 -121t183 -41q128 0 186.5 27.5t58.5 87.5v9q0 44 -38 68.5t-106 24.5h-190v26h178q68 0 106 25t38 71v9q0 55 -57.5 81.5t-177.5 26.5q-121 0 -182 -41t-61 -121v-7
h-29v7q0 91 70 139.5t203 48.5q131 0 197 -33.5t66 -99.5v-10q0 -39 -25 -66.5t-70 -41.5q51 -11 79 -39zM359 4v-147h-29v147h29z" />
    <glyph glyph-name="uni049A" unicode="&#x49a;" horiz-adv-x="792" 
d="M746 27v-160h-29v133h-89l-290 315h-197v-315h-29v656h29v-314h198l345 314h35v-6l-354 -321l277 -302h104z" />
    <glyph glyph-name="uni049B" unicode="&#x49b;" horiz-adv-x="717" 
d="M694 26v-154h-28v128h-79l-275 232h-182v-232h-28v488h28v-231h183l275 231h34v-5l-283 -238l257 -219h98z" />
    <glyph glyph-name="uni049C" unicode="&#x49c;" horiz-adv-x="843" 
d="M759 650l-351 -321l347 -323v-6h-33l-339 315h-66v-176h-28v176h-148v-315h-29v656h29v-314h148v178h28v-178h65l342 314h35v-6z" />
    <glyph glyph-name="uni049D" unicode="&#x49d;" horiz-adv-x="754" 
d="M701 6v-6h-32l-289 231h-71v-152h-27v152h-152v-231h-28v488h28v-231h152v149h27v-149h70l275 231h33v-5l-282 -238z" />
    <glyph glyph-name="uni04A0" unicode="&#x4a0;" horiz-adv-x="1034" 
d="M950 650l-353 -321l349 -323v-6h-34l-340 315h-200v-315h-29v629h-332v27h361v-314h199l344 314h35v-6z" />
    <glyph glyph-name="uni04A1" unicode="&#x4a1;" horiz-adv-x="865" 
d="M819 5v-5h-32l-290 232h-182v-232h-28v462h-276v26h304v-231h182l275 231h33v-5l-282 -238z" />
    <glyph glyph-name="uni04A2" unicode="&#x4a2;" horiz-adv-x="870" 
d="M812 27v-160h-29v133h-105v315h-537v-315h-29v656h29v-314h537v314h29v-629h105z" />
    <glyph glyph-name="uni04A3" unicode="&#x4a3;" horiz-adv-x="754" 
d="M729 26v-154h-28v128h-104v231h-467v-231h-28v488h28v-231h467v231h29v-462h103z" />
    <glyph glyph-name="uni04A4" unicode="&#x4a4;" horiz-adv-x="1080" 
d="M141 656v-314h508v314h421v-27h-392v-629h-29v315h-508v-315h-29v656h29z" />
    <glyph glyph-name="uni04A5" unicode="&#x4a5;" horiz-adv-x="923" 
d="M130 488v-231h429v231h354v-26h-325v-462h-29v231h-429v-231h-28v488h28z" />
    <glyph glyph-name="uni04AA" unicode="&#x4aa;" horiz-adv-x="874" 
d="M254.5 29.5q-81.5 39.5 -125.5 113t-44 172.5v25q0 99 44 172.5t125.5 113.5t191.5 40q95 0 172.5 -33t122.5 -91t45 -128v-11h-30v11q0 63 -40.5 114.5t-111.5 81t-158 29.5q-103 0 -177.5 -36t-114 -103.5t-39.5 -159.5v-25q0 -92 39.5 -159.5t114 -103t177.5 -35.5
q87 0 158 29.5t111.5 80.5t40.5 114v13h30v-13q0 -70 -45 -127.5t-122.5 -90.5t-172.5 -33q-110 0 -191.5 39.5zM467 4v-147h-29v147h29z" />
    <glyph glyph-name="uni04AB" unicode="&#x4ab;" horiz-adv-x="670" 
d="M194 20q-64 30 -99 84.5t-35 127.5v22q0 74 35 129t99 85t150 30q76 0 137.5 -25.5t96.5 -70t35 -99.5v-7h-29v7q0 48 -31 86.5t-86 60.5t-123 22q-77 0 -135 -26.5t-89 -76t-31 -115.5v-22q0 -65 31 -114t89 -75.5t135 -26.5q68 0 123 22t86 60.5t31 85.5v7h29v-7
q0 -55 -35 -99t-96.5 -69.5t-137.5 -25.5q-86 0 -150 30zM347 4v-147h-29v147h29z" />
    <glyph glyph-name="uni04AE" unicode="&#x4ae;" horiz-adv-x="726" 
d="M707 650l-329 -357v-293h-29v293l-330 357v6h32l312 -337l313 337h31v-6z" />
    <glyph glyph-name="uni04AF" unicode="&#x4af;" horiz-adv-x="695" 
d="M633 483l-271 -489v-164h-28v164l-272 489v5h29l257 -462l257 462h28v-5z" />
    <glyph glyph-name="uni04B0" unicode="&#x4b0;" horiz-adv-x="726" 
d="M707 650l-313 -339h219v-27h-235v-284h-29v284h-235v27h218l-313 339v6h32l312 -337l313 337h31v-6z" />
    <glyph glyph-name="uni04B1" unicode="&#x4b1;" horiz-adv-x="695" 
d="M633 483l-256 -457h220v-26h-235v-170h-28v170h-236v26h221l-257 457v5h29l257 -459l257 459h28v-5z" />
    <glyph glyph-name="uni04B2" unicode="&#x4b2;" horiz-adv-x="812" 
d="M765 27v-160h-29v133h-80l-258 298l-278 -298h-36v6l293 311l-293 333v6h35l281 -320l301 320h34v-6l-315 -333l253 -290h92z" />
    <glyph glyph-name="uni04B3" unicode="&#x4b3;" horiz-adv-x="676" 
d="M651 26v-154h-28v128h-78l-224 223l-235 -223h-33v5l247 235l-243 243v5h33l231 -231l245 231h32v-5l-257 -242l216 -215h94z" />
    <glyph glyph-name="uni04B6" unicode="&#x4b6;" horiz-adv-x="850" 
d="M792 27v-160h-29v133h-105v272q-68 -16 -143.5 -24.5t-139.5 -8.5q-283 0 -283 229v188h29v-187q0 -102 63.5 -152t192.5 -50q61 0 136 9t145 25v355h29v-629h105z" />
    <glyph glyph-name="uni04B7" unicode="&#x4b7;" horiz-adv-x="732" 
d="M679 26v-154h-28v128h-104v198q-58 -15 -121.5 -23.5t-119.5 -8.5q-108 0 -164 43.5t-56 126.5v152h29v-150q0 -71 49 -108t144 -37q54 0 117 8.5t122 23.5v263h29v-462h103z" />
    <glyph glyph-name="uni04B8" unicode="&#x4b8;" horiz-adv-x="799" 
d="M687 656v-656h-29v273q-124 -27 -246 -32v-132h-28v131h-17q-140 0 -207.5 56t-67.5 172v188h29v-187q0 -104 60 -153t187 -49h16v222h28v-221q113 5 246 33v355h29z" />
    <glyph glyph-name="uni04B9" unicode="&#x4b9;" horiz-adv-x="677" 
d="M576 488v-488h-29v198q-102 -25 -202 -30v-117h-27v116h-12q-108 0 -164 43t-56 126v152h29v-150q0 -71 49.5 -108t143.5 -37h10v188h27v-187q97 5 202 32v262h29z" />
    <glyph glyph-name="uni04BA" unicode="&#x4ba;" horiz-adv-x="799" 
d="M707 188v-188h-29v187q0 102 -63.5 152t-192.5 50q-61 0 -136 -8.5t-145 -24.5v-356h-29v656h29v-272q68 16 143.5 24.5t139.5 8.5q283 0 283 -229z" />
    <glyph glyph-name="uni04BB" unicode="&#x4bb;" horiz-adv-x="711" 
d="M552 437q65 -61 65 -176v-261h-28v261q0 103 -59 157t-169 54q-71 0 -134.5 -32.5t-96.5 -84.5v-355h-28v696h28v-303q40 49 102 77t131 28q124 0 189 -61z" />
    <glyph glyph-name="uni04C0" unicode="&#x4c0;" horiz-adv-x="299" 
d="M164 656v-656h-29v656h29z" />
    <glyph glyph-name="uni04C1" unicode="&#x4c1;" horiz-adv-x="1257" 
d="M1173 650l-332 -321l328 -323v-6h-33l-322 315h-170v-315h-30v315h-171l-321 -315h-34v6l328 323l-332 321v6h35l325 -314h170v314h30v-314h169l325 314h35v-6zM477.5 770.5q-51.5 26.5 -51.5 78.5v3h27v-3q0 -40 44.5 -60t131.5 -20q86 0 130.5 20t44.5 60v3h28v-3
q0 -52 -51.5 -78.5t-151.5 -26.5t-151.5 26.5z" />
    <glyph glyph-name="uni04C2" unicode="&#x4c2;" horiz-adv-x="1018" 
d="M965 5v-5h-32l-258 231h-152v-231h-28v231h-151l-259 -231h-32v5l265 240l-251 238v5h33l245 -231h150v231h28v-231h150l245 231h33v-5l-251 -238zM357.5 602.5q-51.5 26.5 -51.5 78.5v3h27v-3q0 -40 44.5 -60t131.5 -20q86 0 130.5 20t44.5 60v3h28v-3
q0 -52 -51.5 -78.5t-151.5 -26.5t-151.5 26.5z" />
    <glyph glyph-name="uni04CF" unicode="&#x4cf;" horiz-adv-x="286" 
d="M157 696v-696h-28v696h28z" />
    <glyph glyph-name="uni04D0" unicode="&#x4d0;" horiz-adv-x="770" 
d="M737 6v-6h-30l-109 211h-426l-109 -211h-30v6l336 650h33zM584 238l-199 387l-199 -387h398zM233.5 770.5q-51.5 26.5 -51.5 78.5v3h27v-3q0 -40 44.5 -60t131.5 -20q86 0 130.5 20t44.5 60v3h28v-3q0 -52 -51.5 -78.5t-151.5 -26.5t-151.5 26.5z" />
    <glyph glyph-name="uni04D1" unicode="&#x4d1;" horiz-adv-x="716" 
d="M715 26v-26h-48q-51 0 -80 26.5t-29 72.5v1q-44 -54 -112 -82t-156 -28q-208 0 -208 126q0 59 45 91t140 42l291 30v19q0 84 -57.5 128.5t-165.5 44.5q-65 0 -115.5 -19.5t-79 -54t-28.5 -78.5v-9h-28v9q0 52 32 92.5t89 63.5t130 23q119 0 185 -52.5t66 -147.5v-195
q0 -36 22.5 -56.5t62.5 -20.5h44zM450 48q71 32 108 89v117l-287 -29q-83 -8 -122 -35t-39 -74q0 -100 179 -100q90 0 161 32zM184.5 602.5q-51.5 26.5 -51.5 78.5v3h27v-3q0 -40 44.5 -60t131.5 -20q86 0 130.5 20t44.5 60v3h28v-3q0 -52 -51.5 -78.5t-151.5 -26.5
t-151.5 26.5z" />
    <glyph glyph-name="uni04D2" unicode="&#x4d2;" horiz-adv-x="770" 
d="M737 6v-6h-30l-109 211h-426l-109 -211h-30v6l336 650h33zM584 238l-199 387l-199 -387h398zM238 773.5q-8 7.5 -8 18.5q0 12 7.5 19t19.5 7q11 0 18.5 -7t7.5 -19q0 -11 -7.5 -18.5t-18.5 -7.5t-19 7.5zM494 774q-8 8 -8 18q0 12 7.5 19t18.5 7q12 0 19.5 -7t7.5 -19
q0 -11 -7.5 -18.5t-19.5 -7.5q-10 0 -18 8z" />
    <glyph glyph-name="uni04D3" unicode="&#x4d3;" horiz-adv-x="716" 
d="M715 26v-26h-48q-51 0 -80 26.5t-29 72.5v1q-44 -54 -112 -82t-156 -28q-208 0 -208 126q0 59 45 91t140 42l291 30v19q0 84 -57.5 128.5t-165.5 44.5q-65 0 -115.5 -19.5t-79 -54t-28.5 -78.5v-9h-28v9q0 52 32 92.5t89 63.5t130 23q119 0 185 -52.5t66 -147.5v-195
q0 -36 22.5 -56.5t62.5 -20.5h44zM450 48q71 32 108 89v117l-287 -29q-83 -8 -122 -35t-39 -74q0 -100 179 -100q90 0 161 32zM189 605.5q-8 7.5 -8 18.5q0 12 7.5 19t19.5 7q11 0 18.5 -7t7.5 -19q0 -11 -7.5 -18.5t-18.5 -7.5t-19 7.5zM445 606q-8 8 -8 18q0 12 7.5 19
t18.5 7q12 0 19.5 -7t7.5 -19q0 -11 -7.5 -18.5t-19.5 -7.5q-10 0 -18 8z" />
    <glyph glyph-name="uni04D4" unicode="&#x4d4;" horiz-adv-x="1072" 
d="M457 629l73 -287h434v-27h-427l74 -288h373v-27h-396l-54 211h-363l-108 -211h-30v6l336 650h615v-27h-527zM428 629h-42l-201 -391h342z" />
    <glyph glyph-name="uni04D5" unicode="&#x4d5;" horiz-adv-x="1098" 
d="M560 241v-11q0 -99 63 -156.5t171 -57.5q62 0 111 20.5t76.5 57t27.5 82.5h29q-1 -54 -32 -96.5t-85.5 -66t-124.5 -23.5q-86 0 -147.5 33t-91.5 93q-43 -65 -108 -95.5t-159 -30.5q-208 0 -208 125q0 59 45 90.5t140 39.5l265 22v15q0 189 -207 189q-62 0 -110.5 -19
t-75 -53.5t-26.5 -79.5v-9h-29v9q0 53 30.5 93.5t85.5 63t126 22.5q191 0 225 -146q25 67 90.5 106.5t153.5 39.5q72 0 127.5 -29.5t85.5 -83.5t30 -126v-18h-478zM626 416q-64 -56 -66 -151h449q-2 95 -59.5 151t-154.5 56q-105 0 -169 -56zM547 141q-15 41 -15 91v10
l-259 -21q-85 -7 -124 -32t-39 -73q0 -100 178 -100q182 0 259 125z" />
    <glyph glyph-name="uni04D6" unicode="&#x4d6;" horiz-adv-x="723" 
d="M635 656v-27h-494v-287h474v-27h-474v-288h494v-27h-523v656h523zM221.5 770.5q-51.5 26.5 -51.5 78.5v3h27v-3q0 -40 44.5 -60t131.5 -20q86 0 130.5 20t44.5 60v3h28v-3q0 -52 -51.5 -78.5t-151.5 -26.5t-151.5 26.5z" />
    <glyph glyph-name="uni04D7" unicode="&#x4d7;" horiz-adv-x="671" 
d="M89 235v-5q0 -65 31 -113.5t88 -74.5t133 -26q70 0 124.5 20t85.5 56.5t31 83.5h29q-1 -55 -35 -97.5t-95 -65.5t-140 -23q-85 0 -148.5 30t-98 84.5t-34.5 127.5v24q0 73 34.5 127.5t98 84.5t148.5 30q81 0 142.5 -29.5t94.5 -83.5t33 -126v-24h-522zM208.5 446
q-56.5 -26 -88 -74t-31.5 -112h493v1q0 97 -65 154t-176 57q-76 0 -132.5 -26zM185.5 602.5q-51.5 26.5 -51.5 78.5v3h27v-3q0 -40 44.5 -60t131.5 -20q86 0 130.5 20t44.5 60v3h28v-3q0 -52 -51.5 -78.5t-151.5 -26.5t-151.5 26.5z" />
    <glyph glyph-name="uni04D8" unicode="&#x4d8;" horiz-adv-x="877" 
d="M624 625.5q80 -40.5 123.5 -114.5t43.5 -174v-19q0 -100 -43 -174t-123 -114t-187 -40q-108 0 -187.5 40t-122.5 115t-43 176v18h677q0 91 -40 159t-113.5 104.5t-171.5 36.5q-87 0 -155.5 -27t-110.5 -76.5t-51 -115.5h-31q10 75 55.5 130.5t121 85.5t171.5 30
q107 0 187 -40.5zM607.5 53q72.5 36 113 102.5t41.5 156.5h-647q1 -90 40.5 -156.5t112 -102.5t169.5 -36q98 0 170.5 36z" />
    <glyph glyph-name="uni04D9" unicode="&#x4d9;" horiz-adv-x="671" 
d="M478.5 468q63.5 -30 98 -84.5t34.5 -127.5v-23q0 -73 -34.5 -128t-98 -85t-148.5 -30q-81 0 -142 29.5t-94.5 83.5t-33.5 126v24h522v5q0 65 -31 113.5t-88 74.5t-133 26q-70 0 -124.5 -20t-85 -56.5t-30.5 -83.5h-30q1 55 35 97.5t95 65.5t140 23q85 0 148.5 -30z
M463 42q57 26 88 74t31 112h-493q0 -64 29.5 -112t84.5 -74t128 -26q75 0 132 26z" />
    <glyph glyph-name="uni04DA" unicode="&#x4da;" horiz-adv-x="877" 
d="M624 625.5q80 -40.5 123.5 -114.5t43.5 -174v-19q0 -100 -43 -174t-123 -114t-187 -40q-108 0 -187.5 40t-122.5 115t-43 176v18h677q0 91 -40 159t-113.5 104.5t-171.5 36.5q-87 0 -155.5 -27t-110.5 -76.5t-51 -115.5h-31q10 75 55.5 130.5t121 85.5t171.5 30
q107 0 187 -40.5zM607.5 53q72.5 36 113 102.5t41.5 156.5h-647q1 -90 40.5 -156.5t112 -102.5t169.5 -36q98 0 170.5 36zM292 773.5q-8 7.5 -8 18.5q0 12 7.5 19t19.5 7q11 0 18.5 -7t7.5 -19q0 -11 -7.5 -18.5t-18.5 -7.5t-19 7.5zM548 774q-8 8 -8 18q0 12 7.5 19t18.5 7
q12 0 19.5 -7t7.5 -19q0 -11 -7.5 -18.5t-19.5 -7.5q-10 0 -18 8z" />
    <glyph glyph-name="uni04DB" unicode="&#x4db;" horiz-adv-x="671" 
d="M478.5 468q63.5 -30 98 -84.5t34.5 -127.5v-23q0 -73 -34.5 -128t-98 -85t-148.5 -30q-81 0 -142 29.5t-94.5 83.5t-33.5 126v24h522v5q0 65 -31 113.5t-88 74.5t-133 26q-70 0 -124.5 -20t-85 -56.5t-30.5 -83.5h-30q1 55 35 97.5t95 65.5t140 23q85 0 148.5 -30z
M463 42q57 26 88 74t31 112h-493q0 -64 29.5 -112t84.5 -74t128 -26q75 0 132 26zM187 605.5q-8 7.5 -8 18.5q0 12 7.5 19t19.5 7q11 0 18.5 -7t7.5 -19q0 -11 -7.5 -18.5t-18.5 -7.5t-19 7.5zM443 606q-8 8 -8 18q0 12 7.5 19t18.5 7q12 0 19.5 -7t7.5 -19
q0 -11 -7.5 -18.5t-19.5 -7.5q-10 0 -18 8z" />
    <glyph glyph-name="uni04DC" unicode="&#x4dc;" horiz-adv-x="1257" 
d="M1173 650l-332 -321l328 -323v-6h-33l-322 315h-170v-315h-30v315h-171l-321 -315h-34v6l328 323l-332 321v6h35l325 -314h170v314h30v-314h169l325 314h35v-6zM482 773.5q-8 7.5 -8 18.5q0 12 7.5 19t19.5 7q11 0 18.5 -7t7.5 -19q0 -11 -7.5 -18.5t-18.5 -7.5t-19 7.5z
M738 774q-8 8 -8 18q0 12 7.5 19t18.5 7q12 0 19.5 -7t7.5 -19q0 -11 -7.5 -18.5t-19.5 -7.5q-10 0 -18 8z" />
    <glyph glyph-name="uni04DD" unicode="&#x4dd;" horiz-adv-x="1018" 
d="M965 5v-5h-32l-258 231h-152v-231h-28v231h-151l-259 -231h-32v5l265 240l-251 238v5h33l245 -231h150v231h28v-231h150l245 231h33v-5l-251 -238zM362 605.5q-8 7.5 -8 18.5q0 12 7.5 19t19.5 7q11 0 18.5 -7t7.5 -19q0 -11 -7.5 -18.5t-18.5 -7.5t-19 7.5zM618 606
q-8 8 -8 18q0 12 7.5 19t18.5 7q12 0 19.5 -7t7.5 -19q0 -11 -7.5 -18.5t-19.5 -7.5q-10 0 -18 8z" />
    <glyph glyph-name="uni04DE" unicode="&#x4de;" horiz-adv-x="833" 
d="M731 279q40 -37 40 -95v-14q0 -88 -87.5 -134t-257.5 -46q-344 0 -344 251v12h29v-12q0 -114 77.5 -169t238.5 -55q156 0 235.5 39t79.5 115v13q0 64 -58.5 97.5t-171.5 33.5h-204v27h195q220 0 220 132v14q0 151 -292 151q-159 0 -239 -56.5t-80 -168.5v-11h-30v11
q0 124 89 188t260 64q159 0 240.5 -45t81.5 -132v-14q0 -56 -35.5 -93t-103.5 -52q77 -14 117 -51zM285 773.5q-8 7.5 -8 18.5q0 12 7.5 19t19.5 7q11 0 18.5 -7t7.5 -19q0 -11 -7.5 -18.5t-18.5 -7.5t-19 7.5zM541 774q-8 8 -8 18q0 12 7.5 19t18.5 7q12 0 19.5 -7t7.5 -19
q0 -11 -7.5 -18.5t-19.5 -7.5q-10 0 -18 8z" />
    <glyph glyph-name="uni04DF" unicode="&#x4df;" horiz-adv-x="684" 
d="M586 208q28 -28 28 -69v-9q0 -71 -67.5 -105.5t-206.5 -34.5q-134 0 -204 48t-70 140v7h29v-7q0 -80 62 -121t183 -41q128 0 186.5 27.5t58.5 87.5v9q0 44 -38 68.5t-106 24.5h-190v26h178q68 0 106 25t38 71v9q0 55 -57.5 81.5t-177.5 26.5q-121 0 -182 -41t-61 -121v-7
h-29v7q0 91 70 139.5t203 48.5q131 0 197 -33.5t66 -99.5v-10q0 -39 -25 -66.5t-70 -41.5q51 -11 79 -39zM198 605.5q-8 7.5 -8 18.5q0 12 7.5 19t19.5 7q11 0 18.5 -7t7.5 -19q0 -11 -7.5 -18.5t-18.5 -7.5t-19 7.5zM454 606q-8 8 -8 18q0 12 7.5 19t18.5 7q12 0 19.5 -7
t7.5 -19q0 -11 -7.5 -18.5t-19.5 -7.5q-10 0 -18 8z" />
    <glyph glyph-name="uni04E2" unicode="&#x4e2;" horiz-adv-x="819" 
d="M141 656v-615l537 615h29v-656h-29v615l-537 -615h-29v656h29zM613 805v-25h-406v25h406z" />
    <glyph glyph-name="uni04E3" unicode="&#x4e3;" horiz-adv-x="713" 
d="M129 488v-452l456 452h27v-488h-28v452l-456 -452h-26v488h27zM560 637v-25h-406v25h406z" />
    <glyph glyph-name="uni04E4" unicode="&#x4e4;" horiz-adv-x="819" 
d="M141 656v-615l537 615h29v-656h-29v615l-537 -615h-29v656h29zM263 773.5q-8 7.5 -8 18.5q0 12 7.5 19t19.5 7q11 0 18.5 -7t7.5 -19q0 -11 -7.5 -18.5t-18.5 -7.5t-19 7.5zM519 774q-8 8 -8 18q0 12 7.5 19t18.5 7q12 0 19.5 -7t7.5 -19q0 -11 -7.5 -18.5t-19.5 -7.5
q-10 0 -18 8z" />
    <glyph glyph-name="uni04E5" unicode="&#x4e5;" horiz-adv-x="713" 
d="M129 488v-452l456 452h27v-488h-28v452l-456 -452h-26v488h27zM210 605.5q-8 7.5 -8 18.5q0 12 7.5 19t19.5 7q11 0 18.5 -7t7.5 -19q0 -11 -7.5 -18.5t-18.5 -7.5t-19 7.5zM466 606q-8 8 -8 18q0 12 7.5 19t18.5 7q12 0 19.5 -7t7.5 -19q0 -11 -7.5 -18.5t-19.5 -7.5
q-10 0 -18 8z" />
    <glyph glyph-name="uni04E6" unicode="&#x4e6;" horiz-adv-x="877" 
d="M251.5 30q-79.5 40 -123 114t-43.5 174v19q0 100 43 174.5t123 114.5t187 40t186.5 -40.5t123 -114.5t43.5 -174v-19q0 -100 -43 -174t-123 -114t-187 -40t-186.5 40zM610 53.5q73 36.5 112.5 104.5t39.5 160v19q0 92 -39.5 160t-112.5 105t-172 37t-172 -37t-112 -105
t-39 -160v-19q0 -92 39 -160t112 -104.5t172 -36.5t172 36.5zM291 773.5q-8 7.5 -8 18.5q0 12 7.5 19t19.5 7q11 0 18.5 -7t7.5 -19q0 -11 -7.5 -18.5t-18.5 -7.5t-19 7.5zM547 774q-8 8 -8 18q0 12 7.5 19t18.5 7q12 0 19.5 -7t7.5 -19q0 -11 -7.5 -18.5t-19.5 -7.5
q-10 0 -18 8z" />
    <glyph glyph-name="uni04E7" unicode="&#x4e7;" horiz-adv-x="685" 
d="M193.5 19.5q-64.5 29.5 -99 84t-34.5 128.5v22q0 75 34.5 130t99 84.5t150.5 29.5q85 0 148.5 -29.5t98 -85t34.5 -129.5v-22q0 -73 -34.5 -128t-98 -84.5t-148.5 -29.5q-86 0 -150.5 29.5zM478 42.5q57 26.5 87.5 75t30.5 114.5v22q0 100 -67.5 159t-184.5 59
q-119 0 -187 -58.5t-68 -159.5v-22q0 -100 69 -158t186 -58q77 0 134 26.5zM196 605.5q-8 7.5 -8 18.5q0 12 7.5 19t19.5 7q11 0 18.5 -7t7.5 -19q0 -11 -7.5 -18.5t-18.5 -7.5t-19 7.5zM452 606q-8 8 -8 18q0 12 7.5 19t18.5 7q12 0 19.5 -7t7.5 -19q0 -11 -7.5 -18.5
t-19.5 -7.5q-10 0 -18 8z" />
    <glyph glyph-name="uni04E8" unicode="&#x4e8;" horiz-adv-x="877" 
d="M624.5 625.5q79.5 -40.5 123 -114.5t43.5 -174v-19q0 -100 -43 -174t-123 -114t-187 -40t-186.5 40t-123 114t-43.5 174v19q0 100 43 174.5t123 114.5t187 40t186.5 -40.5zM267.5 603q-72.5 -36 -112 -103.5t-40.5 -157.5h647q-1 90 -41 157t-112.5 103.5t-170.5 36.5
t-170.5 -36zM608 53.5q73 36.5 113.5 104t40.5 157.5h-647q0 -91 39.5 -158t112.5 -103.5t171 -36.5q97 0 170 36.5z" />
    <glyph glyph-name="uni04E9" unicode="&#x4e9;" horiz-adv-x="685" 
d="M493.5 468.5q63.5 -29.5 97.5 -85t34 -129.5v-22q0 -73 -34.5 -128t-98 -84.5t-148.5 -29.5q-87 0 -151 29.5t-98.5 84.5t-34.5 128v22q0 75 34.5 130t98.5 84.5t151 29.5q86 0 149.5 -29.5zM158 414.5q-68 -57.5 -69 -157.5h507q-1 99 -69 157t-183 58
q-118 0 -186 -57.5zM478 42.5q57 26.5 87.5 75t30.5 114.5h-507q0 -100 68.5 -158t186.5 -58q77 0 134 26.5z" />
    <glyph glyph-name="uni04EE" unicode="&#x4ee;" horiz-adv-x="763" 
d="M731 656v-6l-325 -557q-31 -54 -66.5 -73.5t-101.5 -19.5h-77v27h77q57 0 85.5 15.5t55.5 60.5l14 24l-335 523v6h30l321 -502l292 502h30zM606 805v-25h-406v25h406z" />
    <glyph glyph-name="uni04EF" unicode="&#x4ef;" horiz-adv-x="697" 
d="M634 488v-5l-308 -556q-20 -37 -40 -57.5t-49.5 -30t-76.5 -9.5h-65v26h64q56 0 85 17t55 64l33 59l-269 487v5h29l257 -463l256 463h29zM552 637v-25h-406v25h406z" />
    <glyph glyph-name="uni04F0" unicode="&#x4f0;" horiz-adv-x="763" 
d="M731 656v-6l-325 -557q-31 -54 -66.5 -73.5t-101.5 -19.5h-77v27h77q57 0 85.5 15.5t55.5 60.5l14 24l-335 523v6h30l321 -502l292 502h30zM256 773.5q-8 7.5 -8 18.5q0 12 7.5 19t19.5 7q11 0 18.5 -7t7.5 -19q0 -11 -7.5 -18.5t-18.5 -7.5t-19 7.5zM512 774q-8 8 -8 18
q0 12 7.5 19t18.5 7q12 0 19.5 -7t7.5 -19q0 -11 -7.5 -18.5t-19.5 -7.5q-10 0 -18 8z" />
    <glyph glyph-name="uni04F1" unicode="&#x4f1;" horiz-adv-x="697" 
d="M634 488v-5l-308 -556q-20 -37 -40 -57.5t-49.5 -30t-76.5 -9.5h-65v26h64q56 0 85 17t55 64l33 59l-269 487v5h29l257 -463l256 463h29zM202 605.5q-8 7.5 -8 18.5q0 12 7.5 19t19.5 7q11 0 18.5 -7t7.5 -19q0 -11 -7.5 -18.5t-18.5 -7.5t-19 7.5zM458 606q-8 8 -8 18
q0 12 7.5 19t18.5 7q12 0 19.5 -7t7.5 -19q0 -11 -7.5 -18.5t-19.5 -7.5q-10 0 -18 8z" />
    <glyph glyph-name="uni04F2" unicode="&#x4f2;" horiz-adv-x="763" 
d="M731 656v-6l-325 -557q-31 -54 -66.5 -73.5t-101.5 -19.5h-77v27h77q57 0 85.5 15.5t55.5 60.5l14 24l-335 523v6h30l321 -502l292 502h30zM459 856v-28l-269 -85v28zM730 856v-28l-267 -85v28z" />
    <glyph glyph-name="uni04F3" unicode="&#x4f3;" horiz-adv-x="697" 
d="M634 488v-5l-308 -556q-20 -37 -40 -57.5t-49.5 -30t-76.5 -9.5h-65v26h64q56 0 85 17t55 64l33 59l-269 487v5h29l257 -463l256 463h29zM405 688v-28l-269 -85v28zM676 688v-28l-267 -85v28z" />
    <glyph glyph-name="uni04F4" unicode="&#x4f4;" horiz-adv-x="799" 
d="M687 656v-656h-29v272q-68 -16 -143.5 -24.5t-139.5 -8.5q-283 0 -283 229v188h29v-187q0 -102 63.5 -152t192.5 -50q61 0 136 9t145 25v355h29zM253 773.5q-8 7.5 -8 18.5q0 12 7.5 19t19.5 7q11 0 18.5 -7t7.5 -19q0 -11 -7.5 -18.5t-18.5 -7.5t-19 7.5zM509 774
q-8 8 -8 18q0 12 7.5 19t18.5 7q12 0 19.5 -7t7.5 -19q0 -11 -7.5 -18.5t-19.5 -7.5q-10 0 -18 8z" />
    <glyph glyph-name="uni04F5" unicode="&#x4f5;" horiz-adv-x="677" 
d="M576 488v-488h-29v198q-58 -15 -121.5 -23.5t-119.5 -8.5q-108 0 -164 43.5t-56 126.5v152h29v-150q0 -71 49 -108t144 -37q54 0 117 8.5t122 23.5v263h29zM183 605.5q-8 7.5 -8 18.5q0 12 7.5 19t19.5 7q11 0 18.5 -7t7.5 -19q0 -11 -7.5 -18.5t-18.5 -7.5t-19 7.5z
M439 606q-8 8 -8 18q0 12 7.5 19t18.5 7q12 0 19.5 -7t7.5 -19q0 -11 -7.5 -18.5t-19.5 -7.5q-10 0 -18 8z" />
    <glyph glyph-name="uni04F8" unicode="&#x4f8;" horiz-adv-x="1013" 
d="M150 656v-287h356q101 0 160 -47t59 -129v-18q0 -81 -59 -128t-160 -47h-385v656h29zM892 656v-656h-29v656h29zM645 66.5q51 39.5 51 108.5v18q0 70 -51 109.5t-140 39.5h-355v-315h355q89 0 140 39.5zM360 773.5q-8 7.5 -8 18.5q0 12 7.5 19t19.5 7q11 0 18.5 -7
t7.5 -19q0 -11 -7.5 -18.5t-18.5 -7.5t-19 7.5zM616 774q-8 8 -8 18q0 12 7.5 19t18.5 7q12 0 19.5 -7t7.5 -19q0 -11 -7.5 -18.5t-19.5 -7.5q-10 0 -18 8z" />
    <glyph glyph-name="uni04F9" unicode="&#x4f9;" horiz-adv-x="902" 
d="M611 263q44 -39 44 -105v-14q0 -65 -44 -104.5t-129 -39.5h-361v488h28v-186h333q85 0 129 -39zM782 488v-488h-29v488h29zM626 158q0 54 -36 86t-109 32h-332v-250h332q73 0 109 32t36 86v14zM304 605.5q-8 7.5 -8 18.5q0 12 7.5 19t19.5 7q11 0 18.5 -7t7.5 -19
q0 -11 -7.5 -18.5t-18.5 -7.5t-19 7.5zM560 606q-8 8 -8 18q0 12 7.5 19t18.5 7q12 0 19.5 -7t7.5 -19q0 -11 -7.5 -18.5t-19.5 -7.5q-10 0 -18 8z" />
    <glyph glyph-name="uni1E62" unicode="&#x1e62;" horiz-adv-x="771" 
d="M160 40.5q-78 50.5 -78 150.5v12h29v-12q0 -174 281 -174q132 0 199.5 37t67.5 109v9q0 44 -21 72t-67 44.5t-124 24.5l-126 13q-111 11 -165.5 50t-54.5 108v10q0 82 74 127t209 45q145 0 219 -50.5t74 -149.5v-11h-30v11q0 173 -263 173q-121 0 -187 -37.5t-66 -106.5
v-10q0 -58 47 -89.5t148 -42.5l126 -13q127 -13 182 -51.5t55 -115.5v-10q0 -85 -76 -129t-222 -44q-153 0 -231 50.5zM364 -155.5q-8 7.5 -8 19.5q0 11 8 18.5t19 7.5q12 0 19.5 -7.5t7.5 -18.5q0 -12 -7.5 -19.5t-19.5 -7.5q-11 0 -19 7.5z" />
    <glyph glyph-name="uni1E63" unicode="&#x1e63;" horiz-adv-x="688" 
d="M205.5 8q-61.5 18 -95.5 51.5t-34 77.5v7h28v-7q0 -56 66 -88.5t179 -32.5q109 0 171.5 29t62.5 79v10q0 43 -45 66t-149 32l-96 9q-101 9 -147 37t-46 80v10q0 61 65.5 95.5t180.5 34.5q78 0 138.5 -18.5t94 -52t33.5 -76.5v-7h-29v7q0 36 -30 63.5t-83.5 42.5
t-123.5 15q-101 0 -159 -27.5t-58 -76.5v-9q0 -41 38.5 -63t126.5 -30l96 -9q118 -11 170 -39.5t52 -83.5v-10q0 -62 -71 -98t-193 -36q-81 0 -142.5 18zM319 -155.5q-8 7.5 -8 19.5q0 11 8 18.5t19 7.5q12 0 19.5 -7.5t7.5 -18.5q0 -12 -7.5 -19.5t-19.5 -7.5
q-11 0 -19 7.5z" />
    <glyph glyph-name="Wgrave" unicode="&#x1e80;" horiz-adv-x="1175" 
d="M1142 656v-6l-265 -650h-35l-254 620l-255 -620h-35l-265 650v6h30l253 -622l255 622h33l255 -622l253 622h30zM385 857l406 -87v-27l-406 87v27z" />
    <glyph glyph-name="wgrave" unicode="&#x1e81;" horiz-adv-x="1067" 
d="M1004 488v-5l-227 -483h-36l-207 453l-208 -453h-36l-227 483v5h29l216 -462l211 462h28l212 -463l217 463h28zM331 689l406 -87v-27l-406 87v27z" />
    <glyph glyph-name="Wacute" unicode="&#x1e82;" horiz-adv-x="1175" 
d="M1142 656v-6l-265 -650h-35l-254 620l-255 -620h-35l-265 650v6h30l253 -622l255 622h33l255 -622l253 622h30zM791 856v-26l-406 -87v27z" />
    <glyph glyph-name="wacute" unicode="&#x1e83;" horiz-adv-x="1067" 
d="M1004 488v-5l-227 -483h-36l-207 453l-208 -453h-36l-227 483v5h29l216 -462l211 462h28l212 -463l217 463h28zM737 688v-26l-406 -87v27z" />
    <glyph glyph-name="Wdieresis" unicode="&#x1e84;" horiz-adv-x="1175" 
d="M1142 656v-6l-265 -650h-35l-254 620l-255 -620h-35l-265 650v6h30l253 -622l255 622h33l255 -622l253 622h30zM441 773.5q-8 7.5 -8 18.5q0 12 7.5 19t19.5 7q11 0 18.5 -7t7.5 -19q0 -11 -7.5 -18.5t-18.5 -7.5t-19 7.5zM697 774q-8 8 -8 18q0 12 7.5 19t18.5 7
q12 0 19.5 -7t7.5 -19q0 -11 -7.5 -18.5t-19.5 -7.5q-10 0 -18 8z" />
    <glyph glyph-name="wdieresis" unicode="&#x1e85;" horiz-adv-x="1067" 
d="M1004 488v-5l-227 -483h-36l-207 453l-208 -453h-36l-227 483v5h29l216 -462l211 462h28l212 -463l217 463h28zM387 605.5q-8 7.5 -8 18.5q0 12 7.5 19t19.5 7q11 0 18.5 -7t7.5 -19q0 -11 -7.5 -18.5t-18.5 -7.5t-19 7.5zM643 606q-8 8 -8 18q0 12 7.5 19t18.5 7
q12 0 19.5 -7t7.5 -19q0 -11 -7.5 -18.5t-19.5 -7.5q-10 0 -18 8z" />
    <glyph glyph-name="uni1E9E" unicode="&#x1e9e;" horiz-adv-x="821" 
d="M697 306.5q60 -42.5 60 -125.5v-14q0 -81 -61 -124t-176 -43h-117v27h116q103 0 156 36t53 104v14q0 142 -209 142h-116v25l299 281h-455q-52 0 -79 -29t-27 -85v-515h-29v516q0 67 34.5 103.5t99.5 36.5h496v-27l-298 -280h76q117 0 177 -42.5z" />
    <glyph glyph-name="uni1EB8" unicode="&#x1eb8;" horiz-adv-x="723" 
d="M635 656v-27h-494v-287h474v-27h-474v-288h494v-27h-523v656h523zM354 -155.5q-8 7.5 -8 19.5q0 11 8 18.5t19 7.5q12 0 19.5 -7.5t7.5 -18.5q0 -12 -7.5 -19.5t-19.5 -7.5q-11 0 -19 7.5z" />
    <glyph glyph-name="uni1EB9" unicode="&#x1eb9;" horiz-adv-x="671" 
d="M89 235v-5q0 -65 31 -113.5t88 -74.5t133 -26q70 0 124.5 20t85.5 56.5t31 83.5h29q-1 -55 -35 -97.5t-95 -65.5t-140 -23q-85 0 -148.5 30t-98 84.5t-34.5 127.5v24q0 73 34.5 127.5t98 84.5t148.5 30q81 0 142.5 -29.5t94.5 -83.5t33 -126v-24h-522zM208.5 446
q-56.5 -26 -88 -74t-31.5 -112h493v1q0 97 -65 154t-176 57q-76 0 -132.5 -26zM318 -155.5q-8 7.5 -8 19.5q0 11 8 18.5t19 7.5q12 0 19.5 -7.5t7.5 -18.5q0 -12 -7.5 -19.5t-19.5 -7.5q-11 0 -19 7.5z" />
    <glyph glyph-name="uni1EBC" unicode="&#x1ebc;" horiz-adv-x="723" 
d="M635 656v-27h-494v-287h474v-27h-474v-288h494v-27h-523v656h523zM422 766.5q-22 4.5 -57 14.5q-28 9 -48.5 13t-42.5 4q-51 0 -104 -25v25q55 26 104 26q23 0 42.5 -4.5t50.5 -13.5q34 -10 55.5 -14.5t47.5 -4.5q48 0 106 21v-25q-55 -21 -106 -21q-26 0 -48 4.5z" />
    <glyph glyph-name="uni1EBD" unicode="&#x1ebd;" horiz-adv-x="671" 
d="M89 235v-5q0 -65 31 -113.5t88 -74.5t133 -26q70 0 124.5 20t85.5 56.5t31 83.5h29q-1 -55 -35 -97.5t-95 -65.5t-140 -23q-85 0 -148.5 30t-98 84.5t-34.5 127.5v24q0 73 34.5 127.5t98 84.5t148.5 30q81 0 142.5 -29.5t94.5 -83.5t33 -126v-24h-522zM208.5 446
q-56.5 -26 -88 -74t-31.5 -112h493v1q0 97 -65 154t-176 57q-76 0 -132.5 -26zM386 598.5q-22 4.5 -57 14.5q-28 9 -48.5 13t-42.5 4q-51 0 -104 -25v25q55 26 104 26q23 0 42.5 -4.5t50.5 -13.5q34 -10 55.5 -14.5t47.5 -4.5q48 0 106 21v-25q-55 -21 -106 -21
q-26 0 -48 4.5z" />
    <glyph glyph-name="uni1ECA" unicode="&#x1eca;" horiz-adv-x="299" 
d="M164 656v-656h-29v656h29zM131 -155.5q-8 7.5 -8 19.5q0 11 8 18.5t19 7.5q12 0 19.5 -7.5t7.5 -18.5q0 -12 -7.5 -19.5t-19.5 -7.5q-11 0 -19 7.5z" />
    <glyph glyph-name="uni1ECB" unicode="&#x1ecb;" horiz-adv-x="286" 
d="M157 488v-488h-28v488h28zM124 605.5q-8 7.5 -8 18.5q0 12 8 19.5t19 7.5q12 0 19.5 -7.5t7.5 -19.5q0 -11 -7.5 -18.5t-19.5 -7.5q-11 0 -19 7.5zM124 -155.5q-8 7.5 -8 19.5q0 11 8 18.5t19 7.5q12 0 19.5 -7.5t7.5 -18.5q0 -12 -7.5 -19.5t-19.5 -7.5q-11 0 -19 7.5z
" />
    <glyph glyph-name="uni1ECC" unicode="&#x1ecc;" horiz-adv-x="877" 
d="M251.5 30q-79.5 40 -123 114t-43.5 174v19q0 100 43 174.5t123 114.5t187 40t186.5 -40.5t123 -114.5t43.5 -174v-19q0 -100 -43 -174t-123 -114t-187 -40t-186.5 40zM610 53.5q73 36.5 112.5 104.5t39.5 160v19q0 92 -39.5 160t-112.5 105t-172 37t-172 -37t-112 -105
t-39 -160v-19q0 -92 39 -160t112 -104.5t172 -36.5t172 36.5zM418 -155.5q-8 7.5 -8 19.5q0 11 8 18.5t19 7.5q12 0 19.5 -7.5t7.5 -18.5q0 -12 -7.5 -19.5t-19.5 -7.5q-11 0 -19 7.5z" />
    <glyph glyph-name="uni1ECD" unicode="&#x1ecd;" horiz-adv-x="685" 
d="M193.5 19.5q-64.5 29.5 -99 84t-34.5 128.5v22q0 75 34.5 130t99 84.5t150.5 29.5q85 0 148.5 -29.5t98 -85t34.5 -129.5v-22q0 -73 -34.5 -128t-98 -84.5t-148.5 -29.5q-86 0 -150.5 29.5zM478 42.5q57 26.5 87.5 75t30.5 114.5v22q0 100 -67.5 159t-184.5 59
q-119 0 -187 -58.5t-68 -159.5v-22q0 -100 69 -158t186 -58q77 0 134 26.5zM324 -155.5q-8 7.5 -8 19.5q0 11 8 18.5t19 7.5q12 0 19.5 -7.5t7.5 -18.5q0 -12 -7.5 -19.5t-19.5 -7.5q-11 0 -19 7.5z" />
    <glyph glyph-name="uni1EE4" unicode="&#x1ee4;" horiz-adv-x="793" 
d="M242.5 23q-66.5 33 -103.5 93t-37 138v402h29v-402q0 -70 33 -124t93 -83.5t139 -29.5t139.5 29.5t93.5 83.5t33 124v402h29v-402q0 -78 -37 -138t-104 -93t-154 -33t-153.5 33zM378 -155.5q-8 7.5 -8 19.5q0 11 8 18.5t19 7.5q12 0 19.5 -7.5t7.5 -18.5
q0 -12 -7.5 -19.5t-19.5 -7.5q-11 0 -19 7.5z" />
    <glyph glyph-name="uni1EE5" unicode="&#x1ee5;" horiz-adv-x="711" 
d="M610 488v-488h-27l-2 95q-38 -49 -100.5 -77t-132.5 -28q-125 0 -189.5 60.5t-64.5 176.5v261h28v-261q0 -103 58 -157t170 -54q73 0 136 32t95 85v355h29zM332 -155.5q-8 7.5 -8 19.5q0 11 8 18.5t19 7.5q12 0 19.5 -7.5t7.5 -18.5q0 -12 -7.5 -19.5t-19.5 -7.5
q-11 0 -19 7.5z" />
    <glyph glyph-name="Ygrave" unicode="&#x1ef2;" horiz-adv-x="726" 
d="M707 650l-329 -357v-293h-29v293l-330 357v6h32l312 -337l313 337h31v-6zM159 857l406 -87v-27l-406 87v27z" />
    <glyph glyph-name="ygrave" unicode="&#x1ef3;" horiz-adv-x="697" 
d="M634 488v-5l-308 -556q-20 -37 -40 -57.5t-49.5 -30t-76.5 -9.5h-65v26h64q56 0 85 17t55 64l33 59l-269 487v5h29l257 -463l256 463h29zM146 689l406 -87v-27l-406 87v27z" />
    <glyph glyph-name="uni1EF8" unicode="&#x1ef8;" horiz-adv-x="726" 
d="M707 650l-329 -357v-293h-29v293l-330 357v6h32l312 -337l313 337h31v-6zM411 766.5q-22 4.5 -57 14.5q-28 9 -48.5 13t-42.5 4q-51 0 -104 -25v25q55 26 104 26q23 0 42.5 -4.5t50.5 -13.5q34 -10 55.5 -14.5t47.5 -4.5q48 0 106 21v-25q-55 -21 -106 -21q-26 0 -48 4.5
z" />
    <glyph glyph-name="uni1EF9" unicode="&#x1ef9;" horiz-adv-x="697" 
d="M634 488v-5l-308 -556q-20 -37 -40 -57.5t-49.5 -30t-76.5 -9.5h-65v26h64q56 0 85 17t55 64l33 59l-269 487v5h29l257 -463l256 463h29zM398 598.5q-22 4.5 -57 14.5q-28 9 -48.5 13t-42.5 4q-51 0 -104 -25v25q55 26 104 26q23 0 42.5 -4.5t50.5 -13.5
q34 -10 55.5 -14.5t47.5 -4.5q48 0 106 21v-25q-55 -21 -106 -21q-26 0 -48 4.5z" />
    <glyph glyph-name="uni2009" unicode="&#x2009;" horiz-adv-x="200" 
 />
    <glyph glyph-name="uni2010" unicode="&#x2010;" horiz-adv-x="442" 
d="M392 289v-28h-342v28h342z" />
    <glyph glyph-name="uni2011" unicode="&#x2011;" horiz-adv-x="442" 
d="M392 289v-28h-342v28h342z" />
    <glyph glyph-name="endash" unicode="&#x2013;" horiz-adv-x="564" 
d="M530 289v-28h-496v28h496z" />
    <glyph glyph-name="emdash" unicode="&#x2014;" horiz-adv-x="1122" 
d="M1041 289v-28h-960v28h960z" />
    <glyph glyph-name="uni2015" unicode="&#x2015;" horiz-adv-x="1122" 
d="M1041 289v-28h-960v28h960z" />
    <glyph glyph-name="quoteleft" unicode="&#x2018;" horiz-adv-x="334" 
d="M122 463l80 233h28l-76 -238h-32v5z" />
    <glyph glyph-name="quoteright" unicode="&#x2019;" horiz-adv-x="334" 
d="M212 696v-5l-80 -233h-28l76 238h32z" />
    <glyph glyph-name="quotesinglbase" unicode="&#x201a;" horiz-adv-x="334" 
d="M212 95v-5l-80 -233h-28l76 238h32z" />
    <glyph glyph-name="quotedblleft" unicode="&#x201c;" horiz-adv-x="583" 
d="M122 463l80 233h28l-76 -238h-32v5zM371 463l80 233h28l-76 -238h-32v5z" />
    <glyph glyph-name="quotedblright" unicode="&#x201d;" horiz-adv-x="583" 
d="M212 696v-5l-80 -233h-28l76 238h32zM461 696v-5l-80 -233h-28l76 238h32z" />
    <glyph glyph-name="quotedblbase" unicode="&#x201e;" horiz-adv-x="583" 
d="M212 95v-5l-80 -233h-28l76 238h32zM461 95v-5l-80 -233h-28l76 238h32z" />
    <glyph glyph-name="dagger" unicode="&#x2020;" horiz-adv-x="531" 
d="M493 510h-213v-279h-28v279h-214v27h214v145h28v-145h213v-27z" />
    <glyph glyph-name="daggerdbl" unicode="&#x2021;" horiz-adv-x="531" 
d="M280 514v-116h213v-26h-213v-142h-28v142h-214v26h214v116h-214v26h214v142h28v-142h213v-26h-213z" />
    <glyph glyph-name="bullet" unicode="&#x2022;" horiz-adv-x="497" 
d="M200 248.5q-20 18.5 -20 49.5t20 49.5t48 18.5t48.5 -18.5t20.5 -49.5t-20.5 -49.5t-48.5 -18.5t-48 18.5z" />
    <glyph glyph-name="ellipsis" unicode="&#x2026;" horiz-adv-x="906" 
d="M148.5 -2.5q-7.5 7.5 -7.5 18.5t7.5 18.5t18.5 7.5q12 0 19.5 -7.5t7.5 -18.5t-7.5 -18.5t-19.5 -7.5q-11 0 -18.5 7.5zM443.5 -2.5q-7.5 7.5 -7.5 18.5t7.5 18.5t18.5 7.5q12 0 19.5 -7.5t7.5 -18.5t-7.5 -18.5t-19.5 -7.5q-11 0 -18.5 7.5zM720.5 -2.5
q-7.5 7.5 -7.5 18.5t7.5 18.5t18.5 7.5q12 0 19.5 -7.5t7.5 -18.5t-7.5 -18.5t-19.5 -7.5q-11 0 -18.5 7.5z" />
    <glyph glyph-name="perthousand" unicode="&#x2030;" horiz-adv-x="1414" 
d="M87.5 380q-50.5 42 -50.5 113v14q0 71 50 112.5t136 41.5q85 0 135 -41.5t50 -112.5v-14q0 -70 -50.5 -112.5t-134.5 -42.5q-85 0 -135.5 42zM338 397q43 36 43 96v14q0 61 -42.5 96t-115.5 35q-74 0 -117 -35t-43 -96v-14q0 -61 43.5 -96.5t116.5 -35.5q72 0 115 36z
M613.5 37q-50.5 42 -50.5 113v14q0 71 50 112.5t136 41.5q85 0 135 -41.5t50 -112.5v-14q0 -70 -50.5 -112.5t-134.5 -42.5q-85 0 -135.5 42zM864 54q43 36 43 96v14q0 61 -42.5 96t-115.5 35q-74 0 -117 -35t-43 -96v-14q0 -61 43.5 -96.5t116.5 -35.5q72 0 115 36z
M789 656h30v-6l-637 -650h-31v5zM1057.5 37q-50.5 42 -50.5 113v14q0 71 50 112.5t136 41.5q85 0 135 -41.5t50 -112.5v-14q0 -70 -50.5 -112.5t-134.5 -42.5q-85 0 -135.5 42zM1308 54q43 36 43 96v14q0 61 -42.5 96t-115.5 35q-74 0 -117 -35t-43 -96v-14
q0 -61 43.5 -96.5t116.5 -35.5q72 0 115 36z" />
    <glyph glyph-name="minute" unicode="&#x2032;" horiz-adv-x="334" 
d="M212 656v-5l-80 -276h-28l76 281h32z" />
    <glyph glyph-name="second" unicode="&#x2033;" horiz-adv-x="573" 
d="M212 656v-5l-80 -276h-28l76 281h32zM451 656v-5l-80 -276h-28l76 281h32z" />
    <glyph glyph-name="guilsinglleft" unicode="&#x2039;" horiz-adv-x="515" 
d="M107 279l259 209h34v-5l-256 -208l256 -207v-5h-34l-259 209v7z" />
    <glyph glyph-name="guilsinglright" unicode="&#x203a;" horiz-adv-x="515" 
d="M149 68h-34v6l256 207l-256 207v5h34l259 -209v-6z" />
    <glyph glyph-name="fraction" unicode="&#x2044;" horiz-adv-x="369" 
d="M488 656h30v-6l-637 -650h-31v5z" />
    <glyph glyph-name="uni2070" unicode="&#x2070;" 
d="M122 385.5q-57 48.5 -57 133.5v60q0 86 56.5 135t156.5 49q98 0 154.5 -49.5t56.5 -134.5v-60q0 -85 -56 -133.5t-155 -48.5t-156 48.5zM413.5 404q48.5 41 48.5 115v60q0 75 -48.5 116.5t-135.5 41.5q-88 0 -136.5 -41.5t-48.5 -116.5v-60q0 -75 48 -115.5t137 -40.5
q87 0 135.5 41z" />
    <glyph glyph-name="uni2074" unicode="&#x2074;" 
d="M34 448v24q55 83 90 150.5t59 134.5h29v-4q-50 -136 -147 -281h302v210h28v-210h143v-24h-143v-105h-28v105h-333z" />
    <glyph glyph-name="uni2075" unicode="&#x2075;" 
d="M125 365q-56 28 -56 75v3h27v-3q0 -35 49 -57t128 -22q81 0 129.5 28.5t48.5 75.5v14q0 48 -48 76t-131 28q-73 0 -123.5 -24t-52.5 -60h-27l16 258h364v-24h-341l-11 -190q21 29 68.5 46.5t108.5 17.5q94 0 149 -34.5t55 -93.5v-14q0 -59 -55 -93.5t-150 -34.5
q-92 0 -148 28z" />
    <glyph glyph-name="uni2076" unicode="&#x2076;" 
d="M127 378.5q-56 41.5 -56 116.5v108q0 74 57 117t156 43q93 0 148.5 -33.5t55.5 -90.5v-3h-27v3q0 46 -49 73.5t-129 27.5q-85 0 -135 -36.5t-50 -97.5v-73q29 30 78.5 47t110.5 17q103 0 155.5 -30.5t52.5 -89.5v-10q0 -61 -56 -95.5t-155 -34.5q-101 0 -157 41.5z
M419 388q49 28 49 77v12q0 49 -45 73t-137 24q-63 0 -113 -18t-75 -49v-16q0 -61 50.5 -96t136.5 -35q85 0 134 28z" />
    <glyph glyph-name="uni2077" unicode="&#x2077;" 
d="M279 536.5q60 98.5 169 195.5h-393v24h427v-24q-108 -95 -170.5 -195.5t-62.5 -184.5v-9h-30v9q0 86 60 184.5z" />
    <glyph glyph-name="uni2078" unicode="&#x2078;" 
d="M117 364.5q-54 27.5 -54 81.5v8q0 40 32.5 65t96.5 34q-53 10 -81.5 34t-28.5 59v9q0 51 51.5 79.5t143.5 28.5t144 -28.5t52 -78.5v-9q0 -36 -28.5 -59.5t-82.5 -34.5q65 -9 98 -34t33 -65v-8q0 -109 -216 -109q-106 0 -160 27.5zM402.5 584.5q43.5 21.5 43.5 62.5v8
q0 41 -44 63t-125 22t-125 -22.5t-44 -63.5v-8q0 -40 43.5 -61.5t125.5 -21.5t125.5 21.5zM465 446v8q0 85 -188 85q-187 0 -187 -85v-8q0 -86 187 -86q188 0 188 86z" />
    <glyph glyph-name="uni2079" unicode="&#x2079;" 
d="M121.5 370q-55.5 34 -55.5 91v3h27v-3q0 -46 49 -73.5t129 -27.5q85 0 135 36t50 98v73q-29 -30 -78.5 -47t-109.5 -17q-103 0 -156 30.5t-53 89.5v10q0 61 56 95.5t155 34.5q101 0 157 -41.5t56 -116.5v-108q0 -74 -57 -117.5t-156 -43.5q-93 0 -148.5 34zM381 544
q50 18 75 49v16q0 61 -50 96t-136 35q-85 0 -134 -28t-49 -77v-12q0 -49 44.5 -73t137.5 -24q62 0 112 18z" />
    <glyph glyph-name="uni2080" unicode="&#x2080;" 
d="M122 -57.5q-57 48.5 -57 133.5v60q0 86 56.5 135t156.5 49q98 0 154.5 -49.5t56.5 -134.5v-60q0 -85 -56 -133.5t-155 -48.5t-156 48.5zM413.5 -39q48.5 41 48.5 115v60q0 75 -48.5 116.5t-135.5 41.5q-88 0 -136.5 -41.5t-48.5 -116.5v-60q0 -75 48 -115.5t137 -40.5
q87 0 135.5 41z" />
    <glyph glyph-name="uni2081" unicode="&#x2081;" 
d="M301 -76v338q-25 -33 -105 -33h-127v24h127q52 0 78.5 15.5t26.5 45.5h28v-390h212v-24h-472v24h232z" />
    <glyph glyph-name="uni2082" unicode="&#x2082;" 
d="M263 20q72 37 109.5 62.5t53 49t15.5 52.5v11q0 49 -43 75.5t-122 26.5q-82 0 -125 -27t-43 -78v-13h-27v13q0 61 51 94.5t143 33.5t142.5 -32.5t50.5 -91.5v-11q0 -34 -16.5 -60.5t-56.5 -54.5t-117 -68l-151 -79h365v-23h-419v23z" />
    <glyph glyph-name="uni2083" unicode="&#x2083;" 
d="M121 -77.5q-56 28.5 -56 76.5v6h27v-6q0 -37 49.5 -59t128.5 -22q87 0 133 26t46 75v9q0 46 -44 70t-130 24h-62v21l210 146h-352v24h396v-24l-212 -146l38 -1q90 -2 137 -30.5t47 -83.5v-9q0 -61 -53.5 -93t-153.5 -32q-93 0 -149 28.5z" />
    <glyph glyph-name="uni2084" unicode="&#x2084;" 
d="M34 5v24q55 83 90 150.5t59 134.5h29v-4q-50 -136 -147 -281h302v210h28v-210h143v-24h-143v-105h-28v105h-333z" />
    <glyph glyph-name="uni2085" unicode="&#x2085;" 
d="M125 -78q-56 28 -56 75v3h27v-3q0 -35 49 -57t128 -22q81 0 129.5 28.5t48.5 75.5v14q0 48 -48 76t-131 28q-73 0 -123.5 -24t-52.5 -60h-27l16 258h364v-24h-341l-11 -190q21 29 68.5 46.5t108.5 17.5q94 0 149 -34.5t55 -93.5v-14q0 -59 -55 -93.5t-150 -34.5
q-92 0 -148 28z" />
    <glyph glyph-name="uni2086" unicode="&#x2086;" 
d="M127 -64.5q-56 41.5 -56 116.5v108q0 74 57 117t156 43q93 0 148.5 -33.5t55.5 -90.5v-3h-27v3q0 46 -49 73.5t-129 27.5q-85 0 -135 -36.5t-50 -97.5v-73q29 30 78.5 47t110.5 17q103 0 155.5 -30.5t52.5 -89.5v-10q0 -61 -56 -95.5t-155 -34.5q-101 0 -157 41.5z
M419 -55q49 28 49 77v12q0 49 -45 73t-137 24q-63 0 -113 -18t-75 -49v-16q0 -61 50.5 -96t136.5 -35q85 0 134 28z" />
    <glyph glyph-name="uni2087" unicode="&#x2087;" 
d="M279 93.5q60 98.5 169 195.5h-393v24h427v-24q-108 -95 -170.5 -195.5t-62.5 -184.5v-9h-30v9q0 86 60 184.5z" />
    <glyph glyph-name="uni2088" unicode="&#x2088;" 
d="M117 -78.5q-54 27.5 -54 81.5v8q0 40 32.5 65t96.5 34q-53 10 -81.5 34t-28.5 59v9q0 51 51.5 79.5t143.5 28.5t144 -28.5t52 -78.5v-9q0 -36 -28.5 -59.5t-82.5 -34.5q65 -9 98 -34t33 -65v-8q0 -109 -216 -109q-106 0 -160 27.5zM402.5 141.5q43.5 21.5 43.5 62.5v8
q0 41 -44 63t-125 22t-125 -22.5t-44 -63.5v-8q0 -40 43.5 -61.5t125.5 -21.5t125.5 21.5zM465 3v8q0 85 -188 85q-187 0 -187 -85v-8q0 -86 187 -86q188 0 188 86z" />
    <glyph glyph-name="uni2089" unicode="&#x2089;" 
d="M121.5 -73q-55.5 34 -55.5 91v3h27v-3q0 -46 49 -73.5t129 -27.5q85 0 135 36t50 98v73q-29 -30 -78.5 -47t-109.5 -17q-103 0 -156 30.5t-53 89.5v10q0 61 56 95.5t155 34.5q101 0 157 -41.5t56 -116.5v-108q0 -74 -57 -117.5t-156 -43.5q-93 0 -148.5 34zM381 101
q50 18 75 49v16q0 61 -50 96t-136 35q-85 0 -134 -28t-49 -77v-12q0 -49 44.5 -73t137.5 -24q62 0 112 18z" />
    <glyph glyph-name="Euro" unicode="&#x20ac;" horiz-adv-x="816" 
d="M745 403v13q0 64 -36.5 114.5t-100.5 79.5t-144 29q-117 0 -194 -56t-99 -155h429v-25h-433q-4 -23 -4 -53v-45q0 -25 3 -48h434v-25h-430q21 -102 98 -158.5t196 -56.5q79 0 143 29.5t101 80.5t37 114v12h28v-12q0 -70 -40.5 -127.5t-111.5 -90.5t-157 -33
q-129 0 -215 65t-108 177h-141v25h137q-3 23 -3 48v45q0 28 3 53h-137v25h142q23 111 108.5 174.5t213.5 63.5q87 0 157.5 -32.5t111 -90t40.5 -127.5v-13h-28z" />
    <glyph glyph-name="uni20AE" unicode="&#x20ae;" horiz-adv-x="816" 
d="M423 629v-228l272 54v-27l-272 -54v-158l272 53v-26l-272 -54v-189h-29v184l-272 -53v27l272 53v158l-272 -53v27l272 53v233h-354v27h736v-27h-353z" />
    <glyph glyph-name="uni20B4" unicode="&#x20b4;" horiz-adv-x="816" 
d="M286 282q-38 -13 -62 -24h519v-25h-563q-21 -16 -31 -36t-10 -47q0 -63 70 -98.5t194 -35.5q134 0 207 39t73 110v8h28v-8q0 -84 -80 -129.5t-227 -45.5q-139 0 -216.5 41t-77.5 115q0 53 33 87h-70v25h102q34 21 95 41l261 88q16 5 42 15h-500v25h550q22 15 31 33.5
t9 46.5q0 63 -67 98t-187 35q-125 0 -194.5 -39t-68.5 -109v-9h-30v9q0 83 76.5 128.5t215.5 45.5q134 0 209 -41.5t75 -114.5q0 -27 -7 -47t-24 -36h82v-25h-117q-31 -17 -79 -33z" />
    <glyph glyph-name="uni20B8" unicode="&#x20b8;" horiz-adv-x="816" 
d="M770 656v-27h-724v27h724zM46 458v26h724v-26h-347v-458h-30v458h-347z" />
    <glyph glyph-name="uni20B9" unicode="&#x20b9;" horiz-adv-x="816" 
d="M770 629h-182q69 -43 69 -140v-4h113v-25h-113q-1 -78 -59 -124.5t-156 -46.5h-331l607 -283v-6h-51l-617 289v26h391q87 0 136.5 38.5t50.5 106.5h-578v25h578v4q0 100 -78 140h-500v27h720v-27z" />
    <glyph glyph-name="uni20BA" unicode="&#x20ba;" horiz-adv-x="816" 
d="M770 353v-25q0 -102 -44 -176t-124 -113t-185 -39h-265v214l-152 -49v28l152 49v162l-152 -49v28l152 49v224h29v-215l374 120v-28l-374 -120v-163l374 120v-28l-374 -120v-195h236q97 0 170 35.5t113.5 103.5t40.5 162v25h29z" />
    <glyph glyph-name="uni20BD" unicode="&#x20bd;" horiz-adv-x="816" 
d="M729.5 613.5q57.5 -42.5 57.5 -121.5v-13q0 -78 -57.5 -120.5t-162.5 -42.5h-359v-145h423v-26h-423v-145h-29v145h-143v26h143v145h-143v27h143v313h388q105 0 162.5 -42.5zM758 492q0 67 -49 102t-142 35h-359v-286h359q93 0 142 35t49 100v14z" />
    <glyph glyph-name="uni20BF" unicode="&#x20bf;" horiz-adv-x="816" 
d="M685 285q36 -37 36 -93v-11q0 -71 -54 -112t-146 -41h-13v-88h-28v88h-164v-88h-28v88h-160v601h160v88h28v-88h164v88h28v-88q90 -2 141.5 -40t51.5 -104v-13q0 -50 -30.5 -86t-86.5 -52q65 -12 101 -49zM157 603v-258h341q82 0 128 33.5t46 92.5v13q0 57 -45 88
t-128 31h-342zM692 193q0 60 -45.5 93t-127.5 33h-362v-265h362q82 0 127.5 33.5t45.5 93.5v12z" />
    <glyph glyph-name="uni2113" unicode="&#x2113;" horiz-adv-x="695" 
d="M577 179h29l-1 -11q-18 -178 -243 -178q-227 0 -227 180q0 11 2 35l-152 -54v27l156 55l25 210q13 114 79 168.5t189 54.5q100 0 156.5 -40.5t56.5 -111.5q0 -70 -48.5 -116.5t-164.5 -87.5l-266 -95l-1 -5q-3 -21 -3 -40q0 -79 48.5 -117t149.5 -38q201 0 214 153z
M265 593q-58 -48 -70 -151l-24 -200l253 92q72 26 114 52t61 56t19 71q0 60 -49 94t-135 34q-111 0 -169 -48z" />
    <glyph glyph-name="uni2116" unicode="&#x2116;" horiz-adv-x="1303" 
d="M1145 626q46 -40 46 -104v-14q0 -64 -46 -104t-118 -40q-73 0 -120 40.5t-47 103.5v15q0 41 21.5 73.5t59.5 51t86 18.5q72 0 118 -40zM679 656h28v-656h-28l-539 615v-615h-28v656h29l538 -615v615zM1167 523q0 53 -39.5 86.5t-100.5 33.5q-62 0 -102 -33.5t-40 -86.5
v-16q0 -52 40 -86t102 -34t101 34t39 87v15zM871 202h309v-25h-309v25z" />
    <glyph glyph-name="trademark" unicode="&#x2122;" horiz-adv-x="901" 
d="M30 656h326v-22h-151v-277h-24v277h-151v22zM796 357h-23v274l-157 -274h-24l-158 273v-273h-23v299h32l161 -273l160 273h32v-299z" />
    <glyph glyph-name="uni2126" unicode="&#x2126;" horiz-adv-x="880" 
d="M793 27v-27h-275v117q113 14 179 80t66 166v12q0 81 -39 140.5t-112 91.5t-172 32q-100 0 -173 -32t-112.5 -92t-39.5 -140v-12q0 -99 66.5 -165.5t180.5 -80.5v-117h-275v27h247v70q-113 17 -180.5 89t-67.5 176v13q0 89 43 155t123 101t188 35t187.5 -35t122 -101
t42.5 -155v-13q0 -105 -66.5 -176.5t-179.5 -88.5v-70h247z" />
    <glyph glyph-name="estimated" unicode="&#x212e;" horiz-adv-x="758" 
d="M110 325v-195q40 -62 109 -95.5t160 -33.5q95 0 165.5 38.5t108.5 110.5h33q-43 -75 -123.5 -117.5t-183.5 -42.5t-181.5 41t-122 115t-43.5 171v21q0 97 43.5 171.5t122 115.5t181.5 41t181.5 -41t122 -115.5t43.5 -171.5v-13h-616zM218.5 621q-69.5 -34 -109.5 -97
v-185h537v188q-40 61 -108.5 94.5t-158.5 33.5q-91 0 -160.5 -34z" />
    </font>
</defs>
</svg>
