<?xml version="1.0" standalone="no"?>
<!DOCTYPE svg PUBLIC "-//W3C//DTD SVG 1.1//EN" "http://www.w3.org/Graphics/SVG/1.1/DTD/svg11.dtd" >
<svg xmlns="http://www.w3.org/2000/svg" xmlns:xlink="http://www.w3.org/1999/xlink" version="1.1">
<metadata>
Created by FontForge 20170731 at Fri Jun  7 20:41:16 2019
 By Aleksey,,,
Copyright (c) 2019 by Lisa Fischbach, Jakob Runge and Nils Thomsen. All rights reserved.
</metadata>
<defs>
<font id="HalvarBreit-XThSlanted" horiz-adv-x="554" >
  <font-face 
    font-family="Halvar Breit XTh"
    font-weight="200"
    font-style="oblique"
    font-stretch="expanded"
    units-per-em="1000"
    panose-1="0 0 3 5 0 0 0 0 0 0"
    ascent="800"
    descent="-200"
    x-height="488"
    cap-height="656"
    bbox="-262 -205 1447 917"
    underline-thickness="50"
    underline-position="-200"
    slope="-12"
    unicode-range="U+0020-FB02"
  />
<missing-glyph horiz-adv-x="436" 
d="M403 656h33l-421 -344l7 33zM184 656h33l-153 -125l7 33zM507 564l-7 -33l-534 -438l8 34zM451 312l-379 -311h-33l420 344zM402 93l-112 -92h-33l153 126z" />
    <glyph glyph-name=".notdef" horiz-adv-x="436" 
d="M403 656h33l-421 -344l7 33zM184 656h33l-153 -125l7 33zM507 564l-7 -33l-534 -438l8 34zM451 312l-379 -311h-33l420 344zM402 93l-112 -92h-33l153 126z" />
    <glyph glyph-name=".null" horiz-adv-x="0" 
 />
    <glyph glyph-name="nonmarkingreturn" horiz-adv-x="333" 
 />
    <glyph glyph-name="space" unicode=" " horiz-adv-x="400" 
 />
    <glyph glyph-name="exclam" unicode="!" horiz-adv-x="352" 
d="M281 656l-116 -516h-28l114 516h30zM106.5 -3q-7.5 7 -7.5 18q0 12 8 19.5t20 7.5q10 0 17.5 -6.5t7.5 -17.5q0 -13 -8.5 -20.5t-19.5 -7.5q-10 0 -17.5 7z" />
    <glyph glyph-name="quotedbl" unicode="&#x22;" horiz-adv-x="573" 
d="M283 696l-54 -238h-29l53 238h30zM522 696l-54 -238h-29l53 238h30z" />
    <glyph glyph-name="numbersign" unicode="#" horiz-adv-x="844" 
d="M656 465l-79 -274h180l-5 -26h-183l-48 -165h-29l48 165h-293l-47 -165h-30l48 165h-183l6 26h185l80 274h-183l6 27h185l48 164h29l-48 -164h292l48 164h29l-48 -164h181l-5 -27h-184zM627 465h-292l-80 -274h292z" />
    <glyph glyph-name="dollar" unicode="$" horiz-adv-x="816" 
d="M695 589.5q67 -35.5 67 -94.5q0 -15 -2 -23l-2 -11h-29l1 11q2 12 2 19q0 54 -67.5 83.5t-193.5 29.5q-120 0 -188 -28.5t-81 -83.5l-3 -10q-3 -12 -3 -24q0 -86 171 -105l148 -17q191 -22 191 -128q0 -13 -3 -28l-2 -11q-14 -74 -89.5 -108.5t-224.5 -34.5h-5l-19 -86
h-29l19 87q-131 4 -202.5 39.5t-71.5 96.5q0 11 3 23l2 12h29l-2 -12q-2 -12 -2 -18q0 -56 72 -86t207 -30q136 0 204.5 28.5t79.5 89.5l2 10q3 14 3 25q0 44 -41 69.5t-130 35.5l-147 17q-95 11 -144 44t-49 84q0 8 4 28l3 11q15 67 91 101.5t209 34.5h4l20 87h29l-20 -88
q122 -4 189 -39.5z" />
    <glyph glyph-name="percent" unicode="%" horiz-adv-x="970" 
d="M137.5 376.5q-47.5 38.5 -47.5 98.5q0 18 4 34l4 14q14 67 62.5 102.5t124.5 35.5q77 0 124.5 -38t47.5 -98q0 -18 -4 -34l-4 -14q-14 -67 -62.5 -103t-123.5 -36q-78 0 -125.5 38.5zM370 392q42 31 54 87l3 14q4 15 4 31q0 51 -40.5 82.5t-106.5 31.5
q-65 0 -106.5 -30.5t-53.5 -86.5l-4 -15q-4 -15 -4 -31q0 -51 40.5 -82.5t107.5 -31.5q64 0 106 31zM597.5 33.5q-47.5 38.5 -47.5 98.5q0 18 4 34l4 14q14 67 62.5 102.5t124.5 35.5q77 0 124.5 -38t47.5 -98q0 -18 -4 -34l-4 -14q-14 -67 -62.5 -103t-123.5 -36
q-78 0 -125.5 38.5zM830 49q42 31 54 87l3 14q4 15 4 31q0 51 -40.5 82.5t-106.5 31.5q-65 0 -106.5 -30.5t-53.5 -86.5l-4 -15q-4 -15 -4 -31q0 -51 40.5 -82.5t107.5 -31.5q64 0 106 31zM879 656h32l-1 -6l-779 -650h-34l1 5z" />
    <glyph glyph-name="ampersand" unicode="&#x26;" horiz-adv-x="915" 
d="M904 355l-262 -210l186 -140l-2 -5h-35l-171 128l-24 -19q-79 -65 -146 -92t-151 -27q-74 0 -130.5 19.5t-87.5 54t-31 78.5q0 14 3 27l2 10q9 47 47 78t115 53l116 34l-60 45q-83 62 -83 125q0 13 3 26l2 9q11 57 67 87t152 30q70 0 125 -18.5t85 -51t30 -73.5
q0 -7 -2 -21l-2 -9q-6 -35 -23 -58.5t-53 -42t-100 -36.5l-81 -23l225 -170l249 197h38zM218 516q0 -27 18 -53t58 -56l73 -55l95 27q58 17 91 32.5t48.5 35t20.5 48.5l2 10q2 12 2 17q0 53 -58 85.5t-154 32.5q-85 0 -133.5 -24t-57.5 -70l-2 -9q-3 -10 -3 -21zM597 146
l-238 178l-132 -38q-70 -20 -103 -45.5t-40 -64.5l-2 -10q-3 -12 -3 -23q0 -57 59.5 -92t160.5 -35q75 0 139.5 26t133.5 84z" />
    <glyph glyph-name="quotesingle" unicode="'" horiz-adv-x="334" 
d="M283 696l-54 -238h-29l53 238h30z" />
    <glyph glyph-name="parenleft" unicode="(" horiz-adv-x="466" 
d="M161.5 10q-57.5 67 -57.5 177q0 55 13 111l24 107q35 159 122 236.5t236 78.5l-6 -25q-133 -3 -212 -74.5t-112 -217.5l-24 -106q-13 -56 -13 -108q0 -101 51 -161t146 -66l-5 -26q-105 7 -162.5 74z" />
    <glyph glyph-name="parenright" unicode=")" horiz-adv-x="466" 
d="M341.5 646q57.5 -67 57.5 -177q0 -55 -13 -111l-23 -107q-36 -159 -123 -237t-235 -79l5 26q133 2 212.5 74t111.5 218l24 106q13 56 13 108q0 101 -51 161t-146 66l5 26q105 -7 162.5 -74z" />
    <glyph glyph-name="asterisk" unicode="*" horiz-adv-x="640" 
d="M408 503l216 -102l-13 -24l-222 112l-32 -154l-30 2l35 153l-258 -60l-5 27l250 53l-216 102l13 25l223 -113l32 154l29 -2l-34 -153l257 60l5 -26z" />
    <glyph glyph-name="plus" unicode="+" horiz-adv-x="816" 
d="M731 315h-293l-61 -274h-28l61 274h-293l6 27h293l61 273h28l-61 -273h293z" />
    <glyph glyph-name="comma" unicode="," horiz-adv-x="334" 
d="M180 95l-1 -5l-132 -233h-30l129 238h34z" />
    <glyph glyph-name="hyphen" unicode="-" horiz-adv-x="442" 
d="M402 289l-6 -28h-342l6 28h342z" />
    <glyph glyph-name="period" unicode="." horiz-adv-x="334" 
d="M97.5 -3.5q-7.5 6.5 -7.5 17.5q0 13 8 20.5t20 7.5q10 0 17.5 -7t7.5 -18q0 -12 -8 -19.5t-20 -7.5q-10 0 -17.5 6.5z" />
    <glyph glyph-name="slash" unicode="/" horiz-adv-x="703" 
d="M678 717h32l-2 -6l-645 -772h-32l2 6z" />
    <glyph glyph-name="zero" unicode="0" horiz-adv-x="817" 
d="M241.5 20q-64.5 30 -100 83t-35.5 119q0 29 7 57l34 149q25 110 110 174t210 64q82 0 146 -30.5t99.5 -83.5t35.5 -119q0 -27 -6 -56l-34 -149q-25 -110 -110 -174t-209 -64q-83 0 -147.5 30zM580.5 74q77.5 57 99.5 156l33 149q6 27 6 52q0 60 -31.5 107t-88.5 74
t-133 27q-114 0 -190.5 -57t-99.5 -156l-34 -150q-6 -27 -6 -52q0 -60 31.5 -107t89 -73.5t132.5 -26.5q114 0 191.5 57z" />
    <glyph glyph-name="one" unicode="1" horiz-adv-x="519" 
d="M295 0h-30l129 580q-52 -51 -175 -51h-118l6 27h114q86 0 132.5 24.5t57.5 75.5h30z" />
    <glyph glyph-name="two" unicode="2" horiz-adv-x="755" 
d="M572.5 643.5q55.5 -22.5 85.5 -62.5t30 -93q0 -11 -4 -37l-2 -10q-10 -52 -40 -92.5t-96 -84.5t-190 -108l-250 -129h520l-5 -27h-581l5 25l297 154q121 63 184 104t90.5 77t36.5 83l2 10q3 17 3 33q0 70 -57.5 111.5t-158.5 41.5q-217 0 -255 -167l-4 -20h-30l4 20
q23 98 94 146t192 48q74 0 129.5 -22.5z" />
    <glyph glyph-name="three" unicode="3" horiz-adv-x="790" 
d="M750 630l-373 -245h37q118 0 184.5 -43t66.5 -118q0 -21 -4 -38l-3 -14q-19 -92 -95.5 -137t-214.5 -45q-80 0 -142 20t-96.5 55t-34.5 80q0 16 2 24l2 10h30l-2 -10q-2 -7 -2 -20q0 -38 30.5 -68t86 -47t126.5 -17q127 0 196 38.5t86 118.5l2 15q4 16 4 35
q0 64 -59.5 100t-168.5 36h-82l6 26l368 244h-514l6 26h563z" />
    <glyph glyph-name="four" unicode="4" horiz-adv-x="898" 
d="M809 172h-215l-38 -172h-29l38 172h-488l6 27q118 134 198.5 241.5t143.5 215.5h31l-1 -6q-122 -208 -337 -451h453l75 337h29l-75 -337h215z" />
    <glyph glyph-name="five" unicode="5" horiz-adv-x="801" 
d="M236 630l-84 -303q40 42 107 65.5t152 23.5q80 0 141 -23t94 -64.5t33 -93.5q0 -17 -5 -39l-6 -28q-17 -84 -96.5 -131t-214.5 -47q-82 0 -145.5 17.5t-99 49t-35.5 71.5q0 6 2 18l2 9h30l-2 -9q-1 -5 -1 -14q0 -33 32 -59.5t88.5 -41t129.5 -14.5q122 0 194 41t87 112
l6 28q4 16 4 35q0 46 -29.5 81.5t-83.5 55t-127 19.5q-69 0 -128.5 -18t-98.5 -49.5t-50 -71.5h-30l113 406h523l-5 -26h-497z" />
    <glyph glyph-name="six" unicode="6" horiz-adv-x="786" 
d="M612.5 644q61.5 -22 95.5 -60.5t34 -86.5q0 -17 -4 -32l-2 -9h-30l2 9q4 20 4 29q0 42 -30 75t-84.5 51.5t-124.5 18.5q-123 0 -199.5 -53.5t-98.5 -154.5l-28 -128q51 48 120.5 73t151.5 25q127 0 199.5 -47t72.5 -126q0 -20 -4 -37l-5 -19q-17 -88 -95 -135t-209 -47
q-83 0 -146.5 26t-98 72.5t-34.5 105.5q0 20 5 45l42 194q25 114 108 173.5t218 59.5q79 0 140.5 -22zM260 345q-74 -29 -121 -79l-7 -30q-5 -23 -5 -39q0 -52 31.5 -93t88.5 -64t132 -23q118 0 188.5 40.5t85.5 115.5l4 20q4 16 4 34q0 68 -64 107.5t-179 39.5
q-84 0 -158 -29z" />
    <glyph glyph-name="seven" unicode="7" horiz-adv-x="757" 
d="M741 656l-5 -26q-188 -162 -307.5 -321.5t-149.5 -285.5l-5 -23h-32l5 23q32 130 149.5 289.5t299.5 317.5h-537l6 26h576z" />
    <glyph glyph-name="eight" unicode="8" horiz-adv-x="853" 
d="M641.5 646.5q62.5 -19.5 96 -56t33.5 -84.5q0 -13 -3 -27l-2 -11q-10 -58 -59.5 -94t-136.5 -48q76 -17 116.5 -54t40.5 -90q0 -13 -3 -28l-2 -11q-13 -78 -92.5 -115.5t-234.5 -37.5q-144 0 -224 42.5t-80 118.5q0 14 3 29l2 11q10 64 67.5 99.5t166.5 45.5
q-65 19 -101.5 55.5t-36.5 84.5q0 14 3 27l2 11q14 74 90 113t209 39q83 0 145.5 -19.5zM741 505q0 62 -66 98.5t-180 36.5q-121 0 -189 -32.5t-80 -96.5l-2 -10q-3 -12 -3 -24q0 -62 67 -99t181 -37q121 0 188.5 32.5t78.5 96.5l2 10q3 14 3 25zM698 179q0 66 -71.5 102
t-204.5 36q-141 0 -213.5 -32t-83.5 -97l-2 -10q-3 -13 -3 -25q0 -66 71.5 -101.5t204.5 -35.5q139 0 212.5 31.5t84.5 96.5l2 10q3 14 3 25z" />
    <glyph glyph-name="nine" unicode="9" horiz-adv-x="786" 
d="M591.5 639.5q63.5 -26.5 98.5 -73t35 -105.5q0 -19 -5 -44l-43 -194q-25 -114 -108 -173.5t-218 -59.5q-79 0 -140 22t-95 60.5t-34 86.5q0 17 4 32l2 9h30l-2 -9q-4 -13 -4 -30q0 -42 30 -74.5t84 -51t125 -18.5q123 0 199 53.5t99 155.5l28 127q-51 -48 -120.5 -73
t-152.5 -25q-127 0 -199 46.5t-72 125.5q0 21 4 38l4 19q18 89 96 135.5t208 46.5q83 0 146.5 -26.5zM565 311q74 29 121 80l6 29q5 23 5 39q0 52 -31.5 93t-89 64t-132.5 23q-117 0 -188 -40.5t-86 -115.5l-4 -20q-4 -16 -4 -34q0 -68 64.5 -107.5t179.5 -39.5q85 0 159 29
z" />
    <glyph glyph-name="colon" unicode=":" horiz-adv-x="374" 
d="M117.5 -3.5q-7.5 6.5 -7.5 17.5q0 13 8 20.5t20 7.5q10 0 17.5 -7t7.5 -18q0 -12 -8 -19.5t-20 -7.5q-10 0 -17.5 6.5zM213.5 427.5q-7.5 6.5 -7.5 17.5q0 13 8 20.5t20 7.5q10 0 17.5 -7t7.5 -18q0 -12 -8 -19.5t-20 -7.5q-10 0 -17.5 6.5z" />
    <glyph glyph-name="semicolon" unicode=";" horiz-adv-x="374" 
d="M193 95l-1 -5l-132 -233h-30l129 238h34zM213.5 427.5q-7.5 6.5 -7.5 17.5q0 13 8 20.5t20 7.5q10 0 17.5 -7t7.5 -18q0 -12 -8 -19.5t-20 -7.5q-10 0 -17.5 6.5z" />
    <glyph glyph-name="less" unicode="&#x3c;" horiz-adv-x="816" 
d="M763 525l-609 -199l520 -200l-5 -25h-6l-543 210l8 34l636 209h6z" />
    <glyph glyph-name="equal" unicode="=" horiz-adv-x="816" 
d="M750 444l-7 -27h-594l7 27h594zM704 240l-6 -27h-594l6 27h594z" />
    <glyph glyph-name="greater" unicode="&#x3e;" horiz-adv-x="816" 
d="M734 345l-8 -34l-637 -210h-5l7 29l608 200l-519 199l5 25h5z" />
    <glyph glyph-name="question" unicode="?" horiz-adv-x="632" 
d="M319.5 273q31.5 34 105.5 72q83 42 115 71t39 65l2 10q3 12 3 24q0 57 -54.5 91t-147.5 34q-100 0 -162 -39.5t-78 -113.5l-5 -22h-29l5 22q19 87 88 133t181 46q69 0 121 -19t81 -53t29 -78q0 -13 -3 -27l-2 -10q-8 -43 -43.5 -76.5t-120.5 -75.5q-69 -34 -100 -66
t-41 -77l-10 -44h-28l10 44q13 55 44.5 89zM237.5 -3.5q-7.5 6.5 -7.5 17.5q0 13 8.5 20.5t19.5 7.5q10 0 17.5 -6.5t7.5 -17.5q0 -13 -8 -20.5t-19 -7.5t-18.5 6.5z" />
    <glyph glyph-name="at" unicode="@" horiz-adv-x="1030" 
d="M780.5 628.5q90.5 -37.5 140 -105t49.5 -154.5q0 -36 -9 -74l-21 -98q-17 -79 -52.5 -117t-93.5 -38q-45 0 -72 22t-30 61q-44 -47 -99.5 -72t-116.5 -25q-92 0 -145.5 47.5t-53.5 126.5q0 29 7 57l7 33q20 93 84 143.5t163 50.5q66 0 121 -27t84 -73l23 90h25l-69 -306
q-4 -16 -4 -33q0 -34 19.5 -52t56.5 -18q47 0 76 33t43 99l22 99q8 38 8 68q0 82 -46 144t-130 96.5t-197 34.5q-115 0 -205 -37t-147.5 -106.5t-76.5 -164.5l-17 -85q-9 -39 -9 -76q0 -83 43 -148.5t121 -102t181 -36.5h171l-5 -25h-168q-110 0 -194 40t-130 111t-46 160
q0 39 9 79l18 85q20 103 81 177.5t156.5 114t217.5 39.5q120 0 210.5 -37.5zM736 354q-23 49 -76.5 77.5t-120.5 28.5q-91 0 -147.5 -43.5t-73.5 -126.5l-8 -34q-6 -27 -6 -53q0 -69 46 -109.5t128 -40.5q61 0 117 27.5t98 77.5l2 9z" />
    <glyph glyph-name="A" unicode="A" horiz-adv-x="770" 
d="M696 6l-1 -6h-29l-61 211h-426l-156 -211h-34l2 6l480 650h35zM597 238l-113 387l-286 -387h399z" />
    <glyph glyph-name="B" unicode="B" horiz-adv-x="785" 
d="M687.5 619q51.5 -37 51.5 -98q0 -11 -4 -33l-3 -13q-24 -115 -153 -144q53 -14 82.5 -47.5t29.5 -79.5q0 -18 -4 -34l-3 -14q-17 -77 -78 -116.5t-163 -39.5h-386l146 656h345q88 0 139.5 -37zM708 519q0 51 -43 81t-119 30h-319l-63 -286h328q90 0 143.5 33.5t67.5 97.5
l2 14q3 15 3 30zM661 204q0 54 -42.5 84t-120.5 30h-340l-65 -291h351q89 0 143.5 34t67.5 98l3 14q3 17 3 31z" />
    <glyph glyph-name="C" unicode="C" horiz-adv-x="874" 
d="M255.5 24q-73.5 34 -113 95.5t-39.5 141.5q0 38 9 78l5 24q32 147 129.5 225t250.5 78q89 0 161.5 -31.5t114.5 -85t42 -116.5q0 -21 -4 -38l-2 -11h-30l3 11q4 16 4 35q0 57 -38 105t-104.5 76t-147.5 28q-141 0 -231 -72t-119 -207l-6 -25q-8 -33 -8 -73
q0 -73 36 -128.5t102.5 -86t157.5 -30.5q81 0 148 25.5t111.5 72t58.5 107.5l3 13h30l-3 -13q-16 -70 -64.5 -122.5t-121.5 -81t-162 -28.5q-99 0 -172.5 34z" />
    <glyph glyph-name="D" unicode="D" horiz-adv-x="826" 
d="M465 656q143 0 222.5 -65t79.5 -181q0 -41 -10 -84l-5 -20q-34 -154 -131 -230t-266 -76h-298l146 656h262zM601.5 96.5q89.5 69.5 121.5 211.5l4 21q10 41 10 82q0 105 -71.5 162t-202.5 57h-236l-135 -603h265q155 0 244.5 69.5z" />
    <glyph glyph-name="E" unicode="E" horiz-adv-x="723" 
d="M727 656l-6 -26h-494l-64 -289h474l-6 -26h-474l-65 -288h495l-6 -27h-524l146 656h524z" />
    <glyph glyph-name="F" unicode="F" horiz-adv-x="704" 
d="M736 656l-6 -26h-503l-65 -291h483l-5 -26h-483l-70 -313h-30l146 656h533z" />
    <glyph glyph-name="G" unicode="G" horiz-adv-x="879" 
d="M674 639q74 -27 116 -73.5t42 -102.5q0 -18 -4 -34l-2 -9h-30l2 9q4 20 4 30q0 50 -38 91.5t-105.5 65t-151.5 23.5q-147 0 -239 -71t-122 -208l-6 -25q-8 -33 -8 -72q0 -73 35 -129t100.5 -86.5t154.5 -30.5q100 0 174.5 31.5t141.5 102.5l32 144h-378l6 27h408
l-72 -322h-26l22 110q-64 -63 -138.5 -91.5t-171.5 -28.5q-96 0 -168 34.5t-111 96t-39 141.5q0 36 9 75l5 25q33 148 133 226t259 78q92 0 166 -27z" />
    <glyph glyph-name="H" unicode="H" horiz-adv-x="819" 
d="M233 656l-70 -315h537l70 315h30l-146 -656h-30l70 315h-537l-70 -315h-30l146 656h30z" />
    <glyph glyph-name="I" unicode="I" horiz-adv-x="299" 
d="M256 656l-146 -656h-30l146 656h30z" />
    <glyph glyph-name="J" unicode="J" horiz-adv-x="749" 
d="M192 17q-60 27 -93 74.5t-33 107.5q0 20 5 45l12 55h30l-12 -55q-5 -25 -5 -43q0 -54 29 -95.5t82 -65t123 -23.5q112 0 187 57.5t98 161.5l89 394h-370l5 26h401l-96 -422q-26 -116 -108.5 -180t-205.5 -64q-78 0 -138 27z" />
    <glyph glyph-name="K" unicode="K" horiz-adv-x="813" 
d="M820 650l-455 -289l306 -355l-1 -6h-31l-299 346l-205 -129l-48 -217h-30l146 656h30l-89 -400l636 400h41z" />
    <glyph glyph-name="L" unicode="L" horiz-adv-x="687" 
d="M233 656l-141 -629h536l-6 -27h-565l146 656h30z" />
    <glyph glyph-name="M" unicode="M" horiz-adv-x="1029" 
d="M864 0h-30l137 614l-495 -614h-32l-220 617l-137 -617h-30l146 656h37l225 -623l503 623h42z" />
    <glyph glyph-name="N" unicode="N" horiz-adv-x="819" 
d="M800 656l-146 -656h-29l-402 619l-137 -619h-29l146 656h28l402 -618l137 618h30z" />
    <glyph glyph-name="O" unicode="O" horiz-adv-x="877" 
d="M250.5 24.5q-71.5 34.5 -110 96.5t-38.5 142q0 40 8 75l5 19q32 150 129.5 229.5t252.5 79.5q94 0 165.5 -34.5t110 -97t38.5 -142.5q0 -40 -8 -75l-4 -19q-32 -150 -130 -229t-252 -79q-95 0 -166.5 34.5zM649.5 89.5q90.5 72.5 119.5 209.5l4 20q8 33 8 73
q0 73 -34.5 129t-99 87t-151.5 31q-142 0 -232 -73t-120 -210l-4 -20q-8 -40 -8 -71q0 -73 34.5 -129.5t99.5 -87.5t152 -31q141 0 231.5 72.5z" />
    <glyph glyph-name="P" unicode="P" horiz-adv-x="787" 
d="M579 656q89 0 141.5 -39.5t52.5 -104.5q0 -20 -4 -37l-2 -14q-17 -77 -78.5 -117.5t-165.5 -40.5h-369l-67 -303h-30l146 656h376zM668.5 364q54.5 35 68.5 100l3 13q4 22 4 32q0 56 -44.5 88.5t-122.5 32.5h-350l-67 -301h364q90 0 144.5 35z" />
    <glyph glyph-name="Q" unicode="Q" horiz-adv-x="877" 
d="M662.5 631.5q71.5 -34.5 110 -97t38.5 -142.5q0 -40 -8 -75l-4 -19q-32 -148 -127.5 -227t-246.5 -81l38 -127l-2 -6h-27l-40 134q-89 4 -155 39.5t-101.5 96t-35.5 137.5q0 32 8 74l5 19q32 150 129.5 229.5t252.5 79.5q94 0 165.5 -34.5zM781 392q0 73 -34.5 129
t-99 87t-151.5 31q-142 0 -232 -73t-120 -210l-4 -20q-8 -40 -8 -71q0 -73 34.5 -129.5t99.5 -87.5t152 -31q141 0 231.5 72.5t119.5 209.5l4 20q8 33 8 73z" />
    <glyph glyph-name="R" unicode="R" horiz-adv-x="806" 
d="M721.5 616.5q52.5 -39.5 52.5 -105.5q0 -20 -4 -37l-3 -14q-16 -76 -77.5 -116.5t-162.5 -40.5h-69l206 -297l-1 -6h-30l-209 303h-270l-67 -303h-30l146 656h375q91 0 143.5 -39.5zM745 510q0 56 -44.5 88t-124.5 32h-349l-67 -301h369q88 0 141.5 34.5t67.5 99.5l3 14
q4 22 4 33z" />
    <glyph glyph-name="S" unicode="S" horiz-adv-x="771" 
d="M140 32q-74 42 -74 121q0 21 4 38l3 12h30l-3 -12q-4 -24 -4 -34q0 -69 65.5 -105t193.5 -36q131 0 198.5 33t82.5 103l3 10q4 16 4 34q0 49 -43.5 77t-137.5 40l-120 15q-91 11 -138.5 46t-47.5 91q0 18 4 33l3 11q16 77 88.5 117t208.5 40q132 0 201.5 -41.5
t69.5 -119.5q0 -20 -4 -39l-3 -11h-30l3 11q4 16 4 35q0 68 -61.5 103.5t-180.5 35.5q-120 0 -186 -33t-81 -100l-2 -10q-4 -15 -4 -30q0 -93 166 -114l120 -15q103 -13 152 -47t49 -92q0 -16 -5 -39l-2 -11q-18 -80 -92 -119.5t-220 -39.5q-140 0 -214 42z" />
    <glyph glyph-name="T" unicode="T" horiz-adv-x="691" 
d="M96 630l6 26h670l-6 -26h-318l-140 -630h-30l140 630h-322z" />
    <glyph glyph-name="U" unicode="U" horiz-adv-x="793" 
d="M231 18.5q-59 28.5 -91 80t-32 117.5q0 29 6 60l80 380h29l-80 -383q-6 -28 -6 -55q0 -59 28 -104.5t81 -71t124 -25.5q120 0 194 58.5t99 173.5l91 407h30l-92 -409q-28 -128 -109.5 -192.5t-213.5 -64.5q-79 0 -138 28.5z" />
    <glyph glyph-name="V" unicode="V" horiz-adv-x="770" 
d="M818 656l-1 -6l-480 -650h-36l-190 650l1 6h29l182 -627l461 627h34z" />
    <glyph glyph-name="W" unicode="W" horiz-adv-x="1175" 
d="M1222 656l-1 -6l-410 -650h-35l-116 621l-393 -621h-36l-120 650l1 6h29l114 -623l393 623h35l116 -623l391 623h32z" />
    <glyph glyph-name="X" unicode="X" horiz-adv-x="819" 
d="M826 650l-377 -324l233 -320l-1 -6h-31l-224 310l-359 -310h-37l1 6l377 324l-233 320l1 6h31l224 -310l359 310h37z" />
    <glyph glyph-name="Y" unicode="Y" horiz-adv-x="726" 
d="M786 650l-409 -358l-65 -292h-30l66 294l-251 356l1 6h29l238 -340l388 340h35z" />
    <glyph glyph-name="Z" unicode="Z" horiz-adv-x="696" 
d="M729 629l-683 -602h548l-5 -27h-590l6 27l684 603h-550l6 26h590z" />
    <glyph glyph-name="bracketleft" unicode="[" horiz-adv-x="457" 
d="M489 717l-5 -26h-246l-162 -726h246l-6 -26h-272l173 778h272z" />
    <glyph glyph-name="backslash" unicode="\" horiz-adv-x="703" 
d="M205 717h25l307 -772l-1 -6h-26l-307 772z" />
    <glyph glyph-name="bracketright" unicode="]" horiz-adv-x="457" 
d="M10 -35h245l162 726h-246l6 26h272l-173 -778h-272z" />
    <glyph glyph-name="asciicircum" unicode="^" horiz-adv-x="557" 
d="M529 377l-1 -6h-27l-134 258l-249 -258h-33l2 6l270 279h26z" />
    <glyph glyph-name="underscore" unicode="_" horiz-adv-x="564" 
d="M458 -81l-5 -25h-497l5 25h497z" />
    <glyph glyph-name="grave" unicode="`" horiz-adv-x="600" 
d="M196 688l387 -86l-6 -26l-386 87z" />
    <glyph glyph-name="a" unicode="a" horiz-adv-x="716" 
d="M668 26l-6 -26h-44q-43 0 -68 20.5t-25 55.5q0 14 2 21q-110 -107 -283 -107q-90 0 -139 30t-49 84q0 12 3 25q10 55 60 83t149 38l298 29l3 14q4 19 4 39q0 66 -52.5 103t-147.5 37q-97 0 -162.5 -41t-80.5 -112l-2 -9h-29l2 9q17 83 90 131t184 48q106 0 166.5 -44
t60.5 -120q0 -18 -5 -43l-40 -188q-2 -14 -2 -20q0 -28 17.5 -42.5t51.5 -14.5h44zM409.5 46.5q75.5 31.5 125.5 88.5l26 119l-295 -28q-86 -8 -128.5 -31.5t-50.5 -67.5q-2 -14 -2 -21q0 -44 41.5 -67.5t119.5 -23.5q88 0 163.5 31.5z" />
    <glyph glyph-name="b" unicode="b" horiz-adv-x="710" 
d="M532 471q56 -27 86.5 -75.5t30.5 -109.5q0 -30 -5 -51l-5 -24q-21 -107 -98 -164t-201 -57q-76 0 -141.5 32.5t-97.5 86.5l-26 -109h-28l155 696h29l-65 -296q97 98 237 98q73 0 129 -27zM620 284q0 55 -27 97.5t-77.5 66.5t-116.5 24q-144 0 -242 -110l-49 -222
q28 -55 92 -89.5t140 -34.5q111 0 180.5 51t88.5 146l6 24q5 27 5 47z" />
    <glyph glyph-name="c" unicode="c" horiz-adv-x="670" 
d="M187 17.5q-60 27.5 -92.5 76t-32.5 109.5q0 26 6 54l5 23q22 105 97 161.5t194 56.5q72 0 130.5 -24t92 -65.5t33.5 -90.5q0 -14 -3 -29l-1 -7h-29l1 7q3 14 3 27q0 43 -29.5 79t-81.5 56.5t-117 20.5q-106 0 -174 -50.5t-88 -144.5l-5 -23q-6 -25 -6 -49q0 -55 29 -98
t82.5 -67t123.5 -24q96 0 161 41.5t79 112.5l2 7h30l-2 -7q-16 -83 -89 -131.5t-181 -48.5q-78 0 -138 27.5z" />
    <glyph glyph-name="d" unicode="d" horiz-adv-x="710" 
d="M709 696l-155 -696h-26l17 89q-49 -50 -108 -74.5t-130 -24.5q-73 0 -129 27t-86.5 75t-30.5 109q0 30 5 52l6 24q19 104 95 162.5t203 58.5q76 0 141.5 -33t97.5 -87l71 318h29zM553 126l49 221q-27 56 -91.5 90.5t-140.5 34.5q-111 0 -180.5 -50.5t-88.5 -145.5l-6 -24
q-5 -27 -5 -48q0 -55 27 -97.5t77.5 -66.5t116.5 -24q144 0 242 110z" />
    <glyph glyph-name="e" unicode="e" horiz-adv-x="671" 
d="M496 472q58 -26 90 -72t32 -104q0 -12 -4 -38l-4 -23h-518q-3 -16 -3 -33q0 -54 29 -96.5t82 -66t122 -23.5q99 0 162 39.5t81 113.5h31q-22 -87 -92 -133t-182 -46q-78 0 -137 27t-91.5 75.5t-32.5 109.5q0 27 6 54l5 24q23 105 98 161.5t194 56.5q74 0 132 -26z
M189 422.5q-67 -49.5 -87 -143.5l-5 -19h489v2q3 17 3 32q0 51 -28.5 91.5t-80 63.5t-117.5 23q-107 0 -174 -49.5z" />
    <glyph glyph-name="f" unicode="f" horiz-adv-x="500" 
d="M353.5 643.5q-31.5 -27.5 -45.5 -85.5l-16 -70h245l-5 -25h-245l-103 -463h-30l104 463h-197l5 25h197l16 71q16 70 55 103.5t104 33.5h106l-6 -25h-101q-52 0 -83.5 -27.5z" />
    <glyph glyph-name="g" unicode="g" horiz-adv-x="709" 
d="M662 488l-105 -469q-22 -100 -97.5 -149.5t-206.5 -49.5q-76 0 -133 19t-87.5 53.5t-30.5 79.5q0 17 2 25l2 11h30l-3 -11q-2 -14 -2 -21q0 -59 60.5 -94.5t161.5 -35.5q117 0 186 44t89 130l21 94q-50 -50 -112.5 -76t-130.5 -26q-74 0 -129.5 25t-85.5 69.5t-30 103.5
q0 26 6 53l5 23q22 105 97 158.5t201 53.5q76 0 140 -31.5t99 -85.5l25 107h28zM443.5 68q64.5 29 113.5 82l45 201q-29 54 -92.5 87.5t-139.5 33.5q-114 0 -181.5 -47.5t-87.5 -139.5l-5 -23q-6 -25 -6 -49q0 -79 58.5 -126.5t160.5 -47.5q70 0 134.5 29z" />
    <glyph glyph-name="h" unicode="h" horiz-adv-x="711" 
d="M569.5 450.5q57.5 -47.5 57.5 -132.5q0 -31 -7 -62l-56 -256h-29l57 258q7 28 7 57q0 75 -51 116t-145 41q-70 0 -136 -31.5t-112 -85.5l-79 -355h-29l155 696h29l-67 -301q50 50 112.5 76.5t129.5 26.5q106 0 163.5 -47.5z" />
    <glyph glyph-name="i" unicode="i" horiz-adv-x="286" 
d="M212 488l-109 -488h-29l109 488h29zM208 605q-8 7 -8 18q0 13 8.5 20.5t20.5 7.5q11 0 18.5 -7t7.5 -18q0 -13 -8 -20.5t-20 -7.5q-11 0 -19 7z" />
    <glyph glyph-name="j" unicode="j" horiz-adv-x="286" 
d="M-71 -145q113 0 140 121l114 512h29l-115 -514q-17 -73 -58 -108.5t-110 -35.5h-122l5 25h117zM208 605q-8 7 -8 18q0 13 8.5 20.5t20.5 7.5q11 0 18.5 -7t7.5 -18q0 -13 -8 -20.5t-20 -7.5q-11 0 -19 7z" />
    <glyph glyph-name="k" unicode="k" horiz-adv-x="681" 
d="M675 483l-351 -206l258 -272l-1 -5h-31l-250 264l-190 -111l-34 -153h-29l155 696h29l-113 -507l517 299h41z" />
    <glyph glyph-name="l" unicode="l" horiz-adv-x="319" 
d="M98 81q0 18 4 37l127 578h29l-128 -578q-4 -16 -4 -32q0 -31 20 -45.5t61 -14.5h40l-6 -26h-42q-101 0 -101 81z" />
    <glyph glyph-name="m" unicode="m" horiz-adv-x="1108" 
d="M985 451.5q52 -46.5 52 -128.5q0 -31 -7 -62l-57 -261h-29l58 262q7 29 7 59q0 71 -44.5 111t-125.5 40q-72 0 -140 -34.5t-115 -93.5q1 -7 1 -23q0 -31 -7 -60l-57 -261h-29l57 262q7 37 7 58q0 72 -44.5 112t-125.5 40q-68 0 -131.5 -31t-107.5 -85l-80 -356h-29
l109 488h27l-19 -93q48 50 108 76.5t127 26.5q76 0 125 -32.5t64 -91.5q52 60 119.5 92t141.5 32q93 0 145 -46.5z" />
    <glyph glyph-name="n" unicode="n" horiz-adv-x="711" 
d="M569.5 450.5q57.5 -47.5 57.5 -131.5q0 -32 -7 -63l-56 -256h-29l57 258q7 28 7 58q0 75 -50.5 115.5t-143.5 40.5q-72 0 -138 -31t-112 -86l-79 -355h-29l109 488h27l-19 -93q50 50 112.5 76.5t131.5 26.5q104 0 161.5 -47.5z" />
    <glyph glyph-name="o" unicode="o" horiz-adv-x="685" 
d="M185.5 17.5q-59.5 27.5 -92 76t-32.5 109.5q0 26 6 53l5 23q23 106 98 162.5t195 56.5q77 0 135.5 -27.5t91 -76t32.5 -110.5q0 -25 -6 -54l-6 -22q-20 -103 -95 -160.5t-194 -57.5q-78 0 -137.5 27.5zM498 67.5q67 51.5 85 141.5l5 23q6 27 6 52q0 54 -28 97t-80 67
t-121 24q-111 0 -178 -51t-86 -144l-5 -22q-6 -25 -6 -49q0 -55 29 -98.5t82 -67.5t122 -24q108 0 175 51.5z" />
    <glyph glyph-name="p" unicode="p" horiz-adv-x="710" 
d="M531 471q56 -27 87 -75.5t31 -109.5q0 -28 -5 -51l-5 -24q-21 -105 -97.5 -163t-201.5 -58q-76 0 -141.5 33t-97.5 87l-63 -280h-29l147 658h27l-18 -88q98 98 237 98q73 0 129 -27zM620 284q0 55 -27 97.5t-77.5 66.5t-116.5 24q-144 0 -242 -110l-49 -221
q27 -56 91.5 -90.5t140.5 -34.5q111 0 181 51.5t88 145.5l6 24q5 27 5 47z" />
    <glyph glyph-name="q" unicode="q" horiz-adv-x="710" 
d="M663 488l-147 -658h-29l57 257q-98 -97 -236 -97q-73 0 -129 27t-87 75.5t-31 109.5q0 29 5 51l5 24q21 106 98.5 163.5t200.5 57.5q76 0 141.5 -32.5t97.5 -86.5l26 109h28zM552 125l50 223q-28 56 -92 90t-140 34q-111 0 -180.5 -51t-88.5 -145l-6 -24q-5 -27 -5 -48
q0 -55 27 -97.5t77.5 -66.5t116.5 -24q144 0 241 109z" />
    <glyph glyph-name="r" unicode="r" horiz-adv-x="473" 
d="M517 488l-6 -25h-107q-67 0 -124 -27t-98 -78l-79 -358h-29l109 488h26l-19 -92q83 92 217 92h110z" />
    <glyph glyph-name="s" unicode="s" horiz-adv-x="688" 
d="M172 6q-58 16 -89.5 45t-31.5 67q0 5 2 19l1 7h29l-1 -7q-2 -12 -2 -17q0 -48 61 -76.5t166 -28.5q109 0 171.5 25.5t73.5 73.5l2 9q2 7 2 19q0 35 -38.5 56.5t-119.5 31.5l-107 13q-83 10 -123 35.5t-40 68.5q0 11 3 23l2 10q11 58 76 88t181 30q73 0 129.5 -16.5
t87.5 -45.5t31 -67q0 -6 -2 -18l-1 -7h-29l1 7q2 10 2 15q0 47 -60.5 77t-159.5 30q-103 0 -161 -24t-66 -70l-2 -10q-2 -7 -2 -20q0 -34 33.5 -54t103.5 -28l107 -12q184 -21 184 -110q0 -12 -3 -24l-2 -9q-14 -60 -84 -91t-191 -31q-76 0 -134 16z" />
    <glyph glyph-name="t" unicode="t" horiz-adv-x="520" 
d="M223 131q-4 -22 -4 -30q0 -36 23.5 -55.5t65.5 -19.5h115l-6 -26h-112q-54 0 -84.5 26t-30.5 72q0 18 4 34l73 331h-206l5 25h191q10 0 14.5 3.5t6.5 13.5l26 116h28l-30 -133h254l-5 -25h-254z" />
    <glyph glyph-name="u" unicode="u" horiz-adv-x="711" 
d="M664 488l-109 -488h-26l18 93q-49 -50 -111.5 -76.5t-130.5 -26.5q-106 0 -163.5 47.5t-57.5 132.5q0 31 7 62l56 256h29l-57 -258q-7 -28 -7 -57q0 -75 51 -116t145 -41q71 0 136.5 31t110.5 86l80 355h29z" />
    <glyph glyph-name="v" unicode="v" horiz-adv-x="697" 
d="M682 488l-1 -5l-376 -483h-37l-160 483l1 5h28l152 -464l361 464h32z" />
    <glyph glyph-name="w" unicode="w" horiz-adv-x="1067" 
d="M1051 488l-1 -5l-334 -483h-37l-107 454l-307 -454h-37l-120 483l1 5h28l113 -461l314 461h29l108 -463l320 463h30z" />
    <glyph glyph-name="x" unicode="x" horiz-adv-x="656" 
d="M652 483l-304 -238l203 -240l-1 -5h-31l-192 230l-292 -230h-37l1 5l310 244l-198 234v5h30l189 -224l288 224h35z" />
    <glyph glyph-name="y" unicode="y" horiz-adv-x="697" 
d="M682 488l-1 -5l-432 -556q-30 -39 -54.5 -59t-54.5 -29t-76 -9h-68l5 25h65q55 0 87 17t70 65l47 61l-162 485l1 5h28l153 -465l360 465h32z" />
    <glyph glyph-name="z" unicode="z" horiz-adv-x="642" 
d="M626 463l-564 -438h466l-5 -25h-508l6 25l563 438h-466l6 25h507z" />
    <glyph glyph-name="braceleft" unicode="{" horiz-adv-x="544" 
d="M576 717l-6 -26h-139q-51 0 -82 -21.5t-40 -62.5l-35 -165q-20 -89 -106 -102q30 -7 46 -26t16 -49q0 -14 -3 -29l-41 -182q-3 -12 -3 -22q0 -32 23.5 -49.5t67.5 -17.5h135l-6 -26h-133q-54 0 -85 24t-31 65q0 14 3 27l42 183q3 14 3 25q0 32 -21.5 49.5t-60.5 17.5h-84
l5 26h85q49 0 80.5 22.5t39.5 63.5l35 168q23 107 148 107h147z" />
    <glyph glyph-name="bar" unicode="|" horiz-adv-x="308" 
d="M273 717l-174 -778h-26l173 778h27z" />
    <glyph glyph-name="braceright" unicode="}" horiz-adv-x="544" 
d="M544 326l-5 -26h-85q-49 0 -80 -22.5t-40 -63.5l-35 -168q-23 -107 -148 -107h-147l6 26h139q51 0 82 21.5t40 62.5l35 165q20 89 106 102q-30 7 -46 26t-16 49q0 14 3 29l41 182q3 12 3 22q0 32 -23.5 49.5t-67.5 17.5h-135l6 26h133q55 0 85.5 -24t30.5 -65
q0 -13 -3 -27l-42 -183q-3 -13 -3 -25q0 -32 21.5 -49.5t60.5 -17.5h84z" />
    <glyph glyph-name="asciitilde" unicode="~" horiz-adv-x="816" 
d="M493 292.5q-34 6.5 -81 19.5q-45 12 -74.5 18t-63.5 6q-72 0 -159 -33l6 28q84 32 157 32q34 0 64 -6t73 -18q45 -13 80 -19.5t76 -6.5q77 0 165 30l-6 -28q-84 -29 -162 -29q-41 0 -75 6.5z" />
    <glyph glyph-name="uni00A0" unicode="&#xa0;" horiz-adv-x="400" 
 />
    <glyph glyph-name="exclamdown" unicode="&#xa1;" horiz-adv-x="352" 
d="M207.5 452.5q-7.5 6.5 -7.5 17.5q0 14 8 21t20 7q10 0 17.5 -6.5t7.5 -17.5q0 -13 -8 -20.5t-20 -7.5q-10 0 -17.5 6.5zM214 349l-114 -519h-30l116 519h28z" />
    <glyph glyph-name="cent" unicode="&#xa2;" horiz-adv-x="816" 
d="M676.5 531.5q69.5 -46.5 69.5 -120.5q0 -14 -3 -31l-2 -7h-29l1 7q3 15 3 28q0 68 -68 108t-185 40q-131 0 -208 -51t-97 -151l-5 -24q-6 -27 -6 -51q0 -84 68 -131.5t192 -47.5q115 0 189 42.5t91 117.5l2 7h29l-1 -7q-18 -88 -100.5 -137t-210.5 -49h-12l-18 -84h-29
l18 85q-117 8 -182 62t-65 142q0 26 6 54l5 23q22 110 106 167.5t226 58.5l19 84h27l-18 -84q118 -4 187.5 -50.5z" />
    <glyph glyph-name="sterling" unicode="&#xa3;" horiz-adv-x="816" 
d="M700.5 644q53.5 -22 82.5 -62.5t29 -93.5q0 -21 -4 -40l-2 -9h-30l2 9q4 19 4 39q0 71 -55 112t-153 41q-104 0 -168.5 -45t-83.5 -130l-35 -157h340l-5 -25h-341l-32 -142q-19 -85 -78 -115h543l-5 -26h-691l5 26h62q109 0 134 115l32 142h-170l5 25h171l36 159
q22 97 94 148t188 51q72 0 125.5 -22z" />
    <glyph glyph-name="currency" unicode="&#xa4;" horiz-adv-x="816" 
d="M584 167l81 -104l-22 -18l-82 105q-63 -40 -152 -40q-54 0 -98 14.5t-75 41.5l-123 -101l-19 21l123 101q-33 41 -33 96q0 25 5 44l4 18q17 78 73 124l-82 103l22 18l82 -104q64 39 152 39q54 0 97.5 -14.5t74.5 -41.5l125 102l19 -21l-125 -102q34 -42 34 -98
q0 -19 -5 -42l-5 -19q-17 -77 -71 -122zM212 286q0 -44 24.5 -78t69 -53t103.5 -19q87 0 145 41.5t73 114.5l4 18q5 23 5 40q0 66 -53.5 107.5t-142.5 41.5q-87 0 -145 -41.5t-74 -114.5l-4 -18q-5 -22 -5 -39z" />
    <glyph glyph-name="yen" unicode="&#xa5;" horiz-adv-x="816" 
d="M843 650l-388 -332h264l-5 -26h-281l-32 -145h280l-6 -26h-279l-27 -121h-30l27 121h-280l6 26h279l32 145h-278l5 26h267l-243 332l1 6h29l241 -328l384 328h35z" />
    <glyph glyph-name="brokenbar" unicode="&#xa6;" horiz-adv-x="308" 
d="M273 717l-58 -261h-27l58 261h27zM158 200l-58 -261h-27l58 261h27z" />
    <glyph glyph-name="section" unicode="&#xa7;" horiz-adv-x="690" 
d="M595 633q64 -33 64 -87q0 -14 -2 -21l-2 -12h-29l3 12q2 12 2 17q0 46 -56 73t-154 27q-193 0 -207 -80l-2 -11q-2 -10 -2 -14q0 -52 93 -70l168 -32q157 -30 157 -117q0 -14 -2 -21l-3 -12q-7 -36 -36.5 -59.5t-85.5 -36.5q45 -28 45 -68q0 -6 -2 -16l-2 -11
q-10 -52 -70 -78t-167 -26q-110 0 -173.5 33t-63.5 88q0 6 2 20l3 12h28l-2 -12q-2 -12 -2 -17q0 -46 56 -73t154 -27q192 0 206 80l2 11q2 10 2 14q0 52 -93 70l-167 32q-79 15 -118.5 44t-39.5 71q0 11 3 23l2 13q14 72 123 95q-45 28 -45 68q0 6 2 16l2 11q9 52 69 78
t168 26t172 -33zM293 443q-14 3 -38 11q-58 -13 -87.5 -33.5t-35.5 -50.5l-2 -11q-2 -7 -2 -19q0 -35 33 -58.5t103 -36.5l170 -32q19 -4 38 -11q59 13 88 33t35 51l3 11q2 14 2 19q0 35 -33 58.5t-103 36.5z" />
    <glyph glyph-name="dieresis" unicode="&#xa8;" horiz-adv-x="600" 
d="M237 604.5q-7 6.5 -7 17.5q0 13 8 20.5t20 7.5q10 0 17.5 -6.5t7.5 -17.5q0 -12 -8.5 -20t-19.5 -8t-18 6.5zM492.5 605q-7.5 7 -7.5 18q0 12 8.5 19.5t19.5 7.5t18 -6t7 -16q0 -13 -8 -21.5t-19 -8.5t-18.5 7z" />
    <glyph glyph-name="copyright" unicode="&#xa9;" horiz-adv-x="897" 
d="M258.5 25q-75.5 35 -116.5 97.5t-41 143.5q0 32 8 72l5 19q31 148 131.5 228.5t254.5 80.5q100 0 175 -35t116 -97t41 -143q0 -40 -8 -73l-4 -20q-32 -148 -132 -228t-254 -80q-100 0 -175.5 35zM672 87q95 76 124 213l4 20q8 38 8 69q0 76 -37.5 134t-107.5 90t-163 32
q-143 0 -238 -76t-124 -213l-5 -21q-7 -32 -7 -67q0 -76 38 -134t108 -90.5t163 -32.5q142 0 237 76zM318 188q-51 42 -51 109q0 20 4 36l4 20q14 74 70.5 116t144.5 42q54 0 96.5 -16t66.5 -44t24 -63q0 -11 -3 -22l-1 -4h-26l1 4q3 11 3 21q0 44 -45 72.5t-116 28.5
q-79 0 -129 -36t-62 -101l-3 -20q-4 -24 -4 -34q0 -58 43.5 -93t117.5 -35q70 0 117.5 30.5t60.5 83.5l1 4h26l-1 -4q-16 -64 -70.5 -100.5t-134.5 -36.5q-83 0 -134 42z" />
    <glyph glyph-name="ordfeminine" unicode="&#xaa;" horiz-adv-x="606" 
d="M610 273l-5 -25h-40q-37 0 -58 17.5t-21 48.5q0 10 1 15q-95 -89 -241 -89q-78 0 -121 25.5t-43 70.5q0 6 2 18q9 48 52 71.5t127 31.5l256 24l1 6q4 16 4 34q0 54 -44.5 86t-124.5 32q-85 0 -140 -33t-67 -92l-1 -8h-28l1 8q14 70 76.5 109.5t159.5 39.5
q91 0 142.5 -38.5t51.5 -104.5q0 -11 -4 -35l-30 -149q-2 -12 -2 -16q0 -23 15 -35t44 -12h37zM387.5 289q64.5 26 106.5 72l20 98l-251 -23q-80 -8 -116.5 -30.5t-36.5 -68.5q0 -35 35.5 -54.5t102.5 -19.5q75 0 139.5 26z" />
    <glyph glyph-name="guillemotleft" unicode="&#xab;" horiz-adv-x="809" 
d="M155 284l216 -216l-1 -5h-30l-222 221l2 6l274 198h36l-1 -5zM447 265l209 -197l-1 -5h-30l-215 202l2 7l303 216h36l-1 -5z" />
    <glyph glyph-name="logicalnot" unicode="&#xac;" horiz-adv-x="816" 
d="M115 315l6 27h615l-57 -257h-27l51 230h-588z" />
    <glyph glyph-name="uni00AD" unicode="&#xad;" horiz-adv-x="442" 
d="M402 289l-6 -28h-342l6 28h342z" />
    <glyph glyph-name="registered" unicode="&#xae;" horiz-adv-x="581" 
d="M515 658.5q56 -47.5 56 -124.5q0 -19 -5 -46l-3 -13q-20 -90 -80.5 -139t-154.5 -49q-61 0 -107.5 22t-72 60.5t-25.5 88.5q0 27 5 47l3 13q19 90 79.5 139t154.5 49t150 -47.5zM550 534q0 69 -50 111t-135 42q-86 0 -141 -44t-73 -127l-3 -13q-5 -25 -5 -43
q0 -70 50 -112t135 -42q86 0 141 44t73 127l3 14q5 25 5 43zM460.5 588q17.5 -16 12.5 -43l-2 -8q-5 -26 -26.5 -40.5t-57.5 -14.5h-18l67 -86l-1 -4h-20l-70 90h-77l-20 -90h-22l47 212h136q34 0 51.5 -16zM452 554q0 16 -12 24.5t-35 8.5h-114l-19 -88h114q56 0 64 39l1 7
q1 3 1 9z" />
    <glyph glyph-name="macron" unicode="&#xaf;" horiz-adv-x="600" 
d="M590 637l-5 -25h-406l5 25h406z" />
    <glyph glyph-name="degree" unicode="&#xb0;" horiz-adv-x="446" 
d="M161 401q-43 37 -43 92q0 10 4 30l3 15q12 59 58.5 93.5t113.5 34.5t109.5 -37t42.5 -93q0 -14 -3 -29l-4 -15q-12 -59 -58 -93.5t-113 -34.5t-110 37zM367.5 416.5q39.5 29.5 50.5 78.5l3 15q3 14 3 26q0 47 -35.5 77t-91.5 30q-57 0 -97 -29.5t-50 -77.5l-4 -16
q-3 -13 -3 -26q0 -46 36 -76.5t92 -30.5q57 0 96.5 29.5z" />
    <glyph glyph-name="plusminus" unicode="&#xb1;" horiz-adv-x="816" 
d="M733 369l-6 -27h-283l-43 -194h-28l43 194h-284l6 27h285l45 203h28l-45 -203h282zM70 64h595l-6 -27h-594z" />
    <glyph glyph-name="uni00B2" unicode="&#xb2;" 
d="M312 462q80 36 122 60t60.5 45.5t23.5 48.5l3 11q2 12 2 19q0 42 -41 68t-110 26q-78 0 -122 -26t-57 -79l-3 -13h-28l3 13q30 128 208 128q81 0 129 -31.5t48 -83.5q0 -14 -2 -22l-2 -11q-6 -33 -26 -57t-64.5 -50.5t-130.5 -64.5l-172 -77h361l-4 -23h-417l5 23z" />
    <glyph glyph-name="uni00B3" unicode="&#xb3;" 
d="M160.5 364q-53.5 27 -53.5 71q0 9 1 14l2 6h28l-2 -6q-1 -4 -1 -11q0 -35 46 -56.5t121 -21.5q87 0 133 23.5t56 72.5l2 9q2 12 2 17q0 40 -40 61.5t-115 21.5h-59l4 22l241 145h-349l5 25h396l-5 -25l-246 -147h32q78 -2 120.5 -28t42.5 -72q0 -14 -2 -21l-2 -10
q-12 -60 -64.5 -88.5t-151.5 -28.5q-88 0 -141.5 27z" />
    <glyph glyph-name="acute" unicode="&#xb4;" horiz-adv-x="600" 
d="M602 689l-6 -27l-425 -87l6 27z" />
    <glyph glyph-name="uni00B5" unicode="&#xb5;" horiz-adv-x="740" 
d="M702 26l-6 -26h-53q-49 0 -74.5 24t-21.5 66q-45 -49 -103 -74.5t-124 -25.5q-90 0 -146 36t-69 100l-66 -296h-29l146 658h29l-58 -261q-6 -27 -6 -52q0 -74 53 -116.5t147 -42.5q67 0 127.5 29.5t106.5 85.5l79 357h29l-85 -382q-3 -12 -3 -23q0 -28 19.5 -42.5
t55.5 -14.5h52z" />
    <glyph glyph-name="paragraph" unicode="&#xb6;" horiz-adv-x="967" 
d="M591 0h-29l68 304h-321q-89 0 -140.5 39t-51.5 104q0 19 4 35l3 14q16 79 78.5 119.5t164.5 40.5h370zM948 656l-146 -656h-29l146 656h29z" />
    <glyph glyph-name="periodcentered" unicode="&#xb7;" horiz-adv-x="334" 
d="M156.5 262.5q-7.5 6.5 -7.5 17.5q0 13 8 20.5t20 7.5q10 0 17.5 -7t7.5 -18q0 -12 -8 -19.5t-20 -7.5q-10 0 -17.5 6.5z" />
    <glyph glyph-name="cedilla" unicode="&#xb8;" horiz-adv-x="600" 
d="M285 0l-89 -170h-32l93 178z" />
    <glyph glyph-name="uni00B9" unicode="&#xb9;" 
d="M325 367l75 337q-32 -32 -111 -32h-127l5 24h127q104 0 118 61h28l-87 -390h213l-6 -24h-471l5 24h231z" />
    <glyph glyph-name="ordmasculine" unicode="&#xba;" horiz-adv-x="575" 
d="M201 263.5q-52 23.5 -81 64.5t-29 92q0 18 5 41l5 19q18 89 81.5 136t166.5 47q67 0 118.5 -23.5t80 -64.5t28.5 -93q0 -18 -5 -41l-4 -19q-19 -88 -82 -135t-165 -47q-67 0 -119 23.5zM467 306.5q57 41.5 73 117.5l4 18q4 17 4 38q0 46 -24.5 82t-70 56t-105.5 20
q-91 0 -147.5 -41.5t-72.5 -118.5l-4 -18q-4 -17 -4 -38q0 -46 24.5 -81.5t70 -55.5t105.5 -20q90 0 147 41.5z" />
    <glyph glyph-name="guillemotright" unicode="&#xbb;" horiz-adv-x="809" 
d="M379 286l-210 197l1 5h31l214 -203l-1 -6l-303 -216h-37l1 5zM671 267l-217 216l1 5h31l221 -221l-2 -7l-273 -197h-37l1 5z" />
    <glyph glyph-name="onequarter" unicode="&#xbc;" horiz-adv-x="1408" 
d="M304 267l75 337q-32 -32 -111 -32h-127l5 24h127q104 0 118 61h28l-87 -390h213l-6 -24h-471l5 24h231zM1132 656h32l-1 -6l-779 -650h-34l1 5zM861 105l5 24q74 82 124 149t89 136h30v-4q-81 -137 -210 -281h292l47 210h28l-46 -210h137l-5 -24h-138l-24 -105h-28
l24 105h-325z" />
    <glyph glyph-name="onehalf" unicode="&#xbd;" horiz-adv-x="1418" 
d="M304 267l75 337q-32 -32 -111 -32h-127l5 24h127q104 0 118 61h28l-87 -390h213l-6 -24h-471l5 24h231zM1132 656h32l-1 -6l-779 -650h-34l1 5zM1103 119q80 36 122 60t60.5 45.5t23.5 48.5l3 11q2 12 2 19q0 42 -41 68t-110 26q-78 0 -122 -26t-57 -79l-3 -13h-28l3 13
q30 128 208 128q81 0 129 -31.5t48 -83.5q0 -14 -2 -22l-2 -11q-6 -33 -26 -57t-64.5 -50.5t-130.5 -64.5l-172 -77h361l-4 -23h-417l5 23z" />
    <glyph glyph-name="threequarters" unicode="&#xbe;" horiz-adv-x="1359" 
d="M139.5 264q-53.5 27 -53.5 71q0 9 1 14l2 6h28l-2 -6q-1 -4 -1 -11q0 -35 46 -56.5t121 -21.5q87 0 133 23.5t56 72.5l2 9q2 12 2 17q0 40 -40 61.5t-115 21.5h-59l4 22l241 145h-349l5 25h396l-5 -25l-246 -147h32q78 -2 120.5 -28t42.5 -72q0 -14 -2 -21l-2 -10
q-12 -60 -64.5 -88.5t-151.5 -28.5q-88 0 -141.5 27zM1083 656h32l-1 -6l-779 -650h-34l1 5zM812 105l5 24q74 82 124 149t89 136h30v-4q-81 -137 -210 -281h292l47 210h28l-46 -210h137l-5 -24h-138l-24 -105h-28l24 105h-325z" />
    <glyph glyph-name="questiondown" unicode="&#xbf;" horiz-adv-x="632" 
d="M356.5 452.5q-7.5 6.5 -7.5 17.5q0 13 8.5 20.5t19.5 7.5q10 0 17.5 -6.5t7.5 -17.5q0 -13 -8 -20.5t-20 -7.5q-10 0 -17.5 6.5zM129 -161q-52 19 -81 52.5t-29 77.5q0 14 3 28l2 11q8 44 43 76.5t121 75.5q71 36 101 67.5t40 76.5l10 45h28l-10 -45q-13 -56 -45 -90.5
t-105 -71.5q-82 -42 -114.5 -71t-39.5 -66l-2 -9q-3 -14 -3 -25q0 -57 54.5 -91t147.5 -34q100 0 162 39.5t78 113.5l5 22h29l-5 -22q-20 -87 -88.5 -133t-180.5 -46q-69 0 -121 19z" />
    <glyph glyph-name="Agrave" unicode="&#xc0;" horiz-adv-x="770" 
d="M696 6l-1 -6h-29l-61 211h-426l-156 -211h-34l2 6l480 650h35zM597 238l-113 387l-286 -387h399zM329 856l387 -86l-6 -26l-386 87z" />
    <glyph glyph-name="Aacute" unicode="&#xc1;" horiz-adv-x="770" 
d="M696 6l-1 -6h-29l-61 211h-426l-156 -211h-34l2 6l480 650h35zM597 238l-113 387l-286 -387h399zM735 857l-6 -27l-425 -87l6 27z" />
    <glyph glyph-name="Acircumflex" unicode="&#xc2;" horiz-adv-x="770" 
d="M696 6l-1 -6h-29l-61 211h-426l-156 -211h-34l2 6l480 650h35zM597 238l-113 387l-286 -387h399zM531 856l185 -86l-5 -26l-182 85l-225 -87l7 29z" />
    <glyph glyph-name="Atilde" unicode="&#xc3;" horiz-adv-x="770" 
d="M696 6l-1 -6h-29l-61 211h-426l-156 -211h-34l2 6l480 650h35zM597 238l-113 387l-286 -387h399zM564.5 766.5q-20.5 4.5 -53.5 14.5q-5 1 -23.5 6.5t-34.5 8t-32 2.5q-54 0 -110 -26l6 27q56 25 105 25q23 0 42.5 -4.5t47.5 -13.5q32 -10 53.5 -14.5t47.5 -4.5
q51 0 112 21l-7 -27q-59 -19 -107 -19q-26 0 -46.5 4.5z" />
    <glyph glyph-name="Adieresis" unicode="&#xc4;" horiz-adv-x="770" 
d="M696 6l-1 -6h-29l-61 211h-426l-156 -211h-34l2 6l480 650h35zM597 238l-113 387l-286 -387h399zM371 772.5q-7 6.5 -7 17.5q0 13 8 20.5t20 7.5q10 0 17.5 -6.5t7.5 -17.5q0 -12 -8.5 -20t-19.5 -8t-18 6.5zM626.5 773q-7.5 7 -7.5 18q0 12 8.5 19.5t19.5 7.5t18 -6
t7 -16q0 -13 -8 -21.5t-19 -8.5t-18.5 7z" />
    <glyph glyph-name="Aring" unicode="&#xc5;" horiz-adv-x="770" 
d="M696 6l-1 -6h-29l-61 211h-426l-156 -211h-34l2 6l480 650h35zM597 238l-113 387l-286 -387h399zM397 668.5q-33 25.5 -33 71.5q0 48 34 75.5t93 27.5q58 0 91.5 -26t33.5 -71q0 -49 -33.5 -76t-93.5 -27q-59 0 -92 25.5zM563.5 686q26.5 22 26.5 60q0 35 -26 55.5
t-72 20.5q-48 0 -75.5 -22t-27.5 -60q0 -35 27 -55.5t73 -20.5q48 0 74.5 22z" />
    <glyph glyph-name="AE" unicode="&#xc6;" horiz-adv-x="1072" 
d="M554 630l9 -289h434l-5 -26h-428l10 -288h373l-5 -27h-396l-7 211h-363l-155 -211h-32l2 6l479 650h618l-6 -26h-528zM525 630h-40l-289 -392h342z" />
    <glyph glyph-name="Ccedilla" unicode="&#xc7;" horiz-adv-x="874" 
d="M255.5 24q-73.5 34 -113 95.5t-39.5 141.5q0 38 9 78l5 24q32 147 129.5 225t250.5 78q89 0 161.5 -31.5t114.5 -85t42 -116.5q0 -21 -4 -38l-2 -11h-30l3 11q4 16 4 35q0 57 -38 105t-104.5 76t-147.5 28q-141 0 -231 -72t-119 -207l-6 -25q-8 -33 -8 -73
q0 -73 36 -128.5t102.5 -86t157.5 -30.5q81 0 148 25.5t111.5 72t58.5 107.5l3 13h30l-3 -13q-16 -70 -64.5 -122.5t-121.5 -81t-162 -28.5q-99 0 -172.5 34zM439 0l-89 -170h-32l93 178z" />
    <glyph glyph-name="Egrave" unicode="&#xc8;" horiz-adv-x="723" 
d="M727 656l-6 -26h-494l-64 -289h474l-6 -26h-474l-65 -288h495l-6 -27h-524l146 656h524zM306 856l387 -86l-6 -26l-386 87z" />
    <glyph glyph-name="Eacute" unicode="&#xc9;" horiz-adv-x="723" 
d="M727 656l-6 -26h-494l-64 -289h474l-6 -26h-474l-65 -288h495l-6 -27h-524l146 656h524zM712 857l-6 -27l-425 -87l6 27z" />
    <glyph glyph-name="Ecircumflex" unicode="&#xca;" horiz-adv-x="723" 
d="M727 656l-6 -26h-494l-64 -289h474l-6 -26h-474l-65 -288h495l-6 -27h-524l146 656h524zM508 856l185 -86l-5 -26l-182 85l-225 -87l7 29z" />
    <glyph glyph-name="Edieresis" unicode="&#xcb;" horiz-adv-x="723" 
d="M727 656l-6 -26h-494l-64 -289h474l-6 -26h-474l-65 -288h495l-6 -27h-524l146 656h524zM347 772.5q-7 6.5 -7 17.5q0 13 8 20.5t20 7.5q10 0 17.5 -6.5t7.5 -17.5q0 -12 -8.5 -20t-19.5 -8t-18 6.5zM602.5 773q-7.5 7 -7.5 18q0 12 8.5 19.5t19.5 7.5t18 -6t7 -16
q0 -13 -8 -21.5t-19 -8.5t-18.5 7z" />
    <glyph glyph-name="Igrave" unicode="&#xcc;" horiz-adv-x="299" 
d="M256 656l-146 -656h-30l146 656h30zM141 840l269 -53l-6 -26l-269 53z" />
    <glyph glyph-name="Iacute" unicode="&#xcd;" horiz-adv-x="299" 
d="M256 656l-146 -656h-30l146 656h30zM422 840l-6 -27l-292 -53l6 27z" />
    <glyph glyph-name="Icircumflex" unicode="&#xce;" horiz-adv-x="299" 
d="M256 656l-146 -656h-30l146 656h30zM284 847l128 -59l-6 -26l-125 58l-156 -60l6 29z" />
    <glyph glyph-name="Idieresis" unicode="&#xcf;" horiz-adv-x="299" 
d="M256 656l-146 -656h-30l146 656h30zM124 772.5q-7 6.5 -7 17.5q0 13 8 20.5t20 7.5q10 0 17.5 -6.5t7.5 -17.5q0 -12 -8.5 -20t-19.5 -8t-18 6.5zM379.5 773q-7.5 7 -7.5 18q0 12 8.5 19.5t19.5 7.5t18 -6t7 -16q0 -13 -8 -21.5t-19 -8.5t-18.5 7z" />
    <glyph glyph-name="Eth" unicode="&#xd0;" horiz-adv-x="859" 
d="M720.5 591q79.5 -65 79.5 -181q0 -41 -10 -84l-5 -20q-34 -154 -131 -230t-266 -76h-298l70 315h-129l6 26h129l70 315h262q143 0 222.5 -65zM770 411q0 105 -71.5 162t-202.5 57h-236l-65 -289h253l-6 -26h-253l-64 -288h265q155 0 244.5 69.5t121.5 211.5l4 21
q10 41 10 82z" />
    <glyph glyph-name="Ntilde" unicode="&#xd1;" horiz-adv-x="819" 
d="M800 656l-146 -656h-29l-402 619l-137 -619h-29l146 656h28l402 -618l137 618h30zM578.5 766.5q-20.5 4.5 -53.5 14.5q-5 1 -23.5 6.5t-34.5 8t-32 2.5q-54 0 -110 -26l6 27q56 25 105 25q23 0 42.5 -4.5t47.5 -13.5q32 -10 53.5 -14.5t47.5 -4.5q51 0 112 21l-7 -27
q-59 -19 -107 -19q-26 0 -46.5 4.5z" />
    <glyph glyph-name="Ograve" unicode="&#xd2;" horiz-adv-x="877" 
d="M250.5 24.5q-71.5 34.5 -110 96.5t-38.5 142q0 40 8 75l5 19q32 150 129.5 229.5t252.5 79.5q94 0 165.5 -34.5t110 -97t38.5 -142.5q0 -40 -8 -75l-4 -19q-32 -150 -130 -229t-252 -79q-95 0 -166.5 34.5zM649.5 89.5q90.5 72.5 119.5 209.5l4 20q8 33 8 73
q0 73 -34.5 129t-99 87t-151.5 31q-142 0 -232 -73t-120 -210l-4 -20q-8 -40 -8 -71q0 -73 34.5 -129.5t99.5 -87.5t152 -31q141 0 231.5 72.5zM347 856l387 -86l-6 -26l-386 87z" />
    <glyph glyph-name="Oacute" unicode="&#xd3;" horiz-adv-x="877" 
d="M250.5 24.5q-71.5 34.5 -110 96.5t-38.5 142q0 40 8 75l5 19q32 150 129.5 229.5t252.5 79.5q94 0 165.5 -34.5t110 -97t38.5 -142.5q0 -40 -8 -75l-4 -19q-32 -150 -130 -229t-252 -79q-95 0 -166.5 34.5zM649.5 89.5q90.5 72.5 119.5 209.5l4 20q8 33 8 73
q0 73 -34.5 129t-99 87t-151.5 31q-142 0 -232 -73t-120 -210l-4 -20q-8 -40 -8 -71q0 -73 34.5 -129.5t99.5 -87.5t152 -31q141 0 231.5 72.5zM752 857l-6 -27l-425 -87l6 27z" />
    <glyph glyph-name="Ocircumflex" unicode="&#xd4;" horiz-adv-x="877" 
d="M250.5 24.5q-71.5 34.5 -110 96.5t-38.5 142q0 40 8 75l5 19q32 150 129.5 229.5t252.5 79.5q94 0 165.5 -34.5t110 -97t38.5 -142.5q0 -40 -8 -75l-4 -19q-32 -150 -130 -229t-252 -79q-95 0 -166.5 34.5zM649.5 89.5q90.5 72.5 119.5 209.5l4 20q8 33 8 73
q0 73 -34.5 129t-99 87t-151.5 31q-142 0 -232 -73t-120 -210l-4 -20q-8 -40 -8 -71q0 -73 34.5 -129.5t99.5 -87.5t152 -31q141 0 231.5 72.5zM548 856l185 -86l-5 -26l-182 85l-225 -87l7 29z" />
    <glyph glyph-name="Otilde" unicode="&#xd5;" horiz-adv-x="877" 
d="M250.5 24.5q-71.5 34.5 -110 96.5t-38.5 142q0 40 8 75l5 19q32 150 129.5 229.5t252.5 79.5q94 0 165.5 -34.5t110 -97t38.5 -142.5q0 -40 -8 -75l-4 -19q-32 -150 -130 -229t-252 -79q-95 0 -166.5 34.5zM649.5 89.5q90.5 72.5 119.5 209.5l4 20q8 33 8 73
q0 73 -34.5 129t-99 87t-151.5 31q-142 0 -232 -73t-120 -210l-4 -20q-8 -40 -8 -71q0 -73 34.5 -129.5t99.5 -87.5t152 -31q141 0 231.5 72.5zM582.5 766.5q-20.5 4.5 -53.5 14.5q-5 1 -23.5 6.5t-34.5 8t-32 2.5q-54 0 -110 -26l6 27q56 25 105 25q23 0 42.5 -4.5
t47.5 -13.5q32 -10 53.5 -14.5t47.5 -4.5q51 0 112 21l-7 -27q-59 -19 -107 -19q-26 0 -46.5 4.5z" />
    <glyph glyph-name="Odieresis" unicode="&#xd6;" horiz-adv-x="877" 
d="M250.5 24.5q-71.5 34.5 -110 96.5t-38.5 142q0 40 8 75l5 19q32 150 129.5 229.5t252.5 79.5q94 0 165.5 -34.5t110 -97t38.5 -142.5q0 -40 -8 -75l-4 -19q-32 -150 -130 -229t-252 -79q-95 0 -166.5 34.5zM649.5 89.5q90.5 72.5 119.5 209.5l4 20q8 33 8 73
q0 73 -34.5 129t-99 87t-151.5 31q-142 0 -232 -73t-120 -210l-4 -20q-8 -40 -8 -71q0 -73 34.5 -129.5t99.5 -87.5t152 -31q141 0 231.5 72.5zM388 772.5q-7 6.5 -7 17.5q0 13 8 20.5t20 7.5q10 0 17.5 -6.5t7.5 -17.5q0 -12 -8.5 -20t-19.5 -8t-18 6.5zM643.5 773
q-7.5 7 -7.5 18q0 12 8.5 19.5t19.5 7.5t18 -6t7 -16q0 -13 -8 -21.5t-19 -8.5t-18.5 7z" />
    <glyph glyph-name="multiply" unicode="&#xd7;" horiz-adv-x="816" 
d="M446 326l169 -218l-21 -16l-169 217l-263 -214l-17 21l263 215l-169 217l21 17l169 -217l263 214l17 -22z" />
    <glyph glyph-name="Oslash" unicode="&#xd8;" horiz-adv-x="877" 
d="M786 508.5q25 -53.5 25 -117.5q0 -39 -8 -74l-4 -19q-32 -149 -130.5 -228.5t-257.5 -79.5q-112 0 -190 50l-86 -96h-33l1 6l96 106q-47 37 -72 90t-25 118q0 32 8 74l5 19q32 150 130.5 229.5t257.5 79.5q112 0 189 -51l88 97h33l-2 -6l-96 -107q46 -37 71 -90.5z
M131 265q0 -59 22.5 -107.5t63.5 -80.5l457 517q-70 45 -173 45q-145 0 -236 -72.5t-121 -210.5l-5 -20q-8 -40 -8 -71zM782 390q0 59 -22.5 107.5t-63.5 80.5l-456 -517q71 -44 172 -44q146 0 237 72t121 210l4 20q8 40 8 71z" />
    <glyph glyph-name="Ugrave" unicode="&#xd9;" horiz-adv-x="793" 
d="M231 18.5q-59 28.5 -91 80t-32 117.5q0 29 6 60l80 380h29l-80 -383q-6 -28 -6 -55q0 -59 28 -104.5t81 -71t124 -25.5q120 0 194 58.5t99 173.5l91 407h30l-92 -409q-28 -128 -109.5 -192.5t-213.5 -64.5q-79 0 -138 28.5zM330 856l387 -86l-6 -26l-386 87z" />
    <glyph glyph-name="Uacute" unicode="&#xda;" horiz-adv-x="793" 
d="M231 18.5q-59 28.5 -91 80t-32 117.5q0 29 6 60l80 380h29l-80 -383q-6 -28 -6 -55q0 -59 28 -104.5t81 -71t124 -25.5q120 0 194 58.5t99 173.5l91 407h30l-92 -409q-28 -128 -109.5 -192.5t-213.5 -64.5q-79 0 -138 28.5zM736 857l-6 -27l-425 -87l6 27z" />
    <glyph glyph-name="Ucircumflex" unicode="&#xdb;" horiz-adv-x="793" 
d="M231 18.5q-59 28.5 -91 80t-32 117.5q0 29 6 60l80 380h29l-80 -383q-6 -28 -6 -55q0 -59 28 -104.5t81 -71t124 -25.5q120 0 194 58.5t99 173.5l91 407h30l-92 -409q-28 -128 -109.5 -192.5t-213.5 -64.5q-79 0 -138 28.5zM532 856l185 -86l-5 -26l-182 85l-225 -87
l7 29z" />
    <glyph glyph-name="Udieresis" unicode="&#xdc;" horiz-adv-x="793" 
d="M231 18.5q-59 28.5 -91 80t-32 117.5q0 29 6 60l80 380h29l-80 -383q-6 -28 -6 -55q0 -59 28 -104.5t81 -71t124 -25.5q120 0 194 58.5t99 173.5l91 407h30l-92 -409q-28 -128 -109.5 -192.5t-213.5 -64.5q-79 0 -138 28.5zM371 772.5q-7 6.5 -7 17.5q0 13 8 20.5t20 7.5
q10 0 17.5 -6.5t7.5 -17.5q0 -12 -8.5 -20t-19.5 -8t-18 6.5zM626.5 773q-7.5 7 -7.5 18q0 12 8.5 19.5t19.5 7.5t18 -6t7 -16q0 -13 -8 -21.5t-19 -8.5t-18.5 7z" />
    <glyph glyph-name="Yacute" unicode="&#xdd;" horiz-adv-x="726" 
d="M786 650l-409 -358l-65 -292h-30l66 294l-251 356l1 6h29l238 -340l388 340h35zM689 857l-6 -27l-425 -87l6 27z" />
    <glyph glyph-name="Thorn" unicode="&#xde;" horiz-adv-x="787" 
d="M687.5 465.5q52.5 -39.5 52.5 -105.5q0 -20 -4 -36l-3 -13q-17 -78 -79 -118.5t-165 -40.5h-368l-34 -152h-30l146 656h30l-34 -151h347q89 0 141.5 -39.5zM710 359q0 55 -44.5 87.5t-121.5 32.5h-350l-67 -300h364q90 0 144 34.5t68 99.5l3 13q4 16 4 33z" />
    <glyph glyph-name="germandbls" unicode="&#xdf;" horiz-adv-x="723" 
d="M580.5 685q52.5 -21 81 -59.5t28.5 -88.5q0 -20 -4 -37l-3 -18q-11 -58 -50 -96t-102 -52q56 -14 86 -47t30 -82q0 -19 -4 -35l-2 -11q-15 -78 -76.5 -118.5t-165.5 -40.5h-126l6 26h120q93 0 147 34.5t68 102.5l2 11q3 15 3 29q0 57 -46 88t-131 31h-86l5 25h90
q85 0 137.5 35.5t66.5 101.5l3 17q3 17 3 33q0 67 -54.5 106.5t-150.5 39.5q-110 0 -179.5 -47.5t-89.5 -136.5l-111 -496h-29l111 498q22 100 100 154t200 54q70 0 122.5 -21z" />
    <glyph glyph-name="agrave" unicode="&#xe0;" horiz-adv-x="716" 
d="M668 26l-6 -26h-44q-43 0 -68 20.5t-25 55.5q0 14 2 21q-110 -107 -283 -107q-90 0 -139 30t-49 84q0 12 3 25q10 55 60 83t149 38l298 29l3 14q4 19 4 39q0 66 -52.5 103t-147.5 37q-97 0 -162.5 -41t-80.5 -112l-2 -9h-29l2 9q17 83 90 131t184 48q106 0 166.5 -44
t60.5 -120q0 -18 -5 -43l-40 -188q-2 -14 -2 -20q0 -28 17.5 -42.5t51.5 -14.5h44zM409.5 46.5q75.5 31.5 125.5 88.5l26 119l-295 -28q-86 -8 -128.5 -31.5t-50.5 -67.5q-2 -14 -2 -21q0 -44 41.5 -67.5t119.5 -23.5q88 0 163.5 31.5zM207 688l387 -86l-6 -26l-386 87z" />
    <glyph glyph-name="aacute" unicode="&#xe1;" horiz-adv-x="716" 
d="M668 26l-6 -26h-44q-43 0 -68 20.5t-25 55.5q0 14 2 21q-110 -107 -283 -107q-90 0 -139 30t-49 84q0 12 3 25q10 55 60 83t149 38l298 29l3 14q4 19 4 39q0 66 -52.5 103t-147.5 37q-97 0 -162.5 -41t-80.5 -112l-2 -9h-29l2 9q17 83 90 131t184 48q106 0 166.5 -44
t60.5 -120q0 -18 -5 -43l-40 -188q-2 -14 -2 -20q0 -28 17.5 -42.5t51.5 -14.5h44zM409.5 46.5q75.5 31.5 125.5 88.5l26 119l-295 -28q-86 -8 -128.5 -31.5t-50.5 -67.5q-2 -14 -2 -21q0 -44 41.5 -67.5t119.5 -23.5q88 0 163.5 31.5zM613 689l-6 -27l-425 -87l6 27z" />
    <glyph glyph-name="acircumflex" unicode="&#xe2;" horiz-adv-x="716" 
d="M668 26l-6 -26h-44q-43 0 -68 20.5t-25 55.5q0 14 2 21q-110 -107 -283 -107q-90 0 -139 30t-49 84q0 12 3 25q10 55 60 83t149 38l298 29l3 14q4 19 4 39q0 66 -52.5 103t-147.5 37q-97 0 -162.5 -41t-80.5 -112l-2 -9h-29l2 9q17 83 90 131t184 48q106 0 166.5 -44
t60.5 -120q0 -18 -5 -43l-40 -188q-2 -14 -2 -20q0 -28 17.5 -42.5t51.5 -14.5h44zM409.5 46.5q75.5 31.5 125.5 88.5l26 119l-295 -28q-86 -8 -128.5 -31.5t-50.5 -67.5q-2 -14 -2 -21q0 -44 41.5 -67.5t119.5 -23.5q88 0 163.5 31.5zM409 688l185 -86l-5 -26l-182 85
l-225 -87l7 29z" />
    <glyph glyph-name="atilde" unicode="&#xe3;" horiz-adv-x="716" 
d="M668 26l-6 -26h-44q-43 0 -68 20.5t-25 55.5q0 14 2 21q-110 -107 -283 -107q-90 0 -139 30t-49 84q0 12 3 25q10 55 60 83t149 38l298 29l3 14q4 19 4 39q0 66 -52.5 103t-147.5 37q-97 0 -162.5 -41t-80.5 -112l-2 -9h-29l2 9q17 83 90 131t184 48q106 0 166.5 -44
t60.5 -120q0 -18 -5 -43l-40 -188q-2 -14 -2 -20q0 -28 17.5 -42.5t51.5 -14.5h44zM409.5 46.5q75.5 31.5 125.5 88.5l26 119l-295 -28q-86 -8 -128.5 -31.5t-50.5 -67.5q-2 -14 -2 -21q0 -44 41.5 -67.5t119.5 -23.5q88 0 163.5 31.5zM442.5 598.5q-20.5 4.5 -53.5 14.5
q-5 1 -23.5 6.5t-34.5 8t-32 2.5q-54 0 -110 -26l6 27q56 25 105 25q23 0 42.5 -4.5t47.5 -13.5q32 -10 53.5 -14.5t47.5 -4.5q51 0 112 21l-7 -27q-59 -19 -107 -19q-26 0 -46.5 4.5z" />
    <glyph glyph-name="adieresis" unicode="&#xe4;" horiz-adv-x="716" 
d="M668 26l-6 -26h-44q-43 0 -68 20.5t-25 55.5q0 14 2 21q-110 -107 -283 -107q-90 0 -139 30t-49 84q0 12 3 25q10 55 60 83t149 38l298 29l3 14q4 19 4 39q0 66 -52.5 103t-147.5 37q-97 0 -162.5 -41t-80.5 -112l-2 -9h-29l2 9q17 83 90 131t184 48q106 0 166.5 -44
t60.5 -120q0 -18 -5 -43l-40 -188q-2 -14 -2 -20q0 -28 17.5 -42.5t51.5 -14.5h44zM409.5 46.5q75.5 31.5 125.5 88.5l26 119l-295 -28q-86 -8 -128.5 -31.5t-50.5 -67.5q-2 -14 -2 -21q0 -44 41.5 -67.5t119.5 -23.5q88 0 163.5 31.5zM249 604.5q-7 6.5 -7 17.5
q0 13 8 20.5t20 7.5q10 0 17.5 -6.5t7.5 -17.5q0 -12 -8.5 -20t-19.5 -8t-18 6.5zM504.5 605q-7.5 7 -7.5 18q0 12 8.5 19.5t19.5 7.5t18 -6t7 -16q0 -13 -8 -21.5t-19 -8.5t-18.5 7z" />
    <glyph glyph-name="aring" unicode="&#xe5;" horiz-adv-x="716" 
d="M668 26l-6 -26h-44q-43 0 -68 20.5t-25 55.5q0 14 2 21q-110 -107 -283 -107q-90 0 -139 30t-49 84q0 12 3 25q10 55 60 83t149 38l298 29l3 14q4 19 4 39q0 66 -52.5 103t-147.5 37q-97 0 -162.5 -41t-80.5 -112l-2 -9h-29l2 9q17 83 90 131t184 48q106 0 166.5 -44
t60.5 -120q0 -18 -5 -43l-40 -188q-2 -14 -2 -20q0 -28 17.5 -42.5t51.5 -14.5h44zM409.5 46.5q75.5 31.5 125.5 88.5l26 119l-295 -28q-86 -8 -128.5 -31.5t-50.5 -67.5q-2 -14 -2 -21q0 -44 41.5 -67.5t119.5 -23.5q88 0 163.5 31.5zM308 574.5q-33 25.5 -33 71.5
q0 48 34 75.5t93 27.5q58 0 91.5 -26t33.5 -71q0 -49 -33.5 -76t-93.5 -27q-59 0 -92 25.5zM474.5 592q26.5 22 26.5 60q0 35 -26 55.5t-72 20.5q-48 0 -75.5 -22t-27.5 -60q0 -35 27 -55.5t73 -20.5q48 0 74.5 22z" />
    <glyph glyph-name="ae" unicode="&#xe6;" horiz-adv-x="1098" 
d="M941.5 473q50.5 -25 78.5 -68.5t28 -99.5q0 -27 -5 -48l-3 -16h-477l-1 -5q-5 -28 -5 -48q0 -79 55.5 -126t150.5 -47q90 0 151.5 41.5t78.5 112.5h30q-19 -84 -88 -131.5t-170 -47.5q-85 0 -144 34.5t-81 94.5q-54 -66 -125.5 -97.5t-167.5 -31.5q-92 0 -141.5 29.5
t-49.5 83.5q0 6 2 20q8 57 55 85t149 36l277 23l4 18q4 20 4 43q0 68 -47.5 106t-134.5 38q-94 0 -157 -41t-78 -112l-1 -9h-30l2 9q16 83 87.5 131t178.5 48q90 0 143.5 -38t61.5 -106q34 67 101 105.5t153 38.5q65 0 115.5 -25zM569 265h446q4 19 4 40q0 74 -53 120.5
t-141 46.5q-101 0 -168 -53t-86 -147zM533 144q-5 22 -5 42q0 26 6 53l1 3l-271 -22q-91 -7 -132 -30t-47 -70q-1 -4 -1 -13q0 -45 41 -68.5t121 -23.5q184 0 287 129z" />
    <glyph glyph-name="ccedilla" unicode="&#xe7;" horiz-adv-x="670" 
d="M187 17.5q-60 27.5 -92.5 76t-32.5 109.5q0 26 6 54l5 23q22 105 97 161.5t194 56.5q72 0 130.5 -24t92 -65.5t33.5 -90.5q0 -14 -3 -29l-1 -7h-29l1 7q3 14 3 27q0 43 -29.5 79t-81.5 56.5t-117 20.5q-106 0 -174 -50.5t-88 -144.5l-5 -23q-6 -25 -6 -49q0 -55 29 -98
t82.5 -67t123.5 -24q96 0 161 41.5t79 112.5l2 7h30l-2 -7q-16 -83 -89 -131.5t-181 -48.5q-78 0 -138 27.5zM318 0l-89 -170h-32l93 178z" />
    <glyph glyph-name="egrave" unicode="&#xe8;" horiz-adv-x="671" 
d="M496 472q58 -26 90 -72t32 -104q0 -12 -4 -38l-4 -23h-518q-3 -16 -3 -33q0 -54 29 -96.5t82 -66t122 -23.5q99 0 162 39.5t81 113.5h31q-22 -87 -92 -133t-182 -46q-78 0 -137 27t-91.5 75.5t-32.5 109.5q0 27 6 54l5 24q23 105 98 161.5t194 56.5q74 0 132 -26z
M189 422.5q-67 -49.5 -87 -143.5l-5 -19h489v2q3 17 3 32q0 51 -28.5 91.5t-80 63.5t-117.5 23q-107 0 -174 -49.5zM207 688l387 -86l-6 -26l-386 87z" />
    <glyph glyph-name="eacute" unicode="&#xe9;" horiz-adv-x="671" 
d="M496 472q58 -26 90 -72t32 -104q0 -12 -4 -38l-4 -23h-518q-3 -16 -3 -33q0 -54 29 -96.5t82 -66t122 -23.5q99 0 162 39.5t81 113.5h31q-22 -87 -92 -133t-182 -46q-78 0 -137 27t-91.5 75.5t-32.5 109.5q0 27 6 54l5 24q23 105 98 161.5t194 56.5q74 0 132 -26z
M189 422.5q-67 -49.5 -87 -143.5l-5 -19h489v2q3 17 3 32q0 51 -28.5 91.5t-80 63.5t-117.5 23q-107 0 -174 -49.5zM613 689l-6 -27l-425 -87l6 27z" />
    <glyph glyph-name="ecircumflex" unicode="&#xea;" horiz-adv-x="671" 
d="M496 472q58 -26 90 -72t32 -104q0 -12 -4 -38l-4 -23h-518q-3 -16 -3 -33q0 -54 29 -96.5t82 -66t122 -23.5q99 0 162 39.5t81 113.5h31q-22 -87 -92 -133t-182 -46q-78 0 -137 27t-91.5 75.5t-32.5 109.5q0 27 6 54l5 24q23 105 98 161.5t194 56.5q74 0 132 -26z
M189 422.5q-67 -49.5 -87 -143.5l-5 -19h489v2q3 17 3 32q0 51 -28.5 91.5t-80 63.5t-117.5 23q-107 0 -174 -49.5zM409 688l185 -86l-5 -26l-182 85l-225 -87l7 29z" />
    <glyph glyph-name="edieresis" unicode="&#xeb;" horiz-adv-x="671" 
d="M496 472q58 -26 90 -72t32 -104q0 -12 -4 -38l-4 -23h-518q-3 -16 -3 -33q0 -54 29 -96.5t82 -66t122 -23.5q99 0 162 39.5t81 113.5h31q-22 -87 -92 -133t-182 -46q-78 0 -137 27t-91.5 75.5t-32.5 109.5q0 27 6 54l5 24q23 105 98 161.5t194 56.5q74 0 132 -26z
M189 422.5q-67 -49.5 -87 -143.5l-5 -19h489v2q3 17 3 32q0 51 -28.5 91.5t-80 63.5t-117.5 23q-107 0 -174 -49.5zM249 604.5q-7 6.5 -7 17.5q0 13 8 20.5t20 7.5q10 0 17.5 -6.5t7.5 -17.5q0 -12 -8.5 -20t-19.5 -8t-18 6.5zM504.5 605q-7.5 7 -7.5 18q0 12 8.5 19.5
t19.5 7.5t18 -6t7 -16q0 -13 -8 -21.5t-19 -8.5t-18.5 7z" />
    <glyph glyph-name="igrave" unicode="&#xec;" horiz-adv-x="286" 
d="M212 488l-109 -488h-29l109 488h29zM97 672l269 -53l-6 -26l-269 53z" />
    <glyph glyph-name="iacute" unicode="&#xed;" horiz-adv-x="286" 
d="M212 488l-109 -488h-29l109 488h29zM378 672l-6 -27l-292 -53l6 27z" />
    <glyph glyph-name="icircumflex" unicode="&#xee;" horiz-adv-x="286" 
d="M212 488l-109 -488h-29l109 488h29zM240 679l128 -59l-6 -26l-125 58l-156 -60l6 29z" />
    <glyph glyph-name="idieresis" unicode="&#xef;" horiz-adv-x="286" 
d="M212 488l-109 -488h-29l109 488h29zM108.5 605q-7.5 7 -7.5 18q0 12 8.5 19.5t19.5 7.5t18 -6.5t7 -16.5q0 -12 -8 -20.5t-19 -8.5t-18.5 7zM308.5 605q-7.5 7 -7.5 18q0 12 8.5 19.5t19.5 7.5t18 -6t7 -16q0 -13 -8 -21.5t-19 -8.5t-18.5 7z" />
    <glyph glyph-name="eth" unicode="&#xf0;" horiz-adv-x="684" 
d="M717 673l-246 -43q88 -44 128 -100.5t40 -135.5q0 -44 -12 -97l-18 -84q-25 -110 -100 -166.5t-198 -56.5q-75 0 -132 26.5t-88.5 73t-31.5 104.5q0 28 5 48l7 31q20 100 94.5 151.5t200.5 51.5q78 0 143 -31t101 -85q2 24 2 35q0 78 -43.5 131.5t-140.5 95.5l-283 -46
l5 25l240 38l-119 56l1 5h45l115 -51l291 50zM600 303l5 23q-29 56 -93 90t-144 34q-115 0 -183 -45.5t-85 -134.5l-7 -30q-5 -25 -5 -44q0 -52 28 -93t78.5 -64t117.5 -23q111 0 178.5 50.5t89.5 148.5z" />
    <glyph glyph-name="ntilde" unicode="&#xf1;" horiz-adv-x="711" 
d="M569.5 450.5q57.5 -47.5 57.5 -131.5q0 -32 -7 -63l-56 -256h-29l57 258q7 28 7 58q0 75 -50.5 115.5t-143.5 40.5q-72 0 -138 -31t-112 -86l-79 -355h-29l109 488h27l-19 -93q50 50 112.5 76.5t131.5 26.5q104 0 161.5 -47.5zM504.5 598.5q-20.5 4.5 -53.5 14.5
q-5 1 -23.5 6.5t-34.5 8t-32 2.5q-54 0 -110 -26l6 27q56 25 105 25q23 0 42.5 -4.5t47.5 -13.5q32 -10 53.5 -14.5t47.5 -4.5q51 0 112 21l-7 -27q-59 -19 -107 -19q-26 0 -46.5 4.5z" />
    <glyph glyph-name="ograve" unicode="&#xf2;" horiz-adv-x="685" 
d="M185.5 17.5q-59.5 27.5 -92 76t-32.5 109.5q0 26 6 53l5 23q23 106 98 162.5t195 56.5q77 0 135.5 -27.5t91 -76t32.5 -110.5q0 -25 -6 -54l-6 -22q-20 -103 -95 -160.5t-194 -57.5q-78 0 -137.5 27.5zM498 67.5q67 51.5 85 141.5l5 23q6 27 6 52q0 54 -28 97t-80 67
t-121 24q-111 0 -178 -51t-86 -144l-5 -22q-6 -25 -6 -49q0 -55 29 -98.5t82 -67.5t122 -24q108 0 175 51.5zM214 688l387 -86l-6 -26l-386 87z" />
    <glyph glyph-name="oacute" unicode="&#xf3;" horiz-adv-x="685" 
d="M185.5 17.5q-59.5 27.5 -92 76t-32.5 109.5q0 26 6 53l5 23q23 106 98 162.5t195 56.5q77 0 135.5 -27.5t91 -76t32.5 -110.5q0 -25 -6 -54l-6 -22q-20 -103 -95 -160.5t-194 -57.5q-78 0 -137.5 27.5zM498 67.5q67 51.5 85 141.5l5 23q6 27 6 52q0 54 -28 97t-80 67
t-121 24q-111 0 -178 -51t-86 -144l-5 -22q-6 -25 -6 -49q0 -55 29 -98.5t82 -67.5t122 -24q108 0 175 51.5zM620 689l-6 -27l-425 -87l6 27z" />
    <glyph glyph-name="ocircumflex" unicode="&#xf4;" horiz-adv-x="685" 
d="M185.5 17.5q-59.5 27.5 -92 76t-32.5 109.5q0 26 6 53l5 23q23 106 98 162.5t195 56.5q77 0 135.5 -27.5t91 -76t32.5 -110.5q0 -25 -6 -54l-6 -22q-20 -103 -95 -160.5t-194 -57.5q-78 0 -137.5 27.5zM498 67.5q67 51.5 85 141.5l5 23q6 27 6 52q0 54 -28 97t-80 67
t-121 24q-111 0 -178 -51t-86 -144l-5 -22q-6 -25 -6 -49q0 -55 29 -98.5t82 -67.5t122 -24q108 0 175 51.5zM416 688l185 -86l-5 -26l-182 85l-225 -87l7 29z" />
    <glyph glyph-name="otilde" unicode="&#xf5;" horiz-adv-x="685" 
d="M185.5 17.5q-59.5 27.5 -92 76t-32.5 109.5q0 26 6 53l5 23q23 106 98 162.5t195 56.5q77 0 135.5 -27.5t91 -76t32.5 -110.5q0 -25 -6 -54l-6 -22q-20 -103 -95 -160.5t-194 -57.5q-78 0 -137.5 27.5zM498 67.5q67 51.5 85 141.5l5 23q6 27 6 52q0 54 -28 97t-80 67
t-121 24q-111 0 -178 -51t-86 -144l-5 -22q-6 -25 -6 -49q0 -55 29 -98.5t82 -67.5t122 -24q108 0 175 51.5zM449.5 598.5q-20.5 4.5 -53.5 14.5q-5 1 -23.5 6.5t-34.5 8t-32 2.5q-54 0 -110 -26l6 27q56 25 105 25q23 0 42.5 -4.5t47.5 -13.5q32 -10 53.5 -14.5t47.5 -4.5
q51 0 112 21l-7 -27q-59 -19 -107 -19q-26 0 -46.5 4.5z" />
    <glyph glyph-name="odieresis" unicode="&#xf6;" horiz-adv-x="685" 
d="M185.5 17.5q-59.5 27.5 -92 76t-32.5 109.5q0 26 6 53l5 23q23 106 98 162.5t195 56.5q77 0 135.5 -27.5t91 -76t32.5 -110.5q0 -25 -6 -54l-6 -22q-20 -103 -95 -160.5t-194 -57.5q-78 0 -137.5 27.5zM498 67.5q67 51.5 85 141.5l5 23q6 27 6 52q0 54 -28 97t-80 67
t-121 24q-111 0 -178 -51t-86 -144l-5 -22q-6 -25 -6 -49q0 -55 29 -98.5t82 -67.5t122 -24q108 0 175 51.5zM255 604.5q-7 6.5 -7 17.5q0 13 8 20.5t20 7.5q10 0 17.5 -6.5t7.5 -17.5q0 -12 -8.5 -20t-19.5 -8t-18 6.5zM510.5 605q-7.5 7 -7.5 18q0 12 8.5 19.5t19.5 7.5
t18 -6t7 -16q0 -13 -8 -21.5t-19 -8.5t-18.5 7z" />
    <glyph glyph-name="divide" unicode="&#xf7;" horiz-adv-x="816" 
d="M453 512.5q-7 6.5 -7 17.5q0 12 8.5 20t19.5 8t18 -6.5t7 -16.5q0 -13 -8 -21t-19 -8q-12 0 -19 6.5zM737 342l-6 -27h-614l6 27h614zM362.5 105q-7.5 7 -7.5 17q0 12 8.5 20t19.5 8t18 -6.5t7 -17.5q0 -12 -8 -20t-19 -8t-18.5 7z" />
    <glyph glyph-name="oslash" unicode="&#xf8;" horiz-adv-x="685" 
d="M603.5 375q20.5 -41 20.5 -89q0 -29 -7 -56l-5 -23q-22 -104 -97.5 -160.5t-193.5 -56.5q-93 0 -160 39l-68 -72h-32l1 5l77 82q-38 29 -58 69.5t-20 88.5q0 26 6 54l5 23q23 106 98.5 162.5t196.5 56.5q91 0 157 -39l68 72h32l-1 -5l-78 -81q38 -29 58.5 -70zM90 203
q0 -42 18 -78t51 -61l345 375q-58 33 -138 33q-109 0 -177 -50.5t-88 -145.5l-5 -22q-6 -27 -6 -51zM594 284q0 43 -17.5 79t-50.5 61l-346 -374q59 -34 142 -34q107 0 174.5 50t86.5 144l5 22q6 27 6 52z" />
    <glyph glyph-name="ugrave" unicode="&#xf9;" horiz-adv-x="711" 
d="M664 488l-109 -488h-26l18 93q-49 -50 -111.5 -76.5t-130.5 -26.5q-106 0 -163.5 47.5t-57.5 132.5q0 31 7 62l56 256h29l-57 -258q-7 -28 -7 -57q0 -75 51 -116t145 -41q71 0 136.5 31t110.5 86l80 355h29zM248 688l387 -86l-6 -26l-386 87z" />
    <glyph glyph-name="uacute" unicode="&#xfa;" horiz-adv-x="711" 
d="M664 488l-109 -488h-26l18 93q-49 -50 -111.5 -76.5t-130.5 -26.5q-106 0 -163.5 47.5t-57.5 132.5q0 31 7 62l56 256h29l-57 -258q-7 -28 -7 -57q0 -75 51 -116t145 -41q71 0 136.5 31t110.5 86l80 355h29zM654 689l-6 -27l-425 -87l6 27z" />
    <glyph glyph-name="ucircumflex" unicode="&#xfb;" horiz-adv-x="711" 
d="M664 488l-109 -488h-26l18 93q-49 -50 -111.5 -76.5t-130.5 -26.5q-106 0 -163.5 47.5t-57.5 132.5q0 31 7 62l56 256h29l-57 -258q-7 -28 -7 -57q0 -75 51 -116t145 -41q71 0 136.5 31t110.5 86l80 355h29zM450 688l185 -86l-5 -26l-182 85l-225 -87l7 29z" />
    <glyph glyph-name="udieresis" unicode="&#xfc;" horiz-adv-x="711" 
d="M664 488l-109 -488h-26l18 93q-49 -50 -111.5 -76.5t-130.5 -26.5q-106 0 -163.5 47.5t-57.5 132.5q0 31 7 62l56 256h29l-57 -258q-7 -28 -7 -57q0 -75 51 -116t145 -41q71 0 136.5 31t110.5 86l80 355h29zM289 604.5q-7 6.5 -7 17.5q0 13 8 20.5t20 7.5q10 0 17.5 -6.5
t7.5 -17.5q0 -12 -8.5 -20t-19.5 -8t-18 6.5zM544.5 605q-7.5 7 -7.5 18q0 12 8.5 19.5t19.5 7.5t18 -6t7 -16q0 -13 -8 -21.5t-19 -8.5t-18.5 7z" />
    <glyph glyph-name="yacute" unicode="&#xfd;" horiz-adv-x="697" 
d="M682 488l-1 -5l-432 -556q-30 -39 -54.5 -59t-54.5 -29t-76 -9h-68l5 25h65q55 0 87 17t70 65l47 61l-162 485l1 5h28l153 -465l360 465h32zM643 689l-6 -27l-425 -87l6 27z" />
    <glyph glyph-name="thorn" unicode="&#xfe;" horiz-adv-x="710" 
d="M532 471q56 -27 86.5 -75.5t30.5 -109.5q0 -28 -5 -51l-5 -24q-21 -105 -97 -163t-202 -58q-77 0 -142 33t-97 88l-63 -281h-29l193 866h29l-66 -297q49 50 108 74.5t130 24.5q73 0 129 -27zM620 284q0 55 -27 97.5t-77.5 66.5t-116.5 24q-74 0 -134 -27.5t-109 -83.5
l-49 -219q27 -56 91.5 -91t141.5 -35q111 0 181 51.5t88 145.5l6 24q5 27 5 47z" />
    <glyph glyph-name="ydieresis" unicode="&#xff;" horiz-adv-x="697" 
d="M682 488l-1 -5l-432 -556q-30 -39 -54.5 -59t-54.5 -29t-76 -9h-68l5 25h65q55 0 87 17t70 65l47 61l-162 485l1 5h28l153 -465l360 465h32zM279 604.5q-7 6.5 -7 17.5q0 13 8 20.5t20 7.5q10 0 17.5 -6.5t7.5 -17.5q0 -12 -8.5 -20t-19.5 -8t-18 6.5zM534.5 605
q-7.5 7 -7.5 18q0 12 8.5 19.5t19.5 7.5t18 -6t7 -16q0 -13 -8 -21.5t-19 -8.5t-18.5 7z" />
    <glyph glyph-name="Amacron" unicode="&#x100;" horiz-adv-x="770" 
d="M696 6l-1 -6h-29l-61 211h-426l-156 -211h-34l2 6l480 650h35zM597 238l-113 387l-286 -387h399zM724 805l-5 -25h-406l5 25h406z" />
    <glyph glyph-name="amacron" unicode="&#x101;" horiz-adv-x="716" 
d="M668 26l-6 -26h-44q-43 0 -68 20.5t-25 55.5q0 14 2 21q-110 -107 -283 -107q-90 0 -139 30t-49 84q0 12 3 25q10 55 60 83t149 38l298 29l3 14q4 19 4 39q0 66 -52.5 103t-147.5 37q-97 0 -162.5 -41t-80.5 -112l-2 -9h-29l2 9q17 83 90 131t184 48q106 0 166.5 -44
t60.5 -120q0 -18 -5 -43l-40 -188q-2 -14 -2 -20q0 -28 17.5 -42.5t51.5 -14.5h44zM409.5 46.5q75.5 31.5 125.5 88.5l26 119l-295 -28q-86 -8 -128.5 -31.5t-50.5 -67.5q-2 -14 -2 -21q0 -44 41.5 -67.5t119.5 -23.5q88 0 163.5 31.5zM602 637l-5 -25h-406l5 25h406z" />
    <glyph glyph-name="Abreve" unicode="&#x102;" horiz-adv-x="770" 
d="M696 6l-1 -6h-29l-61 211h-426l-156 -211h-34l2 6l480 650h35zM597 238l-113 387l-286 -387h399zM321 812l5 25q96 -65 195 -65q97 0 211 65l-7 -28q-104 -62 -206 -62q-101 0 -198 65z" />
    <glyph glyph-name="abreve" unicode="&#x103;" horiz-adv-x="716" 
d="M668 26l-6 -26h-44q-43 0 -68 20.5t-25 55.5q0 14 2 21q-110 -107 -283 -107q-90 0 -139 30t-49 84q0 12 3 25q10 55 60 83t149 38l298 29l3 14q4 19 4 39q0 66 -52.5 103t-147.5 37q-97 0 -162.5 -41t-80.5 -112l-2 -9h-29l2 9q17 83 90 131t184 48q106 0 166.5 -44
t60.5 -120q0 -18 -5 -43l-40 -188q-2 -14 -2 -20q0 -28 17.5 -42.5t51.5 -14.5h44zM409.5 46.5q75.5 31.5 125.5 88.5l26 119l-295 -28q-86 -8 -128.5 -31.5t-50.5 -67.5q-2 -14 -2 -21q0 -44 41.5 -67.5t119.5 -23.5q88 0 163.5 31.5zM199 644l5 25q96 -65 195 -65
q97 0 211 65l-7 -28q-104 -62 -206 -62q-101 0 -198 65z" />
    <glyph glyph-name="Aogonek" unicode="&#x104;" horiz-adv-x="770" 
d="M696 6l-1 -6h-29l-61 211h-426l-156 -211h-34l2 6l480 650h35zM597 238l-113 387l-286 -387h399zM506 -156.5q-18 13.5 -18 36.5t17 40.5t59 38.5l123 61l9 -20l-119 -57q-34 -16 -46.5 -28.5t-12.5 -29.5q0 -14 11 -22t31 -8h104l-6 -25h-104q-30 0 -48 13.5z" />
    <glyph glyph-name="aogonek" unicode="&#x105;" horiz-adv-x="716" 
d="M668 26l-6 -26h-44q-43 0 -68 20.5t-25 55.5q0 14 2 21q-110 -107 -283 -107q-90 0 -139 30t-49 84q0 12 3 25q10 55 60 83t149 38l298 29l3 14q4 19 4 39q0 66 -52.5 103t-147.5 37q-97 0 -162.5 -41t-80.5 -112l-2 -9h-29l2 9q17 83 90 131t184 48q106 0 166.5 -44
t60.5 -120q0 -18 -5 -43l-40 -188q-2 -14 -2 -20q0 -28 17.5 -42.5t51.5 -14.5h44zM409.5 46.5q75.5 31.5 125.5 88.5l26 119l-295 -28q-86 -8 -128.5 -31.5t-50.5 -67.5q-2 -14 -2 -21q0 -44 41.5 -67.5t119.5 -23.5q88 0 163.5 31.5zM473 -156.5q-18 13.5 -18 36.5
t17 40.5t59 38.5l123 61l9 -20l-119 -57q-34 -16 -46.5 -28.5t-12.5 -29.5q0 -14 11 -22t31 -8h104l-6 -25h-104q-30 0 -48 13.5z" />
    <glyph glyph-name="Cacute" unicode="&#x106;" horiz-adv-x="874" 
d="M255.5 24q-73.5 34 -113 95.5t-39.5 141.5q0 38 9 78l5 24q32 147 129.5 225t250.5 78q89 0 161.5 -31.5t114.5 -85t42 -116.5q0 -21 -4 -38l-2 -11h-30l3 11q4 16 4 35q0 57 -38 105t-104.5 76t-147.5 28q-141 0 -231 -72t-119 -207l-6 -25q-8 -33 -8 -73
q0 -73 36 -128.5t102.5 -86t157.5 -30.5q81 0 148 25.5t111.5 72t58.5 107.5l3 13h30l-3 -13q-16 -70 -64.5 -122.5t-121.5 -81t-162 -28.5q-99 0 -172.5 34zM766 857l-6 -27l-425 -87l6 27z" />
    <glyph glyph-name="cacute" unicode="&#x107;" horiz-adv-x="670" 
d="M187 17.5q-60 27.5 -92.5 76t-32.5 109.5q0 26 6 54l5 23q22 105 97 161.5t194 56.5q72 0 130.5 -24t92 -65.5t33.5 -90.5q0 -14 -3 -29l-1 -7h-29l1 7q3 14 3 27q0 43 -29.5 79t-81.5 56.5t-117 20.5q-106 0 -174 -50.5t-88 -144.5l-5 -23q-6 -25 -6 -49q0 -55 29 -98
t82.5 -67t123.5 -24q96 0 161 41.5t79 112.5l2 7h30l-2 -7q-16 -83 -89 -131.5t-181 -48.5q-78 0 -138 27.5zM609 689l-6 -27l-425 -87l6 27z" />
    <glyph glyph-name="Ccircumflex" unicode="&#x108;" horiz-adv-x="874" 
d="M255.5 24q-73.5 34 -113 95.5t-39.5 141.5q0 38 9 78l5 24q32 147 129.5 225t250.5 78q89 0 161.5 -31.5t114.5 -85t42 -116.5q0 -21 -4 -38l-2 -11h-30l3 11q4 16 4 35q0 57 -38 105t-104.5 76t-147.5 28q-141 0 -231 -72t-119 -207l-6 -25q-8 -33 -8 -73
q0 -73 36 -128.5t102.5 -86t157.5 -30.5q81 0 148 25.5t111.5 72t58.5 107.5l3 13h30l-3 -13q-16 -70 -64.5 -122.5t-121.5 -81t-162 -28.5q-99 0 -172.5 34zM562 856l185 -86l-5 -26l-182 85l-225 -87l7 29z" />
    <glyph glyph-name="ccircumflex" unicode="&#x109;" horiz-adv-x="670" 
d="M187 17.5q-60 27.5 -92.5 76t-32.5 109.5q0 26 6 54l5 23q22 105 97 161.5t194 56.5q72 0 130.5 -24t92 -65.5t33.5 -90.5q0 -14 -3 -29l-1 -7h-29l1 7q3 14 3 27q0 43 -29.5 79t-81.5 56.5t-117 20.5q-106 0 -174 -50.5t-88 -144.5l-5 -23q-6 -25 -6 -49q0 -55 29 -98
t82.5 -67t123.5 -24q96 0 161 41.5t79 112.5l2 7h30l-2 -7q-16 -83 -89 -131.5t-181 -48.5q-78 0 -138 27.5zM405 688l185 -86l-5 -26l-182 85l-225 -87l7 29z" />
    <glyph glyph-name="Cdotaccent" unicode="&#x10a;" horiz-adv-x="874" 
d="M255.5 24q-73.5 34 -113 95.5t-39.5 141.5q0 38 9 78l5 24q32 147 129.5 225t250.5 78q89 0 161.5 -31.5t114.5 -85t42 -116.5q0 -21 -4 -38l-2 -11h-30l3 11q4 16 4 35q0 57 -38 105t-104.5 76t-147.5 28q-141 0 -231 -72t-119 -207l-6 -25q-8 -33 -8 -73
q0 -73 36 -128.5t102.5 -86t157.5 -30.5q81 0 148 25.5t111.5 72t58.5 107.5l3 13h30l-3 -13q-16 -70 -64.5 -122.5t-121.5 -81t-162 -28.5q-99 0 -172.5 34zM530 773q-8 7 -8 18q0 13 8.5 20.5t20.5 7.5q11 0 18.5 -7t7.5 -18q0 -13 -8 -20.5t-20 -7.5q-11 0 -19 7z" />
    <glyph glyph-name="cdotaccent" unicode="&#x10b;" horiz-adv-x="670" 
d="M187 17.5q-60 27.5 -92.5 76t-32.5 109.5q0 26 6 54l5 23q22 105 97 161.5t194 56.5q72 0 130.5 -24t92 -65.5t33.5 -90.5q0 -14 -3 -29l-1 -7h-29l1 7q3 14 3 27q0 43 -29.5 79t-81.5 56.5t-117 20.5q-106 0 -174 -50.5t-88 -144.5l-5 -23q-6 -25 -6 -49q0 -55 29 -98
t82.5 -67t123.5 -24q96 0 161 41.5t79 112.5l2 7h30l-2 -7q-16 -83 -89 -131.5t-181 -48.5q-78 0 -138 27.5zM372 605q-8 7 -8 18q0 13 8.5 20.5t20.5 7.5q11 0 18.5 -7t7.5 -18q0 -13 -8 -20.5t-20 -7.5q-11 0 -19 7z" />
    <glyph glyph-name="Ccaron" unicode="&#x10c;" horiz-adv-x="874" 
d="M255.5 24q-73.5 34 -113 95.5t-39.5 141.5q0 38 9 78l5 24q32 147 129.5 225t250.5 78q89 0 161.5 -31.5t114.5 -85t42 -116.5q0 -21 -4 -38l-2 -11h-30l3 11q4 16 4 35q0 57 -38 105t-104.5 76t-147.5 28q-141 0 -231 -72t-119 -207l-6 -25q-8 -33 -8 -73
q0 -73 36 -128.5t102.5 -86t157.5 -30.5q81 0 148 25.5t111.5 72t58.5 107.5l3 13h30l-3 -13q-16 -70 -64.5 -122.5t-121.5 -81t-162 -28.5q-99 0 -172.5 34zM360 856l182 -85l225 87l-7 -30l-221 -84l-185 85z" />
    <glyph glyph-name="ccaron" unicode="&#x10d;" horiz-adv-x="670" 
d="M187 17.5q-60 27.5 -92.5 76t-32.5 109.5q0 26 6 54l5 23q22 105 97 161.5t194 56.5q72 0 130.5 -24t92 -65.5t33.5 -90.5q0 -14 -3 -29l-1 -7h-29l1 7q3 14 3 27q0 43 -29.5 79t-81.5 56.5t-117 20.5q-106 0 -174 -50.5t-88 -144.5l-5 -23q-6 -25 -6 -49q0 -55 29 -98
t82.5 -67t123.5 -24q96 0 161 41.5t79 112.5l2 7h30l-2 -7q-16 -83 -89 -131.5t-181 -48.5q-78 0 -138 27.5zM203 688l182 -85l225 87l-7 -30l-221 -84l-185 85z" />
    <glyph glyph-name="Dcaron" unicode="&#x10e;" horiz-adv-x="826" 
d="M465 656q143 0 222.5 -65t79.5 -181q0 -41 -10 -84l-5 -20q-34 -154 -131 -230t-266 -76h-298l146 656h262zM601.5 96.5q89.5 69.5 121.5 211.5l4 21q10 41 10 82q0 105 -71.5 162t-202.5 57h-236l-135 -603h265q155 0 244.5 69.5zM276 856l182 -85l225 87l-7 -30
l-221 -84l-185 85z" />
    <glyph glyph-name="dcaron" unicode="&#x10f;" horiz-adv-x="920" 
d="M709 696l-155 -696h-26l17 89q-49 -50 -108 -74.5t-130 -24.5q-73 0 -129 27t-86.5 75t-30.5 109q0 30 5 52l6 24q19 104 95 162.5t203 58.5q76 0 141.5 -33t97.5 -87l71 318h29zM553 126l49 221q-27 56 -91.5 90.5t-140.5 34.5q-111 0 -180.5 -50.5t-88.5 -145.5l-6 -24
q-5 -27 -5 -48q0 -55 27 -97.5t77.5 -66.5t116.5 -24q144 0 242 110zM955 696l-81 -177h-29l75 177h35z" />
    <glyph glyph-name="Dcroat" unicode="&#x110;" horiz-adv-x="859" 
d="M720.5 591q79.5 -65 79.5 -181q0 -41 -10 -84l-5 -20q-34 -154 -131 -230t-266 -76h-298l70 315h-129l6 26h129l70 315h262q143 0 222.5 -65zM770 411q0 105 -71.5 162t-202.5 57h-236l-65 -289h253l-6 -26h-253l-64 -288h265q155 0 244.5 69.5t121.5 211.5l4 21
q10 41 10 82z" />
    <glyph glyph-name="dcroat" unicode="&#x111;" horiz-adv-x="736" 
d="M819 608h-130l-135 -608h-27l18 89q-97 -99 -236 -99q-74 0 -130.5 26.5t-87 74t-30.5 108.5q0 30 5 52l5 24q21 107 97.5 163.5t200.5 56.5q77 0 142 -33t98 -87l51 233h-258l5 26h259l14 62h29l-14 -62h129zM553 125l49 219q-28 55 -92.5 90t-139.5 35
q-112 0 -181.5 -50.5t-88.5 -144.5l-5 -24q-5 -21 -5 -49q0 -54 27 -96t77 -65.5t117 -23.5q143 0 242 109z" />
    <glyph glyph-name="Emacron" unicode="&#x112;" horiz-adv-x="723" 
d="M727 656l-6 -26h-494l-64 -289h474l-6 -26h-474l-65 -288h495l-6 -27h-524l146 656h524zM700 805l-5 -25h-406l5 25h406z" />
    <glyph glyph-name="emacron" unicode="&#x113;" horiz-adv-x="671" 
d="M496 472q58 -26 90 -72t32 -104q0 -12 -4 -38l-4 -23h-518q-3 -16 -3 -33q0 -54 29 -96.5t82 -66t122 -23.5q99 0 162 39.5t81 113.5h31q-22 -87 -92 -133t-182 -46q-78 0 -137 27t-91.5 75.5t-32.5 109.5q0 27 6 54l5 24q23 105 98 161.5t194 56.5q74 0 132 -26z
M189 422.5q-67 -49.5 -87 -143.5l-5 -19h489v2q3 17 3 32q0 51 -28.5 91.5t-80 63.5t-117.5 23q-107 0 -174 -49.5zM602 637l-5 -25h-406l5 25h406z" />
    <glyph glyph-name="Ebreve" unicode="&#x114;" horiz-adv-x="723" 
d="M727 656l-6 -26h-494l-64 -289h474l-6 -26h-474l-65 -288h495l-6 -27h-524l146 656h524zM297 812l5 25q96 -65 195 -65q97 0 211 65l-7 -28q-104 -62 -206 -62q-101 0 -198 65z" />
    <glyph glyph-name="ebreve" unicode="&#x115;" horiz-adv-x="671" 
d="M496 472q58 -26 90 -72t32 -104q0 -12 -4 -38l-4 -23h-518q-3 -16 -3 -33q0 -54 29 -96.5t82 -66t122 -23.5q99 0 162 39.5t81 113.5h31q-22 -87 -92 -133t-182 -46q-78 0 -137 27t-91.5 75.5t-32.5 109.5q0 27 6 54l5 24q23 105 98 161.5t194 56.5q74 0 132 -26z
M189 422.5q-67 -49.5 -87 -143.5l-5 -19h489v2q3 17 3 32q0 51 -28.5 91.5t-80 63.5t-117.5 23q-107 0 -174 -49.5zM199 644l5 25q96 -65 195 -65q97 0 211 65l-7 -28q-104 -62 -206 -62q-101 0 -198 65z" />
    <glyph glyph-name="Edotaccent" unicode="&#x116;" horiz-adv-x="723" 
d="M727 656l-6 -26h-494l-64 -289h474l-6 -26h-474l-65 -288h495l-6 -27h-524l146 656h524zM475 773q-8 7 -8 18q0 13 8.5 20.5t20.5 7.5q11 0 18.5 -7t7.5 -18q0 -13 -8 -20.5t-20 -7.5q-11 0 -19 7z" />
    <glyph glyph-name="edotaccent" unicode="&#x117;" horiz-adv-x="671" 
d="M496 472q58 -26 90 -72t32 -104q0 -12 -4 -38l-4 -23h-518q-3 -16 -3 -33q0 -54 29 -96.5t82 -66t122 -23.5q99 0 162 39.5t81 113.5h31q-22 -87 -92 -133t-182 -46q-78 0 -137 27t-91.5 75.5t-32.5 109.5q0 27 6 54l5 24q23 105 98 161.5t194 56.5q74 0 132 -26z
M189 422.5q-67 -49.5 -87 -143.5l-5 -19h489v2q3 17 3 32q0 51 -28.5 91.5t-80 63.5t-117.5 23q-107 0 -174 -49.5zM377 605q-8 7 -8 18q0 13 8.5 20.5t20.5 7.5q11 0 18.5 -7t7.5 -18q0 -13 -8 -20.5t-20 -7.5q-11 0 -19 7z" />
    <glyph glyph-name="Eogonek" unicode="&#x118;" horiz-adv-x="723" 
d="M727 656l-6 -26h-494l-64 -289h474l-6 -26h-474l-65 -288h495l-6 -27h-524l146 656h524zM391 -156.5q-18 13.5 -18 36.5t17 40.5t59 38.5l123 61l9 -20l-119 -57q-34 -16 -46.5 -28.5t-12.5 -29.5q0 -14 11 -22t31 -8h104l-6 -25h-104q-30 0 -48 13.5z" />
    <glyph glyph-name="eogonek" unicode="&#x119;" horiz-adv-x="671" 
d="M496 472q58 -26 90 -72t32 -104q0 -12 -4 -38l-4 -23h-518q-3 -16 -3 -33q0 -54 29 -96.5t82 -66t122 -23.5q99 0 162 39.5t81 113.5h31q-22 -87 -92 -133t-182 -46q-78 0 -137 27t-91.5 75.5t-32.5 109.5q0 27 6 54l5 24q23 105 98 161.5t194 56.5q74 0 132 -26z
M189 422.5q-67 -49.5 -87 -143.5l-5 -19h489v2q3 17 3 32q0 51 -28.5 91.5t-80 63.5t-117.5 23q-107 0 -174 -49.5zM293 -156.5q-17 13.5 -17 35.5q0 24 18 42t69 51l121 78l23 -10l-132 -86q-39 -26 -53 -39.5t-14 -29.5q0 -14 10.5 -22t30.5 -8h114l-6 -25h-118
q-29 0 -46 13.5z" />
    <glyph glyph-name="Ecaron" unicode="&#x11a;" horiz-adv-x="723" 
d="M727 656l-6 -26h-494l-64 -289h474l-6 -26h-474l-65 -288h495l-6 -27h-524l146 656h524zM306 856l182 -85l225 87l-7 -30l-221 -84l-185 85z" />
    <glyph glyph-name="ecaron" unicode="&#x11b;" horiz-adv-x="671" 
d="M496 472q58 -26 90 -72t32 -104q0 -12 -4 -38l-4 -23h-518q-3 -16 -3 -33q0 -54 29 -96.5t82 -66t122 -23.5q99 0 162 39.5t81 113.5h31q-22 -87 -92 -133t-182 -46q-78 0 -137 27t-91.5 75.5t-32.5 109.5q0 27 6 54l5 24q23 105 98 161.5t194 56.5q74 0 132 -26z
M189 422.5q-67 -49.5 -87 -143.5l-5 -19h489v2q3 17 3 32q0 51 -28.5 91.5t-80 63.5t-117.5 23q-107 0 -174 -49.5zM207 688l182 -85l225 87l-7 -30l-221 -84l-185 85z" />
    <glyph glyph-name="Gcircumflex" unicode="&#x11c;" horiz-adv-x="879" 
d="M674 639q74 -27 116 -73.5t42 -102.5q0 -18 -4 -34l-2 -9h-30l2 9q4 20 4 30q0 50 -38 91.5t-105.5 65t-151.5 23.5q-147 0 -239 -71t-122 -208l-6 -25q-8 -33 -8 -72q0 -73 35 -129t100.5 -86.5t154.5 -30.5q100 0 174.5 31.5t141.5 102.5l32 144h-378l6 27h408
l-72 -322h-26l22 110q-64 -63 -138.5 -91.5t-171.5 -28.5q-96 0 -168 34.5t-111 96t-39 141.5q0 36 9 75l5 25q33 148 133 226t259 78q92 0 166 -27zM556 856l185 -86l-5 -26l-182 85l-225 -87l7 29z" />
    <glyph glyph-name="gcircumflex" unicode="&#x11d;" horiz-adv-x="709" 
d="M662 488l-105 -469q-22 -100 -97.5 -149.5t-206.5 -49.5q-76 0 -133 19t-87.5 53.5t-30.5 79.5q0 17 2 25l2 11h30l-3 -11q-2 -14 -2 -21q0 -59 60.5 -94.5t161.5 -35.5q117 0 186 44t89 130l21 94q-50 -50 -112.5 -76t-130.5 -26q-74 0 -129.5 25t-85.5 69.5t-30 103.5
q0 26 6 53l5 23q22 105 97 158.5t201 53.5q76 0 140 -31.5t99 -85.5l25 107h28zM443.5 68q64.5 29 113.5 82l45 201q-29 54 -92.5 87.5t-139.5 33.5q-114 0 -181.5 -47.5t-87.5 -139.5l-5 -23q-6 -25 -6 -49q0 -79 58.5 -126.5t160.5 -47.5q70 0 134.5 29zM417 688l185 -86
l-5 -26l-182 85l-225 -87l7 29z" />
    <glyph glyph-name="Gbreve" unicode="&#x11e;" horiz-adv-x="879" 
d="M674 639q74 -27 116 -73.5t42 -102.5q0 -18 -4 -34l-2 -9h-30l2 9q4 20 4 30q0 50 -38 91.5t-105.5 65t-151.5 23.5q-147 0 -239 -71t-122 -208l-6 -25q-8 -33 -8 -72q0 -73 35 -129t100.5 -86.5t154.5 -30.5q100 0 174.5 31.5t141.5 102.5l32 144h-378l6 27h408
l-72 -322h-26l22 110q-64 -63 -138.5 -91.5t-171.5 -28.5q-96 0 -168 34.5t-111 96t-39 141.5q0 36 9 75l5 25q33 148 133 226t259 78q92 0 166 -27zM345 812l5 25q96 -65 195 -65q97 0 211 65l-7 -28q-104 -62 -206 -62q-101 0 -198 65z" />
    <glyph glyph-name="gbreve" unicode="&#x11f;" horiz-adv-x="709" 
d="M662 488l-105 -469q-22 -100 -97.5 -149.5t-206.5 -49.5q-76 0 -133 19t-87.5 53.5t-30.5 79.5q0 17 2 25l2 11h30l-3 -11q-2 -14 -2 -21q0 -59 60.5 -94.5t161.5 -35.5q117 0 186 44t89 130l21 94q-50 -50 -112.5 -76t-130.5 -26q-74 0 -129.5 25t-85.5 69.5t-30 103.5
q0 26 6 53l5 23q22 105 97 158.5t201 53.5q76 0 140 -31.5t99 -85.5l25 107h28zM443.5 68q64.5 29 113.5 82l45 201q-29 54 -92.5 87.5t-139.5 33.5q-114 0 -181.5 -47.5t-87.5 -139.5l-5 -23q-6 -25 -6 -49q0 -79 58.5 -126.5t160.5 -47.5q70 0 134.5 29zM207 644l5 25
q96 -65 195 -65q97 0 211 65l-7 -28q-104 -62 -206 -62q-101 0 -198 65z" />
    <glyph glyph-name="Gdotaccent" unicode="&#x120;" horiz-adv-x="879" 
d="M674 639q74 -27 116 -73.5t42 -102.5q0 -18 -4 -34l-2 -9h-30l2 9q4 20 4 30q0 50 -38 91.5t-105.5 65t-151.5 23.5q-147 0 -239 -71t-122 -208l-6 -25q-8 -33 -8 -72q0 -73 35 -129t100.5 -86.5t154.5 -30.5q100 0 174.5 31.5t141.5 102.5l32 144h-378l6 27h408
l-72 -322h-26l22 110q-64 -63 -138.5 -91.5t-171.5 -28.5q-96 0 -168 34.5t-111 96t-39 141.5q0 36 9 75l5 25q33 148 133 226t259 78q92 0 166 -27zM524 773q-8 7 -8 18q0 13 8.5 20.5t20.5 7.5q11 0 18.5 -7t7.5 -18q0 -13 -8 -20.5t-20 -7.5q-11 0 -19 7z" />
    <glyph glyph-name="gdotaccent" unicode="&#x121;" horiz-adv-x="709" 
d="M662 488l-105 -469q-22 -100 -97.5 -149.5t-206.5 -49.5q-76 0 -133 19t-87.5 53.5t-30.5 79.5q0 17 2 25l2 11h30l-3 -11q-2 -14 -2 -21q0 -59 60.5 -94.5t161.5 -35.5q117 0 186 44t89 130l21 94q-50 -50 -112.5 -76t-130.5 -26q-74 0 -129.5 25t-85.5 69.5t-30 103.5
q0 26 6 53l5 23q22 105 97 158.5t201 53.5q76 0 140 -31.5t99 -85.5l25 107h28zM443.5 68q64.5 29 113.5 82l45 201q-29 54 -92.5 87.5t-139.5 33.5q-114 0 -181.5 -47.5t-87.5 -139.5l-5 -23q-6 -25 -6 -49q0 -79 58.5 -126.5t160.5 -47.5q70 0 134.5 29zM385 605
q-8 7 -8 18q0 13 8.5 20.5t20.5 7.5q11 0 18.5 -7t7.5 -18q0 -13 -8 -20.5t-20 -7.5q-11 0 -19 7z" />
    <glyph glyph-name="uni0122" unicode="&#x122;" horiz-adv-x="879" 
d="M674 639q74 -27 116 -73.5t42 -102.5q0 -18 -4 -34l-2 -9h-30l2 9q4 20 4 30q0 50 -38 91.5t-105.5 65t-151.5 23.5q-147 0 -239 -71t-122 -208l-6 -25q-8 -33 -8 -72q0 -73 35 -129t100.5 -86.5t154.5 -30.5q100 0 174.5 31.5t141.5 102.5l32 144h-378l6 27h408
l-72 -322h-26l22 110q-64 -63 -138.5 -91.5t-171.5 -28.5q-96 0 -168 34.5t-111 96t-39 141.5q0 36 9 75l5 25q33 148 133 226t259 78q92 0 166 -27zM418 -58l-86 -147h-31l84 147h33z" />
    <glyph glyph-name="uni0123" unicode="&#x123;" horiz-adv-x="709" 
d="M662 488l-105 -469q-22 -100 -97.5 -149.5t-206.5 -49.5q-76 0 -133 19t-87.5 53.5t-30.5 79.5q0 17 2 25l2 11h30l-3 -11q-2 -14 -2 -21q0 -59 60.5 -94.5t161.5 -35.5q117 0 186 44t89 130l21 94q-50 -50 -112.5 -76t-130.5 -26q-74 0 -129.5 25t-85.5 69.5t-30 103.5
q0 26 6 53l5 23q22 105 97 158.5t201 53.5q76 0 140 -31.5t99 -85.5l25 107h28zM443.5 68q64.5 29 113.5 82l45 201q-29 54 -92.5 87.5t-139.5 33.5q-114 0 -181.5 -47.5t-87.5 -139.5l-5 -23q-6 -25 -6 -49q0 -79 58.5 -126.5t160.5 -47.5q70 0 134.5 29zM473 705l-84 -146
h-31l84 146h31z" />
    <glyph glyph-name="Hcircumflex" unicode="&#x124;" horiz-adv-x="819" 
d="M233 656l-70 -315h537l70 315h30l-146 -656h-30l70 315h-537l-70 -315h-30l146 656h30zM545 856l185 -86l-5 -26l-182 85l-225 -87l7 29z" />
    <glyph glyph-name="hcircumflex" unicode="&#x125;" horiz-adv-x="711" 
d="M569.5 450.5q57.5 -47.5 57.5 -132.5q0 -31 -7 -62l-56 -256h-29l57 258q7 28 7 57q0 75 -51 116t-145 41q-70 0 -136 -31.5t-112 -85.5l-79 -355h-29l155 696h29l-67 -301q50 50 112.5 76.5t129.5 26.5q106 0 163.5 -47.5zM251 861l185 -86l-5 -26l-182 85l-225 -87
l7 29z" />
    <glyph glyph-name="Hbar" unicode="&#x126;" horiz-adv-x="819" 
d="M851 471h-92l-105 -471h-30l69 309h-537l-69 -309h-30l105 471h-92l5 26h93l35 159h30l-36 -159h537l36 159h30l-35 -159h91zM729 471h-537l-31 -136h537z" />
    <glyph glyph-name="hbar" unicode="&#x127;" horiz-adv-x="737" 
d="M594 446q58 -48 58 -133q0 -32 -7 -61l-55 -252h-29l55 253q6 30 6 57q0 76 -50 117t-145 41q-70 0 -135.5 -31.5t-111.5 -86.5l-78 -350h-29l135 608h-128l5 26h129l14 62h29l-14 -62h256l-6 -26h-256l-48 -216q50 49 112.5 75.5t129.5 26.5q105 0 163 -48z" />
    <glyph glyph-name="Itilde" unicode="&#x128;" horiz-adv-x="299" 
d="M256 656l-146 -656h-30l146 656h30zM300 766.5q-15 4.5 -36 14.5q-17 8 -30 12.5t-29 4.5q-38 0 -77 -24l5 27q40 23 75 23q17 0 29.5 -4t33.5 -14q20 -10 34 -14.5t32 -4.5q37 0 78 19l-6 -27q-38 -17 -75 -17q-19 0 -34 4.5z" />
    <glyph glyph-name="itilde" unicode="&#x129;" horiz-adv-x="286" 
d="M212 488l-109 -488h-29l109 488h29zM256 598.5q-15 4.5 -36 14.5q-17 8 -30 12.5t-29 4.5q-38 0 -77 -24l5 27q40 23 75 23q17 0 29.5 -4t33.5 -14q20 -10 34 -14.5t32 -4.5q37 0 78 19l-6 -27q-38 -17 -75 -17q-19 0 -34 4.5z" />
    <glyph glyph-name="Imacron" unicode="&#x12a;" horiz-adv-x="299" 
d="M256 656l-146 -656h-30l146 656h30zM416 805l-6 -25h-281l6 25h281z" />
    <glyph glyph-name="imacron" unicode="&#x12b;" horiz-adv-x="286" 
d="M212 488l-109 -488h-29l109 488h29zM371 637l-6 -25h-281l6 25h281z" />
    <glyph glyph-name="Ibreve" unicode="&#x12c;" horiz-adv-x="299" 
d="M256 656l-146 -656h-30l146 656h30zM195.5 763.5q-34.5 16.5 -59.5 47.5l5 26q50 -64 133 -64q81 0 148 64l-7 -31q-62 -59 -144 -59q-41 0 -75.5 16.5z" />
    <glyph glyph-name="ibreve" unicode="&#x12d;" horiz-adv-x="286" 
d="M212 488l-109 -488h-29l109 488h29zM151.5 595.5q-34.5 16.5 -59.5 47.5l5 26q50 -64 133 -64q81 0 148 64l-7 -31q-62 -59 -144 -59q-41 0 -75.5 16.5z" />
    <glyph glyph-name="Iogonek" unicode="&#x12e;" horiz-adv-x="299" 
d="M256 656l-146 -656h-30l146 656h30zM-80 -156.5q-18 13.5 -18 36.5t17 40.5t59 38.5l123 61l9 -20l-119 -57q-34 -16 -46.5 -28.5t-12.5 -29.5q0 -14 11 -22t31 -8h104l-6 -25h-104q-30 0 -48 13.5z" />
    <glyph glyph-name="iogonek" unicode="&#x12f;" horiz-adv-x="286" 
d="M212 488l-109 -488h-29l109 488h29zM208 605q-8 7 -8 18q0 13 8.5 20.5t20.5 7.5q11 0 18.5 -7t7.5 -18q0 -13 -8 -20.5t-20 -7.5q-11 0 -19 7zM-87 -156.5q-18 13.5 -18 36.5t17 40.5t59 38.5l123 61l9 -20l-119 -57q-34 -16 -46.5 -28.5t-12.5 -29.5q0 -14 11 -22
t31 -8h104l-6 -25h-104q-30 0 -48 13.5z" />
    <glyph glyph-name="Idotaccent" unicode="&#x130;" horiz-adv-x="299" 
d="M256 656l-146 -656h-30l146 656h30zM253 773q-8 7 -8 18q0 13 8.5 20.5t20.5 7.5q11 0 18.5 -7t7.5 -18q0 -13 -8 -20.5t-20 -7.5q-11 0 -19 7z" />
    <glyph glyph-name="dotlessi" unicode="&#x131;" horiz-adv-x="286" 
d="M212 488l-109 -488h-29l109 488h29z" />
    <glyph glyph-name="IJ" unicode="&#x132;" horiz-adv-x="841" 
d="M233 656l-146 -656h-30l146 656h30zM413 27q121 0 196.5 56t100.5 164l87 383h-386l5 26h416l-93 -411q-27 -119 -110.5 -182t-216.5 -63h-142l6 27h137z" />
    <glyph glyph-name="ij" unicode="&#x133;" horiz-adv-x="572" 
d="M212 488l-109 -488h-29l109 488h29zM208 605q-8 7 -8 18q0 13 8.5 20.5t20.5 7.5q11 0 18.5 -7t7.5 -18q0 -13 -8 -20.5t-20 -7.5q-11 0 -19 7zM215 -145q113 0 140 121l114 512h29l-115 -514q-17 -73 -58 -108.5t-110 -35.5h-122l5 25h117zM494 605q-8 7 -8 18
q0 13 8.5 20.5t20.5 7.5q11 0 18.5 -7t7.5 -18q0 -13 -8 -20.5t-20 -7.5q-11 0 -19 7z" />
    <glyph glyph-name="Jcircumflex" unicode="&#x134;" horiz-adv-x="749" 
d="M192 17q-60 27 -93 74.5t-33 107.5q0 20 5 45l12 55h30l-12 -55q-5 -25 -5 -43q0 -54 29 -95.5t82 -65t123 -23.5q112 0 187 57.5t98 161.5l89 394h-370l5 26h401l-96 -422q-26 -116 -108.5 -180t-205.5 -64q-78 0 -138 27zM571 856l185 -86l-5 -26l-182 85l-225 -87
l7 29z" />
    <glyph glyph-name="jcircumflex" unicode="&#x135;" horiz-adv-x="286" 
d="M-71 -145q113 0 140 121l114 512h29l-115 -514q-17 -73 -58 -108.5t-110 -35.5h-122l5 25h117zM239 679l128 -59l-6 -26l-125 58l-156 -60l6 29z" />
    <glyph glyph-name="uni0136" unicode="&#x136;" horiz-adv-x="813" 
d="M820 650l-455 -289l306 -355l-1 -6h-31l-299 346l-205 -129l-48 -217h-30l146 656h30l-89 -400l636 400h41zM338 -58l-86 -147h-31l84 147h33z" />
    <glyph glyph-name="uni0137" unicode="&#x137;" horiz-adv-x="681" 
d="M675 483l-351 -206l258 -272l-1 -5h-31l-250 264l-190 -111l-34 -153h-29l155 696h29l-113 -507l517 299h41zM267 -58l-86 -147h-31l84 147h33z" />
    <glyph glyph-name="Lacute" unicode="&#x139;" horiz-adv-x="687" 
d="M233 656l-141 -629h536l-6 -27h-565l146 656h30zM465 857l-6 -27l-425 -87l6 27z" />
    <glyph glyph-name="lacute" unicode="&#x13a;" horiz-adv-x="319" 
d="M98 81q0 18 4 37l127 578h29l-128 -578q-4 -16 -4 -32q0 -31 20 -45.5t61 -14.5h40l-6 -26h-42q-101 0 -101 81zM417 850l-6 -27l-292 -53l6 27z" />
    <glyph glyph-name="uni013B" unicode="&#x13b;" horiz-adv-x="687" 
d="M233 656l-141 -629h536l-6 -27h-565l146 656h30zM315 -58l-86 -147h-31l84 147h33z" />
    <glyph glyph-name="uni013C" unicode="&#x13c;" horiz-adv-x="319" 
d="M98 81q0 18 4 37l127 578h29l-128 -578q-4 -16 -4 -32q0 -31 20 -45.5t61 -14.5h40l-6 -26h-42q-101 0 -101 81zM196 -58l-86 -147h-31l84 147h33z" />
    <glyph glyph-name="Lcaron" unicode="&#x13d;" horiz-adv-x="687" 
d="M233 656l-141 -629h536l-6 -27h-565l146 656h30zM588 656l-81 -177h-29l75 177h35z" />
    <glyph glyph-name="lcaron" unicode="&#x13e;" horiz-adv-x="509" 
d="M98 81q0 18 4 37l127 578h29l-128 -578q-4 -16 -4 -32q0 -31 20 -45.5t61 -14.5h40l-6 -26h-42q-101 0 -101 81zM504 696l-81 -177h-29l75 177h35z" />
    <glyph glyph-name="Ldot" unicode="&#x13f;" horiz-adv-x="687" 
d="M233 656l-141 -629h536l-6 -27h-565l146 656h30zM470.5 315.5q-7.5 6.5 -7.5 17.5q0 13 8 20.5t20 7.5q10 0 17.5 -7t7.5 -18q0 -12 -8 -19.5t-20 -7.5q-10 0 -17.5 6.5z" />
    <glyph glyph-name="ldot" unicode="&#x140;" horiz-adv-x="407" 
d="M98 81q0 18 4 37l127 578h29l-128 -578q-4 -16 -4 -32q0 -31 20 -45.5t61 -14.5h40l-6 -26h-42q-101 0 -101 81zM338 271q-8 8 -8 19t8 18.5t19 7.5t18.5 -7.5t7.5 -18.5t-7.5 -19t-18.5 -8t-19 8z" />
    <glyph glyph-name="Lslash" unicode="&#x141;" horiz-adv-x="720" 
d="M661 27l-6 -27h-565l70 315l-136 -30l7 28l135 29l70 314h30l-69 -309l339 73l-7 -28l-339 -73l-65 -292h536z" />
    <glyph glyph-name="lslash" unicode="&#x142;" horiz-adv-x="398" 
d="M145 118q-4 -16 -4 -32q0 -31 20 -45.5t61 -14.5h40l-6 -26h-42q-101 0 -101 81q0 20 4 37l52 237l-135 -29l6 27l135 29l69 314h29l-68 -309l177 38l-6 -26l-177 -39z" />
    <glyph glyph-name="Nacute" unicode="&#x143;" horiz-adv-x="819" 
d="M800 656l-146 -656h-29l-402 619l-137 -619h-29l146 656h28l402 -618l137 618h30zM749 857l-6 -27l-425 -87l6 27z" />
    <glyph glyph-name="nacute" unicode="&#x144;" horiz-adv-x="711" 
d="M569.5 450.5q57.5 -47.5 57.5 -131.5q0 -32 -7 -63l-56 -256h-29l57 258q7 28 7 58q0 75 -50.5 115.5t-143.5 40.5q-72 0 -138 -31t-112 -86l-79 -355h-29l109 488h27l-19 -93q50 50 112.5 76.5t131.5 26.5q104 0 161.5 -47.5zM675 689l-6 -27l-425 -87l6 27z" />
    <glyph glyph-name="uni0145" unicode="&#x145;" horiz-adv-x="819" 
d="M800 656l-146 -656h-29l-402 619l-137 -619h-29l146 656h28l402 -618l137 618h30zM357 -58l-86 -147h-31l84 147h33z" />
    <glyph glyph-name="uni0146" unicode="&#x146;" horiz-adv-x="711" 
d="M569.5 450.5q57.5 -47.5 57.5 -131.5q0 -32 -7 -63l-56 -256h-29l57 258q7 28 7 58q0 75 -50.5 115.5t-143.5 40.5q-72 0 -138 -31t-112 -86l-79 -355h-29l109 488h27l-19 -93q50 50 112.5 76.5t131.5 26.5q104 0 161.5 -47.5zM307 -58l-86 -147h-31l84 147h33z" />
    <glyph glyph-name="Ncaron" unicode="&#x147;" horiz-adv-x="819" 
d="M800 656l-146 -656h-29l-402 619l-137 -619h-29l146 656h28l402 -618l137 618h30zM343 856l182 -85l225 87l-7 -30l-221 -84l-185 85z" />
    <glyph glyph-name="ncaron" unicode="&#x148;" horiz-adv-x="711" 
d="M569.5 450.5q57.5 -47.5 57.5 -131.5q0 -32 -7 -63l-56 -256h-29l57 258q7 28 7 58q0 75 -50.5 115.5t-143.5 40.5q-72 0 -138 -31t-112 -86l-79 -355h-29l109 488h27l-19 -93q50 50 112.5 76.5t131.5 26.5q104 0 161.5 -47.5zM269 688l182 -85l225 87l-7 -30l-221 -84
l-185 85z" />
    <glyph glyph-name="Eng" unicode="&#x14a;" horiz-adv-x="819" 
d="M800 656l-139 -607q-27 -117 -83 -168t-161 -51h-81l6 26h76q83 0 130.5 36t72.5 117l-398 609l-137 -618h-29l146 656h28l400 -613l1 7l138 606h30z" />
    <glyph glyph-name="eng" unicode="&#x14b;" horiz-adv-x="711" 
d="M570 451q57 -47 57 -132q0 -32 -7 -63l-44 -197q-27 -122 -87.5 -175.5t-171.5 -53.5h-69l5 25h64q99 0 152 48t78 157l45 197q7 29 7 59q0 74 -50.5 115t-143.5 41q-72 0 -137.5 -31t-112.5 -87l-79 -354h-29l109 488h27l-19 -93q50 50 113 76.5t132 26.5q104 0 161 -47
z" />
    <glyph glyph-name="Omacron" unicode="&#x14c;" horiz-adv-x="877" 
d="M250.5 24.5q-71.5 34.5 -110 96.5t-38.5 142q0 40 8 75l5 19q32 150 129.5 229.5t252.5 79.5q94 0 165.5 -34.5t110 -97t38.5 -142.5q0 -40 -8 -75l-4 -19q-32 -150 -130 -229t-252 -79q-95 0 -166.5 34.5zM649.5 89.5q90.5 72.5 119.5 209.5l4 20q8 33 8 73
q0 73 -34.5 129t-99 87t-151.5 31q-142 0 -232 -73t-120 -210l-4 -20q-8 -40 -8 -71q0 -73 34.5 -129.5t99.5 -87.5t152 -31q141 0 231.5 72.5zM741 805l-5 -25h-406l5 25h406z" />
    <glyph glyph-name="omacron" unicode="&#x14d;" horiz-adv-x="685" 
d="M185.5 17.5q-59.5 27.5 -92 76t-32.5 109.5q0 26 6 53l5 23q23 106 98 162.5t195 56.5q77 0 135.5 -27.5t91 -76t32.5 -110.5q0 -25 -6 -54l-6 -22q-20 -103 -95 -160.5t-194 -57.5q-78 0 -137.5 27.5zM498 67.5q67 51.5 85 141.5l5 23q6 27 6 52q0 54 -28 97t-80 67
t-121 24q-111 0 -178 -51t-86 -144l-5 -22q-6 -25 -6 -49q0 -55 29 -98.5t82 -67.5t122 -24q108 0 175 51.5zM609 637l-5 -25h-406l5 25h406z" />
    <glyph glyph-name="Obreve" unicode="&#x14e;" horiz-adv-x="877" 
d="M250.5 24.5q-71.5 34.5 -110 96.5t-38.5 142q0 40 8 75l5 19q32 150 129.5 229.5t252.5 79.5q94 0 165.5 -34.5t110 -97t38.5 -142.5q0 -40 -8 -75l-4 -19q-32 -150 -130 -229t-252 -79q-95 0 -166.5 34.5zM649.5 89.5q90.5 72.5 119.5 209.5l4 20q8 33 8 73
q0 73 -34.5 129t-99 87t-151.5 31q-142 0 -232 -73t-120 -210l-4 -20q-8 -40 -8 -71q0 -73 34.5 -129.5t99.5 -87.5t152 -31q141 0 231.5 72.5zM338 812l5 25q96 -65 195 -65q97 0 211 65l-7 -28q-104 -62 -206 -62q-101 0 -198 65z" />
    <glyph glyph-name="obreve" unicode="&#x14f;" horiz-adv-x="685" 
d="M185.5 17.5q-59.5 27.5 -92 76t-32.5 109.5q0 26 6 53l5 23q23 106 98 162.5t195 56.5q77 0 135.5 -27.5t91 -76t32.5 -110.5q0 -25 -6 -54l-6 -22q-20 -103 -95 -160.5t-194 -57.5q-78 0 -137.5 27.5zM498 67.5q67 51.5 85 141.5l5 23q6 27 6 52q0 54 -28 97t-80 67
t-121 24q-111 0 -178 -51t-86 -144l-5 -22q-6 -25 -6 -49q0 -55 29 -98.5t82 -67.5t122 -24q108 0 175 51.5zM205 644l5 25q96 -65 195 -65q97 0 211 65l-7 -28q-104 -62 -206 -62q-101 0 -198 65z" />
    <glyph glyph-name="Ohungarumlaut" unicode="&#x150;" horiz-adv-x="877" 
d="M250.5 24.5q-71.5 34.5 -110 96.5t-38.5 142q0 40 8 75l5 19q32 150 129.5 229.5t252.5 79.5q94 0 165.5 -34.5t110 -97t38.5 -142.5q0 -40 -8 -75l-4 -19q-32 -150 -130 -229t-252 -79q-95 0 -166.5 34.5zM649.5 89.5q90.5 72.5 119.5 209.5l4 20q8 33 8 73
q0 73 -34.5 129t-99 87t-151.5 31q-142 0 -232 -73t-120 -210l-4 -20q-8 -40 -8 -71q0 -73 34.5 -129.5t99.5 -87.5t152 -31q141 0 231.5 72.5zM605 857l-6 -29l-289 -85l7 28zM876 857l-6 -29l-286 -85l7 28z" />
    <glyph glyph-name="ohungarumlaut" unicode="&#x151;" horiz-adv-x="685" 
d="M185.5 17.5q-59.5 27.5 -92 76t-32.5 109.5q0 26 6 53l5 23q23 106 98 162.5t195 56.5q77 0 135.5 -27.5t91 -76t32.5 -110.5q0 -25 -6 -54l-6 -22q-20 -103 -95 -160.5t-194 -57.5q-78 0 -137.5 27.5zM498 67.5q67 51.5 85 141.5l5 23q6 27 6 52q0 54 -28 97t-80 67
t-121 24q-111 0 -178 -51t-86 -144l-5 -22q-6 -25 -6 -49q0 -55 29 -98.5t82 -67.5t122 -24q108 0 175 51.5zM473 689l-6 -29l-289 -85l7 28zM744 689l-6 -29l-286 -85l7 28z" />
    <glyph glyph-name="OE" unicode="&#x152;" horiz-adv-x="1263" 
d="M176.5 65.5q-77.5 65.5 -77.5 181.5q0 39 11 89l4 21q35 152 134.5 225.5t273.5 73.5h745l-6 -26h-478l-65 -289h455l-5 -26h-455l-65 -288h479l-6 -27h-726q-141 0 -218.5 65.5zM753 630h-233q-161 0 -253 -68t-124 -208l-4 -21q-11 -49 -11 -86q0 -104 69.5 -162
t198.5 -58h222z" />
    <glyph glyph-name="oe" unicode="&#x153;" horiz-adv-x="1114" 
d="M951 473q52 -25 81 -69.5t29 -101.5q0 -23 -4 -43l-4 -24h-475l-3 -16q-4 -16 -4 -36q0 -48 26.5 -86t75 -59.5t109.5 -21.5q88 0 148 41t77 112h30q-20 -84 -87 -131.5t-166 -47.5q-94 0 -158 43.5t-77 113.5q-33 -75 -97 -116t-150 -41q-73 0 -128 26t-84.5 73
t-29.5 108q0 31 7 59l5 23q22 104 93 161.5t180 57.5q60 0 110.5 -21t82.5 -58t41 -84q31 77 96 120t156 43q68 0 120 -25zM457.5 67.5q62.5 51.5 85.5 144.5l9 48q4 17 4 38q0 49 -27 88.5t-75.5 62.5t-108.5 23q-97 0 -160.5 -51t-83.5 -144l-5 -22q-7 -27 -7 -56
q0 -54 26 -95.5t74.5 -64.5t113.5 -23q92 0 154.5 51.5zM583 259h444l1 3q4 19 4 40q0 76 -55.5 123t-147.5 47q-95 0 -157.5 -50.5t-84.5 -144.5z" />
    <glyph glyph-name="Racute" unicode="&#x154;" horiz-adv-x="806" 
d="M721.5 616.5q52.5 -39.5 52.5 -105.5q0 -20 -4 -37l-3 -14q-16 -76 -77.5 -116.5t-162.5 -40.5h-69l206 -297l-1 -6h-30l-209 303h-270l-67 -303h-30l146 656h375q91 0 143.5 -39.5zM745 510q0 56 -44.5 88t-124.5 32h-349l-67 -301h369q88 0 141.5 34.5t67.5 99.5l3 14
q4 22 4 33zM708 857l-6 -27l-425 -87l6 27z" />
    <glyph glyph-name="racute" unicode="&#x155;" horiz-adv-x="473" 
d="M517 488l-6 -25h-107q-67 0 -124 -27t-98 -78l-79 -358h-29l109 488h26l-19 -92q83 92 217 92h110zM603 689l-6 -27l-425 -87l6 27z" />
    <glyph glyph-name="uni0156" unicode="&#x156;" horiz-adv-x="806" 
d="M721.5 616.5q52.5 -39.5 52.5 -105.5q0 -20 -4 -37l-3 -14q-16 -76 -77.5 -116.5t-162.5 -40.5h-69l206 -297l-1 -6h-30l-209 303h-270l-67 -303h-30l146 656h375q91 0 143.5 -39.5zM745 510q0 56 -44.5 88t-124.5 32h-349l-67 -301h369q88 0 141.5 34.5t67.5 99.5l3 14
q4 22 4 33zM340 -58l-86 -147h-31l84 147h33z" />
    <glyph glyph-name="uni0157" unicode="&#x157;" horiz-adv-x="473" 
d="M517 488l-6 -25h-107q-67 0 -124 -27t-98 -78l-79 -358h-29l109 488h26l-19 -92q83 92 217 92h110zM90 -58l-86 -147h-31l84 147h33z" />
    <glyph glyph-name="Rcaron" unicode="&#x158;" horiz-adv-x="806" 
d="M721.5 616.5q52.5 -39.5 52.5 -105.5q0 -20 -4 -37l-3 -14q-16 -76 -77.5 -116.5t-162.5 -40.5h-69l206 -297l-1 -6h-30l-209 303h-270l-67 -303h-30l146 656h375q91 0 143.5 -39.5zM745 510q0 56 -44.5 88t-124.5 32h-349l-67 -301h369q88 0 141.5 34.5t67.5 99.5l3 14
q4 22 4 33zM302 856l182 -85l225 87l-7 -30l-221 -84l-185 85z" />
    <glyph glyph-name="rcaron" unicode="&#x159;" horiz-adv-x="473" 
d="M517 488l-6 -25h-107q-67 0 -124 -27t-98 -78l-79 -358h-29l109 488h26l-19 -92q83 92 217 92h110zM197 688l182 -85l225 87l-7 -30l-221 -84l-185 85z" />
    <glyph glyph-name="Sacute" unicode="&#x15a;" horiz-adv-x="771" 
d="M140 32q-74 42 -74 121q0 21 4 38l3 12h30l-3 -12q-4 -24 -4 -34q0 -69 65.5 -105t193.5 -36q131 0 198.5 33t82.5 103l3 10q4 16 4 34q0 49 -43.5 77t-137.5 40l-120 15q-91 11 -138.5 46t-47.5 91q0 18 4 33l3 11q16 77 88.5 117t208.5 40q132 0 201.5 -41.5
t69.5 -119.5q0 -20 -4 -39l-3 -11h-30l3 11q4 16 4 35q0 68 -61.5 103.5t-180.5 35.5q-120 0 -186 -33t-81 -100l-2 -10q-4 -15 -4 -30q0 -93 166 -114l120 -15q103 -13 152 -47t49 -92q0 -16 -5 -39l-2 -11q-18 -80 -92 -119.5t-220 -39.5q-140 0 -214 42zM697 857l-6 -27
l-425 -87l6 27z" />
    <glyph glyph-name="sacute" unicode="&#x15b;" horiz-adv-x="688" 
d="M172 6q-58 16 -89.5 45t-31.5 67q0 5 2 19l1 7h29l-1 -7q-2 -12 -2 -17q0 -48 61 -76.5t166 -28.5q109 0 171.5 25.5t73.5 73.5l2 9q2 7 2 19q0 35 -38.5 56.5t-119.5 31.5l-107 13q-83 10 -123 35.5t-40 68.5q0 11 3 23l2 10q11 58 76 88t181 30q73 0 129.5 -16.5
t87.5 -45.5t31 -67q0 -6 -2 -18l-1 -7h-29l1 7q2 10 2 15q0 47 -60.5 77t-159.5 30q-103 0 -161 -24t-66 -70l-2 -10q-2 -7 -2 -20q0 -34 33.5 -54t103.5 -28l107 -12q184 -21 184 -110q0 -12 -3 -24l-2 -9q-14 -60 -84 -91t-191 -31q-76 0 -134 16zM615 689l-6 -27
l-425 -87l6 27z" />
    <glyph glyph-name="Scircumflex" unicode="&#x15c;" horiz-adv-x="771" 
d="M140 32q-74 42 -74 121q0 21 4 38l3 12h30l-3 -12q-4 -24 -4 -34q0 -69 65.5 -105t193.5 -36q131 0 198.5 33t82.5 103l3 10q4 16 4 34q0 49 -43.5 77t-137.5 40l-120 15q-91 11 -138.5 46t-47.5 91q0 18 4 33l3 11q16 77 88.5 117t208.5 40q132 0 201.5 -41.5
t69.5 -119.5q0 -20 -4 -39l-3 -11h-30l3 11q4 16 4 35q0 68 -61.5 103.5t-180.5 35.5q-120 0 -186 -33t-81 -100l-2 -10q-4 -15 -4 -30q0 -93 166 -114l120 -15q103 -13 152 -47t49 -92q0 -16 -5 -39l-2 -11q-18 -80 -92 -119.5t-220 -39.5q-140 0 -214 42zM493 856l185 -86
l-5 -26l-182 85l-225 -87l7 29z" />
    <glyph glyph-name="scircumflex" unicode="&#x15d;" horiz-adv-x="688" 
d="M172 6q-58 16 -89.5 45t-31.5 67q0 5 2 19l1 7h29l-1 -7q-2 -12 -2 -17q0 -48 61 -76.5t166 -28.5q109 0 171.5 25.5t73.5 73.5l2 9q2 7 2 19q0 35 -38.5 56.5t-119.5 31.5l-107 13q-83 10 -123 35.5t-40 68.5q0 11 3 23l2 10q11 58 76 88t181 30q73 0 129.5 -16.5
t87.5 -45.5t31 -67q0 -6 -2 -18l-1 -7h-29l1 7q2 10 2 15q0 47 -60.5 77t-159.5 30q-103 0 -161 -24t-66 -70l-2 -10q-2 -7 -2 -20q0 -34 33.5 -54t103.5 -28l107 -12q184 -21 184 -110q0 -12 -3 -24l-2 -9q-14 -60 -84 -91t-191 -31q-76 0 -134 16zM411 688l185 -86l-5 -26
l-182 85l-225 -87l7 29z" />
    <glyph glyph-name="Scedilla" unicode="&#x15e;" horiz-adv-x="771" 
d="M140 32q-74 42 -74 121q0 21 4 38l3 12h30l-3 -12q-4 -24 -4 -34q0 -69 65.5 -105t193.5 -36q131 0 198.5 33t82.5 103l3 10q4 16 4 34q0 49 -43.5 77t-137.5 40l-120 15q-91 11 -138.5 46t-47.5 91q0 18 4 33l3 11q16 77 88.5 117t208.5 40q132 0 201.5 -41.5
t69.5 -119.5q0 -20 -4 -39l-3 -11h-30l3 11q4 16 4 35q0 68 -61.5 103.5t-180.5 35.5q-120 0 -186 -33t-81 -100l-2 -10q-4 -15 -4 -30q0 -93 166 -114l120 -15q103 -13 152 -47t49 -92q0 -16 -5 -39l-2 -11q-18 -80 -92 -119.5t-220 -39.5q-140 0 -214 42zM369 0l-89 -170
h-32l93 178z" />
    <glyph glyph-name="scedilla" unicode="&#x15f;" horiz-adv-x="688" 
d="M172 6q-58 16 -89.5 45t-31.5 67q0 5 2 19l1 7h29l-1 -7q-2 -12 -2 -17q0 -48 61 -76.5t166 -28.5q109 0 171.5 25.5t73.5 73.5l2 9q2 7 2 19q0 35 -38.5 56.5t-119.5 31.5l-107 13q-83 10 -123 35.5t-40 68.5q0 11 3 23l2 10q11 58 76 88t181 30q73 0 129.5 -16.5
t87.5 -45.5t31 -67q0 -6 -2 -18l-1 -7h-29l1 7q2 10 2 15q0 47 -60.5 77t-159.5 30q-103 0 -161 -24t-66 -70l-2 -10q-2 -7 -2 -20q0 -34 33.5 -54t103.5 -28l107 -12q184 -21 184 -110q0 -12 -3 -24l-2 -9q-14 -60 -84 -91t-191 -31q-76 0 -134 16zM325 0l-89 -170h-32
l93 178z" />
    <glyph glyph-name="Scaron" unicode="&#x160;" horiz-adv-x="771" 
d="M140 32q-74 42 -74 121q0 21 4 38l3 12h30l-3 -12q-4 -24 -4 -34q0 -69 65.5 -105t193.5 -36q131 0 198.5 33t82.5 103l3 10q4 16 4 34q0 49 -43.5 77t-137.5 40l-120 15q-91 11 -138.5 46t-47.5 91q0 18 4 33l3 11q16 77 88.5 117t208.5 40q132 0 201.5 -41.5
t69.5 -119.5q0 -20 -4 -39l-3 -11h-30l3 11q4 16 4 35q0 68 -61.5 103.5t-180.5 35.5q-120 0 -186 -33t-81 -100l-2 -10q-4 -15 -4 -30q0 -93 166 -114l120 -15q103 -13 152 -47t49 -92q0 -16 -5 -39l-2 -11q-18 -80 -92 -119.5t-220 -39.5q-140 0 -214 42zM291 856l182 -85
l225 87l-7 -30l-221 -84l-185 85z" />
    <glyph glyph-name="scaron" unicode="&#x161;" horiz-adv-x="688" 
d="M172 6q-58 16 -89.5 45t-31.5 67q0 5 2 19l1 7h29l-1 -7q-2 -12 -2 -17q0 -48 61 -76.5t166 -28.5q109 0 171.5 25.5t73.5 73.5l2 9q2 7 2 19q0 35 -38.5 56.5t-119.5 31.5l-107 13q-83 10 -123 35.5t-40 68.5q0 11 3 23l2 10q11 58 76 88t181 30q73 0 129.5 -16.5
t87.5 -45.5t31 -67q0 -6 -2 -18l-1 -7h-29l1 7q2 10 2 15q0 47 -60.5 77t-159.5 30q-103 0 -161 -24t-66 -70l-2 -10q-2 -7 -2 -20q0 -34 33.5 -54t103.5 -28l107 -12q184 -21 184 -110q0 -12 -3 -24l-2 -9q-14 -60 -84 -91t-191 -31q-76 0 -134 16zM209 688l182 -85l225 87
l-7 -30l-221 -84l-185 85z" />
    <glyph glyph-name="uni0162" unicode="&#x162;" horiz-adv-x="691" 
d="M96 630l6 26h670l-6 -26h-318l-140 -630h-30l140 630h-322zM308 0l-89 -170h-32l93 178z" />
    <glyph glyph-name="uni0163" unicode="&#x163;" horiz-adv-x="520" 
d="M223 131q-4 -22 -4 -30q0 -36 23.5 -55.5t65.5 -19.5h115l-6 -26h-112q-54 0 -84.5 26t-30.5 72q0 18 4 34l73 331h-206l5 25h191q10 0 14.5 3.5t6.5 13.5l26 116h28l-30 -133h254l-5 -25h-254zM323 0l-89 -170h-32l93 178z" />
    <glyph glyph-name="Tcaron" unicode="&#x164;" horiz-adv-x="691" 
d="M96 630l6 26h670l-6 -26h-318l-140 -630h-30l140 630h-322zM279 856l182 -85l225 87l-7 -30l-221 -84l-185 85z" />
    <glyph glyph-name="tcaron" unicode="&#x165;" horiz-adv-x="570" 
d="M223 131q-4 -22 -4 -30q0 -36 23.5 -55.5t65.5 -19.5h115l-6 -26h-112q-54 0 -84.5 26t-30.5 72q0 18 4 34l73 331h-206l5 25h191q10 0 14.5 3.5t6.5 13.5l26 116h28l-30 -133h254l-5 -25h-254zM604 740l-81 -177h-29l75 177h35z" />
    <glyph glyph-name="Tbar" unicode="&#x166;" horiz-adv-x="711" 
d="M458 630l-65 -294h260l-5 -26h-261l-69 -310h-30l69 310h-242l5 26h243l65 294h-322l6 26h670l-6 -26h-318z" />
    <glyph glyph-name="tbar" unicode="&#x167;" horiz-adv-x="558" 
d="M309 462l-46 -204h262l-5 -26h-263l-22 -101q-4 -22 -4 -30q0 -36 23.5 -55.5t65.5 -19.5h114l-5 -26h-112q-54 0 -84.5 26t-30.5 72q0 18 4 34l22 100h-207l5 26h208l45 204h-207l6 26h190q10 0 15 3.5t7 13.5l25 116h29l-30 -133h258l-5 -26h-258z" />
    <glyph glyph-name="Utilde" unicode="&#x168;" horiz-adv-x="793" 
d="M231 18.5q-59 28.5 -91 80t-32 117.5q0 29 6 60l80 380h29l-80 -383q-6 -28 -6 -55q0 -59 28 -104.5t81 -71t124 -25.5q120 0 194 58.5t99 173.5l91 407h30l-92 -409q-28 -128 -109.5 -192.5t-213.5 -64.5q-79 0 -138 28.5zM565.5 766.5q-20.5 4.5 -53.5 14.5
q-5 1 -23.5 6.5t-34.5 8t-32 2.5q-54 0 -110 -26l6 27q56 25 105 25q23 0 42.5 -4.5t47.5 -13.5q32 -10 53.5 -14.5t47.5 -4.5q51 0 112 21l-7 -27q-59 -19 -107 -19q-26 0 -46.5 4.5z" />
    <glyph glyph-name="utilde" unicode="&#x169;" horiz-adv-x="711" 
d="M664 488l-109 -488h-26l18 93q-49 -50 -111.5 -76.5t-130.5 -26.5q-106 0 -163.5 47.5t-57.5 132.5q0 31 7 62l56 256h29l-57 -258q-7 -28 -7 -57q0 -75 51 -116t145 -41q71 0 136.5 31t110.5 86l80 355h29zM483.5 598.5q-20.5 4.5 -53.5 14.5q-5 1 -23.5 6.5t-34.5 8
t-32 2.5q-54 0 -110 -26l6 27q56 25 105 25q23 0 42.5 -4.5t47.5 -13.5q32 -10 53.5 -14.5t47.5 -4.5q51 0 112 21l-7 -27q-59 -19 -107 -19q-26 0 -46.5 4.5z" />
    <glyph glyph-name="Umacron" unicode="&#x16a;" horiz-adv-x="793" 
d="M231 18.5q-59 28.5 -91 80t-32 117.5q0 29 6 60l80 380h29l-80 -383q-6 -28 -6 -55q0 -59 28 -104.5t81 -71t124 -25.5q120 0 194 58.5t99 173.5l91 407h30l-92 -409q-28 -128 -109.5 -192.5t-213.5 -64.5q-79 0 -138 28.5zM725 805l-5 -25h-406l5 25h406z" />
    <glyph glyph-name="umacron" unicode="&#x16b;" horiz-adv-x="711" 
d="M664 488l-109 -488h-26l18 93q-49 -50 -111.5 -76.5t-130.5 -26.5q-106 0 -163.5 47.5t-57.5 132.5q0 31 7 62l56 256h29l-57 -258q-7 -28 -7 -57q0 -75 51 -116t145 -41q71 0 136.5 31t110.5 86l80 355h29zM643 637l-5 -25h-406l5 25h406z" />
    <glyph glyph-name="Ubreve" unicode="&#x16c;" horiz-adv-x="793" 
d="M231 18.5q-59 28.5 -91 80t-32 117.5q0 29 6 60l80 380h29l-80 -383q-6 -28 -6 -55q0 -59 28 -104.5t81 -71t124 -25.5q120 0 194 58.5t99 173.5l91 407h30l-92 -409q-28 -128 -109.5 -192.5t-213.5 -64.5q-79 0 -138 28.5zM321 812l5 25q96 -65 195 -65q97 0 211 65
l-7 -28q-104 -62 -206 -62q-101 0 -198 65z" />
    <glyph glyph-name="ubreve" unicode="&#x16d;" horiz-adv-x="711" 
d="M664 488l-109 -488h-26l18 93q-49 -50 -111.5 -76.5t-130.5 -26.5q-106 0 -163.5 47.5t-57.5 132.5q0 31 7 62l56 256h29l-57 -258q-7 -28 -7 -57q0 -75 51 -116t145 -41q71 0 136.5 31t110.5 86l80 355h29zM239 644l5 25q96 -65 195 -65q97 0 211 65l-7 -28
q-104 -62 -206 -62q-101 0 -198 65z" />
    <glyph glyph-name="Uring" unicode="&#x16e;" horiz-adv-x="793" 
d="M231 18.5q-59 28.5 -91 80t-32 117.5q0 29 6 60l80 380h29l-80 -383q-6 -28 -6 -55q0 -59 28 -104.5t81 -71t124 -25.5q120 0 194 58.5t99 173.5l91 407h30l-92 -409q-28 -128 -109.5 -192.5t-213.5 -64.5q-79 0 -138 28.5zM431 742.5q-33 25.5 -33 71.5q0 48 34 75.5
t93 27.5q58 0 91.5 -26t33.5 -71q0 -49 -33.5 -76t-93.5 -27q-59 0 -92 25.5zM597.5 760q26.5 22 26.5 60q0 35 -26 55.5t-72 20.5q-48 0 -75.5 -22t-27.5 -60q0 -35 27 -55.5t73 -20.5q48 0 74.5 22z" />
    <glyph glyph-name="uring" unicode="&#x16f;" horiz-adv-x="711" 
d="M664 488l-109 -488h-26l18 93q-49 -50 -111.5 -76.5t-130.5 -26.5q-106 0 -163.5 47.5t-57.5 132.5q0 31 7 62l56 256h29l-57 -258q-7 -28 -7 -57q0 -75 51 -116t145 -41q71 0 136.5 31t110.5 86l80 355h29zM349 574.5q-33 25.5 -33 71.5q0 48 34 75.5t93 27.5
q58 0 91.5 -26t33.5 -71q0 -49 -33.5 -76t-93.5 -27q-59 0 -92 25.5zM515.5 592q26.5 22 26.5 60q0 35 -26 55.5t-72 20.5q-48 0 -75.5 -22t-27.5 -60q0 -35 27 -55.5t73 -20.5q48 0 74.5 22z" />
    <glyph glyph-name="Uhungarumlaut" unicode="&#x170;" horiz-adv-x="793" 
d="M231 18.5q-59 28.5 -91 80t-32 117.5q0 29 6 60l80 380h29l-80 -383q-6 -28 -6 -55q0 -59 28 -104.5t81 -71t124 -25.5q120 0 194 58.5t99 173.5l91 407h30l-92 -409q-28 -128 -109.5 -192.5t-213.5 -64.5q-79 0 -138 28.5zM589 857l-6 -29l-289 -85l7 28zM860 857
l-6 -29l-286 -85l7 28z" />
    <glyph glyph-name="uhungarumlaut" unicode="&#x171;" horiz-adv-x="711" 
d="M664 488l-109 -488h-26l18 93q-49 -50 -111.5 -76.5t-130.5 -26.5q-106 0 -163.5 47.5t-57.5 132.5q0 31 7 62l56 256h29l-57 -258q-7 -28 -7 -57q0 -75 51 -116t145 -41q71 0 136.5 31t110.5 86l80 355h29zM507 689l-6 -29l-289 -85l7 28zM778 689l-6 -29l-286 -85l7 28
z" />
    <glyph glyph-name="Uogonek" unicode="&#x172;" horiz-adv-x="793" 
d="M231 18.5q-59 28.5 -91 80t-32 117.5q0 29 6 60l80 380h29l-80 -383q-6 -28 -6 -55q0 -59 28 -104.5t81 -71t124 -25.5q120 0 194 58.5t99 173.5l91 407h30l-92 -409q-28 -128 -109.5 -192.5t-213.5 -64.5q-79 0 -138 28.5zM344 -156.5q-17 13.5 -17 35.5q0 24 18 42
t69 51l121 78l23 -10l-132 -86q-39 -26 -53 -39.5t-14 -29.5q0 -14 10.5 -22t30.5 -8h114l-6 -25h-118q-29 0 -46 13.5z" />
    <glyph glyph-name="uogonek" unicode="&#x173;" horiz-adv-x="711" 
d="M664 488l-109 -488h-26l18 93q-49 -50 -111.5 -76.5t-130.5 -26.5q-106 0 -163.5 47.5t-57.5 132.5q0 31 7 62l56 256h29l-57 -258q-7 -28 -7 -57q0 -75 51 -116t145 -41q71 0 136.5 31t110.5 86l80 355h29zM366 -156.5q-18 13.5 -18 36.5t17 40.5t59 38.5l123 61l9 -20
l-119 -57q-34 -16 -46.5 -28.5t-12.5 -29.5q0 -14 11 -22t31 -8h104l-6 -25h-104q-30 0 -48 13.5z" />
    <glyph glyph-name="Wcircumflex" unicode="&#x174;" horiz-adv-x="1175" 
d="M1222 656l-1 -6l-410 -650h-35l-116 621l-393 -621h-36l-120 650l1 6h29l114 -623l393 623h35l116 -623l391 623h32zM711 856l185 -86l-5 -26l-182 85l-225 -87l7 29z" />
    <glyph glyph-name="wcircumflex" unicode="&#x175;" horiz-adv-x="1067" 
d="M1051 488l-1 -5l-334 -483h-37l-107 454l-307 -454h-37l-120 483l1 5h28l113 -461l314 461h29l108 -463l320 463h30zM624 688l185 -86l-5 -26l-182 85l-225 -87l7 29z" />
    <glyph glyph-name="Ycircumflex" unicode="&#x176;" horiz-adv-x="726" 
d="M786 650l-409 -358l-65 -292h-30l66 294l-251 356l1 6h29l238 -340l388 340h35zM485 856l185 -86l-5 -26l-182 85l-225 -87l7 29z" />
    <glyph glyph-name="ycircumflex" unicode="&#x177;" horiz-adv-x="697" 
d="M682 488l-1 -5l-432 -556q-30 -39 -54.5 -59t-54.5 -29t-76 -9h-68l5 25h65q55 0 87 17t70 65l47 61l-162 485l1 5h28l153 -465l360 465h32zM439 688l185 -86l-5 -26l-182 85l-225 -87l7 29z" />
    <glyph glyph-name="Ydieresis" unicode="&#x178;" horiz-adv-x="726" 
d="M786 650l-409 -358l-65 -292h-30l66 294l-251 356l1 6h29l238 -340l388 340h35zM325 772.5q-7 6.5 -7 17.5q0 13 8 20.5t20 7.5q10 0 17.5 -6.5t7.5 -17.5q0 -12 -8.5 -20t-19.5 -8t-18 6.5zM580.5 773q-7.5 7 -7.5 18q0 12 8.5 19.5t19.5 7.5t18 -6t7 -16
q0 -13 -8 -21.5t-19 -8.5t-18.5 7z" />
    <glyph glyph-name="Zacute" unicode="&#x179;" horiz-adv-x="696" 
d="M729 629l-683 -602h548l-5 -27h-590l6 27l684 603h-550l6 26h590zM687 857l-6 -27l-425 -87l6 27z" />
    <glyph glyph-name="zacute" unicode="&#x17a;" horiz-adv-x="642" 
d="M626 463l-564 -438h466l-5 -25h-508l6 25l563 438h-466l6 25h507zM626 689l-6 -27l-425 -87l6 27z" />
    <glyph glyph-name="Zdotaccent" unicode="&#x17b;" horiz-adv-x="696" 
d="M729 629l-683 -602h548l-5 -27h-590l6 27l684 603h-550l6 26h590zM451 773q-8 7 -8 18q0 13 8.5 20.5t20.5 7.5q11 0 18.5 -7t7.5 -18q0 -13 -8 -20.5t-20 -7.5q-11 0 -19 7z" />
    <glyph glyph-name="zdotaccent" unicode="&#x17c;" horiz-adv-x="642" 
d="M626 463l-564 -438h466l-5 -25h-508l6 25l563 438h-466l6 25h507zM390 605q-8 7 -8 18q0 13 8.5 20.5t20.5 7.5q11 0 18.5 -7t7.5 -18q0 -13 -8 -20.5t-20 -7.5q-11 0 -19 7z" />
    <glyph glyph-name="Zcaron" unicode="&#x17d;" horiz-adv-x="696" 
d="M729 629l-683 -602h548l-5 -27h-590l6 27l684 603h-550l6 26h590zM281 856l182 -85l225 87l-7 -30l-221 -84l-185 85z" />
    <glyph glyph-name="zcaron" unicode="&#x17e;" horiz-adv-x="642" 
d="M626 463l-564 -438h466l-5 -25h-508l6 25l563 438h-466l6 25h507zM220 688l182 -85l225 87l-7 -30l-221 -84l-185 85z" />
    <glyph glyph-name="uni018F" unicode="&#x18f;" horiz-adv-x="877" 
d="M660.5 631.5q72.5 -34.5 111.5 -96.5t39 -143q0 -37 -9 -76l-4 -20q-32 -147 -129.5 -226.5t-248.5 -79.5q-98 0 -170.5 34t-112 95t-39.5 142q0 34 5 60l3 17h671q4 24 4 53q0 73 -35.5 129.5t-101 87.5t-154.5 31q-124 0 -208 -53.5t-117 -153.5h-31q36 113 128 173.5
t229 60.5q97 0 169.5 -34.5zM649.5 90.5q90.5 73.5 118.5 207.5l3 14h-640q-4 -23 -4 -50q0 -74 35.5 -129t102 -85.5t155.5 -30.5q139 0 229.5 73.5z" />
    <glyph glyph-name="florin" unicode="&#x192;" horiz-adv-x="816" 
d="M518.5 644q-30.5 -27 -43.5 -83l-50 -221h334l-6 -25h-334l-66 -288q-30 -132 -154 -132h-169l5 25h164q52 0 82.5 27t43.5 83l65 285h-307l6 25h307l51 224q30 132 153 132h198l-6 -25h-191q-52 0 -82.5 -27z" />
    <glyph glyph-name="uni01CD" unicode="&#x1cd;" horiz-adv-x="770" 
d="M696 6l-1 -6h-29l-61 211h-426l-156 -211h-34l2 6l480 650h35zM597 238l-113 387l-286 -387h399zM329 856l182 -85l225 87l-7 -30l-221 -84l-185 85z" />
    <glyph glyph-name="uni01CE" unicode="&#x1ce;" horiz-adv-x="716" 
d="M668 26l-6 -26h-44q-43 0 -68 20.5t-25 55.5q0 14 2 21q-110 -107 -283 -107q-90 0 -139 30t-49 84q0 12 3 25q10 55 60 83t149 38l298 29l3 14q4 19 4 39q0 66 -52.5 103t-147.5 37q-97 0 -162.5 -41t-80.5 -112l-2 -9h-29l2 9q17 83 90 131t184 48q106 0 166.5 -44
t60.5 -120q0 -18 -5 -43l-40 -188q-2 -14 -2 -20q0 -28 17.5 -42.5t51.5 -14.5h44zM409.5 46.5q75.5 31.5 125.5 88.5l26 119l-295 -28q-86 -8 -128.5 -31.5t-50.5 -67.5q-2 -14 -2 -21q0 -44 41.5 -67.5t119.5 -23.5q88 0 163.5 31.5zM207 688l182 -85l225 87l-7 -30
l-221 -84l-185 85z" />
    <glyph glyph-name="uni01D2" unicode="&#x1d2;" horiz-adv-x="685" 
d="M185.5 17.5q-59.5 27.5 -92 76t-32.5 109.5q0 26 6 53l5 23q23 106 98 162.5t195 56.5q77 0 135.5 -27.5t91 -76t32.5 -110.5q0 -25 -6 -54l-6 -22q-20 -103 -95 -160.5t-194 -57.5q-78 0 -137.5 27.5zM498 67.5q67 51.5 85 141.5l5 23q6 27 6 52q0 54 -28 97t-80 67
t-121 24q-111 0 -178 -51t-86 -144l-5 -22q-6 -25 -6 -49q0 -55 29 -98.5t82 -67.5t122 -24q108 0 175 51.5zM214 688l182 -85l225 87l-7 -30l-221 -84l-185 85z" />
    <glyph glyph-name="Gcaron" unicode="&#x1e6;" horiz-adv-x="879" 
d="M674 639q74 -27 116 -73.5t42 -102.5q0 -18 -4 -34l-2 -9h-30l2 9q4 20 4 30q0 50 -38 91.5t-105.5 65t-151.5 23.5q-147 0 -239 -71t-122 -208l-6 -25q-8 -33 -8 -72q0 -73 35 -129t100.5 -86.5t154.5 -30.5q100 0 174.5 31.5t141.5 102.5l32 144h-378l6 27h408
l-72 -322h-26l22 110q-64 -63 -138.5 -91.5t-171.5 -28.5q-96 0 -168 34.5t-111 96t-39 141.5q0 36 9 75l5 25q33 148 133 226t259 78q92 0 166 -27zM354 856l182 -85l225 87l-7 -30l-221 -84l-185 85z" />
    <glyph glyph-name="gcaron" unicode="&#x1e7;" horiz-adv-x="709" 
d="M662 488l-105 -469q-22 -100 -97.5 -149.5t-206.5 -49.5q-76 0 -133 19t-87.5 53.5t-30.5 79.5q0 17 2 25l2 11h30l-3 -11q-2 -14 -2 -21q0 -59 60.5 -94.5t161.5 -35.5q117 0 186 44t89 130l21 94q-50 -50 -112.5 -76t-130.5 -26q-74 0 -129.5 25t-85.5 69.5t-30 103.5
q0 26 6 53l5 23q22 105 97 158.5t201 53.5q76 0 140 -31.5t99 -85.5l25 107h28zM443.5 68q64.5 29 113.5 82l45 201q-29 54 -92.5 87.5t-139.5 33.5q-114 0 -181.5 -47.5t-87.5 -139.5l-5 -23q-6 -25 -6 -49q0 -79 58.5 -126.5t160.5 -47.5q70 0 134.5 29zM215 688l182 -85
l225 87l-7 -30l-221 -84l-185 85z" />
    <glyph glyph-name="uni01F4" unicode="&#x1f4;" horiz-adv-x="879" 
d="M674 639q74 -27 116 -73.5t42 -102.5q0 -18 -4 -34l-2 -9h-30l2 9q4 20 4 30q0 50 -38 91.5t-105.5 65t-151.5 23.5q-147 0 -239 -71t-122 -208l-6 -25q-8 -33 -8 -72q0 -73 35 -129t100.5 -86.5t154.5 -30.5q100 0 174.5 31.5t141.5 102.5l32 144h-378l6 27h408
l-72 -322h-26l22 110q-64 -63 -138.5 -91.5t-171.5 -28.5q-96 0 -168 34.5t-111 96t-39 141.5q0 36 9 75l5 25q33 148 133 226t259 78q92 0 166 -27zM760 857l-6 -27l-425 -87l6 27z" />
    <glyph glyph-name="uni01F5" unicode="&#x1f5;" horiz-adv-x="709" 
d="M662 488l-105 -469q-22 -100 -97.5 -149.5t-206.5 -49.5q-76 0 -133 19t-87.5 53.5t-30.5 79.5q0 17 2 25l2 11h30l-3 -11q-2 -14 -2 -21q0 -59 60.5 -94.5t161.5 -35.5q117 0 186 44t89 130l21 94q-50 -50 -112.5 -76t-130.5 -26q-74 0 -129.5 25t-85.5 69.5t-30 103.5
q0 26 6 53l5 23q22 105 97 158.5t201 53.5q76 0 140 -31.5t99 -85.5l25 107h28zM443.5 68q64.5 29 113.5 82l45 201q-29 54 -92.5 87.5t-139.5 33.5q-114 0 -181.5 -47.5t-87.5 -139.5l-5 -23q-6 -25 -6 -49q0 -79 58.5 -126.5t160.5 -47.5q70 0 134.5 29zM621 689l-6 -27
l-425 -87l6 27z" />
    <glyph glyph-name="AEacute" unicode="&#x1fc;" horiz-adv-x="1072" 
d="M554 630l9 -289h434l-5 -26h-428l10 -288h373l-5 -27h-396l-7 211h-363l-155 -211h-32l2 6l479 650h618l-6 -26h-528zM525 630h-40l-289 -392h342zM886 857l-6 -27l-425 -87l6 27z" />
    <glyph glyph-name="aeacute" unicode="&#x1fd;" horiz-adv-x="1098" 
d="M941.5 473q50.5 -25 78.5 -68.5t28 -99.5q0 -27 -5 -48l-3 -16h-477l-1 -5q-5 -28 -5 -48q0 -79 55.5 -126t150.5 -47q90 0 151.5 41.5t78.5 112.5h30q-19 -84 -88 -131.5t-170 -47.5q-85 0 -144 34.5t-81 94.5q-54 -66 -125.5 -97.5t-167.5 -31.5q-92 0 -141.5 29.5
t-49.5 83.5q0 6 2 20q8 57 55 85t149 36l277 23l4 18q4 20 4 43q0 68 -47.5 106t-134.5 38q-94 0 -157 -41t-78 -112l-1 -9h-30l2 9q16 83 87.5 131t178.5 48q90 0 143.5 -38t61.5 -106q34 67 101 105.5t153 38.5q65 0 115.5 -25zM569 265h446q4 19 4 40q0 74 -53 120.5
t-141 46.5q-101 0 -168 -53t-86 -147zM533 144q-5 22 -5 42q0 26 6 53l1 3l-271 -22q-91 -7 -132 -30t-47 -70q-1 -4 -1 -13q0 -45 41 -68.5t121 -23.5q184 0 287 129zM827 689l-6 -27l-425 -87l6 27z" />
    <glyph glyph-name="Oslashacute" unicode="&#x1fe;" horiz-adv-x="877" 
d="M786 508.5q25 -53.5 25 -117.5q0 -39 -8 -74l-4 -19q-32 -149 -130.5 -228.5t-257.5 -79.5q-112 0 -190 50l-86 -96h-33l1 6l96 106q-47 37 -72 90t-25 118q0 32 8 74l5 19q32 150 130.5 229.5t257.5 79.5q112 0 189 -51l88 97h33l-2 -6l-96 -107q46 -37 71 -90.5z
M131 265q0 -59 22.5 -107.5t63.5 -80.5l457 517q-70 45 -173 45q-145 0 -236 -72.5t-121 -210.5l-5 -20q-8 -40 -8 -71zM782 390q0 59 -22.5 107.5t-63.5 80.5l-456 -517q71 -44 172 -44q146 0 237 72t121 210l4 20q8 40 8 71zM753 857l-6 -27l-425 -87l6 27z" />
    <glyph glyph-name="oslashacute" unicode="&#x1ff;" horiz-adv-x="685" 
d="M603.5 375q20.5 -41 20.5 -89q0 -29 -7 -56l-5 -23q-22 -104 -97.5 -160.5t-193.5 -56.5q-93 0 -160 39l-68 -72h-32l1 5l77 82q-38 29 -58 69.5t-20 88.5q0 26 6 54l5 23q23 106 98.5 162.5t196.5 56.5q91 0 157 -39l68 72h32l-1 -5l-78 -81q38 -29 58.5 -70zM90 203
q0 -42 18 -78t51 -61l345 375q-58 33 -138 33q-109 0 -177 -50.5t-88 -145.5l-5 -22q-6 -27 -6 -51zM594 284q0 43 -17.5 79t-50.5 61l-346 -374q59 -34 142 -34q107 0 174.5 50t86.5 144l5 22q6 27 6 52zM620 689l-6 -27l-425 -87l6 27z" />
    <glyph glyph-name="uni0218" unicode="&#x218;" horiz-adv-x="771" 
d="M140 32q-74 42 -74 121q0 21 4 38l3 12h30l-3 -12q-4 -24 -4 -34q0 -69 65.5 -105t193.5 -36q131 0 198.5 33t82.5 103l3 10q4 16 4 34q0 49 -43.5 77t-137.5 40l-120 15q-91 11 -138.5 46t-47.5 91q0 18 4 33l3 11q16 77 88.5 117t208.5 40q132 0 201.5 -41.5
t69.5 -119.5q0 -20 -4 -39l-3 -11h-30l3 11q4 16 4 35q0 68 -61.5 103.5t-180.5 35.5q-120 0 -186 -33t-81 -100l-2 -10q-4 -15 -4 -30q0 -93 166 -114l120 -15q103 -13 152 -47t49 -92q0 -16 -5 -39l-2 -11q-18 -80 -92 -119.5t-220 -39.5q-140 0 -214 42zM355 -58
l-86 -147h-31l84 147h33z" />
    <glyph glyph-name="uni0219" unicode="&#x219;" horiz-adv-x="688" 
d="M172 6q-58 16 -89.5 45t-31.5 67q0 5 2 19l1 7h29l-1 -7q-2 -12 -2 -17q0 -48 61 -76.5t166 -28.5q109 0 171.5 25.5t73.5 73.5l2 9q2 7 2 19q0 35 -38.5 56.5t-119.5 31.5l-107 13q-83 10 -123 35.5t-40 68.5q0 11 3 23l2 10q11 58 76 88t181 30q73 0 129.5 -16.5
t87.5 -45.5t31 -67q0 -6 -2 -18l-1 -7h-29l1 7q2 10 2 15q0 47 -60.5 77t-159.5 30q-103 0 -161 -24t-66 -70l-2 -10q-2 -7 -2 -20q0 -34 33.5 -54t103.5 -28l107 -12q184 -21 184 -110q0 -12 -3 -24l-2 -9q-14 -60 -84 -91t-191 -31q-76 0 -134 16zM310 -58l-86 -147h-31
l84 147h33z" />
    <glyph glyph-name="uni021A" unicode="&#x21a;" horiz-adv-x="691" 
d="M96 630l6 26h670l-6 -26h-318l-140 -630h-30l140 630h-322zM294 -58l-86 -147h-31l84 147h33z" />
    <glyph glyph-name="uni021B" unicode="&#x21b;" horiz-adv-x="520" 
d="M223 131q-4 -22 -4 -30q0 -36 23.5 -55.5t65.5 -19.5h115l-6 -26h-112q-54 0 -84.5 26t-30.5 72q0 18 4 34l73 331h-206l5 25h191q10 0 14.5 3.5t6.5 13.5l26 116h28l-30 -133h254l-5 -25h-254zM308 -58l-86 -147h-31l84 147h33z" />
    <glyph glyph-name="uni0232" unicode="&#x232;" horiz-adv-x="726" 
d="M786 650l-409 -358l-65 -292h-30l66 294l-251 356l1 6h29l238 -340l388 340h35zM678 805l-5 -25h-406l5 25h406z" />
    <glyph glyph-name="uni0233" unicode="&#x233;" horiz-adv-x="697" 
d="M682 488l-1 -5l-432 -556q-30 -39 -54.5 -59t-54.5 -29t-76 -9h-68l5 25h65q55 0 87 17t70 65l47 61l-162 485l1 5h28l153 -465l360 465h32zM632 637l-5 -25h-406l5 25h406z" />
    <glyph glyph-name="uni0237" unicode="&#x237;" horiz-adv-x="286" 
d="M-71 -145q113 0 140 121l114 512h29l-115 -514q-17 -73 -58 -108.5t-110 -35.5h-122l5 25h117z" />
    <glyph glyph-name="uni0259" unicode="&#x259;" horiz-adv-x="671" 
d="M486 471q59 -27 91.5 -75.5t32.5 -109.5q0 -27 -6 -54l-5 -24q-23 -105 -98 -161.5t-194 -56.5q-74 0 -132 26t-90 72t-32 104q0 12 4 38l4 23h518q3 17 3 33q0 54 -29 96.5t-82 66t-122 23.5q-99 0 -162 -39.5t-81 -113.5h-30q21 87 91 133t182 46q78 0 137 -27z
M482.5 65.5q67.5 49.5 87.5 143.5l4 19h-488v-2q-3 -16 -3 -34q0 -51 28 -91t79.5 -62.5t117.5 -22.5q107 0 174.5 49.5z" />
    <glyph glyph-name="uni02BB" unicode="&#x2bb;" horiz-adv-x="600" 
d="M779 705l-84 -146h-31l84 146h31z" />
    <glyph glyph-name="uni02BC" unicode="&#x2bc;" horiz-adv-x="334" 
d="M314 696l-1 -5l-132 -233h-30l129 238h34z" />
    <glyph glyph-name="circumflex" unicode="&#x2c6;" horiz-adv-x="600" 
d="M397 688l185 -86l-5 -26l-182 85l-225 -87l7 29z" />
    <glyph glyph-name="caron" unicode="&#x2c7;" horiz-adv-x="600" 
d="M195 688l182 -85l225 87l-7 -30l-221 -84l-185 85z" />
    <glyph glyph-name="uni02C9" unicode="&#x2c9;" horiz-adv-x="600" 
d="M907 637l-5 -25h-406l5 25h406z" />
    <glyph glyph-name="breve" unicode="&#x2d8;" horiz-adv-x="600" 
d="M186 644l5 25q96 -65 195 -65q97 0 211 65l-7 -28q-104 -62 -206 -62q-101 0 -198 65z" />
    <glyph glyph-name="dotaccent" unicode="&#x2d9;" horiz-adv-x="600" 
d="M365 605q-8 7 -8 18q0 13 8.5 20.5t20.5 7.5q11 0 18.5 -7t7.5 -18q0 -13 -8 -20.5t-20 -7.5q-11 0 -19 7z" />
    <glyph glyph-name="ring" unicode="&#x2da;" horiz-adv-x="600" 
d="M297 574.5q-33 25.5 -33 71.5q0 48 34 75.5t93 27.5q58 0 91.5 -26t33.5 -71q0 -49 -33.5 -76t-93.5 -27q-59 0 -92 25.5zM463.5 592q26.5 22 26.5 60q0 35 -26 55.5t-72 20.5q-48 0 -75.5 -22t-27.5 -60q0 -35 27 -55.5t73 -20.5q48 0 74.5 22z" />
    <glyph glyph-name="ogonek" unicode="&#x2db;" horiz-adv-x="600" 
d="M152 -156.5q-18 13.5 -18 36.5t17 40.5t59 38.5l123 61l9 -20l-119 -57q-34 -16 -46.5 -28.5t-12.5 -29.5q0 -14 11 -22t31 -8h104l-6 -25h-104q-30 0 -48 13.5z" />
    <glyph glyph-name="tilde" unicode="&#x2dc;" horiz-adv-x="600" 
d="M431.5 598.5q-20.5 4.5 -53.5 14.5q-5 1 -23.5 6.5t-34.5 8t-32 2.5q-54 0 -110 -26l6 27q56 25 105 25q23 0 42.5 -4.5t47.5 -13.5q32 -10 53.5 -14.5t47.5 -4.5q51 0 112 21l-7 -27q-59 -19 -107 -19q-26 0 -46.5 4.5z" />
    <glyph glyph-name="hungarumlaut" unicode="&#x2dd;" horiz-adv-x="600" 
d="M398 689l-6 -29l-289 -85l7 28zM669 689l-6 -29l-286 -85l7 28z" />
    <glyph glyph-name="gravecomb" unicode="&#x300;" horiz-adv-x="0" 
d="M-104 688l387 -86l-6 -26l-386 87z" />
    <glyph glyph-name="acutecomb" unicode="&#x301;" horiz-adv-x="0" 
d="M302 689l-6 -27l-425 -87l6 27z" />
    <glyph glyph-name="uni0302" unicode="&#x302;" horiz-adv-x="0" 
d="M98 688l185 -86l-5 -26l-182 85l-225 -87l7 29z" />
    <glyph glyph-name="tildecomb" unicode="&#x303;" horiz-adv-x="0" 
d="M131.5 598.5q-20.5 4.5 -53.5 14.5q-5 1 -23.5 6.5t-34.5 8t-32 2.5q-54 0 -110 -26l6 27q56 25 105 25q23 0 42.5 -4.5t47.5 -13.5q32 -10 53.5 -14.5t47.5 -4.5q51 0 112 21l-7 -27q-59 -19 -107 -19q-26 0 -46.5 4.5z" />
    <glyph glyph-name="uni0304" unicode="&#x304;" horiz-adv-x="0" 
d="M290 637l-5 -25h-406l5 25h406z" />
    <glyph glyph-name="uni0306" unicode="&#x306;" horiz-adv-x="0" 
d="M-113 644l5 25q96 -65 195 -65q97 0 211 65l-7 -28q-104 -62 -206 -62q-101 0 -198 65z" />
    <glyph glyph-name="uni0307" unicode="&#x307;" horiz-adv-x="0" 
d="M65 605q-8 7 -8 18q0 13 8.5 20.5t20.5 7.5q11 0 18.5 -7t7.5 -18q0 -13 -8 -20.5t-20 -7.5q-11 0 -19 7z" />
    <glyph glyph-name="uni0308" unicode="&#x308;" horiz-adv-x="0" 
d="M-63 604.5q-7 6.5 -7 17.5q0 13 8 20.5t20 7.5q10 0 17.5 -6.5t7.5 -17.5q0 -12 -8.5 -20t-19.5 -8t-18 6.5zM192.5 605q-7.5 7 -7.5 18q0 12 8.5 19.5t19.5 7.5t18 -6t7 -16q0 -13 -8 -21.5t-19 -8.5t-18.5 7z" />
    <glyph glyph-name="uni030A" unicode="&#x30a;" horiz-adv-x="0" 
d="M-3 574.5q-33 25.5 -33 71.5q0 48 34 75.5t93 27.5q58 0 91.5 -26t33.5 -71q0 -49 -33.5 -76t-93.5 -27q-59 0 -92 25.5zM163.5 592q26.5 22 26.5 60q0 35 -26 55.5t-72 20.5q-48 0 -75.5 -22t-27.5 -60q0 -35 27 -55.5t73 -20.5q48 0 74.5 22z" />
    <glyph glyph-name="uni030B" unicode="&#x30b;" horiz-adv-x="0" 
d="M155 689l-6 -29l-289 -85l7 28zM426 689l-6 -29l-286 -85l7 28z" />
    <glyph glyph-name="uni030C" unicode="&#x30c;" horiz-adv-x="0" 
d="M-104 688l182 -85l225 87l-7 -30l-221 -84l-185 85z" />
    <glyph glyph-name="uni0312" unicode="&#x312;" horiz-adv-x="0" 
d="M154 705l-84 -146h-31l84 146h31z" />
    <glyph glyph-name="dotbelowcomb" unicode="&#x323;" horiz-adv-x="0" 
d="M-103.5 -156q-7.5 7 -7.5 19t8.5 19.5t20.5 7.5q11 0 18.5 -7t7.5 -18q0 -13 -8 -20.5t-20 -7.5t-19.5 7z" />
    <glyph glyph-name="uni0326" unicode="&#x326;" horiz-adv-x="0" 
d="M-54 -58l-86 -147h-31l84 147h33z" />
    <glyph glyph-name="uni0327" unicode="&#x327;" horiz-adv-x="0" 
d="M-41 0l-89 -170h-32l93 178z" />
    <glyph glyph-name="uni0328" unicode="&#x328;" horiz-adv-x="0" 
d="M-244 -156.5q-18 13.5 -18 36.5t17 40.5t59 38.5l123 61l9 -20l-119 -57q-34 -16 -46.5 -28.5t-12.5 -29.5q0 -14 11 -22t31 -8h104l-6 -25h-104q-30 0 -48 13.5z" />
    <glyph glyph-name="uni0374" unicode="&#x374;" horiz-adv-x="334" 
d="M305 656l-2 -5l-142 -276h-28l138 281h34z" />
    <glyph glyph-name="tonos" unicode="&#x384;" horiz-adv-x="600" 
d="M455 818l-77 -259h-28l78 259h27z" />
    <glyph glyph-name="dieresistonos" unicode="&#x385;" horiz-adv-x="600" 
d="M458 818l-78 -259h-27l77 259h28zM210.5 605q-7.5 7 -7.5 18q0 12 8 19.5t20 7.5q11 0 18 -6.5t7 -16.5q0 -12 -8 -20.5t-20 -8.5q-10 0 -17.5 7zM520.5 605q-7.5 7 -7.5 18q0 12 8 19.5t20 7.5q11 0 18 -6.5t7 -16.5q0 -12 -8 -20.5t-19 -8.5t-18.5 7z" />
    <glyph glyph-name="Alphatonos" unicode="&#x386;" horiz-adv-x="770" 
d="M696 6l-1 -6h-29l-61 211h-426l-156 -211h-34l2 6l480 650h35zM597 238l-113 387l-286 -387h399zM166 656l-77 -259h-28l78 259h27z" />
    <glyph glyph-name="anoteleia" unicode="&#x387;" horiz-adv-x="334" 
d="M196.5 442.5q-7.5 6.5 -7.5 17.5q0 13 8 20.5t20 7.5q10 0 17.5 -7t7.5 -18q0 -12 -8 -19.5t-20 -7.5q-10 0 -17.5 6.5z" />
    <glyph glyph-name="Epsilontonos" unicode="&#x388;" horiz-adv-x="723" 
d="M727 656l-6 -26h-494l-64 -289h474l-6 -26h-474l-65 -288h495l-6 -27h-524l146 656h524zM-10 656l-77 -259h-28l78 259h27z" />
    <glyph glyph-name="Etatonos" unicode="&#x389;" horiz-adv-x="819" 
d="M233 656l-70 -315h537l70 315h30l-146 -656h-30l70 315h-537l-70 -315h-30l146 656h30zM-9 656l-77 -259h-28l78 259h27z" />
    <glyph glyph-name="Iotatonos" unicode="&#x38a;" horiz-adv-x="299" 
d="M256 656l-146 -656h-30l146 656h30zM-11 656l-77 -259h-28l78 259h27z" />
    <glyph glyph-name="Omicrontonos" unicode="&#x38c;" horiz-adv-x="877" 
d="M250.5 24.5q-71.5 34.5 -110 96.5t-38.5 142q0 40 8 75l5 19q32 150 129.5 229.5t252.5 79.5q94 0 165.5 -34.5t110 -97t38.5 -142.5q0 -40 -8 -75l-4 -19q-32 -150 -130 -229t-252 -79q-95 0 -166.5 34.5zM649.5 89.5q90.5 72.5 119.5 209.5l4 20q8 33 8 73
q0 73 -34.5 129t-99 87t-151.5 31q-142 0 -232 -73t-120 -210l-4 -20q-8 -40 -8 -71q0 -73 34.5 -129.5t99.5 -87.5t152 -31q141 0 231.5 72.5zM70 656l-77 -259h-28l78 259h27z" />
    <glyph glyph-name="Upsilontonos" unicode="&#x38e;" horiz-adv-x="726" 
d="M786 650l-409 -358l-65 -292h-30l66 294l-251 356l1 6h29l238 -340l388 340h35zM-25 656l-77 -259h-28l78 259h27z" />
    <glyph glyph-name="Omegatonos" unicode="&#x38f;" horiz-adv-x="880" 
d="M661.5 633q72.5 -33 112 -91.5t39.5 -133.5q0 -30 -8 -67l-2 -12q-23 -106 -92.5 -164.5t-192.5 -72.5l-13 -65h245l-5 -27h-275l24 112q123 14 190.5 67.5t88.5 151.5l3 12q8 35 8 63q0 68 -36 121t-102 82.5t-154 29.5q-138 0 -225.5 -63.5t-113.5 -182.5l-3 -12
q-7 -29 -7 -59q0 -79 51 -134t144 -75l-23 -113h-276l5 27h247l15 69q-90 23 -141 83t-51 142q0 32 7 61l2 12q29 132 124.5 202t246.5 70q95 0 167.5 -33zM89 656l-77 -259h-28l78 259h27z" />
    <glyph glyph-name="iotadieresistonos" unicode="&#x390;" horiz-adv-x="329" 
d="M97 82q0 19 4 36l82 370h29l-82 -370q-4 -16 -4 -32q0 -31 20 -45.5t61 -14.5h50l-6 -26h-49q-105 0 -105 82zM301 818l-78 -259h-27l77 259h28zM53.5 605q-7.5 7 -7.5 18q0 12 8 19.5t20 7.5q11 0 18 -6.5t7 -16.5q0 -12 -8 -20.5t-20 -8.5q-10 0 -17.5 7zM363.5 605
q-7.5 7 -7.5 18q0 12 8 19.5t20 7.5q11 0 18 -6.5t7 -16.5q0 -12 -8 -20.5t-19 -8.5t-18.5 7z" />
    <glyph glyph-name="Alpha" unicode="&#x391;" horiz-adv-x="770" 
d="M696 6l-1 -6h-29l-61 211h-426l-156 -211h-34l2 6l480 650h35zM597 238l-113 387l-286 -387h399z" />
    <glyph glyph-name="Beta" unicode="&#x392;" horiz-adv-x="785" 
d="M687.5 619q51.5 -37 51.5 -98q0 -11 -4 -33l-3 -13q-24 -115 -153 -144q53 -14 82.5 -47.5t29.5 -79.5q0 -18 -4 -34l-3 -14q-17 -77 -78 -116.5t-163 -39.5h-386l146 656h345q88 0 139.5 -37zM708 519q0 51 -43 81t-119 30h-319l-63 -286h328q90 0 143.5 33.5t67.5 97.5
l2 14q3 15 3 30zM661 204q0 54 -42.5 84t-120.5 30h-340l-65 -291h351q89 0 143.5 34t67.5 98l3 14q3 17 3 31z" />
    <glyph glyph-name="Gamma" unicode="&#x393;" horiz-adv-x="687" 
d="M768 656l-6 -26h-535l-140 -630h-30l146 656h565z" />
    <glyph glyph-name="uni0394" unicode="&#x394;" horiz-adv-x="773" 
d="M676 26l-5 -26h-678l6 26l461 630h36zM34 27h613l-173 602z" />
    <glyph glyph-name="Epsilon" unicode="&#x395;" horiz-adv-x="723" 
d="M727 656l-6 -26h-494l-64 -289h474l-6 -26h-474l-65 -288h495l-6 -27h-524l146 656h524z" />
    <glyph glyph-name="Zeta" unicode="&#x396;" horiz-adv-x="696" 
d="M729 629l-683 -602h548l-5 -27h-590l6 27l684 603h-550l6 26h590z" />
    <glyph glyph-name="Eta" unicode="&#x397;" horiz-adv-x="819" 
d="M233 656l-70 -315h537l70 315h30l-146 -656h-30l70 315h-537l-70 -315h-30l146 656h30z" />
    <glyph glyph-name="Theta" unicode="&#x398;" horiz-adv-x="877" 
d="M662.5 631.5q71.5 -34.5 110 -97t38.5 -142.5q0 -40 -8 -75l-4 -19q-32 -150 -130 -229t-252 -79q-95 0 -166.5 34.5t-110 96t-38.5 142.5q0 40 8 75l5 19q32 150 129.5 229.5t252.5 79.5q94 0 165.5 -34.5zM264.5 566q-90.5 -73 -120.5 -210l-3 -15h636q4 24 4 51
q0 73 -34.5 129t-99 87t-151.5 31q-141 0 -231.5 -73zM649.5 89.5q90.5 72.5 119.5 209.5l3 16h-636q-4 -24 -4 -51q0 -73 35 -129t99.5 -87t150.5 -31q142 0 232.5 72.5z" />
    <glyph glyph-name="Iota" unicode="&#x399;" horiz-adv-x="299" 
d="M256 656l-146 -656h-30l146 656h30z" />
    <glyph glyph-name="Kappa" unicode="&#x39a;" horiz-adv-x="813" 
d="M820 650l-455 -289l306 -355l-1 -6h-31l-299 346l-205 -129l-48 -217h-30l146 656h30l-89 -400l636 400h41z" />
    <glyph glyph-name="Lambda" unicode="&#x39b;" horiz-adv-x="770" 
d="M695 6l-1 -6h-29l-182 628l-461 -628h-34l1 6l481 650h35z" />
    <glyph glyph-name="Mu" unicode="&#x39c;" horiz-adv-x="1029" 
d="M864 0h-30l137 614l-495 -614h-32l-220 617l-137 -617h-30l146 656h37l225 -623l503 623h42z" />
    <glyph glyph-name="Nu" unicode="&#x39d;" horiz-adv-x="819" 
d="M800 656l-146 -656h-29l-402 619l-137 -619h-29l146 656h28l402 -618l137 618h30z" />
    <glyph glyph-name="Xi" unicode="&#x39e;" horiz-adv-x="790" 
d="M495 630l-64 -289h271l-6 -26h-271l-64 -288h293l-6 -27h-614l5 27h293l64 288h-270l5 26h271l64 289h-292l6 26h614l-6 -26h-293z" />
    <glyph glyph-name="Omicron" unicode="&#x39f;" horiz-adv-x="877" 
d="M250.5 24.5q-71.5 34.5 -110 96.5t-38.5 142q0 40 8 75l5 19q32 150 129.5 229.5t252.5 79.5q94 0 165.5 -34.5t110 -97t38.5 -142.5q0 -40 -8 -75l-4 -19q-32 -150 -130 -229t-252 -79q-95 0 -166.5 34.5zM649.5 89.5q90.5 72.5 119.5 209.5l4 20q8 33 8 73
q0 73 -34.5 129t-99 87t-151.5 31q-142 0 -232 -73t-120 -210l-4 -20q-8 -40 -8 -71q0 -73 34.5 -129.5t99.5 -87.5t152 -31q141 0 231.5 72.5z" />
    <glyph glyph-name="Pi" unicode="&#x3a0;" horiz-adv-x="799" 
d="M779 656l-146 -656h-30l140 630h-516l-140 -630h-30l146 656h576z" />
    <glyph glyph-name="Rho" unicode="&#x3a1;" horiz-adv-x="787" 
d="M579 656q89 0 141.5 -39.5t52.5 -104.5q0 -20 -4 -37l-2 -14q-17 -77 -78.5 -117.5t-165.5 -40.5h-369l-67 -303h-30l146 656h376zM668.5 364q54.5 35 68.5 100l3 13q4 22 4 32q0 56 -44.5 88.5t-122.5 32.5h-350l-67 -301h364q90 0 144.5 35z" />
    <glyph glyph-name="Sigma" unicode="&#x3a3;" horiz-adv-x="703" 
d="M720 630h-511l280 -293l-3 -21l-402 -289h502l-5 -27h-549l6 27l422 303l-288 299l6 27h549z" />
    <glyph glyph-name="Tau" unicode="&#x3a4;" horiz-adv-x="691" 
d="M96 630l6 26h670l-6 -26h-318l-140 -630h-30l140 630h-322z" />
    <glyph glyph-name="Upsilon" unicode="&#x3a5;" horiz-adv-x="726" 
d="M786 650l-409 -358l-65 -292h-30l66 294l-251 356l1 6h29l238 -340l388 340h35z" />
    <glyph glyph-name="Phi" unicode="&#x3a6;" horiz-adv-x="1077" 
d="M934 527q75 -53 75 -152q0 -34 -7 -66l-2 -10q-42 -223 -342 -223h-142l-26 -116h-29l26 116h-82q-147 0 -223 52.5t-76 151.5q0 30 8 68l2 9q20 113 104.5 168t240.5 55h137l27 116h30l-27 -116h87q144 0 219 -53zM135 281q0 -88 67.5 -133.5t202.5 -45.5h88l99 452
h-133q-143 0 -219.5 -49.5t-95.5 -150.5l-2 -10q-7 -31 -7 -63zM980 373q0 89 -67 135t-198 46h-93l-100 -452h139q138 0 214.5 49.5t95.5 150.5l2 10q7 31 7 61z" />
    <glyph glyph-name="Chi" unicode="&#x3a7;" horiz-adv-x="819" 
d="M826 650l-377 -324l233 -320l-1 -6h-31l-224 310l-359 -310h-37l1 6l377 324l-233 320l1 6h31l224 -310l359 310h37z" />
    <glyph glyph-name="Psi" unicode="&#x3a8;" horiz-adv-x="1057" 
d="M1072 656l-55 -237q-29 -124 -114 -183.5t-235 -59.5h-139l-39 -176h-30l39 176h-87q-142 0 -218.5 52.5t-76.5 149.5q0 22 7 59l46 219h30l-47 -219q-6 -30 -6 -56q0 -87 67.5 -133t197.5 -46h93l101 454h30l-101 -454h135q266 0 317 218l55 236h30z" />
    <glyph glyph-name="uni03A9" unicode="&#x3a9;" horiz-adv-x="880" 
d="M661.5 633q72.5 -33 112 -91.5t39.5 -133.5q0 -30 -8 -67l-2 -12q-23 -106 -92.5 -164.5t-192.5 -72.5l-13 -65h245l-5 -27h-275l24 112q123 14 190.5 67.5t88.5 151.5l3 12q8 35 8 63q0 68 -36 121t-102 82.5t-154 29.5q-138 0 -225.5 -63.5t-113.5 -182.5l-3 -12
q-7 -29 -7 -59q0 -79 51 -134t144 -75l-23 -113h-276l5 27h247l15 69q-90 23 -141 83t-51 142q0 32 7 61l2 12q29 132 124.5 202t246.5 70q95 0 167.5 -33z" />
    <glyph glyph-name="Iotadieresis" unicode="&#x3aa;" horiz-adv-x="299" 
d="M256 656l-146 -656h-30l146 656h30zM124 772.5q-7 6.5 -7 17.5q0 13 8 20.5t20 7.5q10 0 17.5 -6.5t7.5 -17.5q0 -12 -8.5 -20t-19.5 -8t-18 6.5zM379.5 773q-7.5 7 -7.5 18q0 12 8.5 19.5t19.5 7.5t18 -6t7 -16q0 -13 -8 -21.5t-19 -8.5t-18.5 7z" />
    <glyph glyph-name="Upsilondieresis" unicode="&#x3ab;" horiz-adv-x="726" 
d="M786 650l-409 -358l-65 -292h-30l66 294l-251 356l1 6h29l238 -340l388 340h35zM325 772.5q-7 6.5 -7 17.5q0 13 8 20.5t20 7.5q10 0 17.5 -6.5t7.5 -17.5q0 -12 -8.5 -20t-19.5 -8t-18 6.5zM580.5 773q-7.5 7 -7.5 18q0 12 8.5 19.5t19.5 7.5t18 -6t7 -16
q0 -13 -8 -21.5t-19 -8.5t-18.5 7z" />
    <glyph glyph-name="alphatonos" unicode="&#x3ac;" horiz-adv-x="737" 
d="M687 26l-6 -26h-40q-47 0 -73 24.5t-23 64.5q-96 -99 -235 -99q-75 0 -131.5 27t-87 75t-30.5 109q0 26 6 53l4 23q20 105 96 163t203 58q76 0 140.5 -32.5t96.5 -87.5l26 110h28l-84 -382q-2 -8 -2 -21q0 -28 18.5 -43.5t54.5 -15.5h39zM444 43.5q59 27.5 109 84.5
l48 220q-29 56 -92 90t-138 34q-112 0 -182 -50.5t-89 -145.5l-4 -23q-5 -21 -5 -50q0 -55 27 -97.5t77 -66t117 -23.5q73 0 132 27.5zM488 818l-77 -259h-28l78 259h27z" />
    <glyph glyph-name="epsilontonos" unicode="&#x3ad;" horiz-adv-x="684" 
d="M558.5 452.5q68.5 -45.5 68.5 -121.5q0 -20 -4 -37l-1 -6h-29l2 6q4 24 4 34q0 67 -59.5 106t-165.5 39q-107 0 -164 -24t-68 -73l-2 -10q-3 -13 -3 -25q0 -38 32.5 -60t91.5 -22h175l-6 -26h-190q-71 0 -111.5 -20.5t-47.5 -60.5l-2 -10q-2 -14 -2 -20q0 -52 59.5 -79.5
t173.5 -27.5q121 0 182 35.5t77 113.5l1 7h30l-2 -7q-19 -91 -87.5 -132.5t-200.5 -41.5q-125 0 -194 34t-69 95q0 12 3 24l2 10q15 82 130 97q-35 14 -54.5 38.5t-19.5 55.5q0 12 3 25l3 10q13 60 77 89.5t182 29.5q117 0 185.5 -45.5zM477 818l-77 -259h-28l78 259h27z
" />
    <glyph glyph-name="etatonos" unicode="&#x3ae;" horiz-adv-x="733" 
d="M596 452q54 -46 54 -129q0 -29 -8 -67l-94 -426h-29l95 428q7 31 7 62q0 73 -46 112.5t-133 39.5q-72 0 -137 -30.5t-110 -85.5l-79 -356h-29l84 378q3 12 3 24q0 29 -19.5 44.5t-55.5 15.5h-51l6 26h52q48 0 74 -24t23 -66q48 49 110 74.5t130 25.5q99 0 153 -46z
M560 818l-77 -259h-28l78 259h27z" />
    <glyph glyph-name="iotatonos" unicode="&#x3af;" horiz-adv-x="329" 
d="M97 82q0 19 4 36l82 370h29l-82 -370q-4 -16 -4 -32q0 -31 20 -45.5t61 -14.5h50l-6 -26h-49q-105 0 -105 82zM302 818l-77 -259h-28l78 259h27z" />
    <glyph glyph-name="upsilondieresistonos" unicode="&#x3b0;" horiz-adv-x="704" 
d="M155.5 44.5q-63.5 54.5 -63.5 145.5q0 26 6 54l50 244h29l-50 -246q-5 -22 -5 -50q0 -81 55 -128.5t154 -47.5q96 0 155.5 48.5t81.5 140.5l68 283h29l-69 -286q-51 -212 -267 -212q-110 0 -173.5 54.5zM510 818l-78 -259h-27l77 259h28zM262.5 605q-7.5 7 -7.5 18
q0 12 8 19.5t20 7.5q11 0 18 -6.5t7 -16.5q0 -12 -8 -20.5t-20 -8.5q-10 0 -17.5 7zM572.5 605q-7.5 7 -7.5 18q0 12 8 19.5t20 7.5q11 0 18 -6.5t7 -16.5q0 -12 -8 -20.5t-19 -8.5t-18.5 7z" />
    <glyph glyph-name="alpha" unicode="&#x3b1;" horiz-adv-x="737" 
d="M687 26l-6 -26h-40q-47 0 -73 24.5t-23 64.5q-96 -99 -235 -99q-75 0 -131.5 27t-87 75t-30.5 109q0 26 6 53l4 23q20 105 96 163t203 58q76 0 140.5 -32.5t96.5 -87.5l26 110h28l-84 -382q-2 -8 -2 -21q0 -28 18.5 -43.5t54.5 -15.5h39zM444 43.5q59 27.5 109 84.5
l48 220q-29 56 -92 90t-138 34q-112 0 -182 -50.5t-89 -145.5l-4 -23q-5 -21 -5 -50q0 -55 27 -97.5t77 -66t117 -23.5q73 0 132 27.5z" />
    <glyph glyph-name="beta" unicode="&#x3b2;" horiz-adv-x="723" 
d="M638 658q65 -48 65 -128q0 -17 -3 -37l-1 -7q-9 -60 -50.5 -97.5t-111.5 -49.5q51 -16 79 -52t28 -86q0 -16 -3 -34l-2 -6q-16 -86 -85 -128.5t-195 -42.5q-178 0 -258 107l-62 -267h-30l155 657q26 113 98 166t199 53q112 0 177 -48zM675 528q0 71 -57 111.5t-158 40.5
q-116 0 -180.5 -47t-87.5 -148l-83 -357q68 -112 248 -112q117 0 178 35.5t75 112.5l2 5q4 16 4 34q0 57 -42 91t-113 34h-114l5 26h113q90 0 142.5 34.5t62.5 99.5l2 6q3 18 3 34z" />
    <glyph glyph-name="gamma" unicode="&#x3b3;" horiz-adv-x="695" 
d="M686 483l-379 -490l-36 -163h-30l37 163l-163 490l1 5h28l154 -463l358 463h31z" />
    <glyph glyph-name="delta" unicode="&#x3b4;" horiz-adv-x="685" 
d="M674 671h-451l275 -208q121 -91 121 -200q0 -20 -5 -45l-4 -16q-21 -103 -94.5 -157.5t-191.5 -54.5q-78 0 -137.5 27.5t-92 76t-32.5 109.5q0 26 6 54l3 16q46 208 293 208q37 0 74 -5l-258 194l6 26h493zM590 263q0 47 -27 91.5t-83 90.5q-53 12 -111 12
q-227 0 -269 -186l-3 -16q-6 -25 -6 -49q0 -54 29 -97.5t82.5 -68t122.5 -24.5q105 0 170.5 48.5t85.5 140.5l4 16q5 23 5 42z" />
    <glyph glyph-name="epsilon" unicode="&#x3b5;" horiz-adv-x="684" 
d="M558.5 452.5q68.5 -45.5 68.5 -121.5q0 -20 -4 -37l-1 -6h-29l2 6q4 24 4 34q0 67 -59.5 106t-165.5 39q-107 0 -164 -24t-68 -73l-2 -10q-3 -13 -3 -25q0 -38 32.5 -60t91.5 -22h175l-6 -26h-190q-71 0 -111.5 -20.5t-47.5 -60.5l-2 -10q-2 -14 -2 -20q0 -52 59.5 -79.5
t173.5 -27.5q121 0 182 35.5t77 113.5l1 7h30l-2 -7q-19 -91 -87.5 -132.5t-200.5 -41.5q-125 0 -194 34t-69 95q0 12 3 24l2 10q15 82 130 97q-35 14 -54.5 38.5t-19.5 55.5q0 12 3 25l3 10q13 60 77 89.5t182 29.5q117 0 185.5 -45.5z" />
    <glyph glyph-name="zeta" unicode="&#x3b6;" horiz-adv-x="599" 
d="M84 211q-4 -16 -4 -35q0 -44 25.5 -78t72.5 -53t109 -19h119q57 0 88 -21.5t31 -59.5q0 -14 -2 -21l-2 -9q-9 -45 -42 -65t-98 -20h-151l6 25h145q53 0 79.5 15t33.5 48l1 7q2 12 2 17q0 28 -23.5 43t-68.5 15h-120q-70 0 -123 22.5t-82 62t-29 90.5q0 22 4 39l2 9
q9 46 31.5 80.5t68.5 71t131 88.5l339 207h-473l6 26h523l-6 -25l-375 -230q-81 -50 -124 -83.5t-63.5 -64.5t-28.5 -73z" />
    <glyph glyph-name="eta" unicode="&#x3b7;" horiz-adv-x="733" 
d="M596 452q54 -46 54 -129q0 -29 -8 -67l-94 -426h-29l95 428q7 31 7 62q0 73 -46 112.5t-133 39.5q-72 0 -137 -30.5t-110 -85.5l-79 -356h-29l84 378q3 12 3 24q0 29 -19.5 44.5t-55.5 15.5h-51l6 26h52q48 0 74 -24t23 -66q48 49 110 74.5t130 25.5q99 0 153 -46z" />
    <glyph glyph-name="theta" unicode="&#x3b8;" horiz-adv-x="675" 
d="M527 640q59 -27 91.5 -75.5t32.5 -110.5q0 -23 -7 -56l-44 -194q-23 -103 -94.5 -158.5t-184.5 -55.5q-77 0 -136.5 27t-92 74.5t-32.5 109.5q0 22 7 55l45 194q24 105 94.5 161t184.5 56q77 0 136 -27zM225.5 590.5q-64.5 -49.5 -85.5 -141.5l-25 -108h487l14 61
q6 27 6 51q0 55 -28.5 97.5t-81 66t-121.5 23.5q-101 0 -165.5 -49.5zM486.5 65.5q64.5 49.5 84.5 140.5l25 110h-487l-14 -63q-6 -25 -6 -50q0 -55 28.5 -97.5t81.5 -66t123 -23.5q100 0 164.5 49.5z" />
    <glyph glyph-name="iota" unicode="&#x3b9;" horiz-adv-x="329" 
d="M97 82q0 19 4 36l82 370h29l-82 -370q-4 -16 -4 -32q0 -31 20 -45.5t61 -14.5h50l-6 -26h-49q-105 0 -105 82z" />
    <glyph glyph-name="kappa" unicode="&#x3ba;" horiz-adv-x="681" 
d="M675 483l-352 -206l259 -271l-2 -6h-29l-250 265l-191 -111l-34 -154h-29l109 488h29l-67 -299l516 299h41v-5z" />
    <glyph glyph-name="lambda" unicode="&#x3bb;" horiz-adv-x="705" 
d="M589 5l-1 -5h-27l-156 461l-357 -461h-31l1 5l376 487l-32 92q-17 49 -41.5 68t-78.5 19h-71l5 25h67q63 0 94 -22.5t51 -82.5z" />
    <glyph glyph-name="uni03BC" unicode="&#x3bc;" horiz-adv-x="740" 
d="M702 26l-6 -26h-53q-49 0 -74.5 24t-21.5 66q-45 -49 -103 -74.5t-124 -25.5q-90 0 -146 36t-69 100l-66 -296h-29l146 658h29l-58 -261q-6 -27 -6 -52q0 -74 53 -116.5t147 -42.5q67 0 127.5 29.5t106.5 85.5l79 357h29l-85 -382q-3 -12 -3 -23q0 -28 19.5 -42.5
t55.5 -14.5h52z" />
    <glyph glyph-name="nu" unicode="&#x3bd;" horiz-adv-x="697" 
d="M682 488l-1 -5l-376 -483h-37l-160 483l1 5h28l152 -464l361 464h32z" />
    <glyph glyph-name="xi" unicode="&#x3be;" horiz-adv-x="663" 
d="M573.5 685q58.5 -21 90 -59.5t31.5 -89.5q0 -11 -4 -35l-2 -7h-29l1 7q4 16 4 34q0 66 -61.5 105.5t-168.5 39.5q-103 0 -171.5 -40t-80.5 -108l-2 -9q-3 -15 -3 -29q0 -56 40.5 -90t108.5 -34h119l-6 -25h-143q-81 0 -133 -37t-65 -103l-2 -9q-4 -16 -4 -34
q0 -63 53 -99.5t149 -36.5h147q57 0 88 -21.5t31 -59.5q0 -14 -2 -21l-1 -9q-10 -45 -42.5 -65t-98.5 -20h-151l6 25h145q54 0 80.5 15t32.5 48l1 7q2 12 2 17q0 28 -23.5 43t-68.5 15h-149q-106 0 -166.5 43.5t-60.5 116.5q0 22 4 39l2 9q13 64 58.5 104t116.5 51
q-45 17 -70.5 51t-25.5 80q0 17 3 33l1 10q14 77 90.5 123t191.5 46q79 0 137.5 -21z" />
    <glyph glyph-name="omicron" unicode="&#x3bf;" horiz-adv-x="685" 
d="M185.5 17.5q-59.5 27.5 -92 76t-32.5 109.5q0 26 6 53l5 23q23 106 98 162.5t195 56.5q77 0 135.5 -27.5t91 -76t32.5 -110.5q0 -25 -6 -54l-6 -22q-20 -103 -95 -160.5t-194 -57.5q-78 0 -137.5 27.5zM498 67.5q67 51.5 85 141.5l5 23q6 27 6 52q0 54 -28 97t-80 67
t-121 24q-111 0 -178 -51t-86 -144l-5 -22q-6 -25 -6 -49q0 -55 29 -98.5t82 -67.5t122 -24q108 0 175 51.5z" />
    <glyph glyph-name="pi" unicode="&#x3c0;" horiz-adv-x="814" 
d="M63 462l6 26h781l-5 -26h-218l-75 -334q-4 -16 -4 -32q0 -34 21 -52t62 -18h97l-5 -26h-94q-53 0 -81 24t-28 69q0 19 4 36l74 333h-326l-103 -462h-29l103 462h-180z" />
    <glyph glyph-name="rho" unicode="&#x3c1;" horiz-adv-x="704" 
d="M522.5 471q57.5 -27 89 -75.5t31.5 -110.5q0 -25 -6 -54l-5 -22q-20 -104 -95.5 -161.5t-195.5 -57.5q-80 0 -145.5 31.5t-98.5 85.5l-65 -277h-30l106 449q25 107 96.5 163t185.5 56q75 0 132.5 -27zM614 283q0 56 -27.5 98.5t-78 66.5t-118.5 24q-104 0 -168 -49.5
t-86 -145.5l-32 -139q29 -55 93.5 -88.5t142.5 -33.5q109 0 177.5 51t85.5 144l5 21q6 27 6 51z" />
    <glyph glyph-name="uni03C2" unicode="&#x3c2;" horiz-adv-x="665" 
d="M402 -145q53 0 79.5 15t33.5 48l1 7q2 12 2 17q0 28 -23.5 43t-68.5 15h-109q-77 0 -135 26t-89.5 72.5t-31.5 105.5q0 26 6 53l6 23q24 106 99 162t195 56q74 0 131.5 -24t89.5 -67t32 -98q0 -15 -3 -32l-2 -13h-29l2 13q3 15 3 30q0 48 -28 85.5t-79 58.5t-117 21
q-109 0 -176.5 -49.5t-89.5 -144.5l-5 -23q-6 -25 -6 -50q0 -52 28 -93t80 -63.5t122 -22.5h107q57 0 88 -21.5t31 -59.5q0 -14 -2 -21l-2 -9q-9 -45 -42 -65t-98 -20h-151l6 25h145z" />
    <glyph glyph-name="sigma" unicode="&#x3c3;" horiz-adv-x="735" 
d="M779 462h-270q54 -25 84 -72.5t30 -106.5q0 -27 -6 -54l-5 -23q-23 -105 -97 -160.5t-192 -55.5q-78 0 -137.5 27.5t-92 75.5t-32.5 110q0 26 6 53l5 23q22 103 99.5 156t208.5 53h405zM594 283q0 60 -33.5 107t-96.5 72h-85q-118 0 -188 -47t-90 -138l-5 -23
q-6 -25 -6 -49q0 -55 28.5 -98t81.5 -67t123 -24q106 0 173 50.5t87 142.5l5 22q6 27 6 52z" />
    <glyph glyph-name="tau" unicode="&#x3c4;" horiz-adv-x="572" 
d="M225.5 26q-30.5 26 -30.5 71q0 19 4 35l73 330h-209l6 26h524l-6 -26h-286l-74 -331q-4 -22 -4 -30q0 -36 23.5 -55.5t66.5 -19.5h147l-5 -26h-145q-54 0 -84.5 26z" />
    <glyph glyph-name="upsilon" unicode="&#x3c5;" horiz-adv-x="704" 
d="M155.5 44.5q-63.5 54.5 -63.5 145.5q0 26 6 54l50 244h29l-50 -246q-5 -22 -5 -50q0 -81 55 -128.5t154 -47.5q96 0 155.5 48.5t81.5 140.5l68 283h29l-69 -286q-51 -212 -267 -212q-110 0 -173.5 54.5z" />
    <glyph glyph-name="phi" unicode="&#x3c6;" horiz-adv-x="968" 
d="M766.5 462.5q63.5 -25.5 97.5 -72t34 -107.5q0 -26 -8 -60l-3 -14q-47 -209 -320 -209h-125l-35 -170h-29l35 170h-60q-86 0 -150 25.5t-98 72t-34 107.5q0 25 8 59l3 14q24 105 103.5 157.5t217.5 52.5h122l45 208h30l-46 -208h63q86 0 149.5 -25.5zM419 26l101 437
h-119q-248 0 -290 -186l-3 -14q-8 -32 -8 -57q0 -82 67.5 -131t184.5 -49h67zM869 281q0 84 -67 133t-185 49h-68l-101 -437h120q248 0 290 185l3 13q8 32 8 57z" />
    <glyph glyph-name="chi" unicode="&#x3c7;" horiz-adv-x="656" 
d="M651 483l-324 -323l186 -325v-5h-29l-178 314l-312 -314h-33l1 5l329 331l-181 317l1 5h28l173 -307l306 307h34z" />
    <glyph glyph-name="psi" unicode="&#x3c8;" horiz-adv-x="898" 
d="M858 488l-66 -271q-27 -110 -100.5 -163.5t-204.5 -53.5h-79l-38 -170h-29l38 170h-21q-128 0 -196.5 51.5t-68.5 145.5q0 24 7 61l47 230h29l-48 -232q-6 -30 -6 -57q0 -84 60 -128.5t175 -44.5h28l149 670h29l-149 -670h74q118 0 185.5 47.5t90.5 145.5l65 269h29z" />
    <glyph glyph-name="omega" unicode="&#x3c9;" horiz-adv-x="968" 
d="M855 437.5q54 -50.5 54 -136.5q0 -33 -9 -72l-6 -23q-21 -101 -91 -158.5t-173 -57.5q-66 0 -113 26t-65 71q-31 -49 -76.5 -73t-107.5 -24t-109.5 25.5t-73 71.5t-25.5 104q0 32 7 63l5 23q23 107 91 159t183 52h44l-6 -25h-41q-201 0 -242 -188l-5 -23q-7 -29 -7 -59
q0 -79 49 -128.5t133 -49.5q55 0 96.5 23.5t72.5 73.5l57 255h29l-59 -259q16 -44 59 -68.5t104 -24.5q91 0 154 52.5t81 141.5l6 23q9 38 9 69q0 76 -47 119t-132 43h-31l6 25h28q97 0 151 -50.5z" />
    <glyph glyph-name="iotadieresis" unicode="&#x3ca;" horiz-adv-x="329" 
d="M97 82q0 19 4 36l82 370h29l-82 -370q-4 -16 -4 -32q0 -31 20 -45.5t61 -14.5h50l-6 -26h-49q-105 0 -105 82zM80 604.5q-7 6.5 -7 17.5q0 13 8 20.5t20 7.5q10 0 17.5 -6.5t7.5 -17.5q0 -12 -8.5 -20t-19.5 -8t-18 6.5zM335.5 605q-7.5 7 -7.5 18q0 12 8.5 19.5
t19.5 7.5t18 -6t7 -16q0 -13 -8 -21.5t-19 -8.5t-18.5 7z" />
    <glyph glyph-name="upsilondieresis" unicode="&#x3cb;" horiz-adv-x="704" 
d="M155.5 44.5q-63.5 54.5 -63.5 145.5q0 26 6 54l50 244h29l-50 -246q-5 -22 -5 -50q0 -81 55 -128.5t154 -47.5q96 0 155.5 48.5t81.5 140.5l68 283h29l-69 -286q-51 -212 -267 -212q-110 0 -173.5 54.5zM290 604.5q-7 6.5 -7 17.5q0 13 8 20.5t20 7.5q10 0 17.5 -6.5
t7.5 -17.5q0 -12 -8.5 -20t-19.5 -8t-18 6.5zM545.5 605q-7.5 7 -7.5 18q0 12 8.5 19.5t19.5 7.5t18 -6t7 -16q0 -13 -8 -21.5t-19 -8.5t-18.5 7z" />
    <glyph glyph-name="omicrontonos" unicode="&#x3cc;" horiz-adv-x="685" 
d="M185.5 17.5q-59.5 27.5 -92 76t-32.5 109.5q0 26 6 53l5 23q23 106 98 162.5t195 56.5q77 0 135.5 -27.5t91 -76t32.5 -110.5q0 -25 -6 -54l-6 -22q-20 -103 -95 -160.5t-194 -57.5q-78 0 -137.5 27.5zM498 67.5q67 51.5 85 141.5l5 23q6 27 6 52q0 54 -28 97t-80 67
t-121 24q-111 0 -178 -51t-86 -144l-5 -22q-6 -25 -6 -49q0 -55 29 -98.5t82 -67.5t122 -24q108 0 175 51.5zM478 818l-77 -259h-28l78 259h27z" />
    <glyph glyph-name="upsilontonos" unicode="&#x3cd;" horiz-adv-x="704" 
d="M155.5 44.5q-63.5 54.5 -63.5 145.5q0 26 6 54l50 244h29l-50 -246q-5 -22 -5 -50q0 -81 55 -128.5t154 -47.5q96 0 155.5 48.5t81.5 140.5l68 283h29l-69 -286q-51 -212 -267 -212q-110 0 -173.5 54.5zM512 818l-77 -259h-28l78 259h27z" />
    <glyph glyph-name="omegatonos" unicode="&#x3ce;" horiz-adv-x="968" 
d="M855 437.5q54 -50.5 54 -136.5q0 -33 -9 -72l-6 -23q-21 -101 -91 -158.5t-173 -57.5q-66 0 -113 26t-65 71q-31 -49 -76.5 -73t-107.5 -24t-109.5 25.5t-73 71.5t-25.5 104q0 32 7 63l5 23q23 107 91 159t183 52h44l-6 -25h-41q-201 0 -242 -188l-5 -23q-7 -29 -7 -59
q0 -79 49 -128.5t133 -49.5q55 0 96.5 23.5t72.5 73.5l57 255h29l-59 -259q16 -44 59 -68.5t104 -24.5q91 0 154 52.5t81 141.5l6 23q9 38 9 69q0 76 -47 119t-132 43h-31l6 25h28q97 0 151 -50.5zM644 818l-77 -259h-28l78 259h27z" />
    <glyph glyph-name="uni0400" unicode="&#x400;" horiz-adv-x="723" 
d="M727 656l-6 -26h-494l-64 -289h474l-6 -26h-474l-65 -288h495l-6 -27h-524l146 656h524zM306 856l387 -86l-6 -26l-386 87z" />
    <glyph glyph-name="uni0401" unicode="&#x401;" horiz-adv-x="723" 
d="M727 656l-6 -26h-494l-64 -289h474l-6 -26h-474l-65 -288h495l-6 -27h-524l146 656h524zM347 772.5q-7 6.5 -7 17.5q0 13 8 20.5t20 7.5q10 0 17.5 -6.5t7.5 -17.5q0 -12 -8.5 -20t-19.5 -8t-18 6.5zM602.5 773q-7.5 7 -7.5 18q0 12 8.5 19.5t19.5 7.5t18 -6t7 -16
q0 -13 -8 -21.5t-19 -8.5t-18.5 7z" />
    <glyph glyph-name="uni0402" unicode="&#x402;" horiz-adv-x="944" 
d="M781 358.5q71 -47.5 71 -128.5q0 -22 -6 -48l-2 -10q-17 -89 -85.5 -130.5t-199.5 -41.5h-98l5 27h93q120 0 180.5 35t75.5 113l3 10q5 19 5 42q0 71 -63.5 111.5t-177.5 40.5q-57 0 -125 -8.5t-132 -24.5l-77 -346h-30l140 630h-262l6 26h631l-6 -26h-339l-57 -256
q63 15 129.5 23.5t124.5 8.5q125 0 196 -47.5z" />
    <glyph glyph-name="uni0403" unicode="&#x403;" horiz-adv-x="627" 
d="M708 656l-6 -26h-475l-140 -630h-30l146 656h505zM699 857l-6 -27l-425 -87l6 27z" />
    <glyph glyph-name="uni0404" unicode="&#x404;" horiz-adv-x="874" 
d="M657 635q74 -31 116.5 -84.5t42.5 -117.5q0 -21 -4 -38l-3 -11h-29l2 11q4 16 4 35q0 57 -38 105t-105.5 76t-150.5 28q-138 0 -227.5 -72.5t-118.5 -206.5l-5 -19h437l-5 -26h-437q-4 -24 -4 -52q0 -73 35.5 -129t101.5 -86.5t155 -30.5q82 0 150 25.5t113 72t59 107.5
l3 13h30l-3 -13q-16 -70 -65 -122.5t-123 -81t-165 -28.5q-97 0 -169.5 34t-111.5 95.5t-39 141.5q0 37 9 77l5 25q31 146 128.5 224.5t246.5 78.5q91 0 165 -31z" />
    <glyph glyph-name="uni0405" unicode="&#x405;" horiz-adv-x="771" 
d="M140 32q-74 42 -74 121q0 21 4 38l3 12h30l-3 -12q-4 -24 -4 -34q0 -69 65.5 -105t193.5 -36q131 0 198.5 33t82.5 103l3 10q4 16 4 34q0 49 -43.5 77t-137.5 40l-120 15q-91 11 -138.5 46t-47.5 91q0 18 4 33l3 11q16 77 88.5 117t208.5 40q132 0 201.5 -41.5
t69.5 -119.5q0 -20 -4 -39l-3 -11h-30l3 11q4 16 4 35q0 68 -61.5 103.5t-180.5 35.5q-120 0 -186 -33t-81 -100l-2 -10q-4 -15 -4 -30q0 -93 166 -114l120 -15q103 -13 152 -47t49 -92q0 -16 -5 -39l-2 -11q-18 -80 -92 -119.5t-220 -39.5q-140 0 -214 42z" />
    <glyph glyph-name="uni0406" unicode="&#x406;" horiz-adv-x="299" 
d="M256 656l-146 -656h-30l146 656h30z" />
    <glyph glyph-name="uni0407" unicode="&#x407;" horiz-adv-x="299" 
d="M256 656l-146 -656h-30l146 656h30zM124 772.5q-7 6.5 -7 17.5q0 13 8 20.5t20 7.5q10 0 17.5 -6.5t7.5 -17.5q0 -12 -8.5 -20t-19.5 -8t-18 6.5zM379.5 773q-7.5 7 -7.5 18q0 12 8.5 19.5t19.5 7.5t18 -6t7 -16q0 -13 -8 -21.5t-19 -8.5t-18.5 7z" />
    <glyph glyph-name="uni0408" unicode="&#x408;" horiz-adv-x="749" 
d="M192 17q-60 27 -93 74.5t-33 107.5q0 20 5 45l12 55h30l-12 -55q-5 -25 -5 -43q0 -54 29 -95.5t82 -65t123 -23.5q112 0 187 57.5t98 161.5l89 394h-370l5 26h401l-96 -422q-26 -116 -108.5 -180t-205.5 -64q-78 0 -138 27z" />
    <glyph glyph-name="uni0409" unicode="&#x409;" horiz-adv-x="1240" 
d="M1102 326.5q55 -42.5 55 -112.5q0 -22 -4 -39l-3 -18q-14 -75 -69.5 -116t-152.5 -41h-353l140 630h-420l-95 -386q-22 -90 -49.5 -142.5t-68 -77t-102.5 -24.5h-34l6 27h27q55 0 90.5 21.5t59 68.5t43.5 130l100 409h479l-64 -287h265q95 0 150 -42.5zM1128 212
q0 60 -47 95t-130 35h-270l-71 -315h318q83 0 132 33.5t61 98.5l3 18q4 16 4 35z" />
    <glyph glyph-name="uni040A" unicode="&#x40a;" horiz-adv-x="1276" 
d="M233 656l-68 -305h522l68 305h30l-67 -305h270q94 0 148 -40t54 -107q0 -21 -4 -38l-4 -18q-12 -70 -68.5 -109t-151.5 -39h-353l73 325h-523l-72 -325h-30l146 656h30zM1094.5 60.5q49.5 33.5 59.5 90.5l3 18q4 16 4 33q0 57 -46.5 90t-128.5 33h-274l-67 -298h317
q83 0 132.5 33.5z" />
    <glyph glyph-name="uni040B" unicode="&#x40b;" horiz-adv-x="960" 
d="M783.5 356.5q68.5 -49.5 68.5 -140.5q0 -25 -6 -54l-32 -162h-30l33 162q5 23 5 51q0 81 -61 123.5t-180 42.5q-59 0 -126 -8.5t-131 -24.5l-77 -346h-30l140 630h-261l6 26h631l-6 -26h-340l-57 -257q62 16 129 24.5t125 8.5q131 0 199.5 -49.5z" />
    <glyph glyph-name="uni040C" unicode="&#x40c;" horiz-adv-x="803" 
d="M810 650l-425 -321l277 -323l-1 -6h-30l-270 316h-204l-70 -316h-30l146 656h30l-70 -314h197l413 314h38zM736 857l-6 -27l-425 -87l6 27z" />
    <glyph glyph-name="uni040D" unicode="&#x40d;" horiz-adv-x="819" 
d="M233 656l-135 -611l672 611h30l-147 -656h-29l135 611l-673 -611h-29l146 656h30zM343 856l387 -86l-6 -26l-386 87z" />
    <glyph glyph-name="uni040E" unicode="&#x40e;" horiz-adv-x="761" 
d="M822 656l-1 -6l-450 -557q-31 -38 -56 -57.5t-54.5 -27.5t-75.5 -8h-78l5 27h75q58 0 88.5 15t68.5 61l22 26l-218 521l1 6h28l209 -501l404 501h32zM334 834q0 10 1 15l1 3h27l-1 -3q-1 -4 -1 -12q0 -35 39 -51.5t120 -16.5q85 0 135.5 21t56.5 59l1 3h28l-1 -3
q-9 -52 -65.5 -78.5t-156.5 -26.5q-184 0 -184 90z" />
    <glyph glyph-name="uni040F" unicode="&#x40f;" horiz-adv-x="799" 
d="M634 0h-267l-32 -143h-29l31 143h-280l146 656h30l-141 -629h517l141 629h30z" />
    <glyph glyph-name="uni0410" unicode="&#x410;" horiz-adv-x="770" 
d="M696 6l-1 -6h-29l-61 211h-426l-156 -211h-34l2 6l480 650h35zM597 238l-113 387l-286 -387h399z" />
    <glyph glyph-name="uni0411" unicode="&#x411;" horiz-adv-x="785" 
d="M748 656l-6 -26h-515l-62 -276h333q89 0 141.5 -41t52.5 -109q0 -21 -4 -38l-3 -12q-30 -154 -226 -154h-402l146 656h545zM656 156l3 13q4 16 4 34q0 57 -44.5 90.5t-121.5 33.5h-337l-68 -300h370q169 0 194 129z" />
    <glyph glyph-name="uni0412" unicode="&#x412;" horiz-adv-x="785" 
d="M687.5 619q51.5 -37 51.5 -98q0 -11 -4 -33l-3 -13q-24 -115 -153 -144q53 -14 82.5 -47.5t29.5 -79.5q0 -18 -4 -34l-3 -14q-17 -77 -78 -116.5t-163 -39.5h-386l146 656h345q88 0 139.5 -37zM708 519q0 51 -43 81t-119 30h-319l-63 -286h328q90 0 143.5 33.5t67.5 97.5
l2 14q3 15 3 30zM661 204q0 54 -42.5 84t-120.5 30h-340l-65 -291h351q89 0 143.5 34t67.5 98l3 14q3 17 3 31z" />
    <glyph glyph-name="uni0413" unicode="&#x413;" horiz-adv-x="627" 
d="M708 656l-6 -26h-475l-140 -630h-30l146 656h505z" />
    <glyph glyph-name="uni0414" unicode="&#x414;" horiz-adv-x="867" 
d="M657 27h104l-35 -160h-30l29 133h-715l-30 -133h-30l35 160h87q40 41 71 100t49 132l97 397h508zM172.5 123q-29.5 -58 -66.5 -96h521l134 603h-449l-92 -374q-18 -75 -47.5 -133z" />
    <glyph glyph-name="uni0415" unicode="&#x415;" horiz-adv-x="723" 
d="M727 656l-6 -26h-494l-64 -289h474l-6 -26h-474l-65 -288h495l-6 -27h-524l146 656h524z" />
    <glyph glyph-name="uni0416" unicode="&#x416;" horiz-adv-x="1257" 
d="M1264 650l-405 -321l257 -323l-1 -6h-30l-252 316h-174l-70 -316h-30l70 316h-168l-390 -316h-38l1 6l402 324l-261 320l1 6h30l254 -314h175l70 314h30l-70 -314h168l394 314h38z" />
    <glyph glyph-name="uni0417" unicode="&#x417;" horiz-adv-x="833" 
d="M656 645.5q70 -20.5 107 -59t37 -89.5q0 -18 -4 -34l-3 -14q-9 -51 -50 -83t-112 -43q58 -17 89.5 -51.5t31.5 -80.5q0 -15 -3 -30l-2 -14q-15 -79 -98 -118t-237 -39q-156 0 -242 56t-86 154q0 31 7 60l3 12h30l-4 -12q-7 -28 -7 -56q0 -90 77.5 -138.5t223.5 -48.5
q279 0 303 133l3 13q3 14 3 26q0 57 -56 91.5t-152 34.5h-191l6 26h215q199 0 219 111l2 13q4 20 4 30q0 67 -74 105.5t-206 38.5q-293 0 -332 -207l-2 -11h-30l2 11q45 234 362 234q96 0 166 -20.5z" />
    <glyph glyph-name="uni0418" unicode="&#x418;" horiz-adv-x="819" 
d="M233 656l-135 -611l672 611h30l-147 -656h-29l135 611l-673 -611h-29l146 656h30z" />
    <glyph glyph-name="uni0419" unicode="&#x419;" horiz-adv-x="819" 
d="M233 656l-135 -611l672 611h30l-147 -656h-29l135 611l-673 -611h-29l146 656h30zM341 834q0 10 1 15l1 3h27l-1 -3q-1 -4 -1 -12q0 -35 39 -51.5t120 -16.5q85 0 135.5 21t56.5 59l1 3h28l-1 -3q-9 -52 -65.5 -78.5t-156.5 -26.5q-184 0 -184 90z" />
    <glyph glyph-name="uni041A" unicode="&#x41a;" horiz-adv-x="803" 
d="M810 650l-425 -321l277 -323l-1 -6h-30l-270 316h-204l-70 -316h-30l146 656h30l-70 -314h197l413 314h38z" />
    <glyph glyph-name="uni041B" unicode="&#x41b;" horiz-adv-x="794" 
d="M628 0h-30l140 630l-444 -1l-94 -385q-23 -93 -51 -145.5t-68 -75.5t-101 -23h-34l6 27h27q54 0 88.5 20.5t59 67.5t45.5 132l100 409h502z" />
    <glyph glyph-name="uni041C" unicode="&#x41c;" horiz-adv-x="1029" 
d="M864 0h-30l137 614l-495 -614h-32l-220 617l-137 -617h-30l146 656h37l225 -623l503 623h42z" />
    <glyph glyph-name="uni041D" unicode="&#x41d;" horiz-adv-x="819" 
d="M233 656l-70 -315h537l70 315h30l-146 -656h-30l70 315h-537l-70 -315h-30l146 656h30z" />
    <glyph glyph-name="uni041E" unicode="&#x41e;" horiz-adv-x="877" 
d="M250.5 24.5q-71.5 34.5 -110 96.5t-38.5 142q0 40 8 75l5 19q32 150 129.5 229.5t252.5 79.5q94 0 165.5 -34.5t110 -97t38.5 -142.5q0 -40 -8 -75l-4 -19q-32 -150 -130 -229t-252 -79q-95 0 -166.5 34.5zM649.5 89.5q90.5 72.5 119.5 209.5l4 20q8 33 8 73
q0 73 -34.5 129t-99 87t-151.5 31q-142 0 -232 -73t-120 -210l-4 -20q-8 -40 -8 -71q0 -73 34.5 -129.5t99.5 -87.5t152 -31q141 0 231.5 72.5z" />
    <glyph glyph-name="uni041F" unicode="&#x41f;" horiz-adv-x="799" 
d="M779 656l-146 -656h-30l140 630h-516l-140 -630h-30l146 656h576z" />
    <glyph glyph-name="uni0420" unicode="&#x420;" horiz-adv-x="787" 
d="M579 656q89 0 141.5 -39.5t52.5 -104.5q0 -20 -4 -37l-2 -14q-17 -77 -78.5 -117.5t-165.5 -40.5h-369l-67 -303h-30l146 656h376zM668.5 364q54.5 35 68.5 100l3 13q4 22 4 32q0 56 -44.5 88.5t-122.5 32.5h-350l-67 -301h364q90 0 144.5 35z" />
    <glyph glyph-name="uni0421" unicode="&#x421;" horiz-adv-x="874" 
d="M255.5 24q-73.5 34 -113 95.5t-39.5 141.5q0 38 9 78l5 24q32 147 129.5 225t250.5 78q89 0 161.5 -31.5t114.5 -85t42 -116.5q0 -21 -4 -38l-2 -11h-30l3 11q4 16 4 35q0 57 -38 105t-104.5 76t-147.5 28q-141 0 -231 -72t-119 -207l-6 -25q-8 -33 -8 -73
q0 -73 36 -128.5t102.5 -86t157.5 -30.5q81 0 148 25.5t111.5 72t58.5 107.5l3 13h30l-3 -13q-16 -70 -64.5 -122.5t-121.5 -81t-162 -28.5q-99 0 -172.5 34z" />
    <glyph glyph-name="uni0422" unicode="&#x422;" horiz-adv-x="691" 
d="M96 630l6 26h670l-6 -26h-318l-140 -630h-30l140 630h-322z" />
    <glyph glyph-name="uni0423" unicode="&#x423;" horiz-adv-x="738" 
d="M822 656l-1 -6l-450 -557q-31 -38 -56 -57.5t-54.5 -27.5t-75.5 -8h-78l5 27h75q58 0 88.5 15t68.5 61l22 26l-218 521l1 6h28l209 -501l404 501h32z" />
    <glyph glyph-name="uni0424" unicode="&#x424;" horiz-adv-x="1096" 
d="M967.5 528q78.5 -53 78.5 -154q0 -28 -8 -66l-2 -9q-21 -113 -107.5 -168t-245.5 -55h-158l-20 -86h-30l20 86h-100q-151 0 -229 52.5t-78 152.5q0 29 8 67l2 9q21 114 107.5 169t245.5 55h156l19 85h30l-19 -85h102q150 0 228.5 -53zM117 283q0 -89 69.5 -134.5
t208.5 -45.5h106l100 451h-152q-148 0 -225.5 -48t-97.5 -152l-2 -10q-7 -31 -7 -61zM1016 373q0 181 -277 181h-108l-100 -451h154q146 0 224.5 48.5t97.5 150.5l2 10q7 31 7 61z" />
    <glyph glyph-name="uni0425" unicode="&#x425;" horiz-adv-x="819" 
d="M826 650l-377 -324l233 -320l-1 -6h-31l-224 310l-359 -310h-37l1 6l377 324l-233 320l1 6h31l224 -310l359 310h37z" />
    <glyph glyph-name="uni0426" unicode="&#x426;" horiz-adv-x="850" 
d="M639 27h104l-35 -160h-30l30 133h-651l146 656h30l-141 -629h517l140 629h30z" />
    <glyph glyph-name="uni0427" unicode="&#x427;" horiz-adv-x="799" 
d="M778 656l-146 -656h-30l60 271q-62 -15 -128 -23.5t-122 -8.5q-131 0 -201 49.5t-70 140.5q0 27 6 55l35 172h30l-35 -173q-5 -22 -5 -51q0 -81 61.5 -123.5t180.5 -42.5q55 0 122.5 8.5t132.5 24.5l79 357h30z" />
    <glyph glyph-name="uni0428" unicode="&#x428;" horiz-adv-x="1159" 
d="M233 656l-141 -629h423l141 629h30l-141 -629h424l140 629h30l-146 -656h-936l146 656h30z" />
    <glyph glyph-name="uni0429" unicode="&#x429;" horiz-adv-x="1208" 
d="M997 27h104l-35 -160h-30l30 133h-1009l146 656h30l-141 -629h422l141 629h30l-141 -629h423l140 629h30z" />
    <glyph glyph-name="uni042A" unicode="&#x42a;" horiz-adv-x="937" 
d="M799 326q55 -43 55 -114q0 -21 -4 -38l-4 -18q-13 -76 -70.5 -116t-153.5 -40h-404l140 630h-262l6 26h292l-64 -287h320q94 0 149 -43zM825 210q0 61 -47.5 96.5t-129.5 35.5h-324l-71 -315h370q83 0 133 34t62 98l3 17q4 16 4 34z" />
    <glyph glyph-name="uni042B" unicode="&#x42b;" horiz-adv-x="1013" 
d="M242 656l-64 -287h328q94 0 149 -43t55 -114q0 -21 -4 -38l-4 -18q-13 -76 -70.5 -116t-153.5 -40h-412l146 656h30zM984 656l-146 -656h-30l146 656h30zM612 61q50 34 62 98l3 18q4 16 4 34q0 61 -47.5 96t-129.5 35h-332l-70 -315h377q83 0 133 34z" />
    <glyph glyph-name="uni042C" unicode="&#x42c;" horiz-adv-x="776" 
d="M233 656l-64 -287h320q94 0 149 -43t55 -114q0 -21 -4 -38l-4 -18q-13 -76 -70.5 -116t-153.5 -40h-404l146 656h30zM595.5 61q49.5 34 61.5 98l3 17q4 16 4 34q0 61 -47.5 96.5t-129.5 35.5h-324l-71 -315h371q83 0 132.5 34z" />
    <glyph glyph-name="uni042D" unicode="&#x42d;" horiz-adv-x="874" 
d="M657.5 631.5q72.5 -34.5 112 -96t39.5 -141.5q0 -36 -9 -77l-6 -25q-32 -146 -128.5 -224t-246.5 -78q-91 0 -165 31t-116 84.5t-42 117.5q0 21 4 38l2 12h30l-3 -12q-4 -16 -4 -35q0 -57 38.5 -105t105.5 -76t150 -28q139 0 228 72t118 206l5 20h-437l6 26h436
q4 24 4 52q0 73 -35.5 129t-101.5 86.5t-155 30.5q-82 0 -150 -25.5t-112.5 -72.5t-58.5 -108l-4 -12h-30l3 12q16 70 65 123t123 81.5t165 28.5q97 0 169.5 -34.5z" />
    <glyph glyph-name="uni042E" unicode="&#x42e;" horiz-adv-x="1161" 
d="M946.5 631.5q71.5 -34.5 110 -97t38.5 -142.5q0 -40 -8 -75l-4 -19q-32 -150 -129.5 -229t-250.5 -79q-95 0 -166.5 35.5t-110.5 98.5t-39 144q0 23 3 47h-233l-70 -315h-30l146 656h30l-70 -315h232v1l4 19q32 148 129.5 226.5t251.5 78.5q95 0 166.5 -34.5zM1066 390
q0 74 -34.5 130.5t-99.5 87.5t-152 31q-141 0 -231.5 -72t-119.5 -207l-4 -20q-8 -33 -8 -72q0 -74 35 -131t99.5 -88.5t151.5 -31.5q141 0 231 72.5t119 209.5l5 20q8 40 8 71z" />
    <glyph glyph-name="uni042F" unicode="&#x42f;" horiz-adv-x="806" 
d="M787 656l-146 -656h-30l63 286h-236l-367 -286h-38l2 6l361 280h-46q-98 0 -154.5 43t-56.5 116q0 21 4 38l3 14q13 78 71 118.5t159 40.5h411zM680 312l71 318h-376q-89 0 -139.5 -34.5t-61.5 -100.5l-2 -14q-3 -18 -3 -34q0 -63 48 -99t133 -36h330z" />
    <glyph glyph-name="uni0430" unicode="&#x430;" horiz-adv-x="716" 
d="M668 26l-6 -26h-44q-43 0 -68 20.5t-25 55.5q0 14 2 21q-110 -107 -283 -107q-90 0 -139 30t-49 84q0 12 3 25q10 55 60 83t149 38l298 29l3 14q4 19 4 39q0 66 -52.5 103t-147.5 37q-97 0 -162.5 -41t-80.5 -112l-2 -9h-29l2 9q17 83 90 131t184 48q106 0 166.5 -44
t60.5 -120q0 -18 -5 -43l-40 -188q-2 -14 -2 -20q0 -28 17.5 -42.5t51.5 -14.5h44zM409.5 46.5q75.5 31.5 125.5 88.5l26 119l-295 -28q-86 -8 -128.5 -31.5t-50.5 -67.5q-2 -14 -2 -21q0 -44 41.5 -67.5t119.5 -23.5q88 0 163.5 31.5z" />
    <glyph glyph-name="uni0431" unicode="&#x431;" horiz-adv-x="704" 
d="M702 696l-2 -10q-8 -32 -26 -45t-60 -16l-199 -13q-84 -6 -138 -31.5t-87 -75.5t-52 -133q43 49 109.5 76t145.5 27q73 0 129 -26t86.5 -72t30.5 -105q0 -25 -6 -54l-5 -21q-21 -100 -94 -153.5t-188 -53.5q-123 0 -191 62t-68 170q0 39 11 88l12 57q20 92 56.5 149
t96.5 86.5t152 35.5l196 13q29 2 42 9.5t17 25.5l2 10h30zM239 418.5q-68 -30.5 -109 -85.5l-5 -30q-10 -41 -10 -81q0 -97 60.5 -151.5t171.5 -54.5q102 0 168 48t84 135l5 20q6 27 6 52q0 52 -27 92.5t-77.5 63t-117.5 22.5q-81 0 -149 -30.5z" />
    <glyph glyph-name="uni0432" unicode="&#x432;" horiz-adv-x="710" 
d="M610 459q41 -29 41 -76q0 -16 -4 -29l-2 -10q-18 -83 -120 -101q41 -12 63.5 -38t22.5 -61q0 -12 -3 -26l-2 -10q-8 -51 -54 -79.5t-120 -28.5h-385l109 488h345q68 0 109 -29zM622 380q0 39 -33 62t-91 23h-318l-46 -207h337q62 0 99.5 22.5t46.5 64.5l2 10q3 14 3 25z
M582 144q0 42 -34.5 66t-97.5 24h-322l-47 -211h351q61 0 99.5 23t45.5 64l2 10q3 12 3 24z" />
    <glyph glyph-name="uni0433" unicode="&#x433;" horiz-adv-x="513" 
d="M557 488l-5 -25h-373l-103 -463h-29l109 488h401z" />
    <glyph glyph-name="uni0434" unicode="&#x434;" horiz-adv-x="762" 
d="M689 26l-34 -154h-29l29 128h-648l-28 -128h-29l33 154h73q36 37 60.5 81.5t39.5 104.5l69 276h463l-102 -462h103zM557 26l97 437h-407l-63 -251q-16 -61 -38.5 -104.5t-55.5 -81.5h467z" />
    <glyph glyph-name="uni0435" unicode="&#x435;" horiz-adv-x="671" 
d="M496 472q58 -26 90 -72t32 -104q0 -12 -4 -38l-4 -23h-518q-3 -16 -3 -33q0 -54 29 -96.5t82 -66t122 -23.5q99 0 162 39.5t81 113.5h31q-22 -87 -92 -133t-182 -46q-78 0 -137 27t-91.5 75.5t-32.5 109.5q0 27 6 54l5 24q23 105 98 161.5t194 56.5q74 0 132 -26z
M189 422.5q-67 -49.5 -87 -143.5l-5 -19h489v2q3 17 3 32q0 51 -28.5 91.5t-80 63.5t-117.5 23q-107 0 -174 -49.5z" />
    <glyph glyph-name="uni0436" unicode="&#x436;" horiz-adv-x="1018" 
d="M1004 483l-303 -240l211 -238l-1 -5h-29l-210 232h-151l-52 -232h-29l52 232h-148l-311 -232h-35l1 5l320 242l-199 236l1 5h29l197 -231h150l52 231h29l-52 -231h149l295 231h35z" />
    <glyph glyph-name="uni0437" unicode="&#x437;" horiz-adv-x="684" 
d="M556.5 463.5q66.5 -34.5 66.5 -94.5q0 -12 -3 -24l-3 -10q-12 -73 -107 -91q38 -12 59 -37t21 -57q0 -12 -3 -24l-2 -10q-15 -65 -78 -95.5t-186 -30.5q-128 0 -197 43t-69 121q0 17 5 42l2 6h29l-2 -6q-5 -23 -5 -40q0 -68 60.5 -104.5t176.5 -36.5q110 0 166.5 25
t68.5 79l3 10q3 12 3 23q0 37 -32.5 59t-88.5 22h-189l5 26h183q69 0 105.5 19t43.5 58l2 11q2 7 2 21q0 49 -57.5 77t-163.5 28q-114 0 -176.5 -37.5t-78.5 -114.5l-1 -7h-30l2 7q34 177 285 177q117 0 183.5 -34.5z" />
    <glyph glyph-name="uni0438" unicode="&#x438;" horiz-adv-x="713" 
d="M185 488l-99 -448l553 448h27l-109 -488h-28l99 448l-554 -448h-27l109 488h29z" />
    <glyph glyph-name="uni0439" unicode="&#x439;" horiz-adv-x="713" 
d="M185 488l-99 -448l553 448h27l-109 -488h-28l99 448l-554 -448h-27l109 488h29zM252 666q0 10 1 15l1 3h27l-1 -3q-1 -4 -1 -12q0 -35 39 -51.5t120 -16.5q85 0 135.5 21t56.5 59l1 3h28l-1 -3q-9 -52 -65.5 -78.5t-156.5 -26.5q-184 0 -184 90z" />
    <glyph glyph-name="uni043A" unicode="&#x43a;" horiz-adv-x="687" 
d="M673 483l-334 -240l242 -238l-1 -5h-29l-240 232h-183l-52 -232h-29l109 488h29l-52 -231h182l324 231h35z" />
    <glyph glyph-name="uni043B" unicode="&#x43b;" horiz-adv-x="712" 
d="M557 0h-29l103 463h-400l-62 -250q-20 -80 -44.5 -126t-59.5 -66.5t-88 -20.5h-30l5 26h24q45 0 75.5 18.5t52 59.5t38.5 112l66 272h457z" />
    <glyph glyph-name="uni043C" unicode="&#x43c;" horiz-adv-x="913" 
d="M866 488l-108 -488h-29l101 454l-14 -17l-399 -437h-27l-205 436l-8 21l-5 -21l-96 -436h-29l109 488h37l215 -459l417 459h41z" />
    <glyph glyph-name="uni043D" unicode="&#x43d;" horiz-adv-x="718" 
d="M184 488l-51 -231h457l52 231h29l-109 -488h-29l52 231h-458l-51 -231h-29l108 488h29z" />
    <glyph glyph-name="uni043E" unicode="&#x43e;" horiz-adv-x="685" 
d="M185.5 17.5q-59.5 27.5 -92 76t-32.5 109.5q0 26 6 53l5 23q23 106 98 162.5t195 56.5q77 0 135.5 -27.5t91 -76t32.5 -110.5q0 -25 -6 -54l-6 -22q-20 -103 -95 -160.5t-194 -57.5q-78 0 -137.5 27.5zM498 67.5q67 51.5 85 141.5l5 23q6 27 6 52q0 54 -28 97t-80 67
t-121 24q-111 0 -178 -51t-86 -144l-5 -22q-6 -25 -6 -49q0 -55 29 -98.5t82 -67.5t122 -24q108 0 175 51.5z" />
    <glyph glyph-name="uni043F" unicode="&#x43f;" horiz-adv-x="708" 
d="M661 488l-109 -488h-29l103 463h-447l-103 -463h-29l108 488h506z" />
    <glyph glyph-name="uni0440" unicode="&#x440;" horiz-adv-x="710" 
d="M531 471q56 -27 87 -75.5t31 -109.5q0 -28 -5 -51l-5 -24q-21 -105 -97.5 -163t-201.5 -58q-76 0 -141.5 33t-97.5 87l-63 -280h-29l147 658h27l-18 -88q98 98 237 98q73 0 129 -27zM620 284q0 55 -27 97.5t-77.5 66.5t-116.5 24q-144 0 -242 -110l-49 -221
q27 -56 91.5 -90.5t140.5 -34.5q111 0 181 51.5t88 145.5l6 24q5 27 5 47z" />
    <glyph glyph-name="uni0441" unicode="&#x441;" horiz-adv-x="670" 
d="M187 17.5q-60 27.5 -92.5 76t-32.5 109.5q0 26 6 54l5 23q22 105 97 161.5t194 56.5q72 0 130.5 -24t92 -65.5t33.5 -90.5q0 -14 -3 -29l-1 -7h-29l1 7q3 14 3 27q0 43 -29.5 79t-81.5 56.5t-117 20.5q-106 0 -174 -50.5t-88 -144.5l-5 -23q-6 -25 -6 -49q0 -55 29 -98
t82.5 -67t123.5 -24q96 0 161 41.5t79 112.5l2 7h30l-2 -7q-16 -83 -89 -131.5t-181 -48.5q-78 0 -138 27.5z" />
    <glyph glyph-name="uni0442" unicode="&#x442;" horiz-adv-x="606" 
d="M59 462l5 26h585l-5 -26h-273l-103 -462h-29l103 462h-283z" />
    <glyph glyph-name="uni0443" unicode="&#x443;" horiz-adv-x="697" 
d="M682 488l-1 -5l-432 -556q-30 -39 -54.5 -59t-54.5 -29t-76 -9h-68l5 25h65q55 0 87 17t70 65l47 61l-162 485l1 5h28l153 -465l360 465h32z" />
    <glyph glyph-name="uni0444" unicode="&#x444;" horiz-adv-x="968" 
d="M766.5 462.5q63.5 -25.5 97.5 -72t34 -107.5q0 -26 -8 -60l-3 -14q-47 -209 -320 -209h-125l-35 -170h-29l35 170h-60q-86 0 -150 25.5t-98 72t-34 107.5q0 25 8 59l3 14q24 105 103.5 157.5t217.5 52.5h122l45 208h30l-46 -208h63q86 0 149.5 -25.5zM419 26l101 437
h-119q-248 0 -290 -186l-3 -14q-8 -32 -8 -57q0 -82 67.5 -131t184.5 -49h67zM869 281q0 84 -67 133t-185 49h-68l-101 -437h120q248 0 290 185l3 13q8 32 8 57z" />
    <glyph glyph-name="uni0445" unicode="&#x445;" horiz-adv-x="656" 
d="M652 483l-304 -238l203 -240l-1 -5h-31l-192 230l-292 -230h-37l1 5l310 244l-198 234v5h30l189 -224l288 224h35z" />
    <glyph glyph-name="uni0446" unicode="&#x446;" horiz-adv-x="734" 
d="M661 26l-34 -154h-29l28 128h-579l109 488h29l-103 -462h446l103 462h29l-102 -462h103z" />
    <glyph glyph-name="uni0447" unicode="&#x447;" horiz-adv-x="677" 
d="M630 488l-109 -488h-29l44 197q-51 -14 -112 -22.5t-117 -8.5q-96 0 -146 38.5t-50 108.5q0 22 4 42l25 133h29l-25 -132q-4 -26 -4 -37q0 -61 43.5 -94t127.5 -33q55 0 116 9t115 24l59 263h29z" />
    <glyph glyph-name="uni0448" unicode="&#x448;" horiz-adv-x="1039" 
d="M184 488l-103 -462h375l104 462h29l-104 -462h375l103 462h29l-109 -488h-836l108 488h29z" />
    <glyph glyph-name="uni0449" unicode="&#x449;" horiz-adv-x="1075" 
d="M993 26l-35 -154h-29l29 128h-911l108 488h29l-103 -462h375l104 462h29l-104 -462h375l103 462h29l-103 -462h104z" />
    <glyph glyph-name="uni044A" unicode="&#x44a;" horiz-adv-x="835" 
d="M707 268.5q43 -33.5 43 -90.5q0 -10 -4 -34l-2 -14q-12 -63 -58.5 -96.5t-121.5 -33.5h-386l103 462h-222l5 26h252l-42 -186h314q76 0 119 -33.5zM721 175q0 48 -35.5 75t-100.5 27h-316l-56 -251h351q63 0 102 27.5t49 78.5l3 14q3 15 3 29z" />
    <glyph glyph-name="uni044B" unicode="&#x44b;" horiz-adv-x="902" 
d="M590.5 268q42.5 -34 42.5 -90q0 -18 -4 -34l-3 -14q-13 -62 -58.5 -96t-121.5 -34h-380l109 488h29l-42 -186h308q78 0 120.5 -34zM837 488l-109 -488h-29l108 488h30zM604 177q0 45 -35.5 72.5t-101.5 27.5h-310l-56 -251h346q64 0 102 28t48 78l3 14q4 15 4 31z" />
    <glyph glyph-name="uni044C" unicode="&#x44c;" horiz-adv-x="704" 
d="M576 268.5q43 -33.5 43 -90.5q0 -10 -4 -34l-2 -14q-12 -63 -58.5 -96.5t-121.5 -33.5h-386l109 488h29l-42 -186h314q76 0 119 -33.5zM590 175q0 48 -35.5 75t-100.5 27h-316l-56 -251h351q63 0 102 27.5t49 78.5l3 14q3 15 3 29z" />
    <glyph glyph-name="uni044D" unicode="&#x44d;" horiz-adv-x="670" 
d="M483 470.5q60 -27.5 92.5 -76t32.5 -110.5q0 -25 -6 -54l-5 -23q-23 -105 -98 -161t-193 -56q-72 0 -130.5 23.5t-92 64t-33.5 88.5q0 14 3 29l1 7h29l-1 -7q-3 -13 -3 -26q0 -42 29.5 -77t81.5 -55.5t117 -20.5q106 0 174 50.5t88 144.5l4 20h-314l5 26h314q2 18 2 27
q0 55 -29 97.5t-82 66.5t-124 24q-97 0 -161.5 -40.5t-79.5 -109.5l-1 -8h-30l2 8q17 81 89.5 128.5t180.5 47.5q78 0 138 -27.5z" />
    <glyph glyph-name="uni044E" unicode="&#x44e;" horiz-adv-x="928" 
d="M746.5 470.5q57.5 -27.5 89 -76.5t31.5 -111q0 -26 -6 -53l-7 -26q-19 -101 -93 -157.5t-186 -56.5q-76 0 -134 27t-90 75t-32 110q0 9 2 29h-193l-52 -231h-29l109 488h29l-52 -231h192l5 22q21 105 95 162t189 57q75 0 132.5 -27.5zM837 281q0 56 -27.5 99.5t-78 67.5
t-118.5 24q-103 0 -168.5 -50.5t-85.5 -144.5l-5 -22q-6 -25 -6 -50q0 -55 28 -98t80 -67t120 -24q100 0 165.5 50t83.5 139l7 27q5 21 5 49z" />
    <glyph glyph-name="uni044F" unicode="&#x44f;" horiz-adv-x="715" 
d="M559 0h-29l44 197h-209l-303 -197h-39l1 5l294 192h-44q-80 0 -127 34.5t-47 92.5q0 17 4 32l1 7q24 125 191 125h372zM580 222l53 241h-338q-70 0 -111 -26t-50 -76l-2 -7q-3 -15 -3 -29q0 -48 38.5 -75.5t108.5 -27.5h304z" />
    <glyph glyph-name="uni0450" unicode="&#x450;" horiz-adv-x="671" 
d="M496 472q58 -26 90 -72t32 -104q0 -12 -4 -38l-4 -23h-518q-3 -16 -3 -33q0 -54 29 -96.5t82 -66t122 -23.5q99 0 162 39.5t81 113.5h31q-22 -87 -92 -133t-182 -46q-78 0 -137 27t-91.5 75.5t-32.5 109.5q0 27 6 54l5 24q23 105 98 161.5t194 56.5q74 0 132 -26z
M189 422.5q-67 -49.5 -87 -143.5l-5 -19h489v2q3 17 3 32q0 51 -28.5 91.5t-80 63.5t-117.5 23q-107 0 -174 -49.5zM207 688l387 -86l-6 -26l-386 87z" />
    <glyph glyph-name="uni0451" unicode="&#x451;" horiz-adv-x="671" 
d="M496 472q58 -26 90 -72t32 -104q0 -12 -4 -38l-4 -23h-518q-3 -16 -3 -33q0 -54 29 -96.5t82 -66t122 -23.5q99 0 162 39.5t81 113.5h31q-22 -87 -92 -133t-182 -46q-78 0 -137 27t-91.5 75.5t-32.5 109.5q0 27 6 54l5 24q23 105 98 161.5t194 56.5q74 0 132 -26z
M189 422.5q-67 -49.5 -87 -143.5l-5 -19h489v2q3 17 3 32q0 51 -28.5 91.5t-80 63.5t-117.5 23q-107 0 -174 -49.5zM249 604.5q-7 6.5 -7 17.5q0 13 8 20.5t20 7.5q10 0 17.5 -6.5t7.5 -17.5q0 -12 -8.5 -20t-19.5 -8t-18 6.5zM504.5 605q-7.5 7 -7.5 18q0 12 8.5 19.5
t19.5 7.5t18 -6t7 -16q0 -13 -8 -21.5t-19 -8.5t-18.5 7z" />
    <glyph glyph-name="uni0452" unicode="&#x452;" horiz-adv-x="737" 
d="M594 446.5q58 -47.5 58 -132.5q0 -31 -7 -62l-40 -179q-29 -126 -96.5 -184.5t-185.5 -58.5h-69l6 25h62q107 0 168.5 53t86.5 167l39 179q6 30 6 57q0 75 -50 116t-145 41q-70 0 -135.5 -31.5t-111.5 -86.5l-78 -350h-29l135 608h-129l6 26h129l14 62h29l-14 -62h256
l-6 -26h-256l-48 -216q50 49 112.5 75.5t129.5 26.5q105 0 163 -47.5z" />
    <glyph glyph-name="uni0453" unicode="&#x453;" horiz-adv-x="513" 
d="M557 488l-5 -25h-373l-103 -463h-29l109 488h401zM606 689l-6 -27l-425 -87l6 27z" />
    <glyph glyph-name="uni0454" unicode="&#x454;" horiz-adv-x="670" 
d="M494.5 474.5q58.5 -23.5 92 -64t33.5 -88.5q0 -14 -3 -29l-1 -8h-29l1 8q3 14 3 26q0 42 -29.5 77t-81.5 55.5t-117 20.5q-106 0 -174 -50.5t-88 -144.5l-4 -20h314l-5 -26h-314q-2 -18 -2 -27q0 -55 29 -97.5t82 -66.5t124 -24q97 0 161.5 40.5t78.5 109.5l2 8h30l-2 -8
q-16 -82 -89 -129t-181 -47q-78 0 -138 27.5t-92.5 76t-32.5 110.5q0 26 6 54l5 23q22 105 97 161t194 56q72 0 130.5 -23.5z" />
    <glyph glyph-name="uni0455" unicode="&#x455;" horiz-adv-x="688" 
d="M172 6q-58 16 -89.5 45t-31.5 67q0 5 2 19l1 7h29l-1 -7q-2 -12 -2 -17q0 -48 61 -76.5t166 -28.5q109 0 171.5 25.5t73.5 73.5l2 9q2 7 2 19q0 35 -38.5 56.5t-119.5 31.5l-107 13q-83 10 -123 35.5t-40 68.5q0 11 3 23l2 10q11 58 76 88t181 30q73 0 129.5 -16.5
t87.5 -45.5t31 -67q0 -6 -2 -18l-1 -7h-29l1 7q2 10 2 15q0 47 -60.5 77t-159.5 30q-103 0 -161 -24t-66 -70l-2 -10q-2 -7 -2 -20q0 -34 33.5 -54t103.5 -28l107 -12q184 -21 184 -110q0 -12 -3 -24l-2 -9q-14 -60 -84 -91t-191 -31q-76 0 -134 16z" />
    <glyph glyph-name="uni0456" unicode="&#x456;" horiz-adv-x="286" 
d="M212 488l-109 -488h-29l109 488h29zM208 605q-8 7 -8 18q0 13 8.5 20.5t20.5 7.5q11 0 18.5 -7t7.5 -18q0 -13 -8 -20.5t-20 -7.5q-11 0 -19 7z" />
    <glyph glyph-name="uni0457" unicode="&#x457;" horiz-adv-x="336" 
d="M150.5 604.5q-6.5 6.5 -6.5 16.5q0 14 8 21.5t19 7.5t17.5 -6.5t6.5 -16.5q0 -14 -7.5 -21.5t-19.5 -7.5q-11 0 -17.5 6.5zM317.5 604q-6.5 6 -6.5 16q0 14 7.5 22t18.5 8t17.5 -6.5t6.5 -16.5q0 -14 -7.5 -21.5t-19.5 -7.5q-10 0 -16.5 6zM237 488l-108 -488h-29
l108 488h29z" />
    <glyph glyph-name="uni0458" unicode="&#x458;" horiz-adv-x="286" 
d="M-71 -145q113 0 140 121l114 512h29l-115 -514q-17 -73 -58 -108.5t-110 -35.5h-122l5 25h117zM208 605q-8 7 -8 18q0 13 8.5 20.5t20.5 7.5q11 0 18.5 -7t7.5 -18q0 -13 -8 -20.5t-20 -7.5q-11 0 -19 7z" />
    <glyph glyph-name="uni0459" unicode="&#x459;" horiz-adv-x="1100" 
d="M971.5 268q42.5 -34 42.5 -89q0 -19 -4 -35l-3 -14q-12 -62 -57.5 -96t-121.5 -34h-342l103 462h-358l-62 -249q-20 -80 -44.5 -126t-59.5 -66.5t-88 -20.5h-30l5 26h24q45 0 75.5 18.5t52 59.5t38.5 112l66 272h416l-42 -186h270q77 0 119.5 -34zM986 177q0 46 -35.5 73
t-101.5 27h-272l-56 -251h307q65 0 103 28t48 78l3 14q4 15 4 31z" />
    <glyph glyph-name="uni045A" unicode="&#x45a;" horiz-adv-x="1107" 
d="M185 488l-49 -220h442l49 220h29l-48 -219h253q73 0 114.5 -29t41.5 -79q0 -12 -3 -27l-3 -14q-11 -58 -57 -89t-123 -31h-312l54 242h-443l-54 -242h-29l109 488h29zM934.5 49.5q38.5 24.5 47.5 71.5l3 14q3 12 3 24q0 40 -33.5 62.5t-96.5 22.5h-256l-49 -219h279
q64 0 102.5 24.5z" />
    <glyph glyph-name="uni045B" unicode="&#x45b;" horiz-adv-x="737" 
d="M594 446q58 -48 58 -133q0 -32 -7 -61l-55 -252h-29l55 253q6 30 6 57q0 76 -50 117t-145 41q-70 0 -135.5 -31.5t-111.5 -86.5l-78 -350h-29l135 608h-128l5 26h129l14 62h29l-14 -62h256l-6 -26h-256l-48 -216q50 49 112.5 75.5t129.5 26.5q105 0 163 -48z" />
    <glyph glyph-name="uni045C" unicode="&#x45c;" horiz-adv-x="687" 
d="M673 483l-334 -240l242 -238l-1 -5h-29l-240 232h-183l-52 -232h-29l109 488h29l-52 -231h182l324 231h35zM637 689l-6 -27l-425 -87l6 27z" />
    <glyph glyph-name="uni045D" unicode="&#x45d;" horiz-adv-x="713" 
d="M185 488l-99 -448l553 448h27l-109 -488h-28l99 448l-554 -448h-27l109 488h29zM253 688l387 -86l-6 -26l-386 87z" />
    <glyph glyph-name="uni045E" unicode="&#x45e;" horiz-adv-x="697" 
d="M682 488l-1 -5l-432 -556q-30 -39 -54.5 -59t-54.5 -29t-76 -9h-68l5 25h65q55 0 87 17t70 65l47 61l-162 485l1 5h28l153 -465l360 465h32zM236 666q0 10 1 15l1 3h27l-1 -3q-1 -4 -1 -12q0 -35 39 -51.5t120 -16.5q85 0 135.5 21t56.5 59l1 3h28l-1 -3
q-9 -52 -65.5 -78.5t-156.5 -26.5q-184 0 -184 90z" />
    <glyph glyph-name="uni045F" unicode="&#x45f;" horiz-adv-x="698" 
d="M542 0h-228l-29 -128h-28l29 128h-239l108 488h29l-103 -462h438l103 462h29z" />
    <glyph glyph-name="uni0462" unicode="&#x462;" horiz-adv-x="893" 
d="M780 304.5q54 -39.5 54 -106.5q0 -20 -4 -37l-2 -14q-27 -147 -224 -147h-403l119 531h-246l5 26h247l22 100h30l-22 -100h341l-5 -26h-342l-42 -187h323q95 0 149 -39.5zM805 195q0 58 -46 90t-129 32h-328l-65 -291h368q87 0 135 31t59 93l2 13q4 22 4 32z" />
    <glyph glyph-name="uni0463" unicode="&#x463;" horiz-adv-x="815" 
d="M685.5 253q41.5 -33 41.5 -86q0 -18 -4 -33l-3 -13q-12 -56 -56 -88.5t-117 -32.5h-389l103 463h-202l5 25h203l46 208h29l-46 -208h302l-5 -25h-303l-39 -177h319q74 0 115.5 -33zM699 165q0 43 -34 69t-97 26h-323l-52 -234h355q62 0 98.5 26t45.5 71l3 13q4 20 4 29z
" />
    <glyph glyph-name="uni0472" unicode="&#x472;" horiz-adv-x="877" 
d="M662.5 631.5q71.5 -34.5 110 -97t38.5 -142.5q0 -40 -8 -75l-4 -19q-32 -150 -130 -229t-252 -79q-95 0 -166.5 34.5t-110 96.5t-38.5 142q0 40 8 75l5 19q32 150 129.5 229.5t252.5 79.5q94 0 165.5 -34.5zM264.5 566q-90.5 -73 -120.5 -210l-4 -19q85 19 159 19
q47 0 91.5 -6t54.5 -7q94 -15 169 -15q78 0 163 14q4 23 4 49q0 73 -35 129.5t-99.5 87.5t-150.5 31q-141 0 -231.5 -73zM649.5 90q90.5 73 119.5 209l3 17q-83 -15 -164 -15q-74 0 -168 15q-8 1 -53 7t-93 6q-70 0 -158 -17q-4 -32 -4 -48q0 -73 35 -129t99.5 -87
t151.5 -31q141 0 231.5 73z" />
    <glyph glyph-name="uni0473" unicode="&#x473;" horiz-adv-x="685" 
d="M501 470.5q59 -27.5 91 -76t32 -110.5q0 -25 -6 -54l-6 -22q-22 -105 -96.5 -161.5t-192.5 -56.5q-78 0 -137.5 27t-92 75.5t-32.5 110.5q0 26 6 53l5 23q23 107 97.5 163t195.5 56q77 0 136 -27.5zM96 255v-2q65 14 121 14q44 0 118 -10q80 -10 133 -10q64 0 124 9
q2 18 2 27q0 55 -28.5 98t-80.5 67t-120 24q-108 0 -176 -50t-88 -145zM588 231v2q-62 -11 -125 -11q-53 0 -133 10q-74 10 -118 10q-58 0 -120 -13q-1 -8 -1 -24q0 -55 28.5 -98t81 -67t122.5 -24q106 0 173 50t87 143z" />
    <glyph glyph-name="uni0474" unicode="&#x474;" horiz-adv-x="793" 
d="M874 656l-6 -26h-35q-38 0 -61 -16t-54 -61l-379 -553h-35l-181 650l1 6h28l173 -630l365 538q36 52 65.5 72t74.5 20h44z" />
    <glyph glyph-name="uni0475" unicode="&#x475;" horiz-adv-x="705" 
d="M749 488l-6 -26h-33q-32 0 -53 -14t-52 -55l-297 -393h-36l-156 483l1 5h27l150 -462l286 381q37 49 62.5 65t67.5 16h39z" />
    <glyph glyph-name="uni0490" unicode="&#x490;" horiz-adv-x="627" 
d="M668 656l30 133h30l-36 -159h-465l-140 -630h-30l146 656h465z" />
    <glyph glyph-name="uni0491" unicode="&#x491;" horiz-adv-x="513" 
d="M508 488l29 128h29l-34 -153h-353l-103 -463h-29l109 488h352z" />
    <glyph glyph-name="uni0492" unicode="&#x492;" horiz-adv-x="710" 
d="M260 630l-66 -297h375l-5 -26h-376l-68 -307h-30l68 307h-129l6 26h129l72 323h555l-6 -26h-525z" />
    <glyph glyph-name="uni0493" unicode="&#x493;" horiz-adv-x="603" 
d="M222 462l-51 -229h243l-5 -25h-244l-46 -208h-29l46 208h-129l6 25h129l57 255h401l-5 -26h-373z" />
    <glyph glyph-name="uni0494" unicode="&#x494;" horiz-adv-x="790" 
d="M227 630l-63 -285q57 16 122.5 25t129.5 9q127 0 197.5 -52.5t70.5 -145.5q0 -29 -8 -64l-17 -76q-22 -109 -92 -160t-197 -51h-108l6 27h103q114 0 176.5 45.5t82.5 140.5l17 76q7 29 7 59q0 82 -62.5 128t-177.5 46q-62 0 -129.5 -9t-127.5 -26l-70 -317h-30l146 656
h549l-6 -26h-519z" />
    <glyph glyph-name="uni0495" unicode="&#x495;" horiz-adv-x="696" 
d="M179 463l-50 -226q109 31 218 31q97 0 151 -41.5t54 -114.5q0 -24 -6 -51l-16 -70q-17 -81 -68 -121t-141 -40h-80l5 25h75q78 0 122.5 34.5t58.5 105.5l16 68q6 26 6 47q0 63 -46.5 97.5t-132.5 34.5q-97 0 -222 -32l-47 -210h-29l109 488h456l-5 -25h-428z" />
    <glyph glyph-name="uni0496" unicode="&#x496;" horiz-adv-x="1236" 
d="M856 327l182 -300h103l-35 -160h-30l29 133h-84l-192 316h-170l-70 -316h-30l70 316h-166l-392 -316h-38l1 6l403 324l-262 320l1 6h29l257 -314h173l70 314h30l-70 -314h167l395 314h38l-1 -6z" />
    <glyph glyph-name="uni0497" unicode="&#x497;" horiz-adv-x="1049" 
d="M693 243l176 -217h106l-34 -154h-29l29 128h-85l-190 232h-153l-51 -232h-29l51 232h-147l-311 -232h-35l1 5l320 242l-199 236l1 5h29l197 -231h150l51 231h29l-51 -231h149l295 231h35l-1 -5z" />
    <glyph glyph-name="uni0498" unicode="&#x498;" horiz-adv-x="833" 
d="M656 645.5q70 -20.5 107 -59t37 -89.5q0 -18 -4 -34l-3 -14q-9 -51 -50 -83t-112 -43q58 -17 89.5 -51.5t31.5 -80.5q0 -15 -3 -30l-2 -14q-15 -79 -98 -118t-237 -39q-156 0 -242 56t-86 154q0 31 7 60l3 12h30l-4 -12q-7 -28 -7 -56q0 -90 77.5 -138.5t223.5 -48.5
q279 0 303 133l3 13q3 14 3 26q0 57 -56 91.5t-152 34.5h-191l6 26h215q199 0 219 111l2 13q4 20 4 30q0 67 -74 105.5t-206 38.5q-293 0 -332 -207l-2 -11h-30l2 11q45 234 362 234q96 0 166 -20.5zM435 4l-33 -147h-30l33 147h30z" />
    <glyph glyph-name="uni0499" unicode="&#x499;" horiz-adv-x="684" 
d="M556.5 463.5q66.5 -34.5 66.5 -94.5q0 -12 -3 -24l-3 -10q-12 -73 -107 -91q38 -12 59 -37t21 -57q0 -12 -3 -24l-2 -10q-15 -65 -78 -95.5t-186 -30.5q-128 0 -197 43t-69 121q0 17 5 42l2 6h29l-2 -6q-5 -23 -5 -40q0 -68 60.5 -104.5t176.5 -36.5q110 0 166.5 25
t68.5 79l3 10q3 12 3 23q0 37 -32.5 59t-88.5 22h-189l5 26h183q69 0 105.5 19t43.5 58l2 11q2 7 2 21q0 49 -57.5 77t-163.5 28q-114 0 -176.5 -37.5t-78.5 -114.5l-1 -7h-30l2 7q34 177 285 177q117 0 183.5 -34.5zM333 4l-33 -147h-29l33 147h29z" />
    <glyph glyph-name="uni049A" unicode="&#x49a;" horiz-adv-x="792" 
d="M384 328l207 -301h106l-35 -160h-30l30 133h-88l-217 316h-200l-70 -316h-30l146 656h30l-70 -314h196l415 314h37l-1 -6z" />
    <glyph glyph-name="uni049B" unicode="&#x49b;" horiz-adv-x="717" 
d="M339 243l205 -217h100l-33 -154h-29l28 128h-76l-222 232h-184l-52 -232h-29l109 488h29l-52 -231h182l325 231h35l-1 -5z" />
    <glyph glyph-name="uni049C" unicode="&#x49c;" horiz-adv-x="843" 
d="M850 650l-424 -322l276 -322l-1 -6h-30l-270 316h-72l-39 -177h-29l39 177h-143l-70 -316h-30l146 656h30l-70 -314h143l40 178h28l-39 -178h67l412 314h37z" />
    <glyph glyph-name="uni049D" unicode="&#x49d;" horiz-adv-x="754" 
d="M740 483l-335 -240l244 -238l-1 -5h-30l-240 232h-72l-34 -153h-27l34 153h-151l-52 -232h-29l109 488h29l-52 -231h152l33 149h27l-33 -149h69l325 231h36z" />
    <glyph glyph-name="uni04A0" unicode="&#x4a0;" horiz-adv-x="1034" 
d="M1041 650l-425 -321l277 -323l-1 -6h-30l-270 316h-204l-70 -316h-30l140 630h-332l6 26h362l-70 -314h197l414 314h37z" />
    <glyph glyph-name="uni04A1" unicode="&#x4a1;" horiz-adv-x="865" 
d="M857 483l-334 -240l243 -238l-2 -5h-29l-239 232h-184l-51 -232h-30l103 462h-275l5 26h305l-51 -231h181l324 231h35z" />
    <glyph glyph-name="uni04A2" unicode="&#x4a2;" horiz-adv-x="870" 
d="M659 27h104l-35 -160h-30l30 133h-105l71 315h-537l-70 -315h-30l146 656h30l-70 -315h536l70 315h30z" />
    <glyph glyph-name="uni04A3" unicode="&#x4a3;" horiz-adv-x="754" 
d="M578 26h103l-34 -154h-29l29 128h-104l52 231h-467l-52 -231h-29l109 488h29l-52 -231h467l51 231h30z" />
    <glyph glyph-name="uni04A4" unicode="&#x4a4;" horiz-adv-x="1080" 
d="M233 656l-70 -315h507l71 315h420l-6 -26h-391l-140 -630h-30l71 315h-508l-70 -315h-30l146 656h30z" />
    <glyph glyph-name="uni04A5" unicode="&#x4a5;" horiz-adv-x="923" 
d="M185 488l-52 -231h429l51 231h354l-5 -26h-325l-103 -462h-29l52 231h-429l-52 -231h-29l109 488h29z" />
    <glyph glyph-name="uni04AA" unicode="&#x4aa;" horiz-adv-x="874" 
d="M255.5 24q-73.5 34 -113 95.5t-39.5 141.5q0 38 9 78l5 24q32 147 129.5 225t250.5 78q89 0 161.5 -31.5t114.5 -85t42 -116.5q0 -21 -4 -38l-2 -11h-30l3 11q4 16 4 35q0 57 -38 105t-104.5 76t-147.5 28q-141 0 -231 -72t-119 -207l-6 -25q-8 -33 -8 -73
q0 -73 36 -128.5t102.5 -86t157.5 -30.5q81 0 148 25.5t111.5 72t58.5 107.5l3 13h30l-3 -13q-16 -70 -64.5 -122.5t-121.5 -81t-162 -28.5q-99 0 -172.5 34zM439 4l-33 -147h-30l33 147h30z" />
    <glyph glyph-name="uni04AB" unicode="&#x4ab;" horiz-adv-x="670" 
d="M187 17.5q-60 27.5 -92.5 76t-32.5 109.5q0 26 6 54l5 23q22 105 97 161.5t194 56.5q72 0 130.5 -24t92 -65.5t33.5 -90.5q0 -14 -3 -29l-1 -7h-29l1 7q3 14 3 27q0 43 -29.5 79t-81.5 56.5t-117 20.5q-106 0 -174 -50.5t-88 -144.5l-5 -23q-6 -25 -6 -49q0 -55 29 -98
t82.5 -67t123.5 -24q96 0 161 41.5t79 112.5l2 7h30l-2 -7q-16 -83 -89 -131.5t-181 -48.5q-78 0 -138 27.5zM318 4l-33 -147h-29l33 147h29z" />
    <glyph glyph-name="uni04AE" unicode="&#x4ae;" horiz-adv-x="726" 
d="M786 650l-409 -358l-65 -292h-30l66 294l-251 356l1 6h29l238 -340l388 340h35z" />
    <glyph glyph-name="uni04AF" unicode="&#x4af;" horiz-adv-x="695" 
d="M686 483l-379 -490l-36 -163h-30l37 163l-163 490l1 5h28l154 -463l358 463h31z" />
    <glyph glyph-name="uni04B0" unicode="&#x4b0;" horiz-adv-x="726" 
d="M786 650l-387 -339h227l-5 -27h-246l-63 -284h-30l63 284h-224l5 27h209l-238 339l1 6h29l238 -340l388 340h35z" />
    <glyph glyph-name="uni04B1" unicode="&#x4b1;" horiz-adv-x="695" 
d="M686 483l-357 -457h219l-5 -26h-235l-38 -170h-29l38 170h-236l6 26h222l-156 457l1 5h28l155 -459l357 459h31z" />
    <glyph glyph-name="uni04B2" unicode="&#x4b2;" horiz-adv-x="812" 
d="M434 313l188 -286h94l-35 -160h-30l29 133h-76l-194 297l-343 -297h-37l1 6l363 313l-219 331l1 6h31l210 -322l373 322h37l-1 -6z" />
    <glyph glyph-name="uni04B3" unicode="&#x4b3;" horiz-adv-x="676" 
d="M339 237l166 -211h97l-34 -154h-29l29 128h-76l-174 222l-284 -222h-36l1 5l301 236l-189 242v5h30l181 -232l295 232h35l-1 -5z" />
    <glyph glyph-name="uni04B6" unicode="&#x4b6;" horiz-adv-x="850" 
d="M638 27h105l-35 -160h-30l30 133h-106l60 271q-62 -15 -128 -23.5t-122 -8.5q-131 0 -201 49.5t-70 140.5q0 27 6 55l35 172h30l-35 -173q-5 -22 -5 -51q0 -81 61.5 -123.5t180.5 -42.5q55 0 122.5 8.5t132.5 24.5l79 357h30z" />
    <glyph glyph-name="uni04B7" unicode="&#x4b7;" horiz-adv-x="732" 
d="M631 26l-35 -154h-29l29 128h-104l44 197q-51 -14 -112 -22.5t-117 -8.5q-96 0 -146 38.5t-50 108.5q0 22 4 42l25 133h29l-25 -132q-4 -26 -4 -37q0 -61 43.5 -94t127.5 -33q55 0 116 9t115 24l59 263h29l-103 -462h104z" />
    <glyph glyph-name="uni04B8" unicode="&#x4b8;" horiz-adv-x="799" 
d="M780 656l-146 -656h-30l60 272q-63 -15 -129 -23.5t-123 -8.5l-29 -131h-28l29 131q-118 5 -179.5 52.5t-61.5 133.5q0 27 6 57l35 173h30l-36 -173q-6 -28 -6 -53q0 -76 55.5 -118t162.5 -46l50 223h28l-50 -223q118 2 253 33l79 357h30z" />
    <glyph glyph-name="uni04B9" unicode="&#x4b9;" horiz-adv-x="677" 
d="M630 488l-108 -488h-30l44 197q-90 -26 -207 -30l-26 -116h-28l26 116q-93 1 -141.5 39.5t-48.5 106.5q0 22 4 41l26 134h29l-26 -133q-4 -17 -4 -37q0 -58 42 -91t124 -34l42 188h28l-42 -188q109 3 208 31l59 264h29z" />
    <glyph glyph-name="uni04BA" unicode="&#x4ba;" horiz-adv-x="799" 
d="M624.5 367.5q69.5 -49.5 69.5 -140.5q0 -26 -6 -55l-35 -172h-30l35 173q5 23 5 51q0 81 -61.5 123.5t-180.5 42.5q-55 0 -122.5 -8.5t-132.5 -24.5l-79 -357h-30l146 656h30l-60 -270q62 14 128 22.5t122 8.5q132 0 201.5 -49.5z" />
    <glyph glyph-name="uni04BB" unicode="&#x4bb;" horiz-adv-x="711" 
d="M569.5 450.5q57.5 -47.5 57.5 -132.5q0 -31 -7 -62l-56 -256h-29l57 258q7 28 7 57q0 75 -51 116t-145 41q-70 0 -136 -31.5t-112 -85.5l-79 -355h-29l155 696h29l-67 -301q50 50 112.5 76.5t129.5 26.5q106 0 163.5 -47.5z" />
    <glyph glyph-name="uni04C0" unicode="&#x4c0;" horiz-adv-x="299" 
d="M256 656l-146 -656h-30l146 656h30z" />
    <glyph glyph-name="uni04C1" unicode="&#x4c1;" horiz-adv-x="1257" 
d="M1264 650l-405 -321l257 -323l-1 -6h-30l-252 316h-174l-70 -316h-30l70 316h-168l-390 -316h-38l1 6l402 324l-261 320l1 6h30l254 -314h175l70 314h30l-70 -314h168l394 314h38zM561 834q0 10 1 15l1 3h27l-1 -3q-1 -4 -1 -12q0 -35 39 -51.5t120 -16.5q85 0 135.5 21
t56.5 59l1 3h28l-1 -3q-9 -52 -65.5 -78.5t-156.5 -26.5q-184 0 -184 90z" />
    <glyph glyph-name="uni04C2" unicode="&#x4c2;" horiz-adv-x="1018" 
d="M1004 483l-303 -240l211 -238l-1 -5h-29l-210 232h-151l-52 -232h-29l52 232h-148l-311 -232h-35l1 5l320 242l-199 236l1 5h29l197 -231h150l52 231h29l-52 -231h149l295 231h35zM403 666q0 10 1 15l1 3h27l-1 -3q-1 -4 -1 -12q0 -35 39 -51.5t120 -16.5q85 0 135.5 21
t56.5 59l1 3h28l-1 -3q-9 -52 -65.5 -78.5t-156.5 -26.5q-184 0 -184 90z" />
    <glyph glyph-name="uni04CF" unicode="&#x4cf;" horiz-adv-x="286" 
d="M258 696l-155 -696h-29l155 696h29z" />
    <glyph glyph-name="uni04D0" unicode="&#x4d0;" horiz-adv-x="770" 
d="M696 6l-1 -6h-29l-61 211h-426l-156 -211h-34l2 6l480 650h35zM597 238l-113 387l-286 -387h399zM328 834q0 10 1 15l1 3h27l-1 -3q-1 -4 -1 -12q0 -35 39 -51.5t120 -16.5q85 0 135.5 21t56.5 59l1 3h28l-1 -3q-9 -52 -65.5 -78.5t-156.5 -26.5q-184 0 -184 90z" />
    <glyph glyph-name="uni04D1" unicode="&#x4d1;" horiz-adv-x="716" 
d="M668 26l-6 -26h-44q-43 0 -68 20.5t-25 55.5q0 14 2 21q-110 -107 -283 -107q-90 0 -139 30t-49 84q0 12 3 25q10 55 60 83t149 38l298 29l3 14q4 19 4 39q0 66 -52.5 103t-147.5 37q-97 0 -162.5 -41t-80.5 -112l-2 -9h-29l2 9q17 83 90 131t184 48q106 0 166.5 -44
t60.5 -120q0 -18 -5 -43l-40 -188q-2 -14 -2 -20q0 -28 17.5 -42.5t51.5 -14.5h44zM409.5 46.5q75.5 31.5 125.5 88.5l26 119l-295 -28q-86 -8 -128.5 -31.5t-50.5 -67.5q-2 -14 -2 -21q0 -44 41.5 -67.5t119.5 -23.5q88 0 163.5 31.5zM206 666q0 10 1 15l1 3h27l-1 -3
q-1 -4 -1 -12q0 -35 39 -51.5t120 -16.5q85 0 135.5 21t56.5 59l1 3h28l-1 -3q-9 -52 -65.5 -78.5t-156.5 -26.5q-184 0 -184 90z" />
    <glyph glyph-name="uni04D2" unicode="&#x4d2;" horiz-adv-x="770" 
d="M696 6l-1 -6h-29l-61 211h-426l-156 -211h-34l2 6l480 650h35zM597 238l-113 387l-286 -387h399zM371 772.5q-7 6.5 -7 17.5q0 13 8 20.5t20 7.5q10 0 17.5 -6.5t7.5 -17.5q0 -12 -8.5 -20t-19.5 -8t-18 6.5zM626.5 773q-7.5 7 -7.5 18q0 12 8.5 19.5t19.5 7.5t18 -6
t7 -16q0 -13 -8 -21.5t-19 -8.5t-18.5 7z" />
    <glyph glyph-name="uni04D3" unicode="&#x4d3;" horiz-adv-x="716" 
d="M668 26l-6 -26h-44q-43 0 -68 20.5t-25 55.5q0 14 2 21q-110 -107 -283 -107q-90 0 -139 30t-49 84q0 12 3 25q10 55 60 83t149 38l298 29l3 14q4 19 4 39q0 66 -52.5 103t-147.5 37q-97 0 -162.5 -41t-80.5 -112l-2 -9h-29l2 9q17 83 90 131t184 48q106 0 166.5 -44
t60.5 -120q0 -18 -5 -43l-40 -188q-2 -14 -2 -20q0 -28 17.5 -42.5t51.5 -14.5h44zM409.5 46.5q75.5 31.5 125.5 88.5l26 119l-295 -28q-86 -8 -128.5 -31.5t-50.5 -67.5q-2 -14 -2 -21q0 -44 41.5 -67.5t119.5 -23.5q88 0 163.5 31.5zM249 604.5q-7 6.5 -7 17.5
q0 13 8 20.5t20 7.5q10 0 17.5 -6.5t7.5 -17.5q0 -12 -8.5 -20t-19.5 -8t-18 6.5zM504.5 605q-7.5 7 -7.5 18q0 12 8.5 19.5t19.5 7.5t18 -6t7 -16q0 -13 -8 -21.5t-19 -8.5t-18.5 7z" />
    <glyph glyph-name="uni04D4" unicode="&#x4d4;" horiz-adv-x="1072" 
d="M554 630l9 -289h434l-5 -26h-428l10 -288h373l-5 -27h-396l-7 211h-363l-155 -211h-32l2 6l479 650h618l-6 -26h-528zM525 630h-40l-289 -392h342z" />
    <glyph glyph-name="uni04D5" unicode="&#x4d5;" horiz-adv-x="1098" 
d="M941.5 473q50.5 -25 78.5 -68.5t28 -99.5q0 -27 -5 -48l-3 -16h-477l-1 -5q-5 -28 -5 -48q0 -79 55.5 -126t150.5 -47q90 0 151.5 41.5t78.5 112.5h30q-19 -84 -88 -131.5t-170 -47.5q-85 0 -144 34.5t-81 94.5q-54 -66 -125.5 -97.5t-167.5 -31.5q-92 0 -141.5 29.5
t-49.5 83.5q0 6 2 20q8 57 55 85t149 36l277 23l4 18q4 20 4 43q0 68 -47.5 106t-134.5 38q-94 0 -157 -41t-78 -112l-1 -9h-30l2 9q16 83 87.5 131t178.5 48q90 0 143.5 -38t61.5 -106q34 67 101 105.5t153 38.5q65 0 115.5 -25zM569 265h446q4 19 4 40q0 74 -53 120.5
t-141 46.5q-101 0 -168 -53t-86 -147zM533 144q-5 22 -5 42q0 26 6 53l1 3l-271 -22q-91 -7 -132 -30t-47 -70q-1 -4 -1 -13q0 -45 41 -68.5t121 -23.5q184 0 287 129z" />
    <glyph glyph-name="uni04D6" unicode="&#x4d6;" horiz-adv-x="723" 
d="M727 656l-6 -26h-494l-64 -289h474l-6 -26h-474l-65 -288h495l-6 -27h-524l146 656h524zM304 834q0 10 1 15l1 3h27l-1 -3q-1 -4 -1 -12q0 -35 39 -51.5t120 -16.5q85 0 135.5 21t56.5 59l1 3h28l-1 -3q-9 -52 -65.5 -78.5t-156.5 -26.5q-184 0 -184 90z" />
    <glyph glyph-name="uni04D7" unicode="&#x4d7;" horiz-adv-x="671" 
d="M496 472q58 -26 90 -72t32 -104q0 -12 -4 -38l-4 -23h-518q-3 -16 -3 -33q0 -54 29 -96.5t82 -66t122 -23.5q99 0 162 39.5t81 113.5h31q-22 -87 -92 -133t-182 -46q-78 0 -137 27t-91.5 75.5t-32.5 109.5q0 27 6 54l5 24q23 105 98 161.5t194 56.5q74 0 132 -26z
M189 422.5q-67 -49.5 -87 -143.5l-5 -19h489v2q3 17 3 32q0 51 -28.5 91.5t-80 63.5t-117.5 23q-107 0 -174 -49.5zM206 666q0 10 1 15l1 3h27l-1 -3q-1 -4 -1 -12q0 -35 39 -51.5t120 -16.5q85 0 135.5 21t56.5 59l1 3h28l-1 -3q-9 -52 -65.5 -78.5t-156.5 -26.5
q-184 0 -184 90z" />
    <glyph glyph-name="uni04D8" unicode="&#x4d8;" horiz-adv-x="877" 
d="M660.5 631.5q72.5 -34.5 111.5 -96.5t39 -143q0 -37 -9 -76l-4 -20q-32 -147 -129.5 -226.5t-248.5 -79.5q-98 0 -170.5 34t-112 95t-39.5 142q0 34 5 60l3 17h671q4 24 4 53q0 73 -35.5 129.5t-101 87.5t-154.5 31q-124 0 -208 -53.5t-117 -153.5h-31q36 113 128 173.5
t229 60.5q97 0 169.5 -34.5zM649.5 90.5q90.5 73.5 118.5 207.5l3 14h-640q-4 -23 -4 -50q0 -74 35.5 -129t102 -85.5t155.5 -30.5q139 0 229.5 73.5z" />
    <glyph glyph-name="uni04D9" unicode="&#x4d9;" horiz-adv-x="671" 
d="M486 471q59 -27 91.5 -75.5t32.5 -109.5q0 -27 -6 -54l-5 -24q-23 -105 -98 -161.5t-194 -56.5q-74 0 -132 26t-90 72t-32 104q0 12 4 38l4 23h518q3 17 3 33q0 54 -29 96.5t-82 66t-122 23.5q-99 0 -162 -39.5t-81 -113.5h-30q21 87 91 133t182 46q78 0 137 -27z
M482 65.5q67 49.5 88 143.5l4 19h-488v-2q-3 -16 -3 -34q0 -51 28 -91t79.5 -62.5t117.5 -22.5q107 0 174 49.5z" />
    <glyph glyph-name="uni04DA" unicode="&#x4da;" horiz-adv-x="877" 
d="M660.5 631.5q72.5 -34.5 111.5 -96.5t39 -143q0 -37 -9 -76l-4 -20q-32 -147 -129.5 -226.5t-248.5 -79.5q-98 0 -170.5 34t-112 95t-39.5 142q0 34 5 60l3 17h671q4 24 4 53q0 73 -35.5 129.5t-101 87.5t-154.5 31q-124 0 -208 -53.5t-117 -153.5h-31q36 113 128 173.5
t229 60.5q97 0 169.5 -34.5zM649.5 90.5q90.5 73.5 118.5 207.5l3 14h-640q-4 -23 -4 -50q0 -74 35.5 -129t102 -85.5t155.5 -30.5q139 0 229.5 73.5zM388 772.5q-7 6.5 -7 17.5q0 13 8 20.5t20 7.5q10 0 17.5 -6.5t7.5 -17.5q0 -12 -8.5 -20t-19.5 -8t-18 6.5zM643.5 773
q-7.5 7 -7.5 18q0 12 8.5 19.5t19.5 7.5t18 -6t7 -16q0 -13 -8 -21.5t-19 -8.5t-18.5 7z" />
    <glyph glyph-name="uni04DB" unicode="&#x4db;" horiz-adv-x="671" 
d="M486 471q59 -27 91.5 -75.5t32.5 -109.5q0 -27 -6 -54l-5 -24q-23 -105 -98 -161.5t-194 -56.5q-74 0 -132 26t-90 72t-32 104q0 12 4 38l4 23h518q3 17 3 33q0 54 -29 96.5t-82 66t-122 23.5q-99 0 -162 -39.5t-81 -113.5h-30q21 87 91 133t182 46q78 0 137 -27z
M482 65.5q67 49.5 88 143.5l4 19h-488v-2q-3 -16 -3 -34q0 -51 28 -91t79.5 -62.5t117.5 -22.5q107 0 174 49.5zM247 604.5q-7 6.5 -7 17.5q0 13 8 20.5t20 7.5q10 0 17.5 -6.5t7.5 -17.5q0 -12 -8.5 -20t-19.5 -8t-18 6.5zM502.5 605q-7.5 7 -7.5 18q0 12 8.5 19.5
t19.5 7.5t18 -6t7 -16q0 -13 -8 -21.5t-19 -8.5t-18.5 7z" />
    <glyph glyph-name="uni04DC" unicode="&#x4dc;" horiz-adv-x="1257" 
d="M1264 650l-405 -321l257 -323l-1 -6h-30l-252 316h-174l-70 -316h-30l70 316h-168l-390 -316h-38l1 6l402 324l-261 320l1 6h30l254 -314h175l70 314h30l-70 -314h168l394 314h38zM604 772.5q-7 6.5 -7 17.5q0 13 8 20.5t20 7.5q10 0 17.5 -6.5t7.5 -17.5q0 -12 -8.5 -20
t-19.5 -8t-18 6.5zM859.5 773q-7.5 7 -7.5 18q0 12 8.5 19.5t19.5 7.5t18 -6t7 -16q0 -13 -8 -21.5t-19 -8.5t-18.5 7z" />
    <glyph glyph-name="uni04DD" unicode="&#x4dd;" horiz-adv-x="1018" 
d="M1004 483l-303 -240l211 -238l-1 -5h-29l-210 232h-151l-52 -232h-29l52 232h-148l-311 -232h-35l1 5l320 242l-199 236l1 5h29l197 -231h150l52 231h29l-52 -231h149l295 231h35zM446 604.5q-7 6.5 -7 17.5q0 13 8 20.5t20 7.5q10 0 17.5 -6.5t7.5 -17.5q0 -12 -8.5 -20
t-19.5 -8t-18 6.5zM701.5 605q-7.5 7 -7.5 18q0 12 8.5 19.5t19.5 7.5t18 -6t7 -16q0 -13 -8 -21.5t-19 -8.5t-18.5 7z" />
    <glyph glyph-name="uni04DE" unicode="&#x4de;" horiz-adv-x="833" 
d="M656 645.5q70 -20.5 107 -59t37 -89.5q0 -18 -4 -34l-3 -14q-9 -51 -50 -83t-112 -43q58 -17 89.5 -51.5t31.5 -80.5q0 -15 -3 -30l-2 -14q-15 -79 -98 -118t-237 -39q-156 0 -242 56t-86 154q0 31 7 60l3 12h30l-4 -12q-7 -28 -7 -56q0 -90 77.5 -138.5t223.5 -48.5
q279 0 303 133l3 13q3 14 3 26q0 57 -56 91.5t-152 34.5h-191l6 26h215q199 0 219 111l2 13q4 20 4 30q0 67 -74 105.5t-206 38.5q-293 0 -332 -207l-2 -11h-30l2 11q45 234 362 234q96 0 166 -20.5zM432 772.5q-7 6.5 -7 17.5q0 13 8 20.5t20 7.5q10 0 17.5 -6.5t7.5 -17.5
q0 -12 -8.5 -20t-19.5 -8t-18 6.5zM687.5 773q-7.5 7 -7.5 18q0 12 8.5 19.5t19.5 7.5t18 -6t7 -16q0 -13 -8 -21.5t-19 -8.5t-18.5 7z" />
    <glyph glyph-name="uni04DF" unicode="&#x4df;" horiz-adv-x="684" 
d="M556.5 463.5q66.5 -34.5 66.5 -94.5q0 -12 -3 -24l-3 -10q-12 -73 -107 -91q38 -12 59 -37t21 -57q0 -12 -3 -24l-2 -10q-15 -65 -78 -95.5t-186 -30.5q-128 0 -197 43t-69 121q0 17 5 42l2 6h29l-2 -6q-5 -23 -5 -40q0 -68 60.5 -104.5t176.5 -36.5q110 0 166.5 25
t68.5 79l3 10q3 12 3 23q0 37 -32.5 59t-88.5 22h-189l5 26h183q69 0 105.5 19t43.5 58l2 11q2 7 2 21q0 49 -57.5 77t-163.5 28q-114 0 -176.5 -37.5t-78.5 -114.5l-1 -7h-30l2 7q34 177 285 177q117 0 183.5 -34.5zM255 604.5q-7 6.5 -7 17.5q0 13 8 20.5t20 7.5
q10 0 17.5 -6.5t7.5 -17.5q0 -12 -8.5 -20t-19.5 -8t-18 6.5zM510.5 605q-7.5 7 -7.5 18q0 12 8.5 19.5t19.5 7.5t18 -6t7 -16q0 -13 -8 -21.5t-19 -8.5t-18.5 7z" />
    <glyph glyph-name="uni04E2" unicode="&#x4e2;" horiz-adv-x="819" 
d="M233 656l-135 -611l672 611h30l-147 -656h-29l135 611l-673 -611h-29l146 656h30zM738 805l-5 -25h-406l5 25h406z" />
    <glyph glyph-name="uni04E3" unicode="&#x4e3;" horiz-adv-x="713" 
d="M185 488l-99 -448l553 448h27l-109 -488h-28l99 448l-554 -448h-27l109 488h29zM648 637l-5 -25h-406l5 25h406z" />
    <glyph glyph-name="uni04E4" unicode="&#x4e4;" horiz-adv-x="819" 
d="M233 656l-135 -611l672 611h30l-147 -656h-29l135 611l-673 -611h-29l146 656h30zM384 772.5q-7 6.5 -7 17.5q0 13 8 20.5t20 7.5q10 0 17.5 -6.5t7.5 -17.5q0 -12 -8.5 -20t-19.5 -8t-18 6.5zM639.5 773q-7.5 7 -7.5 18q0 12 8.5 19.5t19.5 7.5t18 -6t7 -16
q0 -13 -8 -21.5t-19 -8.5t-18.5 7z" />
    <glyph glyph-name="uni04E5" unicode="&#x4e5;" horiz-adv-x="713" 
d="M185 488l-99 -448l553 448h27l-109 -488h-28l99 448l-554 -448h-27l109 488h29zM295 604.5q-7 6.5 -7 17.5q0 13 8 20.5t20 7.5q10 0 17.5 -6.5t7.5 -17.5q0 -12 -8.5 -20t-19.5 -8t-18 6.5zM550.5 605q-7.5 7 -7.5 18q0 12 8.5 19.5t19.5 7.5t18 -6t7 -16
q0 -13 -8 -21.5t-19 -8.5t-18.5 7z" />
    <glyph glyph-name="uni04E6" unicode="&#x4e6;" horiz-adv-x="877" 
d="M250.5 24.5q-71.5 34.5 -110 96.5t-38.5 142q0 40 8 75l5 19q32 150 129.5 229.5t252.5 79.5q94 0 165.5 -34.5t110 -97t38.5 -142.5q0 -40 -8 -75l-4 -19q-32 -150 -130 -229t-252 -79q-95 0 -166.5 34.5zM649.5 89.5q90.5 72.5 119.5 209.5l4 20q8 33 8 73
q0 73 -34.5 129t-99 87t-151.5 31q-142 0 -232 -73t-120 -210l-4 -20q-8 -40 -8 -71q0 -73 34.5 -129.5t99.5 -87.5t152 -31q141 0 231.5 72.5zM388 772.5q-7 6.5 -7 17.5q0 13 8 20.5t20 7.5q10 0 17.5 -6.5t7.5 -17.5q0 -12 -8.5 -20t-19.5 -8t-18 6.5zM643.5 773
q-7.5 7 -7.5 18q0 12 8.5 19.5t19.5 7.5t18 -6t7 -16q0 -13 -8 -21.5t-19 -8.5t-18.5 7z" />
    <glyph glyph-name="uni04E7" unicode="&#x4e7;" horiz-adv-x="685" 
d="M185.5 17.5q-59.5 27.5 -92 76t-32.5 109.5q0 26 6 53l5 23q23 106 98 162.5t195 56.5q77 0 135.5 -27.5t91 -76t32.5 -110.5q0 -25 -6 -54l-6 -22q-20 -103 -95 -160.5t-194 -57.5q-78 0 -137.5 27.5zM498 67.5q67 51.5 85 141.5l5 23q6 27 6 52q0 54 -28 97t-80 67
t-121 24q-111 0 -178 -51t-86 -144l-5 -22q-6 -25 -6 -49q0 -55 29 -98.5t82 -67.5t122 -24q108 0 175 51.5zM255 604.5q-7 6.5 -7 17.5q0 13 8 20.5t20 7.5q10 0 17.5 -6.5t7.5 -17.5q0 -12 -8.5 -20t-19.5 -8t-18 6.5zM510.5 605q-7.5 7 -7.5 18q0 12 8.5 19.5t19.5 7.5
t18 -6t7 -16q0 -13 -8 -21.5t-19 -8.5t-18.5 7z" />
    <glyph glyph-name="uni04E8" unicode="&#x4e8;" horiz-adv-x="877" 
d="M662.5 631.5q71.5 -34.5 110 -97t38.5 -142.5q0 -40 -8 -75l-4 -19q-32 -150 -130 -229t-252 -79q-95 0 -166.5 34.5t-110 96t-38.5 142.5q0 40 8 75l5 19q32 150 129.5 229.5t252.5 79.5q94 0 165.5 -34.5zM264.5 566q-90.5 -73 -120.5 -210l-3 -15h636q4 24 4 51
q0 73 -34.5 129t-99 87t-151.5 31q-141 0 -231.5 -73zM649.5 89.5q90.5 72.5 119.5 209.5l3 16h-636q-4 -24 -4 -51q0 -73 35 -129t99.5 -87t150.5 -31q142 0 232.5 72.5z" />
    <glyph glyph-name="uni04E9" unicode="&#x4e9;" horiz-adv-x="685" 
d="M501 470.5q59 -27.5 91 -76t32 -110.5q0 -25 -6 -54l-6 -22q-22 -105 -96.5 -161.5t-192.5 -56.5q-78 0 -137.5 27t-92 75.5t-32.5 110.5q0 26 6 53l5 23q23 107 97.5 163t195.5 56q77 0 136 -27.5zM189 422q-68 -50 -88 -145l-5 -21h496q2 18 2 27q0 55 -28.5 98
t-80.5 67t-120 24q-108 0 -176 -50zM588 231v1h-496q-2 -18 -2 -27q0 -55 28.5 -98t81.5 -67t123 -24q106 0 173 50t87 143z" />
    <glyph glyph-name="uni04EE" unicode="&#x4ee;" horiz-adv-x="761" 
d="M822 656l-1 -6l-450 -557q-31 -38 -56 -57.5t-54.5 -27.5t-75.5 -8h-78l5 27h75q58 0 88.5 15t68.5 61l22 26l-218 521l1 6h28l209 -501l404 501h32zM730 805l-5 -25h-406l5 25h406z" />
    <glyph glyph-name="uni04EF" unicode="&#x4ef;" horiz-adv-x="697" 
d="M682 488l-1 -5l-432 -556q-30 -39 -54.5 -59t-54.5 -29t-76 -9h-68l5 25h65q55 0 87 17t70 65l47 61l-162 485l1 5h28l153 -465l360 465h32zM632 637l-5 -25h-406l5 25h406z" />
    <glyph glyph-name="uni04F0" unicode="&#x4f0;" horiz-adv-x="761" 
d="M822 656l-1 -6l-450 -557q-31 -38 -56 -57.5t-54.5 -27.5t-75.5 -8h-78l5 27h75q58 0 88.5 15t68.5 61l22 26l-218 521l1 6h28l209 -501l404 501h32zM377 772.5q-7 6.5 -7 17.5q0 13 8 20.5t20 7.5q10 0 17.5 -6.5t7.5 -17.5q0 -12 -8.5 -20t-19.5 -8t-18 6.5zM632.5 773
q-7.5 7 -7.5 18q0 12 8.5 19.5t19.5 7.5t18 -6t7 -16q0 -13 -8 -21.5t-19 -8.5t-18.5 7z" />
    <glyph glyph-name="uni04F1" unicode="&#x4f1;" horiz-adv-x="697" 
d="M682 488l-1 -5l-432 -556q-30 -39 -54.5 -59t-54.5 -29t-76 -9h-68l5 25h65q55 0 87 17t70 65l47 61l-162 485l1 5h28l153 -465l360 465h32zM279 604.5q-7 6.5 -7 17.5q0 13 8 20.5t20 7.5q10 0 17.5 -6.5t7.5 -17.5q0 -12 -8.5 -20t-19.5 -8t-18 6.5zM534.5 605
q-7.5 7 -7.5 18q0 12 8.5 19.5t19.5 7.5t18 -6t7 -16q0 -13 -8 -21.5t-19 -8.5t-18.5 7z" />
    <glyph glyph-name="uni04F2" unicode="&#x4f2;" horiz-adv-x="761" 
d="M822 656l-1 -6l-450 -557q-31 -38 -56 -57.5t-54.5 -27.5t-75.5 -8h-78l5 27h75q58 0 88.5 15t68.5 61l22 26l-218 521l1 6h28l209 -501l404 501h32zM595 857l-6 -29l-289 -85l7 28zM866 857l-6 -29l-286 -85l7 28z" />
    <glyph glyph-name="uni04F3" unicode="&#x4f3;" horiz-adv-x="697" 
d="M682 488l-1 -5l-432 -556q-30 -39 -54.5 -59t-54.5 -29t-76 -9h-68l5 25h65q55 0 87 17t70 65l47 61l-162 485l1 5h28l153 -465l360 465h32zM496 689l-6 -29l-289 -85l7 28zM767 689l-6 -29l-286 -85l7 28z" />
    <glyph glyph-name="uni04F4" unicode="&#x4f4;" horiz-adv-x="799" 
d="M778 656l-146 -656h-30l60 271q-62 -15 -128 -23.5t-122 -8.5q-131 0 -201 49.5t-70 140.5q0 27 6 55l35 172h30l-35 -173q-5 -22 -5 -51q0 -81 61.5 -123.5t180.5 -42.5q55 0 122.5 8.5t132.5 24.5l79 357h30zM369 772.5q-7 6.5 -7 17.5q0 13 8 20.5t20 7.5
q10 0 17.5 -6.5t7.5 -17.5q0 -12 -8.5 -20t-19.5 -8t-18 6.5zM624.5 773q-7.5 7 -7.5 18q0 12 8.5 19.5t19.5 7.5t18 -6t7 -16q0 -13 -8 -21.5t-19 -8.5t-18.5 7z" />
    <glyph glyph-name="uni04F5" unicode="&#x4f5;" horiz-adv-x="677" 
d="M630 488l-109 -488h-29l44 197q-51 -14 -112 -22.5t-117 -8.5q-96 0 -146 38.5t-50 108.5q0 22 4 42l25 133h29l-25 -132q-4 -26 -4 -37q0 -61 43.5 -94t127.5 -33q55 0 116 9t115 24l59 263h29zM267 604.5q-7 6.5 -7 17.5q0 13 8 20.5t20 7.5q10 0 17.5 -6.5t7.5 -17.5
q0 -12 -8.5 -20t-19.5 -8t-18 6.5zM522.5 605q-7.5 7 -7.5 18q0 12 8.5 19.5t19.5 7.5t18 -6t7 -16q0 -13 -8 -21.5t-19 -8.5t-18.5 7z" />
    <glyph glyph-name="uni04F8" unicode="&#x4f8;" horiz-adv-x="1013" 
d="M242 656l-64 -287h328q94 0 149 -43t55 -114q0 -21 -4 -38l-4 -18q-13 -76 -70.5 -116t-153.5 -40h-412l146 656h30zM984 656l-146 -656h-30l146 656h30zM612 61q50 34 62 98l3 18q4 16 4 34q0 61 -47.5 96t-129.5 35h-332l-70 -315h377q83 0 133 34zM481 772.5
q-7 6.5 -7 17.5q0 13 8 20.5t20 7.5q10 0 17.5 -6.5t7.5 -17.5q0 -12 -8.5 -20t-19.5 -8t-18 6.5zM736.5 773q-7.5 7 -7.5 18q0 12 8.5 19.5t19.5 7.5t18 -6t7 -16q0 -13 -8 -21.5t-19 -8.5t-18.5 7z" />
    <glyph glyph-name="uni04F9" unicode="&#x4f9;" horiz-adv-x="902" 
d="M590.5 268q42.5 -34 42.5 -90q0 -18 -4 -34l-3 -14q-13 -62 -58.5 -96t-121.5 -34h-380l109 488h29l-42 -186h308q78 0 120.5 -34zM837 488l-109 -488h-29l108 488h30zM604 177q0 45 -35.5 72.5t-101.5 27.5h-310l-56 -251h346q64 0 102 28t48 78l3 14q4 15 4 31z
M388 604.5q-7 6.5 -7 17.5q0 13 8 20.5t20 7.5q10 0 17.5 -6.5t7.5 -17.5q0 -12 -8.5 -20t-19.5 -8t-18 6.5zM643.5 605q-7.5 7 -7.5 18q0 12 8.5 19.5t19.5 7.5t18 -6t7 -16q0 -13 -8 -21.5t-19 -8.5t-18.5 7z" />
    </font>
</defs>
</svg>
