<?xml version="1.0" standalone="no"?>
<!DOCTYPE svg PUBLIC "-//W3C//DTD SVG 1.1//EN" "http://www.w3.org/Graphics/SVG/1.1/DTD/svg11.dtd" >
<svg xmlns="http://www.w3.org/2000/svg" xmlns:xlink="http://www.w3.org/1999/xlink" version="1.1">
<metadata>
Created by FontForge 20170731 at Fri Jun  7 20:40:43 2019
 By Aleksey,,,
Copyright (c) 2019 by Lisa Fischbach, Jakob Runge and Nils Thomsen. All rights reserved.
</metadata>
<defs>
<font id="HalvarBreit-BlkSlanted" horiz-adv-x="554" >
  <font-face 
    font-family="Halvar Breit Blk"
    font-weight="900"
    font-style="oblique"
    font-stretch="expanded"
    units-per-em="1000"
    panose-1="0 0 10 5 0 0 0 0 0 0"
    ascent="800"
    descent="-200"
    x-height="506"
    cap-height="656"
    bbox="-336 -250 1495 979"
    underline-thickness="50"
    underline-position="-200"
    slope="-12"
    unicode-range="U+0020-FB02"
  />
<missing-glyph horiz-adv-x="436" 
d="M324 656h185l-513 -420l41 185zM105 656h185l-245 -200l41 185zM522 641l-41 -185l-534 -440l41 185zM432 236l-286 -236h-186l513 421zM383 16l-18 -16h-185l244 201z" />
    <glyph glyph-name=".notdef" horiz-adv-x="436" 
d="M324 656h185l-513 -420l41 185zM105 656h185l-245 -200l41 185zM522 641l-41 -185l-534 -440l41 185zM432 236l-286 -236h-186l513 421zM383 16l-18 -16h-185l244 201z" />
    <glyph glyph-name=".null" horiz-adv-x="0" 
 />
    <glyph glyph-name="nonmarkingreturn" horiz-adv-x="333" 
 />
    <glyph glyph-name="space" unicode=" " horiz-adv-x="400" 
 />
    <glyph glyph-name="exclam" unicode="!" horiz-adv-x="352" 
d="M363 656l-102 -413h-184l81 413h205zM61.5 14.5q-30.5 27.5 -30.5 73.5q0 52 34 84t82 32q47 0 78 -26.5t31 -72.5q0 -54 -34 -86t-84 -32q-46 0 -76.5 27.5z" />
    <glyph glyph-name="quotedbl" unicode="&#x22;" horiz-adv-x="573" 
d="M354 696l-75 -313h-175l63 313h187zM603 696l-75 -313h-175l63 313h187z" />
    <glyph glyph-name="numbersign" unicode="#" horiz-adv-x="844" 
d="M708 391l-36 -126h112l-38 -175h-123l-26 -90h-195l25 90h-103l-25 -90h-196l26 90h-113l38 175h124l36 126h-121l39 176h132l25 89h196l-26 -89h103l26 89h195l-25 -89h104l-39 -176h-115zM481 260l39 136h-114l-39 -136h114z" />
    <glyph glyph-name="dollar" unicode="$" horiz-adv-x="816" 
d="M737.5 573.5q49.5 -40.5 49.5 -104.5q0 -20 -4 -39l-1 -7h-197l2 7q1 4 1 11q0 28 -33.5 40.5t-106.5 12.5q-62 0 -93 -8.5t-35 -26.5l-1 -6q-8 -29 58 -36l171 -20q98 -11 150.5 -50t52.5 -99q0 -14 -3 -31l-2 -10q-14 -76 -83 -123.5t-186 -61.5l-19 -82h-221l19 86
q-101 16 -152.5 59.5t-51.5 112.5q0 22 4 42l2 7h198l-1 -7q-2 -10 -2 -15q0 -63 145 -63q67 0 103.5 11.5t40.5 33.5l1 6q3 17 -9.5 26t-43.5 13l-177 20q-97 11 -147.5 49t-50.5 100q0 19 4 36l2 10q13 70 76.5 112.5t173.5 54.5l19 83h221l-19 -87q96 -16 145.5 -56.5z
" />
    <glyph glyph-name="percent" unicode="%" horiz-adv-x="970" 
d="M122 377.5q-54 38.5 -54 101.5q0 10 4 32l4 16q12 65 66 101t140 36q90 0 143 -38t53 -101q0 -18 -4 -34l-4 -15q-12 -65 -65.5 -101t-138.5 -36q-90 0 -144 38.5zM305.5 467q14.5 10 17.5 27l1 10q3 19 -10 31t-36 12t-37.5 -10t-17.5 -28l-1 -10q-3 -18 10.5 -30
t36.5 -12q22 0 36.5 10zM581 31.5q-54 38.5 -54 101.5q0 10 4 32l4 16q12 65 66 101t140 36q90 0 143 -38t53 -101q0 -18 -4 -34l-4 -15q-12 -65 -65.5 -101t-138.5 -36q-90 0 -144 38.5zM764.5 121q14.5 10 17.5 27l1 10q3 19 -10 31t-36 12t-37.5 -10t-17.5 -28l-1 -10
q-3 -18 10.5 -30t36.5 -12q22 0 36.5 10zM745 656h196l-7 -30l-673 -626h-196l6 27z" />
    <glyph glyph-name="ampersand" unicode="&#x26;" horiz-adv-x="915" 
d="M928 342l-231 -184l162 -131l-6 -27h-216l-71 60q-56 -34 -118.5 -53.5t-139.5 -19.5q-85 0 -149.5 23t-99.5 64t-35 94q0 16 5 39l2 9q12 58 52.5 96.5t114.5 61.5q-50 53 -50 106q0 18 4 33l2 9q13 68 85 108t183 40q82 0 143.5 -20.5t95 -57.5t33.5 -86q0 -18 -4 -34
l-2 -9q-18 -97 -148 -139l-33 -11l65 -53l136 108h226zM342.5 455.5q7.5 -13.5 27.5 -31.5l19 -15l28 9q41 13 59 24.5t21 25.5l1 7q5 22 -17.5 35.5t-65.5 13.5q-33 0 -53 -9t-23 -26l-1 -7q-3 -13 4.5 -26.5zM442 164l-126 107l-20 -6q-61 -18 -68 -55l-2 -9
q-2 -10 -2 -13q0 -26 24.5 -40.5t68.5 -14.5q63 0 125 31z" />
    <glyph glyph-name="quotesingle" unicode="'" horiz-adv-x="334" 
d="M364 696l-75 -313h-185l63 313h197z" />
    <glyph glyph-name="parenleft" unicode="(" horiz-adv-x="466" 
d="M199.5 -38.5q-70.5 36.5 -109.5 100t-39 141.5q0 35 7 67l37 172q32 149 143.5 222.5t304.5 68.5l-37 -168q-95 2 -150.5 -34.5t-72.5 -112.5l-36 -161q-5 -23 -5 -40q0 -58 41.5 -91.5t115.5 -32.5l-36 -169q-93 1 -163.5 37.5z" />
    <glyph glyph-name="parenright" unicode=")" horiz-adv-x="466" 
d="M301 695.5q71 -36.5 110 -100t39 -141.5q0 -34 -7 -66l-37 -172q-64 -302 -449 -292l37 169q96 -2 151 34t72 112l36 161q5 23 5 40q0 59 -41.5 92.5t-115.5 32.5l37 168q92 -1 163 -37.5z" />
    <glyph glyph-name="asterisk" unicode="*" horiz-adv-x="640" 
d="M526 482l137 -47l-70 -131l-167 100l-13 -99l-163 13l29 92l-183 -57l-28 145l152 17l-135 46l69 131l166 -100l13 101l164 -13l-29 -93l182 57l31 -145z" />
    <glyph glyph-name="plus" unicode="+" horiz-adv-x="816" 
d="M712 239h-215l-44 -198h-184l44 198h-215l39 178h216l44 198h184l-44 -198h214z" />
    <glyph glyph-name="comma" unicode="," horiz-adv-x="334" 
d="M286 170l-6 -27l-170 -286h-179l139 313h216z" />
    <glyph glyph-name="hyphen" unicode="-" horiz-adv-x="442" 
d="M417 365l-38 -173h-342l38 173h342z" />
    <glyph glyph-name="period" unicode="." horiz-adv-x="334" 
d="M50 15q-30 28 -30 72q0 52 33 84.5t84 32.5q48 0 77.5 -27.5t29.5 -71.5q0 -52 -32.5 -85t-83.5 -33q-48 0 -78 28z" />
    <glyph glyph-name="slash" unicode="/" horiz-adv-x="703" 
d="M556 727h216l-7 -30l-584 -768h-217l7 30z" />
    <glyph glyph-name="zero" unicode="0" horiz-adv-x="817" 
d="M215 22.5q-80 35.5 -123.5 98.5t-43.5 143q0 38 8 70l10 45q29 135 132.5 212.5t258.5 77.5q104 0 183.5 -35t122.5 -98t43 -143q0 -39 -8 -71l-10 -45q-29 -137 -131 -213.5t-258 -76.5q-104 0 -184 35.5zM590 290l11 50q4 16 4 34q0 52 -41 82.5t-114 30.5
q-77 0 -126 -32t-61 -90l-11 -50q-5 -22 -5 -37q0 -51 41 -79.5t118 -28.5q159 0 184 120z" />
    <glyph glyph-name="one" unicode="1" horiz-adv-x="519" 
d="M373 0h-204l95 427q-34 -9 -75 -9h-100l39 182h97q42 0 62 12.5t28 43.5h204z" />
    <glyph glyph-name="two" unicode="2" horiz-adv-x="755" 
d="M605.5 645.5q68.5 -23.5 105.5 -67t37 -100.5q0 -12 -4 -36l-3 -13q-11 -60 -65.5 -112.5t-162.5 -104.5l-123 -59h300l-33 -153h-653l34 153l388 190q62 31 85.5 49.5t27.5 41.5l2 8q1 4 1 10q0 27 -28.5 42.5t-79.5 15.5q-119 0 -141 -88l-4 -20h-196l4 21
q28 125 113 185.5t234 60.5q93 0 161.5 -23.5z" />
    <glyph glyph-name="three" unicode="3" horiz-adv-x="790" 
d="M786 491l-215 -107q81 -16 124 -57t43 -101q0 -20 -4 -37l-2 -10q-19 -98 -105.5 -145t-251.5 -47q-163 0 -250 51.5t-87 147.5q0 19 3 38v3h199l-1 -3q-1 -4 -1 -11q0 -62 142 -62q74 0 112 12.5t44 39.5l2 10q9 46 -139 46h-137l28 128l195 104h-370l36 165h671z" />
    <glyph glyph-name="four" unicode="4" horiz-adv-x="898" 
d="M814 118h-121l-26 -118h-204l26 118h-465l38 175q80 96 136 183t98 180h214l-6 -30q-72 -160 -204 -333h228l56 252h204l-56 -252h120z" />
    <glyph glyph-name="five" unicode="5" horiz-adv-x="801" 
d="M297 481l-21 -77q73 35 182 35q90 0 156.5 -24t102.5 -68t36 -102q0 -21 -4 -38l-2 -10q-19 -106 -110 -158t-255 -52q-162 0 -250 48.5t-88 136.5q0 16 3 34l1 5h199l-1 -5q-6 -26 31 -40.5t112 -14.5q76 0 114 14t44 44l2 10q1 3 1 8q0 26 -38 40.5t-107 14.5
q-63 0 -101.5 -9t-48.5 -25h-198l111 408h641l-38 -175h-474z" />
    <glyph glyph-name="six" unicode="6" horiz-adv-x="786" 
d="M644.5 645q74.5 -24 114 -68.5t39.5 -105.5q0 -21 -2 -31v-3h-198v4q4 30 -34.5 48t-107.5 18q-81 0 -128 -28.5t-59 -84.5l-2 -10q73 38 190 38q141 0 219.5 -48t78.5 -132q0 -22 -4 -39l-2 -8q-40 -208 -367 -208q-105 0 -182.5 30t-118.5 85t-41 127q0 28 8 65l28 124
q57 251 391 251q103 0 177.5 -24zM554 224q0 25 -33.5 37.5t-102.5 12.5q-118 0 -182 -35q-2 -89 159 -89q145 0 156 58l2 6q1 4 1 10z" />
    <glyph glyph-name="seven" unicode="7" horiz-adv-x="757" 
d="M797 656l-38 -175q-155 -127 -250.5 -244.5t-119.5 -211.5l-6 -25h-236l5 25q30 112 116 223.5t239 232.5h-419l38 175h671z" />
    <glyph glyph-name="eight" unicode="8" horiz-adv-x="853" 
d="M662.5 647.5q75.5 -21.5 115.5 -62t40 -94.5q0 -18 -4 -34l-2 -10q-12 -71 -94 -114q65 -44 65 -114q0 -20 -4 -37l-2 -10q-14 -92 -108 -138.5t-263 -46.5q-179 0 -271.5 49t-92.5 142q0 18 5 45l2 10q16 91 129 131q-45 39 -45 95q0 14 3 29l2 10q15 82 105 126.5
t240 44.5q104 0 179.5 -21.5zM318 448q0 -25 33 -34.5t115 -9.5q86 0 121 11t39 39l1 3q1 3 1 10q0 26 -33.5 36.5t-117.5 10.5t-118.5 -11.5t-39.5 -40.5v-3q-1 -4 -1 -11zM586 206q0 26 -38 37t-129 11t-130.5 -10.5t-44.5 -36.5v-3q-1 -3 -1 -10q0 -27 37.5 -38
t129.5 -11t131 11t43 38l1 3q1 3 1 9z" />
    <glyph glyph-name="nine" unicode="9" horiz-adv-x="786" 
d="M620.5 640q77.5 -30 118.5 -85t41 -127q0 -28 -8 -65l-28 -124q-57 -252 -391 -252q-102 0 -177 24t-114.5 69t-39.5 106q0 21 2 31v3h198v-4q-4 -30 34.5 -48t107.5 -18q81 0 128 28.5t59 84.5l2 10q-73 -38 -190 -38q-141 0 -219.5 48t-78.5 132q0 22 4 39l2 8
q40 208 367 208q105 0 182.5 -30zM266 433q0 -25 33.5 -37.5t102.5 -12.5q118 0 182 35q2 89 -159 89q-145 0 -156 -58l-2 -6q-1 -4 -1 -10z" />
    <glyph glyph-name="colon" unicode=":" horiz-adv-x="374" 
d="M71 15q-30 28 -30 72q0 52 33 84.5t84 32.5q48 0 77.5 -27.5t29.5 -71.5q0 -52 -32.5 -85t-83.5 -33q-48 0 -78 28zM134 302q-30 28 -30 72q0 52 33 84.5t84 32.5q48 0 77.5 -27.5t29.5 -71.5q0 -52 -32.5 -85t-83.5 -33q-48 0 -78 28z" />
    <glyph glyph-name="semicolon" unicode=";" horiz-adv-x="374" 
d="M296 170l-6 -27l-170 -286h-179l139 313h216zM135 302q-30 28 -30 72q0 52 33 84.5t84 32.5q48 0 77.5 -27.5t29.5 -71.5q0 -52 -32.5 -85t-83.5 -33q-48 0 -78 28z" />
    <glyph glyph-name="less" unicode="&#x3c;" horiz-adv-x="816" 
d="M742 435l-402 -119l349 -120l-34 -167h-27l-536 183l52 232l617 182h27z" />
    <glyph glyph-name="equal" unicode="=" horiz-adv-x="816" 
d="M769 538l-40 -180h-594l40 180h594zM716 298l-40 -180h-594l40 180h594z" />
    <glyph glyph-name="greater" unicode="&#x3e;" horiz-adv-x="816" 
d="M758 444l-52 -232l-618 -183h-27l46 191l402 120l-349 119l34 167h27z" />
    <glyph glyph-name="question" unicode="?" horiz-adv-x="632" 
d="M263.5 325.5q28.5 28.5 98.5 60.5q55 25 73.5 37.5t21.5 27.5l1 8q5 23 -17 36.5t-63 13.5q-48 0 -80 -18t-39 -48l-4 -19h-188l4 19q24 111 106.5 168.5t218.5 57.5q75 0 134 -23t92 -62.5t33 -89.5q0 -18 -4 -33l-4 -16q-8 -41 -40.5 -73.5t-93.5 -59.5
q-40 -17 -64.5 -29t-31 -18.5t-8.5 -16.5l-1 -5h-184l1 5q10 49 38.5 77.5zM208 15.5q-30 28.5 -30 72.5q0 51 33 83.5t84 32.5q48 0 78 -28t30 -72q0 -52 -32.5 -84.5t-84.5 -32.5q-48 0 -78 28.5z" />
    <glyph glyph-name="at" unicode="@" horiz-adv-x="1030" 
d="M800.5 629.5q99.5 -39.5 152 -112t52.5 -170.5q0 -43 -11 -93l-8 -36q-19 -91 -78.5 -139.5t-149.5 -48.5q-49 0 -85.5 14.5t-58.5 40.5q-64 -55 -163 -55q-63 0 -111 24t-73.5 66t-25.5 96q0 26 8 60l3 10q22 94 88 146.5t164 52.5q93 0 146 -48l11 33h149
q-36 36 -96.5 54.5t-142.5 18.5q-159 0 -253 -64.5t-120 -189.5l-6 -28q-8 -35 -8 -72q0 -96 63 -151.5t178 -55.5h184l-27 -123h-174q-110 0 -195 42.5t-132 117t-47 167.5q0 47 11 90l8 35q37 171 166 264.5t345 93.5q137 0 236.5 -39.5zM857 348q0 73 -45 120l-61 -276
l-2 -12q0 -27 32 -27q18 0 31.5 14.5t19.5 40.5l18 80q7 29 7 60zM405 239q0 -28 23 -44t65 -16q30 0 57 9t45 24l19 91q-13 16 -38.5 25t-58.5 9q-47 0 -74 -17.5t-34 -54.5l-2 -10q-2 -12 -2 -16z" />
    <glyph glyph-name="A" unicode="A" horiz-adv-x="770" 
d="M727 30l-7 -30h-190l-19 110h-282l-69 -110h-210l6 30l412 626h226zM483 272l-34 192l-119 -192h153z" />
    <glyph glyph-name="B" unicode="B" horiz-adv-x="785" 
d="M713 614.5q59 -41.5 59 -113.5q0 -21 -4 -40l-2 -10q-15 -82 -93 -126q57 -42 57 -109q0 -11 -4 -35l-2 -10q-33 -168 -284 -170l-229 -1h-205l146 656h396q106 0 165 -41.5zM320 488l-19 -84h204q53 0 61 37l2 10q1 3 1 8q0 29 -46 29h-203zM532 226q0 30 -46 30h-218
l-20 -88h220q52 0 61 39l2 10q1 3 1 9z" />
    <glyph glyph-name="C" unicode="C" horiz-adv-x="874" 
d="M231 23.5q-87 36.5 -134 103.5t-47 154q0 34 7 68l1 5q29 149 141 232t284 83q111 0 198.5 -34.5t136 -95t48.5 -137.5q0 -16 -3 -34l-1 -7h-205l1 7q1 5 1 15q0 48 -48 76t-134 28q-188 0 -215 -143l-3 -11q-4 -19 -4 -39q0 -60 47 -92t138 -32q86 0 138.5 25t61.5 71
l2 7h209l-1 -7q-29 -132 -138.5 -205.5t-277.5 -73.5q-116 0 -203 36.5z" />
    <glyph glyph-name="D" unicode="D" horiz-adv-x="826" 
d="M478 656q163 0 249 -68t86 -194q0 -35 -8 -81l-2 -7q-20 -109 -70 -176t-137 -98.5t-219 -31.5h-371l146 656h326zM539 209q47 33 62 110l3 12q4 19 4 39q0 111 -155 111h-134l-70 -305h149q94 0 141 33z" />
    <glyph glyph-name="E" unicode="E" horiz-adv-x="723" 
d="M762 656l-37 -167h-405l-18 -78h385l-36 -165h-385l-19 -78h405l-36 -168h-610l146 656h610z" />
    <glyph glyph-name="F" unicode="F" horiz-adv-x="704" 
d="M762 656l-38 -175h-405l-20 -83h385l-38 -176h-385l-50 -222h-205l146 656h610z" />
    <glyph glyph-name="G" unicode="G" horiz-adv-x="879" 
d="M705.5 642.5q88.5 -26.5 136.5 -75t48 -111.5q0 -8 -2 -26l-1 -3h-209l1 3q3 18 -19 33t-63 23.5t-92 8.5q-108 0 -168.5 -38.5t-75.5 -116.5l-2 -10q-5 -25 -5 -43q0 -124 192 -124q60 0 112 10.5t89 29.5l5 24h-311l31 144h503l-82 -371h-172l2 36q-46 -27 -92 -38
t-109 -11q-112 0 -196.5 37t-130.5 103.5t-46 152.5q0 26 7 66l1 5q31 154 144.5 236t298.5 82q117 0 205.5 -26.5z" />
    <glyph glyph-name="H" unicode="H" horiz-adv-x="819" 
d="M357 656l-54 -240h285l54 240h205l-146 -656h-205l54 240h-285l-54 -240h-205l146 656h205z" />
    <glyph glyph-name="I" unicode="I" horiz-adv-x="299" 
d="M342 656l-146 -656h-206l147 656h205z" />
    <glyph glyph-name="J" unicode="J" horiz-adv-x="749" 
d="M186.5 19.5q-71.5 32.5 -111 91t-39.5 134.5q0 29 6 60l6 28h203l-6 -28q-5 -23 -5 -38q0 -47 30 -72t86 -25q63 0 96 29.5t50 99.5l43 182h-269l38 175h474l-96 -388q-34 -139 -117.5 -210t-221.5 -71q-95 0 -166.5 32.5z" />
    <glyph glyph-name="K" unicode="K" horiz-adv-x="813" 
d="M868 626l-331 -267l177 -329l-6 -30h-201l-133 254l-130 -104l-33 -150h-205l146 656h205l-60 -268l333 268h245z" />
    <glyph glyph-name="L" unicode="L" horiz-adv-x="687" 
d="M357 656l-108 -480h405l-38 -176h-610l146 656h205z" />
    <glyph glyph-name="M" unicode="M" horiz-adv-x="1029" 
d="M911 0h-202l79 357l-230 -357h-201l-70 355l-79 -355h-202l146 656h259l86 -431l272 431h288z" />
    <glyph glyph-name="N" unicode="N" horiz-adv-x="819" 
d="M847 656l-146 -656h-186l-231 387l-86 -387h-192l146 656h186l231 -387l86 387h192z" />
    <glyph glyph-name="O" unicode="O" horiz-adv-x="877" 
d="M229 24q-86 37 -133 104t-47 153q0 34 7 66l1 5q30 151 141 234t284 83q114 0 200 -37t132.5 -103t46.5 -152q0 -36 -7 -68l-1 -5q-29 -152 -139.5 -234.5t-284.5 -82.5q-114 0 -200 37zM649 313l2 11q4 17 4 36q0 59 -48 93t-136 34q-177 0 -210 -145l-2 -11
q-5 -22 -5 -38q0 -58 47.5 -90.5t135.5 -32.5q182 0 212 143z" />
    <glyph glyph-name="P" unicode="P" horiz-adv-x="787" 
d="M562 656q71 0 123.5 -23.5t81 -66.5t28.5 -98q0 -24 -4 -44l-2 -10q-21 -105 -95.5 -158t-200.5 -53h-237l-45 -203h-205l146 656h410zM584 424l2 10q1 5 1 13q0 40 -55 40h-212l-27 -114h216q65 0 75 51z" />
    <glyph glyph-name="Q" unicode="Q" horiz-adv-x="877" 
d="M682 632q86 -37 132.5 -103t46.5 -152q0 -36 -7 -68l-1 -5q-23 -120 -98 -197.5t-194 -105.5l42 -114l-6 -30h-193l-48 134q-94 11 -163 50.5t-106.5 101t-37.5 138.5q0 34 7 66l1 5q30 151 141 234t284 83q114 0 200 -37zM655 360q0 59 -48 93t-136 34q-177 0 -210 -145
l-2 -11q-5 -22 -5 -38q0 -58 47.5 -90.5t135.5 -32.5q182 0 212 143l2 11q4 17 4 36z" />
    <glyph glyph-name="R" unicode="R" horiz-adv-x="806" 
d="M685 632q53 -24 82 -67.5t29 -99.5q0 -20 -5 -45l-2 -10q-16 -82 -72.5 -126t-159.5 -54l139 -200l-6 -30h-205l-150 228h-73l-51 -228h-205l146 656h409q71 0 124 -24zM590 446q0 20 -15 30.5t-43 10.5h-212l-27 -114h219q64 0 74 49l2 10q2 10 2 14z" />
    <glyph glyph-name="S" unicode="S" horiz-adv-x="771" 
d="M116.5 37q-80.5 50 -80.5 142q0 19 5 46l2 10h199l-2 -10q-1 -4 -1 -12q0 -29 34 -45.5t97 -16.5q66 0 99.5 11.5t38.5 34.5l1 6q2 15 -10.5 24.5t-43.5 14.5l-166 28q-91 16 -138 56.5t-47 103.5q0 20 4 39l2 10q19 95 103.5 142.5t237.5 47.5q148 0 227.5 -48
t79.5 -137q0 -22 -4 -41l-1 -8h-197l1 8q1 3 1 10q0 52 -123 52q-120 0 -128 -39l-1 -6q-2 -12 10.5 -20t42.5 -13l167 -28q94 -16 142 -57t48 -105q0 -17 -5 -42l-2 -10q-38 -198 -362 -198q-150 0 -230.5 50z" />
    <glyph glyph-name="T" unicode="T" horiz-adv-x="691" 
d="M66 481l39 175h661l-39 -175h-223l-108 -481h-205l108 481h-233z" />
    <glyph glyph-name="U" unicode="U" horiz-adv-x="793" 
d="M213.5 20.5q-71.5 33.5 -109.5 94t-38 139.5q0 41 8 76l70 326h205l-78 -345q-5 -23 -5 -40q0 -48 31.5 -74.5t91.5 -26.5q65 0 103.5 32t53.5 98l82 356h205l-92 -375q-35 -144 -125 -219t-235 -75q-96 0 -167.5 33.5z" />
    <glyph glyph-name="V" unicode="V" horiz-adv-x="770" 
d="M853 656l-6 -30l-407 -626h-236l-127 626l6 30h196l76 -446l274 446h224z" />
    <glyph glyph-name="W" unicode="W" horiz-adv-x="1175" 
d="M1258 656l-6 -30l-351 -626h-246l-41 396l-216 -396h-248l-73 626l6 30h197l40 -417l231 417h222l44 -419l224 419h217z" />
    <glyph glyph-name="X" unicode="X" horiz-adv-x="819" 
d="M874 626l-315 -306l182 -290l-6 -30h-212l-115 193l-189 -193h-248l7 30l315 306l-182 290l7 30h211l115 -193l190 193h247z" />
    <glyph glyph-name="Y" unicode="Y" horiz-adv-x="726" 
d="M811 626l-354 -375l-56 -251h-205l59 263l-192 363l7 30h195l119 -238l215 238h219z" />
    <glyph glyph-name="Z" unicode="Z" horiz-adv-x="696" 
d="M709 477l-409 -302h341l-38 -175h-623l41 179l409 302h-341l38 175h622z" />
    <glyph glyph-name="bracketleft" unicode="[" horiz-adv-x="457" 
d="M532 727l-36 -167h-190l-105 -463h190l-37 -168h-363l179 798h362z" />
    <glyph glyph-name="backslash" unicode="\" horiz-adv-x="703" 
d="M143 727h183l275 -768l-7 -30h-183l-275 768z" />
    <glyph glyph-name="bracketright" unicode="]" horiz-adv-x="457" 
d="M-7 97h190l105 463h-189l36 167h363l-178 -798h-363z" />
    <glyph glyph-name="asciicircum" unicode="^" horiz-adv-x="557" 
d="M580 399l-6 -27h-186l-48 104l-91 -104h-212l6 27l239 257h172z" />
    <glyph glyph-name="underscore" unicode="_" horiz-adv-x="564" 
d="M452 -25l-35 -158h-464l35 158h464z" />
    <glyph glyph-name="grave" unicode="`" horiz-adv-x="600" 
d="M186 755l438 -60l-31 -146l-438 60z" />
    <glyph glyph-name="a" unicode="a" horiz-adv-x="716" 
d="M688 166l-36 -166h-91q-81 0 -121 48q-44 -30 -100.5 -45.5t-121.5 -15.5q-92 0 -144 36t-52 99q0 20 4 37q12 57 58 87t135 39l229 23q1 28 -21.5 42.5t-66.5 14.5q-42 0 -68.5 -12.5t-29.5 -32.5l-1 -3h-200l1 3q16 94 98 146.5t212 52.5q129 0 202.5 -51t73.5 -138
q0 -22 -6 -48l-20 -92q-1 -3 -1 -8q0 -16 25 -16h42zM265 118q39 0 82.5 14t72.5 34l7 35l-168 -18q-42 -4 -42 -37q0 -28 48 -28z" />
    <glyph glyph-name="b" unicode="b" horiz-adv-x="710" 
d="M567.5 490.5q54.5 -28.5 84 -79.5t29.5 -116q0 -26 -4 -49l-1 -8q-20 -118 -98 -184.5t-199 -66.5q-112 0 -174 60l-16 -47h-185l155 696h198l-47 -212q59 35 132 35q71 0 125.5 -28.5zM479 271q0 35 -26.5 55.5t-73.5 20.5q-32 0 -59.5 -8.5t-46.5 -24.5l-26 -116
q17 -18 45.5 -28t63.5 -10q52 0 82.5 22.5t37.5 65.5l2 7q1 5 1 16z" />
    <glyph glyph-name="c" unicode="c" horiz-adv-x="670" 
d="M169.5 16q-66.5 29 -102.5 81.5t-36 121.5q0 22 5 52l2 8q20 116 102 178t215 62q86 0 153 -26.5t104.5 -74t37.5 -106.5q0 -20 -2 -30l-1 -6h-202l1 6q1 3 1 10q0 25 -26.5 40.5t-70.5 15.5q-100 0 -116 -86l-2 -7q-2 -14 -2 -20q0 -36 27.5 -56t77.5 -20
q43 0 68.5 13.5t29.5 39.5l1 6h204l-1 -6q-18 -107 -99.5 -166t-212.5 -59q-89 0 -155.5 29z" />
    <glyph glyph-name="d" unicode="d" horiz-adv-x="710" 
d="M748 696l-155 -696h-171v37q-65 -50 -155 -50q-72 0 -126 29t-83.5 81t-29.5 117q0 26 4 47l2 9q20 118 97 183.5t199 65.5q105 0 168 -54l52 231h198zM230 235q0 -35 27 -55t74 -20q31 0 59 9t48 25l26 115q-16 18 -45.5 28t-65.5 10q-52 0 -82 -22t-38 -65l-1 -8
q-2 -12 -2 -17z" />
    <glyph glyph-name="e" unicode="e" horiz-adv-x="671" 
d="M511.5 492q65.5 -27 100.5 -75.5t35 -113.5q0 -20 -5 -48l-11 -50h-416q1 -34 27.5 -52.5t76.5 -18.5q81 0 103 34h203q-26 -88 -106 -134.5t-205 -46.5q-86 0 -150.5 29t-99.5 80.5t-35 118.5q0 22 5 50l4 18q20 113 103.5 174.5t217.5 61.5q87 0 152.5 -27zM241 318
h211q-5 29 -30.5 44.5t-68.5 15.5q-83 0 -112 -60z" />
    <glyph glyph-name="f" unicode="f" horiz-adv-x="500" 
d="M374 506h190l-35 -165h-192l-77 -341h-198l77 341h-135l35 165h137l4 16q20 88 74 131t146 43h167l-35 -158h-123q-27 0 -33 -22z" />
    <glyph glyph-name="g" unicode="g" horiz-adv-x="709" 
d="M705 506l-106 -457q-19 -83 -59 -133.5t-107 -75t-169 -23.5q-137 0 -211 46.5t-74 131.5q0 14 1 21v5h199l-1 -5q-2 -19 25.5 -31.5t72.5 -12.5q58 0 88.5 19t39.5 61l3 15q-58 -31 -135 -31q-112 0 -175.5 53.5t-63.5 146.5q0 24 4 45l1 7q18 111 94 171t200 60
q114 0 177 -57l16 44h180zM444 225l22 94q-17 17 -45 26t-63 9q-108 0 -120 -74l-1 -8q-1 -5 -1 -13q0 -62 102 -62q66 0 106 28z" />
    <glyph glyph-name="h" unicode="h" horiz-adv-x="711" 
d="M606 463q59 -56 59 -151q0 -36 -9 -75l-52 -237h-198l56 246q4 22 4 30q0 34 -22.5 52.5t-64.5 18.5q-33 0 -61.5 -13.5t-49.5 -37.5l-66 -296h-198l155 696h198l-47 -212q61 35 133 35q104 0 163 -56z" />
    <glyph glyph-name="i" unicode="i" horiz-adv-x="286" 
d="M299 506l-113 -506h-199l114 506h198zM150.5 571.5q-30.5 26.5 -30.5 71.5q0 52 33.5 82.5t82.5 30.5q47 0 77.5 -26t30.5 -71q0 -52 -34 -83t-83 -31q-46 0 -76.5 26.5z" />
    <glyph glyph-name="j" unicode="j" horiz-adv-x="286" 
d="M-55 -5q40 0 48 34l107 477h198l-114 -505q-18 -81 -76.5 -126t-147.5 -45h-108l35 165h58zM151.5 571.5q-30.5 26.5 -30.5 71.5q0 52 33.5 82.5t82.5 30.5q47 0 77.5 -26t30.5 -71q0 -52 -34 -83t-83 -31q-46 0 -76.5 26.5z" />
    <glyph glyph-name="k" unicode="k" horiz-adv-x="681" 
d="M725 479l-230 -195l139 -257l-6 -27h-194l-91 172l-124 -96l-17 -76h-198l155 696h198l-85 -382l230 192h229z" />
    <glyph glyph-name="l" unicode="l" horiz-adv-x="319" 
d="M69.5 36.5q-43.5 36.5 -43.5 98.5q0 17 5 42l112 519h198l-113 -503q-1 -3 -1 -8q0 -19 27 -19h40l-36 -166h-68q-77 0 -120.5 36.5z" />
    <glyph glyph-name="m" unicode="m" horiz-adv-x="1108" 
d="M999.5 464q62.5 -55 62.5 -152q0 -36 -9 -75l-52 -237h-198l56 246q4 22 4 30q0 34 -20.5 52.5t-58.5 18.5q-37 0 -69.5 -16.5t-54.5 -46.5q-1 -15 -7 -47l-52 -237h-198l56 246q4 22 4 30q0 34 -20.5 52.5t-57.5 18.5q-35 0 -65 -14t-53 -40l-65 -293h-198l113 506h175
l-1 -35q68 48 153 48q60 0 106 -20.5t73 -57.5q80 78 201 78q113 0 175.5 -55z" />
    <glyph glyph-name="n" unicode="n" horiz-adv-x="711" 
d="M605 464q59 -56 59 -152q0 -40 -8 -75l-51 -237h-199l56 246q4 22 4 30q0 34 -22.5 52.5t-64.5 18.5q-33 0 -61.5 -13.5t-49.5 -37.5l-66 -296h-198l113 506h175l-1 -35q68 48 152 48q103 1 162 -55z" />
    <glyph glyph-name="o" unicode="o" horiz-adv-x="685" 
d="M171 16q-67 29 -103 81.5t-36 122.5q0 27 4 50l2 9q17 114 101 177t220 63q91 0 157.5 -28.5t101.5 -81t35 -123.5q0 -23 -5 -53l-1 -9q-18 -113 -100.5 -175t-217.5 -62q-91 0 -158 29zM413 180q29 21 37 62l1 4q2 14 2 21q0 38 -27.5 59.5t-75.5 21.5t-78 -22.5
t-37 -64.5l-1 -5q-2 -14 -2 -20q0 -35 28 -56t76 -21t77 21z" />
    <glyph glyph-name="p" unicode="p" horiz-adv-x="710" 
d="M567.5 490.5q54.5 -28.5 84 -79.5t29.5 -116q0 -26 -4 -49l-2 -9q-19 -117 -97 -183.5t-199 -66.5q-105 0 -167 53l-47 -210h-199l151 676h175l-1 -35q66 48 151 48q71 0 125.5 -28.5zM479 271q0 35 -26.5 55.5t-73.5 20.5q-32 0 -59.5 -8.5t-46.5 -24.5l-26 -116
q16 -17 45 -27.5t64 -10.5q52 0 82.5 22.5t37.5 65.5l2 7q1 5 1 16z" />
    <glyph glyph-name="q" unicode="q" horiz-adv-x="710" 
d="M706 506l-151 -676h-198l43 192q-57 -35 -133 -35q-72 0 -126 29t-83.5 81t-29.5 117q0 26 4 47l2 9q20 118 97 183.5t199 65.5q111 0 175 -61l16 48h185zM390.5 169q28.5 9 47.5 25l26 114q-16 18 -45.5 28.5t-65.5 10.5q-52 0 -82 -22t-38 -65l-1 -8q-2 -12 -2 -17
q0 -35 27 -55t74 -20q31 0 59.5 9z" />
    <glyph glyph-name="r" unicode="r" horiz-adv-x="473" 
d="M515 506l-36 -165h-111q-78 0 -113 -31l-69 -310h-199l114 506h175l-1 -37q62 37 135 37h105z" />
    <glyph glyph-name="s" unicode="s" horiz-adv-x="688" 
d="M95.5 27.5q-75.5 40.5 -75.5 115.5q0 18 2 27v3h179v-3q-5 -24 25.5 -35.5t100.5 -11.5q105 0 112 24l1 4q2 10 -6.5 15t-33.5 8l-137 15q-93 10 -141.5 44.5t-48.5 88.5q0 13 3 28l2 10q14 78 94.5 118.5t220.5 40.5q135 0 205 -39.5t70 -114.5q0 -19 -2 -29l-1 -3h-178
l1 3q4 24 -24.5 35.5t-90.5 11.5q-109 0 -115 -23l-1 -4q-5 -17 39 -22l140 -16q96 -10 144.5 -44.5t48.5 -90.5q0 -13 -3 -27l-2 -10q-32 -159 -312 -159q-141 0 -216.5 40.5z" />
    <glyph glyph-name="t" unicode="t" horiz-adv-x="520" 
d="M317 201q-1 -4 -1 -11q0 -24 33 -24h116l-35 -166h-141q-80 0 -127 41t-47 108q0 17 5 42l32 150h-149l36 165h109q25 0 38 10.5t18 35.5l19 87h193l-30 -133h186l-36 -165h-187z" />
    <glyph glyph-name="u" unicode="u" horiz-adv-x="711" 
d="M707 506l-113 -506h-175l1 35q-67 -48 -152 -48q-103 -1 -162.5 55.5t-59.5 152.5q0 35 9 75l52 236h198l-56 -245q-4 -22 -4 -30q0 -34 22.5 -52.5t64.5 -18.5q34 0 62.5 13t48.5 37l66 296h198z" />
    <glyph glyph-name="v" unicode="v" horiz-adv-x="697" 
d="M751 506l-6 -27l-329 -479h-256l-116 479l6 27h198l68 -317l211 317h224z" />
    <glyph glyph-name="w" unicode="w" horiz-adv-x="1067" 
d="M1121 506l-6 -27l-289 -479h-257l-41 255l-152 -255h-256l-76 479l6 27h200l34 -309l187 309h207l49 -312l180 312h214z" />
    <glyph glyph-name="x" unicode="x" horiz-adv-x="656" 
d="M696 479l-239 -232l145 -220l-6 -27h-210l-76 133l-125 -133h-238l6 27l244 234l-141 218l6 27h209l74 -129l121 129h236z" />
    <glyph glyph-name="y" unicode="y" horiz-adv-x="697" 
d="M751 506l-6 -27l-371 -537q-40 -57 -91.5 -84.5t-136.5 -27.5h-170l36 165h147q7 0 21 2l-136 482l6 27h200l79 -307l200 307h222z" />
    <glyph glyph-name="z" unicode="z" horiz-adv-x="642" 
d="M605 342l-293 -179h253l-37 -163h-529l37 164l294 180h-254l36 162h529z" />
    <glyph glyph-name="braceleft" unicode="{" horiz-adv-x="544" 
d="M346.5 371.5q-28.5 -27.5 -81.5 -35.5q38 -10 57.5 -33.5t19.5 -60.5q0 -16 -5 -41l-16 -68q-1 -3 -1 -9q0 -12 9.5 -19t25.5 -7h123l-37 -169h-137q-55 0 -96.5 20t-64.5 55t-23 79q0 22 4 39l22 99q1 3 1 9q0 13 -9 20t-26 7h-66l38 172h68q40 0 48 34l20 91
q19 86 75.5 129.5t146.5 43.5h177l-36 -167h-125q-40 0 -49 -35l-20 -74q-14 -52 -42.5 -79.5z" />
    <glyph glyph-name="bar" unicode="|" horiz-adv-x="308" 
d="M346 727l-178 -798h-173l178 798h173z" />
    <glyph glyph-name="braceright" unicode="}" horiz-adv-x="544" 
d="M530 399l-38 -172h-67q-42 0 -49 -34l-20 -91q-19 -86 -75 -129.5t-147 -43.5h-177l36 168h125q40 0 49 35l20 73q14 52 42.5 79.5t82.5 35.5q-77 20 -77 95q0 17 5 40l16 69q1 3 1 8q0 13 -9.5 20t-26.5 7h-122l36 168h138q54 0 95.5 -20t64.5 -55t23 -79q0 -22 -4 -39
l-22 -99q-1 -3 -1 -9q0 -12 9.5 -19.5t25.5 -7.5h66z" />
    <glyph glyph-name="asciitilde" unicode="~" horiz-adv-x="816" 
d="M485 215.5q-35 6.5 -83 19.5q-50 13 -82.5 19.5t-67.5 6.5q-77 0 -159 -41l42 184q40 20 76.5 29t76.5 9q35 0 67.5 -6.5t80.5 -19.5q50 -14 84.5 -21t72.5 -7q84 0 162 39l-43 -184q-38 -18 -75 -26t-80 -8q-37 0 -72 6.5z" />
    <glyph glyph-name="uni00A0" unicode="&#xa0;" horiz-adv-x="400" 
 />
    <glyph glyph-name="exclamdown" unicode="&#xa1;" horiz-adv-x="352" 
d="M127.5 328.5q-30.5 26.5 -30.5 71.5q0 55 33 87t83 32q46 0 77 -27t31 -72q0 -53 -33.5 -85.5t-83.5 -32.5q-46 0 -76.5 26.5zM273 263l-86 -433h-205l107 433h184z" />
    <glyph glyph-name="cent" unicode="&#xa2;" horiz-adv-x="816" 
d="M720.5 512.5q54.5 -50.5 54.5 -122.5q0 -15 -3 -32l-1 -3h-202l1 3q5 29 -30 46t-97 17q-67 0 -103.5 -19t-43.5 -59l-3 -18q-2 -14 -2 -19q0 -70 127 -70q62 0 97.5 15t40.5 43v3h202v-3q-17 -99 -92 -158t-200 -71l-17 -75h-183l19 85q-93 22 -144.5 77t-51.5 133
q0 29 7 57l4 18q21 100 94.5 158.5t194.5 72.5l17 75h183l-19 -83q96 -20 150.5 -70.5z" />
    <glyph glyph-name="sterling" unicode="&#xa3;" horiz-adv-x="816" 
d="M744 614.5q77 -54.5 77 -153.5q0 -26 -6 -56l-2 -7h-193l2 7q3 12 3 24q0 76 -112 76q-59 0 -91 -19t-41 -59l-12 -52h232l-33 -153h-235q-11 -44 -43 -69h466l-33 -153h-726l34 153h28q28 0 42 10t20 34l6 25h-79l33 153h83l15 64q25 113 112.5 171.5t234.5 58.5
q141 0 218 -54.5z" />
    <glyph glyph-name="currency" unicode="&#xa4;" horiz-adv-x="816" 
d="M654 217l89 -96l-126 -108l-94 107q-54 -16 -115 -16q-83 0 -143 27l-124 -108l-111 119l130 110q-4 17 -4 41q0 29 5 50l2 7q10 48 31 82l-89 97l126 108l94 -108q49 16 115 16q83 0 143 -27l124 108l111 -119l-130 -109q4 -17 4 -42q0 -28 -5 -51l-2 -7q-9 -46 -31 -81
zM342 312q0 -46 77 -46q38 0 58.5 11.5t24.5 36.5l2 7q2 12 2 16q0 46 -76 46q-38 0 -59 -12t-25 -37l-2 -7q-2 -10 -2 -15z" />
    <glyph glyph-name="yen" unicode="&#xa5;" horiz-adv-x="816" 
d="M863 626l-248 -264h140l-27 -127h-221l-9 -41h219l-27 -127h-220l-15 -67h-205l15 67h-220l27 127h221l9 41h-219l27 127h154l-145 264l7 30h192l120 -226l205 226h227z" />
    <glyph glyph-name="brokenbar" unicode="&#xa6;" horiz-adv-x="308" 
d="M346 727l-59 -267h-173l59 267h173zM228 197l-60 -268h-173l60 268h173z" />
    <glyph glyph-name="section" unicode="&#xa7;" horiz-adv-x="690" 
d="M621.5 629q70.5 -40 70.5 -112q0 -13 -3 -27v-3h-179v3q8 46 -107 46q-45 0 -70 -6.5t-27 -18.5l-1 -3q-2 -9 6.5 -14t30.5 -8l173 -21q76 -9 117 -40t41 -79q0 -14 -5 -34l-3 -13q-11 -54 -71 -83q9 -19 9 -41q0 -7 -2 -21l-3 -16q-13 -71 -91.5 -111t-206.5 -40
q-127 0 -197.5 40.5t-70.5 113.5q0 17 2 26l1 3h179l-1 -3q-7 -46 107 -46q44 0 70 6.5t28 18.5l1 3q2 9 -6.5 13.5t-31.5 7.5l-173 22q-76 10 -116.5 40.5t-40.5 77.5q0 14 5 34l3 13q11 53 70 83q-8 21 -8 40q0 8 2 22l3 16q13 72 91 111.5t207 39.5q127 0 197.5 -40z
M236 365q-3 -4 -5 -11l-1 -5q-3 -12 6 -20t30 -10l218 -27q3 0 4 -1q3 4 5 11l1 5q5 27 -37 31z" />
    <glyph glyph-name="dieresis" unicode="&#xa8;" horiz-adv-x="600" 
d="M181.5 575.5q-28.5 24.5 -28.5 66.5q0 49 31.5 77.5t77.5 28.5q43 0 72 -24t29 -65q0 -50 -31.5 -79t-77.5 -29q-44 0 -72.5 24.5zM443.5 575.5q-28.5 24.5 -28.5 66.5q0 49 31 77.5t78 28.5q43 0 71.5 -24t28.5 -65q0 -50 -31.5 -79t-77.5 -29q-43 0 -71.5 24.5z" />
    <glyph glyph-name="copyright" unicode="&#xa9;" horiz-adv-x="897" 
d="M239 25q-89 38 -138 106t-49 155q0 30 6 63l2 13q17 94 75 163t150 106.5t208 37.5q115 0 202.5 -37.5t135 -105.5t47.5 -155q0 -31 -6 -64l-3 -13q-26 -145 -137.5 -226t-285.5 -81q-118 0 -207 38zM648 147q79 56 97 155l2 13q5 23 5 51q0 60 -31 105t-89.5 70
t-137.5 25q-81 0 -147.5 -26t-108.5 -74t-53 -110l-3 -13q-5 -28 -5 -48q0 -61 32.5 -107t93.5 -71.5t143 -25.5q123 0 202 56zM336.5 158.5q-48.5 20.5 -75 57.5t-26.5 85q0 12 4 36l2 13q14 77 81.5 123t166.5 46q62 0 110.5 -18.5t75.5 -52t27 -75.5q0 -8 -2 -22v-3h-143
v3q4 21 -16.5 33t-60.5 12q-44 0 -68 -14.5t-30 -43.5l-3 -13q-1 -3 -1 -10q0 -24 21.5 -39t57.5 -15q38 0 62.5 11.5t27.5 31.5l1 3h143l-1 -3q-10 -76 -74.5 -121t-165.5 -45q-65 0 -113.5 20.5z" />
    <glyph glyph-name="ordfeminine" unicode="&#xaa;" horiz-adv-x="606" 
d="M632 382l-31 -138h-70q-37 0 -65 11t-44 32q-74 -54 -188 -54q-85 0 -132 30.5t-47 84.5q0 112 165 129l209 20q-2 22 -23 32t-66 10q-38 0 -61.5 -9.5t-25.5 -26.5v-4h-164v4q9 74 80 117.5t184 43.5q109 0 172 -42.5t63 -115.5q0 -10 -4 -34l-14 -71l-1 -5
q0 -14 25 -14h38zM225.5 344q11.5 -5 37.5 -5q42 0 81.5 12t63.5 32l4 22l-157 -17q-41 -5 -41 -28q0 -11 11.5 -16z" />
    <glyph glyph-name="guillemotleft" unicode="&#xab;" horiz-adv-x="809" 
d="M275 271l136 -194l-6 -27h-196l-155 224l6 28l218 204h222l-6 -27zM580 261l130 -184l-6 -27h-197l-148 209l6 28l233 219h222l-6 -27z" />
    <glyph glyph-name="logicalnot" unicode="&#xac;" horiz-adv-x="816" 
d="M96 239l39 178h617l-80 -359h-175l41 181h-442z" />
    <glyph glyph-name="uni00AD" unicode="&#xad;" horiz-adv-x="442" 
d="M417 365l-38 -173h-342l38 173h342z" />
    <glyph glyph-name="registered" unicode="&#xae;" horiz-adv-x="581" 
d="M489 685q54 -24 83.5 -67t29.5 -98q0 -19 -5 -46l-1 -7q-20 -98 -90.5 -151.5t-179.5 -53.5q-73 0 -128 24t-85 67t-30 98q0 27 5 47l1 7q20 95 93 149.5t182 54.5q71 0 125 -24zM507 520q0 50 -39 77.5t-111 27.5q-73 0 -114 -29.5t-56 -94.5l-3 -12q-6 -22 -6 -41
q0 -49 38 -75.5t109 -26.5q76 0 116.5 29.5t57.5 95.5l3 12q5 22 5 37zM451.5 568q20.5 -17 20.5 -46q0 -4 -2 -16l-1 -3q-7 -43 -43 -58l19 -50l-2 -8h-91l-19 51h-19l-12 -51h-94l44 198h143q36 0 56.5 -17zM324 488h31q19 0 20 14l1 3v2q0 12 -15 12h-29z" />
    <glyph glyph-name="macron" unicode="&#xaf;" horiz-adv-x="600" 
d="M632 727l-34 -152h-452l34 152h452z" />
    <glyph glyph-name="degree" unicode="&#xb0;" horiz-adv-x="446" 
d="M131 359.5q-52 41.5 -52 107.5q0 21 4 38l4 16q14 69 67 108t135 39q85 0 136 -41t51 -107q0 -16 -5 -39l-3 -15q-14 -70 -66 -109t-134 -39q-85 0 -137 41.5zM310.5 455.5q14.5 10.5 18.5 30.5l1 8q1 3 1 9q0 17 -14 28t-36 11q-23 0 -37.5 -10.5t-17.5 -29.5l-1 -8
q-1 -3 -1 -9q0 -18 14 -29t36 -11t36.5 10.5z" />
    <glyph glyph-name="plusminus" unicode="&#xb1;" horiz-adv-x="816" 
d="M763 514l-35 -160h-205l-30 -132h-184l30 132h-205l35 160h205l30 132h184l-30 -132h205zM91 167h594l-36 -168h-594z" />
    <glyph glyph-name="uni00B2" unicode="&#xb2;" 
d="M370 569q35 14 45.5 20.5t11.5 15.5l1 4q3 25 -66 25q-35 0 -57 -11t-27 -31l-2 -9h-162l2 9q19 88 82.5 131t173.5 43q65 0 115.5 -17t78.5 -47.5t28 -68.5q0 -7 -2 -21l-2 -10q-6 -38 -33.5 -63t-90.5 -49l-75 -28h172l-26 -119h-473l26 116z" />
    <glyph glyph-name="uni00B3" unicode="&#xb3;" 
d="M77 464q0 18 2 27v3h161l-1 -3q-2 -14 18.5 -20t66.5 -6q91 0 94 22v4q1 11 -15.5 14.5t-70.5 3.5h-101l19 86l102 38h-232l28 124h480l-28 -124l-138 -45l13 -3q48 -12 74 -37.5t26 -61.5q0 -13 -3 -27l-1 -6q-12 -60 -74 -89.5t-178 -29.5q-242 0 -242 130z" />
    <glyph glyph-name="acute" unicode="&#xb4;" horiz-adv-x="600" 
d="M640 759l-36 -156l-465 -60l36 156z" />
    <glyph glyph-name="uni00B5" unicode="&#xb5;" horiz-adv-x="740" 
d="M644 184q0 -18 26 -18h41l-36 -166h-89q-41 0 -72.5 12.5t-50.5 35.5q-25 -29 -60.5 -45t-75.5 -16q-36 0 -66.5 12t-51.5 33l-45 -202h-198l151 676h198l-56 -246q-3 -13 -3 -24q0 -36 25 -56.5t67 -20.5q33 0 56.5 13t44.5 38l68 296h198l-70 -312q-1 -4 -1 -10z" />
    <glyph glyph-name="paragraph" unicode="&#xb6;" horiz-adv-x="967" 
d="M609 0h-194l45 201h-167q-106 0 -165.5 49.5t-59.5 134.5q0 26 6 53l2 10q20 103 96 155.5t202 52.5h381zM995 656l-146 -656h-193l146 656h193z" />
    <glyph glyph-name="periodcentered" unicode="&#xb7;" horiz-adv-x="334" 
d="M90 193q-30 28 -30 72q0 52 33 84.5t84 32.5q48 0 77.5 -27.5t29.5 -71.5q0 -52 -32.5 -85t-83.5 -33q-48 0 -78 28z" />
    <glyph glyph-name="cedilla" unicode="&#xb8;" horiz-adv-x="600" 
d="M373 0l-86 -170h-207l123 243z" />
    <glyph glyph-name="uni00B9" unicode="&#xb9;" 
d="M282 476l27 121q-17 -4 -41 -4h-116l30 135h112q27 0 37 6t14 23h167l-63 -281h134l-29 -132h-457l29 132h156z" />
    <glyph glyph-name="ordmasculine" unicode="&#xba;" horiz-adv-x="575" 
d="M185.5 256.5q-57.5 23.5 -88.5 67t-31 100.5q0 12 4 38l1 9q14 92 85 143t187 51q77 0 134 -23.5t88 -67t31 -100.5q0 -11 -4 -39l-1 -9q-14 -93 -84 -143t-186 -50q-78 0 -135.5 23.5zM397.5 389.5q25.5 16.5 31.5 47.5l1 5q2 12 2 18q0 31 -25.5 48t-72.5 17
q-89 0 -101 -66l-1 -5q-2 -12 -2 -17q0 -30 25.5 -47t72.5 -17q44 0 69.5 16.5z" />
    <glyph glyph-name="guillemotright" unicode="&#xbb;" horiz-adv-x="809" 
d="M243 295l-129 184l6 27h197l148 -209l-7 -28l-233 -219h-222l6 27zM548 285l-136 194l6 27h197l155 -224l-7 -28l-218 -204h-222l6 27z" />
    <glyph glyph-name="onequarter" unicode="&#xbc;" horiz-adv-x="1408" 
d="M261 376l27 121q-17 -4 -41 -4h-116l30 135h112q27 0 37 6t14 23h167l-63 -281h134l-29 -132h-457l29 132h156zM997 656h196l-7 -30l-673 -626h-196l6 27zM830 61l30 132q82 101 129 221h173l-5 -24q-57 -124 -108 -197h96l34 153h169l-34 -153h64l-30 -132h-64l-13 -61
h-169l13 61h-285z" />
    <glyph glyph-name="onehalf" unicode="&#xbd;" horiz-adv-x="1418" 
d="M261 376l27 121q-17 -4 -41 -4h-116l30 135h112q27 0 37 6t14 23h167l-63 -281h134l-29 -132h-457l29 132h156zM997 656h196l-7 -30l-673 -626h-196l6 27zM1161 226q35 14 45.5 20.5t11.5 15.5l1 4q3 25 -66 25q-35 0 -57 -11t-27 -31l-2 -9h-162l2 9q19 88 82.5 131
t173.5 43q65 0 115.5 -17t78.5 -47.5t28 -68.5q0 -7 -2 -21l-2 -10q-6 -38 -33.5 -63t-90.5 -49l-75 -28h172l-26 -119h-473l26 116z" />
    <glyph glyph-name="threequarters" unicode="&#xbe;" horiz-adv-x="1359" 
d="M56 364q0 18 2 27v3h161l-1 -3q-2 -14 18.5 -20t66.5 -6q91 0 94 22v4q1 11 -15.5 14.5t-70.5 3.5h-101l19 86l102 38h-232l28 124h480l-28 -124l-138 -45l13 -3q48 -12 74 -37.5t26 -61.5q0 -13 -3 -27l-1 -6q-12 -60 -74 -89.5t-178 -29.5q-242 0 -242 130zM948 656
h196l-7 -30l-673 -626h-196l6 27zM781 61l30 132q82 101 129 221h173l-5 -24q-57 -124 -108 -197h96l34 153h169l-34 -153h64l-30 -132h-64l-13 -61h-169l13 61h-285z" />
    <glyph glyph-name="questiondown" unicode="&#xbf;" horiz-adv-x="632" 
d="M262.5 329.5q-29.5 27.5 -29.5 71.5q0 52 32.5 85t83.5 33q48 0 78 -28.5t30 -72.5q0 -51 -33 -83.5t-84 -32.5q-48 0 -77.5 27.5zM98 -160q-59 23 -92 64t-33 92q0 19 4 35l3 16q16 83 137 142q40 18 65 31t32 20t9 18l1 5h184l-1 -5q-11 -52 -40 -81.5t-98 -61.5
q-52 -26 -73.5 -42.5t-24.5 -32.5l-1 -8q-4 -25 18 -40t62 -15q48 0 80.5 18.5t38.5 48.5l4 18h188l-4 -19q-23 -110 -106 -168t-219 -58q-75 0 -134 23z" />
    <glyph glyph-name="Agrave" unicode="&#xc0;" horiz-adv-x="770" 
d="M727 30l-7 -30h-190l-19 110h-282l-69 -110h-210l6 30l412 626h226zM483 272l-34 192l-119 -192h153zM308 905l438 -60l-31 -146l-438 60z" />
    <glyph glyph-name="Aacute" unicode="&#xc1;" horiz-adv-x="770" 
d="M727 30l-7 -30h-190l-19 110h-282l-69 -110h-210l6 30l412 626h226zM483 272l-34 192l-119 -192h153zM762 909l-36 -156l-465 -60l36 156z" />
    <glyph glyph-name="Acircumflex" unicode="&#xc2;" horiz-adv-x="770" 
d="M727 30l-7 -30h-190l-19 110h-282l-69 -110h-210l6 30l412 626h226zM483 272l-34 192l-119 -192h153zM527 906l220 -58l-32 -151l-209 54l-245 -57l36 158z" />
    <glyph glyph-name="Atilde" unicode="&#xc3;" horiz-adv-x="770" 
d="M727 30l-7 -30h-190l-19 110h-282l-69 -110h-210l6 30l412 626h226zM483 272l-34 192l-119 -192h153zM494 727q-37 7 -60.5 10.5t-49.5 3.5q-65 0 -123 -27l33 148q51 27 111 27q34 0 68.5 -7t39.5 -8q35 -8 61 -12t54 -4q62 0 123 26l-34 -148q-52 -23 -110 -23
q-41 0 -113 14z" />
    <glyph glyph-name="Adieresis" unicode="&#xc4;" horiz-adv-x="770" 
d="M727 30l-7 -30h-190l-19 110h-282l-69 -110h-210l6 30l412 626h226zM483 272l-34 192l-119 -192h153zM303.5 725.5q-28.5 24.5 -28.5 66.5q0 49 31.5 77.5t77.5 28.5q43 0 72 -24t29 -65q0 -50 -31.5 -79t-77.5 -29q-44 0 -72.5 24.5zM565.5 725.5q-28.5 24.5 -28.5 66.5
q0 49 31 77.5t78 28.5q43 0 71.5 -24t28.5 -65q0 -50 -31.5 -79t-77.5 -29q-43 0 -71.5 24.5z" />
    <glyph glyph-name="Aring" unicode="&#xc5;" horiz-adv-x="770" 
d="M727 30l-7 -30h-190l-19 110h-282l-69 -110h-210l6 30l412 626h226zM483 272l-34 192l-119 -192h153zM356 647.5q-46 35.5 -46 101.5q0 69 50.5 109t136.5 40q81 0 128.5 -37t47.5 -101q0 -69 -50.5 -108.5t-137.5 -39.5q-83 0 -129 35.5zM527 725.5q14 12.5 14 33.5
q0 18 -12 28t-34 10q-26 0 -40 -12t-14 -34q0 -18 12.5 -28t34.5 -10q25 0 39 12.5z" />
    <glyph glyph-name="AE" unicode="&#xc6;" horiz-adv-x="1072" 
d="M675 489l-1 -78h368l-36 -164h-334v-79h335l-36 -168h-502l2 111h-247l-69 -111h-205l6 30l412 626h749l-37 -167h-405zM480 489h-20l-135 -217h150z" />
    <glyph glyph-name="Ccedilla" unicode="&#xc7;" horiz-adv-x="874" 
d="M231 23.5q-87 36.5 -134 103.5t-47 154q0 34 7 68l1 5q29 149 141 232t284 83q111 0 198.5 -34.5t136 -95t48.5 -137.5q0 -16 -3 -34l-1 -7h-205l1 7q1 5 1 15q0 48 -48 76t-134 28q-188 0 -215 -143l-3 -11q-4 -19 -4 -39q0 -60 47 -92t138 -32q86 0 138.5 25t61.5 71
l2 7h209l-1 -7q-29 -132 -138.5 -205.5t-277.5 -73.5q-116 0 -203 36.5zM518 0l-86 -170h-207l123 243z" />
    <glyph glyph-name="Egrave" unicode="&#xc8;" horiz-adv-x="723" 
d="M762 656l-37 -167h-405l-18 -78h385l-36 -165h-385l-19 -78h405l-36 -168h-610l146 656h610zM284 905l438 -60l-31 -146l-438 60z" />
    <glyph glyph-name="Eacute" unicode="&#xc9;" horiz-adv-x="723" 
d="M762 656l-37 -167h-405l-18 -78h385l-36 -165h-385l-19 -78h405l-36 -168h-610l146 656h610zM738 909l-36 -156l-465 -60l36 156z" />
    <glyph glyph-name="Ecircumflex" unicode="&#xca;" horiz-adv-x="723" 
d="M762 656l-37 -167h-405l-18 -78h385l-36 -165h-385l-19 -78h405l-36 -168h-610l146 656h610zM503 906l220 -58l-32 -151l-209 54l-245 -57l36 158z" />
    <glyph glyph-name="Edieresis" unicode="&#xcb;" horiz-adv-x="723" 
d="M762 656l-37 -167h-405l-18 -78h385l-36 -165h-385l-19 -78h405l-36 -168h-610l146 656h610zM280.5 725.5q-28.5 24.5 -28.5 66.5q0 49 31.5 77.5t77.5 28.5q43 0 72 -24t29 -65q0 -50 -31.5 -79t-77.5 -29q-44 0 -72.5 24.5zM542.5 725.5q-28.5 24.5 -28.5 66.5
q0 49 31 77.5t78 28.5q43 0 71.5 -24t28.5 -65q0 -50 -31.5 -79t-77.5 -29q-43 0 -71.5 24.5z" />
    <glyph glyph-name="Igrave" unicode="&#xcc;" horiz-adv-x="299" 
d="M342 656l-146 -656h-206l147 656h205zM134 897l306 -44l-30 -146l-307 44z" />
    <glyph glyph-name="Iacute" unicode="&#xcd;" horiz-adv-x="299" 
d="M342 656l-146 -656h-206l147 656h205zM453 901l-36 -156l-326 -44l36 156z" />
    <glyph glyph-name="Icircumflex" unicode="&#xce;" horiz-adv-x="299" 
d="M342 656l-146 -656h-206l147 656h205zM284 899l161 -30l-33 -153l-143 26l-175 -30l37 161z" />
    <glyph glyph-name="Idieresis" unicode="&#xcf;" horiz-adv-x="299" 
d="M342 656l-146 -656h-206l147 656h205zM64.5 725.5q-28.5 24.5 -28.5 66.5q0 49 31.5 77.5t77.5 28.5q43 0 72 -24t29 -65q0 -50 -31.5 -79t-77.5 -29q-44 0 -72.5 24.5zM326.5 725.5q-28.5 24.5 -28.5 66.5q0 49 31 77.5t78 28.5q43 0 71.5 -24t28.5 -65q0 -50 -31.5 -79
t-77.5 -29q-43 0 -71.5 24.5z" />
    <glyph glyph-name="Eth" unicode="&#xd0;" horiz-adv-x="859" 
d="M760 588q86 -68 86 -194q0 -35 -8 -81l-2 -7q-20 -109 -70 -176t-137 -98.5t-219 -31.5h-371l54 244h-105l37 169h106l54 243h326q163 0 249 -68zM641 370q0 111 -155 111h-134l-16 -68h134l-36 -169h-136l-16 -68h149q94 0 141 33t62 110l3 12q4 19 4 39z" />
    <glyph glyph-name="Ntilde" unicode="&#xd1;" horiz-adv-x="819" 
d="M847 656l-146 -656h-186l-231 387l-86 -387h-192l146 656h186l231 -387l86 387h192zM520 727q-37 7 -60.5 10.5t-49.5 3.5q-65 0 -123 -27l33 148q51 27 111 27q34 0 68.5 -7t39.5 -8q35 -8 61 -12t54 -4q62 0 123 26l-34 -148q-52 -23 -110 -23q-41 0 -113 14z" />
    <glyph glyph-name="Ograve" unicode="&#xd2;" horiz-adv-x="877" 
d="M229 24q-86 37 -133 104t-47 153q0 34 7 66l1 5q30 151 141 234t284 83q114 0 200 -37t132.5 -103t46.5 -152q0 -36 -7 -68l-1 -5q-29 -152 -139.5 -234.5t-284.5 -82.5q-114 0 -200 37zM649 313l2 11q4 17 4 36q0 59 -48 93t-136 34q-177 0 -210 -145l-2 -11
q-5 -22 -5 -38q0 -58 47.5 -90.5t135.5 -32.5q182 0 212 143zM334 905l438 -60l-31 -146l-438 60z" />
    <glyph glyph-name="Oacute" unicode="&#xd3;" horiz-adv-x="877" 
d="M229 24q-86 37 -133 104t-47 153q0 34 7 66l1 5q30 151 141 234t284 83q114 0 200 -37t132.5 -103t46.5 -152q0 -36 -7 -68l-1 -5q-29 -152 -139.5 -234.5t-284.5 -82.5q-114 0 -200 37zM649 313l2 11q4 17 4 36q0 59 -48 93t-136 34q-177 0 -210 -145l-2 -11
q-5 -22 -5 -38q0 -58 47.5 -90.5t135.5 -32.5q182 0 212 143zM788 909l-36 -156l-465 -60l36 156z" />
    <glyph glyph-name="Ocircumflex" unicode="&#xd4;" horiz-adv-x="877" 
d="M229 24q-86 37 -133 104t-47 153q0 34 7 66l1 5q30 151 141 234t284 83q114 0 200 -37t132.5 -103t46.5 -152q0 -36 -7 -68l-1 -5q-29 -152 -139.5 -234.5t-284.5 -82.5q-114 0 -200 37zM649 313l2 11q4 17 4 36q0 59 -48 93t-136 34q-177 0 -210 -145l-2 -11
q-5 -22 -5 -38q0 -58 47.5 -90.5t135.5 -32.5q182 0 212 143zM553 906l220 -58l-32 -151l-209 54l-245 -57l36 158z" />
    <glyph glyph-name="Otilde" unicode="&#xd5;" horiz-adv-x="877" 
d="M229 24q-86 37 -133 104t-47 153q0 34 7 66l1 5q30 151 141 234t284 83q114 0 200 -37t132.5 -103t46.5 -152q0 -36 -7 -68l-1 -5q-29 -152 -139.5 -234.5t-284.5 -82.5q-114 0 -200 37zM649 313l2 11q4 17 4 36q0 59 -48 93t-136 34q-177 0 -210 -145l-2 -11
q-5 -22 -5 -38q0 -58 47.5 -90.5t135.5 -32.5q182 0 212 143zM526 727q-37 7 -60.5 10.5t-49.5 3.5q-65 0 -123 -27l33 148q51 27 111 27q34 0 68.5 -7t39.5 -8q35 -8 61 -12t54 -4q62 0 123 26l-34 -148q-52 -23 -110 -23q-41 0 -113 14z" />
    <glyph glyph-name="Odieresis" unicode="&#xd6;" horiz-adv-x="877" 
d="M229 24q-86 37 -133 104t-47 153q0 34 7 66l1 5q30 151 141 234t284 83q114 0 200 -37t132.5 -103t46.5 -152q0 -36 -7 -68l-1 -5q-29 -152 -139.5 -234.5t-284.5 -82.5q-114 0 -200 37zM649 313l2 11q4 17 4 36q0 59 -48 93t-136 34q-177 0 -210 -145l-2 -11
q-5 -22 -5 -38q0 -58 47.5 -90.5t135.5 -32.5q182 0 212 143zM330.5 725.5q-28.5 24.5 -28.5 66.5q0 49 31.5 77.5t77.5 28.5q43 0 72 -24t29 -65q0 -50 -31.5 -79t-77.5 -29q-44 0 -72.5 24.5zM592.5 725.5q-28.5 24.5 -28.5 66.5q0 49 31 77.5t78 28.5q43 0 71.5 -24
t28.5 -65q0 -50 -31.5 -79t-77.5 -29q-43 0 -71.5 24.5z" />
    <glyph glyph-name="multiply" unicode="&#xd7;" horiz-adv-x="816" 
d="M549 317l135 -175l-142 -111l-132 172l-212 -173l-107 139l212 173l-135 175l141 111l133 -172l210 171l108 -138z" />
    <glyph glyph-name="Oslash" unicode="&#xd8;" horiz-adv-x="877" 
d="M873 692l-99 -117q42 -38 64.5 -88.5t22.5 -110.5q0 -35 -7 -67l-1 -5q-29 -152 -139 -234.5t-284 -82.5q-68 0 -129 14l-55 -67h-215l7 30l99 118q-43 39 -65.5 89.5t-22.5 109.5q0 34 7 66l1 5q30 151 141 234t285 83q64 0 126 -13l56 66h215zM251 290q0 -34 16 -63
l226 276q-7 1 -21 1q-90 0 -143.5 -41t-70.5 -120l-2 -12q-5 -23 -5 -41zM659 364q0 37 -16 65l-226 -276h19q90 0 145.5 41.5t70.5 118.5l3 12q4 17 4 39z" />
    <glyph glyph-name="Ugrave" unicode="&#xd9;" horiz-adv-x="793" 
d="M213.5 20.5q-71.5 33.5 -109.5 94t-38 139.5q0 41 8 76l70 326h205l-78 -345q-5 -23 -5 -40q0 -48 31.5 -74.5t91.5 -26.5q65 0 103.5 32t53.5 98l82 356h205l-92 -375q-35 -144 -125 -219t-235 -75q-96 0 -167.5 33.5zM315 905l438 -60l-31 -146l-438 60z" />
    <glyph glyph-name="Uacute" unicode="&#xda;" horiz-adv-x="793" 
d="M213.5 20.5q-71.5 33.5 -109.5 94t-38 139.5q0 41 8 76l70 326h205l-78 -345q-5 -23 -5 -40q0 -48 31.5 -74.5t91.5 -26.5q65 0 103.5 32t53.5 98l82 356h205l-92 -375q-35 -144 -125 -219t-235 -75q-96 0 -167.5 33.5zM769 909l-36 -156l-465 -60l36 156z" />
    <glyph glyph-name="Ucircumflex" unicode="&#xdb;" horiz-adv-x="793" 
d="M213.5 20.5q-71.5 33.5 -109.5 94t-38 139.5q0 41 8 76l70 326h205l-78 -345q-5 -23 -5 -40q0 -48 31.5 -74.5t91.5 -26.5q65 0 103.5 32t53.5 98l82 356h205l-92 -375q-35 -144 -125 -219t-235 -75q-96 0 -167.5 33.5zM534 906l220 -58l-32 -151l-209 54l-245 -57
l36 158z" />
    <glyph glyph-name="Udieresis" unicode="&#xdc;" horiz-adv-x="793" 
d="M213.5 20.5q-71.5 33.5 -109.5 94t-38 139.5q0 41 8 76l70 326h205l-78 -345q-5 -23 -5 -40q0 -48 31.5 -74.5t91.5 -26.5q65 0 103.5 32t53.5 98l82 356h205l-92 -375q-35 -144 -125 -219t-235 -75q-96 0 -167.5 33.5zM311.5 725.5q-28.5 24.5 -28.5 66.5
q0 49 31.5 77.5t77.5 28.5q43 0 72 -24t29 -65q0 -50 -31.5 -79t-77.5 -29q-44 0 -72.5 24.5zM573.5 725.5q-28.5 24.5 -28.5 66.5q0 49 31 77.5t78 28.5q43 0 71.5 -24t28.5 -65q0 -50 -31.5 -79t-77.5 -29q-43 0 -71.5 24.5z" />
    <glyph glyph-name="Yacute" unicode="&#xdd;" horiz-adv-x="726" 
d="M811 626l-354 -375l-56 -251h-205l59 263l-192 363l7 30h195l119 -238l215 238h219zM725 909l-36 -156l-465 -60l36 156z" />
    <glyph glyph-name="Thorn" unicode="&#xde;" horiz-adv-x="787" 
d="M662.5 532q52.5 -24 81 -67t28.5 -99q0 -24 -4 -44l-2 -10q-21 -105 -95.5 -158t-200.5 -53h-237l-22 -101h-205l146 656h205l-22 -100h204q71 0 123.5 -24zM564 345q0 20 -14 31t-41 11h-212l-26 -116h215q65 0 75 51l2 10q1 4 1 13z" />
    <glyph glyph-name="germandbls" unicode="&#xdf;" horiz-adv-x="723" 
d="M584 684q62 -25 96 -69t34 -101q0 -22 -4 -41l-4 -16q-15 -75 -78 -115q56 -44 56 -112q0 -19 -4 -36l-2 -10q-17 -89 -81.5 -136.5t-170.5 -47.5h-134l35 166h86q67 0 78 46l1 7q1 3 1 9q0 32 -56 32h-88l32 151h54q68 0 78 54l1 8q1 4 1 11q0 25 -24 39.5t-65 14.5
q-104 0 -122 -83l-101 -455h-199l107 466q27 118 111.5 180.5t218.5 62.5q81 0 143 -25z" />
    <glyph glyph-name="agrave" unicode="&#xe0;" horiz-adv-x="716" 
d="M688 166l-36 -166h-91q-81 0 -121 48q-44 -30 -100.5 -45.5t-121.5 -15.5q-92 0 -144 36t-52 99q0 20 4 37q12 57 58 87t135 39l229 23q1 28 -21.5 42.5t-66.5 14.5q-42 0 -68.5 -12.5t-29.5 -32.5l-1 -3h-200l1 3q16 94 98 146.5t212 52.5q129 0 202.5 -51t73.5 -138
q0 -22 -6 -48l-20 -92q-1 -3 -1 -8q0 -16 25 -16h42zM265 118q39 0 82.5 14t72.5 34l7 35l-168 -18q-42 -4 -42 -37q0 -28 48 -28zM199 755l438 -60l-31 -146l-438 60z" />
    <glyph glyph-name="aacute" unicode="&#xe1;" horiz-adv-x="716" 
d="M688 166l-36 -166h-91q-81 0 -121 48q-44 -30 -100.5 -45.5t-121.5 -15.5q-92 0 -144 36t-52 99q0 20 4 37q12 57 58 87t135 39l229 23q1 28 -21.5 42.5t-66.5 14.5q-42 0 -68.5 -12.5t-29.5 -32.5l-1 -3h-200l1 3q16 94 98 146.5t212 52.5q129 0 202.5 -51t73.5 -138
q0 -22 -6 -48l-20 -92q-1 -3 -1 -8q0 -16 25 -16h42zM265 118q39 0 82.5 14t72.5 34l7 35l-168 -18q-42 -4 -42 -37q0 -28 48 -28zM653 759l-36 -156l-465 -60l36 156z" />
    <glyph glyph-name="acircumflex" unicode="&#xe2;" horiz-adv-x="716" 
d="M688 166l-36 -166h-91q-81 0 -121 48q-44 -30 -100.5 -45.5t-121.5 -15.5q-92 0 -144 36t-52 99q0 20 4 37q12 57 58 87t135 39l229 23q1 28 -21.5 42.5t-66.5 14.5q-42 0 -68.5 -12.5t-29.5 -32.5l-1 -3h-200l1 3q16 94 98 146.5t212 52.5q129 0 202.5 -51t73.5 -138
q0 -22 -6 -48l-20 -92q-1 -3 -1 -8q0 -16 25 -16h42zM265 118q39 0 82.5 14t72.5 34l7 35l-168 -18q-42 -4 -42 -37q0 -28 48 -28zM418 756l220 -58l-32 -151l-209 54l-245 -57l36 158z" />
    <glyph glyph-name="atilde" unicode="&#xe3;" horiz-adv-x="716" 
d="M688 166l-36 -166h-91q-81 0 -121 48q-44 -30 -100.5 -45.5t-121.5 -15.5q-92 0 -144 36t-52 99q0 20 4 37q12 57 58 87t135 39l229 23q1 28 -21.5 42.5t-66.5 14.5q-42 0 -68.5 -12.5t-29.5 -32.5l-1 -3h-200l1 3q16 94 98 146.5t212 52.5q129 0 202.5 -51t73.5 -138
q0 -22 -6 -48l-20 -92q-1 -3 -1 -8q0 -16 25 -16h42zM265 118q39 0 82.5 14t72.5 34l7 35l-168 -18q-42 -4 -42 -37q0 -28 48 -28zM391 577q-37 7 -60.5 10.5t-49.5 3.5q-65 0 -123 -27l33 148q51 27 111 27q34 0 68.5 -7t39.5 -8q35 -8 61 -12t54 -4q62 0 123 26l-34 -148
q-52 -23 -110 -23q-41 0 -113 14z" />
    <glyph glyph-name="adieresis" unicode="&#xe4;" horiz-adv-x="716" 
d="M688 166l-36 -166h-91q-81 0 -121 48q-44 -30 -100.5 -45.5t-121.5 -15.5q-92 0 -144 36t-52 99q0 20 4 37q12 57 58 87t135 39l229 23q1 28 -21.5 42.5t-66.5 14.5q-42 0 -68.5 -12.5t-29.5 -32.5l-1 -3h-200l1 3q16 94 98 146.5t212 52.5q129 0 202.5 -51t73.5 -138
q0 -22 -6 -48l-20 -92q-1 -3 -1 -8q0 -16 25 -16h42zM265 118q39 0 82.5 14t72.5 34l7 35l-168 -18q-42 -4 -42 -37q0 -28 48 -28zM194.5 575.5q-28.5 24.5 -28.5 66.5q0 49 31.5 77.5t77.5 28.5q43 0 72 -24t29 -65q0 -50 -31.5 -79t-77.5 -29q-44 0 -72.5 24.5z
M456.5 575.5q-28.5 24.5 -28.5 66.5q0 49 31 77.5t78 28.5q43 0 71.5 -24t28.5 -65q0 -50 -31.5 -79t-77.5 -29q-43 0 -71.5 24.5z" />
    <glyph glyph-name="aring" unicode="&#xe5;" horiz-adv-x="716" 
d="M688 166l-36 -166h-91q-81 0 -121 48q-44 -30 -100.5 -45.5t-121.5 -15.5q-92 0 -144 36t-52 99q0 20 4 37q12 57 58 87t135 39l229 23q1 28 -21.5 42.5t-66.5 14.5q-42 0 -68.5 -12.5t-29.5 -32.5l-1 -3h-200l1 3q16 94 98 146.5t212 52.5q129 0 202.5 -51t73.5 -138
q0 -22 -6 -48l-20 -92q-1 -3 -1 -8q0 -16 25 -16h42zM265 118q39 0 82.5 14t72.5 34l7 35l-168 -18q-42 -4 -42 -37q0 -28 48 -28zM275 578.5q-46 35.5 -46 101.5q0 69 50.5 109t136.5 40q81 0 128.5 -37t47.5 -101q0 -69 -50.5 -108.5t-137.5 -39.5q-83 0 -129 35.5z
M446 656.5q14 12.5 14 33.5q0 18 -12 28t-34 10q-26 0 -40 -12t-14 -34q0 -18 12.5 -28t34.5 -10q25 0 39 12.5z" />
    <glyph glyph-name="ae" unicode="&#xe6;" horiz-adv-x="1098" 
d="M943.5 492q63.5 -27 98 -76t34.5 -114q0 -20 -5 -47l-7 -48h-428q1 -36 30.5 -55.5t85.5 -19.5q39 0 65 9.5t36 26.5h204q-29 -88 -109 -134.5t-204 -46.5q-79 0 -140 20t-99 57q-45 -38 -109.5 -57.5t-143.5 -19.5q-108 0 -169 37t-61 101q0 19 4 35q12 57 58 87.5
t135 38.5l243 23q-3 27 -29.5 41.5t-74.5 14.5q-42 0 -67 -11.5t-29 -33.5l-1 -3h-200l1 3q16 94 98.5 146.5t214.5 52.5q147 0 208 -69q78 69 212 69q85 0 148.5 -27zM662 316h223q-6 29 -34.5 45t-73.5 16q-86 0 -115 -61zM371 137.5q55 20.5 78 47.5v17l-190 -22
q-21 -2 -31.5 -11t-10.5 -27q0 -25 44 -25q55 0 110 20.5z" />
    <glyph glyph-name="ccedilla" unicode="&#xe7;" horiz-adv-x="670" 
d="M169.5 16q-66.5 29 -102.5 81.5t-36 121.5q0 22 5 52l2 8q20 116 102 178t215 62q86 0 153 -26.5t104.5 -74t37.5 -106.5q0 -20 -2 -30l-1 -6h-202l1 6q1 3 1 10q0 25 -26.5 40.5t-70.5 15.5q-100 0 -116 -86l-2 -7q-2 -14 -2 -20q0 -36 27.5 -56t77.5 -20
q43 0 68.5 13.5t29.5 39.5l1 6h204l-1 -6q-18 -107 -99.5 -166t-212.5 -59q-89 0 -155.5 29zM403 0l-86 -170h-207l123 243z" />
    <glyph glyph-name="egrave" unicode="&#xe8;" horiz-adv-x="671" 
d="M511.5 492q65.5 -27 100.5 -75.5t35 -113.5q0 -20 -5 -48l-11 -50h-416q1 -34 27.5 -52.5t76.5 -18.5q81 0 103 34h203q-26 -88 -106 -134.5t-205 -46.5q-86 0 -150.5 29t-99.5 80.5t-35 118.5q0 22 5 50l4 18q20 113 103.5 174.5t217.5 61.5q87 0 152.5 -27zM241 318
h211q-5 29 -30.5 44.5t-68.5 15.5q-83 0 -112 -60zM193 755l438 -60l-31 -146l-438 60z" />
    <glyph glyph-name="eacute" unicode="&#xe9;" horiz-adv-x="671" 
d="M511.5 492q65.5 -27 100.5 -75.5t35 -113.5q0 -20 -5 -48l-11 -50h-416q1 -34 27.5 -52.5t76.5 -18.5q81 0 103 34h203q-26 -88 -106 -134.5t-205 -46.5q-86 0 -150.5 29t-99.5 80.5t-35 118.5q0 22 5 50l4 18q20 113 103.5 174.5t217.5 61.5q87 0 152.5 -27zM241 318
h211q-5 29 -30.5 44.5t-68.5 15.5q-83 0 -112 -60zM647 759l-36 -156l-465 -60l36 156z" />
    <glyph glyph-name="ecircumflex" unicode="&#xea;" horiz-adv-x="671" 
d="M511.5 492q65.5 -27 100.5 -75.5t35 -113.5q0 -20 -5 -48l-11 -50h-416q1 -34 27.5 -52.5t76.5 -18.5q81 0 103 34h203q-26 -88 -106 -134.5t-205 -46.5q-86 0 -150.5 29t-99.5 80.5t-35 118.5q0 22 5 50l4 18q20 113 103.5 174.5t217.5 61.5q87 0 152.5 -27zM241 318
h211q-5 29 -30.5 44.5t-68.5 15.5q-83 0 -112 -60zM412 756l220 -58l-32 -151l-209 54l-245 -57l36 158z" />
    <glyph glyph-name="edieresis" unicode="&#xeb;" horiz-adv-x="671" 
d="M511.5 492q65.5 -27 100.5 -75.5t35 -113.5q0 -20 -5 -48l-11 -50h-416q1 -34 27.5 -52.5t76.5 -18.5q81 0 103 34h203q-26 -88 -106 -134.5t-205 -46.5q-86 0 -150.5 29t-99.5 80.5t-35 118.5q0 22 5 50l4 18q20 113 103.5 174.5t217.5 61.5q87 0 152.5 -27zM241 318
h211q-5 29 -30.5 44.5t-68.5 15.5q-83 0 -112 -60zM188.5 575.5q-28.5 24.5 -28.5 66.5q0 49 31.5 77.5t77.5 28.5q43 0 72 -24t29 -65q0 -50 -31.5 -79t-77.5 -29q-44 0 -72.5 24.5zM450.5 575.5q-28.5 24.5 -28.5 66.5q0 49 31 77.5t78 28.5q43 0 71.5 -24t28.5 -65
q0 -50 -31.5 -79t-77.5 -29q-43 0 -71.5 24.5z" />
    <glyph glyph-name="igrave" unicode="&#xec;" horiz-adv-x="286" 
d="M299 506l-113 -506h-199l114 506h198zM94 747l306 -44l-30 -146l-307 44z" />
    <glyph glyph-name="iacute" unicode="&#xed;" horiz-adv-x="286" 
d="M299 506l-113 -506h-199l114 506h198zM413 751l-36 -156l-326 -44l36 156z" />
    <glyph glyph-name="icircumflex" unicode="&#xee;" horiz-adv-x="286" 
d="M299 506l-113 -506h-199l114 506h198zM243 749l161 -30l-33 -153l-143 26l-175 -30l37 161z" />
    <glyph glyph-name="idieresis" unicode="&#xef;" horiz-adv-x="286" 
d="M299 506l-113 -506h-199l114 506h198zM33.5 576.5q-28.5 24.5 -28.5 66.5q0 49 31 77.5t78 28.5q43 0 72 -25t29 -66q0 -49 -31.5 -77.5t-77.5 -28.5q-44 0 -72.5 24.5zM275.5 576.5q-28.5 24.5 -28.5 66.5q0 49 31 77.5t78 28.5q43 0 71.5 -24t28.5 -65q0 -50 -31.5 -79
t-77.5 -29q-43 0 -71.5 24.5z" />
    <glyph glyph-name="eth" unicode="&#xf0;" horiz-adv-x="684" 
d="M724 575l-122 -18q61 -75 61 -172q0 -36 -9 -75l-17 -76q-26 -118 -109 -182.5t-209 -64.5q-86 0 -152 28t-103 77.5t-37 111.5q0 26 5 46l4 18q17 91 89 144.5t180 53.5q117 0 171 -64q1 6 1 16q0 31 -14.5 52.5t-49.5 46.5l-1 1l-321 -48l30 136l139 20l-67 47l6 27
h210l52 -34l293 44zM403 170q28 22 40 73l3 14q-9 29 -35.5 44t-68.5 15q-48 0 -77 -19t-37 -55l-1 -6q-2 -14 -2 -19q0 -32 26 -50.5t71 -18.5q53 0 81 22z" />
    <glyph glyph-name="ntilde" unicode="&#xf1;" horiz-adv-x="711" 
d="M605 464q59 -56 59 -152q0 -40 -8 -75l-51 -237h-199l56 246q4 22 4 30q0 34 -22.5 52.5t-64.5 18.5q-33 0 -61.5 -13.5t-49.5 -37.5l-66 -296h-198l113 506h175l-1 -35q68 48 152 48q103 1 162 -55zM438 577q-37 7 -60.5 10.5t-49.5 3.5q-65 0 -123 -27l33 148
q51 27 111 27q34 0 68.5 -7t39.5 -8q35 -8 61 -12t54 -4q62 0 123 26l-34 -148q-52 -23 -110 -23q-41 0 -113 14z" />
    <glyph glyph-name="ograve" unicode="&#xf2;" horiz-adv-x="685" 
d="M171 16q-67 29 -103 81.5t-36 122.5q0 27 4 50l2 9q17 114 101 177t220 63q91 0 157.5 -28.5t101.5 -81t35 -123.5q0 -23 -5 -53l-1 -9q-18 -113 -100.5 -175t-217.5 -62q-91 0 -158 29zM413 180q29 21 37 62l1 4q2 14 2 21q0 38 -27.5 59.5t-75.5 21.5t-78 -22.5
t-37 -64.5l-1 -5q-2 -14 -2 -20q0 -35 28 -56t76 -21t77 21zM198 755l438 -60l-31 -146l-438 60z" />
    <glyph glyph-name="oacute" unicode="&#xf3;" horiz-adv-x="685" 
d="M171 16q-67 29 -103 81.5t-36 122.5q0 27 4 50l2 9q17 114 101 177t220 63q91 0 157.5 -28.5t101.5 -81t35 -123.5q0 -23 -5 -53l-1 -9q-18 -113 -100.5 -175t-217.5 -62q-91 0 -158 29zM413 180q29 21 37 62l1 4q2 14 2 21q0 38 -27.5 59.5t-75.5 21.5t-78 -22.5
t-37 -64.5l-1 -5q-2 -14 -2 -20q0 -35 28 -56t76 -21t77 21zM652 759l-36 -156l-465 -60l36 156z" />
    <glyph glyph-name="ocircumflex" unicode="&#xf4;" horiz-adv-x="685" 
d="M171 16q-67 29 -103 81.5t-36 122.5q0 27 4 50l2 9q17 114 101 177t220 63q91 0 157.5 -28.5t101.5 -81t35 -123.5q0 -23 -5 -53l-1 -9q-18 -113 -100.5 -175t-217.5 -62q-91 0 -158 29zM413 180q29 21 37 62l1 4q2 14 2 21q0 38 -27.5 59.5t-75.5 21.5t-78 -22.5
t-37 -64.5l-1 -5q-2 -14 -2 -20q0 -35 28 -56t76 -21t77 21zM417 756l220 -58l-32 -151l-209 54l-245 -57l36 158z" />
    <glyph glyph-name="otilde" unicode="&#xf5;" horiz-adv-x="685" 
d="M171 16q-67 29 -103 81.5t-36 122.5q0 27 4 50l2 9q17 114 101 177t220 63q91 0 157.5 -28.5t101.5 -81t35 -123.5q0 -23 -5 -53l-1 -9q-18 -113 -100.5 -175t-217.5 -62q-91 0 -158 29zM413 180q29 21 37 62l1 4q2 14 2 21q0 38 -27.5 59.5t-75.5 21.5t-78 -22.5
t-37 -64.5l-1 -5q-2 -14 -2 -20q0 -35 28 -56t76 -21t77 21zM390 577q-37 7 -60.5 10.5t-49.5 3.5q-65 0 -123 -27l33 148q51 27 111 27q34 0 68.5 -7t39.5 -8q35 -8 61 -12t54 -4q62 0 123 26l-34 -148q-52 -23 -110 -23q-41 0 -113 14z" />
    <glyph glyph-name="odieresis" unicode="&#xf6;" horiz-adv-x="685" 
d="M171 16q-67 29 -103 81.5t-36 122.5q0 27 4 50l2 9q17 114 101 177t220 63q91 0 157.5 -28.5t101.5 -81t35 -123.5q0 -23 -5 -53l-1 -9q-18 -113 -100.5 -175t-217.5 -62q-91 0 -158 29zM413 180q29 21 37 62l1 4q2 14 2 21q0 38 -27.5 59.5t-75.5 21.5t-78 -22.5
t-37 -64.5l-1 -5q-2 -14 -2 -20q0 -35 28 -56t76 -21t77 21zM193.5 575.5q-28.5 24.5 -28.5 66.5q0 49 31.5 77.5t77.5 28.5q43 0 72 -24t29 -65q0 -50 -31.5 -79t-77.5 -29q-44 0 -72.5 24.5zM455.5 575.5q-28.5 24.5 -28.5 66.5q0 49 31 77.5t78 28.5q43 0 71.5 -24
t28.5 -65q0 -50 -31.5 -79t-77.5 -29q-43 0 -71.5 24.5z" />
    <glyph glyph-name="divide" unicode="&#xf7;" horiz-adv-x="816" 
d="M396 475.5q-29 27.5 -29 69.5q0 48 32 79t80 31q45 0 73.5 -26.5t28.5 -68.5q0 -49 -31.5 -80.5t-79.5 -31.5q-45 0 -74 27.5zM751 417l-39 -178h-614l39 178h614zM297 28.5q-29 27.5 -29 69.5q0 48 32 79t80 31q45 0 73.5 -26.5t28.5 -68.5q0 -49 -31.5 -80.5
t-79.5 -31.5q-45 0 -74 27.5z" />
    <glyph glyph-name="oslash" unicode="&#xf8;" horiz-adv-x="685" 
d="M679 535l-84 -100q57 -60 57 -152q0 -28 -4 -51l-2 -9q-17 -113 -99.5 -174.5t-217.5 -61.5q-50 0 -94 9l-41 -50h-189l5 24l82 100q-59 62 -59 152q0 26 4 49l1 9q18 114 101.5 176.5t219.5 62.5q54 0 95 -10l41 49h189zM200 221q0 -18 6 -33l156 190h-9
q-65 0 -101 -26.5t-46 -82.5l-4 -24q-2 -8 -2 -24zM487 284q0 18 -4 30l-157 -186h8q65 0 101 26.5t46 80.5l4 24q2 9 2 25z" />
    <glyph glyph-name="ugrave" unicode="&#xf9;" horiz-adv-x="711" 
d="M707 506l-113 -506h-175l1 35q-67 -48 -152 -48q-103 -1 -162.5 55.5t-59.5 152.5q0 35 9 75l52 236h198l-56 -245q-4 -22 -4 -30q0 -34 22.5 -52.5t64.5 -18.5q34 0 62.5 13t48.5 37l66 296h198zM234 755l438 -60l-31 -146l-438 60z" />
    <glyph glyph-name="uacute" unicode="&#xfa;" horiz-adv-x="711" 
d="M707 506l-113 -506h-175l1 35q-67 -48 -152 -48q-103 -1 -162.5 55.5t-59.5 152.5q0 35 9 75l52 236h198l-56 -245q-4 -22 -4 -30q0 -34 22.5 -52.5t64.5 -18.5q34 0 62.5 13t48.5 37l66 296h198zM688 759l-36 -156l-465 -60l36 156z" />
    <glyph glyph-name="ucircumflex" unicode="&#xfb;" horiz-adv-x="711" 
d="M707 506l-113 -506h-175l1 35q-67 -48 -152 -48q-103 -1 -162.5 55.5t-59.5 152.5q0 35 9 75l52 236h198l-56 -245q-4 -22 -4 -30q0 -34 22.5 -52.5t64.5 -18.5q34 0 62.5 13t48.5 37l66 296h198zM453 756l220 -58l-32 -151l-209 54l-245 -57l36 158z" />
    <glyph glyph-name="udieresis" unicode="&#xfc;" horiz-adv-x="711" 
d="M707 506l-113 -506h-175l1 35q-67 -48 -152 -48q-103 -1 -162.5 55.5t-59.5 152.5q0 35 9 75l52 236h198l-56 -245q-4 -22 -4 -30q0 -34 22.5 -52.5t64.5 -18.5q34 0 62.5 13t48.5 37l66 296h198zM230.5 575.5q-28.5 24.5 -28.5 66.5q0 49 31.5 77.5t77.5 28.5
q43 0 72 -24t29 -65q0 -50 -31.5 -79t-77.5 -29q-44 0 -72.5 24.5zM492.5 575.5q-28.5 24.5 -28.5 66.5q0 49 31 77.5t78 28.5q43 0 71.5 -24t28.5 -65q0 -50 -31.5 -79t-77.5 -29q-43 0 -71.5 24.5z" />
    <glyph glyph-name="yacute" unicode="&#xfd;" horiz-adv-x="697" 
d="M751 506l-6 -27l-371 -537q-40 -57 -91.5 -84.5t-136.5 -27.5h-170l36 165h147q7 0 21 2l-136 482l6 27h200l79 -307l200 307h222zM681 759l-36 -156l-465 -60l36 156z" />
    <glyph glyph-name="thorn" unicode="&#xfe;" horiz-adv-x="710" 
d="M567.5 490q54.5 -29 84 -80t29.5 -116q0 -26 -4 -49l-1 -6q-20 -118 -97.5 -185t-199.5 -67q-105 0 -167 53l-47 -210h-199l194 866h198l-47 -212q57 35 131 35q71 0 125.5 -29zM479 271q0 35 -26.5 55.5t-73.5 20.5q-31 0 -58.5 -8.5t-47.5 -23.5l-26 -117
q17 -18 45.5 -28t63.5 -10q52 0 82.5 22.5t37.5 65.5l2 7q1 5 1 16z" />
    <glyph glyph-name="ydieresis" unicode="&#xff;" horiz-adv-x="697" 
d="M751 506l-6 -27l-371 -537q-40 -57 -91.5 -84.5t-136.5 -27.5h-170l36 165h147q7 0 21 2l-136 482l6 27h200l79 -307l200 307h222zM223.5 575.5q-28.5 24.5 -28.5 66.5q0 49 31.5 77.5t77.5 28.5q43 0 72 -24t29 -65q0 -50 -31.5 -79t-77.5 -29q-44 0 -72.5 24.5z
M485.5 575.5q-28.5 24.5 -28.5 66.5q0 49 31 77.5t78 28.5q43 0 71.5 -24t28.5 -65q0 -50 -31.5 -79t-77.5 -29q-43 0 -71.5 24.5z" />
    <glyph glyph-name="Amacron" unicode="&#x100;" horiz-adv-x="770" 
d="M727 30l-7 -30h-190l-19 110h-282l-69 -110h-210l6 30l412 626h226zM483 272l-34 192l-119 -192h153zM754 877l-34 -152h-452l34 152h452z" />
    <glyph glyph-name="amacron" unicode="&#x101;" horiz-adv-x="716" 
d="M688 166l-36 -166h-91q-81 0 -121 48q-44 -30 -100.5 -45.5t-121.5 -15.5q-92 0 -144 36t-52 99q0 20 4 37q12 57 58 87t135 39l229 23q1 28 -21.5 42.5t-66.5 14.5q-42 0 -68.5 -12.5t-29.5 -32.5l-1 -3h-200l1 3q16 94 98 146.5t212 52.5q129 0 202.5 -51t73.5 -138
q0 -22 -6 -48l-20 -92q-1 -3 -1 -8q0 -16 25 -16h42zM265 118q39 0 82.5 14t72.5 34l7 35l-168 -18q-42 -4 -42 -37q0 -28 48 -28zM645 727l-34 -152h-452l34 152h452z" />
    <glyph glyph-name="Abreve" unicode="&#x102;" horiz-adv-x="770" 
d="M727 30l-7 -30h-190l-19 110h-282l-69 -110h-210l6 30l412 626h226zM483 272l-34 192l-119 -192h153zM390.5 715q-59.5 13 -115.5 36l32 148q111 -45 222 -45q109 0 230 45l-36 -156q-108 -41 -217 -41q-56 0 -115.5 13z" />
    <glyph glyph-name="abreve" unicode="&#x103;" horiz-adv-x="716" 
d="M688 166l-36 -166h-91q-81 0 -121 48q-44 -30 -100.5 -45.5t-121.5 -15.5q-92 0 -144 36t-52 99q0 20 4 37q12 57 58 87t135 39l229 23q1 28 -21.5 42.5t-66.5 14.5q-42 0 -68.5 -12.5t-29.5 -32.5l-1 -3h-200l1 3q16 94 98 146.5t212 52.5q129 0 202.5 -51t73.5 -138
q0 -22 -6 -48l-20 -92q-1 -3 -1 -8q0 -16 25 -16h42zM265 118q39 0 82.5 14t72.5 34l7 35l-168 -18q-42 -4 -42 -37q0 -28 48 -28zM281.5 565q-59.5 13 -115.5 36l32 148q111 -45 222 -45q109 0 230 45l-36 -156q-108 -41 -217 -41q-56 0 -115.5 13z" />
    <glyph glyph-name="Aogonek" unicode="&#x104;" horiz-adv-x="770" 
d="M727 30l-7 -30h-190l-19 110h-282l-69 -110h-210l6 30l412 626h226zM483 272l-34 192l-119 -192h153zM468 -150.5q-28 19.5 -28 53.5q0 27 18.5 50.5t63.5 53.5l149 96l49 -103l-48 -35q-10 -7 -13.5 -11t-3.5 -8q0 -9 14 -9h36l-23 -107h-138q-48 0 -76 19.5z" />
    <glyph glyph-name="aogonek" unicode="&#x105;" horiz-adv-x="716" 
d="M688 166l-36 -166h-91q-81 0 -121 48q-44 -30 -100.5 -45.5t-121.5 -15.5q-92 0 -144 36t-52 99q0 20 4 37q12 57 58 87t135 39l229 23q1 28 -21.5 42.5t-66.5 14.5q-42 0 -68.5 -12.5t-29.5 -32.5l-1 -3h-200l1 3q16 94 98 146.5t212 52.5q129 0 202.5 -51t73.5 -138
q0 -22 -6 -48l-20 -92q-1 -3 -1 -8q0 -16 25 -16h42zM265 118q39 0 82.5 14t72.5 34l7 35l-168 -18q-42 -4 -42 -37q0 -28 48 -28zM400 -150.5q-28 19.5 -28 53.5q0 27 18.5 50.5t63.5 53.5l149 96l49 -103l-48 -35q-10 -7 -13.5 -11t-3.5 -8q0 -9 14 -9h36l-23 -107h-138
q-48 0 -76 19.5z" />
    <glyph glyph-name="Cacute" unicode="&#x106;" horiz-adv-x="874" 
d="M231 23.5q-87 36.5 -134 103.5t-47 154q0 34 7 68l1 5q29 149 141 232t284 83q111 0 198.5 -34.5t136 -95t48.5 -137.5q0 -16 -3 -34l-1 -7h-205l1 7q1 5 1 15q0 48 -48 76t-134 28q-188 0 -215 -143l-3 -11q-4 -19 -4 -39q0 -60 47 -92t138 -32q86 0 138.5 25t61.5 71
l2 7h209l-1 -7q-29 -132 -138.5 -205.5t-277.5 -73.5q-116 0 -203 36.5zM787 909l-36 -156l-465 -60l36 156z" />
    <glyph glyph-name="cacute" unicode="&#x107;" horiz-adv-x="670" 
d="M169.5 16q-66.5 29 -102.5 81.5t-36 121.5q0 22 5 52l2 8q20 116 102 178t215 62q86 0 153 -26.5t104.5 -74t37.5 -106.5q0 -20 -2 -30l-1 -6h-202l1 6q1 3 1 10q0 25 -26.5 40.5t-70.5 15.5q-100 0 -116 -86l-2 -7q-2 -14 -2 -20q0 -36 27.5 -56t77.5 -20
q43 0 68.5 13.5t29.5 39.5l1 6h204l-1 -6q-18 -107 -99.5 -166t-212.5 -59q-89 0 -155.5 29zM644 759l-36 -156l-465 -60l36 156z" />
    <glyph glyph-name="Ccircumflex" unicode="&#x108;" horiz-adv-x="874" 
d="M231 23.5q-87 36.5 -134 103.5t-47 154q0 34 7 68l1 5q29 149 141 232t284 83q111 0 198.5 -34.5t136 -95t48.5 -137.5q0 -16 -3 -34l-1 -7h-205l1 7q1 5 1 15q0 48 -48 76t-134 28q-188 0 -215 -143l-3 -11q-4 -19 -4 -39q0 -60 47 -92t138 -32q86 0 138.5 25t61.5 71
l2 7h209l-1 -7q-29 -132 -138.5 -205.5t-277.5 -73.5q-116 0 -203 36.5zM552 906l220 -58l-32 -151l-209 54l-245 -57l36 158z" />
    <glyph glyph-name="ccircumflex" unicode="&#x109;" horiz-adv-x="670" 
d="M169.5 16q-66.5 29 -102.5 81.5t-36 121.5q0 22 5 52l2 8q20 116 102 178t215 62q86 0 153 -26.5t104.5 -74t37.5 -106.5q0 -20 -2 -30l-1 -6h-202l1 6q1 3 1 10q0 25 -26.5 40.5t-70.5 15.5q-100 0 -116 -86l-2 -7q-2 -14 -2 -20q0 -36 27.5 -56t77.5 -20
q43 0 68.5 13.5t29.5 39.5l1 6h204l-1 -6q-18 -107 -99.5 -166t-212.5 -59q-89 0 -155.5 29zM409 756l220 -58l-32 -151l-209 54l-245 -57l36 158z" />
    <glyph glyph-name="Cdotaccent" unicode="&#x10a;" horiz-adv-x="874" 
d="M231 23.5q-87 36.5 -134 103.5t-47 154q0 34 7 68l1 5q29 149 141 232t284 83q111 0 198.5 -34.5t136 -95t48.5 -137.5q0 -16 -3 -34l-1 -7h-205l1 7q1 5 1 15q0 48 -48 76t-134 28q-188 0 -215 -143l-3 -11q-4 -19 -4 -39q0 -60 47 -92t138 -32q86 0 138.5 25t61.5 71
l2 7h209l-1 -7q-29 -132 -138.5 -205.5t-277.5 -73.5q-116 0 -203 36.5zM456.5 721.5q-30.5 26.5 -30.5 71.5q0 52 33.5 82.5t82.5 30.5q47 0 77.5 -26t30.5 -71q0 -52 -34 -83t-83 -31q-46 0 -76.5 26.5z" />
    <glyph glyph-name="cdotaccent" unicode="&#x10b;" horiz-adv-x="670" 
d="M169.5 16q-66.5 29 -102.5 81.5t-36 121.5q0 22 5 52l2 8q20 116 102 178t215 62q86 0 153 -26.5t104.5 -74t37.5 -106.5q0 -20 -2 -30l-1 -6h-202l1 6q1 3 1 10q0 25 -26.5 40.5t-70.5 15.5q-100 0 -116 -86l-2 -7q-2 -14 -2 -20q0 -36 27.5 -56t77.5 -20
q43 0 68.5 13.5t29.5 39.5l1 6h204l-1 -6q-18 -107 -99.5 -166t-212.5 -59q-89 0 -155.5 29zM313.5 571.5q-30.5 26.5 -30.5 71.5q0 52 33.5 82.5t82.5 30.5q47 0 77.5 -26t30.5 -71q0 -52 -34 -83t-83 -31q-46 0 -76.5 26.5z" />
    <glyph glyph-name="Ccaron" unicode="&#x10c;" horiz-adv-x="874" 
d="M231 23.5q-87 36.5 -134 103.5t-47 154q0 34 7 68l1 5q29 149 141 232t284 83q111 0 198.5 -34.5t136 -95t48.5 -137.5q0 -16 -3 -34l-1 -7h-205l1 7q1 5 1 15q0 48 -48 76t-134 28q-188 0 -215 -143l-3 -11q-4 -19 -4 -39q0 -60 47 -92t138 -32q86 0 138.5 25t61.5 71
l2 7h209l-1 -7q-29 -132 -138.5 -205.5t-277.5 -73.5q-116 0 -203 36.5zM333 904l207 -54l247 58l-36 -159l-225 -54l-225 58z" />
    <glyph glyph-name="ccaron" unicode="&#x10d;" horiz-adv-x="670" 
d="M169.5 16q-66.5 29 -102.5 81.5t-36 121.5q0 22 5 52l2 8q20 116 102 178t215 62q86 0 153 -26.5t104.5 -74t37.5 -106.5q0 -20 -2 -30l-1 -6h-202l1 6q1 3 1 10q0 25 -26.5 40.5t-70.5 15.5q-100 0 -116 -86l-2 -7q-2 -14 -2 -20q0 -36 27.5 -56t77.5 -20
q43 0 68.5 13.5t29.5 39.5l1 6h204l-1 -6q-18 -107 -99.5 -166t-212.5 -59q-89 0 -155.5 29zM190 754l207 -54l247 58l-36 -159l-225 -54l-225 58z" />
    <glyph glyph-name="Dcaron" unicode="&#x10e;" horiz-adv-x="826" 
d="M478 656q163 0 249 -68t86 -194q0 -35 -8 -81l-2 -7q-20 -109 -70 -176t-137 -98.5t-219 -31.5h-371l146 656h326zM539 209q47 33 62 110l3 12q4 19 4 39q0 111 -155 111h-134l-70 -305h149q94 0 141 33zM284 904l207 -54l247 58l-36 -159l-225 -54l-225 58z" />
    <glyph glyph-name="dcaron" unicode="&#x10f;" horiz-adv-x="920" 
d="M748 696l-155 -696h-171v37q-65 -50 -155 -50q-72 0 -126 29t-83.5 81t-29.5 117q0 26 4 47l2 9q20 118 97 183.5t199 65.5q105 0 168 -54l52 231h198zM230 235q0 -35 27 -55t74 -20q31 0 59 9t48 25l26 115q-16 18 -45.5 28t-65.5 10q-52 0 -82 -22t-38 -65l-1 -8
q-2 -12 -2 -17zM1042 696l-109 -190h-177l65 190h221z" />
    <glyph glyph-name="Dcroat" unicode="&#x110;" horiz-adv-x="859" 
d="M760 588q86 -68 86 -194q0 -35 -8 -81l-2 -7q-20 -109 -70 -176t-137 -98.5t-219 -31.5h-371l54 244h-105l37 169h106l54 243h326q163 0 249 -68zM641 370q0 111 -155 111h-134l-16 -68h134l-36 -169h-136l-16 -68h149q94 0 141 33t62 110l3 12q4 19 4 39z" />
    <glyph glyph-name="dcroat" unicode="&#x111;" horiz-adv-x="736" 
d="M816 521h-109l-116 -521h-169l-1 34q-67 -47 -154 -47q-71 0 -126 28.5t-85.5 78.5t-30.5 113q0 13 4 43l2 9q19 107 95 167t194 60q107 0 170 -49l19 84h-185l30 135h185l9 40h198l-9 -40h109zM228 224q0 -32 27 -50.5t76 -18.5q61 0 103 29l24 108q-18 15 -46.5 23
t-63.5 8q-51 0 -81 -19.5t-37 -57.5l-1 -7q-1 -5 -1 -15z" />
    <glyph glyph-name="Emacron" unicode="&#x112;" horiz-adv-x="723" 
d="M762 656l-37 -167h-405l-18 -78h385l-36 -165h-385l-19 -78h405l-36 -168h-610l146 656h610zM731 877l-34 -152h-452l34 152h452z" />
    <glyph glyph-name="emacron" unicode="&#x113;" horiz-adv-x="671" 
d="M511.5 492q65.5 -27 100.5 -75.5t35 -113.5q0 -20 -5 -48l-11 -50h-416q1 -34 27.5 -52.5t76.5 -18.5q81 0 103 34h203q-26 -88 -106 -134.5t-205 -46.5q-86 0 -150.5 29t-99.5 80.5t-35 118.5q0 22 5 50l4 18q20 113 103.5 174.5t217.5 61.5q87 0 152.5 -27zM241 318
h211q-5 29 -30.5 44.5t-68.5 15.5q-83 0 -112 -60zM639 727l-34 -152h-452l34 152h452z" />
    <glyph glyph-name="Ebreve" unicode="&#x114;" horiz-adv-x="723" 
d="M762 656l-37 -167h-405l-18 -78h385l-36 -165h-385l-19 -78h405l-36 -168h-610l146 656h610zM367.5 715q-59.5 13 -115.5 36l32 148q111 -45 222 -45q109 0 230 45l-36 -156q-108 -41 -217 -41q-56 0 -115.5 13z" />
    <glyph glyph-name="ebreve" unicode="&#x115;" horiz-adv-x="671" 
d="M511.5 492q65.5 -27 100.5 -75.5t35 -113.5q0 -20 -5 -48l-11 -50h-416q1 -34 27.5 -52.5t76.5 -18.5q81 0 103 34h203q-26 -88 -106 -134.5t-205 -46.5q-86 0 -150.5 29t-99.5 80.5t-35 118.5q0 22 5 50l4 18q20 113 103.5 174.5t217.5 61.5q87 0 152.5 -27zM241 318
h211q-5 29 -30.5 44.5t-68.5 15.5q-83 0 -112 -60zM275.5 565q-59.5 13 -115.5 36l32 148q111 -45 222 -45q109 0 230 45l-36 -156q-108 -41 -217 -41q-56 0 -115.5 13z" />
    <glyph glyph-name="Edotaccent" unicode="&#x116;" horiz-adv-x="723" 
d="M762 656l-37 -167h-405l-18 -78h385l-36 -165h-385l-19 -78h405l-36 -168h-610l146 656h610zM407.5 721.5q-30.5 26.5 -30.5 71.5q0 52 33.5 82.5t82.5 30.5q47 0 77.5 -26t30.5 -71q0 -52 -34 -83t-83 -31q-46 0 -76.5 26.5z" />
    <glyph glyph-name="edotaccent" unicode="&#x117;" horiz-adv-x="671" 
d="M511.5 492q65.5 -27 100.5 -75.5t35 -113.5q0 -20 -5 -48l-11 -50h-416q1 -34 27.5 -52.5t76.5 -18.5q81 0 103 34h203q-26 -88 -106 -134.5t-205 -46.5q-86 0 -150.5 29t-99.5 80.5t-35 118.5q0 22 5 50l4 18q20 113 103.5 174.5t217.5 61.5q87 0 152.5 -27zM241 318
h211q-5 29 -30.5 44.5t-68.5 15.5q-83 0 -112 -60zM315.5 571.5q-30.5 26.5 -30.5 71.5q0 52 33.5 82.5t82.5 30.5q47 0 77.5 -26t30.5 -71q0 -52 -34 -83t-83 -31q-46 0 -76.5 26.5z" />
    <glyph glyph-name="Eogonek" unicode="&#x118;" horiz-adv-x="723" 
d="M762 656l-37 -167h-405l-18 -78h385l-36 -165h-385l-19 -78h405l-36 -168h-610l146 656h610zM364 -150.5q-28 19.5 -28 53.5q0 27 18.5 50.5t63.5 53.5l149 96l49 -103l-48 -35q-10 -7 -13.5 -11t-3.5 -8q0 -9 14 -9h36l-23 -107h-138q-48 0 -76 19.5z" />
    <glyph glyph-name="eogonek" unicode="&#x119;" horiz-adv-x="671" 
d="M511.5 492q65.5 -27 100.5 -75.5t35 -113.5q0 -20 -5 -48l-11 -50h-416q1 -34 27.5 -52.5t76.5 -18.5q81 0 103 34h203q-26 -88 -106 -134.5t-205 -46.5q-86 0 -150.5 29t-99.5 80.5t-35 118.5q0 22 5 50l4 18q20 113 103.5 174.5t217.5 61.5q87 0 152.5 -27zM241 318
h211q-5 29 -30.5 44.5t-68.5 15.5q-83 0 -112 -60zM229 -149.5q-27 20.5 -27 53.5q0 30 19.5 55t66.5 57l181 126l90 -77l-121 -96q-15 -11 -16 -19v-2q0 -5 4 -8t10 -3h46l-23 -107h-154q-49 0 -76 20.5z" />
    <glyph glyph-name="Ecaron" unicode="&#x11a;" horiz-adv-x="723" 
d="M762 656l-37 -167h-405l-18 -78h385l-36 -165h-385l-19 -78h405l-36 -168h-610l146 656h610zM284 904l207 -54l247 58l-36 -159l-225 -54l-225 58z" />
    <glyph glyph-name="ecaron" unicode="&#x11b;" horiz-adv-x="671" 
d="M511.5 492q65.5 -27 100.5 -75.5t35 -113.5q0 -20 -5 -48l-11 -50h-416q1 -34 27.5 -52.5t76.5 -18.5q81 0 103 34h203q-26 -88 -106 -134.5t-205 -46.5q-86 0 -150.5 29t-99.5 80.5t-35 118.5q0 22 5 50l4 18q20 113 103.5 174.5t217.5 61.5q87 0 152.5 -27zM241 318
h211q-5 29 -30.5 44.5t-68.5 15.5q-83 0 -112 -60zM192 754l207 -54l247 58l-36 -159l-225 -54l-225 58z" />
    <glyph glyph-name="Gcircumflex" unicode="&#x11c;" horiz-adv-x="879" 
d="M705.5 642.5q88.5 -26.5 136.5 -75t48 -111.5q0 -8 -2 -26l-1 -3h-209l1 3q3 18 -19 33t-63 23.5t-92 8.5q-108 0 -168.5 -38.5t-75.5 -116.5l-2 -10q-5 -25 -5 -43q0 -124 192 -124q60 0 112 10.5t89 29.5l5 24h-311l31 144h503l-82 -371h-172l2 36q-46 -27 -92 -38
t-109 -11q-112 0 -196.5 37t-130.5 103.5t-46 152.5q0 26 7 66l1 5q31 154 144.5 236t298.5 82q117 0 205.5 -26.5zM558 906l220 -58l-32 -151l-209 54l-245 -57l36 158z" />
    <glyph glyph-name="gcircumflex" unicode="&#x11d;" horiz-adv-x="709" 
d="M705 506l-106 -457q-19 -83 -59 -133.5t-107 -75t-169 -23.5q-137 0 -211 46.5t-74 131.5q0 14 1 21v5h199l-1 -5q-2 -19 25.5 -31.5t72.5 -12.5q58 0 88.5 19t39.5 61l3 15q-58 -31 -135 -31q-112 0 -175.5 53.5t-63.5 146.5q0 24 4 45l1 7q18 111 94 171t200 60
q114 0 177 -57l16 44h180zM444 225l22 94q-17 17 -45 26t-63 9q-108 0 -120 -74l-1 -8q-1 -5 -1 -13q0 -62 102 -62q66 0 106 28zM426 756l220 -58l-32 -151l-209 54l-245 -57l36 158z" />
    <glyph glyph-name="Gbreve" unicode="&#x11e;" horiz-adv-x="879" 
d="M705.5 642.5q88.5 -26.5 136.5 -75t48 -111.5q0 -8 -2 -26l-1 -3h-209l1 3q3 18 -19 33t-63 23.5t-92 8.5q-108 0 -168.5 -38.5t-75.5 -116.5l-2 -10q-5 -25 -5 -43q0 -124 192 -124q60 0 112 10.5t89 29.5l5 24h-311l31 144h503l-82 -371h-172l2 36q-46 -27 -92 -38
t-109 -11q-112 0 -196.5 37t-130.5 103.5t-46 152.5q0 26 7 66l1 5q31 154 144.5 236t298.5 82q117 0 205.5 -26.5zM422.5 715q-59.5 13 -115.5 36l32 148q111 -45 222 -45q109 0 230 45l-36 -156q-108 -41 -217 -41q-56 0 -115.5 13z" />
    <glyph glyph-name="gbreve" unicode="&#x11f;" horiz-adv-x="709" 
d="M705 506l-106 -457q-19 -83 -59 -133.5t-107 -75t-169 -23.5q-137 0 -211 46.5t-74 131.5q0 14 1 21v5h199l-1 -5q-2 -19 25.5 -31.5t72.5 -12.5q58 0 88.5 19t39.5 61l3 15q-58 -31 -135 -31q-112 0 -175.5 53.5t-63.5 146.5q0 24 4 45l1 7q18 111 94 171t200 60
q114 0 177 -57l16 44h180zM444 225l22 94q-17 17 -45 26t-63 9q-108 0 -120 -74l-1 -8q-1 -5 -1 -13q0 -62 102 -62q66 0 106 28zM289.5 565q-59.5 13 -115.5 36l32 148q111 -45 222 -45q109 0 230 45l-36 -156q-108 -41 -217 -41q-56 0 -115.5 13z" />
    <glyph glyph-name="Gdotaccent" unicode="&#x120;" horiz-adv-x="879" 
d="M705.5 642.5q88.5 -26.5 136.5 -75t48 -111.5q0 -8 -2 -26l-1 -3h-209l1 3q3 18 -19 33t-63 23.5t-92 8.5q-108 0 -168.5 -38.5t-75.5 -116.5l-2 -10q-5 -25 -5 -43q0 -124 192 -124q60 0 112 10.5t89 29.5l5 24h-311l31 144h503l-82 -371h-172l2 36q-46 -27 -92 -38
t-109 -11q-112 0 -196.5 37t-130.5 103.5t-46 152.5q0 26 7 66l1 5q31 154 144.5 236t298.5 82q117 0 205.5 -26.5zM462.5 721.5q-30.5 26.5 -30.5 71.5q0 52 33.5 82.5t82.5 30.5q47 0 77.5 -26t30.5 -71q0 -52 -34 -83t-83 -31q-46 0 -76.5 26.5z" />
    <glyph glyph-name="gdotaccent" unicode="&#x121;" horiz-adv-x="709" 
d="M705 506l-106 -457q-19 -83 -59 -133.5t-107 -75t-169 -23.5q-137 0 -211 46.5t-74 131.5q0 14 1 21v5h199l-1 -5q-2 -19 25.5 -31.5t72.5 -12.5q58 0 88.5 19t39.5 61l3 15q-58 -31 -135 -31q-112 0 -175.5 53.5t-63.5 146.5q0 24 4 45l1 7q18 111 94 171t200 60
q114 0 177 -57l16 44h180zM444 225l22 94q-17 17 -45 26t-63 9q-108 0 -120 -74l-1 -8q-1 -5 -1 -13q0 -62 102 -62q66 0 106 28zM329.5 571.5q-30.5 26.5 -30.5 71.5q0 52 33.5 82.5t82.5 30.5q47 0 77.5 -26t30.5 -71q0 -52 -34 -83t-83 -31q-46 0 -76.5 26.5z" />
    <glyph glyph-name="uni0122" unicode="&#x122;" horiz-adv-x="879" 
d="M705.5 642.5q88.5 -26.5 136.5 -75t48 -111.5q0 -8 -2 -26l-1 -3h-209l1 3q3 18 -19 33t-63 23.5t-92 8.5q-108 0 -168.5 -38.5t-75.5 -116.5l-2 -10q-5 -25 -5 -43q0 -124 192 -124q60 0 112 10.5t89 29.5l5 24h-311l31 144h503l-82 -371h-172l2 36q-46 -27 -92 -38
t-109 -11q-112 0 -196.5 37t-130.5 103.5t-46 152.5q0 26 7 66l1 5q31 154 144.5 236t298.5 82q117 0 205.5 -26.5zM505 -58l-111 -192h-199l101 192h209z" />
    <glyph glyph-name="uni0123" unicode="&#x123;" horiz-adv-x="709" 
d="M705 506l-106 -457q-19 -83 -59 -133.5t-107 -75t-169 -23.5q-137 0 -211 46.5t-74 131.5q0 14 1 21v5h199l-1 -5q-2 -19 25.5 -31.5t72.5 -12.5q58 0 88.5 19t39.5 61l3 15q-58 -31 -135 -31q-112 0 -175.5 53.5t-63.5 146.5q0 24 4 45l1 7q18 111 94 171t200 60
q114 0 177 -57l16 44h180zM444 225l22 94q-17 17 -45 26t-63 9q-108 0 -120 -74l-1 -8q-1 -5 -1 -13q0 -62 102 -62q66 0 106 28zM568 746l-92 -192h-204l101 192h195z" />
    <glyph glyph-name="Hcircumflex" unicode="&#x124;" horiz-adv-x="819" 
d="M357 656l-54 -240h285l54 240h205l-146 -656h-205l54 240h-285l-54 -240h-205l146 656h205zM547 906l220 -58l-32 -151l-209 54l-245 -57l36 158z" />
    <glyph glyph-name="hcircumflex" unicode="&#x125;" horiz-adv-x="711" 
d="M606 463q59 -56 59 -151q0 -36 -9 -75l-52 -237h-198l56 246q4 22 4 30q0 34 -22.5 52.5t-64.5 18.5q-33 0 -61.5 -13.5t-49.5 -37.5l-66 -296h-198l155 696h198l-47 -212q61 35 133 35q104 0 163 -56zM295 911l220 -58l-32 -151l-209 54l-245 -57l36 158z" />
    <glyph glyph-name="Hbar" unicode="&#x126;" horiz-adv-x="819" 
d="M869 424h-75l-94 -424h-205l42 184h-284l-42 -184h-205l94 424h-73l37 169h74l14 63h205l-14 -63h284l14 63h205l-14 -63h74zM589 424h-284l-16 -71h284z" />
    <glyph glyph-name="hbar" unicode="&#x127;" horiz-adv-x="737" 
d="M622.5 424.5q59.5 -56.5 59.5 -151.5q0 -35 -9 -74l-44 -199h-198l48 208q4 20 4 29q0 34 -23 53t-64 19q-33 0 -62 -13.5t-50 -38.5l-57 -257h-198l116 521h-104l29 135h105l9 40h198l-9 -40h189l-29 -135h-190l-17 -76q60 36 134 36q103 0 162.5 -56.5z" />
    <glyph glyph-name="Itilde" unicode="&#x128;" horiz-adv-x="299" 
d="M342 656l-146 -656h-206l147 656h205zM294 714.5q-17 3.5 -42 10.5q-24 7 -40.5 10.5t-33.5 3.5q-41 0 -84 -24l35 153q40 23 85 23q23 0 45.5 -7t27.5 -8q23 -8 40.5 -12t36.5 -4q45 0 83 22l-34 -153q-40 -18 -84 -18q-18 0 -35 3.5z" />
    <glyph glyph-name="itilde" unicode="&#x129;" horiz-adv-x="286" 
d="M299 506l-113 -506h-199l114 506h198zM254 564.5q-17 3.5 -42 10.5q-24 7 -40.5 10.5t-33.5 3.5q-41 0 -84 -24l35 153q40 23 85 23q23 0 45.5 -7t27.5 -8q23 -8 40.5 -12t36.5 -4q45 0 83 22l-34 -153q-40 -18 -84 -18q-18 0 -35 3.5z" />
    <glyph glyph-name="Imacron" unicode="&#x12a;" horiz-adv-x="299" 
d="M342 656l-146 -656h-206l147 656h205zM447 877l-34 -152h-316l34 152h316z" />
    <glyph glyph-name="imacron" unicode="&#x12b;" horiz-adv-x="286" 
d="M299 506l-113 -506h-199l114 506h198zM406 727l-34 -152h-316l34 152h316z" />
    <glyph glyph-name="Ibreve" unicode="&#x12c;" horiz-adv-x="299" 
d="M342 656l-146 -656h-206l147 656h205zM177 716q-40 13 -73 35l32 147q68 -43 151 -43q90 0 165 43l-37 -158q-63 -37 -156 -37q-42 0 -82 13z" />
    <glyph glyph-name="ibreve" unicode="&#x12d;" horiz-adv-x="286" 
d="M299 506l-113 -506h-199l114 506h198zM136 566q-40 13 -73 35l32 147q68 -43 151 -43q90 0 165 43l-37 -158q-63 -37 -156 -37q-42 0 -82 13z" />
    <glyph glyph-name="Iogonek" unicode="&#x12e;" horiz-adv-x="299" 
d="M342 656l-146 -656h-206l147 656h205zM-57 -150.5q-28 19.5 -28 53.5q0 27 18.5 50.5t63.5 53.5l149 96l49 -103l-48 -35q-10 -7 -13.5 -11t-3.5 -8q0 -9 14 -9h36l-23 -107h-138q-48 0 -76 19.5z" />
    <glyph glyph-name="iogonek" unicode="&#x12f;" horiz-adv-x="286" 
d="M299 506l-113 -506h-199l114 506h198zM150.5 571.5q-30.5 26.5 -30.5 71.5q0 52 33.5 82.5t82.5 30.5q47 0 77.5 -26t30.5 -71q0 -52 -34 -83t-83 -31q-46 0 -76.5 26.5zM-67 -150.5q-28 19.5 -28 53.5q0 27 18.5 50.5t63.5 53.5l149 96l49 -103l-48 -35
q-10 -7 -13.5 -11t-3.5 -8q0 -9 14 -9h36l-23 -107h-138q-48 0 -76 19.5z" />
    <glyph glyph-name="Idotaccent" unicode="&#x130;" horiz-adv-x="299" 
d="M342 656l-146 -656h-206l147 656h205zM191.5 721.5q-30.5 26.5 -30.5 71.5q0 52 33.5 82.5t82.5 30.5q47 0 77.5 -26t30.5 -71q0 -52 -34 -83t-83 -31q-46 0 -76.5 26.5z" />
    <glyph glyph-name="dotlessi" unicode="&#x131;" horiz-adv-x="286" 
d="M299 506l-113 -506h-199l114 506h198z" />
    <glyph glyph-name="IJ" unicode="&#x132;" horiz-adv-x="841" 
d="M357 656l-146 -656h-205l146 656h205zM442 176q68 0 101.5 29t50.5 102l42 174h-239l38 175h444l-83 -357q-36 -155 -122.5 -227t-240.5 -72h-144l38 176h115z" />
    <glyph glyph-name="ij" unicode="&#x133;" horiz-adv-x="572" 
d="M299 506l-113 -506h-199l114 506h198zM150.5 571.5q-30.5 26.5 -30.5 71.5q0 52 33.5 82.5t82.5 30.5q47 0 77.5 -26t30.5 -71q0 -52 -34 -83t-83 -31q-46 0 -76.5 26.5zM231 -5q40 0 48 34l107 477h198l-114 -505q-18 -81 -76.5 -126t-147.5 -45h-108l35 165h58z
M437.5 571.5q-30.5 26.5 -30.5 71.5q0 52 33.5 82.5t82.5 30.5q47 0 77.5 -26t30.5 -71q0 -52 -34 -83t-83 -31q-46 0 -76.5 26.5z" />
    <glyph glyph-name="Jcircumflex" unicode="&#x134;" horiz-adv-x="749" 
d="M186.5 19.5q-71.5 32.5 -111 91t-39.5 134.5q0 29 6 60l6 28h203l-6 -28q-5 -23 -5 -38q0 -47 30 -72t86 -25q63 0 96 29.5t50 99.5l43 182h-269l38 175h474l-96 -388q-34 -139 -117.5 -210t-221.5 -71q-95 0 -166.5 32.5zM587 906l220 -58l-32 -151l-209 54l-245 -57
l36 158z" />
    <glyph glyph-name="jcircumflex" unicode="&#x135;" horiz-adv-x="286" 
d="M-55 -5q40 0 48 34l107 477h198l-114 -505q-18 -81 -76.5 -126t-147.5 -45h-108l35 165h58zM244 749l161 -30l-33 -153l-143 26l-175 -30l37 161z" />
    <glyph glyph-name="uni0136" unicode="&#x136;" horiz-adv-x="813" 
d="M868 626l-331 -267l177 -329l-6 -30h-201l-133 254l-130 -104l-33 -150h-205l146 656h205l-60 -268l333 268h245zM438 -58l-111 -192h-199l101 192h209z" />
    <glyph glyph-name="uni0137" unicode="&#x137;" horiz-adv-x="681" 
d="M725 479l-230 -195l139 -257l-6 -27h-194l-91 172l-124 -96l-17 -76h-198l155 696h198l-85 -382l230 192h229zM377 -58l-111 -192h-199l101 192h209z" />
    <glyph glyph-name="Lacute" unicode="&#x139;" horiz-adv-x="687" 
d="M357 656l-108 -480h405l-38 -176h-610l146 656h205zM538 909l-36 -156l-465 -60l36 156z" />
    <glyph glyph-name="lacute" unicode="&#x13a;" horiz-adv-x="319" 
d="M69.5 36.5q-43.5 36.5 -43.5 98.5q0 17 5 42l112 519h198l-113 -503q-1 -3 -1 -8q0 -19 27 -19h40l-36 -166h-68q-77 0 -120.5 36.5zM450 911l-36 -156l-326 -44l36 156z" />
    <glyph glyph-name="uni013B" unicode="&#x13b;" horiz-adv-x="687" 
d="M357 656l-108 -480h405l-38 -176h-610l146 656h205zM407 -58l-111 -192h-199l101 192h209z" />
    <glyph glyph-name="uni013C" unicode="&#x13c;" horiz-adv-x="319" 
d="M69.5 36.5q-43.5 36.5 -43.5 98.5q0 17 5 42l112 519h198l-113 -503q-1 -3 -1 -8q0 -19 27 -19h40l-36 -166h-68q-77 0 -120.5 36.5zM267 -58l-111 -192h-199l101 192h209z" />
    <glyph glyph-name="Lcaron" unicode="&#x13d;" horiz-adv-x="687" 
d="M357 656l-108 -480h405l-38 -176h-610l146 656h205zM698 656l-109 -190h-177l65 190h221z" />
    <glyph glyph-name="lcaron" unicode="&#x13e;" horiz-adv-x="509" 
d="M69.5 36.5q-43.5 36.5 -43.5 98.5q0 17 5 42l112 519h198l-113 -503q-1 -3 -1 -8q0 -19 27 -19h40l-36 -166h-68q-77 0 -120.5 36.5zM635 696l-109 -190h-177l65 190h221z" />
    <glyph glyph-name="Ldot" unicode="&#x13f;" horiz-adv-x="687" 
d="M357 656l-108 -480h405l-38 -176h-610l146 656h205zM459 318q-30 28 -30 72q0 52 33 84.5t84 32.5q48 0 77.5 -27.5t29.5 -71.5q0 -52 -32.5 -85t-83.5 -33q-48 0 -78 28z" />
    <glyph glyph-name="ldot" unicode="&#x140;" horiz-adv-x="407" 
d="M69.5 36.5q-43.5 36.5 -43.5 98.5q0 17 5 42l112 519h198l-113 -503q-1 -3 -1 -8q0 -19 27 -19h40l-36 -166h-68q-77 0 -120.5 36.5zM302 265.5q-23 24.5 -23 65.5q0 19 4 36q7 43 32 66.5t61 23.5q41 0 64 -23.5t23 -63.5q0 -16 -5 -38q-8 -42 -33 -66.5t-60 -24.5
q-40 0 -63 24.5z" />
    <glyph glyph-name="Lslash" unicode="&#x141;" horiz-adv-x="720" 
d="M687 176l-38 -176h-610l55 245l-113 -23l44 185l110 23l50 226h205l-43 -193l260 54l-43 -185l-259 -53l-23 -103h405z" />
    <glyph glyph-name="lslash" unicode="&#x142;" horiz-adv-x="398" 
d="M267 193q-1 -3 -1 -8q0 -19 27 -19h40l-36 -166h-68q-77 0 -120 37t-43 99q0 22 4 41l22 104l-101 -20l40 174l99 19l52 242h198l-47 -211l123 25l-40 -174l-122 -24z" />
    <glyph glyph-name="Nacute" unicode="&#x143;" horiz-adv-x="819" 
d="M847 656l-146 -656h-186l-231 387l-86 -387h-192l146 656h186l231 -387l86 387h192zM782 909l-36 -156l-465 -60l36 156z" />
    <glyph glyph-name="nacute" unicode="&#x144;" horiz-adv-x="711" 
d="M605 464q59 -56 59 -152q0 -40 -8 -75l-51 -237h-199l56 246q4 22 4 30q0 34 -22.5 52.5t-64.5 18.5q-33 0 -61.5 -13.5t-49.5 -37.5l-66 -296h-198l113 506h175l-1 -35q68 48 152 48q103 1 162 -55zM700 759l-36 -156l-465 -60l36 156z" />
    <glyph glyph-name="uni0145" unicode="&#x145;" horiz-adv-x="819" 
d="M847 656l-146 -656h-186l-231 387l-86 -387h-192l146 656h186l231 -387l86 387h192zM444 -58l-111 -192h-199l101 192h209z" />
    <glyph glyph-name="uni0146" unicode="&#x146;" horiz-adv-x="711" 
d="M605 464q59 -56 59 -152q0 -40 -8 -75l-51 -237h-199l56 246q4 22 4 30q0 34 -22.5 52.5t-64.5 18.5q-33 0 -61.5 -13.5t-49.5 -37.5l-66 -296h-198l113 506h175l-1 -35q68 48 152 48q103 1 162 -55zM395 -58l-111 -192h-199l101 192h209z" />
    <glyph glyph-name="Ncaron" unicode="&#x147;" horiz-adv-x="819" 
d="M847 656l-146 -656h-186l-231 387l-86 -387h-192l146 656h186l231 -387l86 387h192zM328 904l207 -54l247 58l-36 -159l-225 -54l-225 58z" />
    <glyph glyph-name="ncaron" unicode="&#x148;" horiz-adv-x="711" 
d="M605 464q59 -56 59 -152q0 -40 -8 -75l-51 -237h-199l56 246q4 22 4 30q0 34 -22.5 52.5t-64.5 18.5q-33 0 -61.5 -13.5t-49.5 -37.5l-66 -296h-198l113 506h175l-1 -35q68 48 152 48q103 1 162 -55zM245 754l207 -54l247 58l-36 -159l-225 -54l-225 58z" />
    <glyph glyph-name="Eng" unicode="&#x14a;" horiz-adv-x="819" 
d="M847 656l-132 -585q-29 -128 -98 -184.5t-196 -56.5h-72l38 170h47q48 0 68 24l-217 367l-87 -391h-192l146 656h188l228 -386l87 386h192z" />
    <glyph glyph-name="eng" unicode="&#x14b;" horiz-adv-x="711" 
d="M606 465q60 -55 60 -149q0 -40 -10 -80l-44 -179q-20 -82 -55 -131t-92.5 -72.5t-145.5 -23.5h-67l38 170h40q42 0 62.5 17.5t30.5 59.5l38 165q4 15 4 32q0 35 -21.5 54t-62.5 19q-33 0 -62 -13t-50 -36l-67 -298h-198l113 506h175l-1 -35q68 48 152 48q103 1 163 -54z
" />
    <glyph glyph-name="Omacron" unicode="&#x14c;" horiz-adv-x="877" 
d="M229 24q-86 37 -133 104t-47 153q0 34 7 66l1 5q30 151 141 234t284 83q114 0 200 -37t132.5 -103t46.5 -152q0 -36 -7 -68l-1 -5q-29 -152 -139.5 -234.5t-284.5 -82.5q-114 0 -200 37zM649 313l2 11q4 17 4 36q0 59 -48 93t-136 34q-177 0 -210 -145l-2 -11
q-5 -22 -5 -38q0 -58 47.5 -90.5t135.5 -32.5q182 0 212 143zM781 877l-34 -152h-452l34 152h452z" />
    <glyph glyph-name="omacron" unicode="&#x14d;" horiz-adv-x="685" 
d="M171 16q-67 29 -103 81.5t-36 122.5q0 27 4 50l2 9q17 114 101 177t220 63q91 0 157.5 -28.5t101.5 -81t35 -123.5q0 -23 -5 -53l-1 -9q-18 -113 -100.5 -175t-217.5 -62q-91 0 -158 29zM413 180q29 21 37 62l1 4q2 14 2 21q0 38 -27.5 59.5t-75.5 21.5t-78 -22.5
t-37 -64.5l-1 -5q-2 -14 -2 -20q0 -35 28 -56t76 -21t77 21zM644 727l-34 -152h-452l34 152h452z" />
    <glyph glyph-name="Obreve" unicode="&#x14e;" horiz-adv-x="877" 
d="M229 24q-86 37 -133 104t-47 153q0 34 7 66l1 5q30 151 141 234t284 83q114 0 200 -37t132.5 -103t46.5 -152q0 -36 -7 -68l-1 -5q-29 -152 -139.5 -234.5t-284.5 -82.5q-114 0 -200 37zM649 313l2 11q4 17 4 36q0 59 -48 93t-136 34q-177 0 -210 -145l-2 -11
q-5 -22 -5 -38q0 -58 47.5 -90.5t135.5 -32.5q182 0 212 143zM417.5 715q-59.5 13 -115.5 36l32 148q111 -45 222 -45q109 0 230 45l-36 -156q-108 -41 -217 -41q-56 0 -115.5 13z" />
    <glyph glyph-name="obreve" unicode="&#x14f;" horiz-adv-x="685" 
d="M171 16q-67 29 -103 81.5t-36 122.5q0 27 4 50l2 9q17 114 101 177t220 63q91 0 157.5 -28.5t101.5 -81t35 -123.5q0 -23 -5 -53l-1 -9q-18 -113 -100.5 -175t-217.5 -62q-91 0 -158 29zM413 180q29 21 37 62l1 4q2 14 2 21q0 38 -27.5 59.5t-75.5 21.5t-78 -22.5
t-37 -64.5l-1 -5q-2 -14 -2 -20q0 -35 28 -56t76 -21t77 21zM280.5 565q-59.5 13 -115.5 36l32 148q111 -45 222 -45q109 0 230 45l-36 -156q-108 -41 -217 -41q-56 0 -115.5 13z" />
    <glyph glyph-name="Ohungarumlaut" unicode="&#x150;" horiz-adv-x="877" 
d="M229 24q-86 37 -133 104t-47 153q0 34 7 66l1 5q30 151 141 234t284 83q114 0 200 -37t132.5 -103t46.5 -152q0 -36 -7 -68l-1 -5q-29 -152 -139.5 -234.5t-284.5 -82.5q-114 0 -200 37zM649 313l2 11q4 17 4 36q0 59 -48 93t-136 34q-177 0 -210 -145l-2 -11
q-5 -22 -5 -38q0 -58 47.5 -90.5t135.5 -32.5q182 0 212 143zM575 908l-36 -157l-293 -57l37 157zM895 908l-36 -157l-293 -57l37 157z" />
    <glyph glyph-name="ohungarumlaut" unicode="&#x151;" horiz-adv-x="685" 
d="M171 16q-67 29 -103 81.5t-36 122.5q0 27 4 50l2 9q17 114 101 177t220 63q91 0 157.5 -28.5t101.5 -81t35 -123.5q0 -23 -5 -53l-1 -9q-18 -113 -100.5 -175t-217.5 -62q-91 0 -158 29zM413 180q29 21 37 62l1 4q2 14 2 21q0 38 -27.5 59.5t-75.5 21.5t-78 -22.5
t-37 -64.5l-1 -5q-2 -14 -2 -20q0 -35 28 -56t76 -21t77 21zM438 758l-36 -157l-293 -57l37 157zM758 758l-36 -157l-293 -57l37 157z" />
    <glyph glyph-name="OE" unicode="&#x152;" horiz-adv-x="1263" 
d="M208.5 32.5q-77.5 32.5 -118.5 93.5t-41 144q0 39 9 79l1 7q22 106 73.5 171.5t138 97t216.5 31.5h815l-37 -167h-436l-18 -78h384l-36 -165h-384l-19 -78h436l-36 -168h-761q-109 0 -186.5 32.5zM623 481h-160q-91 0 -139 -33t-63 -106l-2 -12q-5 -25 -5 -41
q0 -55 38.5 -84t113.5 -29h147z" />
    <glyph glyph-name="oe" unicode="&#x153;" horiz-adv-x="1114" 
d="M952 491.5q66 -27.5 101.5 -77.5t35.5 -116q0 -26 -4 -47l-10 -45h-421q2 -33 31 -53t78 -20q80 0 103 35h203q-28 -88 -106.5 -134.5t-201.5 -46.5q-71 0 -126.5 21t-90.5 59q-78 -80 -218 -80q-89 0 -156 29t-103 81t-36 121q0 22 5 52l2 10q19 113 102.5 176t215.5 63
q72 0 127.5 -22.5t88.5 -64.5q82 87 225 87q89 0 155 -27.5zM678 317h220q-6 29 -33.5 45t-70.5 16q-85 0 -116 -61zM457 268q0 37 -28 58.5t-77 21.5q-50 0 -80 -22t-37 -65l-1 -5q-2 -14 -2 -20q0 -36 28 -56.5t78 -20.5q101 0 116 83l1 4q2 8 2 22z" />
    <glyph glyph-name="Racute" unicode="&#x154;" horiz-adv-x="806" 
d="M685 632q53 -24 82 -67.5t29 -99.5q0 -20 -5 -45l-2 -10q-16 -82 -72.5 -126t-159.5 -54l139 -200l-6 -30h-205l-150 228h-73l-51 -228h-205l146 656h409q71 0 124 -24zM590 446q0 20 -15 30.5t-43 10.5h-212l-27 -114h219q64 0 74 49l2 10q2 10 2 14zM749 909l-36 -156
l-465 -60l36 156z" />
    <glyph glyph-name="racute" unicode="&#x155;" horiz-adv-x="473" 
d="M515 506l-36 -165h-111q-78 0 -113 -31l-69 -310h-199l114 506h175l-1 -37q62 37 135 37h105zM579 759l-36 -156l-465 -60l36 156z" />
    <glyph glyph-name="uni0156" unicode="&#x156;" horiz-adv-x="806" 
d="M685 632q53 -24 82 -67.5t29 -99.5q0 -20 -5 -45l-2 -10q-16 -82 -72.5 -126t-159.5 -54l139 -200l-6 -30h-205l-150 228h-73l-51 -228h-205l146 656h409q71 0 124 -24zM590 446q0 20 -15 30.5t-43 10.5h-212l-27 -114h219q64 0 74 49l2 10q2 10 2 14zM436 -58l-111 -192
h-199l101 192h209z" />
    <glyph glyph-name="uni0157" unicode="&#x157;" horiz-adv-x="473" 
d="M515 506l-36 -165h-111q-78 0 -113 -31l-69 -310h-199l114 506h175l-1 -37q62 37 135 37h105zM185 -58l-111 -192h-199l101 192h209z" />
    <glyph glyph-name="Rcaron" unicode="&#x158;" horiz-adv-x="806" 
d="M685 632q53 -24 82 -67.5t29 -99.5q0 -20 -5 -45l-2 -10q-16 -82 -72.5 -126t-159.5 -54l139 -200l-6 -30h-205l-150 228h-73l-51 -228h-205l146 656h409q71 0 124 -24zM590 446q0 20 -15 30.5t-43 10.5h-212l-27 -114h219q64 0 74 49l2 10q2 10 2 14zM295 904l207 -54
l247 58l-36 -159l-225 -54l-225 58z" />
    <glyph glyph-name="rcaron" unicode="&#x159;" horiz-adv-x="473" 
d="M515 506l-36 -165h-111q-78 0 -113 -31l-69 -310h-199l114 506h175l-1 -37q62 37 135 37h105zM125 754l207 -54l247 58l-36 -159l-225 -54l-225 58z" />
    <glyph glyph-name="Sacute" unicode="&#x15a;" horiz-adv-x="771" 
d="M116.5 37q-80.5 50 -80.5 142q0 19 5 46l2 10h199l-2 -10q-1 -4 -1 -12q0 -29 34 -45.5t97 -16.5q66 0 99.5 11.5t38.5 34.5l1 6q2 15 -10.5 24.5t-43.5 14.5l-166 28q-91 16 -138 56.5t-47 103.5q0 20 4 39l2 10q19 95 103.5 142.5t237.5 47.5q148 0 227.5 -48
t79.5 -137q0 -22 -4 -41l-1 -8h-197l1 8q1 3 1 10q0 52 -123 52q-120 0 -128 -39l-1 -6q-2 -12 10.5 -20t42.5 -13l167 -28q94 -16 142 -57t48 -105q0 -17 -5 -42l-2 -10q-38 -198 -362 -198q-150 0 -230.5 50zM728 909l-36 -156l-465 -60l36 156z" />
    <glyph glyph-name="sacute" unicode="&#x15b;" horiz-adv-x="688" 
d="M95.5 27.5q-75.5 40.5 -75.5 115.5q0 18 2 27v3h179v-3q-5 -24 25.5 -35.5t100.5 -11.5q105 0 112 24l1 4q2 10 -6.5 15t-33.5 8l-137 15q-93 10 -141.5 44.5t-48.5 88.5q0 13 3 28l2 10q14 78 94.5 118.5t220.5 40.5q135 0 205 -39.5t70 -114.5q0 -19 -2 -29l-1 -3h-178
l1 3q4 24 -24.5 35.5t-90.5 11.5q-109 0 -115 -23l-1 -4q-5 -17 39 -22l140 -16q96 -10 144.5 -44.5t48.5 -90.5q0 -13 -3 -27l-2 -10q-32 -159 -312 -159q-141 0 -216.5 40.5zM672 759l-36 -156l-465 -60l36 156z" />
    <glyph glyph-name="Scircumflex" unicode="&#x15c;" horiz-adv-x="771" 
d="M116.5 37q-80.5 50 -80.5 142q0 19 5 46l2 10h199l-2 -10q-1 -4 -1 -12q0 -29 34 -45.5t97 -16.5q66 0 99.5 11.5t38.5 34.5l1 6q2 15 -10.5 24.5t-43.5 14.5l-166 28q-91 16 -138 56.5t-47 103.5q0 20 4 39l2 10q19 95 103.5 142.5t237.5 47.5q148 0 227.5 -48
t79.5 -137q0 -22 -4 -41l-1 -8h-197l1 8q1 3 1 10q0 52 -123 52q-120 0 -128 -39l-1 -6q-2 -12 10.5 -20t42.5 -13l167 -28q94 -16 142 -57t48 -105q0 -17 -5 -42l-2 -10q-38 -198 -362 -198q-150 0 -230.5 50zM493 906l220 -58l-32 -151l-209 54l-245 -57l36 158z" />
    <glyph glyph-name="scircumflex" unicode="&#x15d;" horiz-adv-x="688" 
d="M95.5 27.5q-75.5 40.5 -75.5 115.5q0 18 2 27v3h179v-3q-5 -24 25.5 -35.5t100.5 -11.5q105 0 112 24l1 4q2 10 -6.5 15t-33.5 8l-137 15q-93 10 -141.5 44.5t-48.5 88.5q0 13 3 28l2 10q14 78 94.5 118.5t220.5 40.5q135 0 205 -39.5t70 -114.5q0 -19 -2 -29l-1 -3h-178
l1 3q4 24 -24.5 35.5t-90.5 11.5q-109 0 -115 -23l-1 -4q-5 -17 39 -22l140 -16q96 -10 144.5 -44.5t48.5 -90.5q0 -13 -3 -27l-2 -10q-32 -159 -312 -159q-141 0 -216.5 40.5zM437 756l220 -58l-32 -151l-209 54l-245 -57l36 158z" />
    <glyph glyph-name="Scedilla" unicode="&#x15e;" horiz-adv-x="771" 
d="M116.5 37q-80.5 50 -80.5 142q0 19 5 46l2 10h199l-2 -10q-1 -4 -1 -12q0 -29 34 -45.5t97 -16.5q66 0 99.5 11.5t38.5 34.5l1 6q2 15 -10.5 24.5t-43.5 14.5l-166 28q-91 16 -138 56.5t-47 103.5q0 20 4 39l2 10q19 95 103.5 142.5t237.5 47.5q148 0 227.5 -48
t79.5 -137q0 -22 -4 -41l-1 -8h-197l1 8q1 3 1 10q0 52 -123 52q-120 0 -128 -39l-1 -6q-2 -12 10.5 -20t42.5 -13l167 -28q94 -16 142 -57t48 -105q0 -17 -5 -42l-2 -10q-38 -198 -362 -198q-150 0 -230.5 50zM456 0l-86 -170h-207l123 243z" />
    <glyph glyph-name="scedilla" unicode="&#x15f;" horiz-adv-x="688" 
d="M95.5 27.5q-75.5 40.5 -75.5 115.5q0 18 2 27v3h179v-3q-5 -24 25.5 -35.5t100.5 -11.5q105 0 112 24l1 4q2 10 -6.5 15t-33.5 8l-137 15q-93 10 -141.5 44.5t-48.5 88.5q0 13 3 28l2 10q14 78 94.5 118.5t220.5 40.5q135 0 205 -39.5t70 -114.5q0 -19 -2 -29l-1 -3h-178
l1 3q4 24 -24.5 35.5t-90.5 11.5q-109 0 -115 -23l-1 -4q-5 -17 39 -22l140 -16q96 -10 144.5 -44.5t48.5 -90.5q0 -13 -3 -27l-2 -10q-32 -159 -312 -159q-141 0 -216.5 40.5zM431 0l-86 -170h-207l123 243z" />
    <glyph glyph-name="Scaron" unicode="&#x160;" horiz-adv-x="771" 
d="M116.5 37q-80.5 50 -80.5 142q0 19 5 46l2 10h199l-2 -10q-1 -4 -1 -12q0 -29 34 -45.5t97 -16.5q66 0 99.5 11.5t38.5 34.5l1 6q2 15 -10.5 24.5t-43.5 14.5l-166 28q-91 16 -138 56.5t-47 103.5q0 20 4 39l2 10q19 95 103.5 142.5t237.5 47.5q148 0 227.5 -48
t79.5 -137q0 -22 -4 -41l-1 -8h-197l1 8q1 3 1 10q0 52 -123 52q-120 0 -128 -39l-1 -6q-2 -12 10.5 -20t42.5 -13l167 -28q94 -16 142 -57t48 -105q0 -17 -5 -42l-2 -10q-38 -198 -362 -198q-150 0 -230.5 50zM274 904l207 -54l247 58l-36 -159l-225 -54l-225 58z" />
    <glyph glyph-name="scaron" unicode="&#x161;" horiz-adv-x="688" 
d="M95.5 27.5q-75.5 40.5 -75.5 115.5q0 18 2 27v3h179v-3q-5 -24 25.5 -35.5t100.5 -11.5q105 0 112 24l1 4q2 10 -6.5 15t-33.5 8l-137 15q-93 10 -141.5 44.5t-48.5 88.5q0 13 3 28l2 10q14 78 94.5 118.5t220.5 40.5q135 0 205 -39.5t70 -114.5q0 -19 -2 -29l-1 -3h-178
l1 3q4 24 -24.5 35.5t-90.5 11.5q-109 0 -115 -23l-1 -4q-5 -17 39 -22l140 -16q96 -10 144.5 -44.5t48.5 -90.5q0 -13 -3 -27l-2 -10q-32 -159 -312 -159q-141 0 -216.5 40.5zM217 754l207 -54l247 58l-36 -159l-225 -54l-225 58z" />
    <glyph glyph-name="uni0162" unicode="&#x162;" horiz-adv-x="691" 
d="M66 481l39 175h661l-39 -175h-223l-108 -481h-205l108 481h-233zM396 0l-86 -170h-207l123 243z" />
    <glyph glyph-name="uni0163" unicode="&#x163;" horiz-adv-x="520" 
d="M317 201q-1 -4 -1 -11q0 -24 33 -24h116l-35 -166h-141q-80 0 -127 41t-47 108q0 17 5 42l32 150h-149l36 165h109q25 0 38 10.5t18 35.5l19 87h193l-30 -133h186l-36 -165h-187zM391 0l-86 -170h-207l123 243z" />
    <glyph glyph-name="Tcaron" unicode="&#x164;" horiz-adv-x="691" 
d="M66 481l39 175h661l-39 -175h-223l-108 -481h-205l108 481h-233zM264 904l207 -54l247 58l-36 -159l-225 -54l-225 58z" />
    <glyph glyph-name="tcaron" unicode="&#x165;" horiz-adv-x="570" 
d="M317 201q-1 -4 -1 -11q0 -24 33 -24h116l-35 -166h-141q-80 0 -127 41t-47 108q0 17 5 42l32 150h-149l36 165h109q25 0 38 10.5t18 35.5l19 87h193l-30 -133h186l-36 -165h-187zM730 740l-109 -190h-177l65 190h221z" />
    <glyph glyph-name="Tbar" unicode="&#x166;" horiz-adv-x="711" 
d="M514 481l-26 -118h177l-36 -169h-179l-44 -194h-205l44 194h-167l36 169h169l26 118h-232l38 175h661l-38 -175h-224z" />
    <glyph glyph-name="tbar" unicode="&#x167;" horiz-adv-x="558" 
d="M384 376l-9 -42h185l-28 -131h-187l-1 -6q-1 -4 -1 -10q0 -21 28 -21h121l-35 -166h-141q-80 0 -127 41t-47 108q0 17 5 42l3 12h-152l29 131h151l9 42h-151l29 130h110q26 0 38.5 10.5t17.5 35.5l19 87h193l-30 -133h186l-29 -130h-186z" />
    <glyph glyph-name="Utilde" unicode="&#x168;" horiz-adv-x="793" 
d="M213.5 20.5q-71.5 33.5 -109.5 94t-38 139.5q0 41 8 76l70 326h205l-78 -345q-5 -23 -5 -40q0 -48 31.5 -74.5t91.5 -26.5q65 0 103.5 32t53.5 98l82 356h205l-92 -375q-35 -144 -125 -219t-235 -75q-96 0 -167.5 33.5zM507 727q-37 7 -60.5 10.5t-49.5 3.5
q-65 0 -123 -27l33 148q51 27 111 27q34 0 68.5 -7t39.5 -8q35 -8 61 -12t54 -4q62 0 123 26l-34 -148q-52 -23 -110 -23q-41 0 -113 14z" />
    <glyph glyph-name="utilde" unicode="&#x169;" horiz-adv-x="711" 
d="M707 506l-113 -506h-175l1 35q-67 -48 -152 -48q-103 -1 -162.5 55.5t-59.5 152.5q0 35 9 75l52 236h198l-56 -245q-4 -22 -4 -30q0 -34 22.5 -52.5t64.5 -18.5q34 0 62.5 13t48.5 37l66 296h198zM426 577q-37 7 -60.5 10.5t-49.5 3.5q-65 0 -123 -27l33 148
q51 27 111 27q34 0 68.5 -7t39.5 -8q35 -8 61 -12t54 -4q62 0 123 26l-34 -148q-52 -23 -110 -23q-41 0 -113 14z" />
    <glyph glyph-name="Umacron" unicode="&#x16a;" horiz-adv-x="793" 
d="M213.5 20.5q-71.5 33.5 -109.5 94t-38 139.5q0 41 8 76l70 326h205l-78 -345q-5 -23 -5 -40q0 -48 31.5 -74.5t91.5 -26.5q65 0 103.5 32t53.5 98l82 356h205l-92 -375q-35 -144 -125 -219t-235 -75q-96 0 -167.5 33.5zM762 877l-34 -152h-452l34 152h452z" />
    <glyph glyph-name="umacron" unicode="&#x16b;" horiz-adv-x="711" 
d="M707 506l-113 -506h-175l1 35q-67 -48 -152 -48q-103 -1 -162.5 55.5t-59.5 152.5q0 35 9 75l52 236h198l-56 -245q-4 -22 -4 -30q0 -34 22.5 -52.5t64.5 -18.5q34 0 62.5 13t48.5 37l66 296h198zM681 727l-34 -152h-452l34 152h452z" />
    <glyph glyph-name="Ubreve" unicode="&#x16c;" horiz-adv-x="793" 
d="M213.5 20.5q-71.5 33.5 -109.5 94t-38 139.5q0 41 8 76l70 326h205l-78 -345q-5 -23 -5 -40q0 -48 31.5 -74.5t91.5 -26.5q65 0 103.5 32t53.5 98l82 356h205l-92 -375q-35 -144 -125 -219t-235 -75q-96 0 -167.5 33.5zM398.5 715q-59.5 13 -115.5 36l32 148
q111 -45 222 -45q109 0 230 45l-36 -156q-108 -41 -217 -41q-56 0 -115.5 13z" />
    <glyph glyph-name="ubreve" unicode="&#x16d;" horiz-adv-x="711" 
d="M707 506l-113 -506h-175l1 35q-67 -48 -152 -48q-103 -1 -162.5 55.5t-59.5 152.5q0 35 9 75l52 236h198l-56 -245q-4 -22 -4 -30q0 -34 22.5 -52.5t64.5 -18.5q34 0 62.5 13t48.5 37l66 296h198zM317.5 565q-59.5 13 -115.5 36l32 148q111 -45 222 -45q109 0 230 45
l-36 -156q-108 -41 -217 -41q-56 0 -115.5 13z" />
    <glyph glyph-name="Uring" unicode="&#x16e;" horiz-adv-x="793" 
d="M213.5 20.5q-71.5 33.5 -109.5 94t-38 139.5q0 41 8 76l70 326h205l-78 -345q-5 -23 -5 -40q0 -48 31.5 -74.5t91.5 -26.5q65 0 103.5 32t53.5 98l82 356h205l-92 -375q-35 -144 -125 -219t-235 -75q-96 0 -167.5 33.5zM391 728.5q-46 35.5 -46 101.5q0 69 50.5 109
t136.5 40q81 0 128.5 -37t47.5 -101q0 -69 -50.5 -108.5t-137.5 -39.5q-83 0 -129 35.5zM562 806.5q14 12.5 14 33.5q0 18 -12 28t-34 10q-26 0 -40 -12t-14 -34q0 -18 12.5 -28t34.5 -10q25 0 39 12.5z" />
    <glyph glyph-name="uring" unicode="&#x16f;" horiz-adv-x="711" 
d="M707 506l-113 -506h-175l1 35q-67 -48 -152 -48q-103 -1 -162.5 55.5t-59.5 152.5q0 35 9 75l52 236h198l-56 -245q-4 -22 -4 -30q0 -34 22.5 -52.5t64.5 -18.5q34 0 62.5 13t48.5 37l66 296h198zM310 578.5q-46 35.5 -46 101.5q0 69 50.5 109t136.5 40q81 0 128.5 -37
t47.5 -101q0 -69 -50.5 -108.5t-137.5 -39.5q-83 0 -129 35.5zM481 656.5q14 12.5 14 33.5q0 18 -12 28t-34 10q-26 0 -40 -12t-14 -34q0 -18 12.5 -28t34.5 -10q25 0 39 12.5z" />
    <glyph glyph-name="Uhungarumlaut" unicode="&#x170;" horiz-adv-x="793" 
d="M213.5 20.5q-71.5 33.5 -109.5 94t-38 139.5q0 41 8 76l70 326h205l-78 -345q-5 -23 -5 -40q0 -48 31.5 -74.5t91.5 -26.5q65 0 103.5 32t53.5 98l82 356h205l-92 -375q-35 -144 -125 -219t-235 -75q-96 0 -167.5 33.5zM556 908l-36 -157l-293 -57l37 157zM876 908
l-36 -157l-293 -57l37 157z" />
    <glyph glyph-name="uhungarumlaut" unicode="&#x171;" horiz-adv-x="711" 
d="M707 506l-113 -506h-175l1 35q-67 -48 -152 -48q-103 -1 -162.5 55.5t-59.5 152.5q0 35 9 75l52 236h198l-56 -245q-4 -22 -4 -30q0 -34 22.5 -52.5t64.5 -18.5q34 0 62.5 13t48.5 37l66 296h198zM475 758l-36 -157l-293 -57l37 157zM795 758l-36 -157l-293 -57l37 157z
" />
    <glyph glyph-name="Uogonek" unicode="&#x172;" horiz-adv-x="793" 
d="M213.5 20.5q-71.5 33.5 -109.5 94t-38 139.5q0 41 8 76l70 326h205l-78 -345q-5 -23 -5 -40q0 -48 31.5 -74.5t91.5 -26.5q65 0 103.5 32t53.5 98l82 356h205l-92 -375q-35 -144 -125 -219t-235 -75q-96 0 -167.5 33.5zM293 -149.5q-27 20.5 -27 53.5q0 30 19.5 55
t66.5 57l181 126l90 -77l-121 -96q-15 -11 -16 -19v-2q0 -5 4 -8t10 -3h46l-23 -107h-154q-49 0 -76 20.5z" />
    <glyph glyph-name="uogonek" unicode="&#x173;" horiz-adv-x="711" 
d="M707 506l-113 -506h-175l1 35q-67 -48 -152 -48q-103 -1 -162.5 55.5t-59.5 152.5q0 35 9 75l52 236h198l-56 -245q-4 -22 -4 -30q0 -34 22.5 -52.5t64.5 -18.5q34 0 62.5 13t48.5 37l66 296h198zM342 -150.5q-28 19.5 -28 53.5q0 27 18.5 50.5t63.5 53.5l149 96l49 -103
l-48 -35q-10 -7 -13.5 -11t-3.5 -8q0 -9 14 -9h36l-23 -107h-138q-48 0 -76 19.5z" />
    <glyph glyph-name="Wcircumflex" unicode="&#x174;" horiz-adv-x="1175" 
d="M1258 656l-6 -30l-351 -626h-246l-41 396l-216 -396h-248l-73 626l6 30h197l40 -417l231 417h222l44 -419l224 419h217zM717 906l220 -58l-32 -151l-209 54l-245 -57l36 158z" />
    <glyph glyph-name="wcircumflex" unicode="&#x175;" horiz-adv-x="1067" 
d="M1121 506l-6 -27l-289 -479h-257l-41 255l-152 -255h-256l-76 479l6 27h200l34 -309l187 309h207l49 -312l180 312h214zM631 756l220 -58l-32 -151l-209 54l-245 -57l36 158z" />
    <glyph glyph-name="Ycircumflex" unicode="&#x176;" horiz-adv-x="726" 
d="M811 626l-354 -375l-56 -251h-205l59 263l-192 363l7 30h195l119 -238l215 238h219zM490 906l220 -58l-32 -151l-209 54l-245 -57l36 158z" />
    <glyph glyph-name="ycircumflex" unicode="&#x177;" horiz-adv-x="697" 
d="M751 506l-6 -27l-371 -537q-40 -57 -91.5 -84.5t-136.5 -27.5h-170l36 165h147q7 0 21 2l-136 482l6 27h200l79 -307l200 307h222zM446 756l220 -58l-32 -151l-209 54l-245 -57l36 158z" />
    <glyph glyph-name="Ydieresis" unicode="&#x178;" horiz-adv-x="726" 
d="M811 626l-354 -375l-56 -251h-205l59 263l-192 363l7 30h195l119 -238l215 238h219zM267.5 725.5q-28.5 24.5 -28.5 66.5q0 49 31.5 77.5t77.5 28.5q43 0 72 -24t29 -65q0 -50 -31.5 -79t-77.5 -29q-44 0 -72.5 24.5zM529.5 725.5q-28.5 24.5 -28.5 66.5q0 49 31 77.5
t78 28.5q43 0 71.5 -24t28.5 -65q0 -50 -31.5 -79t-77.5 -29q-43 0 -71.5 24.5z" />
    <glyph glyph-name="Zacute" unicode="&#x179;" horiz-adv-x="696" 
d="M709 477l-409 -302h341l-38 -175h-623l41 179l409 302h-341l38 175h622zM720 909l-36 -156l-465 -60l36 156z" />
    <glyph glyph-name="zacute" unicode="&#x17a;" horiz-adv-x="642" 
d="M605 342l-293 -179h253l-37 -163h-529l37 164l294 180h-254l36 162h529zM665 759l-36 -156l-465 -60l36 156z" />
    <glyph glyph-name="Zdotaccent" unicode="&#x17b;" horiz-adv-x="696" 
d="M709 477l-409 -302h341l-38 -175h-623l41 179l409 302h-341l38 175h622zM389.5 721.5q-30.5 26.5 -30.5 71.5q0 52 33.5 82.5t82.5 30.5q47 0 77.5 -26t30.5 -71q0 -52 -34 -83t-83 -31q-46 0 -76.5 26.5z" />
    <glyph glyph-name="zdotaccent" unicode="&#x17c;" horiz-adv-x="642" 
d="M605 342l-293 -179h253l-37 -163h-529l37 164l294 180h-254l36 162h529zM333.5 571.5q-30.5 26.5 -30.5 71.5q0 52 33.5 82.5t82.5 30.5q47 0 77.5 -26t30.5 -71q0 -52 -34 -83t-83 -31q-46 0 -76.5 26.5z" />
    <glyph glyph-name="Zcaron" unicode="&#x17d;" horiz-adv-x="696" 
d="M709 477l-409 -302h341l-38 -175h-623l41 179l409 302h-341l38 175h622zM266 904l207 -54l247 58l-36 -159l-225 -54l-225 58z" />
    <glyph glyph-name="zcaron" unicode="&#x17e;" horiz-adv-x="642" 
d="M605 342l-293 -179h253l-37 -163h-529l37 164l294 180h-254l36 162h529zM210 754l207 -54l247 58l-36 -159l-225 -54l-225 58z" />
    <glyph glyph-name="uni018F" unicode="&#x18f;" horiz-adv-x="877" 
d="M680.5 634q86.5 -36 133 -102t46.5 -155q0 -36 -7 -70l-1 -6q-17 -97 -73.5 -168t-146 -108.5t-203.5 -37.5q-116 0 -202.5 37.5t-133.5 105t-47 155.5q0 37 7 71l8 36h593q-11 54 -59.5 83.5t-127.5 29.5q-66 0 -112.5 -18t-61.5 -50h-219q40 112 145 172.5t257 60.5
q118 0 204.5 -36zM558 175.5q51 25.5 75 74.5h-386q18 -100 185 -100q75 0 126 25.5z" />
    <glyph glyph-name="florin" unicode="&#x192;" horiz-adv-x="816" 
d="M519 404h282l-36 -166h-283l-53 -230q-19 -82 -75 -126.5t-142 -44.5h-211l35 166h164q20 0 29.5 8t13.5 28l45 199h-238l36 166h240l28 121q19 82 75 126.5t142 44.5h256l-36 -165h-209q-18 0 -28 -8.5t-14 -28.5z" />
    <glyph glyph-name="uni01CD" unicode="&#x1cd;" horiz-adv-x="770" 
d="M727 30l-7 -30h-190l-19 110h-282l-69 -110h-210l6 30l412 626h226zM483 272l-34 192l-119 -192h153zM307 904l207 -54l247 58l-36 -159l-225 -54l-225 58z" />
    <glyph glyph-name="uni01CE" unicode="&#x1ce;" horiz-adv-x="716" 
d="M688 166l-36 -166h-91q-81 0 -121 48q-44 -30 -100.5 -45.5t-121.5 -15.5q-92 0 -144 36t-52 99q0 20 4 37q12 57 58 87t135 39l229 23q1 28 -21.5 42.5t-66.5 14.5q-42 0 -68.5 -12.5t-29.5 -32.5l-1 -3h-200l1 3q16 94 98 146.5t212 52.5q129 0 202.5 -51t73.5 -138
q0 -22 -6 -48l-20 -92q-1 -3 -1 -8q0 -16 25 -16h42zM265 118q39 0 82.5 14t72.5 34l7 35l-168 -18q-42 -4 -42 -37q0 -28 48 -28zM198 754l207 -54l247 58l-36 -159l-225 -54l-225 58z" />
    <glyph glyph-name="uni01D2" unicode="&#x1d2;" horiz-adv-x="685" 
d="M171 16q-67 29 -103 81.5t-36 122.5q0 27 4 50l2 9q17 114 101 177t220 63q91 0 157.5 -28.5t101.5 -81t35 -123.5q0 -23 -5 -53l-1 -9q-18 -113 -100.5 -175t-217.5 -62q-91 0 -158 29zM413 180q29 21 37 62l1 4q2 14 2 21q0 38 -27.5 59.5t-75.5 21.5t-78 -22.5
t-37 -64.5l-1 -5q-2 -14 -2 -20q0 -35 28 -56t76 -21t77 21zM197 754l207 -54l247 58l-36 -159l-225 -54l-225 58z" />
    <glyph glyph-name="Gcaron" unicode="&#x1e6;" horiz-adv-x="879" 
d="M705.5 642.5q88.5 -26.5 136.5 -75t48 -111.5q0 -8 -2 -26l-1 -3h-209l1 3q3 18 -19 33t-63 23.5t-92 8.5q-108 0 -168.5 -38.5t-75.5 -116.5l-2 -10q-5 -25 -5 -43q0 -124 192 -124q60 0 112 10.5t89 29.5l5 24h-311l31 144h503l-82 -371h-172l2 36q-46 -27 -92 -38
t-109 -11q-112 0 -196.5 37t-130.5 103.5t-46 152.5q0 26 7 66l1 5q31 154 144.5 236t298.5 82q117 0 205.5 -26.5zM339 904l207 -54l247 58l-36 -159l-225 -54l-225 58z" />
    <glyph glyph-name="gcaron" unicode="&#x1e7;" horiz-adv-x="709" 
d="M705 506l-106 -457q-19 -83 -59 -133.5t-107 -75t-169 -23.5q-137 0 -211 46.5t-74 131.5q0 14 1 21v5h199l-1 -5q-2 -19 25.5 -31.5t72.5 -12.5q58 0 88.5 19t39.5 61l3 15q-58 -31 -135 -31q-112 0 -175.5 53.5t-63.5 146.5q0 24 4 45l1 7q18 111 94 171t200 60
q114 0 177 -57l16 44h180zM444 225l22 94q-17 17 -45 26t-63 9q-108 0 -120 -74l-1 -8q-1 -5 -1 -13q0 -62 102 -62q66 0 106 28zM206 754l207 -54l247 58l-36 -159l-225 -54l-225 58z" />
    <glyph glyph-name="uni01F4" unicode="&#x1f4;" horiz-adv-x="879" 
d="M705.5 642.5q88.5 -26.5 136.5 -75t48 -111.5q0 -8 -2 -26l-1 -3h-209l1 3q3 18 -19 33t-63 23.5t-92 8.5q-108 0 -168.5 -38.5t-75.5 -116.5l-2 -10q-5 -25 -5 -43q0 -124 192 -124q60 0 112 10.5t89 29.5l5 24h-311l31 144h503l-82 -371h-172l2 36q-46 -27 -92 -38
t-109 -11q-112 0 -196.5 37t-130.5 103.5t-46 152.5q0 26 7 66l1 5q31 154 144.5 236t298.5 82q117 0 205.5 -26.5zM793 909l-36 -156l-465 -60l36 156z" />
    <glyph glyph-name="uni01F5" unicode="&#x1f5;" horiz-adv-x="709" 
d="M705 506l-106 -457q-19 -83 -59 -133.5t-107 -75t-169 -23.5q-137 0 -211 46.5t-74 131.5q0 14 1 21v5h199l-1 -5q-2 -19 25.5 -31.5t72.5 -12.5q58 0 88.5 19t39.5 61l3 15q-58 -31 -135 -31q-112 0 -175.5 53.5t-63.5 146.5q0 24 4 45l1 7q18 111 94 171t200 60
q114 0 177 -57l16 44h180zM444 225l22 94q-17 17 -45 26t-63 9q-108 0 -120 -74l-1 -8q-1 -5 -1 -13q0 -62 102 -62q66 0 106 28zM661 759l-36 -156l-465 -60l36 156z" />
    <glyph glyph-name="AEacute" unicode="&#x1fc;" horiz-adv-x="1072" 
d="M675 489l-1 -78h368l-36 -164h-334v-79h335l-36 -168h-502l2 111h-247l-69 -111h-205l6 30l412 626h749l-37 -167h-405zM480 489h-20l-135 -217h150zM913 909l-36 -156l-465 -60l36 156z" />
    <glyph glyph-name="aeacute" unicode="&#x1fd;" horiz-adv-x="1098" 
d="M943.5 492q63.5 -27 98 -76t34.5 -114q0 -20 -5 -47l-7 -48h-428q1 -36 30.5 -55.5t85.5 -19.5q39 0 65 9.5t36 26.5h204q-29 -88 -109 -134.5t-204 -46.5q-79 0 -140 20t-99 57q-45 -38 -109.5 -57.5t-143.5 -19.5q-108 0 -169 37t-61 101q0 19 4 35q12 57 58 87.5
t135 38.5l243 23q-3 27 -29.5 41.5t-74.5 14.5q-42 0 -67 -11.5t-29 -33.5l-1 -3h-200l1 3q16 94 98.5 146.5t214.5 52.5q147 0 208 -69q78 69 212 69q85 0 148.5 -27zM662 316h223q-6 29 -34.5 45t-73.5 16q-86 0 -115 -61zM371 137.5q55 20.5 78 47.5v17l-190 -22
q-21 -2 -31.5 -11t-10.5 -27q0 -25 44 -25q55 0 110 20.5zM868 759l-36 -156l-465 -60l36 156z" />
    <glyph glyph-name="Oslashacute" unicode="&#x1fe;" horiz-adv-x="877" 
d="M873 692l-99 -117q42 -38 64.5 -88.5t22.5 -110.5q0 -35 -7 -67l-1 -5q-29 -152 -139 -234.5t-284 -82.5q-68 0 -129 14l-55 -67h-215l7 30l99 118q-43 39 -65.5 89.5t-22.5 109.5q0 34 7 66l1 5q30 151 141 234t285 83q64 0 126 -13l56 66h215zM251 290q0 -34 16 -63
l226 276q-7 1 -21 1q-90 0 -143.5 -41t-70.5 -120l-2 -12q-5 -23 -5 -41zM659 364q0 37 -16 65l-226 -276h19q90 0 145.5 41.5t70.5 118.5l3 12q4 17 4 39zM784 909l-36 -156l-465 -60l36 156z" />
    <glyph glyph-name="oslashacute" unicode="&#x1ff;" horiz-adv-x="685" 
d="M679 535l-84 -100q57 -60 57 -152q0 -28 -4 -51l-2 -9q-17 -113 -99.5 -174.5t-217.5 -61.5q-50 0 -94 9l-41 -50h-189l5 24l82 100q-59 62 -59 152q0 26 4 49l1 9q18 114 101.5 176.5t219.5 62.5q54 0 95 -10l41 49h189zM200 221q0 -18 6 -33l156 190h-9
q-65 0 -101 -26.5t-46 -82.5l-4 -24q-2 -8 -2 -24zM487 284q0 18 -4 30l-157 -186h8q65 0 101 26.5t46 80.5l4 24q2 9 2 25zM654 759l-36 -156l-465 -60l36 156z" />
    <glyph glyph-name="uni0218" unicode="&#x218;" horiz-adv-x="771" 
d="M116.5 37q-80.5 50 -80.5 142q0 19 5 46l2 10h199l-2 -10q-1 -4 -1 -12q0 -29 34 -45.5t97 -16.5q66 0 99.5 11.5t38.5 34.5l1 6q2 15 -10.5 24.5t-43.5 14.5l-166 28q-91 16 -138 56.5t-47 103.5q0 20 4 39l2 10q19 95 103.5 142.5t237.5 47.5q148 0 227.5 -48
t79.5 -137q0 -22 -4 -41l-1 -8h-197l1 8q1 3 1 10q0 52 -123 52q-120 0 -128 -39l-1 -6q-2 -12 10.5 -20t42.5 -13l167 -28q94 -16 142 -57t48 -105q0 -17 -5 -42l-2 -10q-38 -198 -362 -198q-150 0 -230.5 50zM442 -58l-111 -192h-199l101 192h209z" />
    <glyph glyph-name="uni0219" unicode="&#x219;" horiz-adv-x="688" 
d="M95.5 27.5q-75.5 40.5 -75.5 115.5q0 18 2 27v3h179v-3q-5 -24 25.5 -35.5t100.5 -11.5q105 0 112 24l1 4q2 10 -6.5 15t-33.5 8l-137 15q-93 10 -141.5 44.5t-48.5 88.5q0 13 3 28l2 10q14 78 94.5 118.5t220.5 40.5q135 0 205 -39.5t70 -114.5q0 -19 -2 -29l-1 -3h-178
l1 3q4 24 -24.5 35.5t-90.5 11.5q-109 0 -115 -23l-1 -4q-5 -17 39 -22l140 -16q96 -10 144.5 -44.5t48.5 -90.5q0 -13 -3 -27l-2 -10q-32 -159 -312 -159q-141 0 -216.5 40.5zM417 -58l-111 -192h-199l101 192h209z" />
    <glyph glyph-name="uni021A" unicode="&#x21a;" horiz-adv-x="691" 
d="M66 481l39 175h661l-39 -175h-223l-108 -481h-205l108 481h-233zM382 -58l-111 -192h-199l101 192h209z" />
    <glyph glyph-name="uni021B" unicode="&#x21b;" horiz-adv-x="520" 
d="M317 201q-1 -4 -1 -11q0 -24 33 -24h116l-35 -166h-141q-80 0 -127 41t-47 108q0 17 5 42l32 150h-149l36 165h109q25 0 38 10.5t18 35.5l19 87h193l-30 -133h186l-36 -165h-187zM377 -58l-111 -192h-199l101 192h209z" />
    <glyph glyph-name="uni0232" unicode="&#x232;" horiz-adv-x="726" 
d="M811 626l-354 -375l-56 -251h-205l59 263l-192 363l7 30h195l119 -238l215 238h219zM718 877l-34 -152h-452l34 152h452z" />
    <glyph glyph-name="uni0233" unicode="&#x233;" horiz-adv-x="697" 
d="M751 506l-6 -27l-371 -537q-40 -57 -91.5 -84.5t-136.5 -27.5h-170l36 165h147q7 0 21 2l-136 482l6 27h200l79 -307l200 307h222zM674 727l-34 -152h-452l34 152h452z" />
    <glyph glyph-name="uni0237" unicode="&#x237;" horiz-adv-x="286" 
d="M-55 -5q40 0 48 34l107 477h198l-114 -505q-18 -81 -76.5 -126t-147.5 -45h-108l35 165h58z" />
    <glyph glyph-name="uni0259" unicode="&#x259;" horiz-adv-x="671" 
d="M507.5 490q64.5 -29 99.5 -80.5t35 -118.5q0 -22 -5 -50l-4 -17q-20 -113 -104 -175t-217 -62q-86 0 -151.5 27.5t-101 77t-35.5 113.5q0 19 5 46l11 50h416q-1 34 -27.5 53t-76.5 19q-82 0 -103 -35h-203q26 88 106 134.5t205 46.5q86 0 150.5 -29zM430 188h-214
q5 -29 31 -44t71 -15q83 0 112 59z" />
    <glyph glyph-name="uni02BB" unicode="&#x2bb;" horiz-adv-x="600" 
d="M877 746l-92 -192h-204l101 192h195z" />
    <glyph glyph-name="uni02BC" unicode="&#x2bc;" horiz-adv-x="334" 
d="M403 696l-6 -27l-170 -286h-179l139 313h216z" />
    <glyph glyph-name="circumflex" unicode="&#x2c6;" horiz-adv-x="600" 
d="M405 756l220 -58l-32 -151l-209 54l-245 -57l36 158z" />
    <glyph glyph-name="caron" unicode="&#x2c7;" horiz-adv-x="600" 
d="M185 754l207 -54l247 58l-36 -159l-225 -54l-225 58z" />
    <glyph glyph-name="uni02C9" unicode="&#x2c9;" horiz-adv-x="600" 
d="M959 727l-34 -152h-452l34 152h452z" />
    <glyph glyph-name="breve" unicode="&#x2d8;" horiz-adv-x="600" 
d="M268.5 565q-59.5 13 -115.5 36l32 148q111 -45 222 -45q109 0 230 45l-36 -156q-108 -41 -217 -41q-56 0 -115.5 13z" />
    <glyph glyph-name="dotaccent" unicode="&#x2d9;" horiz-adv-x="600" 
d="M307.5 571.5q-30.5 26.5 -30.5 71.5q0 52 33.5 82.5t82.5 30.5q47 0 77.5 -26t30.5 -71q0 -52 -34 -83t-83 -31q-46 0 -76.5 26.5z" />
    <glyph glyph-name="ring" unicode="&#x2da;" horiz-adv-x="600" 
d="M261 578.5q-46 35.5 -46 101.5q0 69 50.5 109t136.5 40q81 0 128.5 -37t47.5 -101q0 -69 -50.5 -108.5t-137.5 -39.5q-83 0 -129 35.5zM432 656.5q14 12.5 14 33.5q0 18 -12 28t-34 10q-26 0 -40 -12t-14 -34q0 -18 12.5 -28t34.5 -10q25 0 39 12.5z" />
    <glyph glyph-name="ogonek" unicode="&#x2db;" horiz-adv-x="600" 
d="M130 -150.5q-28 19.5 -28 53.5q0 27 18.5 50.5t63.5 53.5l149 96l49 -103l-48 -35q-10 -7 -13.5 -11t-3.5 -8q0 -9 14 -9h36l-23 -107h-138q-48 0 -76 19.5z" />
    <glyph glyph-name="tilde" unicode="&#x2dc;" horiz-adv-x="600" 
d="M378 577q-37 7 -60.5 10.5t-49.5 3.5q-65 0 -123 -27l33 148q51 27 111 27q34 0 68.5 -7t39.5 -8q35 -8 61 -12t54 -4q62 0 123 26l-34 -148q-52 -23 -110 -23q-41 0 -113 14z" />
    <glyph glyph-name="hungarumlaut" unicode="&#x2dd;" horiz-adv-x="600" 
d="M393 758l-36 -157l-293 -57l37 157zM713 758l-36 -157l-293 -57l37 157z" />
    <glyph glyph-name="gravecomb" unicode="&#x300;" horiz-adv-x="0" 
d="M-115 755l438 -60l-31 -146l-438 60z" />
    <glyph glyph-name="acutecomb" unicode="&#x301;" horiz-adv-x="0" 
d="M339 759l-36 -156l-465 -60l36 156z" />
    <glyph glyph-name="uni0302" unicode="&#x302;" horiz-adv-x="0" 
d="M105 756l220 -58l-32 -151l-209 54l-245 -57l36 158z" />
    <glyph glyph-name="tildecomb" unicode="&#x303;" horiz-adv-x="0" 
d="M77 577q-37 7 -60.5 10.5t-49.5 3.5q-65 0 -123 -27l33 148q51 27 111 27q34 0 68.5 -7t39.5 -8q35 -8 61 -12t54 -4q62 0 123 26l-34 -148q-52 -23 -110 -23q-41 0 -113 14z" />
    <glyph glyph-name="uni0304" unicode="&#x304;" horiz-adv-x="0" 
d="M332 727l-34 -152h-452l34 152h452z" />
    <glyph glyph-name="uni0306" unicode="&#x306;" horiz-adv-x="0" 
d="M-32.5 565q-59.5 13 -115.5 36l32 148q111 -45 222 -45q109 0 230 45l-36 -156q-108 -41 -217 -41q-56 0 -115.5 13z" />
    <glyph glyph-name="uni0307" unicode="&#x307;" horiz-adv-x="0" 
d="M7.5 571.5q-30.5 26.5 -30.5 71.5q0 52 33.5 82.5t82.5 30.5q47 0 77.5 -26t30.5 -71q0 -52 -34 -83t-83 -31q-46 0 -76.5 26.5z" />
    <glyph glyph-name="uni0308" unicode="&#x308;" horiz-adv-x="0" 
d="M-118.5 575.5q-28.5 24.5 -28.5 66.5q0 49 31.5 77.5t77.5 28.5q43 0 72 -24t29 -65q0 -50 -31.5 -79t-77.5 -29q-44 0 -72.5 24.5zM143.5 575.5q-28.5 24.5 -28.5 66.5q0 49 31 77.5t78 28.5q43 0 71.5 -24t28.5 -65q0 -50 -31.5 -79t-77.5 -29q-43 0 -71.5 24.5z" />
    <glyph glyph-name="uni030A" unicode="&#x30a;" horiz-adv-x="0" 
d="M-39 578.5q-46 35.5 -46 101.5q0 69 50.5 109t136.5 40q81 0 128.5 -37t47.5 -101q0 -69 -50.5 -108.5t-137.5 -39.5q-83 0 -129 35.5zM132 656.5q14 12.5 14 33.5q0 18 -12 28t-34 10q-26 0 -40 -12t-14 -34q0 -18 12.5 -28t34.5 -10q25 0 39 12.5z" />
    <glyph glyph-name="uni030B" unicode="&#x30b;" horiz-adv-x="0" 
d="M126 758l-36 -157l-293 -57l37 157zM446 758l-36 -157l-293 -57l37 157z" />
    <glyph glyph-name="uni030C" unicode="&#x30c;" horiz-adv-x="0" 
d="M-115 754l207 -54l247 58l-36 -159l-225 -54l-225 58z" />
    <glyph glyph-name="uni0312" unicode="&#x312;" horiz-adv-x="0" 
d="M248 746l-92 -192h-204l101 192h195z" />
    <glyph glyph-name="dotbelowcomb" unicode="&#x323;" horiz-adv-x="0" 
d="M-164.5 -223.5q-30.5 26.5 -30.5 71.5q0 52 33.5 82.5t82.5 30.5q47 0 77.5 -26.5t30.5 -71.5q0 -53 -33.5 -83t-82.5 -30q-47 0 -77.5 26.5z" />
    <glyph glyph-name="uni0326" unicode="&#x326;" horiz-adv-x="0" 
d="M35 -58l-111 -192h-199l101 192h209z" />
    <glyph glyph-name="uni0327" unicode="&#x327;" horiz-adv-x="0" 
d="M48 0l-86 -170h-207l123 243z" />
    <glyph glyph-name="uni0328" unicode="&#x328;" horiz-adv-x="0" 
d="M-308 -150.5q-28 19.5 -28 53.5q0 27 18.5 50.5t63.5 53.5l149 96l49 -103l-48 -35q-10 -7 -13.5 -11t-3.5 -8q0 -9 14 -9h36l-23 -107h-138q-48 0 -76 19.5z" />
    <glyph glyph-name="uni0374" unicode="&#x374;" horiz-adv-x="334" 
d="M395 656l-6 -27l-173 -302h-181l142 329h218z" />
    <glyph glyph-name="tonos" unicode="&#x384;" horiz-adv-x="600" 
d="M523 816l-78 -262h-175l78 262h175z" />
    <glyph glyph-name="dieresistonos" unicode="&#x385;" horiz-adv-x="600" 
d="M527 816l-78 -262h-175l78 262h175zM100.5 576q-28.5 25 -28.5 67q0 49 31 77.5t76 28.5q42 0 70 -24.5t28 -65.5q0 -49 -30.5 -78.5t-75.5 -29.5q-42 0 -70.5 25zM529 575.5q-28 24.5 -28 66.5q0 49 30.5 77.5t75.5 28.5q42 0 70 -24t28 -65q0 -50 -30.5 -79t-75.5 -29
q-42 0 -70 24.5z" />
    <glyph glyph-name="Alphatonos" unicode="&#x386;" horiz-adv-x="770" 
d="M727 30l-7 -30h-190l-19 110h-282l-69 -110h-210l6 30l412 626h226zM483 272l-34 192l-119 -192h153zM183 656l-78 -262h-175l78 262h175z" />
    <glyph glyph-name="anoteleia" unicode="&#x387;" horiz-adv-x="334" 
d="M118 317q-30 28 -30 72q0 52 33 84.5t84 32.5q48 0 77.5 -27.5t29.5 -71.5q0 -52 -32.5 -85t-83.5 -33q-48 0 -78 28z" />
    <glyph glyph-name="Epsilontonos" unicode="&#x388;" horiz-adv-x="723" 
d="M762 656l-37 -167h-405l-18 -78h385l-36 -165h-385l-19 -78h405l-36 -168h-610l146 656h610zM32 656l-78 -262h-175l78 262h175z" />
    <glyph glyph-name="Etatonos" unicode="&#x389;" horiz-adv-x="819" 
d="M357 656l-54 -240h285l54 240h205l-146 -656h-205l54 240h-285l-54 -240h-205l146 656h205zM34 656l-78 -262h-175l78 262h175z" />
    <glyph glyph-name="Iotatonos" unicode="&#x38a;" horiz-adv-x="299" 
d="M342 656l-146 -656h-206l147 656h205zM19 656l-78 -262h-175l78 262h175z" />
    <glyph glyph-name="Omicrontonos" unicode="&#x38c;" horiz-adv-x="877" 
d="M229 24q-86 37 -133 104t-47 153q0 34 7 66l1 5q30 151 141 234t284 83q114 0 200 -37t132.5 -103t46.5 -152q0 -36 -7 -68l-1 -5q-29 -152 -139.5 -234.5t-284.5 -82.5q-114 0 -200 37zM649 313l2 11q4 17 4 36q0 59 -48 93t-136 34q-177 0 -210 -145l-2 -11
q-5 -22 -5 -38q0 -58 47.5 -90.5t135.5 -32.5q182 0 212 143zM76 656l-78 -262h-175l78 262h175z" />
    <glyph glyph-name="Upsilontonos" unicode="&#x38e;" horiz-adv-x="726" 
d="M811 626l-354 -375l-56 -251h-205l59 263l-192 363l7 30h195l119 -238l215 238h219zM23 656l-78 -262h-175l78 262h175z" />
    <glyph glyph-name="Omegatonos" unicode="&#x38f;" horiz-adv-x="880" 
d="M684.5 635.5q84.5 -33.5 131 -93t46.5 -135.5q0 -22 -7 -57l-1 -7q-24 -140 -196 -179l-5 -18h172l-31 -146h-363l57 268q78 4 119 25t49 62l2 10q2 7 2 20q0 45 -47.5 71t-134.5 26q-94 0 -142.5 -23t-58.5 -72l-2 -10q-2 -12 -2 -18q0 -72 129 -91l-57 -268h-362
l35 151h170l5 23q-61 30 -92.5 77t-31.5 106q0 25 6 52l2 7q24 121 131.5 187t280.5 66q111 0 195.5 -33.5zM86 656l-78 -262h-175l78 262h175z" />
    <glyph glyph-name="iotadieresistonos" unicode="&#x390;" horiz-adv-x="329" 
d="M71 36q-45 36 -45 99q0 17 5 42l70 329h198l-71 -313q-6 -27 28 -27h47l-36 -166h-72q-79 0 -124 36zM369 816l-78 -262h-175l78 262h175zM-57.5 576q-28.5 25 -28.5 67q0 49 31 77.5t76 28.5q42 0 70 -24.5t28 -65.5q0 -49 -30.5 -78.5t-75.5 -29.5q-42 0 -70.5 25z
M371 575.5q-28 24.5 -28 66.5q0 49 30.5 77.5t75.5 28.5q42 0 70 -24t28 -65q0 -50 -30.5 -79t-75.5 -29q-42 0 -70 24.5z" />
    <glyph glyph-name="Alpha" unicode="&#x391;" horiz-adv-x="770" 
d="M727 30l-7 -30h-190l-19 110h-282l-69 -110h-210l6 30l412 626h226zM483 272l-34 192l-119 -192h153z" />
    <glyph glyph-name="Beta" unicode="&#x392;" horiz-adv-x="785" 
d="M713 614.5q59 -41.5 59 -113.5q0 -21 -4 -40l-2 -10q-15 -82 -93 -126q57 -42 57 -109q0 -11 -4 -35l-2 -10q-33 -168 -284 -170l-229 -1h-205l146 656h396q106 0 165 -41.5zM320 488l-19 -84h204q53 0 61 37l2 10q1 3 1 8q0 29 -46 29h-203zM532 226q0 30 -46 30h-218
l-20 -88h220q52 0 61 39l2 10q1 3 1 9z" />
    <glyph glyph-name="Gamma" unicode="&#x393;" horiz-adv-x="687" 
d="M762 656l-41 -175h-405l-106 -481h-205l147 656h610z" />
    <glyph glyph-name="uni0394" unicode="&#x394;" horiz-adv-x="773" 
d="M718 175l-38 -175h-699l38 175l335 481h245zM236 176h290l-76 314z" />
    <glyph glyph-name="Epsilon" unicode="&#x395;" horiz-adv-x="723" 
d="M762 656l-37 -167h-405l-18 -78h385l-36 -165h-385l-19 -78h405l-36 -168h-610l146 656h610z" />
    <glyph glyph-name="Zeta" unicode="&#x396;" horiz-adv-x="696" 
d="M709 477l-409 -302h341l-38 -175h-623l41 179l409 302h-341l38 175h622z" />
    <glyph glyph-name="Eta" unicode="&#x397;" horiz-adv-x="819" 
d="M357 656l-54 -240h285l54 240h205l-146 -656h-205l54 240h-285l-54 -240h-205l146 656h205z" />
    <glyph glyph-name="Theta" unicode="&#x398;" horiz-adv-x="877" 
d="M682.5 632q85.5 -37 132 -103t46.5 -152q0 -36 -7 -68l-1 -5q-29 -152 -139 -234.5t-284 -82.5q-114 0 -200.5 37t-133.5 104t-47 153q0 34 7 66l1 5q30 151 141 234t285 83q114 0 199.5 -37zM284 410h370q-14 43 -60.5 67t-119.5 24q-141 0 -190 -91zM628 248h-372
q11 -44 57.5 -68.5t121.5 -24.5q142 0 193 93z" />
    <glyph glyph-name="Iota" unicode="&#x399;" horiz-adv-x="299" 
d="M342 656l-146 -656h-206l147 656h205z" />
    <glyph glyph-name="Kappa" unicode="&#x39a;" horiz-adv-x="813" 
d="M868 626l-331 -267l177 -329l-6 -30h-201l-133 254l-130 -104l-33 -150h-205l146 656h205l-60 -268l333 268h245z" />
    <glyph glyph-name="Lambda" unicode="&#x39b;" horiz-adv-x="770" 
d="M726 30l-7 -30h-195l-76 448l-275 -448h-224l6 30l407 626h236z" />
    <glyph glyph-name="Mu" unicode="&#x39c;" horiz-adv-x="1029" 
d="M911 0h-202l79 357l-230 -357h-201l-70 355l-79 -355h-202l146 656h259l86 -431l272 431h288z" />
    <glyph glyph-name="Nu" unicode="&#x39d;" horiz-adv-x="819" 
d="M847 656l-146 -656h-186l-231 387l-86 -387h-192l146 656h186l231 -387l86 387h192z" />
    <glyph glyph-name="Xi" unicode="&#x39e;" horiz-adv-x="790" 
d="M546 489l-18 -78h225l-35 -164h-226l-18 -79h245l-37 -168h-688l37 168h248l18 79h-227l35 164h228l18 78h-247l36 167h688l-36 -167h-246z" />
    <glyph glyph-name="Omicron" unicode="&#x39f;" horiz-adv-x="877" 
d="M229 24q-86 37 -133 104t-47 153q0 34 7 66l1 5q30 151 141 234t284 83q114 0 200 -37t132.5 -103t46.5 -152q0 -36 -7 -68l-1 -5q-29 -152 -139.5 -234.5t-284.5 -82.5q-114 0 -200 37zM649 313l2 11q4 17 4 36q0 59 -48 93t-136 34q-177 0 -210 -145l-2 -11
q-5 -22 -5 -38q0 -58 47.5 -90.5t135.5 -32.5q182 0 212 143z" />
    <glyph glyph-name="Pi" unicode="&#x3a0;" horiz-adv-x="799" 
d="M827 656l-146 -656h-205l108 481h-265l-108 -481h-205l146 656h675z" />
    <glyph glyph-name="Rho" unicode="&#x3a1;" horiz-adv-x="787" 
d="M562 656q71 0 123.5 -23.5t81 -66.5t28.5 -98q0 -24 -4 -44l-2 -10q-21 -105 -95.5 -158t-200.5 -53h-237l-45 -203h-205l146 656h410zM584 424l2 10q1 5 1 13q0 40 -55 40h-212l-27 -114h216q65 0 75 51z" />
    <glyph glyph-name="Sigma" unicode="&#x3a3;" horiz-adv-x="703" 
d="M704 481h-317l174 -103l-26 -109l-183 -93h281l-37 -176h-616l38 174l310 161l-239 147l38 174h615z" />
    <glyph glyph-name="Tau" unicode="&#x3a4;" horiz-adv-x="691" 
d="M66 481l39 175h661l-39 -175h-223l-108 -481h-205l108 481h-233z" />
    <glyph glyph-name="Upsilon" unicode="&#x3a5;" horiz-adv-x="726" 
d="M811 626l-354 -375l-56 -251h-205l59 263l-192 363l7 30h195l119 -238l215 238h219z" />
    <glyph glyph-name="Phi" unicode="&#x3a6;" horiz-adv-x="1077" 
d="M915.5 586q69.5 -31 107.5 -86t38 -127q0 -31 -7 -62l-1 -6q-27 -130 -120.5 -198t-247.5 -68h-93l-18 -79h-201l18 79h-34q-93 0 -162.5 31t-107.5 87.5t-38 129.5q0 32 7 63l2 6q27 127 120.5 194t246.5 67h94l18 79h201l-18 -79h33q93 0 162.5 -31zM253 303
q0 -43 29.5 -65.5t85.5 -22.5h67l50 227h-73q-133 0 -154 -100l-2 -10q-3 -15 -3 -29zM857 357q0 41 -29.5 63t-85.5 22h-66l-50 -227h72q68 0 106 25.5t48 78.5l2 10q3 15 3 28z" />
    <glyph glyph-name="Chi" unicode="&#x3a7;" horiz-adv-x="819" 
d="M874 626l-315 -306l182 -290l-6 -30h-212l-115 193l-189 -193h-248l7 30l315 306l-182 290l7 30h211l115 -193l190 193h247z" />
    <glyph glyph-name="Psi" unicode="&#x3a8;" horiz-adv-x="1057" 
d="M1105 656l-63 -271q-55 -237 -337 -237h-96l-33 -148h-205l33 148h-31q-90 0 -156.5 27t-102.5 76t-36 113q0 28 5 49l50 243h206l-55 -240q-3 -12 -3 -23q0 -33 23.5 -51t67.5 -18h71l74 332h205l-74 -332h80q52 0 78 19.5t37 66.5l57 246h205z" />
    <glyph glyph-name="uni03A9" unicode="&#x3a9;" horiz-adv-x="880" 
d="M684.5 635.5q84.5 -33.5 131 -93t46.5 -135.5q0 -22 -7 -57l-1 -7q-24 -140 -196 -179l-5 -18h172l-31 -146h-363l57 268q78 4 119 25t49 62l2 10q2 7 2 20q0 45 -47.5 71t-134.5 26q-94 0 -142.5 -23t-58.5 -72l-2 -10q-2 -12 -2 -18q0 -72 129 -91l-57 -268h-362
l35 151h170l5 23q-61 30 -92.5 77t-31.5 106q0 25 6 52l2 7q24 121 131.5 187t280.5 66q111 0 195.5 -33.5z" />
    <glyph glyph-name="Iotadieresis" unicode="&#x3aa;" horiz-adv-x="299" 
d="M342 656l-146 -656h-206l147 656h205zM64.5 725.5q-28.5 24.5 -28.5 66.5q0 49 31.5 77.5t77.5 28.5q43 0 72 -24t29 -65q0 -50 -31.5 -79t-77.5 -29q-44 0 -72.5 24.5zM326.5 725.5q-28.5 24.5 -28.5 66.5q0 49 31 77.5t78 28.5q43 0 71.5 -24t28.5 -65q0 -50 -31.5 -79
t-77.5 -29q-43 0 -71.5 24.5z" />
    <glyph glyph-name="Upsilondieresis" unicode="&#x3ab;" horiz-adv-x="726" 
d="M811 626l-354 -375l-56 -251h-205l59 263l-192 363l7 30h195l119 -238l215 238h219zM267.5 725.5q-28.5 24.5 -28.5 66.5q0 49 31.5 77.5t77.5 28.5q43 0 72 -24t29 -65q0 -50 -31.5 -79t-77.5 -29q-44 0 -72.5 24.5zM529.5 725.5q-28.5 24.5 -28.5 66.5q0 49 31 77.5
t78 28.5q43 0 71.5 -24t28.5 -65q0 -50 -31.5 -79t-77.5 -29q-43 0 -71.5 24.5z" />
    <glyph glyph-name="alphatonos" unicode="&#x3ac;" horiz-adv-x="737" 
d="M640 184q0 -18 24 -18h41l-36 -166h-90q-35 0 -65 12.5t-50 34.5q-64 -60 -172 -60q-80 0 -140 28t-92 78.5t-32 117.5q0 27 4 50l2 9q19 118 98 183.5t202 65.5q111 0 177 -60l15 47h184l-69 -312q-1 -4 -1 -10zM230 237q0 -36 27.5 -56.5t77.5 -20.5q32 0 60.5 9
t49.5 25l24 114q-16 18 -45.5 28.5t-66.5 10.5q-53 0 -85 -22t-39 -65l-2 -8q-1 -5 -1 -15zM542 816l-78 -262h-175l78 262h175z" />
    <glyph glyph-name="epsilontonos" unicode="&#x3ad;" horiz-adv-x="684" 
d="M581 469q74 -50 74 -141q0 -18 -3 -39l-1 -3h-182v3q3 14 3 25q0 68 -98 68q-96 0 -102 -34l-2 -8q-4 -27 43 -27h121l-26 -117h-133q-51 0 -55 -25l-2 -8q-4 -19 22 -29t77 -10t78.5 9t39 26t17.5 46v3h192v-3q-20 -115 -99 -166.5t-236 -51.5q-137 0 -214 40t-77 109
q0 10 4 30l2 10q12 72 88 98q-31 31 -31 74q0 13 3 25l2 10q11 65 85 100.5t199 35.5q137 0 211 -50zM545 816l-78 -262h-175l78 262h175z" />
    <glyph glyph-name="etatonos" unicode="&#x3ae;" horiz-adv-x="733" 
d="M622 461.5q65 -57.5 65 -154.5q0 -30 -8 -70l-90 -407h-198l94 416q3 14 3 26q0 35 -24.5 55t-67.5 20q-34 0 -63.5 -13.5t-49.5 -39.5l-65 -294h-197l71 313q1 3 1 9q0 17 -24 17h-40l36 167h94q72 0 109 -39q71 52 176 52q113 0 178 -57.5zM605 816l-78 -262h-175
l78 262h175z" />
    <glyph glyph-name="iotatonos" unicode="&#x3af;" horiz-adv-x="329" 
d="M71 36q-45 36 -45 99q0 17 5 42l70 329h198l-71 -313q-6 -27 28 -27h47l-36 -166h-72q-79 0 -124 36zM369 816l-78 -262h-175l78 262h175z" />
    <glyph glyph-name="upsilondieresistonos" unicode="&#x3b0;" horiz-adv-x="704" 
d="M185.5 15.5q-62.5 28.5 -95.5 80t-33 120.5q0 25 7 63l46 227h198l-55 -250q-3 -15 -3 -27q0 -35 23.5 -54.5t67.5 -19.5q88 0 108 85l62 266h198l-69 -281q-28 -116 -105 -177t-201 -61q-86 0 -148.5 28.5zM583 816l-78 -262h-175l78 262h175zM156.5 576
q-28.5 25 -28.5 67q0 49 31 77.5t76 28.5q42 0 70 -24.5t28 -65.5q0 -49 -30.5 -78.5t-75.5 -29.5q-42 0 -70.5 25zM585 575.5q-28 24.5 -28 66.5q0 49 30.5 77.5t75.5 28.5q42 0 70 -24t28 -65q0 -50 -30.5 -79t-75.5 -29q-42 0 -70 24.5z" />
    <glyph glyph-name="alpha" unicode="&#x3b1;" horiz-adv-x="737" 
d="M640 184q0 -18 24 -18h41l-36 -166h-90q-35 0 -65 12.5t-50 34.5q-64 -60 -172 -60q-80 0 -140 28t-92 78.5t-32 117.5q0 27 4 50l2 9q19 118 98 183.5t202 65.5q111 0 177 -60l15 47h184l-69 -312q-1 -4 -1 -10zM230 237q0 -36 27.5 -56.5t77.5 -20.5q32 0 60.5 9
t49.5 25l24 114q-16 18 -45.5 28.5t-66.5 10.5q-53 0 -85 -22t-39 -65l-2 -8q-1 -5 -1 -15z" />
    <glyph glyph-name="beta" unicode="&#x3b2;" horiz-adv-x="723" 
d="M585.5 683q64.5 -26 100.5 -71.5t36 -101.5q0 -17 -5 -40l-3 -12q-16 -85 -100 -118q31 -22 47.5 -54t16.5 -71q0 -12 -4 -38l-2 -12q-14 -86 -84 -132t-187 -46q-122 0 -189 54l-48 -211h-198l153 654q26 110 106 167.5t214 57.5q82 0 146.5 -26zM493 232
q0 20 -16.5 30.5t-47.5 10.5h-100l33 151h94q63 0 72 42l1 7q2 8 2 13q0 24 -26 38t-73 14q-55 0 -86 -19.5t-40 -60.5l-58 -257q18 -20 51.5 -31t78.5 -11q100 0 112 54l1 7q2 8 2 12z" />
    <glyph glyph-name="gamma" unicode="&#x3b3;" horiz-adv-x="695" 
d="M749 479l-361 -498l-34 -151h-198l34 153l-141 496l6 27h192l79 -305l215 305h214z" />
    <glyph glyph-name="delta" unicode="&#x3b4;" horiz-adv-x="685" 
d="M665 531h-269l121 -74q63 -38 94.5 -88.5t31.5 -108.5q0 -22 -7 -55l-2 -9q-18 -100 -98 -154.5t-208 -54.5q-90 0 -157.5 28.5t-104 79.5t-36.5 118q0 30 7 58l2 9q27 138 197 168l-119 81l36 167h548zM451 254q0 21 -11.5 39.5t-38.5 40.5h-18q-72 0 -108 -19.5
t-44 -63.5l-1 -4q-2 -14 -2 -21q0 -39 28.5 -62t77.5 -23q94 0 111 81l1 4q5 17 5 28z" />
    <glyph glyph-name="epsilon" unicode="&#x3b5;" horiz-adv-x="684" 
d="M581 469q74 -50 74 -141q0 -18 -3 -39l-1 -3h-182v3q3 14 3 25q0 68 -98 68q-96 0 -102 -34l-2 -8q-4 -27 43 -27h121l-26 -117h-133q-51 0 -55 -25l-2 -8q-4 -19 22 -29t77 -10t78.5 9t39 26t17.5 46v3h192v-3q-20 -115 -99 -166.5t-236 -51.5q-137 0 -214 40t-77 109
q0 10 4 30l2 10q12 72 88 98q-31 31 -31 74q0 13 3 25l2 10q11 65 85 100.5t199 35.5q137 0 211 -50z" />
    <glyph glyph-name="zeta" unicode="&#x3b6;" horiz-adv-x="599" 
d="M212 215l-1 -9q0 -19 15.5 -29.5t44.5 -10.5h93q84 0 129.5 -36.5t45.5 -102.5q0 -23 -6 -49l-2 -9q-14 -72 -61.5 -105.5t-135.5 -33.5h-175l31 138h137q11 0 16.5 2.5t6.5 9.5l1 5v3q0 5 -5 8.5t-14 3.5h-78q-114 0 -177 46.5t-63 126.5q0 21 4 40l3 15
q13 66 57.5 115.5t148.5 109.5l134 78h-261l36 165h562l-35 -160l-335 -202q-65 -40 -87 -61t-27 -49z" />
    <glyph glyph-name="eta" unicode="&#x3b7;" horiz-adv-x="733" 
d="M622 461.5q65 -57.5 65 -154.5q0 -30 -8 -70l-90 -407h-198l94 416q3 14 3 26q0 35 -24.5 55t-67.5 20q-34 0 -63.5 -13.5t-49.5 -39.5l-65 -294h-197l71 313q1 3 1 9q0 17 -24 17h-40l36 167h94q72 0 109 -39q71 52 176 52q113 0 178 -57.5z" />
    <glyph glyph-name="theta" unicode="&#x3b8;" horiz-adv-x="675" 
d="M541.5 641q63.5 -28 97 -78.5t33.5 -118.5q0 -33 -7 -64l-34 -157q-25 -115 -104.5 -175.5t-206.5 -60.5q-86 0 -150.5 28.5t-99 80.5t-34.5 119q0 23 7 60l34 157q25 115 105.5 176t208.5 61q87 0 150.5 -28zM296.5 492q-33.5 -23 -42.5 -67l-3 -16h243q2 14 2 21
q0 39 -30 62t-82 23q-54 0 -87.5 -23zM412 169q34 24 44 70l3 15h-242q-3 -13 -3 -25q0 -40 29 -62t81 -22q54 0 88 24z" />
    <glyph glyph-name="iota" unicode="&#x3b9;" horiz-adv-x="329" 
d="M71 36q-45 36 -45 99q0 17 5 42l70 329h198l-71 -313q-6 -27 28 -27h47l-36 -166h-72q-79 0 -124 36z" />
    <glyph glyph-name="kappa" unicode="&#x3ba;" horiz-adv-x="681" 
d="M725 479l-230 -195l139 -257l-6 -27h-194l-91 171l-124 -96l-17 -75h-198l113 506h198l-43 -192l230 192h229z" />
    <glyph glyph-name="lambda" unicode="&#x3bb;" horiz-adv-x="705" 
d="M655 29l-6 -27h-194l-76 293l-210 -293h-217l6 27l358 489q-6 7 -16 10t-27 3h-175l36 165h154q93 0 142.5 -36.5t73.5 -116.5z" />
    <glyph glyph-name="uni03BC" unicode="&#x3bc;" horiz-adv-x="740" 
d="M644 184q0 -18 26 -18h41l-36 -166h-89q-41 0 -72.5 12.5t-50.5 35.5q-25 -29 -60.5 -45t-75.5 -16q-36 0 -66.5 12t-51.5 33l-45 -202h-198l151 676h198l-56 -246q-3 -13 -3 -24q0 -36 25 -56.5t67 -20.5q33 0 56.5 13t44.5 38l68 296h198l-70 -312q-1 -4 -1 -10z" />
    <glyph glyph-name="nu" unicode="&#x3bd;" horiz-adv-x="697" 
d="M751 506l-6 -27l-329 -479h-256l-116 479l6 27h198l68 -317l211 317h224z" />
    <glyph glyph-name="xi" unicode="&#x3be;" horiz-adv-x="663" 
d="M574.5 683.5q66.5 -25.5 103.5 -70.5t37 -102q0 -19 -5 -42l-1 -2h-199l1 2q2 6 2 16q0 26 -26.5 39.5t-75.5 13.5q-48 0 -76.5 -14.5t-34.5 -41.5l-2 -7q-1 -4 -1 -11q0 -21 16.5 -33.5t44.5 -12.5h175l-33 -152h-211q-29 0 -46.5 -10t-21.5 -29l-2 -8q-1 -4 -1 -11
q0 -42 85 -42h118q85 0 130 -37t45 -103q0 -27 -5 -48l-2 -9q-14 -72 -61.5 -105.5t-136.5 -33.5h-174l31 138h137q11 0 16 2.5t6 9.5l1 5v3q0 12 -19 12h-95q-82 0 -143.5 23t-95 63.5t-33.5 93.5q0 21 6 43l4 15q21 97 114 132q-41 41 -41 100q0 20 4 37l4 19
q16 84 99.5 133.5t209.5 49.5q86 0 152.5 -25.5z" />
    <glyph glyph-name="omicron" unicode="&#x3bf;" horiz-adv-x="685" 
d="M171 16q-67 29 -103 81.5t-36 122.5q0 27 4 50l2 9q17 114 101 177t220 63q91 0 157.5 -28.5t101.5 -81t35 -123.5q0 -23 -5 -53l-1 -9q-18 -113 -100.5 -175t-217.5 -62q-91 0 -158 29zM413 180q29 21 37 62l1 4q2 14 2 21q0 38 -27.5 59.5t-75.5 21.5t-78 -22.5
t-37 -64.5l-1 -5q-2 -14 -2 -20q0 -35 28 -56t76 -21t77 21z" />
    <glyph glyph-name="pi" unicode="&#x3c0;" horiz-adv-x="814" 
d="M31 339l35 167h800l-35 -167h-142l-34 -142q-1 -3 -1 -9q0 -22 33 -22h83l-37 -166h-94q-83 0 -133.5 38t-50.5 109q0 27 5 48l31 144h-133l-78 -339h-198l78 339h-129z" />
    <glyph glyph-name="rho" unicode="&#x3c1;" horiz-adv-x="704" 
d="M537.5 490q65.5 -29 100.5 -81.5t35 -121.5q0 -28 -8 -65l-2 -9q-21 -106 -97 -166t-190 -60q-107 0 -170 52l-47 -209h-199l107 454q27 114 107.5 174.5t209.5 60.5q88 0 153.5 -29zM476 272q0 35 -27.5 55.5t-75.5 20.5q-96 0 -117 -87l-15 -64q17 -17 47 -27.5
t66 -10.5q51 0 79.5 20t38.5 62l2 9q2 8 2 22z" />
    <glyph glyph-name="uni03C2" unicode="&#x3c2;" horiz-adv-x="665" 
d="M363 -32q11 0 16.5 2.5t6.5 9.5l1 5v3q0 5 -5 8.5t-14 3.5h-77q-80 0 -139 27t-91 75.5t-32 112.5q0 22 5 50l4 18q20 113 103.5 174.5t215.5 61.5q86 0 153 -27.5t104.5 -76t37.5 -109.5q0 -16 -3 -33l-1 -6h-202l1 6q1 4 1 12q0 29 -25 46t-68 17q-52 0 -80.5 -18.5
t-37.5 -59.5l-4 -18q-3 -12 -3 -22q0 -31 22.5 -47.5t67.5 -16.5h80q84 0 129.5 -36.5t45.5 -102.5q0 -23 -6 -49l-2 -9q-14 -71 -60 -105t-137 -34h-175l31 138h137z" />
    <glyph glyph-name="sigma" unicode="&#x3c3;" horiz-adv-x="735" 
d="M755 339h-140q33 -37 33 -91q0 -16 -3 -33l-3 -11q-17 -101 -100 -159t-212 -58q-90 0 -158 29.5t-104.5 82t-36.5 121.5q0 22 5 50l2 10q20 112 103 169t228 57h422zM452 266q0 36 -31 73h-67q-53 0 -82.5 -20t-36.5 -61l-1 -4q-2 -14 -2 -20q0 -36 27.5 -56.5
t76.5 -20.5q47 0 76.5 21t36.5 61l1 5q2 7 2 22z" />
    <glyph glyph-name="tau" unicode="&#x3c4;" horiz-adv-x="572" 
d="M193.5 41q-46.5 41 -46.5 113q0 21 5 49l27 136h-149l37 167h543l-37 -167h-196l-33 -138q-1 -3 -1 -10q0 -25 35 -25h125l-36 -166h-140q-87 0 -133.5 41z" />
    <glyph glyph-name="upsilon" unicode="&#x3c5;" horiz-adv-x="704" 
d="M185.5 15.5q-62.5 28.5 -95.5 80t-33 120.5q0 25 7 63l46 227h198l-55 -250q-3 -15 -3 -27q0 -35 23.5 -54.5t67.5 -19.5q88 0 108 85l62 266h198l-69 -281q-28 -116 -105 -177t-201 -61q-86 0 -148.5 28.5z" />
    <glyph glyph-name="phi" unicode="&#x3c6;" horiz-adv-x="968" 
d="M804.5 479q63.5 -27 97.5 -77t34 -116q0 -21 -5 -51l-2 -14q-17 -107 -99.5 -164t-221.5 -57h-81l-38 -170h-197l38 170h-16q-86 0 -150 27.5t-98 78t-34 116.5q0 21 5 49l3 14q17 107 99 164t221 57h83l42 190h197l-42 -190h15q86 0 149.5 -27zM372 166l39 175h-61
q-103 0 -118 -72l-2 -9q-4 -18 -4 -27q0 -31 22.5 -49t63.5 -18h60zM742 272q0 32 -22.5 50.5t-63.5 18.5h-58l-39 -175h60q103 0 118 72l2 8q3 14 3 26z" />
    <glyph glyph-name="chi" unicode="&#x3c7;" horiz-adv-x="656" 
d="M694 479l-271 -320l139 -302l-6 -27h-190l-79 199l-158 -199h-219l6 27l276 317l-134 305l6 27h190l75 -195l153 195h218z" />
    <glyph glyph-name="psi" unicode="&#x3c8;" horiz-adv-x="898" 
d="M901 506l-66 -276q-28 -117 -105.5 -173.5t-213.5 -56.5h-25l-38 -170h-198l38 171q-113 9 -176.5 65.5t-63.5 146.5q0 26 6 54l48 239h199l-53 -237q-4 -17 -4 -34q0 -33 20 -50t61 -18l117 529h198l-117 -529h4q47 0 72.5 21t36.5 64l61 254h199z" />
    <glyph glyph-name="omega" unicode="&#x3c9;" horiz-adv-x="968" 
d="M865 447.5q68 -58.5 68 -158.5q0 -31 -8 -69l-2 -9q-21 -104 -97 -164t-187 -60q-59 0 -103.5 18.5t-71.5 53.5q-74 -72 -191 -72q-73 0 -128 27.5t-84.5 76t-29.5 111.5q0 29 8 64l2 9q24 117 104.5 174t219.5 57h54l-36 -165h-36q-49 0 -79.5 -20.5t-38.5 -60.5l-1 -7
q-4 -15 -4 -30q0 -32 21 -49.5t59 -17.5q45 0 69 27l41 184h194l-40 -179q19 -32 70 -32q40 0 65 19.5t33 55.5l2 7q3 15 3 29q0 36 -23.5 55t-66.5 19h-25l36 165h17q118 0 186 -58.5z" />
    <glyph glyph-name="iotadieresis" unicode="&#x3ca;" horiz-adv-x="329" 
d="M71 36q-45 36 -45 99q0 17 5 42l70 329h198l-71 -313q-6 -27 28 -27h47l-36 -166h-72q-79 0 -124 36zM23.5 575.5q-28.5 24.5 -28.5 66.5q0 49 31.5 77.5t77.5 28.5q43 0 72 -24t29 -65q0 -50 -31.5 -79t-77.5 -29q-44 0 -72.5 24.5zM285.5 575.5q-28.5 24.5 -28.5 66.5
q0 49 31 77.5t78 28.5q43 0 71.5 -24t28.5 -65q0 -50 -31.5 -79t-77.5 -29q-43 0 -71.5 24.5z" />
    <glyph glyph-name="upsilondieresis" unicode="&#x3cb;" horiz-adv-x="704" 
d="M185.5 15.5q-62.5 28.5 -95.5 80t-33 120.5q0 25 7 63l46 227h198l-55 -250q-3 -15 -3 -27q0 -35 23.5 -54.5t67.5 -19.5q88 0 108 85l62 266h198l-69 -281q-28 -116 -105 -177t-201 -61q-86 0 -148.5 28.5zM236.5 575.5q-28.5 24.5 -28.5 66.5q0 49 31.5 77.5t77.5 28.5
q43 0 72 -24t29 -65q0 -50 -31.5 -79t-77.5 -29q-44 0 -72.5 24.5zM498.5 575.5q-28.5 24.5 -28.5 66.5q0 49 31 77.5t78 28.5q43 0 71.5 -24t28.5 -65q0 -50 -31.5 -79t-77.5 -29q-43 0 -71.5 24.5z" />
    <glyph glyph-name="omicrontonos" unicode="&#x3cc;" horiz-adv-x="685" 
d="M171 16q-67 29 -103 81.5t-36 122.5q0 27 4 50l2 9q17 114 101 177t220 63q91 0 157.5 -28.5t101.5 -81t35 -123.5q0 -23 -5 -53l-1 -9q-18 -113 -100.5 -175t-217.5 -62q-91 0 -158 29zM413 180q29 21 37 62l1 4q2 14 2 21q0 38 -27.5 59.5t-75.5 21.5t-78 -22.5
t-37 -64.5l-1 -5q-2 -14 -2 -20q0 -35 28 -56t76 -21t77 21zM540 816l-78 -262h-175l78 262h175z" />
    <glyph glyph-name="upsilontonos" unicode="&#x3cd;" horiz-adv-x="704" 
d="M185.5 15.5q-62.5 28.5 -95.5 80t-33 120.5q0 25 7 63l46 227h198l-55 -250q-3 -15 -3 -27q0 -35 23.5 -54.5t67.5 -19.5q88 0 108 85l62 266h198l-69 -281q-28 -116 -105 -177t-201 -61q-86 0 -148.5 28.5zM583 816l-78 -262h-175l78 262h175z" />
    <glyph glyph-name="omegatonos" unicode="&#x3ce;" horiz-adv-x="968" 
d="M865 447.5q68 -58.5 68 -158.5q0 -31 -8 -69l-2 -9q-21 -104 -97 -164t-187 -60q-59 0 -103.5 18.5t-71.5 53.5q-74 -72 -191 -72q-73 0 -128 27.5t-84.5 76t-29.5 111.5q0 29 8 64l2 9q24 117 104.5 174t219.5 57h54l-36 -165h-36q-49 0 -79.5 -20.5t-38.5 -60.5l-1 -7
q-4 -15 -4 -30q0 -32 21 -49.5t59 -17.5q45 0 69 27l41 184h194l-40 -179q19 -32 70 -32q40 0 65 19.5t33 55.5l2 7q3 15 3 29q0 36 -23.5 55t-66.5 19h-25l36 165h17q118 0 186 -58.5zM707 816l-78 -262h-175l78 262h175z" />
    <glyph glyph-name="uni0400" unicode="&#x400;" horiz-adv-x="723" 
d="M762 656l-37 -167h-405l-18 -78h385l-36 -165h-385l-19 -78h405l-36 -168h-610l146 656h610zM284 905l438 -60l-31 -146l-438 60z" />
    <glyph glyph-name="uni0401" unicode="&#x401;" horiz-adv-x="723" 
d="M762 656l-37 -167h-405l-18 -78h385l-36 -165h-385l-19 -78h405l-36 -168h-610l146 656h610zM280.5 725.5q-28.5 24.5 -28.5 66.5q0 49 31.5 77.5t77.5 28.5q43 0 72 -24t29 -65q0 -50 -31.5 -79t-77.5 -29q-44 0 -72.5 24.5zM542.5 725.5q-28.5 24.5 -28.5 66.5
q0 49 31 77.5t78 28.5q43 0 71.5 -24t28.5 -65q0 -50 -31.5 -79t-77.5 -29q-43 0 -71.5 24.5z" />
    <glyph glyph-name="uni0402" unicode="&#x402;" horiz-adv-x="944" 
d="M825 364.5q75 -48.5 75 -138.5q0 -18 -3 -36l-2 -10q-13 -90 -86.5 -135t-211.5 -45h-146l35 159h110q52 0 75.5 9t28.5 30l1 7q1 4 1 10q0 21 -26.5 30t-87.5 9q-59 0 -162 -7l-55 -247h-205l107 481h-207l38 175h659l-38 -175h-247l-17 -79q82 11 150 11
q139 0 214 -48.5z" />
    <glyph glyph-name="uni0403" unicode="&#x403;" horiz-adv-x="627" 
d="M701 656l-38 -175h-344l-108 -481h-205l146 656h549zM732 909l-36 -156l-465 -60l36 156z" />
    <glyph glyph-name="uni0404" unicode="&#x404;" horiz-adv-x="874" 
d="M681 634.5q87 -34.5 135.5 -95t48.5 -136.5q0 -19 -3 -39l-1 -3h-203l1 3q2 12 2 19q0 51 -50 82.5t-133 31.5q-149 0 -196 -91h308l-33 -156h-299q14 -44 59.5 -67t120.5 -23q88 0 141 29t61 81l1 3h209v-3q-14 -84 -70.5 -148.5t-146.5 -99.5t-202 -35
q-115 0 -201.5 37t-133 103.5t-46.5 153.5q0 34 7 68l1 5q29 150 140 232.5t285 82.5q111 0 198 -34.5z" />
    <glyph glyph-name="uni0405" unicode="&#x405;" horiz-adv-x="771" 
d="M116.5 37q-80.5 50 -80.5 142q0 19 5 46l2 10h199l-2 -10q-1 -4 -1 -12q0 -29 34 -45.5t97 -16.5q66 0 99.5 11.5t38.5 34.5l1 6q2 15 -10.5 24.5t-43.5 14.5l-166 28q-91 16 -138 56.5t-47 103.5q0 20 4 39l2 10q19 95 103.5 142.5t237.5 47.5q148 0 227.5 -48
t79.5 -137q0 -22 -4 -41l-1 -8h-197l1 8q1 3 1 10q0 52 -123 52q-120 0 -128 -39l-1 -6q-2 -12 10.5 -20t42.5 -13l167 -28q94 -16 142 -57t48 -105q0 -17 -5 -42l-2 -10q-38 -198 -362 -198q-150 0 -230.5 50z" />
    <glyph glyph-name="uni0406" unicode="&#x406;" horiz-adv-x="299" 
d="M342 656l-146 -656h-206l147 656h205z" />
    <glyph glyph-name="uni0407" unicode="&#x407;" horiz-adv-x="299" 
d="M342 656l-146 -656h-206l147 656h205zM64.5 725.5q-28.5 24.5 -28.5 66.5q0 49 31.5 77.5t77.5 28.5q43 0 72 -24t29 -65q0 -50 -31.5 -79t-77.5 -29q-44 0 -72.5 24.5zM326.5 725.5q-28.5 24.5 -28.5 66.5q0 49 31 77.5t78 28.5q43 0 71.5 -24t28.5 -65q0 -50 -31.5 -79
t-77.5 -29q-43 0 -71.5 24.5z" />
    <glyph glyph-name="uni0408" unicode="&#x408;" horiz-adv-x="749" 
d="M186.5 19.5q-71.5 32.5 -111 91t-39.5 134.5q0 29 6 60l6 28h203l-6 -28q-5 -23 -5 -38q0 -47 30 -72t86 -25q63 0 96 29.5t50 99.5l43 182h-269l38 175h474l-96 -388q-34 -139 -117.5 -210t-221.5 -71q-95 0 -166.5 32.5z" />
    <glyph glyph-name="uni0409" unicode="&#x409;" horiz-adv-x="1240" 
d="M1137.5 402.5q62.5 -51.5 62.5 -137.5q0 -25 -6 -54l-3 -13q-20 -99 -91 -148t-197 -49h-433l107 480h-215l-56 -218q-36 -138 -103.5 -200.5t-186.5 -62.5h-73l40 180h25q50 0 77.5 25.5t42.5 85.5l91 365h601l-45 -202h190q110 0 172.5 -51.5zM997 245q0 20 -14.5 30.5
t-42.5 10.5h-201l-28 -116h207q34 0 51.5 12t23.5 38l2 11q2 10 2 14z" />
    <glyph glyph-name="uni040A" unicode="&#x40a;" horiz-adv-x="1276" 
d="M357 656l-52 -230h295l52 230h205l-48 -214h186q111 0 174.5 -51.5t63.5 -138.5q0 -24 -6 -53l-1 -10q-17 -94 -86.5 -141.5t-189.5 -47.5h-444l56 250h-295l-56 -250h-205l146 656h205zM1006 177q17 11 22 36l2 12q1 4 1 12q0 19 -14.5 30t-41.5 11h-201l-26 -112h209
q32 0 49 11z" />
    <glyph glyph-name="uni040B" unicode="&#x40b;" horiz-adv-x="960" 
d="M820 362.5q74 -56.5 74 -158.5q0 -28 -6 -58l-28 -146h-206l31 144q3 17 3 29q0 79 -127 79q-46 0 -135 -7l-55 -245h-205l107 481h-207l38 175h659l-38 -175h-247l-16 -72q83 10 147 10q137 0 211 -56.5z" />
    <glyph glyph-name="uni040C" unicode="&#x40c;" horiz-adv-x="803" 
d="M856 626l-321 -298l169 -298l-7 -30h-200l-127 240h-106l-53 -240h-205l146 656h205l-53 -240h68l246 240h244zM767 909l-36 -156l-465 -60l36 156z" />
    <glyph glyph-name="uni040D" unicode="&#x40d;" horiz-adv-x="819" 
d="M353 656l-79 -368l368 368h204l-146 -656h-202l80 368l-368 -368h-204l146 656h201zM328 905l438 -60l-31 -146l-438 60z" />
    <glyph glyph-name="uni040E" unicode="&#x40e;" horiz-adv-x="763" 
d="M845 656l-7 -30l-352 -474q-63 -85 -116.5 -118.5t-131.5 -33.5h-187l38 176h148q17 0 31 3l-167 447l6 30h195l104 -313l215 313h224zM359.5 737q-55.5 40 -55.5 109q0 17 3 35l2 10h156l-2 -10q-1 -3 -1 -9q0 -17 16 -26.5t46 -9.5q31 0 47.5 11t21.5 34l2 10h166
l-2 -10q-19 -94 -79 -139t-167 -45q-98 0 -153.5 40z" />
    <glyph glyph-name="uni040F" unicode="&#x40f;" horiz-adv-x="799" 
d="M681 0h-227l-32 -143h-204l32 143h-244l146 656h204l-107 -480h265l107 480h206z" />
    <glyph glyph-name="uni0410" unicode="&#x410;" horiz-adv-x="770" 
d="M727 30l-7 -30h-190l-19 110h-282l-69 -110h-210l6 30l412 626h226zM483 272l-34 192l-119 -192h153z" />
    <glyph glyph-name="uni0411" unicode="&#x411;" horiz-adv-x="785" 
d="M782 656l-35 -165h-426l-19 -85h196q109 0 171.5 -46.5t62.5 -124.5q0 -19 -5 -44l-2 -11q-18 -92 -85 -136t-190 -44h-444l146 656h630zM526 204l2 10q1 4 1 10q0 18 -14 27.5t-42 9.5h-203l-23 -95h209q62 0 70 38z" />
    <glyph glyph-name="uni0412" unicode="&#x412;" horiz-adv-x="785" 
d="M713 614.5q59 -41.5 59 -113.5q0 -21 -4 -40l-2 -10q-15 -82 -93 -126q57 -42 57 -109q0 -11 -4 -35l-2 -10q-33 -168 -284 -170l-229 -1h-205l146 656h396q106 0 165 -41.5zM320 488l-19 -84h204q53 0 61 37l2 10q1 3 1 8q0 29 -46 29h-203zM532 226q0 30 -46 30h-218
l-20 -88h220q52 0 61 39l2 10q1 3 1 9z" />
    <glyph glyph-name="uni0413" unicode="&#x413;" horiz-adv-x="627" 
d="M701 656l-38 -175h-344l-108 -481h-205l146 656h549z" />
    <glyph glyph-name="uni0414" unicode="&#x414;" horiz-adv-x="867" 
d="M737 176h100l-68 -309h-205l30 133h-437l-30 -133h-205l67 309h83q33 39 56 84.5t38 107.5l71 288h607zM320 255.5q-17 -41.5 -46 -79.5h261l69 305l-220 -1l-32 -124q-15 -59 -32 -100.5z" />
    <glyph glyph-name="uni0415" unicode="&#x415;" horiz-adv-x="723" 
d="M762 656l-37 -167h-405l-18 -78h385l-36 -165h-385l-19 -78h405l-36 -168h-610l146 656h610z" />
    <glyph glyph-name="uni0416" unicode="&#x416;" horiz-adv-x="1257" 
d="M1310 626l-305 -313l159 -283l-7 -30h-200l-131 241h-97l-54 -241h-205l54 241h-87l-214 -241h-231l7 30l287 322l-173 274l7 30h208l144 -240h91l53 240h205l-53 -240h82l226 240h241z" />
    <glyph glyph-name="uni0417" unicode="&#x417;" horiz-adv-x="833" 
d="M648.5 644.5q75.5 -24.5 116.5 -68.5t41 -100q0 -15 -3 -32l-2 -10q-15 -77 -90 -113q57 -39 57 -101q0 -14 -3 -29l-2 -10q-17 -92 -112.5 -143t-250.5 -51q-168 0 -261.5 62t-93.5 171q0 30 5 52l2 7h196l-1 -7q-3 -13 -3 -25q0 -45 42 -66t131 -21q66 0 105 12.5
t43 34.5l2 10q1 3 1 10q0 18 -26 24t-100 6h-122l31 145h118q72 0 100 7.5t32 27.5l2 10q5 23 -30.5 36.5t-102.5 13.5q-89 0 -134.5 -26.5t-57.5 -86.5l-2 -7h-203l2 7q31 144 130 214.5t270 70.5q98 0 173.5 -24.5z" />
    <glyph glyph-name="uni0418" unicode="&#x418;" horiz-adv-x="819" 
d="M353 656l-79 -368l368 368h204l-146 -656h-202l80 368l-368 -368h-204l146 656h201z" />
    <glyph glyph-name="uni0419" unicode="&#x419;" horiz-adv-x="819" 
d="M353 656l-79 -368l368 368h204l-146 -656h-202l80 368l-368 -368h-204l146 656h201zM376.5 737q-55.5 40 -55.5 109q0 17 3 35l2 10h156l-2 -10q-1 -3 -1 -9q0 -17 16 -26.5t46 -9.5q31 0 47.5 11t21.5 34l2 10h166l-2 -10q-19 -94 -79 -139t-167 -45q-98 0 -153.5 40z
" />
    <glyph glyph-name="uni041A" unicode="&#x41a;" horiz-adv-x="803" 
d="M856 626l-321 -298l169 -298l-7 -30h-200l-127 240h-106l-53 -240h-205l146 656h205l-53 -240h68l246 240h244z" />
    <glyph glyph-name="uni041B" unicode="&#x41b;" horiz-adv-x="794" 
d="M675 0h-205l108 481h-216l-56 -218q-36 -138 -103.5 -200.5t-186.5 -62.5h-73l40 180h25q50 0 77.5 25.5t42.5 85.5l91 365h602z" />
    <glyph glyph-name="uni041C" unicode="&#x41c;" horiz-adv-x="1029" 
d="M911 0h-202l79 357l-230 -357h-201l-70 355l-79 -355h-202l146 656h259l86 -431l272 431h288z" />
    <glyph glyph-name="uni041D" unicode="&#x41d;" horiz-adv-x="819" 
d="M357 656l-54 -240h285l54 240h205l-146 -656h-205l54 240h-285l-54 -240h-205l146 656h205z" />
    <glyph glyph-name="uni041E" unicode="&#x41e;" horiz-adv-x="877" 
d="M229 24q-86 37 -133 104t-47 153q0 34 7 66l1 5q30 151 141 234t284 83q114 0 200 -37t132.5 -103t46.5 -152q0 -36 -7 -68l-1 -5q-29 -152 -139.5 -234.5t-284.5 -82.5q-114 0 -200 37zM649 313l2 11q4 17 4 36q0 59 -48 93t-136 34q-177 0 -210 -145l-2 -11
q-5 -22 -5 -38q0 -58 47.5 -90.5t135.5 -32.5q182 0 212 143z" />
    <glyph glyph-name="uni041F" unicode="&#x41f;" horiz-adv-x="799" 
d="M827 656l-146 -656h-205l108 481h-265l-108 -481h-205l146 656h675z" />
    <glyph glyph-name="uni0420" unicode="&#x420;" horiz-adv-x="787" 
d="M562 656q71 0 123.5 -23.5t81 -66.5t28.5 -98q0 -24 -4 -44l-2 -10q-21 -105 -95.5 -158t-200.5 -53h-237l-45 -203h-205l146 656h410zM584 424l2 10q1 5 1 13q0 40 -55 40h-212l-27 -114h216q65 0 75 51z" />
    <glyph glyph-name="uni0421" unicode="&#x421;" horiz-adv-x="874" 
d="M231 23.5q-87 36.5 -134 103.5t-47 154q0 34 7 68l1 5q29 149 141 232t284 83q111 0 198.5 -34.5t136 -95t48.5 -137.5q0 -16 -3 -34l-1 -7h-205l1 7q1 5 1 15q0 48 -48 76t-134 28q-188 0 -215 -143l-3 -11q-4 -19 -4 -39q0 -60 47 -92t138 -32q86 0 138.5 25t61.5 71
l2 7h209l-1 -7q-29 -132 -138.5 -205.5t-277.5 -73.5q-116 0 -203 36.5z" />
    <glyph glyph-name="uni0422" unicode="&#x422;" horiz-adv-x="691" 
d="M66 481l39 175h661l-39 -175h-223l-108 -481h-205l108 481h-233z" />
    <glyph glyph-name="uni0423" unicode="&#x423;" horiz-adv-x="738" 
d="M845 656l-7 -30l-352 -474q-63 -85 -116.5 -118.5t-131.5 -33.5h-187l38 176h148q17 0 31 3l-167 447l6 30h195l104 -313l215 313h224z" />
    <glyph glyph-name="uni0424" unicode="&#x424;" horiz-adv-x="1096" 
d="M939.5 572q67.5 -29 103.5 -81.5t36 -121.5q0 -33 -7 -62l-1 -6q-25 -120 -115.5 -183t-240.5 -63h-110l-15 -68h-204l15 68h-52q-91 0 -158.5 29t-104 81t-36.5 121q0 33 7 62l2 6q24 120 115.5 183.5t242.5 63.5h106l14 68h204l-14 -68h54q91 0 158.5 -29zM252 298
q0 -77 111 -77h82l48 215h-91q-64 0 -98 -23t-45 -74l-3 -11q-4 -22 -4 -30zM877 358q0 78 -111 78h-85l-48 -215h95q64 0 97.5 22.5t45.5 74.5l2 10q4 22 4 30z" />
    <glyph glyph-name="uni0425" unicode="&#x425;" horiz-adv-x="819" 
d="M874 626l-315 -306l182 -290l-6 -30h-212l-115 193l-189 -193h-248l7 30l315 306l-182 290l7 30h211l115 -193l190 193h247z" />
    <glyph glyph-name="uni0426" unicode="&#x426;" horiz-adv-x="850" 
d="M720 176h98l-67 -309h-205l30 133h-570l146 656h205l-109 -480h266l108 480h205z" />
    <glyph glyph-name="uni0427" unicode="&#x427;" horiz-adv-x="799" 
d="M826 656l-146 -656h-205l49 220q-82 -10 -148 -10q-135 0 -209.5 57.5t-74.5 158.5q0 29 6 60l34 170h205l-38 -169q-3 -13 -3 -26q0 -75 129 -75q55 0 137 5l59 265h205z" />
    <glyph glyph-name="uni0428" unicode="&#x428;" horiz-adv-x="1159" 
d="M357 656l-108 -480h210l108 480h205l-108 -480h210l108 480h205l-146 -656h-1035l146 656h205z" />
    <glyph glyph-name="uni0429" unicode="&#x429;" horiz-adv-x="1208" 
d="M1078 176h99l-68 -309h-205l30 133h-928l146 656h205l-108 -480h209l108 480h205l-108 -480h209l107 480h206z" />
    <glyph glyph-name="uni042A" unicode="&#x42a;" horiz-adv-x="937" 
d="M835.5 402.5q62.5 -51.5 62.5 -137.5q0 -25 -6 -54l-3 -13q-20 -99 -91 -148t-197 -49h-434l106 480h-207l38 175h413l-45 -202h191q110 0 172.5 -51.5zM694 244q0 20 -14 31t-42 11h-202l-28 -116h208q34 0 51.5 12t23.5 38l2 11q1 5 1 13z" />
    <glyph glyph-name="uni042B" unicode="&#x42b;" horiz-adv-x="1013" 
d="M357 656l-45 -202h153q110 0 172.5 -51.5t62.5 -137.5q0 -25 -6 -54l-3 -13q-20 -99 -91 -148t-197 -49h-396l145 655h205zM1042 656l-146 -656h-205l146 656h205zM469.5 182q17.5 12 23.5 38l2 11q2 10 2 14q0 20 -14.5 30.5t-42.5 10.5h-164l-28 -116h170q34 0 51.5 12
z" />
    <glyph glyph-name="uni042C" unicode="&#x42c;" horiz-adv-x="776" 
d="M357 656l-45 -202h190q110 0 172.5 -51.5t62.5 -137.5q0 -25 -6 -54l-3 -13q-19 -99 -90 -148t-198 -49h-434l146 655h205zM507 182q18 12 23 38l2 11q2 10 2 15q0 40 -56 40h-202l-28 -116h207q34 0 52 12z" />
    <glyph glyph-name="uni042D" unicode="&#x42d;" horiz-adv-x="874" 
d="M678 632q86 -37 133 -103.5t47 -153.5q0 -34 -7 -68l-1 -5q-29 -150 -140 -232.5t-285 -82.5q-111 0 -198 34.5t-135.5 95t-48.5 135.5q0 20 3 39l1 3h203l-1 -3q-2 -14 -2 -19q0 -51 48.5 -81.5t132.5 -30.5q71 0 121 22.5t75 65.5h-308l36 160h298q-12 44 -57 66.5
t-121 22.5q-87 0 -141.5 -30t-62.5 -82l-1 -3h-209v3q14 85 70.5 149t146.5 99.5t202 35.5q115 0 201 -37z" />
    <glyph glyph-name="uni042E" unicode="&#x42e;" horiz-adv-x="1161" 
d="M968.5 632q85.5 -37 132 -103.5t46.5 -152.5q0 -35 -7 -67l-1 -5q-30 -152 -140 -234.5t-283 -82.5q-102 0 -182.5 31.5t-129 89t-58.5 132.5h-82l-53 -240h-205l146 656h205l-53 -240h65q43 121 146.5 187t253.5 66q114 0 199.5 -37zM941 359q0 60 -48.5 94t-134.5 34
t-136 -36t-67 -109l-2 -11q-5 -22 -5 -38q0 -58 46 -90.5t130 -32.5q180 0 210 143l3 11q4 16 4 35z" />
    <glyph glyph-name="uni042F" unicode="&#x42f;" horiz-adv-x="806" 
d="M834 656l-146 -656h-205l48 215h-61l-231 -215h-241l7 30l227 203q-63 23 -99 69.5t-36 106.5q0 19 5 44l2 10q17 93 87.5 143t187.5 50h455zM592 487h-223q-30 0 -46.5 -12t-22.5 -38l-2 -10q-1 -4 -1 -13q0 -20 14.5 -31.5t41.5 -11.5h211z" />
    <glyph glyph-name="uni0430" unicode="&#x430;" horiz-adv-x="716" 
d="M688 166l-36 -166h-91q-81 0 -121 48q-44 -30 -100.5 -45.5t-121.5 -15.5q-92 0 -144 36t-52 99q0 20 4 37q12 57 58 87t135 39l229 23q1 28 -21.5 42.5t-66.5 14.5q-42 0 -68.5 -12.5t-29.5 -32.5l-1 -3h-200l1 3q16 94 98 146.5t212 52.5q129 0 202.5 -51t73.5 -138
q0 -22 -6 -48l-20 -92q-1 -3 -1 -8q0 -16 25 -16h42zM265 118q39 0 82.5 14t72.5 34l7 35l-168 -18q-42 -4 -42 -37q0 -28 48 -28z" />
    <glyph glyph-name="uni0431" unicode="&#x431;" horiz-adv-x="704" 
d="M742 696l-13 -58q-24 -109 -153 -118l-182 -13q-58 -4 -87 -27.5t-40 -75.5q77 45 173 45q108 0 168 -48t60 -132q0 -25 -6 -54l-3 -12q-20 -104 -99 -160t-209 -56q-143 0 -221 67t-78 186q0 41 11 93l4 17q23 107 62.5 173t103.5 99.5t161 40.5l110 7q19 1 27.5 5.5
t10.5 14.5l2 6h198zM468 240q0 30 -25 48t-70 18q-69 0 -125 -37l-4 -19q-2 -9 -2 -25q0 -39 28 -61t81 -22q47 0 76 17.5t36 49.5l3 12q2 7 2 19z" />
    <glyph glyph-name="uni0432" unicode="&#x432;" horiz-adv-x="710" 
d="M628.5 472q56.5 -34 56.5 -92q0 -13 -3 -28l-2 -9q-13 -65 -74 -96q45 -33 45 -84q0 -9 -4 -29l-2 -9q-13 -63 -72 -94t-168 -31h-401l113 506h357q98 0 154.5 -34zM287 381l-16 -70h154q26 0 39.5 7t16.5 21l1 8q1 3 1 9q0 25 -42 25h-154zM446 189q-11 9 -34 9h-166
l-16 -72h165q50 0 56 30l2 8q4 16 -7 25z" />
    <glyph glyph-name="uni0433" unicode="&#x433;" horiz-adv-x="513" 
d="M556 506l-36 -166h-241l-77 -340h-198l113 506h439z" />
    <glyph glyph-name="uni0434" unicode="&#x434;" horiz-adv-x="762" 
d="M740 166l-65 -294h-198l28 128h-358l-29 -128h-198l64 294h77q29 32 47.5 67.5t30.5 86.5l47 186h538l-76 -340h92zM452 166l40 175h-164l-9 -33q-13 -52 -26.5 -83t-37.5 -59h197z" />
    <glyph glyph-name="uni0435" unicode="&#x435;" horiz-adv-x="671" 
d="M511.5 492q65.5 -27 100.5 -75.5t35 -113.5q0 -20 -5 -48l-11 -50h-416q1 -34 27.5 -52.5t76.5 -18.5q81 0 103 34h203q-26 -88 -106 -134.5t-205 -46.5q-86 0 -150.5 29t-99.5 80.5t-35 118.5q0 22 5 50l4 18q20 113 103.5 174.5t217.5 61.5q87 0 152.5 -27zM241 318
h211q-5 29 -30.5 44.5t-68.5 15.5q-83 0 -112 -60z" />
    <glyph glyph-name="uni0436" unicode="&#x436;" horiz-adv-x="1018" 
d="M1053 479l-209 -233l118 -219l-6 -27h-190l-89 171h-88l-38 -171h-198l38 171h-72l-156 -171h-216l6 27l219 239l-107 213l6 27h190l82 -170h85l38 170h198l-38 -170h66l151 170h216z" />
    <glyph glyph-name="uni0437" unicode="&#x437;" horiz-adv-x="684" 
d="M513.5 500q63.5 -19 98 -54t34.5 -81q0 -12 -3 -26l-2 -10q-10 -58 -67 -88q43 -32 43 -83q0 -12 -3 -26l-2 -10q-11 -66 -86.5 -100.5t-210.5 -34.5q-144 0 -217 48.5t-73 144.5q0 26 4 47l1 3h176l-1 -3q-3 -15 -3 -27q0 -39 27 -57.5t83 -18.5q97 0 103 35l2 8
q3 14 -8.5 22t-36.5 8h-113l26 116h111q25 0 35.5 4.5t12.5 16.5l2 8q4 18 -22.5 29t-74.5 11q-62 0 -93 -21.5t-39 -68.5l-1 -3h-176v3q19 115 99 171t227 56q84 0 147.5 -19z" />
    <glyph glyph-name="uni0438" unicode="&#x438;" horiz-adv-x="713" 
d="M302 506l-58 -268l290 268h175l-113 -506h-185l59 267l-290 -267h-176l113 506h185z" />
    <glyph glyph-name="uni0439" unicode="&#x439;" horiz-adv-x="713" 
d="M302 506l-58 -268l290 268h175l-113 -506h-185l59 267l-290 -267h-176l113 506h185zM291.5 587q-55.5 40 -55.5 109q0 17 3 35l2 10h156l-2 -10q-1 -3 -1 -9q0 -17 16 -26.5t46 -9.5q31 0 47.5 11t21.5 34l2 10h166l-2 -10q-19 -94 -79 -139t-167 -45q-98 0 -153.5 40z
" />
    <glyph glyph-name="uni043A" unicode="&#x43a;" horiz-adv-x="687" 
d="M725 479l-225 -229l135 -220l-7 -30h-193l-101 171h-94l-38 -171h-198l113 506h198l-38 -171h66l167 171h221z" />
    <glyph glyph-name="uni043B" unicode="&#x43b;" horiz-adv-x="712" 
d="M596 0h-198l77 340h-168l-34 -119q-32 -114 -87.5 -167.5t-148.5 -53.5h-84l39 172h25q36 0 54.5 19t30.5 66l66 249h541z" />
    <glyph glyph-name="uni043C" unicode="&#x43c;" horiz-adv-x="913" 
d="M911 506l-113 -506h-191l55 245l18 79l-45 -79l-147 -245h-172l-39 245l-11 84l-17 -84l-52 -245h-193l113 506h271l49 -301l185 301h289z" />
    <glyph glyph-name="uni043D" unicode="&#x43d;" horiz-adv-x="718" 
d="M314 506l-38 -169h204l38 169h198l-113 -506h-198l39 171h-204l-39 -171h-198l113 506h198z" />
    <glyph glyph-name="uni043E" unicode="&#x43e;" horiz-adv-x="685" 
d="M171 16q-67 29 -103 81.5t-36 122.5q0 27 4 50l2 9q17 114 101 177t220 63q91 0 157.5 -28.5t101.5 -81t35 -123.5q0 -23 -5 -53l-1 -9q-18 -113 -100.5 -175t-217.5 -62q-91 0 -158 29zM413 180q29 21 37 62l1 4q2 14 2 21q0 38 -27.5 59.5t-75.5 21.5t-78 -22.5
t-37 -64.5l-1 -5q-2 -14 -2 -20q0 -35 28 -56t76 -21t77 21z" />
    <glyph glyph-name="uni043F" unicode="&#x43f;" horiz-adv-x="708" 
d="M706 506l-113 -506h-198l77 341h-195l-77 -341h-198l113 506h591z" />
    <glyph glyph-name="uni0440" unicode="&#x440;" horiz-adv-x="710" 
d="M567.5 490.5q54.5 -28.5 84 -79.5t29.5 -116q0 -26 -4 -49l-2 -9q-19 -117 -97 -183.5t-199 -66.5q-105 0 -167 53l-47 -210h-199l151 676h175l-1 -35q66 48 151 48q71 0 125.5 -28.5zM479 271q0 35 -26.5 55.5t-73.5 20.5q-32 0 -59.5 -8.5t-46.5 -24.5l-26 -116
q16 -17 45 -27.5t64 -10.5q52 0 82.5 22.5t37.5 65.5l2 7q1 5 1 16z" />
    <glyph glyph-name="uni0441" unicode="&#x441;" horiz-adv-x="670" 
d="M169.5 16q-66.5 29 -102.5 81.5t-36 121.5q0 22 5 52l2 8q20 116 102 178t215 62q86 0 153 -26.5t104.5 -74t37.5 -106.5q0 -20 -2 -30l-1 -6h-202l1 6q1 3 1 10q0 25 -26.5 40.5t-70.5 15.5q-100 0 -116 -86l-2 -7q-2 -14 -2 -20q0 -36 27.5 -56t77.5 -20
q43 0 68.5 13.5t29.5 39.5l1 6h204l-1 -6q-18 -107 -99.5 -166t-212.5 -59q-89 0 -155.5 29z" />
    <glyph glyph-name="uni0442" unicode="&#x442;" horiz-adv-x="606" 
d="M35 339l36 167h576l-36 -167h-186l-77 -339h-198l77 339h-192z" />
    <glyph glyph-name="uni0443" unicode="&#x443;" horiz-adv-x="697" 
d="M751 506l-6 -27l-371 -537q-40 -57 -91.5 -84.5t-136.5 -27.5h-170l36 165h147q7 0 21 2l-136 482l6 27h200l79 -307l200 307h222z" />
    <glyph glyph-name="uni0444" unicode="&#x444;" horiz-adv-x="968" 
d="M804.5 479q63.5 -27 97.5 -77t34 -116q0 -21 -5 -51l-2 -14q-17 -107 -99.5 -164t-221.5 -57h-81l-38 -170h-197l38 170h-16q-86 0 -150 27.5t-98 78t-34 116.5q0 21 5 49l3 14q17 107 99 164t221 57h83l42 190h197l-42 -190h15q86 0 149.5 -27zM372 166l39 175h-61
q-103 0 -118 -72l-2 -9q-4 -18 -4 -27q0 -31 22.5 -49t63.5 -18h60zM742 272q0 32 -22.5 50.5t-63.5 18.5h-58l-39 -175h60q103 0 118 72l2 8q3 14 3 26z" />
    <glyph glyph-name="uni0445" unicode="&#x445;" horiz-adv-x="656" 
d="M696 479l-239 -232l145 -220l-6 -27h-210l-76 133l-125 -133h-238l6 27l244 234l-141 218l6 27h209l74 -129l121 129h236z" />
    <glyph glyph-name="uni0446" unicode="&#x446;" horiz-adv-x="734" 
d="M712 166l-65 -294h-198l28 128h-473l113 506h198l-77 -340h184l77 340h198l-76 -340h91z" />
    <glyph glyph-name="uni0447" unicode="&#x447;" horiz-adv-x="677" 
d="M675 506l-113 -506h-198l32 143q-55 -5 -94 -5q-119 0 -182.5 51t-63.5 140q0 27 6 57l24 120h198l-28 -128q-2 -12 -2 -17q0 -54 89 -54q48 0 90 3l44 196h198z" />
    <glyph glyph-name="uni0448" unicode="&#x448;" horiz-adv-x="1039" 
d="M314 506l-77 -340h164l77 340h198l-77 -340h163l77 340h198l-113 -506h-921l113 506h198z" />
    <glyph glyph-name="uni0449" unicode="&#x449;" horiz-adv-x="1075" 
d="M1050 166l-65 -294h-198l29 128h-813l113 506h198l-77 -340h164l77 340h198l-77 -340h163l77 340h198l-76 -340h89z" />
    <glyph glyph-name="uni044A" unicode="&#x44a;" horiz-adv-x="835" 
d="M694.5 382q47.5 -22 73.5 -61.5t26 -89.5q0 -26 -5 -45l-2 -10q-19 -88 -81.5 -132t-171.5 -44h-399l76 339h-176l36 167h375l-23 -102h162q62 0 109.5 -22zM598 217q0 16 -11 25t-32 9h-166l-22 -97h174q21 0 35 9.5t18 26.5l2 11q2 6 2 16z" />
    <glyph glyph-name="uni044B" unicode="&#x44b;" horiz-adv-x="902" 
d="M609 176q-35 -176 -253 -176h-368l113 506h198l-23 -102h131q62 0 109.5 -22t74 -61t26.5 -89q0 -22 -6 -46zM915 506l-113 -506h-198l113 506h198zM420 217q0 17 -11 26t-32 9h-135l-22 -100h143q21 0 35 10t18 28l2 11q2 6 2 16z" />
    <glyph glyph-name="uni044C" unicode="&#x44c;" horiz-adv-x="704" 
d="M563.5 382q47.5 -22 73.5 -61.5t26 -89.5q0 -26 -5 -45l-2 -10q-19 -88 -81.5 -132t-171.5 -44h-399l113 506h198l-23 -102h162q62 0 109.5 -22zM467 217q0 16 -11 25t-32 9h-166l-22 -97h174q21 0 35 9.5t18 26.5l2 11q2 6 2 16z" />
    <glyph glyph-name="uni044D" unicode="&#x44d;" horiz-adv-x="670" 
d="M502 490q66 -29 101.5 -81t35.5 -120q0 -30 -5 -53l-3 -18q-20 -110 -102.5 -170.5t-214.5 -60.5q-87 0 -154 26.5t-103.5 73.5t-36.5 108q0 16 3 32l1 3h187v-3q-1 -6 -1 -17q0 -37 28.5 -59t78.5 -22q89 0 119 67h-191l25 115h184q-5 32 -32.5 49t-73.5 17
q-110 0 -125 -86v-3h-190v3q19 108 102 168t213 60q88 0 154 -29z" />
    <glyph glyph-name="uni044E" unicode="&#x44e;" horiz-adv-x="928" 
d="M767 490q63 -29 97 -80.5t34 -118.5q0 -32 -7 -63l-2 -9q-24 -115 -103.5 -173.5t-212.5 -58.5q-109 0 -181.5 50t-87.5 133h-63l-39 -170h-198l113 506h198l-38 -169h49q35 89 109.5 135.5t184.5 46.5q84 0 147 -29zM698 268q0 36 -25 58t-69 22q-90 0 -108 -79l-1 -4
q-4 -13 -4 -29q0 -35 25.5 -56t70.5 -21q90 0 105 74l1 4q5 18 5 31z" />
    <glyph glyph-name="uni044F" unicode="&#x44f;" horiz-adv-x="715" 
d="M599 1h-198l33 151h-9l-206 -152h-234l6 23l190 138q-58 15 -90.5 51.5t-32.5 85.5q0 23 5 40l2 11q17 77 80 117t171 40h395zM256 310q0 -17 13.5 -28t33.5 -11h158l21 97h-164q-26 0 -40 -9.5t-19 -29.5l-2 -10q-1 -3 -1 -9z" />
    <glyph glyph-name="uni0450" unicode="&#x450;" horiz-adv-x="671" 
d="M511.5 492q65.5 -27 100.5 -75.5t35 -113.5q0 -20 -5 -48l-11 -50h-416q1 -34 27.5 -52.5t76.5 -18.5q81 0 103 34h203q-26 -88 -106 -134.5t-205 -46.5q-86 0 -150.5 29t-99.5 80.5t-35 118.5q0 22 5 50l4 18q20 113 103.5 174.5t217.5 61.5q87 0 152.5 -27zM241 318
h211q-5 29 -30.5 44.5t-68.5 15.5q-83 0 -112 -60zM193 755l438 -60l-31 -146l-438 60z" />
    <glyph glyph-name="uni0451" unicode="&#x451;" horiz-adv-x="671" 
d="M511.5 492q65.5 -27 100.5 -75.5t35 -113.5q0 -20 -5 -48l-11 -50h-416q1 -34 27.5 -52.5t76.5 -18.5q81 0 103 34h203q-26 -88 -106 -134.5t-205 -46.5q-86 0 -150.5 29t-99.5 80.5t-35 118.5q0 22 5 50l4 18q20 113 103.5 174.5t217.5 61.5q87 0 152.5 -27zM241 318
h211q-5 29 -30.5 44.5t-68.5 15.5q-83 0 -112 -60zM188.5 575.5q-28.5 24.5 -28.5 66.5q0 49 31.5 77.5t77.5 28.5q43 0 72 -24t29 -65q0 -50 -31.5 -79t-77.5 -29q-44 0 -72.5 24.5zM450.5 575.5q-28.5 24.5 -28.5 66.5q0 49 31 77.5t78 28.5q43 0 71.5 -24t28.5 -65
q0 -50 -31.5 -79t-77.5 -29q-43 0 -71.5 24.5z" />
    <glyph glyph-name="uni0452" unicode="&#x452;" horiz-adv-x="737" 
d="M621.5 421.5q58.5 -55.5 58.5 -152.5q0 -40 -8 -76l-32 -118q-27 -128 -100 -186.5t-201 -58.5h-62l35 165h31q45 0 70.5 25t37.5 73l26 108q4 16 4 32q0 34 -21.5 52.5t-62.5 18.5q-34 0 -64.5 -14t-50.5 -39l-56 -251h-198l116 520h-104l30 136h104l9 40h198l-9 -40
h190l-30 -136h-190l-18 -80q61 37 137 37q102 0 160.5 -55.5z" />
    <glyph glyph-name="uni0453" unicode="&#x453;" horiz-adv-x="513" 
d="M556 506l-36 -166h-241l-77 -340h-198l113 506h439zM621 759l-36 -156l-465 -60l36 156z" />
    <glyph glyph-name="uni0454" unicode="&#x454;" horiz-adv-x="670" 
d="M508 492.5q67 -26.5 104.5 -74t37.5 -107.5q0 -15 -3 -32v-3h-188l1 3q1 6 1 16q0 37 -29.5 59.5t-80.5 22.5q-43 0 -72.5 -17t-43.5 -49h189l-25 -116h-183q6 -32 34 -49t75 -17q108 0 122 86l1 3h190l-1 -3q-18 -109 -99.5 -168.5t-213.5 -59.5q-89 0 -155 29
t-102 81.5t-36 120.5q0 31 5 53l4 18q20 110 102 170t213 60q86 0 153 -26.5z" />
    <glyph glyph-name="uni0455" unicode="&#x455;" horiz-adv-x="688" 
d="M95.5 27.5q-75.5 40.5 -75.5 115.5q0 18 2 27v3h179v-3q-5 -24 25.5 -35.5t100.5 -11.5q105 0 112 24l1 4q2 10 -6.5 15t-33.5 8l-137 15q-93 10 -141.5 44.5t-48.5 88.5q0 13 3 28l2 10q14 78 94.5 118.5t220.5 40.5q135 0 205 -39.5t70 -114.5q0 -19 -2 -29l-1 -3h-178
l1 3q4 24 -24.5 35.5t-90.5 11.5q-109 0 -115 -23l-1 -4q-5 -17 39 -22l140 -16q96 -10 144.5 -44.5t48.5 -90.5q0 -13 -3 -27l-2 -10q-32 -159 -312 -159q-141 0 -216.5 40.5z" />
    <glyph glyph-name="uni0456" unicode="&#x456;" horiz-adv-x="286" 
d="M299 506l-113 -506h-199l114 506h198zM150.5 571.5q-30.5 26.5 -30.5 71.5q0 52 33.5 82.5t82.5 30.5q47 0 77.5 -26t30.5 -71q0 -52 -34 -83t-83 -31q-46 0 -76.5 26.5z" />
    <glyph glyph-name="uni0457" unicode="&#x457;" horiz-adv-x="336" 
d="M111 568q-18 20 -18 57q0 8 2 26q15 102 91 102q33 0 50 -19.5t17 -56.5q0 -8 -2 -26q-8 -50 -30.5 -76.5t-59.5 -26.5q-32 0 -50 20zM278.5 568q-17.5 20 -17.5 56q0 9 2 27q7 50 30 76t60 26q33 0 50.5 -20t17.5 -57q0 -7 -2 -25q-8 -50 -31 -76.5t-60 -26.5
q-32 0 -49.5 20zM324 506l-113 -506h-198l113 506h198z" />
    <glyph glyph-name="uni0458" unicode="&#x458;" horiz-adv-x="286" 
d="M-55 -5q40 0 48 34l107 477h198l-114 -505q-18 -81 -76.5 -126t-147.5 -45h-108l35 165h58zM151.5 571.5q-30.5 26.5 -30.5 71.5q0 52 33.5 82.5t82.5 30.5q47 0 77.5 -26t30.5 -71q0 -52 -34 -83t-83 -31q-46 0 -76.5 26.5z" />
    <glyph glyph-name="uni0459" unicode="&#x459;" horiz-adv-x="1100" 
d="M958 382q48 -22 74 -61t26 -89q0 -22 -6 -46l-2 -10q-19 -88 -81 -132t-171 -44h-399l76 340h-170l-34 -119q-32 -114 -87.5 -167.5t-148.5 -53.5h-82l39 172h25q36 0 54.5 19t30.5 66l66 249h541l-23 -102h162q62 0 110 -22zM862 216q0 17 -11 26t-32 9h-166l-23 -97
h174q21 0 35 9.5t18 26.5l3 11q2 10 2 15z" />
    <glyph glyph-name="uni045A" unicode="&#x45a;" horiz-adv-x="1107" 
d="M315 506l-37 -168h203l38 168h198l-32 -142h167q96 0 151.5 -42t55.5 -113q0 -21 -4 -40l-2 -10q-16 -82 -76.5 -120.5t-174.5 -38.5h-396l39 172h-203l-40 -172h-198l113 506h198zM861 173l2 12q1 4 1 11q0 16 -12 24.5t-33 8.5h-163l-20 -90h172q45 0 53 34z" />
    <glyph glyph-name="uni045B" unicode="&#x45b;" horiz-adv-x="737" 
d="M622.5 424.5q59.5 -56.5 59.5 -151.5q0 -35 -9 -74l-44 -199h-198l48 208q4 20 4 29q0 34 -23 53t-64 19q-33 0 -62 -13.5t-50 -38.5l-57 -257h-198l116 521h-104l29 135h105l9 40h198l-9 -40h189l-29 -135h-190l-17 -76q60 36 134 36q103 0 162.5 -56.5z" />
    <glyph glyph-name="uni045C" unicode="&#x45c;" horiz-adv-x="687" 
d="M725 479l-225 -229l135 -220l-7 -30h-193l-101 171h-94l-38 -171h-198l113 506h198l-38 -171h66l167 171h221zM679 759l-36 -156l-465 -60l36 156z" />
    <glyph glyph-name="uni045D" unicode="&#x45d;" horiz-adv-x="713" 
d="M302 506l-58 -268l290 268h175l-113 -506h-185l59 267l-290 -267h-176l113 506h185zM243 755l438 -60l-31 -146l-438 60z" />
    <glyph glyph-name="uni045E" unicode="&#x45e;" horiz-adv-x="697" 
d="M751 506l-6 -27l-371 -537q-40 -57 -91.5 -84.5t-136.5 -27.5h-170l36 165h147q7 0 21 2l-136 482l6 27h200l79 -307l200 307h222zM275.5 587q-55.5 40 -55.5 109q0 17 3 35l2 10h156l-2 -10q-1 -3 -1 -9q0 -17 16 -26.5t46 -9.5q31 0 47.5 11t21.5 34l2 10h166l-2 -10
q-19 -94 -79 -139t-167 -45q-98 0 -153.5 40z" />
    <glyph glyph-name="uni045F" unicode="&#x45f;" horiz-adv-x="698" 
d="M583 0h-194l-29 -128h-180l29 128h-206l113 506h198l-77 -340h184l77 340h198z" />
    <glyph glyph-name="uni0462" unicode="&#x462;" horiz-adv-x="893" 
d="M783 342.5q63 -44.5 63 -120.5q0 -23 -6 -47l-3 -11q-17 -83 -86.5 -123.5t-196.5 -40.5h-431l102 458h-188l34 153h188l13 58h205l-13 -58h240l-34 -153h-239l-16 -71h193q112 0 175 -44.5zM645 206q0 17 -14 26.5t-41 9.5h-207l-23 -96h210q33 0 50 9.5t22 29.5l2 10
q1 4 1 11z" />
    <glyph glyph-name="uni0463" unicode="&#x463;" horiz-adv-x="815" 
d="M707 280.5q54 -35.5 54 -99.5q0 -20 -6 -44l-3 -10q-13 -66 -69.5 -96.5t-161.5 -30.5h-407l82 369h-155l30 137h156l42 190h198l-42 -190h204l-30 -137h-205l-12 -53h173q98 0 152 -35.5zM546 191h-191l-15 -65h192q44 0 50 24l2 10q6 31 -38 31z" />
    <glyph glyph-name="uni0472" unicode="&#x472;" horiz-adv-x="877" 
d="M685 631.5q84 -37.5 130 -104.5t46 -153q0 -26 -7 -65l-1 -5q-30 -155 -140 -236t-293 -81q-109 0 -193 38t-130.5 105.5t-46.5 152.5q0 31 6 64l1 5q31 153 142 235t292 82q110 0 194 -37.5zM351 477.5q-49 -24.5 -73 -75.5q50 17 94 17q28 0 92 -10q6 -1 38.5 -6
t63.5 -5q19 0 40.5 3.5t43.5 7.5q-14 44 -58 68.5t-115 24.5q-77 0 -126 -24.5zM561 178.5q48 23.5 72 75.5q-29 -9 -50.5 -12.5t-45.5 -3.5q-33 0 -99 10q-64 10 -97 10q-36 0 -80 -11q14 -43 58 -67.5t114 -24.5q80 0 128 23.5z" />
    <glyph glyph-name="uni0473" unicode="&#x473;" horiz-adv-x="685" 
d="M515.5 490.5q66.5 -28.5 102 -80.5t35.5 -122q0 -31 -5 -55l-2 -10q-20 -113 -102 -174.5t-215 -61.5q-91 0 -158.5 28.5t-103.5 80.5t-36 121q0 23 5 53l2 10q19 115 102.5 177t217.5 62q91 0 157.5 -28.5zM216 307q36 12 64 12q23 0 69 -8q45 -9 76 -9q23 0 57 8
q-11 32 -45 50t-86 18q-105 0 -135 -71zM470 200q-36 -12 -68 -12q-24 0 -72 8t-72 8q-27 0 -56 -8q11 -32 46 -50t88 -18q106 0 134 72z" />
    <glyph glyph-name="uni0474" unicode="&#x474;" horiz-adv-x="793" 
d="M868 656l-38 -175h-48q-16 0 -26.5 -6.5t-20.5 -22.5l-287 -452h-238l-127 626l7 30h191l79 -461l209 344q40 67 77 92t99 25h123z" />
    <glyph glyph-name="uni0475" unicode="&#x475;" horiz-adv-x="705" 
d="M746 506l-36 -167h-31q-17 0 -26 -5t-20 -21l-210 -313h-257l-116 479l6 27h195l72 -324l153 237q30 46 64 66.5t85 20.5h121z" />
    <glyph glyph-name="uni0490" unicode="&#x490;" horiz-adv-x="627" 
d="M498 656l30 133h205l-68 -308h-346l-109 -481h-204l146 656h346z" />
    <glyph glyph-name="uni0491" unicode="&#x491;" horiz-adv-x="513" 
d="M349 506l29 128h198l-65 -293h-232l-77 -341h-198l113 506h232z" />
    <glyph glyph-name="uni0492" unicode="&#x492;" horiz-adv-x="710" 
d="M352 481l-32 -144h244l-37 -168h-244l-38 -169h-206l38 169h-105l37 168h105l71 319h600l-38 -175h-395z" />
    <glyph glyph-name="uni0493" unicode="&#x493;" horiz-adv-x="603" 
d="M312 340l-17 -74h151l-29 -135h-152l-29 -131h-198l29 131h-104l30 135h104l54 240h479l-36 -166h-282z" />
    <glyph glyph-name="uni0494" unicode="&#x494;" horiz-adv-x="790" 
d="M319 486l-26 -116q81 9 143 9q133 0 206 -57t73 -158q0 -39 -10 -79l-7 -33q-22 -108 -96.5 -165t-194.5 -57h-124l38 171h62q56 0 86.5 21.5t38.5 66.5l3 15q3 14 3 27q0 81 -135 81q-47 0 -122 -5l-46 -207h-205l146 656h625l-37 -170h-421z" />
    <glyph glyph-name="uni0495" unicode="&#x495;" horiz-adv-x="696" 
d="M279 341l-15 -69q52 7 105 7q109 0 171 -49t62 -132q0 -26 -6 -53l-8 -35q-17 -86 -80 -133t-163 -47h-85l36 165h37q31 0 50 12.5t24 36.5l2 12q2 10 2 14q0 23 -23.5 35.5t-69.5 12.5q-40 0 -91 -6l-25 -112h-198l113 506h535l-36 -165h-337z" />
    <glyph glyph-name="uni0496" unicode="&#x496;" horiz-adv-x="1236" 
d="M1001 319l53 -143h147l-68 -309h-205l30 133h-55l-80 240h-97l-53 -240h-205l53 240h-80l-218 -240h-233l7 30l293 316l-179 280l7 30h209l143 -241h90l54 241h205l-54 -241h74l235 241h241l-7 -30z" />
    <glyph glyph-name="uni0497" unicode="&#x497;" horiz-adv-x="1049" 
d="M835 244l38 -78h151l-64 -294h-198l28 128h-44l-80 172h-84l-38 -172h-198l38 172h-71l-157 -172h-216l6 27l218 237l-106 215l6 27h190l82 -170h85l38 170h198l-38 -170h66l151 170h216l-6 -27z" />
    <glyph glyph-name="uni0498" unicode="&#x498;" horiz-adv-x="833" 
d="M648.5 644.5q75.5 -24.5 116.5 -68.5t41 -100q0 -15 -3 -32l-2 -10q-15 -77 -90 -113q57 -39 57 -101q0 -14 -3 -29l-2 -10q-17 -92 -112.5 -143t-250.5 -51q-168 0 -261.5 62t-93.5 171q0 30 5 52l2 7h196l-1 -7q-3 -13 -3 -25q0 -45 42 -66t131 -21q66 0 105 12.5
t43 34.5l2 10q1 3 1 10q0 18 -26 24t-100 6h-122l31 145h118q72 0 100 7.5t32 27.5l2 10q5 23 -30.5 36.5t-102.5 13.5q-89 0 -134.5 -26.5t-57.5 -86.5l-2 -7h-203l2 7q31 144 130 214.5t270 70.5q98 0 173.5 -24.5zM515 40l-41 -183h-203l41 183h203z" />
    <glyph glyph-name="uni0499" unicode="&#x499;" horiz-adv-x="684" 
d="M513.5 500q63.5 -19 98 -54t34.5 -81q0 -12 -3 -26l-2 -10q-10 -58 -67 -88q43 -32 43 -83q0 -12 -3 -26l-2 -10q-11 -66 -86.5 -100.5t-210.5 -34.5q-144 0 -217 48.5t-73 144.5q0 26 4 47l1 3h176l-1 -3q-3 -15 -3 -27q0 -39 27 -57.5t83 -18.5q97 0 103 35l2 8
q3 14 -8.5 22t-36.5 8h-113l26 116h111q25 0 35.5 4.5t12.5 16.5l2 8q4 18 -22.5 29t-74.5 11q-62 0 -93 -21.5t-39 -68.5l-1 -3h-176v3q19 115 99 171t227 56q84 0 147.5 -19zM417 36l-40 -179h-196l40 179h196z" />
    <glyph glyph-name="uni049A" unicode="&#x49a;" horiz-adv-x="792" 
d="M525 314l68 -138h165l-68 -309h-205l29 133h-54l-105 241h-90l-54 -241h-205l146 656h205l-53 -240h67l247 240h244l-6 -30z" />
    <glyph glyph-name="uni049B" unicode="&#x49b;" horiz-adv-x="717" 
d="M497 246l44 -80h152l-64 -294h-198l29 128h-42l-90 171h-88l-38 -171h-198l113 506h198l-38 -171h65l167 171h222l-6 -27z" />
    <glyph glyph-name="uni049C" unicode="&#x49c;" horiz-adv-x="843" 
d="M900 626l-307 -311l156 -285l-7 -30h-194l-123 240h-19l-26 -118h-105l26 118h-42l-53 -240h-200l146 656h200l-53 -240h41l27 119h105l-27 -119h7l221 240h234z" />
    <glyph glyph-name="uni049D" unicode="&#x49d;" horiz-adv-x="754" 
d="M791 479l-209 -244l119 -205l-7 -30h-191l-96 171h-28l-22 -100h-95l22 100h-49l-38 -171h-193l113 506h193l-38 -171h48l18 79h95l-18 -79h19l143 171h220z" />
    <glyph glyph-name="uni04A0" unicode="&#x4a0;" horiz-adv-x="1034" 
d="M1089 626l-321 -298l170 -298l-7 -30h-201l-126 240h-107l-53 -240h-205l107 481h-280l38 175h486l-53 -240h68l246 240h245z" />
    <glyph glyph-name="uni04A1" unicode="&#x4a1;" horiz-adv-x="865" 
d="M910 479l-224 -230l134 -219l-7 -30h-192l-102 171h-93l-38 -171h-198l76 339h-231l36 167h430l-38 -171h65l167 171h221z" />
    <glyph glyph-name="uni04A2" unicode="&#x4a2;" horiz-adv-x="870" 
d="M741 176h98l-68 -309h-205l30 133h-99l54 240h-286l-54 -240h-205l146 656h205l-54 -240h286l54 240h205z" />
    <glyph glyph-name="uni04A3" unicode="&#x4a3;" horiz-adv-x="754" 
d="M733 166l-65 -294h-199l28 128h-90l39 170h-205l-39 -170h-198l113 506h198l-38 -169h205l38 169h198l-76 -340h91z" />
    <glyph glyph-name="uni04A4" unicode="&#x4a4;" horiz-adv-x="1080" 
d="M357 656l-54 -240h275l54 240h523l-37 -175h-319l-108 -481h-205l54 240h-275l-54 -240h-205l146 656h205z" />
    <glyph glyph-name="uni04A5" unicode="&#x4a5;" horiz-adv-x="923" 
d="M315 506l-38 -169h193l38 169h458l-36 -167h-260l-77 -339h-198l39 170h-193l-39 -170h-198l113 506h198z" />
    <glyph glyph-name="uni04AA" unicode="&#x4aa;" horiz-adv-x="874" 
d="M231 23.5q-87 36.5 -134 103.5t-47 154q0 34 7 68l1 5q29 149 141 232t284 83q111 0 198.5 -34.5t136 -95t48.5 -137.5q0 -16 -3 -34l-1 -7h-205l1 7q1 5 1 15q0 48 -48 76t-134 28q-188 0 -215 -143l-3 -11q-4 -19 -4 -39q0 -60 47 -92t138 -32q86 0 138.5 25t61.5 71
l2 7h209l-1 -7q-29 -132 -138.5 -205.5t-277.5 -73.5q-116 0 -203 36.5zM524 40l-41 -183h-203l41 183h203z" />
    <glyph glyph-name="uni04AB" unicode="&#x4ab;" horiz-adv-x="670" 
d="M169.5 16q-66.5 29 -102.5 81.5t-36 121.5q0 22 5 52l2 8q20 116 102 178t215 62q86 0 153 -26.5t104.5 -74t37.5 -106.5q0 -20 -2 -30l-1 -6h-202l1 6q1 3 1 10q0 25 -26.5 40.5t-70.5 15.5q-100 0 -116 -86l-2 -7q-2 -14 -2 -20q0 -36 27.5 -56t77.5 -20
q43 0 68.5 13.5t29.5 39.5l1 6h204l-1 -6q-18 -107 -99.5 -166t-212.5 -59q-89 0 -155.5 29zM406 36l-40 -179h-196l40 179h196z" />
    <glyph glyph-name="uni04AE" unicode="&#x4ae;" horiz-adv-x="726" 
d="M811 626l-354 -375l-56 -251h-205l59 263l-192 363l7 30h195l119 -238l215 238h219z" />
    <glyph glyph-name="uni04AF" unicode="&#x4af;" horiz-adv-x="695" 
d="M749 479l-361 -498l-34 -151h-198l34 153l-141 496l6 27h192l79 -305l215 305h214z" />
    <glyph glyph-name="uni04B0" unicode="&#x4b0;" horiz-adv-x="726" 
d="M811 626l-277 -293h146l-38 -175h-206l-35 -158h-205l35 158h-179l38 175h128l-155 293l7 30h195l119 -238l215 238h219z" />
    <glyph glyph-name="uni04B1" unicode="&#x4b1;" horiz-adv-x="695" 
d="M746 479l-250 -344h95l-29 -136h-172l-37 -169h-198l37 169h-173l29 136h98l-97 344l6 27h193l80 -301l213 301h211z" />
    <glyph glyph-name="uni04B2" unicode="&#x4b2;" horiz-adv-x="812" 
d="M539 310l78 -134h161l-68 -309h-205l30 133h-55l-94 178l-171 -178h-244l7 30l310 306l-177 290l7 30h214l108 -195l196 195h244l-6 -30z" />
    <glyph glyph-name="uni04B3" unicode="&#x4b3;" horiz-adv-x="676" 
d="M450 242l51 -76h152l-65 -294h-198l29 128h-42l-72 128l-121 -128h-237l6 27l244 234l-141 218l6 27h209l73 -129l122 129h236l-6 -27z" />
    <glyph glyph-name="uni04B6" unicode="&#x4b6;" horiz-adv-x="850" 
d="M719 176h98l-67 -309h-205l30 133h-100l49 220q-82 -10 -148 -10q-135 0 -209.5 57.5t-74.5 158.5q0 29 6 60l34 170h205l-38 -169q-3 -13 -3 -26q0 -75 129 -75q55 0 137 5l59 265h205z" />
    <glyph glyph-name="uni04B7" unicode="&#x4b7;" horiz-adv-x="732" 
d="M690 166l-64 -294h-198l28 128h-92l32 143q-55 -5 -94 -5q-119 0 -182.5 51t-63.5 140q0 27 6 57l24 120h198l-28 -128q-2 -12 -2 -17q0 -54 89 -54q48 0 90 3l44 196h198l-76 -340h91z" />
    <glyph glyph-name="uni04B8" unicode="&#x4b8;" horiz-adv-x="799" 
d="M827 656l-146 -656h-205l49 220q-52 -6 -82 -8l-25 -110h-115l25 110q-113 11 -173 67t-60 148q0 30 6 61l32 168h205l-38 -169q-3 -13 -3 -26q0 -56 70 -70l28 124h115l-28 -128q56 2 81 4l59 265h205z" />
    <glyph glyph-name="uni04B9" unicode="&#x4b9;" horiz-adv-x="677" 
d="M676 506l-113 -506h-198l32 143l-42 -3l-20 -89h-115l20 88q-90 10 -137.5 58.5t-47.5 124.5q0 31 5 53l26 131h198l-31 -139q-2 -12 -2 -18q0 -30 26 -43l24 108h115l-26 -117l42 3l46 206h198z" />
    <glyph glyph-name="uni04BA" unicode="&#x4ba;" horiz-adv-x="799" 
d="M665 388q74 -58 74 -159q0 -27 -6 -59l-33 -170h-205l38 170q3 14 3 26q0 75 -129 75q-55 0 -137 -5l-59 -266h-205l146 656h205l-49 -220q80 10 148 10q135 0 209 -58z" />
    <glyph glyph-name="uni04BB" unicode="&#x4bb;" horiz-adv-x="711" 
d="M606 463q59 -56 59 -151q0 -36 -9 -75l-52 -237h-198l56 246q4 22 4 30q0 34 -22.5 52.5t-64.5 18.5q-33 0 -61.5 -13.5t-49.5 -37.5l-66 -296h-198l155 696h198l-47 -212q61 35 133 35q104 0 163 -56z" />
    <glyph glyph-name="uni04C0" unicode="&#x4c0;" horiz-adv-x="299" 
d="M342 656l-146 -656h-206l147 656h205z" />
    <glyph glyph-name="uni04C1" unicode="&#x4c1;" horiz-adv-x="1257" 
d="M1310 626l-305 -313l159 -283l-7 -30h-200l-131 241h-97l-54 -241h-205l54 241h-87l-214 -241h-231l7 30l287 322l-173 274l7 30h208l144 -240h91l53 240h205l-53 -240h82l226 240h241zM595.5 737q-55.5 40 -55.5 109q0 17 3 35l2 10h156l-2 -10q-1 -3 -1 -9
q0 -17 16 -26.5t46 -9.5q31 0 47.5 11t21.5 34l2 10h166l-2 -10q-19 -94 -79 -139t-167 -45q-98 0 -153.5 40z" />
    <glyph glyph-name="uni04C2" unicode="&#x4c2;" horiz-adv-x="1018" 
d="M1053 479l-209 -233l118 -219l-6 -27h-190l-89 171h-88l-38 -171h-198l38 171h-72l-156 -171h-216l6 27l219 239l-107 213l6 27h190l82 -170h85l38 170h198l-38 -170h66l151 170h216zM441.5 587q-55.5 40 -55.5 109q0 17 3 35l2 10h156l-2 -10q-1 -3 -1 -9
q0 -17 16 -26.5t46 -9.5q31 0 47.5 11t21.5 34l2 10h166l-2 -10q-19 -94 -79 -139t-167 -45q-98 0 -153.5 40z" />
    <glyph glyph-name="uni04CF" unicode="&#x4cf;" horiz-adv-x="286" 
d="M341 696l-155 -696h-199l156 696h198z" />
    <glyph glyph-name="uni04D0" unicode="&#x4d0;" horiz-adv-x="770" 
d="M727 30l-7 -30h-190l-19 110h-282l-69 -110h-210l6 30l412 626h226zM483 272l-34 192l-119 -192h153zM356.5 737q-55.5 40 -55.5 109q0 17 3 35l2 10h156l-2 -10q-1 -3 -1 -9q0 -17 16 -26.5t46 -9.5q31 0 47.5 11t21.5 34l2 10h166l-2 -10q-19 -94 -79 -139t-167 -45
q-98 0 -153.5 40z" />
    <glyph glyph-name="uni04D1" unicode="&#x4d1;" horiz-adv-x="716" 
d="M688 166l-36 -166h-91q-81 0 -121 48q-44 -30 -100.5 -45.5t-121.5 -15.5q-92 0 -144 36t-52 99q0 20 4 37q12 57 58 87t135 39l229 23q1 28 -21.5 42.5t-66.5 14.5q-42 0 -68.5 -12.5t-29.5 -32.5l-1 -3h-200l1 3q16 94 98 146.5t212 52.5q129 0 202.5 -51t73.5 -138
q0 -22 -6 -48l-20 -92q-1 -3 -1 -8q0 -16 25 -16h42zM265 118q39 0 82.5 14t72.5 34l7 35l-168 -18q-42 -4 -42 -37q0 -28 48 -28zM247.5 587q-55.5 40 -55.5 109q0 17 3 35l2 10h156l-2 -10q-1 -3 -1 -9q0 -17 16 -26.5t46 -9.5q31 0 47.5 11t21.5 34l2 10h166l-2 -10
q-19 -94 -79 -139t-167 -45q-98 0 -153.5 40z" />
    <glyph glyph-name="uni04D2" unicode="&#x4d2;" horiz-adv-x="770" 
d="M727 30l-7 -30h-190l-19 110h-282l-69 -110h-210l6 30l412 626h226zM483 272l-34 192l-119 -192h153zM303.5 725.5q-28.5 24.5 -28.5 66.5q0 49 31.5 77.5t77.5 28.5q43 0 72 -24t29 -65q0 -50 -31.5 -79t-77.5 -29q-44 0 -72.5 24.5zM565.5 725.5q-28.5 24.5 -28.5 66.5
q0 49 31 77.5t78 28.5q43 0 71.5 -24t28.5 -65q0 -50 -31.5 -79t-77.5 -29q-43 0 -71.5 24.5z" />
    <glyph glyph-name="uni04D3" unicode="&#x4d3;" horiz-adv-x="716" 
d="M688 166l-36 -166h-91q-81 0 -121 48q-44 -30 -100.5 -45.5t-121.5 -15.5q-92 0 -144 36t-52 99q0 20 4 37q12 57 58 87t135 39l229 23q1 28 -21.5 42.5t-66.5 14.5q-42 0 -68.5 -12.5t-29.5 -32.5l-1 -3h-200l1 3q16 94 98 146.5t212 52.5q129 0 202.5 -51t73.5 -138
q0 -22 -6 -48l-20 -92q-1 -3 -1 -8q0 -16 25 -16h42zM265 118q39 0 82.5 14t72.5 34l7 35l-168 -18q-42 -4 -42 -37q0 -28 48 -28zM194.5 575.5q-28.5 24.5 -28.5 66.5q0 49 31.5 77.5t77.5 28.5q43 0 72 -24t29 -65q0 -50 -31.5 -79t-77.5 -29q-44 0 -72.5 24.5z
M456.5 575.5q-28.5 24.5 -28.5 66.5q0 49 31 77.5t78 28.5q43 0 71.5 -24t28.5 -65q0 -50 -31.5 -79t-77.5 -29q-43 0 -71.5 24.5z" />
    <glyph glyph-name="uni04D4" unicode="&#x4d4;" horiz-adv-x="1072" 
d="M675 489l-1 -78h368l-36 -164h-334v-79h335l-36 -168h-502l2 111h-247l-69 -111h-205l6 30l412 626h749l-37 -167h-405zM480 489h-20l-135 -217h150z" />
    <glyph glyph-name="uni04D5" unicode="&#x4d5;" horiz-adv-x="1098" 
d="M943.5 492q63.5 -27 98 -76t34.5 -114q0 -20 -5 -47l-7 -48h-428q1 -36 30.5 -55.5t85.5 -19.5q39 0 65 9.5t36 26.5h204q-29 -88 -109 -134.5t-204 -46.5q-79 0 -140 20t-99 57q-45 -38 -109.5 -57.5t-143.5 -19.5q-108 0 -169 37t-61 101q0 19 4 35q12 57 58 87.5
t135 38.5l243 23q-3 27 -29.5 41.5t-74.5 14.5q-42 0 -67 -11.5t-29 -33.5l-1 -3h-200l1 3q16 94 98.5 146.5t214.5 52.5q147 0 208 -69q78 69 212 69q85 0 148.5 -27zM662 316h223q-6 29 -34.5 45t-73.5 16q-86 0 -115 -61zM371 137.5q55 20.5 78 47.5v17l-190 -22
q-21 -2 -31.5 -11t-10.5 -27q0 -25 44 -25q55 0 110 20.5z" />
    <glyph glyph-name="uni04D6" unicode="&#x4d6;" horiz-adv-x="723" 
d="M762 656l-37 -167h-405l-18 -78h385l-36 -165h-385l-19 -78h405l-36 -168h-610l146 656h610zM332.5 737q-55.5 40 -55.5 109q0 17 3 35l2 10h156l-2 -10q-1 -3 -1 -9q0 -17 16 -26.5t46 -9.5q31 0 47.5 11t21.5 34l2 10h166l-2 -10q-19 -94 -79 -139t-167 -45
q-98 0 -153.5 40z" />
    <glyph glyph-name="uni04D7" unicode="&#x4d7;" horiz-adv-x="671" 
d="M511.5 492q65.5 -27 100.5 -75.5t35 -113.5q0 -20 -5 -48l-11 -50h-416q1 -34 27.5 -52.5t76.5 -18.5q81 0 103 34h203q-26 -88 -106 -134.5t-205 -46.5q-86 0 -150.5 29t-99.5 80.5t-35 118.5q0 22 5 50l4 18q20 113 103.5 174.5t217.5 61.5q87 0 152.5 -27zM241 318
h211q-5 29 -30.5 44.5t-68.5 15.5q-83 0 -112 -60zM241.5 587q-55.5 40 -55.5 109q0 17 3 35l2 10h156l-2 -10q-1 -3 -1 -9q0 -17 16 -26.5t46 -9.5q31 0 47.5 11t21.5 34l2 10h166l-2 -10q-19 -94 -79 -139t-167 -45q-98 0 -153.5 40z" />
    <glyph glyph-name="uni04D8" unicode="&#x4d8;" horiz-adv-x="877" 
d="M680.5 634q86.5 -36 133 -102t46.5 -155q0 -36 -7 -70l-1 -6q-17 -97 -73.5 -168t-146 -108.5t-203.5 -37.5q-116 0 -202.5 37.5t-133.5 105t-47 155.5q0 37 7 71l8 36h593q-11 54 -59.5 83.5t-127.5 29.5q-66 0 -112.5 -18t-61.5 -50h-219q40 112 145 172.5t257 60.5
q118 0 204.5 -36zM558 175.5q51 25.5 75 74.5h-386q18 -100 185 -100q75 0 126 25.5z" />
    <glyph glyph-name="uni04D9" unicode="&#x4d9;" horiz-adv-x="671" 
d="M507 490.5q65 -28.5 100 -80t35 -118.5q0 -28 -5 -51l-3 -17q-21 -114 -104.5 -175.5t-217.5 -61.5q-87 0 -152 27t-100 75.5t-35 112.5q0 21 5 49l11 50h415q0 34 -27 53t-76 19q-83 0 -104 -35h-203q27 89 106.5 135t204.5 46q85 0 150 -28.5zM430 188h-210
q5 -28 31 -43.5t68 -15.5q82 0 111 59z" />
    <glyph glyph-name="uni04DA" unicode="&#x4da;" horiz-adv-x="877" 
d="M680.5 634q86.5 -36 133 -102t46.5 -155q0 -36 -7 -70l-1 -6q-17 -97 -73.5 -168t-146 -108.5t-203.5 -37.5q-116 0 -202.5 37.5t-133.5 105t-47 155.5q0 37 7 71l8 36h593q-11 54 -59.5 83.5t-127.5 29.5q-66 0 -112.5 -18t-61.5 -50h-219q40 112 145 172.5t257 60.5
q118 0 204.5 -36zM558 175.5q51 25.5 75 74.5h-386q18 -100 185 -100q75 0 126 25.5zM329.5 725.5q-28.5 24.5 -28.5 66.5q0 49 31.5 77.5t77.5 28.5q43 0 72 -24t29 -65q0 -50 -31.5 -79t-77.5 -29q-44 0 -72.5 24.5zM591.5 725.5q-28.5 24.5 -28.5 66.5q0 49 31 77.5
t78 28.5q43 0 71.5 -24t28.5 -65q0 -50 -31.5 -79t-77.5 -29q-43 0 -71.5 24.5z" />
    <glyph glyph-name="uni04DB" unicode="&#x4db;" horiz-adv-x="671" 
d="M507 490.5q65 -28.5 100 -80t35 -118.5q0 -28 -5 -51l-3 -17q-21 -114 -104.5 -175.5t-217.5 -61.5q-87 0 -152 27t-100 75.5t-35 112.5q0 21 5 49l11 50h415q0 34 -27 53t-76 19q-83 0 -104 -35h-203q27 89 106.5 135t204.5 46q85 0 150 -28.5zM430 188h-210
q5 -28 31 -43.5t68 -15.5q82 0 111 59zM194.5 575.5q-28.5 24.5 -28.5 66.5q0 49 31.5 77.5t77.5 28.5q43 0 72 -24t29 -65q0 -50 -31.5 -79t-77.5 -29q-44 0 -72.5 24.5zM456.5 575.5q-28.5 24.5 -28.5 66.5q0 49 31 77.5t78 28.5q43 0 71.5 -24t28.5 -65q0 -50 -31.5 -79
t-77.5 -29q-43 0 -71.5 24.5z" />
    <glyph glyph-name="uni04DC" unicode="&#x4dc;" horiz-adv-x="1257" 
d="M1310 626l-305 -313l159 -283l-7 -30h-200l-131 241h-97l-54 -241h-205l54 241h-87l-214 -241h-231l7 30l287 322l-173 274l7 30h208l144 -240h91l53 240h205l-53 -240h82l226 240h241zM543.5 725.5q-28.5 24.5 -28.5 66.5q0 49 31.5 77.5t77.5 28.5q43 0 72 -24t29 -65
q0 -50 -31.5 -79t-77.5 -29q-44 0 -72.5 24.5zM805.5 725.5q-28.5 24.5 -28.5 66.5q0 49 31 77.5t78 28.5q43 0 71.5 -24t28.5 -65q0 -50 -31.5 -79t-77.5 -29q-43 0 -71.5 24.5z" />
    <glyph glyph-name="uni04DD" unicode="&#x4dd;" horiz-adv-x="1018" 
d="M1053 479l-209 -233l118 -219l-6 -27h-190l-89 171h-88l-38 -171h-198l38 171h-72l-156 -171h-216l6 27l219 239l-107 213l6 27h190l82 -170h85l38 170h198l-38 -170h66l151 170h216zM388.5 575.5q-28.5 24.5 -28.5 66.5q0 49 31.5 77.5t77.5 28.5q43 0 72 -24t29 -65
q0 -50 -31.5 -79t-77.5 -29q-44 0 -72.5 24.5zM650.5 575.5q-28.5 24.5 -28.5 66.5q0 49 31 77.5t78 28.5q43 0 71.5 -24t28.5 -65q0 -50 -31.5 -79t-77.5 -29q-43 0 -71.5 24.5z" />
    <glyph glyph-name="uni04DE" unicode="&#x4de;" horiz-adv-x="833" 
d="M648.5 644.5q75.5 -24.5 116.5 -68.5t41 -100q0 -15 -3 -32l-2 -10q-15 -77 -90 -113q57 -39 57 -101q0 -14 -3 -29l-2 -10q-17 -92 -112.5 -143t-250.5 -51q-168 0 -261.5 62t-93.5 171q0 30 5 52l2 7h196l-1 -7q-3 -13 -3 -25q0 -45 42 -66t131 -21q66 0 105 12.5
t43 34.5l2 10q1 3 1 10q0 18 -26 24t-100 6h-122l31 145h118q72 0 100 7.5t32 27.5l2 10q5 23 -30.5 36.5t-102.5 13.5q-89 0 -134.5 -26.5t-57.5 -86.5l-2 -7h-203l2 7q31 144 130 214.5t270 70.5q98 0 173.5 -24.5zM375.5 725.5q-28.5 24.5 -28.5 66.5q0 49 31.5 77.5
t77.5 28.5q43 0 72 -24t29 -65q0 -50 -31.5 -79t-77.5 -29q-44 0 -72.5 24.5zM637.5 725.5q-28.5 24.5 -28.5 66.5q0 49 31 77.5t78 28.5q43 0 71.5 -24t28.5 -65q0 -50 -31.5 -79t-77.5 -29q-43 0 -71.5 24.5z" />
    <glyph glyph-name="uni04DF" unicode="&#x4df;" horiz-adv-x="684" 
d="M513.5 500q63.5 -19 98 -54t34.5 -81q0 -12 -3 -26l-2 -10q-10 -58 -67 -88q43 -32 43 -83q0 -12 -3 -26l-2 -10q-11 -66 -86.5 -100.5t-210.5 -34.5q-144 0 -217 48.5t-73 144.5q0 26 4 47l1 3h176l-1 -3q-3 -15 -3 -27q0 -39 27 -57.5t83 -18.5q97 0 103 35l2 8
q3 14 -8.5 22t-36.5 8h-113l26 116h111q25 0 35.5 4.5t12.5 16.5l2 8q4 18 -22.5 29t-74.5 11q-62 0 -93 -21.5t-39 -68.5l-1 -3h-176v3q19 115 99 171t227 56q84 0 147.5 -19zM197.5 575.5q-28.5 24.5 -28.5 66.5q0 49 31.5 77.5t77.5 28.5q43 0 72 -24t29 -65
q0 -50 -31.5 -79t-77.5 -29q-44 0 -72.5 24.5zM459.5 575.5q-28.5 24.5 -28.5 66.5q0 49 31 77.5t78 28.5q43 0 71.5 -24t28.5 -65q0 -50 -31.5 -79t-77.5 -29q-43 0 -71.5 24.5z" />
    <glyph glyph-name="uni04E2" unicode="&#x4e2;" horiz-adv-x="819" 
d="M353 656l-79 -368l368 368h204l-146 -656h-202l80 368l-368 -368h-204l146 656h201zM774 877l-34 -152h-452l34 152h452z" />
    <glyph glyph-name="uni04E3" unicode="&#x4e3;" horiz-adv-x="713" 
d="M302 506l-58 -268l290 268h175l-113 -506h-185l59 267l-290 -267h-176l113 506h185zM689 727l-34 -152h-452l34 152h452z" />
    <glyph glyph-name="uni04E4" unicode="&#x4e4;" horiz-adv-x="819" 
d="M353 656l-79 -368l368 368h204l-146 -656h-202l80 368l-368 -368h-204l146 656h201zM323.5 725.5q-28.5 24.5 -28.5 66.5q0 49 31.5 77.5t77.5 28.5q43 0 72 -24t29 -65q0 -50 -31.5 -79t-77.5 -29q-44 0 -72.5 24.5zM585.5 725.5q-28.5 24.5 -28.5 66.5q0 49 31 77.5
t78 28.5q43 0 71.5 -24t28.5 -65q0 -50 -31.5 -79t-77.5 -29q-43 0 -71.5 24.5z" />
    <glyph glyph-name="uni04E5" unicode="&#x4e5;" horiz-adv-x="713" 
d="M302 506l-58 -268l290 268h175l-113 -506h-185l59 267l-290 -267h-176l113 506h185zM238.5 575.5q-28.5 24.5 -28.5 66.5q0 49 31.5 77.5t77.5 28.5q43 0 72 -24t29 -65q0 -50 -31.5 -79t-77.5 -29q-44 0 -72.5 24.5zM500.5 575.5q-28.5 24.5 -28.5 66.5q0 49 31 77.5
t78 28.5q43 0 71.5 -24t28.5 -65q0 -50 -31.5 -79t-77.5 -29q-43 0 -71.5 24.5z" />
    <glyph glyph-name="uni04E6" unicode="&#x4e6;" horiz-adv-x="877" 
d="M229 24q-86 37 -133 104t-47 153q0 34 7 66l1 5q30 151 141 234t284 83q114 0 200 -37t132.5 -103t46.5 -152q0 -36 -7 -68l-1 -5q-29 -152 -139.5 -234.5t-284.5 -82.5q-114 0 -200 37zM649 313l2 11q4 17 4 36q0 59 -48 93t-136 34q-177 0 -210 -145l-2 -11
q-5 -22 -5 -38q0 -58 47.5 -90.5t135.5 -32.5q182 0 212 143zM330.5 725.5q-28.5 24.5 -28.5 66.5q0 49 31.5 77.5t77.5 28.5q43 0 72 -24t29 -65q0 -50 -31.5 -79t-77.5 -29q-44 0 -72.5 24.5zM592.5 725.5q-28.5 24.5 -28.5 66.5q0 49 31 77.5t78 28.5q43 0 71.5 -24
t28.5 -65q0 -50 -31.5 -79t-77.5 -29q-43 0 -71.5 24.5z" />
    <glyph glyph-name="uni04E7" unicode="&#x4e7;" horiz-adv-x="685" 
d="M171 16q-67 29 -103 81.5t-36 122.5q0 27 4 50l2 9q17 114 101 177t220 63q91 0 157.5 -28.5t101.5 -81t35 -123.5q0 -23 -5 -53l-1 -9q-18 -113 -100.5 -175t-217.5 -62q-91 0 -158 29zM413 180q29 21 37 62l1 4q2 14 2 21q0 38 -27.5 59.5t-75.5 21.5t-78 -22.5
t-37 -64.5l-1 -5q-2 -14 -2 -20q0 -35 28 -56t76 -21t77 21zM193.5 575.5q-28.5 24.5 -28.5 66.5q0 49 31.5 77.5t77.5 28.5q43 0 72 -24t29 -65q0 -50 -31.5 -79t-77.5 -29q-44 0 -72.5 24.5zM455.5 575.5q-28.5 24.5 -28.5 66.5q0 49 31 77.5t78 28.5q43 0 71.5 -24
t28.5 -65q0 -50 -31.5 -79t-77.5 -29q-43 0 -71.5 24.5z" />
    <glyph glyph-name="uni04E8" unicode="&#x4e8;" horiz-adv-x="877" 
d="M682.5 632q85.5 -37 132 -103t46.5 -152q0 -36 -7 -68l-1 -5q-29 -152 -139 -234.5t-284 -82.5q-114 0 -200.5 37t-133.5 104t-47 153q0 34 7 66l1 5q30 151 141 234t285 83q114 0 199.5 -37zM284 410h370q-14 43 -60.5 67t-119.5 24q-141 0 -190 -91zM628 248h-372
q11 -44 57.5 -68.5t121.5 -24.5q142 0 193 93z" />
    <glyph glyph-name="uni04E9" unicode="&#x4e9;" horiz-adv-x="685" 
d="M515.5 490.5q66.5 -28.5 102 -80.5t35.5 -122q0 -31 -5 -55l-2 -10q-19 -113 -101 -174.5t-216 -61.5q-91 0 -158.5 29t-103.5 81.5t-36 121.5q0 21 5 51l2 10q19 115 103 177t218 62q90 0 156.5 -28.5zM218 311h265q-11 32 -45.5 49.5t-86.5 17.5q-102 0 -133 -67z
M468 195h-266q11 -32 46.5 -49.5t87.5 -17.5q103 0 132 67z" />
    <glyph glyph-name="uni04EE" unicode="&#x4ee;" horiz-adv-x="763" 
d="M845 656l-7 -30l-352 -474q-63 -85 -116.5 -118.5t-131.5 -33.5h-187l38 176h148q17 0 31 3l-167 447l6 30h195l104 -313l215 313h224zM758 877l-34 -152h-452l34 152h452z" />
    <glyph glyph-name="uni04EF" unicode="&#x4ef;" horiz-adv-x="697" 
d="M751 506l-6 -27l-371 -537q-40 -57 -91.5 -84.5t-136.5 -27.5h-170l36 165h147q7 0 21 2l-136 482l6 27h200l79 -307l200 307h222zM674 727l-34 -152h-452l34 152h452z" />
    <glyph glyph-name="uni04F0" unicode="&#x4f0;" horiz-adv-x="763" 
d="M845 656l-7 -30l-352 -474q-63 -85 -116.5 -118.5t-131.5 -33.5h-187l38 176h148q17 0 31 3l-167 447l6 30h195l104 -313l215 313h224zM307.5 725.5q-28.5 24.5 -28.5 66.5q0 49 31.5 77.5t77.5 28.5q43 0 72 -24t29 -65q0 -50 -31.5 -79t-77.5 -29q-44 0 -72.5 24.5z
M569.5 725.5q-28.5 24.5 -28.5 66.5q0 49 31 77.5t78 28.5q43 0 71.5 -24t28.5 -65q0 -50 -31.5 -79t-77.5 -29q-43 0 -71.5 24.5z" />
    <glyph glyph-name="uni04F1" unicode="&#x4f1;" horiz-adv-x="697" 
d="M751 506l-6 -27l-371 -537q-40 -57 -91.5 -84.5t-136.5 -27.5h-170l36 165h147q7 0 21 2l-136 482l6 27h200l79 -307l200 307h222zM223.5 575.5q-28.5 24.5 -28.5 66.5q0 49 31.5 77.5t77.5 28.5q43 0 72 -24t29 -65q0 -50 -31.5 -79t-77.5 -29q-44 0 -72.5 24.5z
M485.5 575.5q-28.5 24.5 -28.5 66.5q0 49 31 77.5t78 28.5q43 0 71.5 -24t28.5 -65q0 -50 -31.5 -79t-77.5 -29q-43 0 -71.5 24.5z" />
    <glyph glyph-name="uni04F2" unicode="&#x4f2;" horiz-adv-x="763" 
d="M845 656l-7 -30l-352 -474q-63 -85 -116.5 -118.5t-131.5 -33.5h-187l38 176h148q17 0 31 3l-167 447l6 30h195l104 -313l215 313h224zM552 908l-36 -157l-293 -57l37 157zM872 908l-36 -157l-293 -57l37 157z" />
    <glyph glyph-name="uni04F3" unicode="&#x4f3;" horiz-adv-x="697" 
d="M751 506l-6 -27l-371 -537q-40 -57 -91.5 -84.5t-136.5 -27.5h-170l36 165h147q7 0 21 2l-136 482l6 27h200l79 -307l200 307h222zM468 758l-36 -157l-293 -57l37 157zM788 758l-36 -157l-293 -57l37 157z" />
    <glyph glyph-name="uni04F4" unicode="&#x4f4;" horiz-adv-x="799" 
d="M826 656l-146 -656h-205l49 220q-82 -10 -148 -10q-135 0 -209.5 57.5t-74.5 158.5q0 29 6 60l34 170h205l-38 -169q-3 -13 -3 -26q0 -75 129 -75q55 0 137 5l59 265h205zM306.5 725.5q-28.5 24.5 -28.5 66.5q0 49 31.5 77.5t77.5 28.5q43 0 72 -24t29 -65
q0 -50 -31.5 -79t-77.5 -29q-44 0 -72.5 24.5zM568.5 725.5q-28.5 24.5 -28.5 66.5q0 49 31 77.5t78 28.5q43 0 71.5 -24t28.5 -65q0 -50 -31.5 -79t-77.5 -29q-43 0 -71.5 24.5z" />
    <glyph glyph-name="uni04F5" unicode="&#x4f5;" horiz-adv-x="677" 
d="M675 506l-113 -506h-198l32 143q-55 -5 -94 -5q-119 0 -182.5 51t-63.5 140q0 27 6 57l24 120h198l-28 -128q-2 -12 -2 -17q0 -54 89 -54q48 0 90 3l44 196h198zM205.5 575.5q-28.5 24.5 -28.5 66.5q0 49 31.5 77.5t77.5 28.5q43 0 72 -24t29 -65q0 -50 -31.5 -79
t-77.5 -29q-44 0 -72.5 24.5zM467.5 575.5q-28.5 24.5 -28.5 66.5q0 49 31 77.5t78 28.5q43 0 71.5 -24t28.5 -65q0 -50 -31.5 -79t-77.5 -29q-43 0 -71.5 24.5z" />
    <glyph glyph-name="uni04F8" unicode="&#x4f8;" horiz-adv-x="1013" 
d="M357 656l-45 -202h153q110 0 172.5 -51.5t62.5 -137.5q0 -25 -6 -54l-3 -13q-20 -99 -91 -148t-197 -49h-396l145 655h205zM1042 656l-146 -656h-205l146 656h205zM469.5 182q17.5 12 23.5 38l2 11q2 10 2 14q0 20 -14.5 30.5t-42.5 10.5h-164l-28 -116h170q34 0 51.5 12
zM421.5 725.5q-28.5 24.5 -28.5 66.5q0 49 31.5 77.5t77.5 28.5q43 0 72 -24t29 -65q0 -50 -31.5 -79t-77.5 -29q-44 0 -72.5 24.5zM683.5 725.5q-28.5 24.5 -28.5 66.5q0 49 31 77.5t78 28.5q43 0 71.5 -24t28.5 -65q0 -50 -31.5 -79t-77.5 -29q-43 0 -71.5 24.5z" />
    <glyph glyph-name="uni04F9" unicode="&#x4f9;" horiz-adv-x="902" 
d="M609 176q-35 -176 -253 -176h-368l113 506h198l-23 -102h131q62 0 109.5 -22t74 -61t26.5 -89q0 -22 -6 -46zM915 506l-113 -506h-198l113 506h198zM420 217q0 17 -11 26t-32 9h-135l-22 -100h143q21 0 35 10t18 28l2 11q2 6 2 16zM331.5 575.5q-28.5 24.5 -28.5 66.5
q0 49 31.5 77.5t77.5 28.5q43 0 72 -24t29 -65q0 -50 -31.5 -79t-77.5 -29q-44 0 -72.5 24.5zM593.5 575.5q-28.5 24.5 -28.5 66.5q0 49 31 77.5t78 28.5q43 0 71.5 -24t28.5 -65q0 -50 -31.5 -79t-77.5 -29q-43 0 -71.5 24.5z" />
    <glyph glyph-name="uni1E62" unicode="&#x1e62;" horiz-adv-x="771" 
d="M116.5 37q-80.5 50 -80.5 142q0 19 5 46l2 10h199l-2 -10q-1 -4 -1 -12q0 -29 34 -45.5t97 -16.5q66 0 99.5 11.5t38.5 34.5l1 6q2 15 -10.5 24.5t-43.5 14.5l-166 28q-91 16 -138 56.5t-47 103.5q0 20 4 39l2 10q19 95 103.5 142.5t237.5 47.5q148 0 227.5 -48
t79.5 -137q0 -22 -4 -41l-1 -8h-197l1 8q1 3 1 10q0 52 -123 52q-120 0 -128 -39l-1 -6q-2 -12 10.5 -20t42.5 -13l167 -28q94 -16 142 -57t48 -105q0 -17 -5 -42l-2 -10q-38 -198 -362 -198q-150 0 -230.5 50zM237.5 -223.5q-30.5 26.5 -30.5 71.5q0 52 33.5 82.5
t82.5 30.5q47 0 77.5 -26.5t30.5 -71.5q0 -53 -33.5 -83t-82.5 -30q-47 0 -77.5 26.5z" />
    <glyph glyph-name="uni1E63" unicode="&#x1e63;" horiz-adv-x="688" 
d="M95.5 27.5q-75.5 40.5 -75.5 115.5q0 18 2 27v3h179v-3q-5 -24 25.5 -35.5t100.5 -11.5q105 0 112 24l1 4q2 10 -6.5 15t-33.5 8l-137 15q-93 10 -141.5 44.5t-48.5 88.5q0 13 3 28l2 10q14 78 94.5 118.5t220.5 40.5q135 0 205 -39.5t70 -114.5q0 -19 -2 -29l-1 -3h-178
l1 3q4 24 -24.5 35.5t-90.5 11.5q-109 0 -115 -23l-1 -4q-5 -17 39 -22l140 -16q96 -10 144.5 -44.5t48.5 -90.5q0 -13 -3 -27l-2 -10q-32 -159 -312 -159q-141 0 -216.5 40.5zM212.5 -223.5q-30.5 26.5 -30.5 71.5q0 52 33.5 82.5t82.5 30.5q47 0 77.5 -26.5t30.5 -71.5
q0 -53 -33.5 -83t-82.5 -30q-47 0 -77.5 26.5z" />
    <glyph glyph-name="Wgrave" unicode="&#x1e80;" horiz-adv-x="1175" 
d="M1258 656l-6 -30l-351 -626h-246l-41 396l-216 -396h-248l-73 626l6 30h197l40 -417l231 417h222l44 -419l224 419h217zM498 905l438 -60l-31 -146l-438 60z" />
    <glyph glyph-name="wgrave" unicode="&#x1e81;" horiz-adv-x="1067" 
d="M1121 506l-6 -27l-289 -479h-257l-41 255l-152 -255h-256l-76 479l6 27h200l34 -309l187 309h207l49 -312l180 312h214zM412 755l438 -60l-31 -146l-438 60z" />
    <glyph glyph-name="Wacute" unicode="&#x1e82;" horiz-adv-x="1175" 
d="M1258 656l-6 -30l-351 -626h-246l-41 396l-216 -396h-248l-73 626l6 30h197l40 -417l231 417h222l44 -419l224 419h217zM952 909l-36 -156l-465 -60l36 156z" />
    <glyph glyph-name="wacute" unicode="&#x1e83;" horiz-adv-x="1067" 
d="M1121 506l-6 -27l-289 -479h-257l-41 255l-152 -255h-256l-76 479l6 27h200l34 -309l187 309h207l49 -312l180 312h214zM866 759l-36 -156l-465 -60l36 156z" />
    <glyph glyph-name="Wdieresis" unicode="&#x1e84;" horiz-adv-x="1175" 
d="M1258 656l-6 -30l-351 -626h-246l-41 396l-216 -396h-248l-73 626l6 30h197l40 -417l231 417h222l44 -419l224 419h217zM494.5 725.5q-28.5 24.5 -28.5 66.5q0 49 31.5 77.5t77.5 28.5q43 0 72 -24t29 -65q0 -50 -31.5 -79t-77.5 -29q-44 0 -72.5 24.5zM756.5 725.5
q-28.5 24.5 -28.5 66.5q0 49 31 77.5t78 28.5q43 0 71.5 -24t28.5 -65q0 -50 -31.5 -79t-77.5 -29q-43 0 -71.5 24.5z" />
    <glyph glyph-name="wdieresis" unicode="&#x1e85;" horiz-adv-x="1067" 
d="M1121 506l-6 -27l-289 -479h-257l-41 255l-152 -255h-256l-76 479l6 27h200l34 -309l187 309h207l49 -312l180 312h214zM408.5 575.5q-28.5 24.5 -28.5 66.5q0 49 31.5 77.5t77.5 28.5q43 0 72 -24t29 -65q0 -50 -31.5 -79t-77.5 -29q-44 0 -72.5 24.5zM670.5 575.5
q-28.5 24.5 -28.5 66.5q0 49 31 77.5t78 28.5q43 0 71.5 -24t28.5 -65q0 -50 -31.5 -79t-77.5 -29q-43 0 -71.5 24.5z" />
    <glyph glyph-name="uni1E9E" unicode="&#x1e9e;" horiz-adv-x="821" 
d="M798 481l-161 -98q68 -15 103.5 -52t35.5 -95q0 -23 -4 -43l-2 -10q-19 -98 -86.5 -140.5t-206.5 -42.5h-151l36 166h140q32 0 48 8t20 25l2 10q4 18 -10.5 28.5t-43.5 10.5h-136l31 142l142 91h-198q-21 0 -31.5 -8t-15.5 -28l-99 -445h-205l108 478q21 93 75.5 135.5
t154.5 42.5h492z" />
    <glyph glyph-name="uni1EB8" unicode="&#x1eb8;" horiz-adv-x="723" 
d="M762 656l-37 -167h-405l-18 -78h385l-36 -165h-385l-19 -78h405l-36 -168h-610l146 656h610zM210.5 -223.5q-30.5 26.5 -30.5 71.5q0 52 33.5 82.5t82.5 30.5q47 0 77.5 -26.5t30.5 -71.5q0 -53 -33.5 -83t-82.5 -30q-47 0 -77.5 26.5z" />
    <glyph glyph-name="uni1EB9" unicode="&#x1eb9;" horiz-adv-x="671" 
d="M511.5 492q65.5 -27 100.5 -75.5t35 -113.5q0 -20 -5 -48l-11 -50h-416q1 -34 27.5 -52.5t76.5 -18.5q81 0 103 34h203q-26 -88 -106 -134.5t-205 -46.5q-86 0 -150.5 29t-99.5 80.5t-35 118.5q0 22 5 50l4 18q20 113 103.5 174.5t217.5 61.5q87 0 152.5 -27zM241 318
h211q-5 29 -30.5 44.5t-68.5 15.5q-83 0 -112 -60zM187.5 -223.5q-30.5 26.5 -30.5 71.5q0 52 33.5 82.5t82.5 30.5q47 0 77.5 -26.5t30.5 -71.5q0 -53 -33.5 -83t-82.5 -30q-47 0 -77.5 26.5z" />
    <glyph glyph-name="uni1EBC" unicode="&#x1ebc;" horiz-adv-x="723" 
d="M762 656l-37 -167h-405l-18 -78h385l-36 -165h-385l-19 -78h405l-36 -168h-610l146 656h610zM476 727q-37 7 -60.5 10.5t-49.5 3.5q-65 0 -123 -27l33 148q51 27 111 27q34 0 68.5 -7t39.5 -8q35 -8 61 -12t54 -4q62 0 123 26l-34 -148q-52 -23 -110 -23q-41 0 -113 14z
" />
    <glyph glyph-name="uni1EBD" unicode="&#x1ebd;" horiz-adv-x="671" 
d="M511.5 492q65.5 -27 100.5 -75.5t35 -113.5q0 -20 -5 -48l-11 -50h-416q1 -34 27.5 -52.5t76.5 -18.5q81 0 103 34h203q-26 -88 -106 -134.5t-205 -46.5q-86 0 -150.5 29t-99.5 80.5t-35 118.5q0 22 5 50l4 18q20 113 103.5 174.5t217.5 61.5q87 0 152.5 -27zM241 318
h211q-5 29 -30.5 44.5t-68.5 15.5q-83 0 -112 -60zM385 577q-37 7 -60.5 10.5t-49.5 3.5q-65 0 -123 -27l33 148q51 27 111 27q34 0 68.5 -7t39.5 -8q35 -8 61 -12t54 -4q62 0 123 26l-34 -148q-52 -23 -110 -23q-41 0 -113 14z" />
    <glyph glyph-name="uni1ECA" unicode="&#x1eca;" horiz-adv-x="299" 
d="M342 656l-146 -656h-206l147 656h205zM-20.5 -223.5q-30.5 26.5 -30.5 71.5q0 52 33.5 82.5t82.5 30.5q47 0 77.5 -26.5t30.5 -71.5q0 -53 -33.5 -83t-82.5 -30q-47 0 -77.5 26.5z" />
    <glyph glyph-name="uni1ECB" unicode="&#x1ecb;" horiz-adv-x="286" 
d="M299 506l-113 -506h-199l114 506h198zM150.5 571.5q-30.5 26.5 -30.5 71.5q0 52 33.5 82.5t82.5 30.5q47 0 77.5 -26t30.5 -71q0 -52 -34 -83t-83 -31q-46 0 -76.5 26.5zM-27.5 -223.5q-30.5 26.5 -30.5 71.5q0 52 33.5 82.5t82.5 30.5q47 0 77.5 -26.5t30.5 -71.5
q0 -53 -33.5 -83t-82.5 -30q-47 0 -77.5 26.5z" />
    <glyph glyph-name="uni1ECC" unicode="&#x1ecc;" horiz-adv-x="877" 
d="M229 24q-86 37 -133 104t-47 153q0 34 7 66l1 5q30 151 141 234t284 83q114 0 200 -37t132.5 -103t46.5 -152q0 -36 -7 -68l-1 -5q-29 -152 -139.5 -234.5t-284.5 -82.5q-114 0 -200 37zM649 313l2 11q4 17 4 36q0 59 -48 93t-136 34q-177 0 -210 -145l-2 -11
q-5 -22 -5 -38q0 -58 47.5 -90.5t135.5 -32.5q182 0 212 143zM293.5 -223.5q-30.5 26.5 -30.5 71.5q0 52 33.5 82.5t82.5 30.5q47 0 77.5 -26.5t30.5 -71.5q0 -53 -33.5 -83t-82.5 -30q-47 0 -77.5 26.5z" />
    <glyph glyph-name="uni1ECD" unicode="&#x1ecd;" horiz-adv-x="685" 
d="M171 16q-67 29 -103 81.5t-36 122.5q0 27 4 50l2 9q17 114 101 177t220 63q91 0 157.5 -28.5t101.5 -81t35 -123.5q0 -23 -5 -53l-1 -9q-18 -113 -100.5 -175t-217.5 -62q-91 0 -158 29zM413 180q29 21 37 62l1 4q2 14 2 21q0 38 -27.5 59.5t-75.5 21.5t-78 -22.5
t-37 -64.5l-1 -5q-2 -14 -2 -20q0 -35 28 -56t76 -21t77 21zM197.5 -223.5q-30.5 26.5 -30.5 71.5q0 52 33.5 82.5t82.5 30.5q47 0 77.5 -26.5t30.5 -71.5q0 -53 -33.5 -83t-82.5 -30q-47 0 -77.5 26.5z" />
    <glyph glyph-name="uni1EE4" unicode="&#x1ee4;" horiz-adv-x="793" 
d="M213.5 20.5q-71.5 33.5 -109.5 94t-38 139.5q0 41 8 76l70 326h205l-78 -345q-5 -23 -5 -40q0 -48 31.5 -74.5t91.5 -26.5q65 0 103.5 32t53.5 98l82 356h205l-92 -375q-35 -144 -125 -219t-235 -75q-96 0 -167.5 33.5zM251.5 -223.5q-30.5 26.5 -30.5 71.5
q0 52 33.5 82.5t82.5 30.5q47 0 77.5 -26.5t30.5 -71.5q0 -53 -33.5 -83t-82.5 -30q-47 0 -77.5 26.5z" />
    <glyph glyph-name="uni1EE5" unicode="&#x1ee5;" horiz-adv-x="711" 
d="M707 506l-113 -506h-175l1 35q-67 -48 -152 -48q-103 -1 -162.5 55.5t-59.5 152.5q0 35 9 75l52 236h198l-56 -245q-4 -22 -4 -30q0 -34 22.5 -52.5t64.5 -18.5q34 0 62.5 13t48.5 37l66 296h198zM182.5 -223.5q-30.5 26.5 -30.5 71.5q0 52 33.5 82.5t82.5 30.5
q47 0 77.5 -26.5t30.5 -71.5q0 -53 -33.5 -83t-82.5 -30q-47 0 -77.5 26.5z" />
    <glyph glyph-name="Ygrave" unicode="&#x1ef2;" horiz-adv-x="726" 
d="M811 626l-354 -375l-56 -251h-205l59 263l-192 363l7 30h195l119 -238l215 238h219zM271 905l438 -60l-31 -146l-438 60z" />
    <glyph glyph-name="ygrave" unicode="&#x1ef3;" horiz-adv-x="697" 
d="M751 506l-6 -27l-371 -537q-40 -57 -91.5 -84.5t-136.5 -27.5h-170l36 165h147q7 0 21 2l-136 482l6 27h200l79 -307l200 307h222zM227 755l438 -60l-31 -146l-438 60z" />
    <glyph glyph-name="uni1EF8" unicode="&#x1ef8;" horiz-adv-x="726" 
d="M811 626l-354 -375l-56 -251h-205l59 263l-192 363l7 30h195l119 -238l215 238h219zM463 727q-37 7 -60.5 10.5t-49.5 3.5q-65 0 -123 -27l33 148q51 27 111 27q34 0 68.5 -7t39.5 -8q35 -8 61 -12t54 -4q62 0 123 26l-34 -148q-52 -23 -110 -23q-41 0 -113 14z" />
    <glyph glyph-name="uni1EF9" unicode="&#x1ef9;" horiz-adv-x="697" 
d="M751 506l-6 -27l-371 -537q-40 -57 -91.5 -84.5t-136.5 -27.5h-170l36 165h147q7 0 21 2l-136 482l6 27h200l79 -307l200 307h222zM419 577q-37 7 -60.5 10.5t-49.5 3.5q-65 0 -123 -27l33 148q51 27 111 27q34 0 68.5 -7t39.5 -8q35 -8 61 -12t54 -4q62 0 123 26
l-34 -148q-52 -23 -110 -23q-41 0 -113 14z" />
    <glyph glyph-name="uni2009" unicode="&#x2009;" horiz-adv-x="200" 
 />
    <glyph glyph-name="uni2010" unicode="&#x2010;" horiz-adv-x="442" 
d="M417 365l-38 -173h-342l38 173h342z" />
    </font>
</defs>
</svg>
