<?xml version="1.0" standalone="no"?>
<!DOCTYPE svg PUBLIC "-//W3C//DTD SVG 1.1//EN" "http://www.w3.org/Graphics/SVG/1.1/DTD/svg11.dtd" >
<svg xmlns="http://www.w3.org/2000/svg" xmlns:xlink="http://www.w3.org/1999/xlink" version="1.1">
<metadata>
Created by FontForge 20170731 at Fri Jun  7 20:40:48 2019
 By Aleksey,,,
Copyright (c) 2019 by Lisa Fischbach, Jakob Runge and Nils Thomsen. All rights reserved.
</metadata>
<defs>
<font id="HalvarBreit-XBdSlanted" horiz-adv-x="554" >
  <font-face 
    font-family="Halvar Breit XBd"
    font-weight="800"
    font-style="oblique"
    font-stretch="expanded"
    units-per-em="1000"
    panose-1="0 0 9 5 0 0 0 0 0 0"
    ascent="800"
    descent="-200"
    x-height="503"
    cap-height="656"
    bbox="-321 -244 1488 974"
    underline-thickness="50"
    underline-position="-200"
    slope="-12"
    unicode-range="U+0020-FB02"
  />
<missing-glyph horiz-adv-x="436" 
d="M334 656h165l-500 -410l36 165zM115 656h165l-232 -190l36 165zM520 631l-36 -165l-534 -439l36 164zM435 246l-300 -246h-164l500 411zM386 27l-32 -27h-164l232 191z" />
    <glyph glyph-name=".notdef" horiz-adv-x="436" 
d="M334 656h165l-500 -410l36 165zM115 656h165l-232 -190l36 165zM520 631l-36 -165l-534 -439l36 164zM435 246l-300 -246h-164l500 411zM386 27l-32 -27h-164l232 191z" />
    <glyph glyph-name=".null" horiz-adv-x="0" 
 />
    <glyph glyph-name="nonmarkingreturn" horiz-adv-x="333" 
 />
    <glyph glyph-name="space" unicode=" " horiz-adv-x="400" 
 />
    <glyph glyph-name="exclam" unicode="!" horiz-adv-x="352" 
d="M351 656l-104 -428h-162l86 428h180zM68.5 11q-27.5 24 -27.5 65q0 48 29.5 76.5t73.5 28.5q42 0 69.5 -23.5t27.5 -64.5q0 -49 -29.5 -77.5t-74.5 -28.5q-41 0 -68.5 24z" />
    <glyph glyph-name="quotedbl" unicode="&#x22;" horiz-adv-x="573" 
d="M347 696l-73 -303h-158l62 303h169zM592 696l-72 -303h-158l62 303h168z" />
    <glyph glyph-name="numbersign" unicode="#" horiz-adv-x="844" 
d="M701 402l-43 -148h122l-33 -154h-132l-29 -100h-171l28 100h-129l-28 -100h-172l29 100h-124l33 154h134l43 148h-132l34 154h141l29 100h171l-28 -100h129l29 100h171l-29 -100h115l-34 -154h-124zM490 251l44 154h-136l-45 -154h137z" />
    <glyph glyph-name="dollar" unicode="$" horiz-adv-x="816" 
d="M730 575.5q53 -41.5 53 -105.5q0 -19 -4 -35l-1 -7h-174l2 7q1 4 1 11q0 58 -158 58q-71 0 -107 -10t-40 -31l-1 -7q-1 -3 -1 -8q0 -15 18 -24.5t58 -13.5l168 -20q97 -11 148.5 -49.5t51.5 -98.5q0 -14 -3 -31l-2 -10q-14 -77 -85 -123t-194 -57l-18 -81h-190l19 85
q-105 14 -160 57.5t-55 112.5q0 21 4 38l1 7h175l-1 -7q-2 -10 -2 -14q0 -67 165 -67q78 0 118.5 12.5t44.5 38.5l1 7q1 3 1 10q0 16 -16.5 24.5t-55.5 13.5l-173 20q-96 11 -146 49t-50 99q0 19 4 35l2 10q13 71 79 112.5t181 51.5l19 82h190l-20 -86q100 -14 153 -55.5z
" />
    <glyph glyph-name="percent" unicode="%" horiz-adv-x="970" 
d="M124.5 378q-52.5 39 -52.5 103q0 11 4 33l3 13q12 65 65.5 101t137.5 36q88 0 140 -38.5t52 -102.5q0 -18 -4 -34l-3 -14q-12 -64 -65 -100t-137 -36q-88 0 -140.5 39zM311.5 459.5q17.5 12.5 22.5 33.5l1 10q1 3 1 10q0 19 -15.5 31t-42.5 12q-26 0 -43.5 -12t-21.5 -33
l-2 -11q-1 -3 -1 -9q0 -19 16 -31.5t42 -12.5t43.5 12.5zM583.5 32q-52.5 39 -52.5 103q0 11 4 33l3 13q12 65 65.5 101t137.5 36q88 0 140 -38.5t52 -102.5q0 -18 -4 -34l-3 -14q-12 -64 -65 -100t-137 -36q-88 0 -140.5 39zM770.5 113.5q17.5 12.5 22.5 33.5l1 10
q1 3 1 10q0 19 -15.5 31t-42.5 12q-26 0 -43.5 -12t-21.5 -33l-2 -11q-1 -3 -1 -9q0 -19 16 -31.5t42 -12.5t43.5 12.5zM762 656h176l-6 -27l-689 -629h-176l5 24z" />
    <glyph glyph-name="ampersand" unicode="&#x26;" horiz-adv-x="915" 
d="M924 344l-235 -187l165 -133l-5 -24h-200l-79 66q-58 -38 -121 -58t-143 -20q-83 0 -146 22.5t-97.5 62.5t-34.5 91q0 23 5 40l2 10q12 57 53 95t117 60l2 1q-54 55 -54 110q0 18 4 34l2 9q13 67 83.5 106.5t178.5 39.5q80 0 140 -20.5t93 -58t33 -85.5q0 -18 -4 -34
l-2 -9q-10 -50 -46 -83.5t-105 -55.5l-34 -11l78 -63l148 118h208zM321 478q0 -23 40 -57l23 -18l42 13q46 15 64.5 26t22.5 29l2 7q1 3 1 9q0 22 -26.5 35t-73.5 13q-41 0 -65 -10.5t-28 -30.5l-1 -7q-1 -3 -1 -9zM456 161l-136 112l-35 -10q-36 -10 -54.5 -24t-22.5 -34
l-2 -9q-2 -10 -2 -14q0 -28 28 -44t79 -16q75 0 145 39z" />
    <glyph glyph-name="quotesingle" unicode="'" horiz-adv-x="334" 
d="M353 696l-72 -303h-165l62 303h175z" />
    <glyph glyph-name="parenleft" unicode="(" horiz-adv-x="466" 
d="M200 -36.5q-68 36.5 -105 98.5t-37 140q0 32 8 72l35 162q66 304 435 295l-32 -148q-200 3 -237 -167l-34 -153q-6 -27 -6 -51q0 -64 42.5 -101t119.5 -37l-32 -148q-89 1 -157 37.5z" />
    <glyph glyph-name="parenright" unicode=")" horiz-adv-x="466" 
d="M300 693.5q68 -36.5 105 -98.5t37 -140q0 -32 -8 -72l-35 -162q-66 -305 -435 -295l32 148q101 -1 159 40t78 127l35 153q6 27 6 50q0 65 -43 102t-120 37l32 148q89 -1 157 -37.5z" />
    <glyph glyph-name="asterisk" unicode="*" horiz-adv-x="640" 
d="M519 483l140 -51l-65 -121l-171 101l-16 -105l-149 12l30 99l-191 -58l-26 133l158 21l-140 51l64 122l172 -102l15 106l151 -12l-30 -100l189 59l28 -134z" />
    <glyph glyph-name="plus" unicode="+" horiz-adv-x="816" 
d="M715 249h-226l-46 -208h-163l46 208h-225l34 158h227l46 208h163l-46 -208h224z" />
    <glyph glyph-name="comma" unicode="," horiz-adv-x="334" 
d="M271 160l-5 -25l-164 -278h-160l137 303h192z" />
    <glyph glyph-name="hyphen" unicode="-" horiz-adv-x="442" 
d="M415 354l-34 -152h-342l34 152h342z" />
    <glyph glyph-name="period" unicode="." horiz-adv-x="334" 
d="M56 12q-27 25 -27 65q0 46 30 75t75 29q42 0 69 -24.5t27 -64.5q0 -46 -29.5 -75.5t-74.5 -29.5q-43 0 -70 25z" />
    <glyph glyph-name="slash" unicode="/" horiz-adv-x="703" 
d="M572 726h191l-7 -27l-591 -769h-191l6 27z" />
    <glyph glyph-name="zero" unicode="0" horiz-adv-x="817" 
d="M217.5 21.5q-77.5 34.5 -120 96t-42.5 140.5q0 31 8 68l14 59q18 87 70 151t131.5 98.5t179.5 34.5q101 0 178.5 -34.5t119.5 -96t42 -140.5q0 -31 -8 -69l-13 -59q-28 -133 -128.5 -208t-252.5 -75q-101 0 -178.5 34.5zM538 182q51 34 65 100l14 64q5 22 5 37
q0 57 -45 91t-125 34q-84 0 -136 -35.5t-66 -100.5l-15 -64q-5 -23 -5 -39q0 -57 45 -89t127 -32q85 0 136 34z" />
    <glyph glyph-name="one" unicode="1" horiz-adv-x="519" 
d="M361 0h-179l99 444q-41 -11 -85 -11h-106l35 161h100q48 0 71.5 14.5t31.5 47.5h179z" />
    <glyph glyph-name="two" unicode="2" horiz-adv-x="755" 
d="M600 645q67 -24 102.5 -67.5t35.5 -101.5q0 -17 -3 -35l-3 -12q-10 -62 -64.5 -114t-170.5 -109l-138 -67h322l-30 -139h-642l30 136l380 188q54 27 81.5 44t39.5 32t16 36l1 8q1 4 1 12q0 32 -31.5 50t-90.5 18q-133 0 -156 -95l-5 -20h-174l4 21q27 121 110 180t228 59
q90 0 157 -24z" />
    <glyph glyph-name="three" unicode="3" horiz-adv-x="790" 
d="M780 508l-233 -121q87 -14 133.5 -56t46.5 -105q0 -20 -4 -37l-2 -11q-18 -97 -103.5 -143.5t-245.5 -46.5q-158 0 -243.5 51t-85.5 144q0 18 3 37l1 4h176l-1 -4q-2 -10 -2 -15q0 -34 40 -52t117 -18q81 0 123 15.5t49 48.5l2 11q1 3 1 8q0 52 -151 52h-130l26 122
l212 116h-385l32 148h656z" />
    <glyph glyph-name="four" unicode="4" horiz-adv-x="898" 
d="M813 125h-134l-28 -125h-179l28 125h-468l33 155q85 100 144.5 190t104.5 186h189l-6 -27q-79 -168 -222 -349h259l59 264h179l-59 -264h134z" />
    <glyph glyph-name="five" unicode="5" horiz-adv-x="801" 
d="M291 502l-28 -101q75 35 184 35q89 0 156 -24t103 -67.5t36 -101.5q0 -22 -4 -39l-2 -10q-39 -207 -358 -207q-157 0 -243.5 47t-86.5 131q0 16 3 32l2 6h175l-1 -6q-6 -29 35.5 -45.5t122.5 -16.5q82 0 125 17.5t51 53.5l2 11q1 3 1 10q0 31 -41.5 48t-116.5 17
q-70 0 -114 -11.5t-55 -32.5h-174l112 408h624l-33 -154h-475z" />
    <glyph glyph-name="six" unicode="6" horiz-adv-x="786" 
d="M638.5 645q73.5 -24 113 -68t39.5 -102q0 -16 -3 -31l-1 -4h-176l1 4l1 8q0 33 -41 51.5t-112 18.5q-89 0 -141 -31.5t-65 -92.5l-5 -21q79 43 201 43q139 0 217 -48t78 -132q0 -20 -4 -39l-2 -9q-20 -101 -109.5 -153t-245.5 -52q-103 0 -179 29.5t-116.5 83
t-40.5 124.5q0 33 7 62l30 132q28 123 123.5 187t258.5 64q98 0 171.5 -24zM568 224q0 59 -148 59q-65 0 -116.5 -11.5t-83.5 -32.5q-4 -51 40.5 -78t134.5 -27q77 0 120 18t50 52l2 8q1 4 1 12z" />
    <glyph glyph-name="seven" unicode="7" horiz-adv-x="757" 
d="M789 656l-34 -154q-162 -133 -260.5 -255.5t-123.5 -221.5l-6 -25h-204l6 25q59 231 365 477h-435l34 154h658z" />
    <glyph glyph-name="eight" unicode="8" horiz-adv-x="853" 
d="M659 647q73 -22 112.5 -62.5t39.5 -93.5q0 -11 -4 -33l-2 -11q-14 -75 -100 -116q71 -42 71 -115q0 -20 -4 -36l-2 -11q-27 -182 -369 -182q-171 0 -261.5 48t-90.5 138q0 19 5 44l2 11q15 92 135 131q-50 39 -50 98q0 15 3 30l2 10q15 82 103 127t238 45q99 0 172 -22z
M306 451q0 -29 37 -42t122 -13q91 0 130 13.5t44 46.5l1 4q1 4 1 12q0 29 -38 42.5t-122 13.5q-90 0 -128.5 -13.5t-44.5 -46.5l-1 -4q-1 -4 -1 -13zM602 203q0 31 -41.5 44t-137.5 13q-103 0 -147 -13t-49 -43l-1 -4q-1 -4 -1 -12q0 -31 42.5 -45t138.5 -14q99 0 144 13.5
t50 44.5l1 4q1 4 1 12z" />
    <glyph glyph-name="nine" unicode="9" horiz-adv-x="786" 
d="M615 639.5q76 -29.5 116.5 -83t40.5 -124.5q0 -33 -7 -62l-30 -132q-28 -123 -123.5 -186.5t-258.5 -63.5q-99 0 -172 24t-112.5 67.5t-39.5 102.5q0 15 3 31l1 4h176l-1 -5l-1 -8q0 -32 41 -51t112 -19q88 0 140 31.5t66 93.5l5 20q-79 -43 -201 -43q-139 0 -217 48.5
t-78 132.5q0 20 4 39l2 9q19 101 109 152.5t246 51.5q103 0 179 -29.5zM252 433q0 -60 148 -60q66 0 117 11.5t83 32.5q4 51 -40.5 78t-134.5 27q-77 0 -120 -18t-50 -52l-2 -7q-1 -4 -1 -12z" />
    <glyph glyph-name="colon" unicode=":" horiz-adv-x="374" 
d="M76 12q-27 25 -27 65q0 46 30 75t75 29q42 0 69 -24.5t27 -64.5q0 -46 -29.5 -75.5t-74.5 -29.5q-43 0 -70 25zM144 319q-27 25 -27 65q0 46 30 75t75 29q42 0 69 -24.5t27 -64.5q0 -46 -29.5 -75.5t-74.5 -29.5q-43 0 -70 25z" />
    <glyph glyph-name="semicolon" unicode=";" horiz-adv-x="374" 
d="M282 160l-5 -25l-164 -278h-160l137 303h192zM145 319q-27 25 -27 65q0 46 30 75t75 29q42 0 69 -24.5t27 -64.5q0 -46 -29.5 -75.5t-74.5 -29.5q-43 0 -70 25z" />
    <glyph glyph-name="less" unicode="&#x3c;" horiz-adv-x="816" 
d="M745 448l-432 -131l374 -131l-30 -147h-24l-538 186l46 205l620 186h24z" />
    <glyph glyph-name="equal" unicode="=" horiz-adv-x="816" 
d="M766 525l-35 -159h-594l35 159h594zM714 290l-35 -159h-594l35 159h594z" />
    <glyph glyph-name="greater" unicode="&#x3e;" horiz-adv-x="816" 
d="M754 430l-45 -204l-621 -187h-24l41 168l432 132l-374 130l30 147h24z" />
    <glyph glyph-name="question" unicode="?" horiz-adv-x="632" 
d="M272.5 321.5q29.5 30.5 97.5 61.5q58 25 78.5 39.5t24.5 32.5l1 9q1 3 1 10q0 23 -26 37t-70 14q-55 0 -91 -20.5t-44 -55.5l-4 -19h-167l4 19q23 107 103 163.5t211 56.5q75 0 133.5 -22.5t91 -62t32.5 -89.5q0 -18 -4 -33l-3 -15q-8 -42 -41.5 -75.5t-97.5 -60.5
q-49 -22 -69.5 -32.5t-28.5 -19t-10 -20.5l-2 -11h-162l2 11q11 52 40.5 82.5zM212 12.5q-27 25.5 -27 65.5q0 46 30 74.5t75 28.5q42 0 69 -24.5t27 -64.5q0 -46 -29.5 -75.5t-74.5 -29.5q-43 0 -70 25.5z" />
    <glyph glyph-name="at" unicode="@" horiz-adv-x="1030" 
d="M798.5 629.5q98.5 -39.5 151 -111.5t52.5 -169q0 -44 -10 -87l-10 -44q-19 -90 -75 -138t-141 -48q-46 0 -81 14.5t-57 40.5q-67 -58 -170 -58q-64 0 -112 23.5t-74 65.5t-26 96q0 26 8 60l4 13q20 93 87 145.5t166 52.5q98 0 153 -50l12 37h136l-62 -277q-2 -12 -2 -15
q0 -32 35 -32q21 0 36.5 17.5t22.5 49.5l17 77q7 28 7 57q0 95 -77.5 147.5t-218.5 52.5q-159 0 -254 -65.5t-121 -190.5l-7 -33q-9 -39 -9 -73q0 -98 66.5 -154.5t185.5 -56.5h184l-26 -117h-173q-110 0 -195 42.5t-132 117t-47 167.5q0 40 11 89l9 39q36 169 164.5 262
t338.5 93q135 0 233.5 -39.5zM394 234q0 -33 25.5 -52t71.5 -19q34 0 65.5 11t51.5 30l23 107q-14 19 -43 30t-66 11q-105 0 -123 -84l-3 -13q-2 -7 -2 -21z" />
    <glyph glyph-name="A" unicode="A" horiz-adv-x="770" 
d="M722 27l-6 -27h-168l-24 123h-303l-79 -123h-187l6 27l421 629h199zM496 268l-43 217l-139 -217h182z" />
    <glyph glyph-name="B" unicode="B" horiz-adv-x="785" 
d="M709.5 615q57.5 -41 57.5 -113q0 -20 -4 -39l-2 -10q-15 -85 -95 -127q58 -40 58 -108q0 -20 -4 -37l-2 -10q-17 -84 -87 -127.5t-191 -43.5h-427l146 656h389q104 0 161.5 -41zM306 507l-24 -109h220q73 0 82 49l2 10q1 4 1 11q0 19 -16 29t-45 10h-220zM549 223
q0 39 -61 39h-237l-25 -113h237q36 0 57.5 13.5t25.5 38.5l2 10q1 4 1 12z" />
    <glyph glyph-name="C" unicode="C" horiz-adv-x="874" 
d="M235 23.5q-85 36.5 -131 102t-46 151.5q0 33 8 73l2 8q29 147 138.5 229t278.5 82q107 0 192.5 -34.5t133.5 -94.5t48 -134q0 -17 -3 -35l-1 -7h-181l1 7q2 12 2 18q0 53 -53.5 86t-143.5 33q-99 0 -158.5 -41t-76.5 -121l-3 -13q-5 -20 -5 -45q0 -67 52 -103.5
t150 -36.5q91 0 148 30t68 82l1 8h185l-2 -8q-27 -128 -134.5 -200.5t-270.5 -72.5q-114 0 -199 36.5z" />
    <glyph glyph-name="D" unicode="D" horiz-adv-x="826" 
d="M474 656q160 0 245.5 -68.5t85.5 -193.5q0 -35 -8 -80l-1 -9q-20 -107 -70 -174t-136 -99t-216 -32h-361l146 656h315zM548 192.5q53 38.5 70 124.5l3 14q5 27 5 45q0 62 -43 94t-128 32h-149l-80 -348h166q103 0 156 38.5z" />
    <glyph glyph-name="E" unicode="E" horiz-adv-x="723" 
d="M757 656l-33 -149h-417l-25 -105h398l-32 -147h-398l-25 -106h418l-32 -149h-598l146 656h598z" />
    <glyph glyph-name="F" unicode="F" horiz-adv-x="704" 
d="M758 656l-33 -154h-419l-27 -113h399l-33 -154h-399l-53 -235h-180l146 656h599z" />
    <glyph glyph-name="G" unicode="G" horiz-adv-x="879" 
d="M701 642.5q86 -26.5 133 -74.5t47 -111q0 -18 -2 -27l-1 -4h-183v4q4 23 -20 42t-69.5 30.5t-101.5 11.5q-113 0 -177.5 -43t-83.5 -131l-2 -12q-5 -27 -5 -44q0 -68 52.5 -104.5t152.5 -36.5q65 0 120.5 14t96.5 40l8 35h-319l29 133h490l-81 -365h-152l3 42
q-48 -29 -98.5 -42t-115.5 -13q-110 0 -193 37t-128 102.5t-45 150.5q0 35 7 67l2 7q32 154 144 236t293 82q113 0 199 -26.5z" />
    <glyph glyph-name="H" unicode="H" horiz-adv-x="819" 
d="M339 656l-56 -251h320l57 251h180l-146 -656h-180l56 251h-321l-56 -251h-180l146 656h180z" />
    <glyph glyph-name="I" unicode="I" horiz-adv-x="299" 
d="M329 656l-146 -656h-180l146 656h180z" />
    <glyph glyph-name="J" unicode="J" horiz-adv-x="749" 
d="M187 19q-70 32 -108.5 89t-38.5 131q0 27 6 57l7 32h178l-6 -32q-5 -23 -5 -39q0 -52 34 -80.5t97 -28.5q70 0 110 34t57 108l49 212h-283l33 154h464l-94 -391q-66 -278 -337 -278q-93 0 -163 32z" />
    <glyph glyph-name="K" unicode="K" horiz-adv-x="813" 
d="M861 629l-346 -270l191 -332l-6 -27h-178l-151 265l-143 -110l-35 -155h-180l146 656h180l-64 -286l370 286h222z" />
    <glyph glyph-name="L" unicode="L" horiz-adv-x="687" 
d="M339 656l-113 -502h424l-34 -154h-603l146 656h180z" />
    <glyph glyph-name="M" unicode="M" horiz-adv-x="1029" 
d="M904 0h-178l90 403l-269 -403h-178l-89 402l-89 -402h-178l146 656h230l103 -458l302 458h256z" />
    <glyph glyph-name="N" unicode="N" horiz-adv-x="819" 
d="M840 656l-146 -656h-165l-252 421l-94 -421h-170l146 656h166l251 -420l93 420h171z" />
    <glyph glyph-name="O" unicode="O" horiz-adv-x="877" 
d="M232 24q-84 37 -129.5 103t-45.5 152q0 34 7 68l2 6q31 150 140 233t278 83q111 0 195 -36.5t129.5 -102.5t45.5 -151q0 -32 -8 -70l-1 -7q-31 -150 -139.5 -232.5t-278.5 -82.5q-111 0 -195 37zM589 189.5q59 41.5 76 121.5l3 11q5 19 5 44q0 66 -52 104t-145 38
q-95 0 -153.5 -41.5t-77.5 -122.5l-3 -12q-6 -22 -6 -44q0 -65 52 -102.5t145 -37.5q97 0 156 41.5z" />
    <glyph glyph-name="P" unicode="P" horiz-adv-x="787" 
d="M564 656q68 0 119.5 -23.5t79.5 -65t28 -95.5q0 -20 -5 -45l-2 -10q-42 -202 -288 -202h-255l-48 -215h-180l146 656h405zM605 428l2 10q2 12 2 16q0 25 -18 38.5t-52 13.5h-232l-33 -141h236q81 0 95 63z" />
    <glyph glyph-name="Q" unicode="Q" horiz-adv-x="877" 
d="M679 632.5q84 -36.5 129.5 -102.5t45.5 -151q0 -32 -8 -70l-1 -7q-26 -123 -103.5 -201t-198.5 -103l41 -114l-6 -27h-170l-47 134q-93 10 -161.5 49t-105.5 100.5t-37 138.5q0 34 7 68l2 6q31 150 140 233t278 83q111 0 195 -36.5zM673 366q0 66 -52 104t-145 38
q-95 0 -153.5 -41.5t-77.5 -122.5l-3 -12q-6 -22 -6 -44q0 -65 52 -102.5t145 -37.5q97 0 156 41.5t76 121.5l3 11q5 19 5 44z" />
    <glyph glyph-name="R" unicode="R" horiz-adv-x="806" 
d="M684 632.5q52 -23.5 80 -66.5t28 -98q0 -20 -5 -45l-3 -10q-17 -82 -75 -126.5t-162 -52.5l144 -207l-6 -27h-180l-156 232h-104l-52 -232h-180l146 656h405q68 0 120 -23.5zM611 453q0 25 -18.5 39t-52.5 14h-233l-33 -140h239q81 0 94 61l2 10q2 12 2 16z" />
    <glyph glyph-name="S" unicode="S" horiz-adv-x="771" 
d="M120.5 36.5q-80.5 49.5 -80.5 139.5q0 18 5 45l2 10h176l-2 -10q-2 -10 -2 -15q0 -35 39 -53.5t112 -18.5q144 0 155 56l1 7q1 3 1 9q0 17 -17.5 27.5t-54.5 17.5l-159 27q-90 15 -137 56t-47 103q0 21 4 38l2 10q18 91 101.5 137.5t230.5 46.5q145 0 224.5 -48
t79.5 -135q0 -21 -4 -40l-2 -8h-174l1 8q1 4 1 13q0 63 -139 63q-136 0 -145 -50l-1 -7q-4 -18 12 -29t55 -18l161 -27q93 -16 141.5 -57.5t48.5 -104.5q0 -18 -5 -41l-3 -11q-18 -94 -106 -142t-245 -48q-149 0 -229.5 49.5z" />
    <glyph glyph-name="T" unicode="T" horiz-adv-x="691" 
d="M70 502l34 154h662l-33 -154h-237l-112 -502h-181l113 502h-246z" />
    <glyph glyph-name="U" unicode="U" horiz-adv-x="793" 
d="M215 19.5q-69 32.5 -106.5 91.5t-37.5 136q0 39 8 74l72 335h180l-79 -353q-5 -25 -5 -41q0 -54 35.5 -84t101.5 -30q146 0 179 147l82 361h181l-91 -378q-34 -142 -124 -216.5t-233 -74.5q-94 0 -163 32.5z" />
    <glyph glyph-name="V" unicode="V" horiz-adv-x="770" 
d="M848 656l-6 -27l-417 -629h-207l-136 629l5 27h172l90 -478l302 478h197z" />
    <glyph glyph-name="W" unicode="W" horiz-adv-x="1175" 
d="M1253 656l-6 -27l-359 -629h-217l-51 428l-240 -428h-218l-80 629l5 27h173l50 -452l255 452h195l54 -453l248 453h191z" />
    <glyph glyph-name="X" unicode="X" horiz-adv-x="819" 
d="M867 629l-322 -309l188 -293l-6 -27h-188l-128 211l-212 -211h-219l6 27l322 309l-188 293l6 27h187l129 -211l212 211h219z" />
    <glyph glyph-name="Y" unicode="Y" horiz-adv-x="726" 
d="M809 629l-364 -378l-56 -251h-180l59 264l-199 365l6 27h172l134 -255l238 255h195z" />
    <glyph glyph-name="Z" unicode="Z" horiz-adv-x="696" 
d="M712 499l-450 -345h372l-33 -154h-618l35 157l450 345h-372l33 154h618z" />
    <glyph glyph-name="bracketleft" unicode="[" horiz-adv-x="457" 
d="M526 726l-32 -148h-197l-114 -500h198l-32 -148h-350l177 796h350z" />
    <glyph glyph-name="backslash" unicode="\" horiz-adv-x="703" 
d="M151 726h161l280 -769l-6 -27h-161l-280 769z" />
    <glyph glyph-name="bracketright" unicode="]" horiz-adv-x="457" 
d="M-4 78h198l113 500h-198l32 148h350l-177 -796h-350z" />
    <glyph glyph-name="asciicircum" unicode="^" horiz-adv-x="557" 
d="M572 396l-5 -24h-163l-60 128l-113 -128h-188l6 24l243 260h152z" />
    <glyph glyph-name="underscore" unicode="_" horiz-adv-x="564" 
d="M453 -33l-31 -139h-469l31 139h469z" />
    <glyph glyph-name="grave" unicode="`" horiz-adv-x="600" 
d="M186 747l432 -63l-28 -132l-432 63z" />
    <glyph glyph-name="a" unicode="a" horiz-adv-x="716" 
d="M684 146l-31 -146h-81q-40 0 -71.5 13.5t-49.5 38.5q-88 -65 -222 -65q-95 0 -148.5 36t-53.5 98q0 15 5 37q12 58 60.5 88.5t134.5 38.5l239 23q2 33 -25.5 50.5t-79.5 17.5q-51 0 -82.5 -15.5t-36.5 -41.5v-3h-176l1 3q16 92 96.5 144.5t207.5 52.5q125 0 197 -50.5
t72 -136.5q0 -27 -5 -47l-22 -105q-1 -3 -1 -9q0 -22 30 -22h42zM261 109q50 0 99.5 17t78.5 43l7 35l-192 -19q-50 -4 -56 -38q-6 -38 63 -38z" />
    <glyph glyph-name="b" unicode="b" horiz-adv-x="710" 
d="M561 487.5q55 -28.5 85 -79.5t30 -116q0 -25 -4 -48l-2 -10q-20 -116 -98.5 -181.5t-200.5 -65.5q-116 0 -183 64l-16 -51h-162l155 696h174l-49 -220q62 40 143 40q73 0 128 -28.5zM499 274q0 42 -31 66t-85 24q-39 0 -72 -12t-56 -33l-29 -130q17 -23 51.5 -36.5
t75.5 -13.5q60 0 96.5 27t45.5 78l2 9q2 14 2 21z" />
    <glyph glyph-name="c" unicode="c" horiz-adv-x="670" 
d="M172 16q-66 29 -101.5 81t-35.5 120q0 26 6 54l3 10q20 113 101 174t211 61q84 0 149.5 -26.5t102.5 -73t37 -104.5q0 -15 -3 -30v-5h-177l1 5q1 4 1 12q0 32 -31.5 51.5t-83.5 19.5q-117 0 -137 -102l-2 -9q-3 -13 -3 -25q0 -43 32.5 -67t91.5 -24q50 0 81 18.5t36 50.5
l1 5h179l-1 -5q-17 -104 -97 -162t-207 -58q-88 0 -154 29z" />
    <glyph glyph-name="d" unicode="d" horiz-adv-x="710" 
d="M742 696l-155 -696h-151l1 39q-68 -52 -160 -52q-73 0 -128.5 28.5t-85.5 80t-30 116.5q0 25 4 48l3 11q19 115 97.5 180t200.5 65q110 0 177 -59l53 239h174zM210 230q0 -42 31 -66.5t86 -24.5q37 0 70.5 12t56.5 33l29 131q-17 23 -51 36t-76 13q-60 0 -96.5 -26.5
t-45.5 -76.5l-2 -10q-2 -14 -2 -21z" />
    <glyph glyph-name="e" unicode="e" horiz-adv-x="671" 
d="M507.5 489q64.5 -27 99 -75.5t34.5 -111.5q0 -20 -5 -48l-9 -48h-428q1 -40 32.5 -62.5t88.5 -22.5q47 0 78 12t42 35h180q-26 -89 -103.5 -135t-199.5 -46q-85 0 -149 28.5t-99 80t-35 117.5q0 30 5 52l4 18q20 111 102.5 172t212.5 61q85 0 149.5 -27zM222 315h248
q-6 33 -37 52t-81 19q-98 0 -130 -71z" />
    <glyph glyph-name="f" unicode="f" horiz-adv-x="500" 
d="M362 503h198l-31 -145h-199l-81 -358h-174l81 358h-144l31 145h146l5 24q19 85 71.5 127t140.5 42h157l-30 -141h-120q-20 0 -31 -8.5t-16 -26.5z" />
    <glyph glyph-name="g" unicode="g" horiz-adv-x="709" 
d="M699 503l-107 -460q-28 -119 -104.5 -172.5t-223.5 -53.5q-134 1 -208 46.5t-74 128.5q0 14 1 21l1 6h175l-1 -6q-3 -25 29 -40.5t85 -15.5q68 0 103 21.5t46 68.5l5 21q-64 -35 -145 -35q-114 0 -179 54t-65 146q0 24 4 45l2 9q19 110 96 169.5t202 59.5q117 0 182 -60
l17 47h159zM460 216l25 109q-19 21 -52 32.5t-74 11.5q-125 0 -140 -90l-2 -9q-2 -14 -2 -19q0 -37 29.5 -56t87.5 -19q80 0 128 40z" />
    <glyph glyph-name="h" unicode="h" horiz-adv-x="711" 
d="M599.5 460.5q59.5 -55.5 59.5 -149.5q0 -39 -8 -72l-53 -239h-174l57 248q4 16 4 33q0 40 -26 61.5t-74 21.5q-41 0 -76 -17t-58 -48l-67 -299h-174l155 696h174l-49 -222q65 42 145 42q105 0 164.5 -55.5z" />
    <glyph glyph-name="i" unicode="i" horiz-adv-x="286" 
d="M286 503l-112 -503h-174l112 503h174zM158.5 576q-28.5 25 -28.5 65q0 48 30.5 75t75.5 27q42 0 70 -24t28 -65q0 -47 -31 -75t-75 -28q-41 0 -69.5 25z" />
    <glyph glyph-name="j" unicode="j" horiz-adv-x="286" 
d="M-56 -24q49 0 60 45l108 482h174l-115 -505q-18 -81 -74.5 -124.5t-144.5 -43.5h-106l31 146h67zM158.5 576q-28.5 25 -28.5 65q0 48 30.5 75t75.5 27q42 0 70 -24t28 -65q0 -47 -31 -75t-75 -28q-41 0 -69.5 25z" />
    <glyph glyph-name="k" unicode="k" horiz-adv-x="681" 
d="M718 480l-247 -198l154 -258l-5 -24h-174l-109 186l-134 -101l-19 -85h-174l155 696h174l-89 -401l264 208h209z" />
    <glyph glyph-name="l" unicode="l" horiz-adv-x="319" 
d="M77 35q-41 35 -41 94q0 18 5 41l114 526h174l-116 -515q-1 -4 -1 -11q0 -24 34 -24h41l-32 -146h-64q-73 0 -114 35z" />
    <glyph glyph-name="m" unicode="m" horiz-adv-x="1108" 
d="M996 461.5q62 -54.5 62 -149.5q0 -39 -8 -72l-53 -240h-174l57 249q4 16 4 34q0 39 -23.5 60t-67.5 21q-43 0 -81 -20t-63 -56q-2 -25 -7 -48l-53 -240h-173l56 249q4 16 4 35q0 39 -23 59.5t-67 20.5q-40 0 -76 -18t-61 -50l-66 -296h-174l112 503h154l-2 -40
q69 53 161 53q62 0 108.5 -21t73.5 -61q80 82 207 82q111 0 173 -54.5z" />
    <glyph glyph-name="n" unicode="n" horiz-adv-x="711" 
d="M599.5 461q59.5 -55 59.5 -150q0 -39 -8 -72l-53 -239h-174l57 248q4 16 4 33q0 40 -26 61.5t-74 21.5q-41 0 -76 -17t-59 -48l-66 -299h-174l113 503h153l-2 -39q70 52 161 52q105 0 164.5 -55z" />
    <glyph glyph-name="o" unicode="o" horiz-adv-x="685" 
d="M172.5 16q-66.5 29 -102 81t-35.5 121q0 22 5 50l2 11q19 113 101.5 175t214.5 62q89 0 155 -28.5t101 -80.5t35 -121q0 -23 -5 -53l-2 -11q-19 -112 -100 -173.5t-213 -61.5q-90 0 -156.5 29zM424.5 163.5q34.5 25.5 43.5 73.5l2 8q3 14 3 26q0 43 -32.5 68.5
t-88.5 25.5q-57 0 -92 -26t-44 -76l-2 -7q-2 -8 -2 -24q0 -43 32.5 -68.5t89.5 -25.5q56 0 90.5 25.5z" />
    <glyph glyph-name="p" unicode="p" horiz-adv-x="710" 
d="M559.5 487.5q55.5 -28.5 86 -79t30.5 -114.5q0 -26 -4 -49l-2 -11q-20 -116 -99 -181.5t-201 -65.5q-109 0 -175 58l-48 -215h-174l150 673h153l-2 -37q70 50 157 50q73 0 128.5 -28.5zM500 274q0 41 -31.5 65.5t-85.5 24.5q-38 0 -71 -11.5t-56 -32.5l-29 -132
q17 -23 51 -36t76 -13q59 0 95.5 27t45.5 78l3 11q2 14 2 19z" />
    <glyph glyph-name="q" unicode="q" horiz-adv-x="710" 
d="M699 503l-150 -673h-173l44 196q-63 -39 -142 -39q-73 0 -128.5 29t-86 80t-30.5 115q0 25 4 48l2 11q20 116 99 181t202 65q114 0 181 -64l16 51h162zM398 151.5q34 12.5 57 33.5l29 130q-17 23 -51.5 36t-76.5 13q-60 0 -96.5 -26.5t-45.5 -76.5l-2 -10q-2 -14 -2 -21
q0 -42 31 -66.5t85 -24.5q38 0 72 12.5z" />
    <glyph glyph-name="r" unicode="r" horiz-adv-x="473" 
d="M515 503l-32 -145h-109q-86 0 -129 -40l-71 -318h-174l112 503h154l-2 -40q65 40 145 40h106z" />
    <glyph glyph-name="s" unicode="s" horiz-adv-x="688" 
d="M99.5 27.5q-75.5 40.5 -75.5 113.5q0 8 2 24v4h161v-4q-4 -27 28.5 -39t108.5 -12q62 0 93 7.5t36 24.5l1 5q3 13 -9.5 19t-47.5 10l-130 15q-93 10 -140 43.5t-47 86.5q0 14 3 27l2 11q14 75 91.5 114t213.5 39q132 0 202.5 -39t70.5 -112q0 -8 -2 -26v-4h-160v4
q9 51 -128 51q-118 0 -126 -30l-1 -5q-6 -23 50 -29l133 -15q96 -10 145 -44t49 -88q0 -13 -3 -27l-2 -10q-14 -76 -91.5 -115.5t-213.5 -39.5q-138 0 -213.5 40.5z" />
    <glyph glyph-name="t" unicode="t" horiz-adv-x="520" 
d="M304 191q-2 -10 -2 -13q0 -32 42 -32h115l-31 -146h-132q-78 0 -124 39.5t-46 104.5q0 18 5 41l38 173h-158l32 145h120q24 0 35 9.5t16 32.5l21 91h169l-30 -133h196l-32 -145h-196z" />
    <glyph glyph-name="u" unicode="u" horiz-adv-x="711" 
d="M700 503l-112 -503h-153l2 40q-69 -51 -162 -53q-104 0 -163.5 55t-59.5 150q0 39 8 72l53 239h173l-56 -247q-4 -16 -4 -34q0 -40 26 -61.5t74 -21.5q40 0 75 17.5t59 48.5l67 298h173z" />
    <glyph glyph-name="v" unicode="v" horiz-adv-x="697" 
d="M741 503l-6 -23l-335 -480h-225l-122 480l5 23h173l80 -343l234 343h196z" />
    <glyph glyph-name="w" unicode="w" horiz-adv-x="1067" 
d="M1111 503l-6 -23l-295 -480h-226l-49 287l-175 -287h-225l-82 480l5 23h175l44 -335l206 335h181l58 -339l200 339h189z" />
    <glyph glyph-name="x" unicode="x" horiz-adv-x="656" 
d="M690 480l-249 -234l154 -222l-6 -24h-185l-92 148l-146 -148h-212l6 24l253 236l-147 220l4 23h184l88 -144l144 144h210z" />
    <glyph glyph-name="y" unicode="y" horiz-adv-x="697" 
d="M741 503l-6 -23l-376 -535q-43 -61 -93 -88t-133 -27h-155l31 146h136q30 0 49 13l-141 491l5 23h175l88 -333l224 333h196z" />
    <glyph glyph-name="z" unicode="z" horiz-adv-x="642" 
d="M607 359l-334 -216h286l-32 -143h-526l32 144l333 216h-284l32 143h525z" />
    <glyph glyph-name="braceleft" unicode="{" horiz-adv-x="544" 
d="M332 370q-28 -28 -79 -35q73 -20 73 -92q0 -16 -5 -39l-19 -83q-1 -4 -1 -10q0 -15 11 -23.5t31 -8.5h125l-32 -149h-134q-80 0 -128 41.5t-48 107.5q0 19 4 36l23 108q1 4 1 11q0 16 -10.5 24.5t-30.5 8.5h-68l33 152h70q49 0 58 41l22 101q18 82 72 123.5t140 41.5h173
l-32 -148h-127q-48 0 -59 -42l-22 -86q-13 -52 -41 -80z" />
    <glyph glyph-name="bar" unicode="|" horiz-adv-x="308" 
d="M336 726l-178 -796h-152l177 796h153z" />
    <glyph glyph-name="braceright" unicode="}" horiz-adv-x="544" 
d="M532 389l-33 -152h-70q-49 0 -58 -41l-22 -101q-18 -82 -72 -123.5t-140 -41.5h-173l32 148h127q49 0 59 42l22 86q13 52 41 80t79 35q-73 20 -73 92q0 16 5 39l19 83q1 4 1 10q0 15 -11 23.5t-31 8.5h-125l32 149h134q80 0 128 -41.5t48 -107.5q0 -19 -4 -36l-23 -108
q-1 -4 -1 -11q0 -16 10.5 -24.5t30.5 -8.5h68z" />
    <glyph glyph-name="asciitilde" unicode="~" horiz-adv-x="816" 
d="M486 226.5q-34 6.5 -83 19.5q-46 12 -79 18.5t-69 6.5q-75 0 -159 -39l37 162q77 37 153 37q35 0 66.5 -6.5t80.5 -19.5q51 -14 85 -20.5t72 -6.5q83 0 162 36l-37 -161q-73 -33 -157 -33q-38 0 -72 6.5z" />
    <glyph glyph-name="uni00A0" unicode="&#xa0;" horiz-adv-x="400" 
 />
    <glyph glyph-name="exclamdown" unicode="&#xa1;" horiz-adv-x="352" 
d="M138.5 346q-27.5 24 -27.5 64q0 49 29.5 77.5t74.5 28.5q41 0 68.5 -24t27.5 -65q0 -48 -30 -76.5t-74 -28.5q-41 0 -68.5 24zM264 275l-89 -445h-181l108 445h162z" />
    <glyph glyph-name="cent" unicode="&#xa2;" horiz-adv-x="816" 
d="M713.5 515q56.5 -51 56.5 -123q0 -20 -2 -30l-1 -4h-178l1 4l1 9q0 32 -39 50.5t-106 18.5q-152 0 -170 -97l-4 -18q-2 -8 -2 -22q0 -42 37 -64t109 -22q69 0 110 18.5t48 53.5l1 4h178l-1 -4q-17 -97 -93.5 -154.5t-201.5 -68.5l-17 -76h-164l19 85q-95 20 -148 76
t-53 135q0 27 6 55l4 18q21 101 96 160t199 70l17 77h161l-19 -82q99 -18 155.5 -69z" />
    <glyph glyph-name="sterling" unicode="&#xa3;" horiz-adv-x="816" 
d="M744 615q76 -54 76 -150q0 -26 -6 -53l-1 -7h-172l1 7q3 14 3 27q0 41 -31 62t-92 21q-66 0 -102.5 -22.5t-47.5 -69.5l-15 -63h248l-30 -137h-249l-4 -16q-10 -47 -43 -77l471 1l-29 -138h-720l29 137h37q30 0 46 13.5t23 42.5l9 37h-93l30 137h95l18 75
q25 112 110 169.5t227 57.5q136 0 212 -54z" />
    <glyph glyph-name="currency" unicode="&#xa4;" horiz-adv-x="816" 
d="M645 209l87 -96l-115 -99l-93 107q-54 -16 -115 -16q-85 0 -145 29l-124 -108l-101 108l127 107q-7 22 -7 51q0 24 6 49l2 9q9 51 36 88l-87 97l115 98l93 -108q53 17 115 17q84 0 144 -29l125 109l101 -109l-128 -108q7 -22 7 -52q0 -28 -5 -49l-2 -8q-10 -50 -36 -87z
M325 308q0 -29 23.5 -44t68.5 -15q90 0 102 63l2 8q2 12 2 18q0 29 -23.5 44.5t-68.5 15.5q-90 0 -103 -64l-1 -8q-2 -12 -2 -18z" />
    <glyph glyph-name="yen" unicode="&#xa5;" horiz-adv-x="816" 
d="M860 629l-259 -268h150l-26 -120h-229l-12 -53h228l-25 -121h-230l-15 -67h-180l15 67h-228l26 121h229l12 53h-228l26 120h164l-154 268l6 27h170l136 -240l228 240h202z" />
    <glyph glyph-name="brokenbar" unicode="&#xa6;" horiz-adv-x="308" 
d="M336 726l-60 -267h-152l59 267h153zM218 197l-60 -267h-152l60 267h152z" />
    <glyph glyph-name="section" unicode="&#xa7;" horiz-adv-x="690" 
d="M617 629.5q70 -39.5 70 -108.5q0 -16 -2 -25l-1 -5h-160l1 5q9 51 -120 51q-54 0 -81.5 -8t-29.5 -22l-1 -5q-2 -11 8 -17t36 -10l172 -23q76 -10 116 -41.5t40 -79.5q0 -17 -4 -32l-3 -13q-11 -55 -73 -85q10 -22 10 -44q0 -6 -2 -20l-3 -14q-12 -68 -88.5 -107
t-200.5 -39t-194.5 39t-70.5 108q0 13 3 26l1 5h160l-1 -5q-9 -51 120 -51q54 0 81.5 8.5t29.5 22.5l1 4q2 11 -7.5 17t-36.5 10l-172 23q-76 10 -116 41.5t-40 79.5q0 17 4 32l3 13q11 55 73 85q-9 21 -9 42q0 8 2 22l2 14q12 69 88 107.5t201 38.5q124 0 194 -39.5z
M246 372l-14 3q-10 -9 -12 -20l-1 -6q-8 -30 47 -37l208 -28l17 -3q12 9 13 20l1 6q7 29 -47 37z" />
    <glyph glyph-name="dieresis" unicode="&#xa8;" horiz-adv-x="600" 
d="M188.5 579q-26.5 23 -26.5 61q0 44 28.5 70t70.5 26q39 0 65.5 -22t26.5 -60q0 -44 -29 -71t-70 -27q-39 0 -65.5 23zM449.5 579q-26.5 23 -26.5 61q0 44 28.5 70t70.5 26q39 0 65 -22t26 -58q0 -46 -28.5 -73t-69.5 -27q-39 0 -65.5 23z" />
    <glyph glyph-name="copyright" unicode="&#xa9;" horiz-adv-x="897" 
d="M240.5 24.5q-87.5 37.5 -135.5 104.5t-48 153q0 34 7 66l3 13q17 95 74.5 164.5t148 106.5t204.5 37t200 -37t132.5 -104t46.5 -153q0 -36 -7 -68l-3 -13q-28 -146 -137.5 -226.5t-281.5 -80.5q-116 0 -203.5 37.5zM648 142q81 58 100 161l3 14q6 27 6 52q0 61 -32 107
t-91.5 71t-139.5 25q-82 0 -148.5 -26.5t-109.5 -76t-55 -115.5l-3 -15q-5 -28 -5 -49q0 -61 33 -107.5t94.5 -72.5t143.5 -26q123 0 204 58zM338.5 159.5q-48.5 20.5 -74.5 57.5t-26 84q0 12 4 36l3 13q15 77 81 122.5t163 45.5q61 0 109 -18.5t74.5 -50.5t26.5 -73
q0 -6 -2 -22v-4h-130l1 4q5 24 -18.5 38t-67.5 14q-95 0 -110 -67l-3 -14q-2 -10 -2 -14q0 -27 24 -43.5t65 -16.5q42 0 69 14t32 37v3h130l-1 -4q-11 -74 -75 -118t-160 -44q-64 0 -112.5 20.5z" />
    <glyph glyph-name="ordfeminine" unicode="&#xaa;" horiz-adv-x="606" 
d="M629 369l-27 -125h-66q-37 0 -64.5 12t-42.5 33q-75 -55 -190 -55q-85 0 -132.5 30t-47.5 83q0 113 168 130l213 21q-1 26 -24.5 38t-72.5 12q-45 0 -71.5 -11.5t-29.5 -32.5l-1 -4h-148l1 4q10 73 80 116t180 43q107 0 168 -42.5t61 -114.5q0 -19 -4 -36l-15 -77
q-4 -24 28 -24h37zM217.5 339q14.5 -6 45.5 -6q46 0 88 14t67 36l6 26l-170 -18q-51 -4 -51 -32q0 -14 14.5 -20z" />
    <glyph glyph-name="guillemotleft" unicode="&#xab;" horiz-adv-x="809" 
d="M260 273l147 -197l-5 -24h-177l-164 224l6 25l225 202h202l-6 -23zM561 262l142 -186l-5 -24h-177l-159 210l5 25l243 216h201l-5 -23z" />
    <glyph glyph-name="logicalnot" unicode="&#xac;" horiz-adv-x="816" 
d="M97 249l35 158h616l-77 -345h-154l42 187h-462z" />
    <glyph glyph-name="uni00AD" unicode="&#xad;" horiz-adv-x="442" 
d="M415 354l-34 -152h-342l34 152h342z" />
    <glyph glyph-name="registered" unicode="&#xae;" horiz-adv-x="581" 
d="M486.5 685q53.5 -24 82.5 -67t29 -98q0 -19 -5 -46l-2 -8q-20 -95 -89.5 -148t-175.5 -53q-71 0 -125 23.5t-83.5 66t-29.5 97.5q0 27 5 47l2 8q19 94 90.5 148t177.5 54q70 0 123.5 -24zM509 521q0 51 -39.5 80.5t-110.5 29.5q-74 0 -117 -32t-58 -97l-3 -13
q-5 -23 -5 -39q0 -50 39 -78.5t110 -28.5q75 0 117.5 31.5t59.5 97.5l3 13q4 17 4 36zM452 570q20 -17 20 -46q0 -10 -1 -15l-1 -4q-8 -45 -50 -59l23 -51l-1 -7h-86l-22 52h-25l-11 -52h-89l45 199h143q35 0 55 -17zM320 491h39q21 0 22 15l1 3v4q0 13 -16 13h-38z" />
    <glyph glyph-name="macron" unicode="&#xaf;" horiz-adv-x="600" 
d="M627 716l-31 -137h-446l30 137h447z" />
    <glyph glyph-name="degree" unicode="&#xb0;" horiz-adv-x="446" 
d="M134 364q-51 41 -51 106q0 16 5 38l3 15q14 68 66.5 106t131.5 38q82 0 132.5 -41t50.5 -106q0 -17 -5 -39l-3 -14q-14 -68 -65.5 -106t-130.5 -38q-83 0 -134 41zM317 451q18 13 22 35l2 9q1 4 1 11q0 21 -16.5 34.5t-42.5 13.5q-27 0 -44 -13t-22 -36l-2 -9
q-1 -4 -1 -11q0 -20 16.5 -33.5t42.5 -13.5t44 13z" />
    <glyph glyph-name="plusminus" unicode="&#xb1;" horiz-adv-x="816" 
d="M759 493l-32 -144h-216l-31 -139h-163l31 139h-215l32 144h215l32 141h162l-31 -141h216zM88 152h594l-33 -150h-594z" />
    <glyph glyph-name="uni00B2" unicode="&#xb2;" 
d="M371 562q38 15 51.5 24.5t15.5 21.5v4q2 16 -17 25t-57 9q-40 0 -65 -12.5t-31 -35.5l-2 -11h-147l3 11q38 168 250 168q65 0 114 -17t76 -47t27 -69q0 -6 -2 -20l-2 -9q-6 -40 -36 -67t-99 -53l-85 -32h193l-24 -109h-467l24 107z" />
    <glyph glyph-name="uni00B3" unicode="&#xb3;" 
d="M140.5 367q-60.5 32 -60.5 94q0 8 2 24v4h146l-1 -4q-3 -16 20.5 -24t74.5 -8q50 0 75.5 7t27.5 22l1 4q2 14 -18.5 19.5t-75.5 5.5h-96l18 83l115 48h-243l26 115h470l-25 -115l-144 -55l13 -3q51 -11 77.5 -36.5t26.5 -61.5q0 -11 -3 -25l-1 -7q-12 -61 -73.5 -90.5
t-174.5 -29.5q-117 1 -177.5 33z" />
    <glyph glyph-name="acute" unicode="&#xb4;" horiz-adv-x="600" 
d="M635 750l-32 -139l-461 -64l32 140z" />
    <glyph glyph-name="uni00B5" unicode="&#xb5;" horiz-adv-x="740" 
d="M709 146l-31 -146h-82q-41 0 -72 13t-49 38q-27 -30 -66.5 -47t-84.5 -17q-40 0 -74 13t-58 37l-46 -207h-174l150 673h174l-56 -248q-3 -15 -3 -29q0 -41 28 -64t76 -23q41 0 71 16t53 47l69 301h174l-72 -322q-2 -10 -2 -13q0 -22 32 -22h43z" />
    <glyph glyph-name="paragraph" unicode="&#xb6;" horiz-adv-x="967" 
d="M606 0h-171l48 216h-186q-104 0 -162.5 48t-58.5 130q0 28 5 50l2 10q19 100 93 151t197 51h379zM988 656l-146 -656h-170l146 656h170z" />
    <glyph glyph-name="periodcentered" unicode="&#xb7;" horiz-adv-x="334" 
d="M99 202q-27 25 -27 65q0 46 30 75t75 29q42 0 69 -24.5t27 -64.5q0 -46 -29.5 -75.5t-74.5 -29.5q-43 0 -70 25z" />
    <glyph glyph-name="cedilla" unicode="&#xb8;" horiz-adv-x="600" 
d="M362 0l-87 -170h-184l119 235z" />
    <glyph glyph-name="uni00B9" unicode="&#xb9;" 
d="M287 464l32 143q-23 -5 -47 -5h-119l27 123h115q29 0 41 6.5t16 25.5h152l-66 -293h143l-27 -120h-458l26 120h165z" />
    <glyph glyph-name="ordmasculine" unicode="&#xba;" horiz-adv-x="575" 
d="M187 257.5q-57 23.5 -87.5 66.5t-30.5 99q0 13 4 39l2 10q15 92 84.5 142t183.5 50q76 0 132.5 -23.5t87 -66.5t30.5 -100q0 -21 -4 -40l-1 -9q-15 -92 -84.5 -141.5t-183.5 -49.5q-76 0 -133 23.5zM405.5 379.5q29.5 19.5 36.5 56.5l1 6q2 14 2 20q0 35 -28.5 55
t-80.5 20q-50 0 -79.5 -20t-36.5 -57l-1 -6q-2 -14 -2 -19q0 -35 29 -55t81 -20q49 0 78.5 19.5z" />
    <glyph glyph-name="guillemotright" unicode="&#xbb;" horiz-adv-x="809" 
d="M261 293l-141 186l5 24h176l160 -210l-6 -25l-242 -216h-202l5 24zM562 283l-147 196l6 24h176l165 -224l-6 -25l-226 -202h-201l5 24z" />
    <glyph glyph-name="onequarter" unicode="&#xbc;" horiz-adv-x="1408" 
d="M266 364l32 143q-23 -5 -47 -5h-119l27 123h115q29 0 41 6.5t16 25.5h152l-66 -293h143l-27 -120h-458l26 120h165zM1015 656h176l-6 -27l-689 -629h-176l5 24zM834 66l27 121q90 108 138 227h157l-4 -22q-57 -123 -119 -205h118l35 158h153l-35 -158h72l-27 -121h-73
l-14 -66h-153l15 66h-290z" />
    <glyph glyph-name="onehalf" unicode="&#xbd;" horiz-adv-x="1418" 
d="M266 364l32 143q-23 -5 -47 -5h-119l27 123h115q29 0 41 6.5t16 25.5h152l-66 -293h143l-27 -120h-458l26 120h165zM1015 656h176l-6 -27l-689 -629h-176l5 24zM1162 219q38 15 51.5 24.5t15.5 21.5v4q2 16 -17 25t-57 9q-40 0 -65 -12.5t-31 -35.5l-2 -11h-147l3 11
q38 168 250 168q65 0 114 -17t76 -47t27 -69q0 -6 -2 -20l-2 -9q-6 -40 -36 -67t-99 -53l-85 -32h193l-24 -109h-467l24 107z" />
    <glyph glyph-name="threequarters" unicode="&#xbe;" horiz-adv-x="1359" 
d="M119.5 267q-60.5 32 -60.5 94q0 8 2 24v4h146l-1 -4q-3 -16 20.5 -24t74.5 -8q50 0 75.5 7t27.5 22l1 4q2 14 -18.5 19.5t-75.5 5.5h-96l18 83l115 48h-243l26 115h470l-25 -115l-144 -55l13 -3q51 -11 77.5 -36.5t26.5 -61.5q0 -11 -3 -25l-1 -7q-12 -61 -73.5 -90.5
t-174.5 -29.5q-117 1 -177.5 33zM966 656h176l-6 -27l-689 -629h-176l5 24zM785 66l27 121q90 108 138 227h157l-4 -22q-57 -123 -119 -205h118l35 158h153l-35 -158h72l-27 -121h-73l-14 -66h-153l15 66h-290z" />
    <glyph glyph-name="questiondown" unicode="&#xbf;" horiz-adv-x="632" 
d="M276 346.5q-27 24.5 -27 64.5q0 47 29.5 76t74.5 29q43 0 70 -25.5t27 -65.5q0 -45 -30 -74t-75 -29q-42 0 -69 24.5zM104.5 -160q-58.5 23 -91.5 63.5t-33 91.5q0 11 4 33l3 15q8 44 42.5 79.5t97.5 64.5q49 22 70.5 33.5t29.5 20.5t11 23l2 11h162l-2 -11
q-13 -55 -42.5 -86.5t-97.5 -62.5q-55 -26 -77.5 -43.5t-26.5 -37.5l-2 -8q-1 -3 -1 -10q0 -25 26 -40t71 -15q55 0 90.5 20.5t43.5 55.5l4 19h167l-4 -19q-23 -107 -102.5 -163.5t-210.5 -56.5q-75 0 -133.5 23z" />
    <glyph glyph-name="Agrave" unicode="&#xc0;" horiz-adv-x="770" 
d="M722 27l-6 -27h-168l-24 123h-303l-79 -123h-187l6 27l421 629h199zM496 268l-43 217l-139 -217h182zM310 900l432 -63l-28 -132l-432 63z" />
    <glyph glyph-name="Aacute" unicode="&#xc1;" horiz-adv-x="770" 
d="M722 27l-6 -27h-168l-24 123h-303l-79 -123h-187l6 27l421 629h199zM496 268l-43 217l-139 -217h182zM759 903l-32 -139l-461 -64l32 140z" />
    <glyph glyph-name="Acircumflex" unicode="&#xc2;" horiz-adv-x="770" 
d="M722 27l-6 -27h-168l-24 123h-303l-79 -123h-187l6 27l421 629h199zM496 268l-43 217l-139 -217h182zM528 901l215 -62l-29 -135l-204 58l-245 -62l33 143z" />
    <glyph glyph-name="Atilde" unicode="&#xc3;" horiz-adv-x="770" 
d="M722 27l-6 -27h-168l-24 123h-303l-79 -123h-187l6 27l421 629h199zM496 268l-43 217l-139 -217h182zM539.5 726q-34.5 7 -39.5 8q-66 15 -109 15q-63 0 -123 -28l30 134q51 27 110 27q25 0 48 -4t57 -12q36 -8 61 -12t52 -4q65 0 123 26l-31 -134q-50 -23 -109 -23
q-35 0 -69.5 7z" />
    <glyph glyph-name="Adieresis" unicode="&#xc4;" horiz-adv-x="770" 
d="M722 27l-6 -27h-168l-24 123h-303l-79 -123h-187l6 27l421 629h199zM496 268l-43 217l-139 -217h182zM312.5 732q-26.5 23 -26.5 61q0 44 28.5 70t70.5 26q39 0 65.5 -22t26.5 -60q0 -44 -29 -71t-70 -27q-39 0 -65.5 23zM573.5 732q-26.5 23 -26.5 61q0 44 28.5 70
t70.5 26q39 0 65 -22t26 -58q0 -46 -28.5 -73t-69.5 -27q-39 0 -65.5 23z" />
    <glyph glyph-name="Aring" unicode="&#xc5;" horiz-adv-x="770" 
d="M722 27l-6 -27h-168l-24 123h-303l-79 -123h-187l6 27l421 629h199zM496 268l-43 217l-139 -217h182zM360 650q-45 35 -45 99q0 67 48.5 105.5t131.5 38.5q80 0 126 -36t46 -100q0 -67 -48.5 -104.5t-132.5 -37.5q-81 0 -126 35zM529.5 722q15.5 13 15.5 35
q0 20 -13.5 31t-37.5 11q-27 0 -42.5 -13t-15.5 -36q0 -20 13.5 -30.5t38.5 -10.5q26 0 41.5 13z" />
    <glyph glyph-name="AE" unicode="&#xc6;" horiz-adv-x="1072" 
d="M658 507v-105h377l-31 -146h-347l-1 -107h343l-33 -149h-487l2 123h-264l-80 -123h-182l6 27l421 629h730l-32 -149h-422zM486 507h-21l-155 -239h173z" />
    <glyph glyph-name="Ccedilla" unicode="&#xc7;" horiz-adv-x="874" 
d="M235 23.5q-85 36.5 -131 102t-46 151.5q0 33 8 73l2 8q29 147 138.5 229t278.5 82q107 0 192.5 -34.5t133.5 -94.5t48 -134q0 -17 -3 -35l-1 -7h-181l1 7q2 12 2 18q0 53 -53.5 86t-143.5 33q-99 0 -158.5 -41t-76.5 -121l-3 -13q-5 -20 -5 -45q0 -67 52 -103.5
t150 -36.5q91 0 148 30t68 82l1 8h185l-2 -8q-27 -128 -134.5 -200.5t-270.5 -72.5q-114 0 -199 36.5zM507 0l-87 -170h-184l119 235z" />
    <glyph glyph-name="Egrave" unicode="&#xc8;" horiz-adv-x="723" 
d="M757 656l-33 -149h-417l-25 -105h398l-32 -147h-398l-25 -106h418l-32 -149h-598l146 656h598zM287 900l432 -63l-28 -132l-432 63z" />
    <glyph glyph-name="Eacute" unicode="&#xc9;" horiz-adv-x="723" 
d="M757 656l-33 -149h-417l-25 -105h398l-32 -147h-398l-25 -106h418l-32 -149h-598l146 656h598zM736 903l-32 -139l-461 -64l32 140z" />
    <glyph glyph-name="Ecircumflex" unicode="&#xca;" horiz-adv-x="723" 
d="M757 656l-33 -149h-417l-25 -105h398l-32 -147h-398l-25 -106h418l-32 -149h-598l146 656h598zM505 901l215 -62l-29 -135l-204 58l-245 -62l33 143z" />
    <glyph glyph-name="Edieresis" unicode="&#xcb;" horiz-adv-x="723" 
d="M757 656l-33 -149h-417l-25 -105h398l-32 -147h-398l-25 -106h418l-32 -149h-598l146 656h598zM289.5 732q-26.5 23 -26.5 61q0 44 28.5 70t70.5 26q39 0 65.5 -22t26.5 -60q0 -44 -29 -71t-70 -27q-39 0 -65.5 23zM550.5 732q-26.5 23 -26.5 61q0 44 28.5 70t70.5 26
q39 0 65 -22t26 -58q0 -46 -28.5 -73t-69.5 -27q-39 0 -65.5 23z" />
    <glyph glyph-name="Igrave" unicode="&#xcc;" horiz-adv-x="299" 
d="M329 656l-146 -656h-180l146 656h180zM139 891l295 -45l-28 -132l-295 45z" />
    <glyph glyph-name="Iacute" unicode="&#xcd;" horiz-adv-x="299" 
d="M329 656l-146 -656h-180l146 656h180zM447 894l-33 -140l-316 -44l32 139z" />
    <glyph glyph-name="Icircumflex" unicode="&#xce;" horiz-adv-x="299" 
d="M329 656l-146 -656h-180l146 656h180zM286 893l152 -33l-30 -138l-137 30l-170 -34l33 146z" />
    <glyph glyph-name="Idieresis" unicode="&#xcf;" horiz-adv-x="299" 
d="M329 656l-146 -656h-180l146 656h180zM72.5 732q-26.5 23 -26.5 61q0 44 28.5 70t70.5 26q39 0 65.5 -22t26.5 -60q0 -44 -29 -71t-70 -27q-39 0 -65.5 23zM333.5 732q-26.5 23 -26.5 61q0 44 28.5 70t70.5 26q39 0 65 -22t26 -58q0 -46 -28.5 -73t-69.5 -27
q-39 0 -65.5 23z" />
    <glyph glyph-name="Eth" unicode="&#xd0;" horiz-adv-x="859" 
d="M752.5 587.5q85.5 -68.5 85.5 -193.5q0 -35 -8 -80l-1 -9q-20 -107 -70 -174t-136 -99t-216 -32h-361l57 254h-108l32 149h109l56 253h315q160 0 245.5 -68.5zM659 376q0 62 -43 94t-128 32h-149l-23 -99h151l-32 -149h-153l-23 -100h166q103 0 156 38.5t70 124.5l3 14
q5 27 5 45z" />
    <glyph glyph-name="Ntilde" unicode="&#xd1;" horiz-adv-x="819" 
d="M840 656l-146 -656h-165l-252 421l-94 -421h-170l146 656h166l251 -420l93 420h171zM563.5 726q-34.5 7 -39.5 8q-66 15 -109 15q-63 0 -123 -28l30 134q51 27 110 27q25 0 48 -4t57 -12q36 -8 61 -12t52 -4q65 0 123 26l-31 -134q-50 -23 -109 -23q-35 0 -69.5 7z" />
    <glyph glyph-name="Ograve" unicode="&#xd2;" horiz-adv-x="877" 
d="M232 24q-84 37 -129.5 103t-45.5 152q0 34 7 68l2 6q31 150 140 233t278 83q111 0 195 -36.5t129.5 -102.5t45.5 -151q0 -32 -8 -70l-1 -7q-31 -150 -139.5 -232.5t-278.5 -82.5q-111 0 -195 37zM589 189.5q59 41.5 76 121.5l3 11q5 19 5 44q0 66 -52 104t-145 38
q-95 0 -153.5 -41.5t-77.5 -122.5l-3 -12q-6 -22 -6 -44q0 -65 52 -102.5t145 -37.5q97 0 156 41.5zM336 900l432 -63l-28 -132l-432 63z" />
    <glyph glyph-name="Oacute" unicode="&#xd3;" horiz-adv-x="877" 
d="M232 24q-84 37 -129.5 103t-45.5 152q0 34 7 68l2 6q31 150 140 233t278 83q111 0 195 -36.5t129.5 -102.5t45.5 -151q0 -32 -8 -70l-1 -7q-31 -150 -139.5 -232.5t-278.5 -82.5q-111 0 -195 37zM589 189.5q59 41.5 76 121.5l3 11q5 19 5 44q0 66 -52 104t-145 38
q-95 0 -153.5 -41.5t-77.5 -122.5l-3 -12q-6 -22 -6 -44q0 -65 52 -102.5t145 -37.5q97 0 156 41.5zM785 903l-32 -139l-461 -64l32 140z" />
    <glyph glyph-name="Ocircumflex" unicode="&#xd4;" horiz-adv-x="877" 
d="M232 24q-84 37 -129.5 103t-45.5 152q0 34 7 68l2 6q31 150 140 233t278 83q111 0 195 -36.5t129.5 -102.5t45.5 -151q0 -32 -8 -70l-1 -7q-31 -150 -139.5 -232.5t-278.5 -82.5q-111 0 -195 37zM589 189.5q59 41.5 76 121.5l3 11q5 19 5 44q0 66 -52 104t-145 38
q-95 0 -153.5 -41.5t-77.5 -122.5l-3 -12q-6 -22 -6 -44q0 -65 52 -102.5t145 -37.5q97 0 156 41.5zM554 901l215 -62l-29 -135l-204 58l-245 -62l33 143z" />
    <glyph glyph-name="Otilde" unicode="&#xd5;" horiz-adv-x="877" 
d="M232 24q-84 37 -129.5 103t-45.5 152q0 34 7 68l2 6q31 150 140 233t278 83q111 0 195 -36.5t129.5 -102.5t45.5 -151q0 -32 -8 -70l-1 -7q-31 -150 -139.5 -232.5t-278.5 -82.5q-111 0 -195 37zM589 189.5q59 41.5 76 121.5l3 11q5 19 5 44q0 66 -52 104t-145 38
q-95 0 -153.5 -41.5t-77.5 -122.5l-3 -12q-6 -22 -6 -44q0 -65 52 -102.5t145 -37.5q97 0 156 41.5zM569.5 726q-34.5 7 -39.5 8q-66 15 -109 15q-63 0 -123 -28l30 134q51 27 110 27q25 0 48 -4t57 -12q36 -8 61 -12t52 -4q65 0 123 26l-31 -134q-50 -23 -109 -23
q-35 0 -69.5 7z" />
    <glyph glyph-name="Odieresis" unicode="&#xd6;" horiz-adv-x="877" 
d="M232 24q-84 37 -129.5 103t-45.5 152q0 34 7 68l2 6q31 150 140 233t278 83q111 0 195 -36.5t129.5 -102.5t45.5 -151q0 -32 -8 -70l-1 -7q-31 -150 -139.5 -232.5t-278.5 -82.5q-111 0 -195 37zM589 189.5q59 41.5 76 121.5l3 11q5 19 5 44q0 66 -52 104t-145 38
q-95 0 -153.5 -41.5t-77.5 -122.5l-3 -12q-6 -22 -6 -44q0 -65 52 -102.5t145 -37.5q97 0 156 41.5zM337.5 732q-26.5 23 -26.5 61q0 44 28.5 70t70.5 26q39 0 65.5 -22t26.5 -60q0 -44 -29 -71t-70 -27q-39 0 -65.5 23zM598.5 732q-26.5 23 -26.5 61q0 44 28.5 70t70.5 26
q39 0 65 -22t26 -58q0 -46 -28.5 -73t-69.5 -27q-39 0 -65.5 23z" />
    <glyph glyph-name="multiply" unicode="&#xd7;" horiz-adv-x="816" 
d="M535 318l139 -180l-126 -98l-137 177l-217 -178l-95 123l217 178l-139 180l126 98l137 -177l217 177l94 -123z" />
    <glyph glyph-name="Oslash" unicode="&#xd8;" horiz-adv-x="877" 
d="M866 694l-99 -116q42 -39 64 -89.5t22 -109.5q0 -36 -7 -70l-1 -7q-30 -150 -138.5 -232.5t-282.5 -82.5q-73 0 -136 17l-58 -69h-190l6 27l98 117q-42 39 -64.5 89.5t-22.5 109.5q0 34 7 68l2 7q30 150 139.5 233t283.5 83q72 0 135 -17l58 69h190zM234 285
q0 -47 24 -80l260 313q-24 2 -39 2q-196 0 -236 -175l-3 -13q-6 -25 -6 -47zM676 368q0 48 -25 83l-258 -313q24 -2 38 -2q99 0 159 44.5t78 129.5l3 13q5 27 5 45z" />
    <glyph glyph-name="Ugrave" unicode="&#xd9;" horiz-adv-x="793" 
d="M215 19.5q-69 32.5 -106.5 91.5t-37.5 136q0 39 8 74l72 335h180l-79 -353q-5 -25 -5 -41q0 -54 35.5 -84t101.5 -30q146 0 179 147l82 361h181l-91 -378q-34 -142 -124 -216.5t-233 -74.5q-94 0 -163 32.5zM317 900l432 -63l-28 -132l-432 63z" />
    <glyph glyph-name="Uacute" unicode="&#xda;" horiz-adv-x="793" 
d="M215 19.5q-69 32.5 -106.5 91.5t-37.5 136q0 39 8 74l72 335h180l-79 -353q-5 -25 -5 -41q0 -54 35.5 -84t101.5 -30q146 0 179 147l82 361h181l-91 -378q-34 -142 -124 -216.5t-233 -74.5q-94 0 -163 32.5zM766 903l-32 -139l-461 -64l32 140z" />
    <glyph glyph-name="Ucircumflex" unicode="&#xdb;" horiz-adv-x="793" 
d="M215 19.5q-69 32.5 -106.5 91.5t-37.5 136q0 39 8 74l72 335h180l-79 -353q-5 -25 -5 -41q0 -54 35.5 -84t101.5 -30q146 0 179 147l82 361h181l-91 -378q-34 -142 -124 -216.5t-233 -74.5q-94 0 -163 32.5zM535 901l215 -62l-29 -135l-204 58l-245 -62l33 143z" />
    <glyph glyph-name="Udieresis" unicode="&#xdc;" horiz-adv-x="793" 
d="M215 19.5q-69 32.5 -106.5 91.5t-37.5 136q0 39 8 74l72 335h180l-79 -353q-5 -25 -5 -41q0 -54 35.5 -84t101.5 -30q146 0 179 147l82 361h181l-91 -378q-34 -142 -124 -216.5t-233 -74.5q-94 0 -163 32.5zM319.5 732q-26.5 23 -26.5 61q0 44 28.5 70t70.5 26
q39 0 65.5 -22t26.5 -60q0 -44 -29 -71t-70 -27q-39 0 -65.5 23zM580.5 732q-26.5 23 -26.5 61q0 44 28.5 70t70.5 26q39 0 65 -22t26 -58q0 -46 -28.5 -73t-69.5 -27q-39 0 -65.5 23z" />
    <glyph glyph-name="Yacute" unicode="&#xdd;" horiz-adv-x="726" 
d="M809 629l-364 -378l-56 -251h-180l59 264l-199 365l6 27h172l134 -255l238 255h195zM723 903l-32 -139l-461 -64l32 140z" />
    <glyph glyph-name="Thorn" unicode="&#xde;" horiz-adv-x="787" 
d="M659.5 525.5q51.5 -23.5 79.5 -65.5t28 -96q0 -20 -5 -45l-2 -10q-43 -201 -288 -201h-255l-24 -108h-180l146 656h180l-24 -107h225q68 0 119.5 -23.5zM584 348q0 24 -18 37.5t-51 13.5h-233l-32 -141h236q80 0 94 62l2 11q2 12 2 17z" />
    <glyph glyph-name="germandbls" unicode="&#xdf;" horiz-adv-x="723" 
d="M582.5 684q60.5 -25 94 -69t33.5 -100q0 -21 -4 -40l-4 -17q-15 -77 -82 -118q59 -43 59 -115q0 -19 -4 -36l-2 -10q-17 -86 -82 -132.5t-171 -46.5h-131l31 146h91q41 0 66 15t31 44l1 7q1 4 1 12q0 21 -18 32.5t-54 11.5h-89l29 135h59q83 0 95 65l2 10q2 10 2 14
q0 30 -28.5 48t-77.5 18q-122 0 -143 -97l-102 -461h-175l107 471q26 115 109.5 176.5t215.5 61.5q80 0 140.5 -25z" />
    <glyph glyph-name="agrave" unicode="&#xe0;" horiz-adv-x="716" 
d="M684 146l-31 -146h-81q-40 0 -71.5 13.5t-49.5 38.5q-88 -65 -222 -65q-95 0 -148.5 36t-53.5 98q0 15 5 37q12 58 60.5 88.5t134.5 38.5l239 23q2 33 -25.5 50.5t-79.5 17.5q-51 0 -82.5 -15.5t-36.5 -41.5v-3h-176l1 3q16 92 96.5 144.5t207.5 52.5q125 0 197 -50.5
t72 -136.5q0 -27 -5 -47l-22 -105q-1 -3 -1 -9q0 -22 30 -22h42zM261 109q50 0 99.5 17t78.5 43l7 35l-192 -19q-50 -4 -56 -38q-6 -38 63 -38zM201 747l432 -63l-28 -132l-432 63z" />
    <glyph glyph-name="aacute" unicode="&#xe1;" horiz-adv-x="716" 
d="M684 146l-31 -146h-81q-40 0 -71.5 13.5t-49.5 38.5q-88 -65 -222 -65q-95 0 -148.5 36t-53.5 98q0 15 5 37q12 58 60.5 88.5t134.5 38.5l239 23q2 33 -25.5 50.5t-79.5 17.5q-51 0 -82.5 -15.5t-36.5 -41.5v-3h-176l1 3q16 92 96.5 144.5t207.5 52.5q125 0 197 -50.5
t72 -136.5q0 -27 -5 -47l-22 -105q-1 -3 -1 -9q0 -22 30 -22h42zM261 109q50 0 99.5 17t78.5 43l7 35l-192 -19q-50 -4 -56 -38q-6 -38 63 -38zM650 750l-32 -139l-461 -64l32 140z" />
    <glyph glyph-name="acircumflex" unicode="&#xe2;" horiz-adv-x="716" 
d="M684 146l-31 -146h-81q-40 0 -71.5 13.5t-49.5 38.5q-88 -65 -222 -65q-95 0 -148.5 36t-53.5 98q0 15 5 37q12 58 60.5 88.5t134.5 38.5l239 23q2 33 -25.5 50.5t-79.5 17.5q-51 0 -82.5 -15.5t-36.5 -41.5v-3h-176l1 3q16 92 96.5 144.5t207.5 52.5q125 0 197 -50.5
t72 -136.5q0 -27 -5 -47l-22 -105q-1 -3 -1 -9q0 -22 30 -22h42zM261 109q50 0 99.5 17t78.5 43l7 35l-192 -19q-50 -4 -56 -38q-6 -38 63 -38zM419 748l215 -62l-29 -135l-204 58l-245 -62l33 143z" />
    <glyph glyph-name="atilde" unicode="&#xe3;" horiz-adv-x="716" 
d="M684 146l-31 -146h-81q-40 0 -71.5 13.5t-49.5 38.5q-88 -65 -222 -65q-95 0 -148.5 36t-53.5 98q0 15 5 37q12 58 60.5 88.5t134.5 38.5l239 23q2 33 -25.5 50.5t-79.5 17.5q-51 0 -82.5 -15.5t-36.5 -41.5v-3h-176l1 3q16 92 96.5 144.5t207.5 52.5q125 0 197 -50.5
t72 -136.5q0 -27 -5 -47l-22 -105q-1 -3 -1 -9q0 -22 30 -22h42zM261 109q50 0 99.5 17t78.5 43l7 35l-192 -19q-50 -4 -56 -38q-6 -38 63 -38zM434.5 573q-34.5 7 -39.5 8q-66 15 -109 15q-63 0 -123 -28l30 134q51 27 110 27q25 0 48 -4t57 -12q36 -8 61 -12t52 -4
q65 0 123 26l-31 -134q-50 -23 -109 -23q-35 0 -69.5 7z" />
    <glyph glyph-name="adieresis" unicode="&#xe4;" horiz-adv-x="716" 
d="M684 146l-31 -146h-81q-40 0 -71.5 13.5t-49.5 38.5q-88 -65 -222 -65q-95 0 -148.5 36t-53.5 98q0 15 5 37q12 58 60.5 88.5t134.5 38.5l239 23q2 33 -25.5 50.5t-79.5 17.5q-51 0 -82.5 -15.5t-36.5 -41.5v-3h-176l1 3q16 92 96.5 144.5t207.5 52.5q125 0 197 -50.5
t72 -136.5q0 -27 -5 -47l-22 -105q-1 -3 -1 -9q0 -22 30 -22h42zM261 109q50 0 99.5 17t78.5 43l7 35l-192 -19q-50 -4 -56 -38q-6 -38 63 -38zM203.5 579q-26.5 23 -26.5 61q0 44 28.5 70t70.5 26q39 0 65.5 -22t26.5 -60q0 -44 -29 -71t-70 -27q-39 0 -65.5 23zM464.5 579
q-26.5 23 -26.5 61q0 44 28.5 70t70.5 26q39 0 65 -22t26 -58q0 -46 -28.5 -73t-69.5 -27q-39 0 -65.5 23z" />
    <glyph glyph-name="aring" unicode="&#xe5;" horiz-adv-x="716" 
d="M684 146l-31 -146h-81q-40 0 -71.5 13.5t-49.5 38.5q-88 -65 -222 -65q-95 0 -148.5 36t-53.5 98q0 15 5 37q12 58 60.5 88.5t134.5 38.5l239 23q2 33 -25.5 50.5t-79.5 17.5q-51 0 -82.5 -15.5t-36.5 -41.5v-3h-176l1 3q16 92 96.5 144.5t207.5 52.5q125 0 197 -50.5
t72 -136.5q0 -27 -5 -47l-22 -105q-1 -3 -1 -9q0 -22 30 -22h42zM261 109q50 0 99.5 17t78.5 43l7 35l-192 -19q-50 -4 -56 -38q-6 -38 63 -38zM280 578q-45 35 -45 99q0 67 48.5 105.5t131.5 38.5q80 0 126 -36t46 -100q0 -67 -48.5 -104.5t-132.5 -37.5q-81 0 -126 35z
M449.5 650q15.5 13 15.5 35q0 20 -13.5 31t-37.5 11q-27 0 -42.5 -13t-15.5 -36q0 -20 13.5 -30.5t38.5 -10.5q26 0 41.5 13z" />
    <glyph glyph-name="ae" unicode="&#xe6;" horiz-adv-x="1098" 
d="M940 489q63 -27 97 -75.5t34 -112.5q0 -20 -5 -47l-7 -46h-434q0 -42 33 -65.5t94 -23.5q45 0 76.5 13t41.5 36h181q-28 -88 -105.5 -134.5t-195.5 -46.5q-80 0 -141.5 22t-98.5 62q-45 -41 -110 -62.5t-147 -21.5q-106 0 -165.5 36.5t-59.5 99.5q0 19 4 35
q11 57 57.5 87.5t135.5 39.5l247 24q-1 32 -30.5 49.5t-83.5 17.5q-50 0 -80.5 -15t-34.5 -42l-1 -3h-176l1 3q15 92 96 144.5t209 52.5q73 0 126 -19t82 -55q79 74 214 74q83 0 146 -27zM649 313h253q-6 34 -38 53.5t-83 19.5q-100 0 -132 -73zM377.5 131q57.5 22 82.5 55
v19l-203 -22q-59 -6 -59 -44q0 -30 60 -30q62 0 119.5 22z" />
    <glyph glyph-name="ccedilla" unicode="&#xe7;" horiz-adv-x="670" 
d="M172 16q-66 29 -101.5 81t-35.5 120q0 26 6 54l3 10q20 113 101 174t211 61q84 0 149.5 -26.5t102.5 -73t37 -104.5q0 -15 -3 -30v-5h-177l1 5q1 4 1 12q0 32 -31.5 51.5t-83.5 19.5q-117 0 -137 -102l-2 -9q-3 -13 -3 -25q0 -43 32.5 -67t91.5 -24q50 0 81 18.5t36 50.5
l1 5h179l-1 -5q-17 -104 -97 -162t-207 -58q-88 0 -154 29zM392 0l-87 -170h-184l119 235z" />
    <glyph glyph-name="egrave" unicode="&#xe8;" horiz-adv-x="671" 
d="M507.5 489q64.5 -27 99 -75.5t34.5 -111.5q0 -20 -5 -48l-9 -48h-428q1 -40 32.5 -62.5t88.5 -22.5q47 0 78 12t42 35h180q-26 -89 -103.5 -135t-199.5 -46q-85 0 -149 28.5t-99 80t-35 117.5q0 30 5 52l4 18q20 111 102.5 172t212.5 61q85 0 149.5 -27zM222 315h248
q-6 33 -37 52t-81 19q-98 0 -130 -71zM195 747l432 -63l-28 -132l-432 63z" />
    <glyph glyph-name="eacute" unicode="&#xe9;" horiz-adv-x="671" 
d="M507.5 489q64.5 -27 99 -75.5t34.5 -111.5q0 -20 -5 -48l-9 -48h-428q1 -40 32.5 -62.5t88.5 -22.5q47 0 78 12t42 35h180q-26 -89 -103.5 -135t-199.5 -46q-85 0 -149 28.5t-99 80t-35 117.5q0 30 5 52l4 18q20 111 102.5 172t212.5 61q85 0 149.5 -27zM222 315h248
q-6 33 -37 52t-81 19q-98 0 -130 -71zM643 750l-32 -139l-461 -64l32 140z" />
    <glyph glyph-name="ecircumflex" unicode="&#xea;" horiz-adv-x="671" 
d="M507.5 489q64.5 -27 99 -75.5t34.5 -111.5q0 -20 -5 -48l-9 -48h-428q1 -40 32.5 -62.5t88.5 -22.5q47 0 78 12t42 35h180q-26 -89 -103.5 -135t-199.5 -46q-85 0 -149 28.5t-99 80t-35 117.5q0 30 5 52l4 18q20 111 102.5 172t212.5 61q85 0 149.5 -27zM222 315h248
q-6 33 -37 52t-81 19q-98 0 -130 -71zM413 748l215 -62l-29 -135l-204 58l-245 -62l33 143z" />
    <glyph glyph-name="edieresis" unicode="&#xeb;" horiz-adv-x="671" 
d="M507.5 489q64.5 -27 99 -75.5t34.5 -111.5q0 -20 -5 -48l-9 -48h-428q1 -40 32.5 -62.5t88.5 -22.5q47 0 78 12t42 35h180q-26 -89 -103.5 -135t-199.5 -46q-85 0 -149 28.5t-99 80t-35 117.5q0 30 5 52l4 18q20 111 102.5 172t212.5 61q85 0 149.5 -27zM222 315h248
q-6 33 -37 52t-81 19q-98 0 -130 -71zM196.5 579q-26.5 23 -26.5 61q0 44 28.5 70t70.5 26q39 0 65.5 -22t26.5 -60q0 -44 -29 -71t-70 -27q-39 0 -65.5 23zM457.5 579q-26.5 23 -26.5 61q0 44 28.5 70t70.5 26q39 0 65 -22t26 -58q0 -46 -28.5 -73t-69.5 -27
q-39 0 -65.5 23z" />
    <glyph glyph-name="igrave" unicode="&#xec;" horiz-adv-x="286" 
d="M286 503l-112 -503h-174l112 503h174zM98 738l295 -45l-28 -132l-295 45z" />
    <glyph glyph-name="iacute" unicode="&#xed;" horiz-adv-x="286" 
d="M286 503l-112 -503h-174l112 503h174zM406 741l-33 -140l-316 -44l32 139z" />
    <glyph glyph-name="icircumflex" unicode="&#xee;" horiz-adv-x="286" 
d="M286 503l-112 -503h-174l112 503h174zM245 740l152 -33l-30 -138l-137 30l-170 -34l33 146z" />
    <glyph glyph-name="idieresis" unicode="&#xef;" horiz-adv-x="286" 
d="M286 503l-112 -503h-174l112 503h174zM42.5 580q-26.5 23 -26.5 62q0 44 29 69.5t71 25.5q39 0 65 -22.5t26 -59.5q0 -44 -28.5 -71t-69.5 -27q-40 0 -66.5 23zM279.5 580q-26.5 23 -26.5 62q0 43 29 69t70 26q39 0 65.5 -22t26.5 -60q0 -44 -28.5 -71t-70.5 -27
q-39 0 -65.5 23z" />
    <glyph glyph-name="eth" unicode="&#xf0;" horiz-adv-x="684" 
d="M722 583l-129 -20q66 -74 66 -176q0 -38 -9 -79l-17 -77q-26 -118 -106.5 -181t-206.5 -63q-84 0 -150 28t-102 77.5t-36 111.5q0 19 5 46l5 19q17 92 90.5 145.5t183.5 53.5q120 0 180 -63q1 39 -16.5 66.5t-59.5 55.5l-323 -48l28 124l150 22l-74 51l5 24h196l58 -37
l289 44zM416 157q33 26 47 82l6 26q-11 32 -44 49.5t-81 17.5q-56 0 -90.5 -22t-43.5 -63l-2 -11q-2 -7 -2 -21q0 -38 31.5 -61t85.5 -23q60 0 93 26z" />
    <glyph glyph-name="ntilde" unicode="&#xf1;" horiz-adv-x="711" 
d="M599.5 461q59.5 -55 59.5 -150q0 -39 -8 -72l-53 -239h-174l57 248q4 16 4 33q0 40 -26 61.5t-74 21.5q-41 0 -76 -17t-59 -48l-66 -299h-174l113 503h153l-2 -39q70 52 161 52q105 0 164.5 -55zM480.5 573q-34.5 7 -39.5 8q-66 15 -109 15q-63 0 -123 -28l30 134
q51 27 110 27q25 0 48 -4t57 -12q36 -8 61 -12t52 -4q65 0 123 26l-31 -134q-50 -23 -109 -23q-35 0 -69.5 7z" />
    <glyph glyph-name="ograve" unicode="&#xf2;" horiz-adv-x="685" 
d="M172.5 16q-66.5 29 -102 81t-35.5 121q0 22 5 50l2 11q19 113 101.5 175t214.5 62q89 0 155 -28.5t101 -80.5t35 -121q0 -23 -5 -53l-2 -11q-19 -112 -100 -173.5t-213 -61.5q-90 0 -156.5 29zM424.5 163.5q34.5 25.5 43.5 73.5l2 8q3 14 3 26q0 43 -32.5 68.5
t-88.5 25.5q-57 0 -92 -26t-44 -76l-2 -7q-2 -8 -2 -24q0 -43 32.5 -68.5t89.5 -25.5q56 0 90.5 25.5zM201 747l432 -63l-28 -132l-432 63z" />
    <glyph glyph-name="oacute" unicode="&#xf3;" horiz-adv-x="685" 
d="M172.5 16q-66.5 29 -102 81t-35.5 121q0 22 5 50l2 11q19 113 101.5 175t214.5 62q89 0 155 -28.5t101 -80.5t35 -121q0 -23 -5 -53l-2 -11q-19 -112 -100 -173.5t-213 -61.5q-90 0 -156.5 29zM424.5 163.5q34.5 25.5 43.5 73.5l2 8q3 14 3 26q0 43 -32.5 68.5
t-88.5 25.5q-57 0 -92 -26t-44 -76l-2 -7q-2 -8 -2 -24q0 -43 32.5 -68.5t89.5 -25.5q56 0 90.5 25.5zM650 750l-32 -139l-461 -64l32 140z" />
    <glyph glyph-name="ocircumflex" unicode="&#xf4;" horiz-adv-x="685" 
d="M172.5 16q-66.5 29 -102 81t-35.5 121q0 22 5 50l2 11q19 113 101.5 175t214.5 62q89 0 155 -28.5t101 -80.5t35 -121q0 -23 -5 -53l-2 -11q-19 -112 -100 -173.5t-213 -61.5q-90 0 -156.5 29zM424.5 163.5q34.5 25.5 43.5 73.5l2 8q3 14 3 26q0 43 -32.5 68.5
t-88.5 25.5q-57 0 -92 -26t-44 -76l-2 -7q-2 -8 -2 -24q0 -43 32.5 -68.5t89.5 -25.5q56 0 90.5 25.5zM419 748l215 -62l-29 -135l-204 58l-245 -62l33 143z" />
    <glyph glyph-name="otilde" unicode="&#xf5;" horiz-adv-x="685" 
d="M172.5 16q-66.5 29 -102 81t-35.5 121q0 22 5 50l2 11q19 113 101.5 175t214.5 62q89 0 155 -28.5t101 -80.5t35 -121q0 -23 -5 -53l-2 -11q-19 -112 -100 -173.5t-213 -61.5q-90 0 -156.5 29zM424.5 163.5q34.5 25.5 43.5 73.5l2 8q3 14 3 26q0 43 -32.5 68.5
t-88.5 25.5q-57 0 -92 -26t-44 -76l-2 -7q-2 -8 -2 -24q0 -43 32.5 -68.5t89.5 -25.5q56 0 90.5 25.5zM434.5 573q-34.5 7 -39.5 8q-66 15 -109 15q-63 0 -123 -28l30 134q51 27 110 27q25 0 48 -4t57 -12q36 -8 61 -12t52 -4q65 0 123 26l-31 -134q-50 -23 -109 -23
q-35 0 -69.5 7z" />
    <glyph glyph-name="odieresis" unicode="&#xf6;" horiz-adv-x="685" 
d="M172.5 16q-66.5 29 -102 81t-35.5 121q0 22 5 50l2 11q19 113 101.5 175t214.5 62q89 0 155 -28.5t101 -80.5t35 -121q0 -23 -5 -53l-2 -11q-19 -112 -100 -173.5t-213 -61.5q-90 0 -156.5 29zM424.5 163.5q34.5 25.5 43.5 73.5l2 8q3 14 3 26q0 43 -32.5 68.5
t-88.5 25.5q-57 0 -92 -26t-44 -76l-2 -7q-2 -8 -2 -24q0 -43 32.5 -68.5t89.5 -25.5q56 0 90.5 25.5zM202.5 579q-26.5 23 -26.5 61q0 44 28.5 70t70.5 26q39 0 65.5 -22t26.5 -60q0 -44 -29 -71t-70 -27q-39 0 -65.5 23zM463.5 579q-26.5 23 -26.5 61q0 44 28.5 70
t70.5 26q39 0 65 -22t26 -58q0 -46 -28.5 -73t-69.5 -27q-39 0 -65.5 23z" />
    <glyph glyph-name="divide" unicode="&#xf7;" horiz-adv-x="816" 
d="M403 479.5q-26 24.5 -26 63.5q0 44 28.5 71.5t72.5 27.5q41 0 66.5 -24t25.5 -61q0 -45 -28 -73.5t-72 -28.5q-41 0 -67 24.5zM749 407l-34 -158h-614l34 158h614zM305 38.5q-26 24.5 -26 63.5q0 43 28.5 71t72.5 28q40 0 66 -24t26 -61q0 -45 -28 -73.5t-72 -28.5
q-41 0 -67 24.5z" />
    <glyph glyph-name="oslash" unicode="&#xf8;" horiz-adv-x="685" 
d="M674 534l-84 -98q58 -61 58 -151q0 -23 -5 -53l-2 -11q-19 -111 -101 -172.5t-214 -61.5q-56 0 -103 12l-42 -51h-172l5 21l83 97q-61 61 -61 151q0 23 5 51l2 12q19 112 102 174t216 62q57 0 102 -12l43 50h172zM189 220q0 -25 11 -45l176 210q-7 1 -20 1
q-138 0 -160 -119l-4 -20q-3 -15 -3 -27zM497 282q0 24 -9 43l-177 -207q6 -1 19 -1q137 0 160 116l4 21q3 15 3 28z" />
    <glyph glyph-name="ugrave" unicode="&#xf9;" horiz-adv-x="711" 
d="M700 503l-112 -503h-153l2 40q-69 -51 -162 -53q-104 0 -163.5 55t-59.5 150q0 39 8 72l53 239h173l-56 -247q-4 -16 -4 -34q0 -40 26 -61.5t74 -21.5q40 0 75 17.5t59 48.5l67 298h173zM236 747l432 -63l-28 -132l-432 63z" />
    <glyph glyph-name="uacute" unicode="&#xfa;" horiz-adv-x="711" 
d="M700 503l-112 -503h-153l2 40q-69 -51 -162 -53q-104 0 -163.5 55t-59.5 150q0 39 8 72l53 239h173l-56 -247q-4 -16 -4 -34q0 -40 26 -61.5t74 -21.5q40 0 75 17.5t59 48.5l67 298h173zM685 750l-32 -139l-461 -64l32 140z" />
    <glyph glyph-name="ucircumflex" unicode="&#xfb;" horiz-adv-x="711" 
d="M700 503l-112 -503h-153l2 40q-69 -51 -162 -53q-104 0 -163.5 55t-59.5 150q0 39 8 72l53 239h173l-56 -247q-4 -16 -4 -34q0 -40 26 -61.5t74 -21.5q40 0 75 17.5t59 48.5l67 298h173zM454 748l215 -62l-29 -135l-204 58l-245 -62l33 143z" />
    <glyph glyph-name="udieresis" unicode="&#xfc;" horiz-adv-x="711" 
d="M700 503l-112 -503h-153l2 40q-69 -51 -162 -53q-104 0 -163.5 55t-59.5 150q0 39 8 72l53 239h173l-56 -247q-4 -16 -4 -34q0 -40 26 -61.5t74 -21.5q40 0 75 17.5t59 48.5l67 298h173zM237.5 579q-26.5 23 -26.5 61q0 44 28.5 70t70.5 26q39 0 65.5 -22t26.5 -60
q0 -44 -29 -71t-70 -27q-39 0 -65.5 23zM498.5 579q-26.5 23 -26.5 61q0 44 28.5 70t70.5 26q39 0 65 -22t26 -58q0 -46 -28.5 -73t-69.5 -27q-39 0 -65.5 23z" />
    <glyph glyph-name="yacute" unicode="&#xfd;" horiz-adv-x="697" 
d="M741 503l-6 -23l-376 -535q-43 -61 -93 -88t-133 -27h-155l31 146h136q30 0 49 13l-141 491l5 23h175l88 -333l224 333h196zM677 750l-32 -139l-461 -64l32 140z" />
    <glyph glyph-name="thorn" unicode="&#xfe;" horiz-adv-x="710" 
d="M560.5 487.5q55.5 -28.5 85.5 -79t30 -115.5q0 -26 -4 -49l-2 -9q-20 -116 -98.5 -182t-200.5 -66q-112 0 -177 59l-48 -216h-173l193 866h173l-49 -219q63 39 143 39q72 0 127.5 -28.5zM500 274q0 41 -31.5 65.5t-85.5 24.5q-39 0 -72 -12t-56 -33l-29 -130
q18 -23 52 -36.5t76 -13.5q59 0 95.5 27t45.5 78l3 11q2 14 2 19z" />
    <glyph glyph-name="ydieresis" unicode="&#xff;" horiz-adv-x="697" 
d="M741 503l-6 -23l-376 -535q-43 -61 -93 -88t-133 -27h-155l31 146h136q30 0 49 13l-141 491l5 23h175l88 -333l224 333h196zM230.5 579q-26.5 23 -26.5 61q0 44 28.5 70t70.5 26q39 0 65.5 -22t26.5 -60q0 -44 -29 -71t-70 -27q-39 0 -65.5 23zM491.5 579
q-26.5 23 -26.5 61q0 44 28.5 70t70.5 26q39 0 65 -22t26 -58q0 -46 -28.5 -73t-69.5 -27q-39 0 -65.5 23z" />
    <glyph glyph-name="Amacron" unicode="&#x100;" horiz-adv-x="770" 
d="M722 27l-6 -27h-168l-24 123h-303l-79 -123h-187l6 27l421 629h199zM496 268l-43 217l-139 -217h182zM751 869l-31 -137h-446l30 137h447z" />
    <glyph glyph-name="amacron" unicode="&#x101;" horiz-adv-x="716" 
d="M684 146l-31 -146h-81q-40 0 -71.5 13.5t-49.5 38.5q-88 -65 -222 -65q-95 0 -148.5 36t-53.5 98q0 15 5 37q12 58 60.5 88.5t134.5 38.5l239 23q2 33 -25.5 50.5t-79.5 17.5q-51 0 -82.5 -15.5t-36.5 -41.5v-3h-176l1 3q16 92 96.5 144.5t207.5 52.5q125 0 197 -50.5
t72 -136.5q0 -27 -5 -47l-22 -105q-1 -3 -1 -9q0 -22 30 -22h42zM261 109q50 0 99.5 17t78.5 43l7 35l-192 -19q-50 -4 -56 -38q-6 -38 63 -38zM642 716l-31 -137h-446l30 137h447z" />
    <glyph glyph-name="Abreve" unicode="&#x102;" horiz-adv-x="770" 
d="M722 27l-6 -27h-168l-24 123h-303l-79 -123h-187l6 27l421 629h199zM496 268l-43 217l-139 -217h182zM394 721.5q-59 13.5 -113 38.5l28 132q107 -47 218 -47q107 0 229 47l-33 -140q-105 -44 -215 -44q-55 0 -114 13.5z" />
    <glyph glyph-name="abreve" unicode="&#x103;" horiz-adv-x="716" 
d="M684 146l-31 -146h-81q-40 0 -71.5 13.5t-49.5 38.5q-88 -65 -222 -65q-95 0 -148.5 36t-53.5 98q0 15 5 37q12 58 60.5 88.5t134.5 38.5l239 23q2 33 -25.5 50.5t-79.5 17.5q-51 0 -82.5 -15.5t-36.5 -41.5v-3h-176l1 3q16 92 96.5 144.5t207.5 52.5q125 0 197 -50.5
t72 -136.5q0 -27 -5 -47l-22 -105q-1 -3 -1 -9q0 -22 30 -22h42zM261 109q50 0 99.5 17t78.5 43l7 35l-192 -19q-50 -4 -56 -38q-6 -38 63 -38zM285 568.5q-59 13.5 -113 38.5l28 132q107 -47 218 -47q107 0 229 47l-33 -140q-105 -44 -215 -44q-55 0 -114 13.5z" />
    <glyph glyph-name="Aogonek" unicode="&#x104;" horiz-adv-x="770" 
d="M722 27l-6 -27h-168l-24 123h-303l-79 -123h-187l6 27l421 629h199zM496 268l-43 217l-139 -217h182zM479 -150q-28 20 -28 54q0 28 18.5 50.5t65.5 52.5l139 87l42 -94l-61 -39q-8 -5 -12 -9t-4 -8q0 -10 14 -10h48l-23 -104h-122q-49 0 -77 20z" />
    <glyph glyph-name="aogonek" unicode="&#x105;" horiz-adv-x="716" 
d="M684 146l-31 -146h-81q-40 0 -71.5 13.5t-49.5 38.5q-88 -65 -222 -65q-95 0 -148.5 36t-53.5 98q0 15 5 37q12 58 60.5 88.5t134.5 38.5l239 23q2 33 -25.5 50.5t-79.5 17.5q-51 0 -82.5 -15.5t-36.5 -41.5v-3h-176l1 3q16 92 96.5 144.5t207.5 52.5q125 0 197 -50.5
t72 -136.5q0 -27 -5 -47l-22 -105q-1 -3 -1 -9q0 -22 30 -22h42zM261 109q50 0 99.5 17t78.5 43l7 35l-192 -19q-50 -4 -56 -38q-6 -38 63 -38zM416 -150q-28 20 -28 54q0 28 18.5 50.5t65.5 52.5l139 87l42 -94l-61 -39q-8 -5 -12 -9t-4 -8q0 -10 14 -10h48l-23 -104h-122
q-49 0 -77 20z" />
    <glyph glyph-name="Cacute" unicode="&#x106;" horiz-adv-x="874" 
d="M235 23.5q-85 36.5 -131 102t-46 151.5q0 33 8 73l2 8q29 147 138.5 229t278.5 82q107 0 192.5 -34.5t133.5 -94.5t48 -134q0 -17 -3 -35l-1 -7h-181l1 7q2 12 2 18q0 53 -53.5 86t-143.5 33q-99 0 -158.5 -41t-76.5 -121l-3 -13q-5 -20 -5 -45q0 -67 52 -103.5
t150 -36.5q91 0 148 30t68 82l1 8h185l-2 -8q-27 -128 -134.5 -200.5t-270.5 -72.5q-114 0 -199 36.5zM787 903l-32 -139l-461 -64l32 140z" />
    <glyph glyph-name="cacute" unicode="&#x107;" horiz-adv-x="670" 
d="M172 16q-66 29 -101.5 81t-35.5 120q0 26 6 54l3 10q20 113 101 174t211 61q84 0 149.5 -26.5t102.5 -73t37 -104.5q0 -15 -3 -30v-5h-177l1 5q1 4 1 12q0 32 -31.5 51.5t-83.5 19.5q-117 0 -137 -102l-2 -9q-3 -13 -3 -25q0 -43 32.5 -67t91.5 -24q50 0 81 18.5t36 50.5
l1 5h179l-1 -5q-17 -104 -97 -162t-207 -58q-88 0 -154 29zM641 750l-32 -139l-461 -64l32 140z" />
    <glyph glyph-name="Ccircumflex" unicode="&#x108;" horiz-adv-x="874" 
d="M235 23.5q-85 36.5 -131 102t-46 151.5q0 33 8 73l2 8q29 147 138.5 229t278.5 82q107 0 192.5 -34.5t133.5 -94.5t48 -134q0 -17 -3 -35l-1 -7h-181l1 7q2 12 2 18q0 53 -53.5 86t-143.5 33q-99 0 -158.5 -41t-76.5 -121l-3 -13q-5 -20 -5 -45q0 -67 52 -103.5
t150 -36.5q91 0 148 30t68 82l1 8h185l-2 -8q-27 -128 -134.5 -200.5t-270.5 -72.5q-114 0 -199 36.5zM556 901l215 -62l-29 -135l-204 58l-245 -62l33 143z" />
    <glyph glyph-name="ccircumflex" unicode="&#x109;" horiz-adv-x="670" 
d="M172 16q-66 29 -101.5 81t-35.5 120q0 26 6 54l3 10q20 113 101 174t211 61q84 0 149.5 -26.5t102.5 -73t37 -104.5q0 -15 -3 -30v-5h-177l1 5q1 4 1 12q0 32 -31.5 51.5t-83.5 19.5q-117 0 -137 -102l-2 -9q-3 -13 -3 -25q0 -43 32.5 -67t91.5 -24q50 0 81 18.5t36 50.5
l1 5h179l-1 -5q-17 -104 -97 -162t-207 -58q-88 0 -154 29zM411 748l215 -62l-29 -135l-204 58l-245 -62l33 143z" />
    <glyph glyph-name="Cdotaccent" unicode="&#x10a;" horiz-adv-x="874" 
d="M235 23.5q-85 36.5 -131 102t-46 151.5q0 33 8 73l2 8q29 147 138.5 229t278.5 82q107 0 192.5 -34.5t133.5 -94.5t48 -134q0 -17 -3 -35l-1 -7h-181l1 7q2 12 2 18q0 53 -53.5 86t-143.5 33q-99 0 -158.5 -41t-76.5 -121l-3 -13q-5 -20 -5 -45q0 -67 52 -103.5
t150 -36.5q91 0 148 30t68 82l1 8h185l-2 -8q-27 -128 -134.5 -200.5t-270.5 -72.5q-114 0 -199 36.5zM466.5 729q-28.5 25 -28.5 65q0 48 30.5 75t75.5 27q42 0 70 -24t28 -65q0 -47 -31 -75t-75 -28q-41 0 -69.5 25z" />
    <glyph glyph-name="cdotaccent" unicode="&#x10b;" horiz-adv-x="670" 
d="M172 16q-66 29 -101.5 81t-35.5 120q0 26 6 54l3 10q20 113 101 174t211 61q84 0 149.5 -26.5t102.5 -73t37 -104.5q0 -15 -3 -30v-5h-177l1 5q1 4 1 12q0 32 -31.5 51.5t-83.5 19.5q-117 0 -137 -102l-2 -9q-3 -13 -3 -25q0 -43 32.5 -67t91.5 -24q50 0 81 18.5t36 50.5
l1 5h179l-1 -5q-17 -104 -97 -162t-207 -58q-88 0 -154 29zM321.5 576q-28.5 25 -28.5 65q0 48 30.5 75t75.5 27q42 0 70 -24t28 -65q0 -47 -31 -75t-75 -28q-41 0 -69.5 25z" />
    <glyph glyph-name="Ccaron" unicode="&#x10c;" horiz-adv-x="874" 
d="M235 23.5q-85 36.5 -131 102t-46 151.5q0 33 8 73l2 8q29 147 138.5 229t278.5 82q107 0 192.5 -34.5t133.5 -94.5t48 -134q0 -17 -3 -35l-1 -7h-181l1 7q2 12 2 18q0 53 -53.5 86t-143.5 33q-99 0 -158.5 -41t-76.5 -121l-3 -13q-5 -20 -5 -45q0 -67 52 -103.5
t150 -36.5q91 0 148 30t68 82l1 8h185l-2 -8q-27 -128 -134.5 -200.5t-270.5 -72.5q-114 0 -199 36.5zM338 899l203 -59l245 62l-33 -144l-225 -57l-220 62z" />
    <glyph glyph-name="ccaron" unicode="&#x10d;" horiz-adv-x="670" 
d="M172 16q-66 29 -101.5 81t-35.5 120q0 26 6 54l3 10q20 113 101 174t211 61q84 0 149.5 -26.5t102.5 -73t37 -104.5q0 -15 -3 -30v-5h-177l1 5q1 4 1 12q0 32 -31.5 51.5t-83.5 19.5q-117 0 -137 -102l-2 -9q-3 -13 -3 -25q0 -43 32.5 -67t91.5 -24q50 0 81 18.5t36 50.5
l1 5h179l-1 -5q-17 -104 -97 -162t-207 -58q-88 0 -154 29zM193 746l203 -59l245 62l-33 -144l-225 -57l-220 62z" />
    <glyph glyph-name="Dcaron" unicode="&#x10e;" horiz-adv-x="826" 
d="M474 656q160 0 245.5 -68.5t85.5 -193.5q0 -35 -8 -80l-1 -9q-20 -107 -70 -174t-136 -99t-216 -32h-361l146 656h315zM548 192.5q53 38.5 70 124.5l3 14q5 27 5 45q0 62 -43 94t-128 32h-149l-80 -348h166q103 0 156 38.5zM289 899l203 -59l245 62l-33 -144l-225 -57
l-220 62z" />
    <glyph glyph-name="dcaron" unicode="&#x10f;" horiz-adv-x="920" 
d="M742 696l-155 -696h-151l1 39q-68 -52 -160 -52q-73 0 -128.5 28.5t-85.5 80t-30 116.5q0 25 4 48l3 11q19 115 97.5 180t200.5 65q110 0 177 -59l53 239h174zM210 230q0 -42 31 -66.5t86 -24.5q37 0 70.5 12t56.5 33l29 131q-17 23 -51 36t-76 13q-60 0 -96.5 -26.5
t-45.5 -76.5l-2 -10q-2 -14 -2 -21zM1031 696l-106 -188h-159l66 188h199z" />
    <glyph glyph-name="Dcroat" unicode="&#x110;" horiz-adv-x="859" 
d="M752.5 587.5q85.5 -68.5 85.5 -193.5q0 -35 -8 -80l-1 -9q-20 -107 -70 -174t-136 -99t-216 -32h-361l57 254h-108l32 149h109l56 253h315q160 0 245.5 -68.5zM659 376q0 62 -43 94t-128 32h-149l-23 -99h151l-32 -149h-153l-23 -100h166q103 0 156 38.5t70 124.5l3 14
q5 27 5 45z" />
    <glyph glyph-name="dcroat" unicode="&#x111;" horiz-adv-x="736" 
d="M816 528h-112l-118 -528h-150l1 37q-70 -50 -159 -50q-73 0 -129.5 28t-87.5 77.5t-31 112.5q0 24 4 44l3 11q19 107 96 167t197 60q113 0 178 -54l22 95h-196l27 125h196l10 43h174l-10 -43h111zM207 221q0 -40 31.5 -62.5t87.5 -22.5q37 0 69.5 11t56.5 30l27 121
q-19 21 -53 32.5t-76 11.5q-59 0 -95 -24.5t-44 -69.5l-2 -9q-2 -12 -2 -18z" />
    <glyph glyph-name="Emacron" unicode="&#x112;" horiz-adv-x="723" 
d="M757 656l-33 -149h-417l-25 -105h398l-32 -147h-398l-25 -106h418l-32 -149h-598l146 656h598zM728 869l-31 -137h-446l30 137h447z" />
    <glyph glyph-name="emacron" unicode="&#x113;" horiz-adv-x="671" 
d="M507.5 489q64.5 -27 99 -75.5t34.5 -111.5q0 -20 -5 -48l-9 -48h-428q1 -40 32.5 -62.5t88.5 -22.5q47 0 78 12t42 35h180q-26 -89 -103.5 -135t-199.5 -46q-85 0 -149 28.5t-99 80t-35 117.5q0 30 5 52l4 18q20 111 102.5 172t212.5 61q85 0 149.5 -27zM222 315h248
q-6 33 -37 52t-81 19q-98 0 -130 -71zM635 716l-31 -137h-446l30 137h447z" />
    <glyph glyph-name="Ebreve" unicode="&#x114;" horiz-adv-x="723" 
d="M757 656l-33 -149h-417l-25 -105h398l-32 -147h-398l-25 -106h418l-32 -149h-598l146 656h598zM371 721.5q-59 13.5 -113 38.5l28 132q107 -47 218 -47q107 0 229 47l-33 -140q-105 -44 -215 -44q-55 0 -114 13.5z" />
    <glyph glyph-name="ebreve" unicode="&#x115;" horiz-adv-x="671" 
d="M507.5 489q64.5 -27 99 -75.5t34.5 -111.5q0 -20 -5 -48l-9 -48h-428q1 -40 32.5 -62.5t88.5 -22.5q47 0 78 12t42 35h180q-26 -89 -103.5 -135t-199.5 -46q-85 0 -149 28.5t-99 80t-35 117.5q0 30 5 52l4 18q20 111 102.5 172t212.5 61q85 0 149.5 -27zM222 315h248
q-6 33 -37 52t-81 19q-98 0 -130 -71zM279 568.5q-59 13.5 -113 38.5l28 132q107 -47 218 -47q107 0 229 47l-33 -140q-105 -44 -215 -44q-55 0 -114 13.5z" />
    <glyph glyph-name="Edotaccent" unicode="&#x116;" horiz-adv-x="723" 
d="M757 656l-33 -149h-417l-25 -105h398l-32 -147h-398l-25 -106h418l-32 -149h-598l146 656h598zM415.5 729q-28.5 25 -28.5 65q0 48 30.5 75t75.5 27q42 0 70 -24t28 -65q0 -47 -31 -75t-75 -28q-41 0 -69.5 25z" />
    <glyph glyph-name="edotaccent" unicode="&#x117;" horiz-adv-x="671" 
d="M507.5 489q64.5 -27 99 -75.5t34.5 -111.5q0 -20 -5 -48l-9 -48h-428q1 -40 32.5 -62.5t88.5 -22.5q47 0 78 12t42 35h180q-26 -89 -103.5 -135t-199.5 -46q-85 0 -149 28.5t-99 80t-35 117.5q0 30 5 52l4 18q20 111 102.5 172t212.5 61q85 0 149.5 -27zM222 315h248
q-6 33 -37 52t-81 19q-98 0 -130 -71zM323.5 576q-28.5 25 -28.5 65q0 48 30.5 75t75.5 27q42 0 70 -24t28 -65q0 -47 -31 -75t-75 -28q-41 0 -69.5 25z" />
    <glyph glyph-name="Eogonek" unicode="&#x118;" horiz-adv-x="723" 
d="M757 656l-33 -149h-417l-25 -105h398l-32 -147h-398l-25 -106h418l-32 -149h-598l146 656h598zM374 -150q-28 20 -28 54q0 28 18.5 50.5t65.5 52.5l139 87l42 -94l-61 -39q-8 -5 -12 -9t-4 -8q0 -10 14 -10h48l-23 -104h-122q-49 0 -77 20z" />
    <glyph glyph-name="eogonek" unicode="&#x119;" horiz-adv-x="671" 
d="M507.5 489q64.5 -27 99 -75.5t34.5 -111.5q0 -20 -5 -48l-9 -48h-428q1 -40 32.5 -62.5t88.5 -22.5q47 0 78 12t42 35h180q-26 -89 -103.5 -135t-199.5 -46q-85 0 -149 28.5t-99 80t-35 117.5q0 30 5 52l4 18q20 111 102.5 172t212.5 61q85 0 149.5 -27zM222 315h248
q-6 33 -37 52t-81 19q-98 0 -130 -71zM241.5 -148.5q-28.5 21.5 -28.5 55.5q0 32 22 58t74 60l149 99l83 -70l-111 -81q-19 -11 -22 -23v-2q0 -5 5 -9t13 -4h53l-23 -105h-137q-49 0 -77.5 21.5z" />
    <glyph glyph-name="Ecaron" unicode="&#x11a;" horiz-adv-x="723" 
d="M757 656l-33 -149h-417l-25 -105h398l-32 -147h-398l-25 -106h418l-32 -149h-598l146 656h598zM288 899l203 -59l245 62l-33 -144l-225 -57l-220 62z" />
    <glyph glyph-name="ecaron" unicode="&#x11b;" horiz-adv-x="671" 
d="M507.5 489q64.5 -27 99 -75.5t34.5 -111.5q0 -20 -5 -48l-9 -48h-428q1 -40 32.5 -62.5t88.5 -22.5q47 0 78 12t42 35h180q-26 -89 -103.5 -135t-199.5 -46q-85 0 -149 28.5t-99 80t-35 117.5q0 30 5 52l4 18q20 111 102.5 172t212.5 61q85 0 149.5 -27zM222 315h248
q-6 33 -37 52t-81 19q-98 0 -130 -71zM195 746l203 -59l245 62l-33 -144l-225 -57l-220 62z" />
    <glyph glyph-name="Gcircumflex" unicode="&#x11c;" horiz-adv-x="879" 
d="M701 642.5q86 -26.5 133 -74.5t47 -111q0 -18 -2 -27l-1 -4h-183v4q4 23 -20 42t-69.5 30.5t-101.5 11.5q-113 0 -177.5 -43t-83.5 -131l-2 -12q-5 -27 -5 -44q0 -68 52.5 -104.5t152.5 -36.5q65 0 120.5 14t96.5 40l8 35h-319l29 133h490l-81 -365h-152l3 42
q-48 -29 -98.5 -42t-115.5 -13q-110 0 -193 37t-128 102.5t-45 150.5q0 35 7 67l2 7q32 154 144 236t293 82q113 0 199 -26.5zM559 901l215 -62l-29 -135l-204 58l-245 -62l33 143z" />
    <glyph glyph-name="gcircumflex" unicode="&#x11d;" horiz-adv-x="709" 
d="M699 503l-107 -460q-28 -119 -104.5 -172.5t-223.5 -53.5q-134 1 -208 46.5t-74 128.5q0 14 1 21l1 6h175l-1 -6q-3 -25 29 -40.5t85 -15.5q68 0 103 21.5t46 68.5l5 21q-64 -35 -145 -35q-114 0 -179 54t-65 146q0 24 4 45l2 9q19 110 96 169.5t202 59.5q117 0 182 -60
l17 47h159zM460 216l25 109q-19 21 -52 32.5t-74 11.5q-125 0 -140 -90l-2 -9q-2 -14 -2 -19q0 -37 29.5 -56t87.5 -19q80 0 128 40zM426 748l215 -62l-29 -135l-204 58l-245 -62l33 143z" />
    <glyph glyph-name="Gbreve" unicode="&#x11e;" horiz-adv-x="879" 
d="M701 642.5q86 -26.5 133 -74.5t47 -111q0 -18 -2 -27l-1 -4h-183v4q4 23 -20 42t-69.5 30.5t-101.5 11.5q-113 0 -177.5 -43t-83.5 -131l-2 -12q-5 -27 -5 -44q0 -68 52.5 -104.5t152.5 -36.5q65 0 120.5 14t96.5 40l8 35h-319l29 133h490l-81 -365h-152l3 42
q-48 -29 -98.5 -42t-115.5 -13q-110 0 -193 37t-128 102.5t-45 150.5q0 35 7 67l2 7q32 154 144 236t293 82q113 0 199 -26.5zM425 721.5q-59 13.5 -113 38.5l28 132q107 -47 218 -47q107 0 229 47l-33 -140q-105 -44 -215 -44q-55 0 -114 13.5z" />
    <glyph glyph-name="gbreve" unicode="&#x11f;" horiz-adv-x="709" 
d="M699 503l-107 -460q-28 -119 -104.5 -172.5t-223.5 -53.5q-134 1 -208 46.5t-74 128.5q0 14 1 21l1 6h175l-1 -6q-3 -25 29 -40.5t85 -15.5q68 0 103 21.5t46 68.5l5 21q-64 -35 -145 -35q-114 0 -179 54t-65 146q0 24 4 45l2 9q19 110 96 169.5t202 59.5q117 0 182 -60
l17 47h159zM460 216l25 109q-19 21 -52 32.5t-74 11.5q-125 0 -140 -90l-2 -9q-2 -14 -2 -19q0 -37 29.5 -56t87.5 -19q80 0 128 40zM292 568.5q-59 13.5 -113 38.5l28 132q107 -47 218 -47q107 0 229 47l-33 -140q-105 -44 -215 -44q-55 0 -114 13.5z" />
    <glyph glyph-name="Gdotaccent" unicode="&#x120;" horiz-adv-x="879" 
d="M701 642.5q86 -26.5 133 -74.5t47 -111q0 -18 -2 -27l-1 -4h-183v4q4 23 -20 42t-69.5 30.5t-101.5 11.5q-113 0 -177.5 -43t-83.5 -131l-2 -12q-5 -27 -5 -44q0 -68 52.5 -104.5t152.5 -36.5q65 0 120.5 14t96.5 40l8 35h-319l29 133h490l-81 -365h-152l3 42
q-48 -29 -98.5 -42t-115.5 -13q-110 0 -193 37t-128 102.5t-45 150.5q0 35 7 67l2 7q32 154 144 236t293 82q113 0 199 -26.5zM469.5 729q-28.5 25 -28.5 65q0 48 30.5 75t75.5 27q42 0 70 -24t28 -65q0 -47 -31 -75t-75 -28q-41 0 -69.5 25z" />
    <glyph glyph-name="gdotaccent" unicode="&#x121;" horiz-adv-x="709" 
d="M699 503l-107 -460q-28 -119 -104.5 -172.5t-223.5 -53.5q-134 1 -208 46.5t-74 128.5q0 14 1 21l1 6h175l-1 -6q-3 -25 29 -40.5t85 -15.5q68 0 103 21.5t46 68.5l5 21q-64 -35 -145 -35q-114 0 -179 54t-65 146q0 24 4 45l2 9q19 110 96 169.5t202 59.5q117 0 182 -60
l17 47h159zM460 216l25 109q-19 21 -52 32.5t-74 11.5q-125 0 -140 -90l-2 -9q-2 -14 -2 -19q0 -37 29.5 -56t87.5 -19q80 0 128 40zM336.5 576q-28.5 25 -28.5 65q0 48 30.5 75t75.5 27q42 0 70 -24t28 -65q0 -47 -31 -75t-75 -28q-41 0 -69.5 25z" />
    <glyph glyph-name="uni0122" unicode="&#x122;" horiz-adv-x="879" 
d="M701 642.5q86 -26.5 133 -74.5t47 -111q0 -18 -2 -27l-1 -4h-183v4q4 23 -20 42t-69.5 30.5t-101.5 11.5q-113 0 -177.5 -43t-83.5 -131l-2 -12q-5 -27 -5 -44q0 -68 52.5 -104.5t152.5 -36.5q65 0 120.5 14t96.5 40l8 35h-319l29 133h490l-81 -365h-152l3 42
q-48 -29 -98.5 -42t-115.5 -13q-110 0 -193 37t-128 102.5t-45 150.5q0 35 7 67l2 7q32 154 144 236t293 82q113 0 199 -26.5zM493 -58l-108 -186h-178l99 186h187z" />
    <glyph glyph-name="uni0123" unicode="&#x123;" horiz-adv-x="709" 
d="M699 503l-107 -460q-28 -119 -104.5 -172.5t-223.5 -53.5q-134 1 -208 46.5t-74 128.5q0 14 1 21l1 6h175l-1 -6q-3 -25 29 -40.5t85 -15.5q68 0 103 21.5t46 68.5l5 21q-64 -35 -145 -35q-114 0 -179 54t-65 146q0 24 4 45l2 9q19 110 96 169.5t202 59.5q117 0 182 -60
l17 47h159zM460 216l25 109q-19 21 -52 32.5t-74 11.5q-125 0 -140 -90l-2 -9q-2 -14 -2 -19q0 -37 29.5 -56t87.5 -19q80 0 128 40zM556 741l-91 -186h-182l99 186h174z" />
    <glyph glyph-name="Hcircumflex" unicode="&#x124;" horiz-adv-x="819" 
d="M339 656l-56 -251h320l57 251h180l-146 -656h-180l56 251h-321l-56 -251h-180l146 656h180zM548 901l215 -62l-29 -135l-204 58l-245 -62l33 143z" />
    <glyph glyph-name="hcircumflex" unicode="&#x125;" horiz-adv-x="711" 
d="M599.5 460.5q59.5 -55.5 59.5 -149.5q0 -39 -8 -72l-53 -239h-174l57 248q4 16 4 33q0 40 -26 61.5t-74 21.5q-41 0 -76 -17t-58 -48l-67 -299h-174l155 696h174l-49 -222q65 42 145 42q105 0 164.5 -55.5zM290 906l215 -62l-29 -135l-204 58l-245 -62l33 143z" />
    <glyph glyph-name="Hbar" unicode="&#x126;" horiz-adv-x="819" 
d="M866 430h-76l-96 -430h-181l45 201h-319l-46 -201h-180l96 430h-76l32 149h77l17 77h180l-17 -77h320l17 77h181l-17 -77h75zM609 430h-320l-18 -80h320z" />
    <glyph glyph-name="hbar" unicode="&#x127;" horiz-adv-x="737" 
d="M616.5 425.5q59.5 -55.5 59.5 -150.5q0 -30 -8 -70l-45 -205h-174l49 213q4 16 4 33q0 40 -26 62t-75 22q-39 0 -74 -17.5t-59 -47.5l-59 -265h-174l118 528h-108l27 125h108l10 43h174l-10 -43h199l-27 -125h-199l-20 -89q65 42 146 42q104 0 163.5 -55.5z" />
    <glyph glyph-name="Itilde" unicode="&#x128;" horiz-adv-x="299" 
d="M329 656l-146 -656h-180l146 656h180zM255 733q-17 5 -35 9.5t-34 4.5q-42 0 -85 -25l32 139q41 23 82 23q25 0 69 -16q24 -8 40.5 -12t33.5 -4q45 0 83 22l-31 -138q-39 -18 -82 -18q-30 0 -73 15z" />
    <glyph glyph-name="itilde" unicode="&#x129;" horiz-adv-x="286" 
d="M286 503l-112 -503h-174l112 503h174zM214 580q-17 5 -35 9.5t-34 4.5q-42 0 -85 -25l32 139q41 23 82 23q25 0 69 -16q24 -8 40.5 -12t33.5 -4q45 0 83 22l-31 -138q-39 -18 -82 -18q-30 0 -73 15z" />
    <glyph glyph-name="Imacron" unicode="&#x12a;" horiz-adv-x="299" 
d="M329 656l-146 -656h-180l146 656h180zM440 869l-30 -137h-306l30 137h306z" />
    <glyph glyph-name="imacron" unicode="&#x12b;" horiz-adv-x="286" 
d="M286 503l-112 -503h-174l112 503h174zM399 716l-30 -137h-306l30 137h306z" />
    <glyph glyph-name="Ibreve" unicode="&#x12c;" horiz-adv-x="299" 
d="M329 656l-146 -656h-180l146 656h180zM181 723q-39 14 -70 38l28 130q64 -45 147 -45q89 0 159 45l-34 -143q-61 -39 -149 -39q-42 0 -81 14z" />
    <glyph glyph-name="ibreve" unicode="&#x12d;" horiz-adv-x="286" 
d="M286 503l-112 -503h-174l112 503h174zM140 570q-39 14 -70 38l28 130q64 -45 147 -45q89 0 159 45l-34 -143q-61 -39 -149 -39q-42 0 -81 14z" />
    <glyph glyph-name="Iogonek" unicode="&#x12e;" horiz-adv-x="299" 
d="M329 656l-146 -656h-180l146 656h180zM-54 -150q-28 20 -28 54q0 28 18.5 50.5t65.5 52.5l139 87l42 -94l-61 -39q-8 -5 -12 -9t-4 -8q0 -10 14 -10h48l-23 -104h-122q-49 0 -77 20z" />
    <glyph glyph-name="iogonek" unicode="&#x12f;" horiz-adv-x="286" 
d="M286 503l-112 -503h-174l112 503h174zM158.5 576q-28.5 25 -28.5 65q0 48 30.5 75t75.5 27q42 0 70 -24t28 -65q0 -47 -31 -75t-75 -28q-41 0 -69.5 25zM-63 -150q-28 20 -28 54q0 28 18.5 50.5t65.5 52.5l139 87l42 -94l-61 -39q-8 -5 -12 -9t-4 -8q0 -10 14 -10h48
l-23 -104h-122q-49 0 -77 20z" />
    <glyph glyph-name="Idotaccent" unicode="&#x130;" horiz-adv-x="299" 
d="M329 656l-146 -656h-180l146 656h180zM198.5 729q-28.5 25 -28.5 65q0 48 30.5 75t75.5 27q42 0 70 -24t28 -65q0 -47 -31 -75t-75 -28q-41 0 -69.5 25z" />
    <glyph glyph-name="dotlessi" unicode="&#x131;" horiz-adv-x="286" 
d="M286 503l-112 -503h-174l112 503h174z" />
    <glyph glyph-name="IJ" unicode="&#x132;" horiz-adv-x="841" 
d="M339 656l-146 -656h-180l146 656h180zM443 155q74 0 111.5 32t55.5 108l49 207h-260l33 154h440l-86 -369q-34 -147 -118.5 -217t-231.5 -70h-150l34 155h123z" />
    <glyph glyph-name="ij" unicode="&#x133;" horiz-adv-x="572" 
d="M286 503l-112 -503h-174l112 503h174zM158.5 576q-28.5 25 -28.5 65q0 48 30.5 75t75.5 27q42 0 70 -24t28 -65q0 -47 -31 -75t-75 -28q-41 0 -69.5 25zM230 -24q49 0 60 45l108 482h174l-115 -505q-18 -81 -74.5 -124.5t-144.5 -43.5h-106l31 146h67zM444.5 576
q-28.5 25 -28.5 65q0 48 30.5 75t75.5 27q42 0 70 -24t28 -65q0 -47 -31 -75t-75 -28q-41 0 -69.5 25z" />
    <glyph glyph-name="Jcircumflex" unicode="&#x134;" horiz-adv-x="749" 
d="M187 19q-70 32 -108.5 89t-38.5 131q0 27 6 57l7 32h178l-6 -32q-5 -23 -5 -39q0 -52 34 -80.5t97 -28.5q70 0 110 34t57 108l49 212h-283l33 154h464l-94 -391q-66 -278 -337 -278q-93 0 -163 32zM585 901l215 -62l-29 -135l-204 58l-245 -62l33 143z" />
    <glyph glyph-name="jcircumflex" unicode="&#x135;" horiz-adv-x="286" 
d="M-56 -24q49 0 60 45l108 482h174l-115 -505q-18 -81 -74.5 -124.5t-144.5 -43.5h-106l31 146h67zM245 740l152 -33l-30 -138l-137 30l-170 -34l33 146z" />
    <glyph glyph-name="uni0136" unicode="&#x136;" horiz-adv-x="813" 
d="M861 629l-346 -270l191 -332l-6 -27h-178l-151 265l-143 -110l-35 -155h-180l146 656h180l-64 -286l370 286h222zM425 -58l-108 -186h-178l99 186h187z" />
    <glyph glyph-name="uni0137" unicode="&#x137;" horiz-adv-x="681" 
d="M718 480l-247 -198l154 -258l-5 -24h-174l-109 186l-134 -101l-19 -85h-174l155 696h174l-89 -401l264 208h209zM363 -58l-108 -186h-178l99 186h187z" />
    <glyph glyph-name="Lacute" unicode="&#x139;" horiz-adv-x="687" 
d="M339 656l-113 -502h424l-34 -154h-603l146 656h180zM529 903l-32 -139l-461 -64l32 140z" />
    <glyph glyph-name="lacute" unicode="&#x13a;" horiz-adv-x="319" 
d="M77 35q-41 35 -41 94q0 18 5 41l114 526h174l-116 -515q-1 -4 -1 -11q0 -24 34 -24h41l-32 -146h-64q-73 0 -114 35zM443 904l-33 -140l-316 -44l32 139z" />
    <glyph glyph-name="uni013B" unicode="&#x13b;" horiz-adv-x="687" 
d="M339 656l-113 -502h424l-34 -154h-603l146 656h180zM395 -58l-108 -186h-178l99 186h187z" />
    <glyph glyph-name="uni013C" unicode="&#x13c;" horiz-adv-x="319" 
d="M77 35q-41 35 -41 94q0 18 5 41l114 526h174l-116 -515q-1 -4 -1 -11q0 -24 34 -24h41l-32 -146h-64q-73 0 -114 35zM258 -58l-108 -186h-178l99 186h187z" />
    <glyph glyph-name="Lcaron" unicode="&#x13d;" horiz-adv-x="687" 
d="M339 656l-113 -502h424l-34 -154h-603l146 656h180zM684 656l-106 -188h-159l66 188h199z" />
    <glyph glyph-name="lcaron" unicode="&#x13e;" horiz-adv-x="509" 
d="M77 35q-41 35 -41 94q0 18 5 41l114 526h174l-116 -515q-1 -4 -1 -11q0 -24 34 -24h41l-32 -146h-64q-73 0 -114 35zM618 696l-106 -188h-159l66 188h199z" />
    <glyph glyph-name="Ldot" unicode="&#x13f;" horiz-adv-x="687" 
d="M339 656l-113 -502h424l-34 -154h-603l146 656h180zM460 317q-27 25 -27 65q0 46 30 75t75 29q42 0 69 -24.5t27 -64.5q0 -46 -29.5 -75.5t-74.5 -29.5q-43 0 -70 25z" />
    <glyph glyph-name="ldot" unicode="&#x140;" horiz-adv-x="407" 
d="M77 35q-41 35 -41 94q0 18 5 41l114 526h174l-116 -515q-1 -4 -1 -11q0 -24 34 -24h41l-32 -146h-64q-73 0 -114 35zM305 267q-22 23 -22 61q0 50 24.5 79.5t64.5 29.5q38 0 59.5 -22.5t21.5 -60.5q0 -49 -25 -79.5t-64 -30.5q-37 0 -59 23z" />
    <glyph glyph-name="Lslash" unicode="&#x141;" horiz-adv-x="720" 
d="M683 154l-34 -154h-603l57 256l-115 -24l38 163l113 23l53 238h180l-47 -209l272 56l-38 -162l-271 -56l-29 -131h424z" />
    <glyph glyph-name="lslash" unicode="&#x142;" horiz-adv-x="398" 
d="M249 181q-1 -4 -1 -11q0 -24 33 -24h41l-31 -146h-64q-73 0 -114 35t-41 94q0 18 5 41l26 121l-106 -21l35 153l104 21l54 252h174l-50 -225l131 27l-35 -154l-130 -26z" />
    <glyph glyph-name="Nacute" unicode="&#x143;" horiz-adv-x="819" 
d="M840 656l-146 -656h-165l-252 421l-94 -421h-170l146 656h166l251 -420l93 420h171zM779 903l-32 -139l-461 -64l32 140z" />
    <glyph glyph-name="nacute" unicode="&#x144;" horiz-adv-x="711" 
d="M599.5 461q59.5 -55 59.5 -150q0 -39 -8 -72l-53 -239h-174l57 248q4 16 4 33q0 40 -26 61.5t-74 21.5q-41 0 -76 -17t-59 -48l-66 -299h-174l113 503h153l-2 -39q70 52 161 52q105 0 164.5 -55zM696 750l-32 -139l-461 -64l32 140z" />
    <glyph glyph-name="uni0145" unicode="&#x145;" horiz-adv-x="819" 
d="M840 656l-146 -656h-165l-252 421l-94 -421h-170l146 656h166l251 -420l93 420h171zM432 -58l-108 -186h-178l99 186h187z" />
    <glyph glyph-name="uni0146" unicode="&#x146;" horiz-adv-x="711" 
d="M599.5 461q59.5 -55 59.5 -150q0 -39 -8 -72l-53 -239h-174l57 248q4 16 4 33q0 40 -26 61.5t-74 21.5q-41 0 -76 -17t-59 -48l-66 -299h-174l113 503h153l-2 -39q70 52 161 52q105 0 164.5 -55zM383 -58l-108 -186h-178l99 186h187z" />
    <glyph glyph-name="Ncaron" unicode="&#x147;" horiz-adv-x="819" 
d="M840 656l-146 -656h-165l-252 421l-94 -421h-170l146 656h166l251 -420l93 420h171zM331 899l203 -59l245 62l-33 -144l-225 -57l-220 62z" />
    <glyph glyph-name="ncaron" unicode="&#x148;" horiz-adv-x="711" 
d="M599.5 461q59.5 -55 59.5 -150q0 -39 -8 -72l-53 -239h-174l57 248q4 16 4 33q0 40 -26 61.5t-74 21.5q-41 0 -76 -17t-59 -48l-66 -299h-174l113 503h153l-2 -39q70 52 161 52q105 0 164.5 -55zM248 746l203 -59l245 62l-33 -144l-225 -57l-220 62z" />
    <glyph glyph-name="Eng" unicode="&#x14a;" horiz-adv-x="819" 
d="M840 656l-133 -588q-29 -127 -95 -182.5t-190 -55.5h-75l33 151h51q34 0 54.5 9t33.5 30l-241 403l-94 -423h-171l146 656h167l249 -419l94 419h171z" />
    <glyph glyph-name="eng" unicode="&#x14b;" horiz-adv-x="711" 
d="M599.5 462.5q60.5 -54.5 60.5 -148.5q0 -31 -10 -76l-43 -181q-29 -121 -95 -174t-193 -53h-68l33 149h42q51 0 76.5 21.5t37.5 73.5l39 171q4 17 4 35q0 41 -25 62.5t-72 21.5q-40 0 -75.5 -17t-59.5 -47l-67 -300h-174l113 503h153l-2 -39q70 51 161 52
q104 1 164.5 -53.5z" />
    <glyph glyph-name="Omacron" unicode="&#x14c;" horiz-adv-x="877" 
d="M232 24q-84 37 -129.5 103t-45.5 152q0 34 7 68l2 6q31 150 140 233t278 83q111 0 195 -36.5t129.5 -102.5t45.5 -151q0 -32 -8 -70l-1 -7q-31 -150 -139.5 -232.5t-278.5 -82.5q-111 0 -195 37zM589 189.5q59 41.5 76 121.5l3 11q5 19 5 44q0 66 -52 104t-145 38
q-95 0 -153.5 -41.5t-77.5 -122.5l-3 -12q-6 -22 -6 -44q0 -65 52 -102.5t145 -37.5q97 0 156 41.5zM776 869l-31 -137h-446l30 137h447z" />
    <glyph glyph-name="omacron" unicode="&#x14d;" horiz-adv-x="685" 
d="M172.5 16q-66.5 29 -102 81t-35.5 121q0 22 5 50l2 11q19 113 101.5 175t214.5 62q89 0 155 -28.5t101 -80.5t35 -121q0 -23 -5 -53l-2 -11q-19 -112 -100 -173.5t-213 -61.5q-90 0 -156.5 29zM424.5 163.5q34.5 25.5 43.5 73.5l2 8q3 14 3 26q0 43 -32.5 68.5
t-88.5 25.5q-57 0 -92 -26t-44 -76l-2 -7q-2 -8 -2 -24q0 -43 32.5 -68.5t89.5 -25.5q56 0 90.5 25.5zM641 716l-31 -137h-446l30 137h447z" />
    <glyph glyph-name="Obreve" unicode="&#x14e;" horiz-adv-x="877" 
d="M232 24q-84 37 -129.5 103t-45.5 152q0 34 7 68l2 6q31 150 140 233t278 83q111 0 195 -36.5t129.5 -102.5t45.5 -151q0 -32 -8 -70l-1 -7q-31 -150 -139.5 -232.5t-278.5 -82.5q-111 0 -195 37zM589 189.5q59 41.5 76 121.5l3 11q5 19 5 44q0 66 -52 104t-145 38
q-95 0 -153.5 -41.5t-77.5 -122.5l-3 -12q-6 -22 -6 -44q0 -65 52 -102.5t145 -37.5q97 0 156 41.5zM420 721.5q-59 13.5 -113 38.5l28 132q107 -47 218 -47q107 0 229 47l-33 -140q-105 -44 -215 -44q-55 0 -114 13.5z" />
    <glyph glyph-name="obreve" unicode="&#x14f;" horiz-adv-x="685" 
d="M172.5 16q-66.5 29 -102 81t-35.5 121q0 22 5 50l2 11q19 113 101.5 175t214.5 62q89 0 155 -28.5t101 -80.5t35 -121q0 -23 -5 -53l-2 -11q-19 -112 -100 -173.5t-213 -61.5q-90 0 -156.5 29zM424.5 163.5q34.5 25.5 43.5 73.5l2 8q3 14 3 26q0 43 -32.5 68.5
t-88.5 25.5q-57 0 -92 -26t-44 -76l-2 -7q-2 -8 -2 -24q0 -43 32.5 -68.5t89.5 -25.5q56 0 90.5 25.5zM285 568.5q-59 13.5 -113 38.5l28 132q107 -47 218 -47q107 0 229 47l-33 -140q-105 -44 -215 -44q-55 0 -114 13.5z" />
    <glyph glyph-name="Ohungarumlaut" unicode="&#x150;" horiz-adv-x="877" 
d="M232 24q-84 37 -129.5 103t-45.5 152q0 34 7 68l2 6q31 150 140 233t278 83q111 0 195 -36.5t129.5 -102.5t45.5 -151q0 -32 -8 -70l-1 -7q-31 -150 -139.5 -232.5t-278.5 -82.5q-111 0 -195 37zM589 189.5q59 41.5 76 121.5l3 11q5 19 5 44q0 66 -52 104t-145 38
q-95 0 -153.5 -41.5t-77.5 -122.5l-3 -12q-6 -22 -6 -44q0 -65 52 -102.5t145 -37.5q97 0 156 41.5zM579 902l-32 -141l-290 -61l33 142zM890 902l-32 -141l-289 -61l32 142z" />
    <glyph glyph-name="ohungarumlaut" unicode="&#x151;" horiz-adv-x="685" 
d="M172.5 16q-66.5 29 -102 81t-35.5 121q0 22 5 50l2 11q19 113 101.5 175t214.5 62q89 0 155 -28.5t101 -80.5t35 -121q0 -23 -5 -53l-2 -11q-19 -112 -100 -173.5t-213 -61.5q-90 0 -156.5 29zM424.5 163.5q34.5 25.5 43.5 73.5l2 8q3 14 3 26q0 43 -32.5 68.5
t-88.5 25.5q-57 0 -92 -26t-44 -76l-2 -7q-2 -8 -2 -24q0 -43 32.5 -68.5t89.5 -25.5q56 0 90.5 25.5zM444 749l-32 -141l-290 -61l33 142zM755 749l-32 -141l-289 -61l32 142z" />
    <glyph glyph-name="OE" unicode="&#x152;" horiz-adv-x="1263" 
d="M213 32.5q-76 32.5 -116 93t-40 142.5q0 38 9 80l2 9q22 105 73 171t136.5 97t214.5 31h805l-33 -149h-442l-25 -105h395l-32 -147h-394l-25 -106h442l-32 -149h-757q-105 0 -181 32.5zM641 502h-169q-102 0 -156 -38t-72 -121l-3 -14q-5 -27 -5 -45q0 -62 43 -96
t124 -34h158z" />
    <glyph glyph-name="oe" unicode="&#x153;" horiz-adv-x="1114" 
d="M950 488.5q64 -27.5 99 -76.5t35 -113q0 -25 -4 -46l-9 -46h-428q0 -40 32.5 -63.5t89.5 -23.5q45 0 76 12.5t43 35.5h180q-27 -88 -103.5 -134t-194.5 -46q-73 0 -130 22t-91 62q-39 -42 -94.5 -63.5t-125.5 -21.5q-87 0 -153 29t-101.5 81t-35.5 119q0 30 5 52l2 12
q19 112 101 174t210 62q74 0 131 -24t90 -67q39 44 96.5 67.5t130.5 23.5q85 0 149 -27.5zM667 314h248q-6 33 -37.5 52.5t-81.5 19.5q-97 0 -129 -72zM473 270q0 44 -32 69.5t-89 25.5t-92 -26t-44 -76l-2 -7q-2 -8 -2 -24q0 -43 32.5 -68.5t89.5 -25.5q56 0 90.5 25
t43.5 74l2 7q3 14 3 26z" />
    <glyph glyph-name="Racute" unicode="&#x154;" horiz-adv-x="806" 
d="M684 632.5q52 -23.5 80 -66.5t28 -98q0 -20 -5 -45l-3 -10q-17 -82 -75 -126.5t-162 -52.5l144 -207l-6 -27h-180l-156 232h-104l-52 -232h-180l146 656h405q68 0 120 -23.5zM611 453q0 25 -18.5 39t-52.5 14h-233l-33 -140h239q81 0 94 61l2 10q2 12 2 16zM745 903
l-32 -139l-461 -64l32 140z" />
    <glyph glyph-name="racute" unicode="&#x155;" horiz-adv-x="473" 
d="M515 503l-32 -145h-109q-86 0 -129 -40l-71 -318h-174l112 503h154l-2 -40q65 40 145 40h106zM584 750l-32 -139l-461 -64l32 140z" />
    <glyph glyph-name="uni0156" unicode="&#x156;" horiz-adv-x="806" 
d="M684 632.5q52 -23.5 80 -66.5t28 -98q0 -20 -5 -45l-3 -10q-17 -82 -75 -126.5t-162 -52.5l144 -207l-6 -27h-180l-156 232h-104l-52 -232h-180l146 656h405q68 0 120 -23.5zM611 453q0 25 -18.5 39t-52.5 14h-233l-33 -140h239q81 0 94 61l2 10q2 12 2 16zM423 -58
l-108 -186h-178l99 186h187z" />
    <glyph glyph-name="uni0157" unicode="&#x157;" horiz-adv-x="473" 
d="M515 503l-32 -145h-109q-86 0 -129 -40l-71 -318h-174l112 503h154l-2 -40q65 40 145 40h106zM173 -58l-108 -186h-178l99 186h187z" />
    <glyph glyph-name="Rcaron" unicode="&#x158;" horiz-adv-x="806" 
d="M684 632.5q52 -23.5 80 -66.5t28 -98q0 -20 -5 -45l-3 -10q-17 -82 -75 -126.5t-162 -52.5l144 -207l-6 -27h-180l-156 232h-104l-52 -232h-180l146 656h405q68 0 120 -23.5zM611 453q0 25 -18.5 39t-52.5 14h-233l-33 -140h239q81 0 94 61l2 10q2 12 2 16zM297 899
l203 -59l245 62l-33 -144l-225 -57l-220 62z" />
    <glyph glyph-name="rcaron" unicode="&#x159;" horiz-adv-x="473" 
d="M515 503l-32 -145h-109q-86 0 -129 -40l-71 -318h-174l112 503h154l-2 -40q65 40 145 40h106zM136 746l203 -59l245 62l-33 -144l-225 -57l-220 62z" />
    <glyph glyph-name="Sacute" unicode="&#x15a;" horiz-adv-x="771" 
d="M120.5 36.5q-80.5 49.5 -80.5 139.5q0 18 5 45l2 10h176l-2 -10q-2 -10 -2 -15q0 -35 39 -53.5t112 -18.5q144 0 155 56l1 7q1 3 1 9q0 17 -17.5 27.5t-54.5 17.5l-159 27q-90 15 -137 56t-47 103q0 21 4 38l2 10q18 91 101.5 137.5t230.5 46.5q145 0 224.5 -48
t79.5 -135q0 -21 -4 -40l-2 -8h-174l1 8q1 4 1 13q0 63 -139 63q-136 0 -145 -50l-1 -7q-4 -18 12 -29t55 -18l161 -27q93 -16 141.5 -57.5t48.5 -104.5q0 -18 -5 -41l-3 -11q-18 -94 -106 -142t-245 -48q-149 0 -229.5 49.5zM725 903l-32 -139l-461 -64l32 140z" />
    <glyph glyph-name="sacute" unicode="&#x15b;" horiz-adv-x="688" 
d="M99.5 27.5q-75.5 40.5 -75.5 113.5q0 8 2 24v4h161v-4q-4 -27 28.5 -39t108.5 -12q62 0 93 7.5t36 24.5l1 5q3 13 -9.5 19t-47.5 10l-130 15q-93 10 -140 43.5t-47 86.5q0 14 3 27l2 11q14 75 91.5 114t213.5 39q132 0 202.5 -39t70.5 -112q0 -8 -2 -26v-4h-160v4
q9 51 -128 51q-118 0 -126 -30l-1 -5q-6 -23 50 -29l133 -15q96 -10 145 -44t49 -88q0 -13 -3 -27l-2 -10q-14 -76 -91.5 -115.5t-213.5 -39.5q-138 0 -213.5 40.5zM665 750l-32 -139l-461 -64l32 140z" />
    <glyph glyph-name="Scircumflex" unicode="&#x15c;" horiz-adv-x="771" 
d="M120.5 36.5q-80.5 49.5 -80.5 139.5q0 18 5 45l2 10h176l-2 -10q-2 -10 -2 -15q0 -35 39 -53.5t112 -18.5q144 0 155 56l1 7q1 3 1 9q0 17 -17.5 27.5t-54.5 17.5l-159 27q-90 15 -137 56t-47 103q0 21 4 38l2 10q18 91 101.5 137.5t230.5 46.5q145 0 224.5 -48
t79.5 -135q0 -21 -4 -40l-2 -8h-174l1 8q1 4 1 13q0 63 -139 63q-136 0 -145 -50l-1 -7q-4 -18 12 -29t55 -18l161 -27q93 -16 141.5 -57.5t48.5 -104.5q0 -18 -5 -41l-3 -11q-18 -94 -106 -142t-245 -48q-149 0 -229.5 49.5zM495 901l215 -62l-29 -135l-204 58l-245 -62
l33 143z" />
    <glyph glyph-name="scircumflex" unicode="&#x15d;" horiz-adv-x="688" 
d="M99.5 27.5q-75.5 40.5 -75.5 113.5q0 8 2 24v4h161v-4q-4 -27 28.5 -39t108.5 -12q62 0 93 7.5t36 24.5l1 5q3 13 -9.5 19t-47.5 10l-130 15q-93 10 -140 43.5t-47 86.5q0 14 3 27l2 11q14 75 91.5 114t213.5 39q132 0 202.5 -39t70.5 -112q0 -8 -2 -26v-4h-160v4
q9 51 -128 51q-118 0 -126 -30l-1 -5q-6 -23 50 -29l133 -15q96 -10 145 -44t49 -88q0 -13 -3 -27l-2 -10q-14 -76 -91.5 -115.5t-213.5 -39.5q-138 0 -213.5 40.5zM434 748l215 -62l-29 -135l-204 58l-245 -62l33 143z" />
    <glyph glyph-name="Scedilla" unicode="&#x15e;" horiz-adv-x="771" 
d="M120.5 36.5q-80.5 49.5 -80.5 139.5q0 18 5 45l2 10h176l-2 -10q-2 -10 -2 -15q0 -35 39 -53.5t112 -18.5q144 0 155 56l1 7q1 3 1 9q0 17 -17.5 27.5t-54.5 17.5l-159 27q-90 15 -137 56t-47 103q0 21 4 38l2 10q18 91 101.5 137.5t230.5 46.5q145 0 224.5 -48
t79.5 -135q0 -21 -4 -40l-2 -8h-174l1 8q1 4 1 13q0 63 -139 63q-136 0 -145 -50l-1 -7q-4 -18 12 -29t55 -18l161 -27q93 -16 141.5 -57.5t48.5 -104.5q0 -18 -5 -41l-3 -11q-18 -94 -106 -142t-245 -48q-149 0 -229.5 49.5zM444 0l-87 -170h-184l119 235z" />
    <glyph glyph-name="scedilla" unicode="&#x15f;" horiz-adv-x="688" 
d="M99.5 27.5q-75.5 40.5 -75.5 113.5q0 8 2 24v4h161v-4q-4 -27 28.5 -39t108.5 -12q62 0 93 7.5t36 24.5l1 5q3 13 -9.5 19t-47.5 10l-130 15q-93 10 -140 43.5t-47 86.5q0 14 3 27l2 11q14 75 91.5 114t213.5 39q132 0 202.5 -39t70.5 -112q0 -8 -2 -26v-4h-160v4
q9 51 -128 51q-118 0 -126 -30l-1 -5q-6 -23 50 -29l133 -15q96 -10 145 -44t49 -88q0 -13 -3 -27l-2 -10q-14 -76 -91.5 -115.5t-213.5 -39.5q-138 0 -213.5 40.5zM416 0l-87 -170h-184l119 235z" />
    <glyph glyph-name="Scaron" unicode="&#x160;" horiz-adv-x="771" 
d="M120.5 36.5q-80.5 49.5 -80.5 139.5q0 18 5 45l2 10h176l-2 -10q-2 -10 -2 -15q0 -35 39 -53.5t112 -18.5q144 0 155 56l1 7q1 3 1 9q0 17 -17.5 27.5t-54.5 17.5l-159 27q-90 15 -137 56t-47 103q0 21 4 38l2 10q18 91 101.5 137.5t230.5 46.5q145 0 224.5 -48
t79.5 -135q0 -21 -4 -40l-2 -8h-174l1 8q1 4 1 13q0 63 -139 63q-136 0 -145 -50l-1 -7q-4 -18 12 -29t55 -18l161 -27q93 -16 141.5 -57.5t48.5 -104.5q0 -18 -5 -41l-3 -11q-18 -94 -106 -142t-245 -48q-149 0 -229.5 49.5zM277 899l203 -59l245 62l-33 -144l-225 -57
l-220 62z" />
    <glyph glyph-name="scaron" unicode="&#x161;" horiz-adv-x="688" 
d="M99.5 27.5q-75.5 40.5 -75.5 113.5q0 8 2 24v4h161v-4q-4 -27 28.5 -39t108.5 -12q62 0 93 7.5t36 24.5l1 5q3 13 -9.5 19t-47.5 10l-130 15q-93 10 -140 43.5t-47 86.5q0 14 3 27l2 11q14 75 91.5 114t213.5 39q132 0 202.5 -39t70.5 -112q0 -8 -2 -26v-4h-160v4
q9 51 -128 51q-118 0 -126 -30l-1 -5q-6 -23 50 -29l133 -15q96 -10 145 -44t49 -88q0 -13 -3 -27l-2 -10q-14 -76 -91.5 -115.5t-213.5 -39.5q-138 0 -213.5 40.5zM217 746l203 -59l245 62l-33 -144l-225 -57l-220 62z" />
    <glyph glyph-name="uni0162" unicode="&#x162;" horiz-adv-x="691" 
d="M70 502l34 154h662l-33 -154h-237l-112 -502h-181l113 502h-246zM384 0l-87 -170h-184l119 235z" />
    <glyph glyph-name="uni0163" unicode="&#x163;" horiz-adv-x="520" 
d="M304 191q-2 -10 -2 -13q0 -32 42 -32h115l-31 -146h-132q-78 0 -124 39.5t-46 104.5q0 18 5 41l38 173h-158l32 145h120q24 0 35 9.5t16 32.5l21 91h169l-30 -133h196l-32 -145h-196zM387 0l-87 -170h-184l119 235z" />
    <glyph glyph-name="Tcaron" unicode="&#x164;" horiz-adv-x="691" 
d="M70 502l34 154h662l-33 -154h-237l-112 -502h-181l113 502h-246zM267 899l203 -59l245 62l-33 -144l-225 -57l-220 62z" />
    <glyph glyph-name="tcaron" unicode="&#x165;" horiz-adv-x="570" 
d="M304 191q-2 -10 -2 -13q0 -32 42 -32h115l-31 -146h-132q-78 0 -124 39.5t-46 104.5q0 18 5 41l38 173h-158l32 145h120q24 0 35 9.5t16 32.5l21 91h169l-30 -133h196l-32 -145h-196zM714 740l-106 -188h-159l66 188h199z" />
    <glyph glyph-name="Tbar" unicode="&#x166;" horiz-adv-x="711" 
d="M506 502l-32 -143h189l-32 -149h-190l-47 -210h-181l47 210h-177l32 149h179l32 143h-245l33 154h662l-33 -154h-237z" />
    <glyph glyph-name="tbar" unicode="&#x167;" horiz-adv-x="558" 
d="M372 380l-12 -54h196l-27 -124h-197l-3 -14q-2 -9 -1 -13q0 -29 37 -29h119l-31 -146h-132q-78 0 -123.5 39.5t-45.5 104.5q0 22 4 41l4 17h-159l26 124h160l11 54h-158l27 123h121q23 0 34.5 9.5t16.5 32.5l21 91h169l-30 -133h196l-27 -123h-196z" />
    <glyph glyph-name="Utilde" unicode="&#x168;" horiz-adv-x="793" 
d="M215 19.5q-69 32.5 -106.5 91.5t-37.5 136q0 39 8 74l72 335h180l-79 -353q-5 -25 -5 -41q0 -54 35.5 -84t101.5 -30q146 0 179 147l82 361h181l-91 -378q-34 -142 -124 -216.5t-233 -74.5q-94 0 -163 32.5zM550.5 726q-34.5 7 -39.5 8q-66 15 -109 15q-63 0 -123 -28
l30 134q51 27 110 27q25 0 48 -4t57 -12q36 -8 61 -12t52 -4q65 0 123 26l-31 -134q-50 -23 -109 -23q-35 0 -69.5 7z" />
    <glyph glyph-name="utilde" unicode="&#x169;" horiz-adv-x="711" 
d="M700 503l-112 -503h-153l2 40q-69 -51 -162 -53q-104 0 -163.5 55t-59.5 150q0 39 8 72l53 239h173l-56 -247q-4 -16 -4 -34q0 -40 26 -61.5t74 -21.5q40 0 75 17.5t59 48.5l67 298h173zM469.5 573q-34.5 7 -39.5 8q-66 15 -109 15q-63 0 -123 -28l30 134q51 27 110 27
q25 0 48 -4t57 -12q36 -8 61 -12t52 -4q65 0 123 26l-31 -134q-50 -23 -109 -23q-35 0 -69.5 7z" />
    <glyph glyph-name="Umacron" unicode="&#x16a;" horiz-adv-x="793" 
d="M215 19.5q-69 32.5 -106.5 91.5t-37.5 136q0 39 8 74l72 335h180l-79 -353q-5 -25 -5 -41q0 -54 35.5 -84t101.5 -30q146 0 179 147l82 361h181l-91 -378q-34 -142 -124 -216.5t-233 -74.5q-94 0 -163 32.5zM758 869l-31 -137h-446l30 137h447z" />
    <glyph glyph-name="umacron" unicode="&#x16b;" horiz-adv-x="711" 
d="M700 503l-112 -503h-153l2 40q-69 -51 -162 -53q-104 0 -163.5 55t-59.5 150q0 39 8 72l53 239h173l-56 -247q-4 -16 -4 -34q0 -40 26 -61.5t74 -21.5q40 0 75 17.5t59 48.5l67 298h173zM676 716l-31 -137h-446l30 137h447z" />
    <glyph glyph-name="Ubreve" unicode="&#x16c;" horiz-adv-x="793" 
d="M215 19.5q-69 32.5 -106.5 91.5t-37.5 136q0 39 8 74l72 335h180l-79 -353q-5 -25 -5 -41q0 -54 35.5 -84t101.5 -30q146 0 179 147l82 361h181l-91 -378q-34 -142 -124 -216.5t-233 -74.5q-94 0 -163 32.5zM401 721.5q-59 13.5 -113 38.5l28 132q107 -47 218 -47
q107 0 229 47l-33 -140q-105 -44 -215 -44q-55 0 -114 13.5z" />
    <glyph glyph-name="ubreve" unicode="&#x16d;" horiz-adv-x="711" 
d="M700 503l-112 -503h-153l2 40q-69 -51 -162 -53q-104 0 -163.5 55t-59.5 150q0 39 8 72l53 239h173l-56 -247q-4 -16 -4 -34q0 -40 26 -61.5t74 -21.5q40 0 75 17.5t59 48.5l67 298h173zM320 568.5q-59 13.5 -113 38.5l28 132q107 -47 218 -47q107 0 229 47l-33 -140
q-105 -44 -215 -44q-55 0 -114 13.5z" />
    <glyph glyph-name="Uring" unicode="&#x16e;" horiz-adv-x="793" 
d="M215 19.5q-69 32.5 -106.5 91.5t-37.5 136q0 39 8 74l72 335h180l-79 -353q-5 -25 -5 -41q0 -54 35.5 -84t101.5 -30q146 0 179 147l82 361h181l-91 -378q-34 -142 -124 -216.5t-233 -74.5q-94 0 -163 32.5zM396 731q-45 35 -45 99q0 67 48.5 105.5t131.5 38.5
q80 0 126 -36t46 -100q0 -67 -48.5 -104.5t-132.5 -37.5q-81 0 -126 35zM565.5 803q15.5 13 15.5 35q0 20 -13.5 31t-37.5 11q-27 0 -42.5 -13t-15.5 -36q0 -20 13.5 -30.5t38.5 -10.5q26 0 41.5 13z" />
    <glyph glyph-name="uring" unicode="&#x16f;" horiz-adv-x="711" 
d="M700 503l-112 -503h-153l2 40q-69 -51 -162 -53q-104 0 -163.5 55t-59.5 150q0 39 8 72l53 239h173l-56 -247q-4 -16 -4 -34q0 -40 26 -61.5t74 -21.5q40 0 75 17.5t59 48.5l67 298h173zM314 578q-45 35 -45 99q0 67 48.5 105.5t131.5 38.5q80 0 126 -36t46 -100
q0 -67 -48.5 -104.5t-132.5 -37.5q-81 0 -126 35zM483.5 650q15.5 13 15.5 35q0 20 -13.5 31t-37.5 11q-27 0 -42.5 -13t-15.5 -36q0 -20 13.5 -30.5t38.5 -10.5q26 0 41.5 13z" />
    <glyph glyph-name="Uhungarumlaut" unicode="&#x170;" horiz-adv-x="793" 
d="M215 19.5q-69 32.5 -106.5 91.5t-37.5 136q0 39 8 74l72 335h180l-79 -353q-5 -25 -5 -41q0 -54 35.5 -84t101.5 -30q146 0 179 147l82 361h181l-91 -378q-34 -142 -124 -216.5t-233 -74.5q-94 0 -163 32.5zM561 902l-32 -141l-290 -61l33 142zM872 902l-32 -141
l-289 -61l32 142z" />
    <glyph glyph-name="uhungarumlaut" unicode="&#x171;" horiz-adv-x="711" 
d="M700 503l-112 -503h-153l2 40q-69 -51 -162 -53q-104 0 -163.5 55t-59.5 150q0 39 8 72l53 239h173l-56 -247q-4 -16 -4 -34q0 -40 26 -61.5t74 -21.5q40 0 75 17.5t59 48.5l67 298h173zM479 749l-32 -141l-290 -61l33 142zM790 749l-32 -141l-289 -61l32 142z" />
    <glyph glyph-name="Uogonek" unicode="&#x172;" horiz-adv-x="793" 
d="M215 19.5q-69 32.5 -106.5 91.5t-37.5 136q0 39 8 74l72 335h180l-79 -353q-5 -25 -5 -41q0 -54 35.5 -84t101.5 -30q146 0 179 147l82 361h181l-91 -378q-34 -142 -124 -216.5t-233 -74.5q-94 0 -163 32.5zM302.5 -148.5q-28.5 21.5 -28.5 55.5q0 32 22 58t74 60l149 99
l83 -70l-111 -81q-19 -11 -22 -23v-2q0 -5 5 -9t13 -4h53l-23 -105h-137q-49 0 -77.5 21.5z" />
    <glyph glyph-name="uogonek" unicode="&#x173;" horiz-adv-x="711" 
d="M700 503l-112 -503h-153l2 40q-69 -51 -162 -53q-104 0 -163.5 55t-59.5 150q0 39 8 72l53 239h173l-56 -247q-4 -16 -4 -34q0 -40 26 -61.5t74 -21.5q40 0 75 17.5t59 48.5l67 298h173zM351 -150q-28 20 -28 54q0 28 18.5 50.5t65.5 52.5l139 87l42 -94l-61 -39
q-8 -5 -12 -9t-4 -8q0 -10 14 -10h48l-23 -104h-122q-49 0 -77 20z" />
    <glyph glyph-name="Wcircumflex" unicode="&#x174;" horiz-adv-x="1175" 
d="M1253 656l-6 -27l-359 -629h-217l-51 428l-240 -428h-218l-80 629l5 27h173l50 -452l255 452h195l54 -453l248 453h191zM717 901l215 -62l-29 -135l-204 58l-245 -62l33 143z" />
    <glyph glyph-name="wcircumflex" unicode="&#x175;" horiz-adv-x="1067" 
d="M1111 503l-6 -23l-295 -480h-226l-49 287l-175 -287h-225l-82 480l5 23h175l44 -335l206 335h181l58 -339l200 339h189zM632 748l215 -62l-29 -135l-204 58l-245 -62l33 143z" />
    <glyph glyph-name="Ycircumflex" unicode="&#x176;" horiz-adv-x="726" 
d="M809 629l-364 -378l-56 -251h-180l59 264l-199 365l6 27h172l134 -255l238 255h195zM492 901l215 -62l-29 -135l-204 58l-245 -62l33 143z" />
    <glyph glyph-name="ycircumflex" unicode="&#x177;" horiz-adv-x="697" 
d="M741 503l-6 -23l-376 -535q-43 -61 -93 -88t-133 -27h-155l31 146h136q30 0 49 13l-141 491l5 23h175l88 -333l224 333h196zM447 748l215 -62l-29 -135l-204 58l-245 -62l33 143z" />
    <glyph glyph-name="Ydieresis" unicode="&#x178;" horiz-adv-x="726" 
d="M809 629l-364 -378l-56 -251h-180l59 264l-199 365l6 27h172l134 -255l238 255h195zM275.5 732q-26.5 23 -26.5 61q0 44 28.5 70t70.5 26q39 0 65.5 -22t26.5 -60q0 -44 -29 -71t-70 -27q-39 0 -65.5 23zM536.5 732q-26.5 23 -26.5 61q0 44 28.5 70t70.5 26q39 0 65 -22
t26 -58q0 -46 -28.5 -73t-69.5 -27q-39 0 -65.5 23z" />
    <glyph glyph-name="Zacute" unicode="&#x179;" horiz-adv-x="696" 
d="M712 499l-450 -345h372l-33 -154h-618l35 157l450 345h-372l33 154h618zM717 903l-32 -139l-461 -64l32 140z" />
    <glyph glyph-name="zacute" unicode="&#x17a;" horiz-adv-x="642" 
d="M607 359l-334 -216h286l-32 -143h-526l32 144l333 216h-284l32 143h525zM661 750l-32 -139l-461 -64l32 140z" />
    <glyph glyph-name="Zdotaccent" unicode="&#x17b;" horiz-adv-x="696" 
d="M712 499l-450 -345h372l-33 -154h-618l35 157l450 345h-372l33 154h618zM396.5 729q-28.5 25 -28.5 65q0 48 30.5 75t75.5 27q42 0 70 -24t28 -65q0 -47 -31 -75t-75 -28q-41 0 -69.5 25z" />
    <glyph glyph-name="zdotaccent" unicode="&#x17c;" horiz-adv-x="642" 
d="M607 359l-334 -216h286l-32 -143h-526l32 144l333 216h-284l32 143h525zM340.5 576q-28.5 25 -28.5 65q0 48 30.5 75t75.5 27q42 0 70 -24t28 -65q0 -47 -31 -75t-75 -28q-41 0 -69.5 25z" />
    <glyph glyph-name="Zcaron" unicode="&#x17d;" horiz-adv-x="696" 
d="M712 499l-450 -345h372l-33 -154h-618l35 157l450 345h-372l33 154h618zM269 899l203 -59l245 62l-33 -144l-225 -57l-220 62z" />
    <glyph glyph-name="zcaron" unicode="&#x17e;" horiz-adv-x="642" 
d="M607 359l-334 -216h286l-32 -143h-526l32 144l333 216h-284l32 143h525zM212 746l203 -59l245 62l-33 -144l-225 -57l-220 62z" />
    <glyph glyph-name="uni018F" unicode="&#x18f;" horiz-adv-x="877" 
d="M677 633q85 -36 130 -101.5t45 -152.5q0 -32 -8 -74l-2 -8q-27 -146 -136.5 -228t-277.5 -82q-113 0 -198 37t-131 104t-46 154q0 36 7 68l8 37h606q-8 63 -61.5 98.5t-142.5 35.5q-73 0 -124.5 -22t-70.5 -62h-192q41 111 144 171.5t251 60.5q114 0 199 -36zM569 165
q57 31 82 90h-421q8 -58 59 -89.5t140 -31.5q83 0 140 31z" />
    <glyph glyph-name="florin" unicode="&#x192;" horiz-adv-x="816" 
d="M505 395h290l-32 -146h-291l-54 -239q-18 -79 -72 -122t-137 -43h-205l32 146h164q23 0 36 10.5t18 35.5l48 212h-247l31 146h249l31 136q18 80 72 122.5t137 42.5h247l-31 -146h-207q-23 0 -36 -11t-18 -35z" />
    <glyph glyph-name="uni01CD" unicode="&#x1cd;" horiz-adv-x="770" 
d="M722 27l-6 -27h-168l-24 123h-303l-79 -123h-187l6 27l421 629h199zM496 268l-43 217l-139 -217h182zM311 899l203 -59l245 62l-33 -144l-225 -57l-220 62z" />
    <glyph glyph-name="uni01CE" unicode="&#x1ce;" horiz-adv-x="716" 
d="M684 146l-31 -146h-81q-40 0 -71.5 13.5t-49.5 38.5q-88 -65 -222 -65q-95 0 -148.5 36t-53.5 98q0 15 5 37q12 58 60.5 88.5t134.5 38.5l239 23q2 33 -25.5 50.5t-79.5 17.5q-51 0 -82.5 -15.5t-36.5 -41.5v-3h-176l1 3q16 92 96.5 144.5t207.5 52.5q125 0 197 -50.5
t72 -136.5q0 -27 -5 -47l-22 -105q-1 -3 -1 -9q0 -22 30 -22h42zM261 109q50 0 99.5 17t78.5 43l7 35l-192 -19q-50 -4 -56 -38q-6 -38 63 -38zM202 746l203 -59l245 62l-33 -144l-225 -57l-220 62z" />
    <glyph glyph-name="uni01D2" unicode="&#x1d2;" horiz-adv-x="685" 
d="M172.5 16q-66.5 29 -102 81t-35.5 121q0 22 5 50l2 11q19 113 101.5 175t214.5 62q89 0 155 -28.5t101 -80.5t35 -121q0 -23 -5 -53l-2 -11q-19 -112 -100 -173.5t-213 -61.5q-90 0 -156.5 29zM424.5 163.5q34.5 25.5 43.5 73.5l2 8q3 14 3 26q0 43 -32.5 68.5
t-88.5 25.5q-57 0 -92 -26t-44 -76l-2 -7q-2 -8 -2 -24q0 -43 32.5 -68.5t89.5 -25.5q56 0 90.5 25.5zM201 746l203 -59l245 62l-33 -144l-225 -57l-220 62z" />
    <glyph glyph-name="Gcaron" unicode="&#x1e6;" horiz-adv-x="879" 
d="M701 642.5q86 -26.5 133 -74.5t47 -111q0 -18 -2 -27l-1 -4h-183v4q4 23 -20 42t-69.5 30.5t-101.5 11.5q-113 0 -177.5 -43t-83.5 -131l-2 -12q-5 -27 -5 -44q0 -68 52.5 -104.5t152.5 -36.5q65 0 120.5 14t96.5 40l8 35h-319l29 133h490l-81 -365h-152l3 42
q-48 -29 -98.5 -42t-115.5 -13q-110 0 -193 37t-128 102.5t-45 150.5q0 35 7 67l2 7q32 154 144 236t293 82q113 0 199 -26.5zM342 899l203 -59l245 62l-33 -144l-225 -57l-220 62z" />
    <glyph glyph-name="gcaron" unicode="&#x1e7;" horiz-adv-x="709" 
d="M699 503l-107 -460q-28 -119 -104.5 -172.5t-223.5 -53.5q-134 1 -208 46.5t-74 128.5q0 14 1 21l1 6h175l-1 -6q-3 -25 29 -40.5t85 -15.5q68 0 103 21.5t46 68.5l5 21q-64 -35 -145 -35q-114 0 -179 54t-65 146q0 24 4 45l2 9q19 110 96 169.5t202 59.5q117 0 182 -60
l17 47h159zM460 216l25 109q-19 21 -52 32.5t-74 11.5q-125 0 -140 -90l-2 -9q-2 -14 -2 -19q0 -37 29.5 -56t87.5 -19q80 0 128 40zM208 746l203 -59l245 62l-33 -144l-225 -57l-220 62z" />
    <glyph glyph-name="uni01F4" unicode="&#x1f4;" horiz-adv-x="879" 
d="M701 642.5q86 -26.5 133 -74.5t47 -111q0 -18 -2 -27l-1 -4h-183v4q4 23 -20 42t-69.5 30.5t-101.5 11.5q-113 0 -177.5 -43t-83.5 -131l-2 -12q-5 -27 -5 -44q0 -68 52.5 -104.5t152.5 -36.5q65 0 120.5 14t96.5 40l8 35h-319l29 133h490l-81 -365h-152l3 42
q-48 -29 -98.5 -42t-115.5 -13q-110 0 -193 37t-128 102.5t-45 150.5q0 35 7 67l2 7q32 154 144 236t293 82q113 0 199 -26.5zM790 903l-32 -139l-461 -64l32 140z" />
    <glyph glyph-name="uni01F5" unicode="&#x1f5;" horiz-adv-x="709" 
d="M699 503l-107 -460q-28 -119 -104.5 -172.5t-223.5 -53.5q-134 1 -208 46.5t-74 128.5q0 14 1 21l1 6h175l-1 -6q-3 -25 29 -40.5t85 -15.5q68 0 103 21.5t46 68.5l5 21q-64 -35 -145 -35q-114 0 -179 54t-65 146q0 24 4 45l2 9q19 110 96 169.5t202 59.5q117 0 182 -60
l17 47h159zM460 216l25 109q-19 21 -52 32.5t-74 11.5q-125 0 -140 -90l-2 -9q-2 -14 -2 -19q0 -37 29.5 -56t87.5 -19q80 0 128 40zM657 750l-32 -139l-461 -64l32 140z" />
    <glyph glyph-name="AEacute" unicode="&#x1fc;" horiz-adv-x="1072" 
d="M658 507v-105h377l-31 -146h-347l-1 -107h343l-33 -149h-487l2 123h-264l-80 -123h-182l6 27l421 629h730l-32 -149h-422zM486 507h-21l-155 -239h173zM910 903l-32 -139l-461 -64l32 140z" />
    <glyph glyph-name="aeacute" unicode="&#x1fd;" horiz-adv-x="1098" 
d="M940 489q63 -27 97 -75.5t34 -112.5q0 -20 -5 -47l-7 -46h-434q0 -42 33 -65.5t94 -23.5q45 0 76.5 13t41.5 36h181q-28 -88 -105.5 -134.5t-195.5 -46.5q-80 0 -141.5 22t-98.5 62q-45 -41 -110 -62.5t-147 -21.5q-106 0 -165.5 36.5t-59.5 99.5q0 19 4 35
q11 57 57.5 87.5t135.5 39.5l247 24q-1 32 -30.5 49.5t-83.5 17.5q-50 0 -80.5 -15t-34.5 -42l-1 -3h-176l1 3q15 92 96 144.5t209 52.5q73 0 126 -19t82 -55q79 74 214 74q83 0 146 -27zM649 313h253q-6 34 -38 53.5t-83 19.5q-100 0 -132 -73zM377.5 131q57.5 22 82.5 55
v19l-203 -22q-59 -6 -59 -44q0 -30 60 -30q62 0 119.5 22zM864 750l-32 -139l-461 -64l32 140z" />
    <glyph glyph-name="Oslashacute" unicode="&#x1fe;" horiz-adv-x="877" 
d="M866 694l-99 -116q42 -39 64 -89.5t22 -109.5q0 -36 -7 -70l-1 -7q-30 -150 -138.5 -232.5t-282.5 -82.5q-73 0 -136 17l-58 -69h-190l6 27l98 117q-42 39 -64.5 89.5t-22.5 109.5q0 34 7 68l2 7q30 150 139.5 233t283.5 83q72 0 135 -17l58 69h190zM234 285
q0 -47 24 -80l260 313q-24 2 -39 2q-196 0 -236 -175l-3 -13q-6 -25 -6 -47zM676 368q0 48 -25 83l-258 -313q24 -2 38 -2q99 0 159 44.5t78 129.5l3 13q5 27 5 45zM782 903l-32 -139l-461 -64l32 140z" />
    <glyph glyph-name="oslashacute" unicode="&#x1ff;" horiz-adv-x="685" 
d="M674 534l-84 -98q58 -61 58 -151q0 -23 -5 -53l-2 -11q-19 -111 -101 -172.5t-214 -61.5q-56 0 -103 12l-42 -51h-172l5 21l83 97q-61 61 -61 151q0 23 5 51l2 12q19 112 102 174t216 62q57 0 102 -12l43 50h172zM189 220q0 -25 11 -45l176 210q-7 1 -20 1
q-138 0 -160 -119l-4 -20q-3 -15 -3 -27zM497 282q0 24 -9 43l-177 -207q6 -1 19 -1q137 0 160 116l4 21q3 15 3 28zM651 750l-32 -139l-461 -64l32 140z" />
    <glyph glyph-name="uni0218" unicode="&#x218;" horiz-adv-x="771" 
d="M120.5 36.5q-80.5 49.5 -80.5 139.5q0 18 5 45l2 10h176l-2 -10q-2 -10 -2 -15q0 -35 39 -53.5t112 -18.5q144 0 155 56l1 7q1 3 1 9q0 17 -17.5 27.5t-54.5 17.5l-159 27q-90 15 -137 56t-47 103q0 21 4 38l2 10q18 91 101.5 137.5t230.5 46.5q145 0 224.5 -48
t79.5 -135q0 -21 -4 -40l-2 -8h-174l1 8q1 4 1 13q0 63 -139 63q-136 0 -145 -50l-1 -7q-4 -18 12 -29t55 -18l161 -27q93 -16 141.5 -57.5t48.5 -104.5q0 -18 -5 -41l-3 -11q-18 -94 -106 -142t-245 -48q-149 0 -229.5 49.5zM430 -58l-108 -186h-178l99 186h187z" />
    <glyph glyph-name="uni0219" unicode="&#x219;" horiz-adv-x="688" 
d="M99.5 27.5q-75.5 40.5 -75.5 113.5q0 8 2 24v4h161v-4q-4 -27 28.5 -39t108.5 -12q62 0 93 7.5t36 24.5l1 5q3 13 -9.5 19t-47.5 10l-130 15q-93 10 -140 43.5t-47 86.5q0 14 3 27l2 11q14 75 91.5 114t213.5 39q132 0 202.5 -39t70.5 -112q0 -8 -2 -26v-4h-160v4
q9 51 -128 51q-118 0 -126 -30l-1 -5q-6 -23 50 -29l133 -15q96 -10 145 -44t49 -88q0 -13 -3 -27l-2 -10q-14 -76 -91.5 -115.5t-213.5 -39.5q-138 0 -213.5 40.5zM402 -58l-108 -186h-178l99 186h187z" />
    <glyph glyph-name="uni021A" unicode="&#x21a;" horiz-adv-x="691" 
d="M70 502l34 154h662l-33 -154h-237l-112 -502h-181l113 502h-246zM371 -58l-108 -186h-178l99 186h187z" />
    <glyph glyph-name="uni021B" unicode="&#x21b;" horiz-adv-x="520" 
d="M304 191q-2 -10 -2 -13q0 -32 42 -32h115l-31 -146h-132q-78 0 -124 39.5t-46 104.5q0 18 5 41l38 173h-158l32 145h120q24 0 35 9.5t16 32.5l21 91h169l-30 -133h196l-32 -145h-196zM373 -58l-108 -186h-178l99 186h187z" />
    <glyph glyph-name="uni0232" unicode="&#x232;" horiz-adv-x="726" 
d="M809 629l-364 -378l-56 -251h-180l59 264l-199 365l6 27h172l134 -255l238 255h195zM714 869l-31 -137h-446l30 137h447z" />
    <glyph glyph-name="uni0233" unicode="&#x233;" horiz-adv-x="697" 
d="M741 503l-6 -23l-376 -535q-43 -61 -93 -88t-133 -27h-155l31 146h136q30 0 49 13l-141 491l5 23h175l88 -333l224 333h196zM669 716l-31 -137h-446l30 137h447z" />
    <glyph glyph-name="uni0237" unicode="&#x237;" horiz-adv-x="286" 
d="M-56 -24q49 0 60 45l108 482h174l-115 -505q-18 -81 -74.5 -124.5t-144.5 -43.5h-106l31 146h67z" />
    <glyph glyph-name="uni0259" unicode="&#x259;" horiz-adv-x="671" 
d="M502 487.5q64 -28.5 99 -79.5t35 -117q0 -29 -5 -52l-3 -18q-20 -112 -102.5 -173t-212.5 -61q-85 0 -149.5 27.5t-99.5 76.5t-35 112q0 19 5 46l10 48h428q0 40 -32 62.5t-89 22.5q-47 0 -78 -12t-42 -34h-180q26 88 103 134t199 46q85 0 149 -28.5zM447 188h-247
q5 -33 36 -51.5t83 -18.5q98 0 128 70z" />
    <glyph glyph-name="uni02BB" unicode="&#x2bb;" horiz-adv-x="600" 
d="M864 741l-91 -186h-182l99 186h174z" />
    <glyph glyph-name="uni02BC" unicode="&#x2bc;" horiz-adv-x="334" 
d="M390 696l-5 -25l-164 -278h-160l137 303h192z" />
    <glyph glyph-name="circumflex" unicode="&#x2c6;" horiz-adv-x="600" 
d="M404 748l215 -62l-29 -135l-204 58l-245 -62l33 143z" />
    <glyph glyph-name="caron" unicode="&#x2c7;" horiz-adv-x="600" 
d="M187 746l203 -59l245 62l-33 -144l-225 -57l-220 62z" />
    <glyph glyph-name="uni02C9" unicode="&#x2c9;" horiz-adv-x="600" 
d="M954 716l-31 -137h-446l30 137h447z" />
    <glyph glyph-name="breve" unicode="&#x2d8;" horiz-adv-x="600" 
d="M270 568.5q-59 13.5 -113 38.5l28 132q107 -47 218 -47q107 0 229 47l-33 -140q-105 -44 -215 -44q-55 0 -114 13.5z" />
    <glyph glyph-name="dotaccent" unicode="&#x2d9;" horiz-adv-x="600" 
d="M314.5 576q-28.5 25 -28.5 65q0 48 30.5 75t75.5 27q42 0 70 -24t28 -65q0 -47 -31 -75t-75 -28q-41 0 -69.5 25z" />
    <glyph glyph-name="ring" unicode="&#x2da;" horiz-adv-x="600" 
d="M265 578q-45 35 -45 99q0 67 48.5 105.5t131.5 38.5q80 0 126 -36t46 -100q0 -67 -48.5 -104.5t-132.5 -37.5q-81 0 -126 35zM434.5 650q15.5 13 15.5 35q0 20 -13.5 31t-37.5 11q-27 0 -42.5 -13t-15.5 -36q0 -20 13.5 -30.5t38.5 -10.5q26 0 41.5 13z" />
    <glyph glyph-name="ogonek" unicode="&#x2db;" horiz-adv-x="600" 
d="M137 -150q-28 20 -28 54q0 28 18.5 50.5t65.5 52.5l139 87l42 -94l-61 -39q-8 -5 -12 -9t-4 -8q0 -10 14 -10h48l-23 -104h-122q-49 0 -77 20z" />
    <glyph glyph-name="tilde" unicode="&#x2dc;" horiz-adv-x="600" 
d="M419.5 573q-34.5 7 -39.5 8q-66 15 -109 15q-63 0 -123 -28l30 134q51 27 110 27q25 0 48 -4t57 -12q36 -8 61 -12t52 -4q65 0 123 26l-31 -134q-50 -23 -109 -23q-35 0 -69.5 7z" />
    <glyph glyph-name="hungarumlaut" unicode="&#x2dd;" horiz-adv-x="600" 
d="M394 749l-32 -141l-290 -61l33 142zM705 749l-32 -141l-289 -61l32 142z" />
    <glyph glyph-name="gravecomb" unicode="&#x300;" horiz-adv-x="0" 
d="M-114 747l432 -63l-28 -132l-432 63z" />
    <glyph glyph-name="acutecomb" unicode="&#x301;" horiz-adv-x="0" 
d="M335 750l-32 -139l-461 -64l32 140z" />
    <glyph glyph-name="uni0302" unicode="&#x302;" horiz-adv-x="0" 
d="M105 748l215 -62l-29 -135l-204 58l-245 -62l33 143z" />
    <glyph glyph-name="tildecomb" unicode="&#x303;" horiz-adv-x="0" 
d="M119.5 573q-34.5 7 -39.5 8q-66 15 -109 15q-63 0 -123 -28l30 134q51 27 110 27q25 0 48 -4t57 -12q36 -8 61 -12t52 -4q65 0 123 26l-31 -134q-50 -23 -109 -23q-35 0 -69.5 7z" />
    <glyph glyph-name="uni0304" unicode="&#x304;" horiz-adv-x="0" 
d="M327 716l-31 -137h-446l30 137h447z" />
    <glyph glyph-name="uni0306" unicode="&#x306;" horiz-adv-x="0" 
d="M-30 568.5q-59 13.5 -113 38.5l28 132q107 -47 218 -47q107 0 229 47l-33 -140q-105 -44 -215 -44q-55 0 -114 13.5z" />
    <glyph glyph-name="uni0307" unicode="&#x307;" horiz-adv-x="0" 
d="M14.5 576q-28.5 25 -28.5 65q0 48 30.5 75t75.5 27q42 0 70 -24t28 -65q0 -47 -31 -75t-75 -28q-41 0 -69.5 25z" />
    <glyph glyph-name="uni0308" unicode="&#x308;" horiz-adv-x="0" 
d="M-111.5 579q-26.5 23 -26.5 61q0 44 28.5 70t70.5 26q39 0 65.5 -22t26.5 -60q0 -44 -29 -71t-70 -27q-39 0 -65.5 23zM149.5 579q-26.5 23 -26.5 61q0 44 28.5 70t70.5 26q39 0 65 -22t26 -58q0 -46 -28.5 -73t-69.5 -27q-39 0 -65.5 23z" />
    <glyph glyph-name="uni030A" unicode="&#x30a;" horiz-adv-x="0" 
d="M-35 578q-45 35 -45 99q0 67 48.5 105.5t131.5 38.5q80 0 126 -36t46 -100q0 -67 -48.5 -104.5t-132.5 -37.5q-81 0 -126 35zM134.5 650q15.5 13 15.5 35q0 20 -13.5 31t-37.5 11q-27 0 -42.5 -13t-15.5 -36q0 -20 13.5 -30.5t38.5 -10.5q26 0 41.5 13z" />
    <glyph glyph-name="uni030B" unicode="&#x30b;" horiz-adv-x="0" 
d="M130 749l-32 -141l-290 -61l33 142zM441 749l-32 -141l-289 -61l32 142z" />
    <glyph glyph-name="uni030C" unicode="&#x30c;" horiz-adv-x="0" 
d="M-113 746l203 -59l245 62l-33 -144l-225 -57l-220 62z" />
    <glyph glyph-name="uni0312" unicode="&#x312;" horiz-adv-x="0" 
d="M236 741l-91 -186h-182l99 186h174z" />
    <glyph glyph-name="dotbelowcomb" unicode="&#x323;" horiz-adv-x="0" 
d="M-158 -215.5q-28 24.5 -28 65.5q0 46 31 74t75 28q42 0 70 -24t28 -65q0 -47 -30.5 -75t-75.5 -28q-42 0 -70 24.5z" />
    <glyph glyph-name="uni0326" unicode="&#x326;" horiz-adv-x="0" 
d="M23 -58l-108 -186h-178l99 186h187z" />
    <glyph glyph-name="uni0327" unicode="&#x327;" horiz-adv-x="0" 
d="M36 0l-87 -170h-184l119 235z" />
    <glyph glyph-name="uni0328" unicode="&#x328;" horiz-adv-x="0" 
d="M-293 -150q-28 20 -28 54q0 28 18.5 50.5t65.5 52.5l139 87l42 -94l-61 -39q-8 -5 -12 -9t-4 -8q0 -10 14 -10h48l-23 -104h-122q-49 0 -77 20z" />
    <glyph glyph-name="uni0374" unicode="&#x374;" horiz-adv-x="334" 
d="M383 656l-5 -24l-169 -298h-161l141 322h194z" />
    <glyph glyph-name="tonos" unicode="&#x384;" horiz-adv-x="600" 
d="M513 817l-78 -262h-155l78 262h155z" />
    <glyph glyph-name="dieresistonos" unicode="&#x385;" horiz-adv-x="600" 
d="M517 817l-79 -262h-154l78 262h155zM113 579q-26 23 -26 62q0 44 28.5 69.5t69.5 25.5q38 0 64 -22t26 -60q0 -44 -28 -71t-69 -27q-39 0 -65 23zM526.5 579q-25.5 23 -25.5 62q0 44 28 69.5t70 25.5q38 0 63.5 -22t25.5 -59q0 -45 -28 -72t-69 -27q-39 0 -64.5 23z" />
    <glyph glyph-name="Alphatonos" unicode="&#x386;" horiz-adv-x="770" 
d="M722 27l-6 -27h-168l-24 123h-303l-79 -123h-187l6 27l421 629h199zM496 268l-43 217l-139 -217h182zM180 656l-78 -262h-155l78 262h155z" />
    <glyph glyph-name="anoteleia" unicode="&#x387;" horiz-adv-x="334" 
d="M128 334q-27 25 -27 65q0 46 30 75t75 29q42 0 69 -24.5t27 -64.5q0 -46 -29.5 -75.5t-74.5 -29.5q-43 0 -70 25z" />
    <glyph glyph-name="Epsilontonos" unicode="&#x388;" horiz-adv-x="723" 
d="M757 656l-33 -149h-417l-25 -105h398l-32 -147h-398l-25 -106h418l-32 -149h-598l146 656h598zM25 656l-78 -262h-155l78 262h155z" />
    <glyph glyph-name="Etatonos" unicode="&#x389;" horiz-adv-x="819" 
d="M339 656l-56 -251h320l57 251h180l-146 -656h-180l56 251h-321l-56 -251h-180l146 656h180zM26 656l-78 -262h-155l78 262h155z" />
    <glyph glyph-name="Iotatonos" unicode="&#x38a;" horiz-adv-x="299" 
d="M329 656l-146 -656h-180l146 656h180zM13 656l-78 -262h-155l78 262h155z" />
    <glyph glyph-name="Omicrontonos" unicode="&#x38c;" horiz-adv-x="877" 
d="M232 24q-84 37 -129.5 103t-45.5 152q0 34 7 68l2 6q31 150 140 233t278 83q111 0 195 -36.5t129.5 -102.5t45.5 -151q0 -32 -8 -70l-1 -7q-31 -150 -139.5 -232.5t-278.5 -82.5q-111 0 -195 37zM589 189.5q59 41.5 76 121.5l3 11q5 19 5 44q0 66 -52 104t-145 38
q-95 0 -153.5 -41.5t-77.5 -122.5l-3 -12q-6 -22 -6 -44q0 -65 52 -102.5t145 -37.5q97 0 156 41.5zM73 656l-78 -262h-155l78 262h155z" />
    <glyph glyph-name="Upsilontonos" unicode="&#x38e;" horiz-adv-x="726" 
d="M809 629l-364 -378l-56 -251h-180l59 264l-199 365l6 27h172l134 -255l238 255h195zM9 656l-78 -262h-155l78 262h155z" />
    <glyph glyph-name="Omegatonos" unicode="&#x38f;" horiz-adv-x="880" 
d="M680.5 635.5q83.5 -33.5 129 -93t45.5 -134.5q0 -31 -7 -59l-1 -10q-27 -147 -206 -187l-4 -18h179l-29 -134h-348l53 248q84 8 127.5 33t52.5 71l3 12q3 14 3 26q0 54 -52.5 84.5t-147.5 30.5q-98 0 -151.5 -28t-66.5 -87l-3 -12q-2 -8 -2 -23q0 -80 136 -107l-53 -248
h-346l31 137h177l6 29q-63 30 -96.5 78.5t-33.5 110.5q0 20 5 48l2 10q25 122 131 189t274 67q109 0 192.5 -33.5zM85 656l-78 -262h-155l78 262h155z" />
    <glyph glyph-name="iotadieresistonos" unicode="&#x390;" horiz-adv-x="329" 
d="M79.5 35q-42.5 35 -42.5 96q0 21 4 40l71 332h174l-73 -322q-1 -4 -1 -10q0 -25 36 -25h49l-32 -146h-68q-75 0 -117.5 35zM360 817l-79 -262h-154l78 262h155zM-44 579q-26 23 -26 62q0 44 28.5 69.5t69.5 25.5q38 0 64 -22t26 -60q0 -44 -28 -71t-69 -27q-39 0 -65 23z
M369.5 579q-25.5 23 -25.5 62q0 44 28 69.5t70 25.5q38 0 63.5 -22t25.5 -59q0 -45 -28 -72t-69 -27q-39 0 -64.5 23z" />
    <glyph glyph-name="Alpha" unicode="&#x391;" horiz-adv-x="770" 
d="M722 27l-6 -27h-168l-24 123h-303l-79 -123h-187l6 27l421 629h199zM496 268l-43 217l-139 -217h182z" />
    <glyph glyph-name="Beta" unicode="&#x392;" horiz-adv-x="785" 
d="M709.5 615q57.5 -41 57.5 -113q0 -20 -4 -39l-2 -10q-15 -85 -95 -127q58 -40 58 -108q0 -20 -4 -37l-2 -10q-17 -84 -87 -127.5t-191 -43.5h-427l146 656h389q104 0 161.5 -41zM306 507l-24 -109h220q73 0 82 49l2 10q1 4 1 11q0 19 -16 29t-45 10h-220zM549 223
q0 39 -61 39h-237l-25 -113h237q36 0 57.5 13.5t25.5 38.5l2 10q1 4 1 12z" />
    <glyph glyph-name="Gamma" unicode="&#x393;" horiz-adv-x="687" 
d="M762 656l-35 -154h-423l-111 -502h-180l146 656h603z" />
    <glyph glyph-name="uni0394" unicode="&#x394;" horiz-adv-x="773" 
d="M711 154l-33 -154h-695l33 154l353 502h215zM207 154h335l-89 354z" />
    <glyph glyph-name="Epsilon" unicode="&#x395;" horiz-adv-x="723" 
d="M757 656l-33 -149h-417l-25 -105h398l-32 -147h-398l-25 -106h418l-32 -149h-598l146 656h598z" />
    <glyph glyph-name="Zeta" unicode="&#x396;" horiz-adv-x="696" 
d="M712 499l-450 -345h372l-33 -154h-618l35 157l450 345h-372l33 154h618z" />
    <glyph glyph-name="Eta" unicode="&#x397;" horiz-adv-x="819" 
d="M339 656l-56 -251h320l57 251h180l-146 -656h-180l56 251h-321l-56 -251h-180l146 656h180z" />
    <glyph glyph-name="Theta" unicode="&#x398;" horiz-adv-x="877" 
d="M680 632.5q84 -36.5 129 -102t45 -150.5q0 -33 -8 -71l-1 -7q-31 -151 -139.5 -233t-278.5 -82q-111 0 -195.5 36.5t-130 102.5t-45.5 151q0 32 8 70l2 6q31 150 140 233t279 83q111 0 195 -36.5zM263 401h411q-9 55 -60 86t-136 31q-162 0 -215 -117zM566.5 167.5
q54.5 29.5 81.5 87.5h-411q8 -55 59 -86t136 -31q80 0 134.5 29.5z" />
    <glyph glyph-name="Iota" unicode="&#x399;" horiz-adv-x="299" 
d="M329 656l-146 -656h-180l146 656h180z" />
    <glyph glyph-name="Kappa" unicode="&#x39a;" horiz-adv-x="813" 
d="M861 629l-346 -270l191 -332l-6 -27h-178l-151 265l-143 -110l-35 -155h-180l146 656h180l-64 -286l370 286h222z" />
    <glyph glyph-name="Lambda" unicode="&#x39b;" horiz-adv-x="770" 
d="M721 27l-5 -27h-172l-90 478l-302 -478h-197l6 27l417 629h207z" />
    <glyph glyph-name="Mu" unicode="&#x39c;" horiz-adv-x="1029" 
d="M904 0h-178l90 403l-269 -403h-178l-89 402l-89 -402h-178l146 656h230l103 -458l302 458h256z" />
    <glyph glyph-name="Nu" unicode="&#x39d;" horiz-adv-x="819" 
d="M840 656l-146 -656h-165l-252 421l-94 -421h-170l146 656h166l251 -420l93 420h171z" />
    <glyph glyph-name="Xi" unicode="&#x39e;" horiz-adv-x="790" 
d="M537 507l-24 -105h233l-32 -147h-233l-24 -106h253l-33 -149h-677l32 149h254l24 106h-233l32 147h233l24 105h-253l33 149h677l-32 -149h-254z" />
    <glyph glyph-name="Omicron" unicode="&#x39f;" horiz-adv-x="877" 
d="M232 24q-84 37 -129.5 103t-45.5 152q0 34 7 68l2 6q31 150 140 233t278 83q111 0 195 -36.5t129.5 -102.5t45.5 -151q0 -32 -8 -70l-1 -7q-31 -150 -139.5 -232.5t-278.5 -82.5q-111 0 -195 37zM589 189.5q59 41.5 76 121.5l3 11q5 19 5 44q0 66 -52 104t-145 38
q-95 0 -153.5 -41.5t-77.5 -122.5l-3 -12q-6 -22 -6 -44q0 -65 52 -102.5t145 -37.5q97 0 156 41.5z" />
    <glyph glyph-name="Pi" unicode="&#x3a0;" horiz-adv-x="799" 
d="M820 656l-146 -656h-181l113 502h-300l-113 -502h-180l146 656h661z" />
    <glyph glyph-name="Rho" unicode="&#x3a1;" horiz-adv-x="787" 
d="M564 656q68 0 119.5 -23.5t79.5 -65t28 -95.5q0 -20 -5 -45l-2 -10q-42 -202 -288 -202h-255l-48 -215h-180l146 656h405zM605 428l2 10q2 12 2 16q0 25 -18 38.5t-52 13.5h-232l-33 -141h236q81 0 95 63z" />
    <glyph glyph-name="Sigma" unicode="&#x3a3;" horiz-adv-x="703" 
d="M709 502h-354l198 -129l-23 -101l-219 -117l319 -1l-34 -154h-608l33 154l332 181l-252 167l33 154h608z" />
    <glyph glyph-name="Tau" unicode="&#x3a4;" horiz-adv-x="691" 
d="M70 502l34 154h662l-33 -154h-237l-112 -502h-181l113 502h-246z" />
    <glyph glyph-name="Upsilon" unicode="&#x3a5;" horiz-adv-x="726" 
d="M809 629l-364 -378l-56 -251h-180l59 264l-199 365l6 27h172l134 -255l238 255h195z" />
    <glyph glyph-name="Phi" unicode="&#x3a6;" horiz-adv-x="1077" 
d="M908.5 581.5q69.5 -30.5 107 -85t37.5 -125.5q0 -32 -7 -61l-1 -6q-26 -127 -119 -193.5t-246 -66.5h-99l-18 -84h-178l19 84h-40q-93 0 -162 30.5t-106.5 85.5t-37.5 127q0 32 7 63l1 6q26 126 119 191t246 65h99l19 84h177l-19 -84h40q92 0 161.5 -30.5zM236 299
q0 -48 35 -74t101 -26h69l57 258h-80q-152 0 -176 -114l-2 -10q-4 -16 -4 -34zM874 359q0 47 -35 72.5t-101 25.5h-69l-57 -258h80q154 0 176 117l2 10q4 16 4 33z" />
    <glyph glyph-name="Chi" unicode="&#x3a7;" horiz-adv-x="819" 
d="M867 629l-322 -309l188 -293l-6 -27h-188l-128 211l-212 -211h-219l6 27l322 309l-188 293l6 27h187l129 -211l212 211h219z" />
    <glyph glyph-name="Psi" unicode="&#x3a8;" horiz-adv-x="1057" 
d="M1100 656l-61 -264q-56 -240 -341 -240h-100l-34 -152h-181l34 152h-41q-89 0 -155.5 27t-102 75.5t-35.5 113.5q0 24 6 51l50 237h180l-52 -235q-4 -22 -4 -31q0 -41 29 -62.5t84 -21.5h75l78 350h181l-78 -350h84q63 0 98 25.5t48 78.5l58 246h180z" />
    <glyph glyph-name="uni03A9" unicode="&#x3a9;" horiz-adv-x="880" 
d="M680.5 635.5q83.5 -33.5 129 -93t45.5 -134.5q0 -31 -7 -59l-1 -10q-27 -147 -206 -187l-4 -18h179l-29 -134h-348l53 248q84 8 127.5 33t52.5 71l3 12q3 14 3 26q0 54 -52.5 84.5t-147.5 30.5q-98 0 -151.5 -28t-66.5 -87l-3 -12q-2 -8 -2 -23q0 -80 136 -107l-53 -248
h-346l31 137h177l6 29q-63 30 -96.5 78.5t-33.5 110.5q0 20 5 48l2 10q25 122 131 189t274 67q109 0 192.5 -33.5z" />
    <glyph glyph-name="Iotadieresis" unicode="&#x3aa;" horiz-adv-x="299" 
d="M329 656l-146 -656h-180l146 656h180zM72.5 732q-26.5 23 -26.5 61q0 44 28.5 70t70.5 26q39 0 65.5 -22t26.5 -60q0 -44 -29 -71t-70 -27q-39 0 -65.5 23zM333.5 732q-26.5 23 -26.5 61q0 44 28.5 70t70.5 26q39 0 65 -22t26 -58q0 -46 -28.5 -73t-69.5 -27
q-39 0 -65.5 23z" />
    <glyph glyph-name="Upsilondieresis" unicode="&#x3ab;" horiz-adv-x="726" 
d="M809 629l-364 -378l-56 -251h-180l59 264l-199 365l6 27h172l134 -255l238 255h195zM275.5 732q-26.5 23 -26.5 61q0 44 28.5 70t70.5 26q39 0 65.5 -22t26.5 -60q0 -44 -29 -71t-70 -27q-39 0 -65.5 23zM536.5 732q-26.5 23 -26.5 61q0 44 28.5 70t70.5 26q39 0 65 -22
t26 -58q0 -46 -28.5 -73t-69.5 -27q-39 0 -65.5 23z" />
    <glyph glyph-name="alphatonos" unicode="&#x3ac;" horiz-adv-x="737" 
d="M630 170q0 -24 32 -24h41l-32 -146h-80q-37 0 -67 13t-48 36q-69 -62 -180 -62q-79 0 -139 28t-92.5 79t-32.5 117q0 27 4 48l3 11q19 116 99 181t203 65q58 0 105 -16.5t79 -47.5l17 51h162l-73 -323q-1 -4 -1 -10zM210 229q0 -41 32 -65.5t88 -24.5q40 0 74 12.5
t57 35.5l28 128q-18 23 -52.5 36t-77.5 13q-62 0 -99 -26.5t-46 -76.5l-2 -10q-2 -16 -2 -22zM535 817l-78 -262h-155l78 262h155z" />
    <glyph glyph-name="epsilontonos" unicode="&#x3ad;" horiz-adv-x="684" 
d="M578 466.5q74 -49.5 74 -138.5q0 -18 -3 -38l-1 -4h-163l1 4q2 9 2 24q0 38 -28 56.5t-87 18.5q-112 0 -119 -38l-2 -7q-8 -35 53 -35h131l-25 -112h-141q-32 0 -49 -7t-20 -23l-1 -7q-4 -22 25.5 -34.5t87.5 -12.5q57 0 88.5 9.5t46 28t20.5 48.5v4h171v-4
q-19 -111 -97.5 -161.5t-233.5 -50.5q-134 0 -209 39.5t-75 108.5q0 14 3 29l2 9q12 70 92 98q-35 32 -35 77q0 16 2 24l1 9q11 64 84.5 99.5t195.5 35.5q135 0 209 -49.5zM535 817l-78 -262h-155l78 262h155z" />
    <glyph glyph-name="etatonos" unicode="&#x3ae;" horiz-adv-x="733" 
d="M617 460q64 -56 64 -152q0 -31 -8 -69l-90 -409h-174l94 418q4 22 4 31q0 40 -27 62.5t-75 22.5q-42 0 -77 -17t-59 -49l-65 -298h-173l73 322q1 4 1 10q0 24 -33 24h-41l32 147h83q76 0 114 -43q72 56 181 56q112 0 176 -56zM601 817l-78 -262h-155l78 262h155z" />
    <glyph glyph-name="iotatonos" unicode="&#x3af;" horiz-adv-x="329" 
d="M79.5 35q-42.5 35 -42.5 96q0 21 4 40l71 332h174l-73 -322q-1 -4 -1 -10q0 -25 36 -25h49l-32 -146h-68q-75 0 -117.5 35zM359 817l-78 -262h-155l78 262h155z" />
    <glyph glyph-name="upsilondieresistonos" unicode="&#x3b0;" horiz-adv-x="704" 
d="M188.5 15q-61.5 28 -94 78.5t-32.5 117.5q0 29 6 60l47 232h174l-55 -251q-3 -15 -3 -30q0 -41 28.5 -64t80.5 -23q51 0 83 26t43 75l62 267h174l-68 -281q-27 -115 -102.5 -175t-197.5 -60q-84 0 -145.5 28zM572 817l-79 -262h-154l78 262h155zM168 579q-26 23 -26 62
q0 44 28.5 69.5t69.5 25.5q38 0 64 -22t26 -60q0 -44 -28 -71t-69 -27q-39 0 -65 23zM581.5 579q-25.5 23 -25.5 62q0 44 28 69.5t70 25.5q38 0 63.5 -22t25.5 -59q0 -45 -28 -72t-69 -27q-39 0 -64.5 23z" />
    <glyph glyph-name="alpha" unicode="&#x3b1;" horiz-adv-x="737" 
d="M630 170q0 -24 32 -24h41l-32 -146h-80q-37 0 -67 13t-48 36q-69 -62 -180 -62q-79 0 -139 28t-92.5 79t-32.5 117q0 27 4 48l3 11q19 116 99 181t203 65q58 0 105 -16.5t79 -47.5l17 51h162l-73 -323q-1 -4 -1 -10zM210 229q0 -41 32 -65.5t88 -24.5q40 0 74 12.5
t57 35.5l28 128q-18 23 -52.5 36t-77.5 13q-62 0 -99 -26.5t-46 -76.5l-2 -10q-2 -16 -2 -22z" />
    <glyph glyph-name="beta" unicode="&#x3b2;" horiz-adv-x="723" 
d="M586 683q63 -26 98 -71t35 -101q0 -22 -4 -39l-3 -12q-16 -87 -103 -121q65 -46 65 -125q0 -17 -3 -35l-3 -12q-15 -86 -86.5 -133t-189.5 -47q-126 0 -198 57l-48 -214h-173l150 651q26 112 106.5 170t213.5 58q80 0 143 -26zM509 228q0 24 -20.5 38t-56.5 14h-101
l29 135h98q76 0 88 54l2 8q2 6 2 17q0 30 -29.5 47t-83.5 17q-64 0 -101 -24.5t-48 -74.5l-61 -269q20 -25 57.5 -38.5t88.5 -13.5q117 0 132 67l2 7q2 12 2 16z" />
    <glyph glyph-name="gamma" unicode="&#x3b3;" horiz-adv-x="695" 
d="M740 480l-364 -496l-34 -154h-174l34 154l-144 496l6 23h168l89 -327l235 327h189z" />
    <glyph glyph-name="delta" unicode="&#x3b4;" horiz-adv-x="685" 
d="M666 550h-292l139 -90q63 -41 94.5 -92.5t31.5 -109.5q0 -26 -6 -53l-2 -9q-18 -99 -97.5 -154t-205.5 -55q-89 0 -155 28.5t-102 79t-36 116.5q0 28 6 56l2 10q30 153 214 181l-131 91l32 147h540zM470 257q0 25 -14.5 46.5t-47.5 47.5q-7 1 -23 1q-80 0 -121 -23.5
t-51 -74.5l-2 -6q-3 -12 -3 -24q0 -44 34 -71t91 -27q54 0 88 24t43 69l1 6q5 18 5 32z" />
    <glyph glyph-name="epsilon" unicode="&#x3b5;" horiz-adv-x="684" 
d="M578 466.5q74 -49.5 74 -138.5q0 -18 -3 -38l-1 -4h-163l1 4q2 9 2 24q0 38 -28 56.5t-87 18.5q-112 0 -119 -38l-2 -7q-8 -35 53 -35h131l-25 -112h-141q-32 0 -49 -7t-20 -23l-1 -7q-4 -22 25.5 -34.5t87.5 -12.5q57 0 88.5 9.5t46 28t20.5 48.5v4h171v-4
q-19 -111 -97.5 -161.5t-233.5 -50.5q-134 0 -209 39.5t-75 108.5q0 14 3 29l2 9q12 70 92 98q-35 32 -35 77q0 16 2 24l1 9q11 64 84.5 99.5t195.5 35.5q135 0 209 -49.5z" />
    <glyph glyph-name="zeta" unicode="&#x3b6;" horiz-adv-x="599" 
d="M194 212q-1 -4 -1 -12q0 -26 21 -40t59 -14h93q81 0 125.5 -35.5t44.5 -97.5q0 -17 -5 -42l-2 -11q-14 -68 -59 -99t-131 -31h-162l28 127h131q16 0 23.5 3.5t9.5 12.5l1 5q2 10 -5 16t-22 6h-85q-112 0 -175 47t-63 128q0 21 4 40l3 14q12 65 57 114.5t152 112.5l159 94
h-285l32 146h553l-30 -142l-340 -206q-50 -30 -75.5 -49.5t-37 -37t-16.5 -40.5z" />
    <glyph glyph-name="eta" unicode="&#x3b7;" horiz-adv-x="733" 
d="M617 460q64 -56 64 -152q0 -31 -8 -69l-90 -409h-174l94 418q4 22 4 31q0 40 -27 62.5t-75 22.5q-42 0 -77 -17t-59 -49l-65 -298h-173l73 322q1 4 1 10q0 24 -33 24h-41l32 147h83q76 0 114 -43q72 56 181 56q112 0 176 -56z" />
    <glyph glyph-name="theta" unicode="&#x3b8;" horiz-adv-x="675" 
d="M540.5 641.5q62.5 -27.5 96 -78.5t33.5 -118q0 -31 -7 -62l-35 -162q-24 -113 -104.5 -173.5t-205.5 -60.5q-85 0 -148.5 28t-97.5 79t-34 118q0 31 7 60l36 162q26 114 105.5 174.5t205.5 60.5q86 0 148.5 -27.5zM287.5 503q-38.5 -27 -48.5 -77l-6 -26h274l2 7
q3 15 3 28q0 43 -33.5 69t-92.5 26q-60 0 -98.5 -27zM421 156.5q39 27.5 50 78.5l6 27h-274l-2 -7q-4 -15 -4 -31q0 -44 33.5 -69.5t91.5 -25.5q60 0 99 27.5z" />
    <glyph glyph-name="iota" unicode="&#x3b9;" horiz-adv-x="329" 
d="M79.5 35q-42.5 35 -42.5 96q0 21 4 40l71 332h174l-73 -322q-1 -4 -1 -10q0 -25 36 -25h49l-32 -146h-68q-75 0 -117.5 35z" />
    <glyph glyph-name="kappa" unicode="&#x3ba;" horiz-adv-x="681" 
d="M718 480l-246 -198l153 -258l-5 -24h-173l-109 186l-135 -101l-19 -85h-174l113 503h173l-46 -207l264 207h209z" />
    <glyph glyph-name="lambda" unicode="&#x3bb;" horiz-adv-x="705" 
d="M645 25l-5 -24h-170l-87 318l-230 -318h-191l5 24l361 491q-7 19 -20.5 26.5t-39.5 7.5h-160l32 146h141q90 0 137 -34t70 -112z" />
    <glyph glyph-name="uni03BC" unicode="&#x3bc;" horiz-adv-x="740" 
d="M709 146l-31 -146h-82q-41 0 -72 13t-49 38q-27 -30 -66.5 -47t-84.5 -17q-40 0 -74 13t-58 37l-46 -207h-174l150 673h174l-56 -248q-3 -15 -3 -29q0 -41 28 -64t76 -23q41 0 71 16t53 47l69 301h174l-72 -322q-2 -10 -2 -13q0 -22 32 -22h43z" />
    <glyph glyph-name="nu" unicode="&#x3bd;" horiz-adv-x="697" 
d="M741 503l-6 -23l-335 -480h-225l-122 480l5 23h173l80 -343l234 343h196z" />
    <glyph glyph-name="xi" unicode="&#x3be;" horiz-adv-x="663" 
d="M575 684q65 -25 101 -69t36 -100q0 -19 -5 -42l-1 -3h-175l1 3q3 11 3 19q0 32 -31 49t-89 17q-56 0 -89.5 -17.5t-40.5 -49.5l-2 -8q-2 -10 -2 -15q0 -26 20 -41.5t54 -15.5h165l-29 -136h-204q-73 0 -84 -53l-2 -9q-2 -10 -2 -15q0 -52 100 -52h123q81 0 125.5 -35.5
t44.5 -97.5q0 -17 -5 -42l-2 -11q-13 -68 -58 -99t-132 -31h-164l29 127h132q16 0 23.5 4t9.5 12l1 5q5 22 -27 22h-110q-80 0 -139 22t-90.5 61.5t-31.5 92.5q0 18 5 43l3 14q21 100 121 136q-45 42 -45 104q0 21 4 38l3 17q17 83 99 132t207 49q85 0 150 -25z" />
    <glyph glyph-name="omicron" unicode="&#x3bf;" horiz-adv-x="685" 
d="M172.5 16q-66.5 29 -102 81t-35.5 121q0 22 5 50l2 11q19 113 101.5 175t214.5 62q89 0 155 -28.5t101 -80.5t35 -121q0 -23 -5 -53l-2 -11q-19 -112 -100 -173.5t-213 -61.5q-90 0 -156.5 29zM424.5 163.5q34.5 25.5 43.5 73.5l2 8q3 14 3 26q0 43 -32.5 68.5
t-88.5 25.5q-57 0 -92 -26t-44 -76l-2 -7q-2 -8 -2 -24q0 -43 32.5 -68.5t89.5 -25.5q56 0 90.5 25.5z" />
    <glyph glyph-name="pi" unicode="&#x3c0;" horiz-adv-x="814" 
d="M35 356l31 147h798l-31 -147h-153l-40 -169q-2 -10 -2 -13q0 -28 39 -28h90l-32 -146h-95q-81 0 -128 36.5t-47 105.5q0 26 5 47l36 167h-161l-81 -356h-174l81 356h-136z" />
    <glyph glyph-name="rho" unicode="&#x3c1;" horiz-adv-x="704" 
d="M536.5 487q64.5 -29 99 -81t34.5 -120q0 -24 -7 -61l-2 -9q-20 -107 -97.5 -168t-193.5 -61t-180 58l-49 -215h-175l106 452q26 113 106 173.5t208 60.5q86 0 150.5 -29zM497 273q0 43 -32 67.5t-89 24.5q-113 0 -137 -103l-17 -74q18 -23 53 -36t78 -13q119 0 139 98
l2 10q3 14 3 26z" />
    <glyph glyph-name="uni03C2" unicode="&#x3c2;" horiz-adv-x="665" 
d="M370 -43q16 0 23.5 3.5t9.5 12.5l1 5q2 10 -5 16t-22 6h-82q-80 0 -139 27t-90.5 75t-31.5 111q0 21 5 51l4 19q21 111 103 172t211 61q84 0 150 -27.5t102.5 -76t36.5 -108.5q0 -20 -2 -30l-2 -7h-176l1 7q1 5 1 14q0 35 -30.5 56t-81.5 21q-118 0 -139 -94l-4 -19
q-3 -13 -3 -27q0 -37 28.5 -58t81.5 -21h80q81 0 125.5 -35.5t44.5 -97.5q0 -17 -5 -42l-2 -11q-13 -67 -58 -98.5t-132 -31.5h-163l29 127h131z" />
    <glyph glyph-name="sigma" unicode="&#x3c3;" horiz-adv-x="735" 
d="M758 356h-153q39 -40 39 -103q0 -17 -3 -35l-2 -12q-19 -103 -101 -161t-209 -58q-89 0 -155.5 29t-102.5 81.5t-36 120.5q0 22 5 50l3 12q20 111 101.5 167t224.5 56h421zM473 268q0 46 -43 88h-72q-63 0 -98 -23.5t-44 -71.5l-2 -8q-2 -8 -2 -23q0 -42 32.5 -67.5
t89.5 -25.5q56 0 90.5 25.5t43.5 73.5l2 7q3 14 3 25z" />
    <glyph glyph-name="tau" unicode="&#x3c4;" horiz-adv-x="572" 
d="M199.5 39.5q-45.5 39.5 -45.5 107.5q0 20 5 47l34 162h-158l32 147h541l-33 -147h-209l-39 -166q-2 -8 -2 -12q0 -16 11.5 -24t32.5 -8h128l-31 -146h-137q-84 0 -129.5 39.5z" />
    <glyph glyph-name="upsilon" unicode="&#x3c5;" horiz-adv-x="704" 
d="M188.5 15q-61.5 28 -94 78.5t-32.5 117.5q0 29 6 60l47 232h174l-55 -251q-3 -15 -3 -30q0 -41 28.5 -64t80.5 -23q51 0 83 26t43 75l62 267h174l-68 -281q-27 -115 -102.5 -175t-197.5 -60q-84 0 -145.5 28z" />
    <glyph glyph-name="phi" unicode="&#x3c6;" horiz-adv-x="968" 
d="M799.5 476q63.5 -27 97.5 -76.5t34 -114.5q0 -22 -5 -52l-3 -14q-19 -107 -100.5 -163t-219.5 -56h-89l-37 -170h-173l37 170h-24q-86 0 -149 27t-97 76.5t-34 114.5q0 22 5 52l3 14q18 107 99.5 163t220.5 56h89l43 193h173l-43 -193h23q86 0 149.5 -27zM377 146l48 212
h-70q-123 0 -141 -88l-2 -10q-4 -15 -4 -31q0 -39 28.5 -61t79.5 -22h61zM760 274q0 39 -28.5 61.5t-79.5 22.5h-60l-48 -212h69q123 0 141 88l2 9q4 15 4 31z" />
    <glyph glyph-name="chi" unicode="&#x3c7;" horiz-adv-x="656" 
d="M688 480l-277 -323l144 -303l-6 -24h-168l-91 216l-179 -216h-194l6 24l281 321l-139 305l6 23h167l88 -213l174 213h194z" />
    <glyph glyph-name="psi" unicode="&#x3c8;" horiz-adv-x="898" 
d="M894 503l-65 -274q-28 -116 -105.5 -172.5t-213.5 -56.5h-31l-38 -170h-174l38 171q-115 7 -180.5 64t-65.5 148q0 27 6 55l48 235h174l-52 -236q-4 -17 -4 -36q0 -83 106 -84l122 549h174l-122 -549h13q58 0 90.5 24.5t44.5 76.5l61 255h174z" />
    <glyph glyph-name="omega" unicode="&#x3c9;" horiz-adv-x="968" 
d="M813 476.5q57 -26.5 87 -75t30 -112.5q0 -30 -8 -68l-3 -11q-21 -104 -96 -163.5t-186 -59.5q-59 0 -103.5 19t-71.5 53q-70 -72 -189 -72q-72 0 -126 27t-83.5 75.5t-29.5 110.5q0 29 8 64l3 11q24 116 103 172t217 56h47l-32 -145h-32q-57 0 -92 -24.5t-45 -72.5l-2 -9
q-5 -22 -5 -35q0 -38 25 -59.5t69 -21.5q55 0 84 38l43 193h171l-43 -191q10 -19 31.5 -30t51.5 -11q47 0 77 24.5t40 69.5l2 9q4 16 4 34q0 41 -27 63.5t-77 22.5h-27l32 145h19q77 0 134 -26.5z" />
    <glyph glyph-name="iotadieresis" unicode="&#x3ca;" horiz-adv-x="329" 
d="M79.5 35q-42.5 35 -42.5 96q0 21 4 40l71 332h174l-73 -322q-1 -4 -1 -10q0 -25 36 -25h49l-32 -146h-68q-75 0 -117.5 35zM30.5 579q-26.5 23 -26.5 61q0 44 28.5 70t70.5 26q39 0 65.5 -22t26.5 -60q0 -44 -29 -71t-70 -27q-39 0 -65.5 23zM291.5 579
q-26.5 23 -26.5 61q0 44 28.5 70t70.5 26q39 0 65 -22t26 -58q0 -46 -28.5 -73t-69.5 -27q-39 0 -65.5 23z" />
    <glyph glyph-name="upsilondieresis" unicode="&#x3cb;" horiz-adv-x="704" 
d="M188.5 15q-61.5 28 -94 78.5t-32.5 117.5q0 29 6 60l47 232h174l-55 -251q-3 -15 -3 -30q0 -41 28.5 -64t80.5 -23q51 0 83 26t43 75l62 267h174l-68 -281q-27 -115 -102.5 -175t-197.5 -60q-84 0 -145.5 28zM243.5 579q-26.5 23 -26.5 61q0 44 28.5 70t70.5 26
q39 0 65.5 -22t26.5 -60q0 -44 -29 -71t-70 -27q-39 0 -65.5 23zM504.5 579q-26.5 23 -26.5 61q0 44 28.5 70t70.5 26q39 0 65 -22t26 -58q0 -46 -28.5 -73t-69.5 -27q-39 0 -65.5 23z" />
    <glyph glyph-name="omicrontonos" unicode="&#x3cc;" horiz-adv-x="685" 
d="M172.5 16q-66.5 29 -102 81t-35.5 121q0 22 5 50l2 11q19 113 101.5 175t214.5 62q89 0 155 -28.5t101 -80.5t35 -121q0 -23 -5 -53l-2 -11q-19 -112 -100 -173.5t-213 -61.5q-90 0 -156.5 29zM424.5 163.5q34.5 25.5 43.5 73.5l2 8q3 14 3 26q0 43 -32.5 68.5
t-88.5 25.5q-57 0 -92 -26t-44 -76l-2 -7q-2 -8 -2 -24q0 -43 32.5 -68.5t89.5 -25.5q56 0 90.5 25.5zM531 817l-78 -262h-155l78 262h155z" />
    <glyph glyph-name="upsilontonos" unicode="&#x3cd;" horiz-adv-x="704" 
d="M188.5 15q-61.5 28 -94 78.5t-32.5 117.5q0 29 6 60l47 232h174l-55 -251q-3 -15 -3 -30q0 -41 28.5 -64t80.5 -23q51 0 83 26t43 75l62 267h174l-68 -281q-27 -115 -102.5 -175t-197.5 -60q-84 0 -145.5 28zM572 817l-78 -262h-155l78 262h155z" />
    <glyph glyph-name="omegatonos" unicode="&#x3ce;" horiz-adv-x="968" 
d="M813 476.5q57 -26.5 87 -75t30 -112.5q0 -30 -8 -68l-3 -11q-21 -104 -96 -163.5t-186 -59.5q-59 0 -103.5 19t-71.5 53q-70 -72 -189 -72q-72 0 -126 27t-83.5 75.5t-29.5 110.5q0 29 8 64l3 11q24 116 103 172t217 56h47l-32 -145h-32q-57 0 -92 -24.5t-45 -72.5l-2 -9
q-5 -22 -5 -35q0 -38 25 -59.5t69 -21.5q55 0 84 38l43 193h171l-43 -191q10 -19 31.5 -30t51.5 -11q47 0 77 24.5t40 69.5l2 9q4 16 4 34q0 41 -27 63.5t-77 22.5h-27l32 145h19q77 0 134 -26.5zM698 817l-78 -262h-155l78 262h155z" />
    <glyph glyph-name="uni0400" unicode="&#x400;" horiz-adv-x="723" 
d="M757 656l-33 -149h-417l-25 -105h398l-32 -147h-398l-25 -106h418l-32 -149h-598l146 656h598zM287 900l432 -63l-28 -132l-432 63z" />
    <glyph glyph-name="uni0401" unicode="&#x401;" horiz-adv-x="723" 
d="M757 656l-33 -149h-417l-25 -105h398l-32 -147h-398l-25 -106h418l-32 -149h-598l146 656h598zM289.5 732q-26.5 23 -26.5 61q0 44 28.5 70t70.5 26q39 0 65.5 -22t26.5 -60q0 -44 -29 -71t-70 -27q-39 0 -65.5 23zM550.5 732q-26.5 23 -26.5 61q0 44 28.5 70t70.5 26
q39 0 65 -22t26 -58q0 -46 -28.5 -73t-69.5 -27q-39 0 -65.5 23z" />
    <glyph glyph-name="uni0402" unicode="&#x402;" horiz-adv-x="944" 
d="M817.5 366q75.5 -49 75.5 -137q0 -11 -4 -39l-2 -12q-14 -90 -86.5 -134t-208.5 -44h-139l31 143h107q63 0 90.5 12t33.5 41l2 9q2 10 2 13q0 54 -134 54q-62 0 -172 -9l-59 -263h-181l112 502h-215l34 154h655l-33 -154h-260l-22 -98q86 11 162 11q136 0 211.5 -49z" />
    <glyph glyph-name="uni0403" unicode="&#x403;" horiz-adv-x="627" 
d="M702 656l-33 -154h-363l-113 -502h-180l146 656h543zM727 903l-32 -139l-461 -64l32 140z" />
    <glyph glyph-name="uni0404" unicode="&#x404;" horiz-adv-x="874" 
d="M678 634.5q85 -34.5 132.5 -94t47.5 -133.5q0 -19 -3 -39l-1 -4h-179l1 4q2 14 2 21q0 36 -24.5 65t-69.5 45t-104 16q-83 0 -138.5 -30t-80.5 -88h326l-29 -139h-320q9 -56 60.5 -86.5t138.5 -30.5q92 0 150 32.5t68 89.5v5h185l-1 -5q-14 -83 -69 -145.5t-142.5 -96.5
t-196.5 -34q-113 0 -197.5 36.5t-130 102.5t-45.5 152q0 32 8 72l2 8q30 148 139 229.5t278 81.5q108 0 193 -34.5z" />
    <glyph glyph-name="uni0405" unicode="&#x405;" horiz-adv-x="771" 
d="M120.5 36.5q-80.5 49.5 -80.5 139.5q0 18 5 45l2 10h176l-2 -10q-2 -10 -2 -15q0 -35 39 -53.5t112 -18.5q144 0 155 56l1 7q1 3 1 9q0 17 -17.5 27.5t-54.5 17.5l-159 27q-90 15 -137 56t-47 103q0 21 4 38l2 10q18 91 101.5 137.5t230.5 46.5q145 0 224.5 -48
t79.5 -135q0 -21 -4 -40l-2 -8h-174l1 8q1 4 1 13q0 63 -139 63q-136 0 -145 -50l-1 -7q-4 -18 12 -29t55 -18l161 -27q93 -16 141.5 -57.5t48.5 -104.5q0 -18 -5 -41l-3 -11q-18 -94 -106 -142t-245 -48q-149 0 -229.5 49.5z" />
    <glyph glyph-name="uni0406" unicode="&#x406;" horiz-adv-x="299" 
d="M329 656l-146 -656h-180l146 656h180z" />
    <glyph glyph-name="uni0407" unicode="&#x407;" horiz-adv-x="299" 
d="M329 656l-146 -656h-180l146 656h180zM72.5 732q-26.5 23 -26.5 61q0 44 28.5 70t70.5 26q39 0 65.5 -22t26.5 -60q0 -44 -29 -71t-70 -27q-39 0 -65.5 23zM333.5 732q-26.5 23 -26.5 61q0 44 28.5 70t70.5 26q39 0 65 -22t26 -58q0 -46 -28.5 -73t-69.5 -27
q-39 0 -65.5 23z" />
    <glyph glyph-name="uni0408" unicode="&#x408;" horiz-adv-x="749" 
d="M187 19q-70 32 -108.5 89t-38.5 131q0 27 6 57l7 32h178l-6 -32q-5 -23 -5 -39q0 -52 34 -80.5t97 -28.5q70 0 110 34t57 108l49 212h-283l33 154h464l-94 -391q-66 -278 -337 -278q-93 0 -163 32z" />
    <glyph glyph-name="uni0409" unicode="&#x409;" horiz-adv-x="1240" 
d="M1132 391.5q62 -50.5 62 -133.5q0 -25 -6 -52l-3 -14q-37 -191 -275 -191h-425l112 501h-244l-62 -244q-34 -135 -99 -196.5t-179 -61.5h-69l35 158h26q54 0 83 28.5t46 97.5l92 372h585l-48 -214h199q108 0 170 -50.5zM1016 240q0 25 -18.5 38.5t-54.5 13.5h-212
l-33 -142h223q40 0 61.5 15t28.5 47l3 12q2 12 2 16z" />
    <glyph glyph-name="uni040A" unicode="&#x40a;" horiz-adv-x="1276" 
d="M339 656l-54 -241h326l54 241h180l-51 -230h199q109 0 171 -49.5t62 -132.5q0 -24 -6 -51l-2 -11q-17 -90 -84 -136t-183 -46h-432l58 261h-326l-58 -261h-180l146 656h180zM1017.5 161q21.5 13 27.5 42l2 12q2 10 2 16q0 23 -18.5 36t-52.5 13h-215l-31 -132h224
q40 0 61.5 13z" />
    <glyph glyph-name="uni040B" unicode="&#x40b;" horiz-adv-x="960" 
d="M815 363.5q74 -55.5 74 -154.5q0 -28 -6 -60l-30 -149h-180l32 148q4 16 4 33q0 44 -35 66t-108 22q-64 0 -154 -8l-58 -261h-181l112 502h-215l34 154h655l-33 -154h-260l-21 -94q83 11 158 11q138 0 212 -55.5z" />
    <glyph glyph-name="uni040C" unicode="&#x40c;" horiz-adv-x="803" 
d="M849 629l-333 -300l182 -302l-6 -27h-177l-145 252h-121l-56 -252h-180l146 656h180l-55 -249h88l265 249h218zM765 903l-32 -139l-461 -64l32 140z" />
    <glyph glyph-name="uni040D" unicode="&#x40d;" horiz-adv-x="819" 
d="M336 656l-86 -402l410 402h179l-146 -656h-178l88 402l-411 -402h-179l146 656h177zM330 900l432 -63l-28 -132l-432 63z" />
    <glyph glyph-name="uni040E" unicode="&#x40e;" horiz-adv-x="759" 
d="M844 656l-6 -27l-363 -482q-43 -57 -78.5 -88t-74.5 -45t-92 -14h-171l33 154h141q31 0 51 12l-177 463l6 27h172l119 -341l242 341h198zM363.5 742q-54.5 38 -54.5 105q0 15 3 30l1 9h142l-2 -9q-4 -23 15 -35t58 -12q71 0 81 47l1 9h151l-2 -9q-18 -88 -77.5 -130.5
t-163.5 -42.5q-98 0 -152.5 38z" />
    <glyph glyph-name="uni040F" unicode="&#x40f;" horiz-adv-x="799" 
d="M674 0h-233l-32 -143h-179l31 143h-248l146 656h180l-113 -502h301l112 502h181z" />
    <glyph glyph-name="uni0410" unicode="&#x410;" horiz-adv-x="770" 
d="M722 27l-6 -27h-168l-24 123h-303l-79 -123h-187l6 27l421 629h199zM496 268l-43 217l-139 -217h182z" />
    <glyph glyph-name="uni0411" unicode="&#x411;" horiz-adv-x="785" 
d="M777 656l-31 -148h-439l-24 -106h213q108 0 169.5 -46t61.5 -124q0 -19 -5 -44l-3 -11q-17 -89 -83 -133t-186 -44h-437l146 656h618zM545 197l2 11q2 10 2 14q0 22 -18.5 34t-54.5 12h-222l-29 -120h233q78 0 87 49z" />
    <glyph glyph-name="uni0412" unicode="&#x412;" horiz-adv-x="785" 
d="M709.5 615q57.5 -41 57.5 -113q0 -20 -4 -39l-2 -10q-15 -85 -95 -127q58 -40 58 -108q0 -20 -4 -37l-2 -10q-17 -84 -87 -127.5t-191 -43.5h-427l146 656h389q104 0 161.5 -41zM306 507l-24 -109h220q73 0 82 49l2 10q1 4 1 11q0 19 -16 29t-45 10h-220zM549 223
q0 39 -61 39h-237l-25 -113h237q36 0 57.5 13.5t25.5 38.5l2 10q1 4 1 12z" />
    <glyph glyph-name="uni0413" unicode="&#x413;" horiz-adv-x="627" 
d="M702 656l-33 -154h-363l-113 -502h-180l146 656h543z" />
    <glyph glyph-name="uni0414" unicode="&#x414;" horiz-adv-x="867" 
d="M725 154h101l-63 -287h-181l30 133h-476l-30 -133h-180l63 287h82q71 86 100 205l72 297h594zM299.5 238q-19.5 -46 -47.5 -84h296l78 348l-251 -1l-40 -156q-16 -61 -35.5 -107z" />
    <glyph glyph-name="uni0415" unicode="&#x415;" horiz-adv-x="723" 
d="M757 656l-33 -149h-417l-25 -105h398l-32 -147h-398l-25 -106h418l-32 -149h-598l146 656h598z" />
    <glyph glyph-name="uni0416" unicode="&#x416;" horiz-adv-x="1257" 
d="M1303 629l-317 -310l170 -292l-6 -27h-177l-143 252h-112l-56 -252h-180l56 252h-98l-235 -252h-207l6 27l301 321l-184 281l6 27h183l156 -249h107l55 249h180l-55 -249h94l247 249h215z" />
    <glyph glyph-name="uni0417" unicode="&#x417;" horiz-adv-x="833" 
d="M653.5 645q75.5 -24 116 -67t40.5 -99q0 -10 -4 -34l-2 -11q-15 -77 -95 -114q61 -40 61 -105q0 -13 -3 -28l-2 -11q-17 -90 -111 -139.5t-248 -49.5q-110 0 -189.5 28.5t-121.5 81.5t-42 125q0 22 5 52l2 7h174l-1 -7q-3 -16 -3 -30q0 -103 190 -103q78 0 121.5 15
t48.5 44l2 10q1 4 1 11q0 23 -31 32t-110 9h-133l29 134h134q77 0 109.5 10t37.5 35l2 10q7 30 -34.5 47t-121.5 17q-96 0 -147 -30t-64 -94l-2 -7h-180l2 7q30 140 128 209t266 69q100 0 175.5 -24z" />
    <glyph glyph-name="uni0418" unicode="&#x418;" horiz-adv-x="819" 
d="M336 656l-86 -402l410 402h179l-146 -656h-178l88 402l-411 -402h-179l146 656h177z" />
    <glyph glyph-name="uni0419" unicode="&#x419;" horiz-adv-x="819" 
d="M336 656l-86 -402l410 402h179l-146 -656h-178l88 402l-411 -402h-179l146 656h177zM378.5 742q-54.5 38 -54.5 105q0 15 3 30l1 9h142l-2 -9q-4 -23 15 -35t58 -12q71 0 81 47l1 9h151l-2 -9q-18 -88 -77.5 -130.5t-163.5 -42.5q-98 0 -152.5 38z" />
    <glyph glyph-name="uni041A" unicode="&#x41a;" horiz-adv-x="803" 
d="M849 629l-333 -300l182 -302l-6 -27h-177l-145 252h-121l-56 -252h-180l146 656h180l-55 -249h88l265 249h218z" />
    <glyph glyph-name="uni041B" unicode="&#x41b;" horiz-adv-x="794" 
d="M669 0h-181l113 502l-248 -1l-62 -243q-34 -135 -99 -196.5t-179 -61.5h-69l35 158h26q54 0 83 28.5t46 97.5l92 372h589z" />
    <glyph glyph-name="uni041C" unicode="&#x41c;" horiz-adv-x="1029" 
d="M904 0h-178l90 403l-269 -403h-178l-89 402l-89 -402h-178l146 656h230l103 -458l302 458h256z" />
    <glyph glyph-name="uni041D" unicode="&#x41d;" horiz-adv-x="819" 
d="M339 656l-56 -251h320l57 251h180l-146 -656h-180l56 251h-321l-56 -251h-180l146 656h180z" />
    <glyph glyph-name="uni041E" unicode="&#x41e;" horiz-adv-x="877" 
d="M232 24q-84 37 -129.5 103t-45.5 152q0 34 7 68l2 6q31 150 140 233t278 83q111 0 195 -36.5t129.5 -102.5t45.5 -151q0 -32 -8 -70l-1 -7q-31 -150 -139.5 -232.5t-278.5 -82.5q-111 0 -195 37zM589 189.5q59 41.5 76 121.5l3 11q5 19 5 44q0 66 -52 104t-145 38
q-95 0 -153.5 -41.5t-77.5 -122.5l-3 -12q-6 -22 -6 -44q0 -65 52 -102.5t145 -37.5q97 0 156 41.5z" />
    <glyph glyph-name="uni041F" unicode="&#x41f;" horiz-adv-x="799" 
d="M820 656l-146 -656h-181l113 502h-300l-113 -502h-180l146 656h661z" />
    <glyph glyph-name="uni0420" unicode="&#x420;" horiz-adv-x="787" 
d="M564 656q68 0 119.5 -23.5t79.5 -65t28 -95.5q0 -20 -5 -45l-2 -10q-42 -202 -288 -202h-255l-48 -215h-180l146 656h405zM605 428l2 10q2 12 2 16q0 25 -18 38.5t-52 13.5h-232l-33 -141h236q81 0 95 63z" />
    <glyph glyph-name="uni0421" unicode="&#x421;" horiz-adv-x="874" 
d="M235 23.5q-85 36.5 -131 102t-46 151.5q0 33 8 73l2 8q29 147 138.5 229t278.5 82q107 0 192.5 -34.5t133.5 -94.5t48 -134q0 -17 -3 -35l-1 -7h-181l1 7q2 12 2 18q0 53 -53.5 86t-143.5 33q-99 0 -158.5 -41t-76.5 -121l-3 -13q-5 -20 -5 -45q0 -67 52 -103.5
t150 -36.5q91 0 148 30t68 82l1 8h185l-2 -8q-27 -128 -134.5 -200.5t-270.5 -72.5q-114 0 -199 36.5z" />
    <glyph glyph-name="uni0422" unicode="&#x422;" horiz-adv-x="691" 
d="M70 502l34 154h662l-33 -154h-237l-112 -502h-181l113 502h-246z" />
    <glyph glyph-name="uni0423" unicode="&#x423;" horiz-adv-x="738" 
d="M844 656l-6 -27l-363 -482q-43 -57 -78.5 -88t-74.5 -45t-92 -14h-171l33 154h141q31 0 51 12l-177 463l6 27h172l119 -341l242 341h198z" />
    <glyph glyph-name="uni0424" unicode="&#x424;" horiz-adv-x="1096" 
d="M933.5 572q67.5 -29 104 -81.5t36.5 -121.5q0 -33 -7 -62l-1 -6q-25 -121 -115 -183.5t-241 -62.5h-116l-16 -68h-180l16 68h-59q-92 0 -159.5 29t-103.5 81t-36 121q0 33 7 62l1 6q25 121 115.5 184t242.5 63h113l15 68h179l-15 -68h61q91 0 158.5 -29zM233 296
q0 -45 33.5 -69t99.5 -24h86l56 250h-101q-74 0 -114 -27t-53 -85l-3 -11q-4 -16 -4 -34zM896 360q0 45 -33.5 69t-98.5 24h-88l-56 -250h102q75 0 115 27t53 85l2 11q4 16 4 34z" />
    <glyph glyph-name="uni0425" unicode="&#x425;" horiz-adv-x="819" 
d="M867 629l-322 -309l188 -293l-6 -27h-188l-128 211l-212 -211h-219l6 27l322 309l-188 293l6 27h187l129 -211l212 211h219z" />
    <glyph glyph-name="uni0426" unicode="&#x426;" horiz-adv-x="850" 
d="M708 154h100l-63 -287h-180l29 133h-581l146 656h180l-113 -502h301l113 502h180z" />
    <glyph glyph-name="uni0427" unicode="&#x427;" horiz-adv-x="799" 
d="M819 656l-146 -656h-180l50 224q-83 -11 -156 -11q-138 0 -213 56.5t-75 156.5q0 29 6 60l34 170h181l-39 -171q-4 -15 -4 -31q0 -43 36 -64t110 -21q48 0 154 6l62 281h180z" />
    <glyph glyph-name="uni0428" unicode="&#x428;" horiz-adv-x="1159" 
d="M339 656l-113 -502h241l112 502h180l-112 -502h240l113 502h180l-146 -656h-1021l146 656h180z" />
    <glyph glyph-name="uni0429" unicode="&#x429;" horiz-adv-x="1208" 
d="M1066 154h100l-63 -287h-180l29 133h-939l146 656h180l-112 -502h239l112 502h180l-112 -502h239l112 502h181z" />
    <glyph glyph-name="uni042A" unicode="&#x42a;" horiz-adv-x="937" 
d="M829.5 391.5q61.5 -50.5 61.5 -135.5q0 -25 -6 -52l-2 -13q-36 -190 -279 -190h-430l112 501h-216l34 154h396l-47 -214h209q106 0 167.5 -50.5zM713 239q0 25 -19 39.5t-53 14.5h-220l-34 -143h230q80 0 92 62l2 10q2 12 2 17z" />
    <glyph glyph-name="uni042B" unicode="&#x42b;" horiz-adv-x="1013" 
d="M340 656l-47 -214h182q106 0 167.5 -50.5t61.5 -135.5q0 -25 -6 -52l-3 -13q-18 -95 -87 -142.5t-191 -47.5h-403l146 655h180zM1034 656l-146 -656h-181l146 656h181zM522 211l2 12q2 12 2 17q0 25 -19 39t-53 14h-193l-34 -143h203q80 0 92 61z" />
    <glyph glyph-name="uni042C" unicode="&#x42c;" horiz-adv-x="776" 
d="M339 656l-47 -214h209q106 0 167.5 -50.5t61.5 -135.5q0 -25 -6 -52l-2 -13q-36 -190 -279 -190h-430l146 655h180zM548 212l2 10q2 12 2 16q0 26 -19 40.5t-53 14.5h-220l-34 -143h230q80 0 92 62z" />
    <glyph glyph-name="uni042D" unicode="&#x42d;" horiz-adv-x="874" 
d="M673.5 632.5q84.5 -36.5 130.5 -102.5t46 -152q0 -33 -8 -73l-2 -7q-30 -148 -138.5 -229.5t-278.5 -81.5q-108 0 -193 34.5t-132.5 94t-47.5 133.5q0 19 3 38l1 4h179l-1 -4q-2 -14 -2 -21q0 -56 53.5 -90.5t142.5 -34.5q82 0 138 29.5t82 85.5h-325l32 144h317
q-9 56 -60 85.5t-138 29.5q-91 0 -150 -33.5t-69 -89.5v-4h-185l1 4q14 83 69 145.5t142.5 97t195.5 34.5q113 0 197.5 -36.5z" />
    <glyph glyph-name="uni042E" unicode="&#x42e;" horiz-adv-x="1161" 
d="M965 632.5q84 -36.5 129.5 -102.5t45.5 -151q0 -32 -8 -70l-2 -7q-30 -151 -138 -233t-276 -82q-104 0 -184 33t-127 93t-54 138h-102l-56 -251h-180l146 656h180l-56 -251h89q41 126 144.5 195t253.5 69q111 0 195 -36.5zM959 364q0 67 -52 105.5t-145 38.5
q-187 0 -225 -164l-2 -12q-6 -22 -6 -44q0 -65 51 -102.5t142 -37.5q95 0 153 41.5t76 121.5l3 11q5 25 5 42z" />
    <glyph glyph-name="uni042F" unicode="&#x42f;" horiz-adv-x="806" 
d="M827 656l-146 -656h-180l49 223h-86l-246 -223h-215l6 27l237 209q-67 20 -105 67t-38 111q0 23 4 43l2 10q16 91 85.5 140t182.5 49h450zM614 506h-244q-39 0 -60.5 -15t-28.5 -46l-2 -10q-2 -12 -2 -16q0 -26 19 -40.5t53 -14.5h232z" />
    <glyph glyph-name="uni0430" unicode="&#x430;" horiz-adv-x="716" 
d="M684 146l-31 -146h-81q-40 0 -71.5 13.5t-49.5 38.5q-88 -65 -222 -65q-95 0 -148.5 36t-53.5 98q0 15 5 37q12 58 60.5 88.5t134.5 38.5l239 23q2 33 -25.5 50.5t-79.5 17.5q-51 0 -82.5 -15.5t-36.5 -41.5v-3h-176l1 3q16 92 96.5 144.5t207.5 52.5q125 0 197 -50.5
t72 -136.5q0 -27 -5 -47l-22 -105q-1 -3 -1 -9q0 -22 30 -22h42zM261 109q50 0 99.5 17t78.5 43l7 35l-192 -19q-50 -4 -56 -38q-6 -38 63 -38z" />
    <glyph glyph-name="uni0431" unicode="&#x431;" horiz-adv-x="704" 
d="M731 696l-9 -44q-12 -57 -48.5 -86.5t-101.5 -33.5l-178 -13q-67 -5 -100 -30.5t-46 -82.5q79 50 180 50q109 0 171.5 -50.5t62.5 -136.5q0 -26 -6 -55l-3 -16q-20 -101 -98.5 -156t-204.5 -55q-139 0 -215.5 66.5t-76.5 183.5q0 48 11 93l8 34q21 100 59.5 162t101 94
t157.5 39l122 9q18 1 26 6t11 15l1 7h176zM487 246q0 36 -29.5 57.5t-82.5 21.5q-79 0 -143 -45l-4 -20q-4 -16 -4 -34q0 -47 33 -73t94 -26q54 0 87.5 20.5t41.5 58.5l4 15q3 14 3 25z" />
    <glyph glyph-name="uni0432" unicode="&#x432;" horiz-adv-x="710" 
d="M624.5 469q53.5 -34 53.5 -92q0 -13 -3 -28l-2 -9q-13 -64 -76 -94q48 -33 48 -85q0 -13 -3 -27l-2 -10q-24 -124 -229 -124h-401l113 503h354q94 0 147.5 -34zM271 389l-19 -83h184q57 0 64 34l2 9q1 3 1 10q0 30 -52 30h-180zM472 168q0 32 -52 32h-191l-20 -86h196
q58 0 64 35l2 9q1 3 1 10z" />
    <glyph glyph-name="uni0433" unicode="&#x433;" horiz-adv-x="513" 
d="M556 503l-32 -146h-259l-81 -357h-174l113 503h433z" />
    <glyph glyph-name="uni0434" unicode="&#x434;" horiz-adv-x="762" 
d="M732 146l-60 -274h-174l29 128h-400l-28 -128h-174l60 274h77q29 33 48.5 72t32.5 92l48 193h528l-79 -357h92zM467 146l48 212h-197l-15 -57q-15 -57 -30 -91t-41 -64h235z" />
    <glyph glyph-name="uni0435" unicode="&#x435;" horiz-adv-x="671" 
d="M507.5 489q64.5 -27 99 -75.5t34.5 -111.5q0 -20 -5 -48l-9 -48h-428q1 -40 32.5 -62.5t88.5 -22.5q47 0 78 12t42 35h180q-26 -89 -103.5 -135t-199.5 -46q-85 0 -149 28.5t-99 80t-35 117.5q0 30 5 52l4 18q20 111 102.5 172t212.5 61q85 0 149.5 -27zM222 315h248
q-6 33 -37 52t-81 19q-98 0 -130 -71z" />
    <glyph glyph-name="uni0436" unicode="&#x436;" horiz-adv-x="1018" 
d="M1046 480l-220 -235l129 -221l-6 -24h-168l-103 180h-99l-40 -180h-174l40 180h-85l-173 -180h-193l6 24l231 241l-119 215l5 23h169l96 -177h96l39 177h174l-39 -177h80l166 177h193z" />
    <glyph glyph-name="uni0437" unicode="&#x437;" horiz-adv-x="684" 
d="M512 497q62 -19 96 -54t34 -80q0 -12 -3 -26l-2 -8q-10 -59 -71 -89q45 -33 45 -84q0 -16 -2 -24l-2 -9q-11 -67 -84 -101.5t-204 -34.5q-144 0 -217 48.5t-73 142.5q0 24 4 45v3h159v-3q-3 -15 -3 -28q0 -42 31 -62t97 -20q110 0 119 40l1 8q5 17 -10 26.5t-46 9.5h-127
l25 112h123q32 0 46.5 6t16.5 20l2 8q5 21 -26 34t-88 13q-70 0 -105 -22t-43 -72v-4h-160v4q18 111 97.5 165.5t224.5 54.5q83 0 145 -19z" />
    <glyph glyph-name="uni0438" unicode="&#x438;" horiz-adv-x="713" 
d="M287 503l-63 -289l323 289h156l-113 -503h-164l63 289l-323 -289h-156l113 503h164z" />
    <glyph glyph-name="uni0439" unicode="&#x439;" horiz-adv-x="713" 
d="M287 503l-63 -289l323 289h156l-113 -503h-164l63 289l-323 -289h-156l113 503h164zM292.5 589q-54.5 38 -54.5 105q0 15 3 30l1 9h142l-2 -9q-4 -23 15 -35t58 -12q71 0 81 47l1 9h151l-2 -9q-18 -88 -77.5 -130.5t-163.5 -42.5q-98 0 -152.5 38z" />
    <glyph glyph-name="uni043A" unicode="&#x43a;" horiz-adv-x="687" 
d="M717 480l-236 -232l146 -222l-6 -26h-171l-117 180h-109l-40 -180h-174l113 503h173l-40 -178h87l182 178h198z" />
    <glyph glyph-name="uni043B" unicode="&#x43b;" horiz-adv-x="712" 
d="M590 0h-173l80 357h-200l-39 -139q-32 -114 -85.5 -166t-145.5 -52h-74l33 151h27q38 0 58 22t35 75l68 255h529z" />
    <glyph glyph-name="uni043C" unicode="&#x43c;" horiz-adv-x="913" 
d="M905 503l-113 -503h-167l59 268l16 71l-42 -69l-180 -270h-151l-62 269l-13 72l-15 -73l-58 -268h-169l113 503h236l72 -326l219 326h255z" />
    <glyph glyph-name="uni043D" unicode="&#x43d;" horiz-adv-x="718" 
d="M295 503l-40 -178h240l40 178h174l-112 -503h-174l41 180h-240l-41 -180h-174l112 503h174z" />
    <glyph glyph-name="uni043E" unicode="&#x43e;" horiz-adv-x="685" 
d="M172.5 16q-66.5 29 -102 81t-35.5 121q0 22 5 50l2 11q19 113 101.5 175t214.5 62q89 0 155 -28.5t101 -80.5t35 -121q0 -23 -5 -53l-2 -11q-19 -112 -100 -173.5t-213 -61.5q-90 0 -156.5 29zM424.5 163.5q34.5 25.5 43.5 73.5l2 8q3 14 3 26q0 43 -32.5 68.5
t-88.5 25.5q-57 0 -92 -26t-44 -76l-2 -7q-2 -8 -2 -24q0 -43 32.5 -68.5t89.5 -25.5q56 0 90.5 25.5z" />
    <glyph glyph-name="uni043F" unicode="&#x43f;" horiz-adv-x="708" 
d="M699 503l-112 -503h-174l81 358h-231l-81 -358h-174l113 503h578z" />
    <glyph glyph-name="uni0440" unicode="&#x440;" horiz-adv-x="710" 
d="M559.5 487.5q55.5 -28.5 86 -79t30.5 -114.5q0 -26 -4 -49l-2 -11q-20 -116 -99 -181.5t-201 -65.5q-109 0 -175 58l-48 -215h-174l150 673h153l-2 -37q70 50 157 50q73 0 128.5 -28.5zM500 274q0 41 -31.5 65.5t-85.5 24.5q-38 0 -71 -11.5t-56 -32.5l-29 -132
q17 -23 51 -36t76 -13q59 0 95.5 27t45.5 78l3 11q2 14 2 19z" />
    <glyph glyph-name="uni0441" unicode="&#x441;" horiz-adv-x="670" 
d="M172 16q-66 29 -101.5 81t-35.5 120q0 26 6 54l3 10q20 113 101 174t211 61q84 0 149.5 -26.5t102.5 -73t37 -104.5q0 -15 -3 -30v-5h-177l1 5q1 4 1 12q0 32 -31.5 51.5t-83.5 19.5q-117 0 -137 -102l-2 -9q-3 -13 -3 -25q0 -43 32.5 -67t91.5 -24q50 0 81 18.5t36 50.5
l1 5h179l-1 -5q-17 -104 -97 -162t-207 -58q-88 0 -154 29z" />
    <glyph glyph-name="uni0442" unicode="&#x442;" horiz-adv-x="606" 
d="M39 356l31 147h577l-31 -147h-199l-81 -356h-174l81 356h-204z" />
    <glyph glyph-name="uni0443" unicode="&#x443;" horiz-adv-x="697" 
d="M741 503l-6 -23l-376 -535q-43 -61 -93 -88t-133 -27h-155l31 146h136q30 0 49 13l-141 491l5 23h175l88 -333l224 333h196z" />
    <glyph glyph-name="uni0444" unicode="&#x444;" horiz-adv-x="968" 
d="M799.5 476q63.5 -27 97.5 -76.5t34 -114.5q0 -22 -5 -52l-3 -14q-19 -107 -100.5 -163t-219.5 -56h-89l-37 -170h-173l37 170h-24q-86 0 -149 27t-97 76.5t-34 114.5q0 22 5 52l3 14q18 107 99.5 163t220.5 56h89l43 193h173l-43 -193h23q86 0 149.5 -27zM377 146l48 212
h-70q-123 0 -141 -88l-2 -10q-4 -15 -4 -31q0 -39 28.5 -61t79.5 -22h61zM760 274q0 39 -28.5 61.5t-79.5 22.5h-60l-48 -212h69q123 0 141 88l2 9q4 15 4 31z" />
    <glyph glyph-name="uni0445" unicode="&#x445;" horiz-adv-x="656" 
d="M690 480l-249 -234l154 -222l-6 -24h-185l-92 148l-146 -148h-212l6 24l253 236l-147 220l4 23h184l88 -144l144 144h210z" />
    <glyph glyph-name="uni0446" unicode="&#x446;" horiz-adv-x="734" 
d="M704 146l-60 -274h-174l28 128h-488l112 503h174l-81 -357h222l81 357h173l-79 -357h92z" />
    <glyph glyph-name="uni0447" unicode="&#x447;" horiz-adv-x="677" 
d="M669 503l-113 -503h-173l33 148q-70 -7 -116 -7q-115 0 -177.5 48.5t-62.5 133.5q0 26 6 54l26 126h173l-28 -130q-2 -7 -2 -21q0 -63 100 -63q59 0 114 6l46 208h174z" />
    <glyph glyph-name="uni0448" unicode="&#x448;" horiz-adv-x="1039" 
d="M295 503l-81 -357h194l81 357h174l-81 -357h193l81 357h174l-112 -503h-909l112 503h174z" />
    <glyph glyph-name="uni0449" unicode="&#x449;" horiz-adv-x="1075" 
d="M1041 146l-60 -274h-174l29 128h-827l112 503h174l-81 -357h194l81 357h174l-81 -357h193l81 357h174l-79 -357h90z" />
    <glyph glyph-name="uni044A" unicode="&#x44a;" horiz-adv-x="835" 
d="M731.5 345q55.5 -46 55.5 -121q0 -19 -5 -44l-2 -10q-33 -170 -242 -170h-397l80 356h-183l32 147h357l-25 -112h182q92 0 147.5 -46zM615 211q0 20 -14 31t-42 11h-188l-25 -115h197q58 0 67 45l3 11q2 12 2 17z" />
    <glyph glyph-name="uni044B" unicode="&#x44b;" horiz-adv-x="902" 
d="M521 370q46 -21 71 -59t25 -86q0 -26 -5 -46l-2 -10q-34 -169 -241 -169h-368l112 503h174l-25 -112h152q61 0 107 -21zM903 503l-113 -503h-173l112 503h174zM445 212q0 20 -14 31t-42 11h-158l-26 -118h168q28 0 45.5 11.5t22.5 34.5l2 12q2 6 2 18z" />
    <glyph glyph-name="uni044C" unicode="&#x44c;" horiz-adv-x="704" 
d="M600.5 345q55.5 -46 55.5 -121q0 -19 -5 -44l-2 -10q-33 -170 -242 -170h-397l113 503h173l-25 -112h182q92 0 147.5 -46zM484 211q0 20 -14 31t-42 11h-188l-25 -115h197q58 0 67 45l3 11q2 12 2 17z" />
    <glyph glyph-name="uni044D" unicode="&#x44d;" horiz-adv-x="670" 
d="M497.5 487.5q65.5 -28.5 101 -80t35.5 -118.5q0 -27 -6 -56l-3 -18q-20 -109 -101.5 -168.5t-210.5 -59.5q-85 0 -150.5 26t-101.5 72t-36 105q0 17 3 33v3h167v-3q-2 -12 -2 -17q0 -40 33 -64t89 -24q51 0 85.5 20t50.5 58h-204l24 112h198q-7 37 -39 57t-86 20
q-58 0 -93 -23.5t-42 -67.5v-3h-170v3q18 104 99 163t207 59q87 0 152.5 -28.5z" />
    <glyph glyph-name="uni044E" unicode="&#x44e;" horiz-adv-x="928" 
d="M763 487q63 -29 97 -80.5t34 -118.5q0 -22 -7 -59l-2 -11q-23 -113 -101.5 -172t-207.5 -59q-112 0 -185 52.5t-86 138.5h-80l-41 -178h-174l113 503h173l-40 -178h67q32 93 106.5 142t186.5 49q84 0 147 -29zM717 270q0 43 -30 69t-82 26q-108 0 -128 -96l-1 -7
q-4 -15 -4 -32q0 -42 30 -67t83 -25t85 24t41 69l2 7q4 15 4 32z" />
    <glyph glyph-name="uni044F" unicode="&#x44f;" horiz-adv-x="715" 
d="M593 1h-174l34 151h-43l-209 -152h-210l5 20l194 140q-60 14 -93.5 51.5t-33.5 88.5q0 16 5 38l2 11q15 75 76 114.5t164 39.5h395zM237 309q0 -20 16 -32t44 -12h181l25 111h-192q-31 0 -48 -10.5t-22 -33.5l-2 -11q-2 -8 -2 -12z" />
    <glyph glyph-name="uni0450" unicode="&#x450;" horiz-adv-x="671" 
d="M507.5 489q64.5 -27 99 -75.5t34.5 -111.5q0 -20 -5 -48l-9 -48h-428q1 -40 32.5 -62.5t88.5 -22.5q47 0 78 12t42 35h180q-26 -89 -103.5 -135t-199.5 -46q-85 0 -149 28.5t-99 80t-35 117.5q0 30 5 52l4 18q20 111 102.5 172t212.5 61q85 0 149.5 -27zM222 315h248
q-6 33 -37 52t-81 19q-98 0 -130 -71zM195 747l432 -63l-28 -132l-432 63z" />
    <glyph glyph-name="uni0451" unicode="&#x451;" horiz-adv-x="671" 
d="M507.5 489q64.5 -27 99 -75.5t34.5 -111.5q0 -20 -5 -48l-9 -48h-428q1 -40 32.5 -62.5t88.5 -22.5q47 0 78 12t42 35h180q-26 -89 -103.5 -135t-199.5 -46q-85 0 -149 28.5t-99 80t-35 117.5q0 30 5 52l4 18q20 111 102.5 172t212.5 61q85 0 149.5 -27zM222 315h248
q-6 33 -37 52t-81 19q-98 0 -130 -71zM196.5 579q-26.5 23 -26.5 61q0 44 28.5 70t70.5 26q39 0 65.5 -22t26.5 -60q0 -44 -29 -71t-70 -27q-39 0 -65.5 23zM457.5 579q-26.5 23 -26.5 61q0 44 28.5 70t70.5 26q39 0 65 -22t26 -58q0 -46 -28.5 -73t-69.5 -27
q-39 0 -65.5 23z" />
    <glyph glyph-name="uni0452" unicode="&#x452;" horiz-adv-x="737" 
d="M616 424q59 -55 59 -150q0 -31 -8 -73l-33 -126q-27 -127 -97.5 -186t-193.5 -59h-69l31 146h39q52 0 81.5 28.5t42.5 84.5l29 121q5 22 5 35q0 39 -26 60.5t-73 21.5q-41 0 -77 -18.5t-60 -49.5l-58 -259h-174l117 527h-107l28 126h107l10 43h174l-10 -43h200l-28 -126
h-200l-20 -91q65 43 148 43q104 0 163 -55z" />
    <glyph glyph-name="uni0453" unicode="&#x453;" horiz-adv-x="513" 
d="M556 503l-32 -146h-259l-81 -357h-174l113 503h433zM620 750l-32 -139l-461 -64l32 140z" />
    <glyph glyph-name="uni0454" unicode="&#x454;" horiz-adv-x="670" 
d="M506 489.5q66 -26.5 102.5 -73t36.5 -105.5q0 -16 -3 -31v-3h-167v3q2 12 2 17q0 40 -34 64t-90 24q-50 0 -84.5 -20t-50.5 -58h204l-24 -111h-198q7 -37 40 -57.5t87 -20.5q57 0 91.5 23.5t42.5 67.5v3h170v-3q-18 -105 -98 -163.5t-208 -58.5q-87 0 -153 29t-101.5 81
t-35.5 119q0 26 6 54l4 19q20 108 101.5 167.5t209.5 59.5q84 0 150 -26.5z" />
    <glyph glyph-name="uni0455" unicode="&#x455;" horiz-adv-x="688" 
d="M99.5 27.5q-75.5 40.5 -75.5 113.5q0 8 2 24v4h161v-4q-4 -27 28.5 -39t108.5 -12q62 0 93 7.5t36 24.5l1 5q3 13 -9.5 19t-47.5 10l-130 15q-93 10 -140 43.5t-47 86.5q0 14 3 27l2 11q14 75 91.5 114t213.5 39q132 0 202.5 -39t70.5 -112q0 -8 -2 -26v-4h-160v4
q9 51 -128 51q-118 0 -126 -30l-1 -5q-6 -23 50 -29l133 -15q96 -10 145 -44t49 -88q0 -13 -3 -27l-2 -10q-14 -76 -91.5 -115.5t-213.5 -39.5q-138 0 -213.5 40.5z" />
    <glyph glyph-name="uni0456" unicode="&#x456;" horiz-adv-x="286" 
d="M286 503l-112 -503h-174l112 503h174zM158.5 576q-28.5 25 -28.5 65q0 48 30.5 75t75.5 27q42 0 70 -24t28 -65q0 -47 -31 -75t-75 -28q-41 0 -69.5 25z" />
    <glyph glyph-name="uni0457" unicode="&#x457;" horiz-adv-x="336" 
d="M115 573.5q-18 19.5 -18 54.5q0 13 1 20q7 45 28.5 68.5t56.5 23.5q31 0 48.5 -19t17.5 -54q0 -7 -2 -21q-7 -44 -28 -68t-55 -24q-31 0 -49 19.5zM281 573.5q-17 19.5 -17 54.5q0 13 1 20q7 44 28.5 68t55.5 24q31 0 48.5 -19t17.5 -54q0 -7 -2 -21q-6 -44 -28 -68
t-56 -24q-31 0 -48 19.5zM312 503l-113 -503h-174l113 503h174z" />
    <glyph glyph-name="uni0458" unicode="&#x458;" horiz-adv-x="286" 
d="M-56 -24q49 0 60 45l108 482h174l-115 -505q-18 -81 -74.5 -124.5t-144.5 -43.5h-106l31 146h67zM158.5 576q-28.5 25 -28.5 65q0 48 30.5 75t75.5 27q42 0 70 -24t28 -65q0 -47 -31 -75t-75 -28q-41 0 -69.5 25z" />
    <glyph glyph-name="uni0459" unicode="&#x459;" horiz-adv-x="1100" 
d="M995.5 345q55.5 -46 55.5 -120q0 -25 -5 -45l-2 -11q-36 -169 -241 -169h-391l80 357h-196l-39 -139q-32 -114 -85 -166t-146 -52h-73l33 151h27q38 0 58 22t35 75l68 255h524l-25 -112h175q92 0 147.5 -46zM879 211q0 20 -14 31t-42 11h-180l-27 -115h191q58 0 67 45
l3 11q2 12 2 17z" />
    <glyph glyph-name="uni045A" unicode="&#x45a;" horiz-adv-x="1107" 
d="M296 503l-38 -174h237l39 174h175l-35 -153h180q91 0 145 -40.5t54 -108.5q0 -20 -4 -37l-2 -11q-13 -78 -71.5 -115.5t-164.5 -37.5h-389l42 183h-238l-42 -183h-174l113 503h173zM878 165l2 12q1 4 1 11q0 17 -14 27t-40 10h-180l-22 -98h191q54 0 62 38z" />
    <glyph glyph-name="uni045B" unicode="&#x45b;" horiz-adv-x="737" 
d="M616.5 425.5q59.5 -55.5 59.5 -150.5q0 -30 -8 -70l-45 -205h-174l49 213q4 16 4 33q0 40 -26 62t-75 22q-39 0 -74 -17.5t-59 -47.5l-59 -265h-174l118 528h-108l27 125h108l10 43h174l-10 -43h199l-27 -125h-199l-20 -89q65 42 146 42q104 0 163.5 -55.5z" />
    <glyph glyph-name="uni045C" unicode="&#x45c;" horiz-adv-x="687" 
d="M717 480l-236 -232l146 -222l-6 -26h-171l-117 180h-109l-40 -180h-174l113 503h173l-40 -178h87l182 178h198zM674 750l-32 -139l-461 -64l32 140z" />
    <glyph glyph-name="uni045D" unicode="&#x45d;" horiz-adv-x="713" 
d="M287 503l-63 -289l323 289h156l-113 -503h-164l63 289l-323 -289h-156l113 503h164zM245 747l432 -63l-28 -132l-432 63z" />
    <glyph glyph-name="uni045E" unicode="&#x45e;" horiz-adv-x="697" 
d="M741 503l-6 -23l-376 -535q-43 -61 -93 -88t-133 -27h-155l31 146h136q30 0 49 13l-141 491l5 23h175l88 -333l224 333h196zM276.5 589q-54.5 38 -54.5 105q0 15 3 30l1 9h142l-2 -9q-4 -23 15 -35t58 -12q71 0 81 47l1 9h151l-2 -9q-18 -88 -77.5 -130.5t-163.5 -42.5
q-98 0 -152.5 38z" />
    <glyph glyph-name="uni045F" unicode="&#x45f;" horiz-adv-x="698" 
d="M577 0h-199l-29 -128h-158l29 128h-211l112 503h174l-81 -357h221l80 357h174z" />
    <glyph glyph-name="uni0462" unicode="&#x462;" horiz-adv-x="893" 
d="M784.5 336q60.5 -44 60.5 -119q0 -18 -5 -45l-3 -11q-16 -81 -83.5 -121t-189.5 -40h-428l103 464h-198l31 139h198l14 64h180l-14 -64h255l-31 -139h-255l-18 -84h215q108 0 168.5 -44zM670 204q0 20 -18 31.5t-52 11.5h-228l-27 -113h232q42 0 63 11t26 36l2 10
q2 8 2 13z" />
    <glyph glyph-name="uni0463" unicode="&#x463;" horiz-adv-x="815" 
d="M705 280q51 -36 51 -99q0 -22 -5 -41l-2 -10q-27 -130 -217 -130h-412l84 377h-161l27 126h162l43 193h174l-43 -193h220l-27 -126h-221l-14 -61h200q90 0 141 -36zM599 168q0 14 -11.5 22t-32.5 8h-217l-17 -79h219q25 0 38.5 7.5t17.5 23.5l2 10q1 3 1 8z" />
    <glyph glyph-name="uni0472" unicode="&#x472;" horiz-adv-x="877" 
d="M681 631.5q82 -37.5 127 -103.5t45 -151q0 -36 -7 -68l-1 -7q-32 -153 -140 -234t-284 -81q-108 0 -190.5 37.5t-128 104t-45.5 151.5q0 35 7 67l2 6q31 152 140.5 234t284.5 82q108 0 190 -37.5zM259 394q52 17 104 17q31 0 99 -10l42 -6t70 -5q37 0 97 12
q-11 54 -60.5 85t-130.5 31q-171 0 -221 -124zM652 262q-31 -9 -55 -12.5t-53 -3.5q-38 0 -108 10q-68 10 -104 10q-47 0 -92 -12q11 -54 60 -85t130 -31q171 0 222 124z" />
    <glyph glyph-name="uni0473" unicode="&#x473;" horiz-adv-x="685" 
d="M512.5 487.5q65.5 -28.5 101 -80.5t35.5 -121q0 -30 -5 -53l-3 -12q-20 -112 -100.5 -173t-211.5 -61q-89 0 -155.5 28.5t-102.5 80.5t-36 120q0 22 5 52l2 12q20 113 102 174.5t214 61.5q89 0 154.5 -28.5zM258 365q-37 -21 -53 -62q36 11 69 11q24 0 76 -8q54 -8 83 -8
t60 7q-10 38 -47 59.5t-94 21.5t-94 -21zM428 139q37 21 52 61q-36 -10 -72 -10q-28 0 -80 8q-8 1 -32.5 4t-46.5 3q-31 0 -58 -7q10 -38 47.5 -59t95.5 -21q57 0 94 21z" />
    <glyph glyph-name="uni0474" unicode="&#x474;" horiz-adv-x="793" 
d="M868 656l-33 -154h-44q-19 0 -31 -7t-24 -26l-304 -469h-208l-135 629l5 27h168l92 -489l234 375q40 64 76.5 89t95.5 25h108z" />
    <glyph glyph-name="uni0475" unicode="&#x475;" horiz-adv-x="705" 
d="M746 503l-31 -147h-34q-18 0 -28 -6t-23 -24l-224 -326h-225l-122 480l6 23h170l82 -346l173 260q31 47 65.5 66.5t87.5 19.5h103z" />
    <glyph glyph-name="uni0490" unicode="&#x490;" horiz-adv-x="627" 
d="M520 656l30 133h180l-63 -287h-361l-113 -502h-180l146 656h361z" />
    <glyph glyph-name="uni0491" unicode="&#x491;" horiz-adv-x="513" 
d="M370 503l29 128h173l-60 -273h-247l-81 -358h-174l113 503h247z" />
    <glyph glyph-name="uni0492" unicode="&#x492;" horiz-adv-x="710" 
d="M339 502l-37 -167h263l-33 -148h-263l-42 -187h-181l42 187h-108l33 148h108l71 321h594l-34 -154h-413z" />
    <glyph glyph-name="uni0493" unicode="&#x493;" horiz-adv-x="603" 
d="M299 357l-21 -94h164l-27 -124h-164l-31 -139h-174l31 139h-108l27 124h109l53 240h468l-32 -146h-295z" />
    <glyph glyph-name="uni0494" unicode="&#x494;" horiz-adv-x="790" 
d="M306 505l-32 -144q77 10 152 10q135 0 209 -56.5t74 -156.5q0 -30 -10 -75l-6 -32q-22 -108 -98 -164.5t-202 -56.5h-113l34 152h63q66 0 102 24t45 74l4 19q4 15 4 31q0 91 -149 91q-69 0 -142 -6l-48 -215h-180l146 656h615l-33 -151h-435z" />
    <glyph glyph-name="uni0495" unicode="&#x495;" horiz-adv-x="696" 
d="M265 358l-20 -88q67 8 120 8q110 0 171 -47.5t61 -129.5q0 -29 -7 -57l-8 -38q-17 -85 -78.5 -130.5t-160.5 -45.5h-83l31 146h42q77 0 89 59l5 21q2 7 2 19q0 60 -102 60q-48 0 -114 -8l-29 -127h-174l112 503h529l-32 -145h-354z" />
    <glyph glyph-name="uni0496" unicode="&#x496;" horiz-adv-x="1236" 
d="M982 322l72 -168h139l-63 -287h-181l30 133h-52l-102 252h-108l-56 -252h-180l56 252h-93l-240 -252h-207l6 27l306 316l-189 286l6 27h183l156 -250h106l56 250h180l-56 -250h86l256 250h215l-6 -27z" />
    <glyph glyph-name="uni0497" unicode="&#x497;" horiz-adv-x="1049" 
d="M818 243l50 -97h149l-60 -274h-174l29 128h-51l-94 181h-95l-40 -181h-174l41 181h-85l-173 -181h-193l5 24l231 240l-119 216l6 23h168l97 -178h95l40 178h173l-40 -178h80l167 178h193l-5 -23z" />
    <glyph glyph-name="uni0498" unicode="&#x498;" horiz-adv-x="833" 
d="M653.5 645q75.5 -24 116 -67t40.5 -99q0 -10 -4 -34l-2 -11q-15 -77 -95 -114q61 -40 61 -105q0 -13 -3 -28l-2 -11q-17 -90 -111 -139.5t-248 -49.5q-110 0 -189.5 28.5t-121.5 81.5t-42 125q0 22 5 52l2 7h174l-1 -7q-3 -16 -3 -30q0 -103 190 -103q78 0 121.5 15
t48.5 44l2 10q1 4 1 11q0 23 -31 32t-110 9h-133l29 134h134q77 0 109.5 10t37.5 35l2 10q7 30 -34.5 47t-121.5 17q-96 0 -147 -30t-64 -94l-2 -7h-180l2 7q30 140 128 209t266 69q100 0 175.5 -24zM506 35l-39 -178h-179l40 178h178z" />
    <glyph glyph-name="uni0499" unicode="&#x499;" horiz-adv-x="684" 
d="M512 497q62 -19 96 -54t34 -80q0 -12 -3 -26l-2 -8q-10 -59 -71 -89q45 -33 45 -84q0 -16 -2 -24l-2 -9q-11 -67 -84 -101.5t-204 -34.5q-144 0 -217 48.5t-73 142.5q0 24 4 45v3h159v-3q-3 -15 -3 -28q0 -42 31 -62t97 -20q110 0 119 40l1 8q5 17 -10 26.5t-46 9.5h-127
l25 112h123q32 0 46.5 6t16.5 20l2 8q5 21 -26 34t-88 13q-70 0 -105 -22t-43 -72v-4h-160v4q18 111 97.5 165.5t224.5 54.5q83 0 145 -19zM405 32l-39 -175h-172l39 175h172z" />
    <glyph glyph-name="uni049A" unicode="&#x49a;" horiz-adv-x="792" 
d="M509 319l87 -165h153l-63 -287h-180l30 133h-53l-124 253h-110l-56 -253h-180l146 656h180l-55 -249h87l267 249h217l-6 -27z" />
    <glyph glyph-name="uni049B" unicode="&#x49b;" horiz-adv-x="717" 
d="M478 244l58 -98h150l-60 -274h-173l28 128h-49l-104 180h-104l-40 -180h-174l113 503h173l-40 -178h87l182 178h198l-6 -23z" />
    <glyph glyph-name="uni049C" unicode="&#x49c;" horiz-adv-x="843" 
d="M892 629l-321 -311l170 -291l-6 -27h-173l-140 252h-20l-28 -124h-108l28 124h-48l-56 -252h-177l146 656h177l-55 -249h47l28 125h108l-28 -125h8l244 249h210z" />
    <glyph glyph-name="uni049D" unicode="&#x49d;" horiz-adv-x="754" 
d="M784 480l-225 -242l134 -212l-6 -26h-170l-113 180h-31l-24 -109h-100l24 109h-52l-40 -180h-171l113 503h170l-40 -179h52l20 90h100l-20 -90h21l166 179h197z" />
    <glyph glyph-name="uni04A0" unicode="&#x4a0;" horiz-adv-x="1034" 
d="M1082 629l-333 -300l182 -302l-6 -27h-177l-145 252h-121l-56 -252h-180l112 502h-288l34 154h468l-55 -249h88l265 249h218z" />
    <glyph glyph-name="uni04A1" unicode="&#x4a1;" horiz-adv-x="865" 
d="M903 480l-236 -232l145 -222l-6 -26h-170l-118 180h-109l-40 -180h-173l79 356h-236l31 147h412l-40 -178h87l182 178h197z" />
    <glyph glyph-name="uni04A2" unicode="&#x4a2;" horiz-adv-x="870" 
d="M729 154h99l-63 -287h-180l29 133h-100l56 251h-321l-56 -251h-180l146 656h180l-56 -251h321l56 251h181z" />
    <glyph glyph-name="uni04A3" unicode="&#x4a3;" horiz-adv-x="754" 
d="M725 146l-60 -274h-175l28 128h-92l41 178h-242l-41 -178h-174l113 503h173l-40 -178h242l41 178h173l-79 -357h92z" />
    <glyph glyph-name="uni04A4" unicode="&#x4a4;" horiz-adv-x="1080" 
d="M339 656l-56 -251h308l56 251h509l-33 -154h-329l-113 -502h-180l56 251h-308l-56 -251h-180l146 656h180z" />
    <glyph glyph-name="uni04A5" unicode="&#x4a5;" horiz-adv-x="923" 
d="M296 503l-40 -177h225l40 177h445l-32 -147h-270l-81 -356h-174l40 179h-224l-41 -179h-174l113 503h173z" />
    <glyph glyph-name="uni04AA" unicode="&#x4aa;" horiz-adv-x="874" 
d="M235 23.5q-85 36.5 -131 102t-46 151.5q0 33 8 73l2 8q29 147 138.5 229t278.5 82q107 0 192.5 -34.5t133.5 -94.5t48 -134q0 -17 -3 -35l-1 -7h-181l1 7q2 12 2 18q0 53 -53.5 86t-143.5 33q-99 0 -158.5 -41t-76.5 -121l-3 -13q-5 -20 -5 -45q0 -67 52 -103.5
t150 -36.5q91 0 148 30t68 82l1 8h185l-2 -8q-27 -128 -134.5 -200.5t-270.5 -72.5q-114 0 -199 36.5zM512 35l-39 -178h-179l40 178h178z" />
    <glyph glyph-name="uni04AB" unicode="&#x4ab;" horiz-adv-x="670" 
d="M172 16q-66 29 -101.5 81t-35.5 120q0 26 6 54l3 10q20 113 101 174t211 61q84 0 149.5 -26.5t102.5 -73t37 -104.5q0 -15 -3 -30v-5h-177l1 5q1 4 1 12q0 32 -31.5 51.5t-83.5 19.5q-117 0 -137 -102l-2 -9q-3 -13 -3 -25q0 -43 32.5 -67t91.5 -24q50 0 81 18.5t36 50.5
l1 5h179l-1 -5q-17 -104 -97 -162t-207 -58q-88 0 -154 29zM394 32l-39 -175h-172l39 175h172z" />
    <glyph glyph-name="uni04AE" unicode="&#x4ae;" horiz-adv-x="726" 
d="M809 629l-364 -378l-56 -251h-180l59 264l-199 365l6 27h172l134 -255l238 255h195z" />
    <glyph glyph-name="uni04AF" unicode="&#x4af;" horiz-adv-x="695" 
d="M740 480l-364 -496l-34 -154h-174l34 154l-144 496l6 23h168l89 -327l235 327h189z" />
    <glyph glyph-name="uni04B0" unicode="&#x4b0;" horiz-adv-x="726" 
d="M809 629l-289 -300h148l-33 -155h-207l-39 -174h-180l39 174h-183l33 155h134l-163 300l6 27h172l134 -255l238 255h195z" />
    <glyph glyph-name="uni04B1" unicode="&#x4b1;" horiz-adv-x="695" 
d="M738 480l-260 -355h108l-27 -126h-181l-37 -169h-174l37 169h-181l26 126h113l-104 355l6 23h169l90 -325l234 325h186z" />
    <glyph glyph-name="uni04B2" unicode="&#x4b2;" horiz-adv-x="812" 
d="M528 312l94 -158h146l-64 -287h-180l30 133h-51l-111 200l-196 -200h-217l7 27l317 309l-183 293l6 27h189l123 -213l217 213h217l-6 -27z" />
    <glyph glyph-name="uni04B3" unicode="&#x4b3;" horiz-adv-x="676" 
d="M435 240l64 -94h147l-61 -274h-174l29 128h-49l-84 142l-141 -142h-212l6 24l251 235l-145 221l4 23h184l87 -145l145 145h209l-5 -23z" />
    <glyph glyph-name="uni04B6" unicode="&#x4b6;" horiz-adv-x="850" 
d="M707 154h99l-63 -287h-180l30 133h-100l50 224q-83 -11 -156 -11q-138 0 -213 56.5t-75 156.5q0 29 6 60l34 170h181l-39 -171q-4 -15 -4 -31q0 -43 36 -64t110 -21q48 0 154 6l62 281h180z" />
    <glyph glyph-name="uni04B7" unicode="&#x4b7;" horiz-adv-x="732" 
d="M682 146l-60 -274h-174l28 128h-93l33 148q-70 -7 -116 -7q-115 0 -177.5 48.5t-62.5 133.5q0 26 6 54l26 126h173l-28 -130q-2 -7 -2 -21q0 -63 100 -63q59 0 114 6l46 208h174l-80 -357h93z" />
    <glyph glyph-name="uni04B8" unicode="&#x4b8;" horiz-adv-x="799" 
d="M820 656l-146 -656h-180l50 224q-54 -7 -101 -8l-25 -112h-116l25 113q-110 12 -168 66.5t-58 143.5q0 28 6 59l33 170h181l-39 -171q-4 -22 -4 -30q0 -66 84 -81l30 133h115l-30 -137q38 1 101 5l62 281h180z" />
    <glyph glyph-name="uni04B9" unicode="&#x4b9;" horiz-adv-x="677" 
d="M669 503l-112 -503h-174l33 149l-60 -6l-21 -92h-113l20 92q-88 10 -135.5 56t-47.5 120q0 25 6 52l27 132h173l-30 -137q-2 -7 -2 -21q0 -41 42 -55l27 124h114l-29 -129q20 0 60 4l48 214h174z" />
    <glyph glyph-name="uni04BA" unicode="&#x4ba;" horiz-adv-x="799" 
d="M658 386.5q75 -56.5 75 -156.5q0 -28 -6 -60l-34 -170h-181l39 171q4 15 4 31q0 43 -36 64t-110 21q-48 0 -154 -6l-62 -281h-180l146 656h180l-50 -224q83 11 156 11q138 0 213 -56.5z" />
    <glyph glyph-name="uni04BB" unicode="&#x4bb;" horiz-adv-x="711" 
d="M599.5 460.5q59.5 -55.5 59.5 -149.5q0 -39 -8 -72l-53 -239h-174l57 248q4 16 4 33q0 40 -26 61.5t-74 21.5q-41 0 -76 -17t-58 -48l-67 -299h-174l155 696h174l-49 -222q65 42 145 42q105 0 164.5 -55.5z" />
    <glyph glyph-name="uni04C0" unicode="&#x4c0;" horiz-adv-x="299" 
d="M329 656l-146 -656h-180l146 656h180z" />
    <glyph glyph-name="uni04C1" unicode="&#x4c1;" horiz-adv-x="1257" 
d="M1303 629l-317 -310l170 -292l-6 -27h-177l-143 252h-112l-56 -252h-180l56 252h-98l-235 -252h-207l6 27l301 321l-184 281l6 27h183l156 -249h107l55 249h180l-55 -249h94l247 249h215zM596.5 742q-54.5 38 -54.5 105q0 15 3 30l1 9h142l-2 -9q-4 -23 15 -35t58 -12
q71 0 81 47l1 9h151l-2 -9q-18 -88 -77.5 -130.5t-163.5 -42.5q-98 0 -152.5 38z" />
    <glyph glyph-name="uni04C2" unicode="&#x4c2;" horiz-adv-x="1018" 
d="M1046 480l-220 -235l129 -221l-6 -24h-168l-103 180h-99l-40 -180h-174l40 180h-85l-173 -180h-193l6 24l231 241l-119 215l5 23h169l96 -177h96l39 177h174l-39 -177h80l166 177h193zM442.5 589q-54.5 38 -54.5 105q0 15 3 30l1 9h142l-2 -9q-4 -23 15 -35t58 -12
q71 0 81 47l1 9h151l-2 -9q-18 -88 -77.5 -130.5t-163.5 -42.5q-98 0 -152.5 38z" />
    <glyph glyph-name="uni04CF" unicode="&#x4cf;" horiz-adv-x="286" 
d="M329 696l-155 -696h-174l155 696h174z" />
    <glyph glyph-name="uni04D0" unicode="&#x4d0;" horiz-adv-x="770" 
d="M722 27l-6 -27h-168l-24 123h-303l-79 -123h-187l6 27l421 629h199zM496 268l-43 217l-139 -217h182zM358.5 742q-54.5 38 -54.5 105q0 15 3 30l1 9h142l-2 -9q-4 -23 15 -35t58 -12q71 0 81 47l1 9h151l-2 -9q-18 -88 -77.5 -130.5t-163.5 -42.5q-98 0 -152.5 38z" />
    <glyph glyph-name="uni04D1" unicode="&#x4d1;" horiz-adv-x="716" 
d="M684 146l-31 -146h-81q-40 0 -71.5 13.5t-49.5 38.5q-88 -65 -222 -65q-95 0 -148.5 36t-53.5 98q0 15 5 37q12 58 60.5 88.5t134.5 38.5l239 23q2 33 -25.5 50.5t-79.5 17.5q-51 0 -82.5 -15.5t-36.5 -41.5v-3h-176l1 3q16 92 96.5 144.5t207.5 52.5q125 0 197 -50.5
t72 -136.5q0 -27 -5 -47l-22 -105q-1 -3 -1 -9q0 -22 30 -22h42zM261 109q50 0 99.5 17t78.5 43l7 35l-192 -19q-50 -4 -56 -38q-6 -38 63 -38zM249.5 589q-54.5 38 -54.5 105q0 15 3 30l1 9h142l-2 -9q-4 -23 15 -35t58 -12q71 0 81 47l1 9h151l-2 -9q-18 -88 -77.5 -130.5
t-163.5 -42.5q-98 0 -152.5 38z" />
    <glyph glyph-name="uni04D2" unicode="&#x4d2;" horiz-adv-x="770" 
d="M722 27l-6 -27h-168l-24 123h-303l-79 -123h-187l6 27l421 629h199zM496 268l-43 217l-139 -217h182zM312.5 732q-26.5 23 -26.5 61q0 44 28.5 70t70.5 26q39 0 65.5 -22t26.5 -60q0 -44 -29 -71t-70 -27q-39 0 -65.5 23zM573.5 732q-26.5 23 -26.5 61q0 44 28.5 70
t70.5 26q39 0 65 -22t26 -58q0 -46 -28.5 -73t-69.5 -27q-39 0 -65.5 23z" />
    <glyph glyph-name="uni04D3" unicode="&#x4d3;" horiz-adv-x="716" 
d="M684 146l-31 -146h-81q-40 0 -71.5 13.5t-49.5 38.5q-88 -65 -222 -65q-95 0 -148.5 36t-53.5 98q0 15 5 37q12 58 60.5 88.5t134.5 38.5l239 23q2 33 -25.5 50.5t-79.5 17.5q-51 0 -82.5 -15.5t-36.5 -41.5v-3h-176l1 3q16 92 96.5 144.5t207.5 52.5q125 0 197 -50.5
t72 -136.5q0 -27 -5 -47l-22 -105q-1 -3 -1 -9q0 -22 30 -22h42zM261 109q50 0 99.5 17t78.5 43l7 35l-192 -19q-50 -4 -56 -38q-6 -38 63 -38zM203.5 579q-26.5 23 -26.5 61q0 44 28.5 70t70.5 26q39 0 65.5 -22t26.5 -60q0 -44 -29 -71t-70 -27q-39 0 -65.5 23zM464.5 579
q-26.5 23 -26.5 61q0 44 28.5 70t70.5 26q39 0 65 -22t26 -58q0 -46 -28.5 -73t-69.5 -27q-39 0 -65.5 23z" />
    <glyph glyph-name="uni04D4" unicode="&#x4d4;" horiz-adv-x="1072" 
d="M658 507v-105h377l-31 -146h-347l-1 -107h343l-33 -149h-487l2 123h-264l-80 -123h-182l6 27l421 629h730l-32 -149h-422zM486 507h-21l-155 -239h173z" />
    <glyph glyph-name="uni04D5" unicode="&#x4d5;" horiz-adv-x="1098" 
d="M940 489q63 -27 97 -75.5t34 -112.5q0 -20 -5 -47l-7 -46h-434q0 -42 33 -65.5t94 -23.5q45 0 76.5 13t41.5 36h181q-28 -88 -105.5 -134.5t-195.5 -46.5q-80 0 -141.5 22t-98.5 62q-45 -41 -110 -62.5t-147 -21.5q-106 0 -165.5 36.5t-59.5 99.5q0 19 4 35
q11 57 57.5 87.5t135.5 39.5l247 24q-1 32 -30.5 49.5t-83.5 17.5q-50 0 -80.5 -15t-34.5 -42l-1 -3h-176l1 3q15 92 96 144.5t209 52.5q73 0 126 -19t82 -55q79 74 214 74q83 0 146 -27zM649 313h253q-6 34 -38 53.5t-83 19.5q-100 0 -132 -73zM377.5 131q57.5 22 82.5 55
v19l-203 -22q-59 -6 -59 -44q0 -30 60 -30q62 0 119.5 22z" />
    <glyph glyph-name="uni04D6" unicode="&#x4d6;" horiz-adv-x="723" 
d="M757 656l-33 -149h-417l-25 -105h398l-32 -147h-398l-25 -106h418l-32 -149h-598l146 656h598zM335.5 742q-54.5 38 -54.5 105q0 15 3 30l1 9h142l-2 -9q-4 -23 15 -35t58 -12q71 0 81 47l1 9h151l-2 -9q-18 -88 -77.5 -130.5t-163.5 -42.5q-98 0 -152.5 38z" />
    <glyph glyph-name="uni04D7" unicode="&#x4d7;" horiz-adv-x="671" 
d="M507.5 489q64.5 -27 99 -75.5t34.5 -111.5q0 -20 -5 -48l-9 -48h-428q1 -40 32.5 -62.5t88.5 -22.5q47 0 78 12t42 35h180q-26 -89 -103.5 -135t-199.5 -46q-85 0 -149 28.5t-99 80t-35 117.5q0 30 5 52l4 18q20 111 102.5 172t212.5 61q85 0 149.5 -27zM222 315h248
q-6 33 -37 52t-81 19q-98 0 -130 -71zM242.5 589q-54.5 38 -54.5 105q0 15 3 30l1 9h142l-2 -9q-4 -23 15 -35t58 -12q71 0 81 47l1 9h151l-2 -9q-18 -88 -77.5 -130.5t-163.5 -42.5q-98 0 -152.5 38z" />
    <glyph glyph-name="uni04D8" unicode="&#x4d8;" horiz-adv-x="877" 
d="M677 633q85 -36 130 -101.5t45 -152.5q0 -32 -8 -74l-2 -8q-27 -146 -136.5 -228t-277.5 -82q-113 0 -198 37t-131 104t-46 154q0 36 7 68l8 37h606q-8 63 -61.5 98.5t-142.5 35.5q-73 0 -124.5 -22t-70.5 -62h-192q41 111 144 171.5t251 60.5q114 0 199 -36zM569 165
q57 31 82 90h-421q8 -58 59 -89.5t140 -31.5q83 0 140 31z" />
    <glyph glyph-name="uni04D9" unicode="&#x4d9;" horiz-adv-x="671" 
d="M503 487.5q64 -28.5 99 -79.5t35 -117q0 -29 -5 -52l-4 -18q-20 -112 -102.5 -173t-212.5 -61q-85 0 -149.5 27t-99 75.5t-34.5 111.5q0 20 5 48l9 48h428q0 40 -32 62.5t-89 22.5q-47 0 -78 -12t-42 -34h-180q26 88 103.5 134t199.5 46q85 0 149 -28.5zM448 188h-247
q6 -33 37 -51.5t81 -18.5q99 0 129 70z" />
    <glyph glyph-name="uni04DA" unicode="&#x4da;" horiz-adv-x="877" 
d="M677 633q85 -36 130 -101.5t45 -152.5q0 -32 -8 -74l-2 -8q-27 -146 -136.5 -228t-277.5 -82q-113 0 -198 37t-131 104t-46 154q0 36 7 68l8 37h606q-8 63 -61.5 98.5t-142.5 35.5q-73 0 -124.5 -22t-70.5 -62h-192q41 111 144 171.5t251 60.5q114 0 199 -36zM569 165
q57 31 82 90h-421q8 -58 59 -89.5t140 -31.5q83 0 140 31zM336.5 732q-26.5 23 -26.5 61q0 44 28.5 70t70.5 26q39 0 65.5 -22t26.5 -60q0 -44 -29 -71t-70 -27q-39 0 -65.5 23zM597.5 732q-26.5 23 -26.5 61q0 44 28.5 70t70.5 26q39 0 65 -22t26 -58q0 -46 -28.5 -73
t-69.5 -27q-39 0 -65.5 23z" />
    <glyph glyph-name="uni04DB" unicode="&#x4db;" horiz-adv-x="671" 
d="M503 487.5q64 -28.5 99 -79.5t35 -117q0 -29 -5 -52l-4 -18q-20 -112 -102.5 -173t-212.5 -61q-85 0 -149.5 27t-99 75.5t-34.5 111.5q0 20 5 48l9 48h428q0 40 -32 62.5t-89 22.5q-47 0 -78 -12t-42 -34h-180q26 88 103.5 134t199.5 46q85 0 149 -28.5zM448 188h-247
q6 -33 37 -51.5t81 -18.5q99 0 129 70zM201.5 579q-26.5 23 -26.5 61q0 44 28.5 70t70.5 26q39 0 65.5 -22t26.5 -60q0 -44 -29 -71t-70 -27q-39 0 -65.5 23zM462.5 579q-26.5 23 -26.5 61q0 44 28.5 70t70.5 26q39 0 65 -22t26 -58q0 -46 -28.5 -73t-69.5 -27
q-39 0 -65.5 23z" />
    <glyph glyph-name="uni04DC" unicode="&#x4dc;" horiz-adv-x="1257" 
d="M1303 629l-317 -310l170 -292l-6 -27h-177l-143 252h-112l-56 -252h-180l56 252h-98l-235 -252h-207l6 27l301 321l-184 281l6 27h183l156 -249h107l55 249h180l-55 -249h94l247 249h215zM550.5 732q-26.5 23 -26.5 61q0 44 28.5 70t70.5 26q39 0 65.5 -22t26.5 -60
q0 -44 -29 -71t-70 -27q-39 0 -65.5 23zM811.5 732q-26.5 23 -26.5 61q0 44 28.5 70t70.5 26q39 0 65 -22t26 -58q0 -46 -28.5 -73t-69.5 -27q-39 0 -65.5 23z" />
    <glyph glyph-name="uni04DD" unicode="&#x4dd;" horiz-adv-x="1018" 
d="M1046 480l-220 -235l129 -221l-6 -24h-168l-103 180h-99l-40 -180h-174l40 180h-85l-173 -180h-193l6 24l231 241l-119 215l5 23h169l96 -177h96l39 177h174l-39 -177h80l166 177h193zM396.5 579q-26.5 23 -26.5 61q0 44 28.5 70t70.5 26q39 0 65.5 -22t26.5 -60
q0 -44 -29 -71t-70 -27q-39 0 -65.5 23zM657.5 579q-26.5 23 -26.5 61q0 44 28.5 70t70.5 26q39 0 65 -22t26 -58q0 -46 -28.5 -73t-69.5 -27q-39 0 -65.5 23z" />
    <glyph glyph-name="uni04DE" unicode="&#x4de;" horiz-adv-x="833" 
d="M653.5 645q75.5 -24 116 -67t40.5 -99q0 -10 -4 -34l-2 -11q-15 -77 -95 -114q61 -40 61 -105q0 -13 -3 -28l-2 -11q-17 -90 -111 -139.5t-248 -49.5q-110 0 -189.5 28.5t-121.5 81.5t-42 125q0 22 5 52l2 7h174l-1 -7q-3 -16 -3 -30q0 -103 190 -103q78 0 121.5 15
t48.5 44l2 10q1 4 1 11q0 23 -31 32t-110 9h-133l29 134h134q77 0 109.5 10t37.5 35l2 10q7 30 -34.5 47t-121.5 17q-96 0 -147 -30t-64 -94l-2 -7h-180l2 7q30 140 128 209t266 69q100 0 175.5 -24zM386.5 732q-26.5 23 -26.5 61q0 44 28.5 70t70.5 26q39 0 65.5 -22
t26.5 -60q0 -44 -29 -71t-70 -27q-39 0 -65.5 23zM647.5 732q-26.5 23 -26.5 61q0 44 28.5 70t70.5 26q39 0 65 -22t26 -58q0 -46 -28.5 -73t-69.5 -27q-39 0 -65.5 23z" />
    <glyph glyph-name="uni04DF" unicode="&#x4df;" horiz-adv-x="684" 
d="M512 497q62 -19 96 -54t34 -80q0 -12 -3 -26l-2 -8q-10 -59 -71 -89q45 -33 45 -84q0 -16 -2 -24l-2 -9q-11 -67 -84 -101.5t-204 -34.5q-144 0 -217 48.5t-73 142.5q0 24 4 45v3h159v-3q-3 -15 -3 -28q0 -42 31 -62t97 -20q110 0 119 40l1 8q5 17 -10 26.5t-46 9.5h-127
l25 112h123q32 0 46.5 6t16.5 20l2 8q5 21 -26 34t-88 13q-70 0 -105 -22t-43 -72v-4h-160v4q18 111 97.5 165.5t224.5 54.5q83 0 145 -19zM205.5 579q-26.5 23 -26.5 61q0 44 28.5 70t70.5 26q39 0 65.5 -22t26.5 -60q0 -44 -29 -71t-70 -27q-39 0 -65.5 23zM466.5 579
q-26.5 23 -26.5 61q0 44 28.5 70t70.5 26q39 0 65 -22t26 -58q0 -46 -28.5 -73t-69.5 -27q-39 0 -65.5 23z" />
    <glyph glyph-name="uni04E2" unicode="&#x4e2;" horiz-adv-x="819" 
d="M336 656l-86 -402l410 402h179l-146 -656h-178l88 402l-411 -402h-179l146 656h177zM770 869l-31 -137h-446l30 137h447z" />
    <glyph glyph-name="uni04E3" unicode="&#x4e3;" horiz-adv-x="713" 
d="M287 503l-63 -289l323 289h156l-113 -503h-164l63 289l-323 -289h-156l113 503h164zM685 716l-31 -137h-446l30 137h447z" />
    <glyph glyph-name="uni04E4" unicode="&#x4e4;" horiz-adv-x="819" 
d="M336 656l-86 -402l410 402h179l-146 -656h-178l88 402l-411 -402h-179l146 656h177zM331.5 732q-26.5 23 -26.5 61q0 44 28.5 70t70.5 26q39 0 65.5 -22t26.5 -60q0 -44 -29 -71t-70 -27q-39 0 -65.5 23zM592.5 732q-26.5 23 -26.5 61q0 44 28.5 70t70.5 26q39 0 65 -22
t26 -58q0 -46 -28.5 -73t-69.5 -27q-39 0 -65.5 23z" />
    <glyph glyph-name="uni04E5" unicode="&#x4e5;" horiz-adv-x="713" 
d="M287 503l-63 -289l323 289h156l-113 -503h-164l63 289l-323 -289h-156l113 503h164zM246.5 579q-26.5 23 -26.5 61q0 44 28.5 70t70.5 26q39 0 65.5 -22t26.5 -60q0 -44 -29 -71t-70 -27q-39 0 -65.5 23zM507.5 579q-26.5 23 -26.5 61q0 44 28.5 70t70.5 26q39 0 65 -22
t26 -58q0 -46 -28.5 -73t-69.5 -27q-39 0 -65.5 23z" />
    <glyph glyph-name="uni04E6" unicode="&#x4e6;" horiz-adv-x="877" 
d="M232 24q-84 37 -129.5 103t-45.5 152q0 34 7 68l2 6q31 150 140 233t278 83q111 0 195 -36.5t129.5 -102.5t45.5 -151q0 -32 -8 -70l-1 -7q-31 -150 -139.5 -232.5t-278.5 -82.5q-111 0 -195 37zM589 189.5q59 41.5 76 121.5l3 11q5 19 5 44q0 66 -52 104t-145 38
q-95 0 -153.5 -41.5t-77.5 -122.5l-3 -12q-6 -22 -6 -44q0 -65 52 -102.5t145 -37.5q97 0 156 41.5zM337.5 732q-26.5 23 -26.5 61q0 44 28.5 70t70.5 26q39 0 65.5 -22t26.5 -60q0 -44 -29 -71t-70 -27q-39 0 -65.5 23zM598.5 732q-26.5 23 -26.5 61q0 44 28.5 70t70.5 26
q39 0 65 -22t26 -58q0 -46 -28.5 -73t-69.5 -27q-39 0 -65.5 23z" />
    <glyph glyph-name="uni04E7" unicode="&#x4e7;" horiz-adv-x="685" 
d="M172.5 16q-66.5 29 -102 81t-35.5 121q0 22 5 50l2 11q19 113 101.5 175t214.5 62q89 0 155 -28.5t101 -80.5t35 -121q0 -23 -5 -53l-2 -11q-19 -112 -100 -173.5t-213 -61.5q-90 0 -156.5 29zM424.5 163.5q34.5 25.5 43.5 73.5l2 8q3 14 3 26q0 43 -32.5 68.5
t-88.5 25.5q-57 0 -92 -26t-44 -76l-2 -7q-2 -8 -2 -24q0 -43 32.5 -68.5t89.5 -25.5q56 0 90.5 25.5zM202.5 579q-26.5 23 -26.5 61q0 44 28.5 70t70.5 26q39 0 65.5 -22t26.5 -60q0 -44 -29 -71t-70 -27q-39 0 -65.5 23zM463.5 579q-26.5 23 -26.5 61q0 44 28.5 70
t70.5 26q39 0 65 -22t26 -58q0 -46 -28.5 -73t-69.5 -27q-39 0 -65.5 23z" />
    <glyph glyph-name="uni04E8" unicode="&#x4e8;" horiz-adv-x="877" 
d="M680 632.5q84 -36.5 129 -102t45 -150.5q0 -33 -8 -71l-1 -7q-31 -151 -139.5 -233t-278.5 -82q-111 0 -195.5 36.5t-130 102.5t-45.5 151q0 32 8 70l2 6q31 150 140 233t279 83q111 0 195 -36.5zM263 401h411q-9 55 -60 86t-136 31q-162 0 -215 -117zM566.5 167.5
q54.5 29.5 81.5 87.5h-411q8 -55 59 -86t136 -31q80 0 134.5 29.5z" />
    <glyph glyph-name="uni04E9" unicode="&#x4e9;" horiz-adv-x="685" 
d="M512.5 487.5q65.5 -28.5 101 -80.5t35.5 -120q0 -30 -5 -54l-2 -12q-20 -112 -101 -173t-212 -61q-89 0 -155.5 29t-102.5 81t-36 120q0 21 5 51l3 12q20 113 102 174.5t213 61.5q89 0 154.5 -28.5zM260 365.5q-37 -20.5 -54 -59.5h287q-10 38 -46.5 59t-93.5 21
q-56 0 -93 -20.5zM479 197h-287q9 -37 46.5 -58t95.5 -21q113 0 145 79z" />
    <glyph glyph-name="uni04EE" unicode="&#x4ee;" horiz-adv-x="759" 
d="M844 656l-6 -27l-363 -482q-43 -57 -78.5 -88t-74.5 -45t-92 -14h-171l33 154h141q31 0 51 12l-177 463l6 27h172l119 -341l242 341h198zM756 869l-31 -137h-446l30 137h447z" />
    <glyph glyph-name="uni04EF" unicode="&#x4ef;" horiz-adv-x="697" 
d="M741 503l-6 -23l-376 -535q-43 -61 -93 -88t-133 -27h-155l31 146h136q30 0 49 13l-141 491l5 23h175l88 -333l224 333h196zM669 716l-31 -137h-446l30 137h447z" />
    <glyph glyph-name="uni04F0" unicode="&#x4f0;" horiz-adv-x="759" 
d="M844 656l-6 -27l-363 -482q-43 -57 -78.5 -88t-74.5 -45t-92 -14h-171l33 154h141q31 0 51 12l-177 463l6 27h172l119 -341l242 341h198zM317.5 732q-26.5 23 -26.5 61q0 44 28.5 70t70.5 26q39 0 65.5 -22t26.5 -60q0 -44 -29 -71t-70 -27q-39 0 -65.5 23zM578.5 732
q-26.5 23 -26.5 61q0 44 28.5 70t70.5 26q39 0 65 -22t26 -58q0 -46 -28.5 -73t-69.5 -27q-39 0 -65.5 23z" />
    <glyph glyph-name="uni04F1" unicode="&#x4f1;" horiz-adv-x="697" 
d="M741 503l-6 -23l-376 -535q-43 -61 -93 -88t-133 -27h-155l31 146h136q30 0 49 13l-141 491l5 23h175l88 -333l224 333h196zM230.5 579q-26.5 23 -26.5 61q0 44 28.5 70t70.5 26q39 0 65.5 -22t26.5 -60q0 -44 -29 -71t-70 -27q-39 0 -65.5 23zM491.5 579
q-26.5 23 -26.5 61q0 44 28.5 70t70.5 26q39 0 65 -22t26 -58q0 -46 -28.5 -73t-69.5 -27q-39 0 -65.5 23z" />
    <glyph glyph-name="uni04F2" unicode="&#x4f2;" horiz-adv-x="759" 
d="M844 656l-6 -27l-363 -482q-43 -57 -78.5 -88t-74.5 -45t-92 -14h-171l33 154h141q31 0 51 12l-177 463l6 27h172l119 -341l242 341h198zM559 902l-32 -141l-290 -61l33 142zM870 902l-32 -141l-289 -61l32 142z" />
    <glyph glyph-name="uni04F3" unicode="&#x4f3;" horiz-adv-x="697" 
d="M741 503l-6 -23l-376 -535q-43 -61 -93 -88t-133 -27h-155l31 146h136q30 0 49 13l-141 491l5 23h175l88 -333l224 333h196zM472 749l-32 -141l-290 -61l33 142zM783 749l-32 -141l-289 -61l32 142z" />
    <glyph glyph-name="uni04F4" unicode="&#x4f4;" horiz-adv-x="799" 
d="M819 656l-146 -656h-180l50 224q-83 -11 -156 -11q-138 0 -213 56.5t-75 156.5q0 29 6 60l34 170h181l-39 -171q-4 -15 -4 -31q0 -43 36 -64t110 -21q48 0 154 6l62 281h180zM315.5 732q-26.5 23 -26.5 61q0 44 28.5 70t70.5 26q39 0 65.5 -22t26.5 -60q0 -44 -29 -71
t-70 -27q-39 0 -65.5 23zM576.5 732q-26.5 23 -26.5 61q0 44 28.5 70t70.5 26q39 0 65 -22t26 -58q0 -46 -28.5 -73t-69.5 -27q-39 0 -65.5 23z" />
    <glyph glyph-name="uni04F5" unicode="&#x4f5;" horiz-adv-x="677" 
d="M669 503l-113 -503h-173l33 148q-70 -7 -116 -7q-115 0 -177.5 48.5t-62.5 133.5q0 26 6 54l26 126h173l-28 -130q-2 -7 -2 -21q0 -63 100 -63q59 0 114 6l46 208h174zM213.5 579q-26.5 23 -26.5 61q0 44 28.5 70t70.5 26q39 0 65.5 -22t26.5 -60q0 -44 -29 -71t-70 -27
q-39 0 -65.5 23zM474.5 579q-26.5 23 -26.5 61q0 44 28.5 70t70.5 26q39 0 65 -22t26 -58q0 -46 -28.5 -73t-69.5 -27q-39 0 -65.5 23z" />
    <glyph glyph-name="uni04F8" unicode="&#x4f8;" horiz-adv-x="1013" 
d="M340 656l-47 -214h182q106 0 167.5 -50.5t61.5 -135.5q0 -25 -6 -52l-3 -13q-18 -95 -87 -142.5t-191 -47.5h-403l146 655h180zM1034 656l-146 -656h-181l146 656h181zM522 211l2 12q2 12 2 17q0 25 -19 39t-53 14h-193l-34 -143h203q80 0 92 61zM429.5 732
q-26.5 23 -26.5 61q0 44 28.5 70t70.5 26q39 0 65.5 -22t26.5 -60q0 -44 -29 -71t-70 -27q-39 0 -65.5 23zM690.5 732q-26.5 23 -26.5 61q0 44 28.5 70t70.5 26q39 0 65 -22t26 -58q0 -46 -28.5 -73t-69.5 -27q-39 0 -65.5 23z" />
    <glyph glyph-name="uni04F9" unicode="&#x4f9;" horiz-adv-x="902" 
d="M521 370q46 -21 71 -59t25 -86q0 -26 -5 -46l-2 -10q-34 -169 -241 -169h-368l112 503h174l-25 -112h152q61 0 107 -21zM903 503l-113 -503h-173l112 503h174zM445 212q0 20 -14 31t-42 11h-158l-26 -118h168q28 0 45.5 11.5t22.5 34.5l2 12q2 6 2 18zM339.5 579
q-26.5 23 -26.5 61q0 44 28.5 70t70.5 26q39 0 65.5 -22t26.5 -60q0 -44 -29 -71t-70 -27q-39 0 -65.5 23zM600.5 579q-26.5 23 -26.5 61q0 44 28.5 70t70.5 26q39 0 65 -22t26 -58q0 -46 -28.5 -73t-69.5 -27q-39 0 -65.5 23z" />
    <glyph glyph-name="uni1E62" unicode="&#x1e62;" horiz-adv-x="771" 
d="M120.5 36.5q-80.5 49.5 -80.5 139.5q0 18 5 45l2 10h176l-2 -10q-2 -10 -2 -15q0 -35 39 -53.5t112 -18.5q144 0 155 56l1 7q1 3 1 9q0 17 -17.5 27.5t-54.5 17.5l-159 27q-90 15 -137 56t-47 103q0 21 4 38l2 10q18 91 101.5 137.5t230.5 46.5q145 0 224.5 -48
t79.5 -135q0 -21 -4 -40l-2 -8h-174l1 8q1 4 1 13q0 63 -139 63q-136 0 -145 -50l-1 -7q-4 -18 12 -29t55 -18l161 -27q93 -16 141.5 -57.5t48.5 -104.5q0 -18 -5 -41l-3 -11q-18 -94 -106 -142t-245 -48q-149 0 -229.5 49.5zM246 -215.5q-28 24.5 -28 65.5q0 46 31 74
t75 28q42 0 70 -24t28 -65q0 -47 -30.5 -75t-75.5 -28q-42 0 -70 24.5z" />
    <glyph glyph-name="uni1E63" unicode="&#x1e63;" horiz-adv-x="688" 
d="M99.5 27.5q-75.5 40.5 -75.5 113.5q0 8 2 24v4h161v-4q-4 -27 28.5 -39t108.5 -12q62 0 93 7.5t36 24.5l1 5q3 13 -9.5 19t-47.5 10l-130 15q-93 10 -140 43.5t-47 86.5q0 14 3 27l2 11q14 75 91.5 114t213.5 39q132 0 202.5 -39t70.5 -112q0 -8 -2 -26v-4h-160v4
q9 51 -128 51q-118 0 -126 -30l-1 -5q-6 -23 50 -29l133 -15q96 -10 145 -44t49 -88q0 -13 -3 -27l-2 -10q-14 -76 -91.5 -115.5t-213.5 -39.5q-138 0 -213.5 40.5zM218 -215.5q-28 24.5 -28 65.5q0 46 31 74t75 28q42 0 70 -24t28 -65q0 -47 -30.5 -75t-75.5 -28
q-42 0 -70 24.5z" />
    <glyph glyph-name="Wgrave" unicode="&#x1e80;" horiz-adv-x="1175" 
d="M1253 656l-6 -27l-359 -629h-217l-51 428l-240 -428h-218l-80 629l5 27h173l50 -452l255 452h195l54 -453l248 453h191zM499 900l432 -63l-28 -132l-432 63z" />
    <glyph glyph-name="wgrave" unicode="&#x1e81;" horiz-adv-x="1067" 
d="M1111 503l-6 -23l-295 -480h-226l-49 287l-175 -287h-225l-82 480l5 23h175l44 -335l206 335h181l58 -339l200 339h189zM414 747l432 -63l-28 -132l-432 63z" />
    <glyph glyph-name="Wacute" unicode="&#x1e82;" horiz-adv-x="1175" 
d="M1253 656l-6 -27l-359 -629h-217l-51 428l-240 -428h-218l-80 629l5 27h173l50 -452l255 452h195l54 -453l248 453h191zM948 903l-32 -139l-461 -64l32 140z" />
    <glyph glyph-name="wacute" unicode="&#x1e83;" horiz-adv-x="1067" 
d="M1111 503l-6 -23l-295 -480h-226l-49 287l-175 -287h-225l-82 480l5 23h175l44 -335l206 335h181l58 -339l200 339h189zM862 750l-32 -139l-461 -64l32 140z" />
    <glyph glyph-name="Wdieresis" unicode="&#x1e84;" horiz-adv-x="1175" 
d="M1253 656l-6 -27l-359 -629h-217l-51 428l-240 -428h-218l-80 629l5 27h173l50 -452l255 452h195l54 -453l248 453h191zM501.5 732q-26.5 23 -26.5 61q0 44 28.5 70t70.5 26q39 0 65.5 -22t26.5 -60q0 -44 -29 -71t-70 -27q-39 0 -65.5 23zM762.5 732q-26.5 23 -26.5 61
q0 44 28.5 70t70.5 26q39 0 65 -22t26 -58q0 -46 -28.5 -73t-69.5 -27q-39 0 -65.5 23z" />
    <glyph glyph-name="wdieresis" unicode="&#x1e85;" horiz-adv-x="1067" 
d="M1111 503l-6 -23l-295 -480h-226l-49 287l-175 -287h-225l-82 480l5 23h175l44 -335l206 335h181l58 -339l200 339h189zM415.5 579q-26.5 23 -26.5 61q0 44 28.5 70t70.5 26q39 0 65.5 -22t26.5 -60q0 -44 -29 -71t-70 -27q-39 0 -65.5 23zM676.5 579q-26.5 23 -26.5 61
q0 44 28.5 70t70.5 26q39 0 65 -22t26 -58q0 -46 -28.5 -73t-69.5 -27q-39 0 -65.5 23z" />
    <glyph glyph-name="uni1E9E" unicode="&#x1e9e;" horiz-adv-x="821" 
d="M802 502l-182 -122q74 -13 112.5 -51.5t38.5 -98.5q0 -22 -4 -41l-2 -11q-19 -95 -85 -136.5t-199 -41.5h-152l32 148h138q41 0 63.5 11t26.5 34l2 11q1 4 1 11q0 20 -18.5 31t-51.5 11h-135l28 128l168 117h-228q-26 0 -40.5 -11.5t-20.5 -37.5l-101 -453h-180l108 480
q20 91 74.5 133.5t149.5 42.5h490z" />
    <glyph glyph-name="uni1EB8" unicode="&#x1eb8;" horiz-adv-x="723" 
d="M757 656l-33 -149h-417l-25 -105h398l-32 -147h-398l-25 -106h418l-32 -149h-598l146 656h598zM220 -215.5q-28 24.5 -28 65.5q0 46 31 74t75 28q42 0 70 -24t28 -65q0 -47 -30.5 -75t-75.5 -28q-42 0 -70 24.5z" />
    <glyph glyph-name="uni1EB9" unicode="&#x1eb9;" horiz-adv-x="671" 
d="M507.5 489q64.5 -27 99 -75.5t34.5 -111.5q0 -20 -5 -48l-9 -48h-428q1 -40 32.5 -62.5t88.5 -22.5q47 0 78 12t42 35h180q-26 -89 -103.5 -135t-199.5 -46q-85 0 -149 28.5t-99 80t-35 117.5q0 30 5 52l4 18q20 111 102.5 172t212.5 61q85 0 149.5 -27zM222 315h248
q-6 33 -37 52t-81 19q-98 0 -130 -71zM197 -215.5q-28 24.5 -28 65.5q0 46 31 74t75 28q42 0 70 -24t28 -65q0 -47 -30.5 -75t-75.5 -28q-42 0 -70 24.5z" />
    <glyph glyph-name="uni1EBC" unicode="&#x1ebc;" horiz-adv-x="723" 
d="M757 656l-33 -149h-417l-25 -105h398l-32 -147h-398l-25 -106h418l-32 -149h-598l146 656h598zM520.5 726q-34.5 7 -39.5 8q-66 15 -109 15q-63 0 -123 -28l30 134q51 27 110 27q25 0 48 -4t57 -12q36 -8 61 -12t52 -4q65 0 123 26l-31 -134q-50 -23 -109 -23
q-35 0 -69.5 7z" />
    <glyph glyph-name="uni1EBD" unicode="&#x1ebd;" horiz-adv-x="671" 
d="M507.5 489q64.5 -27 99 -75.5t34.5 -111.5q0 -20 -5 -48l-9 -48h-428q1 -40 32.5 -62.5t88.5 -22.5q47 0 78 12t42 35h180q-26 -89 -103.5 -135t-199.5 -46q-85 0 -149 28.5t-99 80t-35 117.5q0 30 5 52l4 18q20 111 102.5 172t212.5 61q85 0 149.5 -27zM222 315h248
q-6 33 -37 52t-81 19q-98 0 -130 -71zM428.5 573q-34.5 7 -39.5 8q-66 15 -109 15q-63 0 -123 -28l30 134q51 27 110 27q25 0 48 -4t57 -12q36 -8 61 -12t52 -4q65 0 123 26l-31 -134q-50 -23 -109 -23q-35 0 -69.5 7z" />
    <glyph glyph-name="uni1ECA" unicode="&#x1eca;" horiz-adv-x="299" 
d="M329 656l-146 -656h-180l146 656h180zM-12 -215.5q-28 24.5 -28 65.5q0 46 31 74t75 28q42 0 70 -24t28 -65q0 -47 -30.5 -75t-75.5 -28q-42 0 -70 24.5z" />
    <glyph glyph-name="uni1ECB" unicode="&#x1ecb;" horiz-adv-x="286" 
d="M286 503l-112 -503h-174l112 503h174zM158.5 576q-28.5 25 -28.5 65q0 48 30.5 75t75.5 27q42 0 70 -24t28 -65q0 -47 -31 -75t-75 -28q-41 0 -69.5 25zM-19 -215.5q-28 24.5 -28 65.5q0 46 31 74t75 28q42 0 70 -24t28 -65q0 -47 -30.5 -75t-75.5 -28q-42 0 -70 24.5z
" />
    <glyph glyph-name="uni1ECC" unicode="&#x1ecc;" horiz-adv-x="877" 
d="M232 24q-84 37 -129.5 103t-45.5 152q0 34 7 68l2 6q31 150 140 233t278 83q111 0 195 -36.5t129.5 -102.5t45.5 -151q0 -32 -8 -70l-1 -7q-31 -150 -139.5 -232.5t-278.5 -82.5q-111 0 -195 37zM589 189.5q59 41.5 76 121.5l3 11q5 19 5 44q0 66 -52 104t-145 38
q-95 0 -153.5 -41.5t-77.5 -122.5l-3 -12q-6 -22 -6 -44q0 -65 52 -102.5t145 -37.5q97 0 156 41.5zM302 -215.5q-28 24.5 -28 65.5q0 46 31 74t75 28q42 0 70 -24t28 -65q0 -47 -30.5 -75t-75.5 -28q-42 0 -70 24.5z" />
    <glyph glyph-name="uni1ECD" unicode="&#x1ecd;" horiz-adv-x="685" 
d="M172.5 16q-66.5 29 -102 81t-35.5 121q0 22 5 50l2 11q19 113 101.5 175t214.5 62q89 0 155 -28.5t101 -80.5t35 -121q0 -23 -5 -53l-2 -11q-19 -112 -100 -173.5t-213 -61.5q-90 0 -156.5 29zM424.5 163.5q34.5 25.5 43.5 73.5l2 8q3 14 3 26q0 43 -32.5 68.5
t-88.5 25.5q-57 0 -92 -26t-44 -76l-2 -7q-2 -8 -2 -24q0 -43 32.5 -68.5t89.5 -25.5q56 0 90.5 25.5zM206 -215.5q-28 24.5 -28 65.5q0 46 31 74t75 28q42 0 70 -24t28 -65q0 -47 -30.5 -75t-75.5 -28q-42 0 -70 24.5z" />
    <glyph glyph-name="uni1EE4" unicode="&#x1ee4;" horiz-adv-x="793" 
d="M215 19.5q-69 32.5 -106.5 91.5t-37.5 136q0 39 8 74l72 335h180l-79 -353q-5 -25 -5 -41q0 -54 35.5 -84t101.5 -30q146 0 179 147l82 361h181l-91 -378q-34 -142 -124 -216.5t-233 -74.5q-94 0 -163 32.5zM260 -215.5q-28 24.5 -28 65.5q0 46 31 74t75 28q42 0 70 -24
t28 -65q0 -47 -30.5 -75t-75.5 -28q-42 0 -70 24.5z" />
    <glyph glyph-name="uni1EE5" unicode="&#x1ee5;" horiz-adv-x="711" 
d="M700 503l-112 -503h-153l2 40q-69 -51 -162 -53q-104 0 -163.5 55t-59.5 150q0 39 8 72l53 239h173l-56 -247q-4 -16 -4 -34q0 -40 26 -61.5t74 -21.5q40 0 75 17.5t59 48.5l67 298h173zM191 -215.5q-28 24.5 -28 65.5q0 46 31 74t75 28q42 0 70 -24t28 -65
q0 -47 -30.5 -75t-75.5 -28q-42 0 -70 24.5z" />
    <glyph glyph-name="Ygrave" unicode="&#x1ef2;" horiz-adv-x="726" 
d="M809 629l-364 -378l-56 -251h-180l59 264l-199 365l6 27h172l134 -255l238 255h195zM274 900l432 -63l-28 -132l-432 63z" />
    <glyph glyph-name="ygrave" unicode="&#x1ef3;" horiz-adv-x="697" 
d="M741 503l-6 -23l-376 -535q-43 -61 -93 -88t-133 -27h-155l31 146h136q30 0 49 13l-141 491l5 23h175l88 -333l224 333h196zM229 747l432 -63l-28 -132l-432 63z" />
    <glyph glyph-name="uni1EF8" unicode="&#x1ef8;" horiz-adv-x="726" 
d="M809 629l-364 -378l-56 -251h-180l59 264l-199 365l6 27h172l134 -255l238 255h195zM507.5 726q-34.5 7 -39.5 8q-66 15 -109 15q-63 0 -123 -28l30 134q51 27 110 27q25 0 48 -4t57 -12q36 -8 61 -12t52 -4q65 0 123 26l-31 -134q-50 -23 -109 -23q-35 0 -69.5 7z" />
    <glyph glyph-name="uni1EF9" unicode="&#x1ef9;" horiz-adv-x="697" 
d="M741 503l-6 -23l-376 -535q-43 -61 -93 -88t-133 -27h-155l31 146h136q30 0 49 13l-141 491l5 23h175l88 -333l224 333h196zM462.5 573q-34.5 7 -39.5 8q-66 15 -109 15q-63 0 -123 -28l30 134q51 27 110 27q25 0 48 -4t57 -12q36 -8 61 -12t52 -4q65 0 123 26l-31 -134
q-50 -23 -109 -23q-35 0 -69.5 7z" />
    <glyph glyph-name="uni2009" unicode="&#x2009;" horiz-adv-x="200" 
 />
    <glyph glyph-name="uni2010" unicode="&#x2010;" horiz-adv-x="442" 
d="M415 354l-34 -152h-342l34 152h342z" />
    <glyph glyph-name="uni2011" unicode="&#x2011;" horiz-adv-x="442" 
d="M415 354l-34 -152h-342l34 152h342z" />
    <glyph glyph-name="endash" unicode="&#x2013;" horiz-adv-x="564" 
d="M539 354l-34 -152h-468l34 152h468z" />
    <glyph glyph-name="emdash" unicode="&#x2014;" horiz-adv-x="1122" 
d="M1075 354l-34 -152h-982l34 152h982z" />
    <glyph glyph-name="uni2015" unicode="&#x2015;" horiz-adv-x="1122" 
d="M1075 354l-34 -152h-982l34 152h982z" />
    <glyph glyph-name="quoteleft" unicode="&#x2018;" horiz-adv-x="334" 
d="M79 418l164 278h160l-137 -303h-192z" />
    <glyph glyph-name="quoteright" unicode="&#x2019;" horiz-adv-x="334" 
d="M390 696l-5 -25l-164 -278h-160l137 303h192z" />
    </font>
</defs>
</svg>
