<?xml version="1.0" standalone="no"?>
<!DOCTYPE svg PUBLIC "-//W3C//DTD SVG 1.1//EN" "http://www.w3.org/Graphics/SVG/1.1/DTD/svg11.dtd" >
<svg xmlns="http://www.w3.org/2000/svg" xmlns:xlink="http://www.w3.org/1999/xlink" version="1.1">
<metadata>
Created by FontForge 20170731 at Fri Jun  7 20:40:08 2019
 By Aleksey,,,
Copyright (c) 2019 by Lisa Fischbach, Jakob Runge and Nils Thomsen. All rights reserved.
</metadata>
<defs>
<font id="HalvarBreit-Blk" horiz-adv-x="554" >
  <font-face 
    font-family="Halvar Breit Blk"
    font-weight="900"
    font-stretch="expanded"
    units-per-em="1000"
    panose-1="0 0 10 5 0 0 0 0 0 0"
    ascent="800"
    descent="-200"
    x-height="506"
    cap-height="656"
    bbox="-280 -250 1398 979"
    underline-thickness="50"
    underline-position="-200"
    unicode-range="U+0020-FB02"
  />
<missing-glyph horiz-adv-x="436" 
d="M15 656h185l-200 -200v185zM234 656h185l-419 -420v185zM436 641v-185l-436 -440v185zM436 236l-234 -236h-185l419 421v-185zM436 16l-15 -16h-185l200 201v-185z" />
    <glyph glyph-name=".notdef" horiz-adv-x="436" 
d="M15 656h185l-200 -200v185zM234 656h185l-419 -420v185zM436 641v-185l-436 -440v185zM436 236l-234 -236h-185l419 421v-185zM436 16l-15 -16h-185l200 201v-185z" />
    <glyph glyph-name=".null" horiz-adv-x="0" 
 />
    <glyph glyph-name="nonmarkingreturn" horiz-adv-x="333" 
 />
    <glyph glyph-name="space" unicode=" " horiz-adv-x="400" 
 />
    <glyph glyph-name="exclam" unicode="!" horiz-adv-x="352" 
d="M277 656l-10 -413h-181l-11 413h202zM95 17q-31 30 -31 79q0 48 31 78t81 30t81 -30t31 -78q0 -49 -31 -79t-81 -30t-81 30z" />
    <glyph glyph-name="quotedbl" unicode="&#x22;" horiz-adv-x="573" 
d="M254 696l-6 -313h-172l-6 313h184zM503 696l-6 -313h-172l-6 313h184z" />
    <glyph glyph-name="numbersign" unicode="#" horiz-adv-x="844" 
d="M669 388l-8 -120h116v-180h-127l-5 -88h-190l5 88h-106l-5 -88h-190l5 88h-117v180h128l8 120h-116v180h127l5 88h190l-6 -88h107l5 88h190l-5 -88h117v-180h-128zM477 263l8 130h-117l-8 -130h117z" />
    <glyph glyph-name="dollar" unicode="$" horiz-adv-x="816" 
d="M756 235v-10q0 -80 -63 -132t-179 -69v-84h-218v84q-237 32 -237 216v7h195v-7q0 -39 38.5 -57.5t120.5 -18.5q72 0 105.5 10.5t33.5 32.5v6q0 16 -15 24.5t-50 12.5l-197 21q-221 24 -221 168v10q0 74 59 121t168 62v85h218v-86q111 -17 168.5 -67.5t57.5 -133.5v-7
h-193v7q0 33 -35 47.5t-115 14.5q-67 0 -97.5 -8.5t-30.5 -27.5v-6q0 -13 15 -20t55 -11l191 -22q226 -25 226 -162z" />
    <glyph glyph-name="percent" unicode="%" horiz-adv-x="970" 
d="M72 381q-56 42 -56 113v14q0 73 55 114.5t152 41.5t151 -41t54 -115v-14q0 -72 -55 -113.5t-150 -41.5t-151 42zM258.5 469q13.5 10 13.5 27v10q0 18 -13.5 28t-36.5 10t-36.5 -10t-13.5 -28v-10q0 -17 13.5 -27t36.5 -10t36.5 10zM598 35q-56 42 -56 113v14
q0 73 55 114.5t152 41.5t151 -41t54 -115v-14q0 -72 -55 -113.5t-150 -41.5t-151 42zM784.5 123q13.5 10 13.5 27v10q0 18 -13.5 28t-36.5 10t-36.5 -10t-13.5 -28v-10q0 -17 13.5 -27t36.5 -10t36.5 10zM659 656h190v-30l-539 -626h-190v27z" />
    <glyph glyph-name="ampersand" unicode="&#x26;" horiz-adv-x="915" 
d="M910 349l-203 -190l192 -132v-27h-245l-74 53q-103 -66 -248 -66q-90 0 -157.5 24t-104.5 67.5t-37 100.5v9q0 58 32 101t92 69q-33 30 -47.5 58.5t-14.5 62.5v9q0 53 36 94t100.5 64t147.5 23q82 0 144 -21.5t95.5 -62t33.5 -93.5v-9q0 -58 -33 -99t-97 -62l-35 -11
l80 -55l123 119h220v-26zM290 468q0 -11 7 -21t26 -23l28 -19l34 11q38 12 54.5 24t16.5 28v7q0 20 -20.5 31t-60.5 11q-39 0 -62 -11.5t-23 -30.5v-7zM434 157l-147 105q-28 -10 -40.5 -23t-12.5 -33v-10q0 -57 96 -57q56 0 104 18z" />
    <glyph glyph-name="quotesingle" unicode="'" horiz-adv-x="334" 
d="M264 696l-6 -313h-182l-6 313h194z" />
    <glyph glyph-name="parenleft" unicode="(" horiz-adv-x="466" 
d="M230 -37q-88 39 -135.5 110.5t-47.5 166.5v177q0 95 47.5 166.5t135.5 110.5t204 39v-173q-94 2 -143.5 -37t-49.5 -114v-161q0 -75 49.5 -114t143.5 -37v-173q-116 0 -204 39z" />
    <glyph glyph-name="parenright" unicode=")" horiz-adv-x="466" 
d="M236 694q88 -39 135.5 -110.5t47.5 -166.5v-177q0 -95 -47.5 -166.5t-135.5 -110.5t-204 -39v173q94 -2 143.5 37t49.5 114v161q0 75 -49.5 114t-143.5 37v173q116 0 204 -39z" />
    <glyph glyph-name="asterisk" unicode="*" horiz-adv-x="640" 
d="M488 498l137 -31l-53 -144l-176 79l5 -91h-162l6 92l-178 -80l-52 144l137 31l-137 31l52 144l178 -81l-6 93h162l-5 -92l176 80l53 -144z" />
    <glyph glyph-name="plus" unicode="+" horiz-adv-x="816" 
d="M715 238h-217v-197h-180v197h-217v180h217v197h180v-197h217v-180z" />
    <glyph glyph-name="comma" unicode="," horiz-adv-x="334" 
d="M301 170v-27l-106 -286h-174l69 313h211z" />
    <glyph glyph-name="hyphen" unicode="-" horiz-adv-x="442" 
d="M392 365v-173h-342v173h342z" />
    <glyph glyph-name="period" unicode="." horiz-adv-x="334" 
d="M86 17q-31 30 -31 79q0 48 31 78t81 30t81 -30t31 -78q0 -49 -31 -79t-81 -30t-81 30z" />
    <glyph glyph-name="slash" unicode="/" horiz-adv-x="703" 
d="M463 727h203v-30l-426 -768h-203v30z" />
    <glyph glyph-name="zero" unicode="0" horiz-adv-x="817" 
d="M212 27q-86 40 -133.5 112t-47.5 166v45q0 94 47.5 166.5t133.5 112.5t198 40t197 -40t132 -112t47 -167v-45q0 -95 -46.5 -167t-132 -111.5t-197.5 -39.5t-198 40zM543 205q42 31 42 97v50q0 130 -176 130q-88 0 -132.5 -33t-44.5 -97v-50q0 -65 44 -96.5t134 -31.5
q91 0 133 31z" />
    <glyph glyph-name="one" unicode="1" horiz-adv-x="519" 
d="M426 0h-201v425q-37 -12 -81 -12h-93v187h93q43 0 62 13t19 43h201v-656z" />
    <glyph glyph-name="two" unicode="2" horiz-adv-x="755" 
d="M710 157v-157h-650v153l344 190q56 31 75.5 50t19.5 41v8q0 31 -30 47t-87 16q-64 0 -97.5 -22.5t-33.5 -65.5v-20h-193v21q0 251 321 251q153 0 238 -56.5t85 -157.5v-10q0 -63 -46 -118.5t-147 -110.5l-108 -59h309z" />
    <glyph glyph-name="three" unicode="3" horiz-adv-x="790" 
d="M699 324q50 -47 50 -120v-10q0 -103 -88.5 -155t-263.5 -52q-177 1 -263.5 58t-86.5 174v3h197v-3q0 -34 37.5 -49t117.5 -15q77 0 112.5 11.5t35.5 37.5v10q0 22 -36 32.5t-116 10.5h-136v130l171 99h-369v170h668v-170l-178 -97q98 -18 148 -65z" />
    <glyph glyph-name="four" unicode="4" horiz-adv-x="898" 
d="M841 116h-121v-116h-201v116h-465v180q59 96 95 181.5t57 178.5h213v-30q-41 -164 -130 -330h230v249h201v-249h121v-180z" />
    <glyph glyph-name="five" unicode="5" horiz-adv-x="801" 
d="M675.5 383.5q84.5 -55.5 84.5 -160.5v-10q0 -114 -87 -170t-265 -56t-264 54t-86 165v5h197v-5q0 -51 155 -51q77 0 112.5 14t35.5 44v10q0 26 -39 40t-113 14q-71 0 -107 -7t-44 -22h-196l20 408h638v-180h-474l-4 -76q70 39 194 39q158 0 242.5 -55.5z" />
    <glyph glyph-name="six" unicode="6" horiz-adv-x="786" 
d="M675.5 369q85.5 -53 85.5 -153v-5q0 -109 -93 -166.5t-268 -57.5q-115 0 -198 32.5t-127 94t-44 145.5v123q0 137 98.5 212t276.5 75q166 0 255.5 -59.5t89.5 -169.5v-3h-195v3q0 29 -41 45.5t-111 16.5q-83 0 -127.5 -30.5t-44.5 -86.5v-6q70 43 197 43q161 0 246.5 -53
zM560 213q0 30 -35 43t-116 13q-124 0 -175 -34q17 -81 175 -81q78 0 114.5 14t36.5 44v1z" />
    <glyph glyph-name="seven" unicode="7" horiz-adv-x="757" 
d="M709 656v-180q-127 -127 -197.5 -245t-70.5 -206v-25h-233v25q0 92 67.5 208.5t194.5 242.5h-429v180h668z" />
    <glyph glyph-name="eight" unicode="8" horiz-adv-x="853" 
d="M802 217v-10q0 -110 -94 -165t-281 -55q-376 0 -376 220v10q0 90 93 135q-63 46 -63 117v10q0 90 91 140t255 50q163 0 254 -50t91 -140v-10q0 -71 -63 -117q93 -45 93 -135zM270 456q0 -20 13.5 -30t46.5 -14t97 -4t96.5 4t46 14t13.5 30v3q0 20 -14 30.5t-47 15
t-95 4.5t-95.5 -4.5t-47.5 -15t-14 -30.5v-3zM601 203q0 18 -15.5 28t-52 14t-106.5 4t-107 -4t-52.5 -14t-15.5 -28v-3q0 -20 15.5 -31t52.5 -15.5t107 -4.5t106.5 4.5t52 15.5t15.5 31v3z" />
    <glyph glyph-name="nine" unicode="9" horiz-adv-x="786" 
d="M584 637.5q83 -32.5 127 -94t44 -145.5v-123q0 -137 -98.5 -212t-276.5 -75q-166 0 -255.5 59.5t-89.5 169.5v3h195v-3q0 -29 41 -45.5t111 -16.5q83 0 127.5 30.5t44.5 86.5v6q-70 -43 -197 -43q-161 0 -246.5 53t-85.5 153v5q0 109 93 166.5t268 57.5q115 0 198 -32.5z
M261 401q35 -13 116 -13q124 0 175 34q-16 81 -175 81q-78 0 -114.5 -14t-36.5 -44v-1q0 -30 35 -43z" />
    <glyph glyph-name="colon" unicode=":" horiz-adv-x="374" 
d="M106 17q-31 30 -31 79q0 48 31 78t81 30t81 -30t31 -78q0 -49 -31 -79t-81 -30t-81 30zM106 304q-31 30 -31 79q0 48 31 78t81 30t81 -30t31 -78q0 -49 -31 -79t-81 -30t-81 30z" />
    <glyph glyph-name="semicolon" unicode=";" horiz-adv-x="374" 
d="M311 170v-27l-106 -286h-174l69 313h211zM106 304q-31 30 -31 79q0 48 31 78t81 30t81 -30t31 -78q0 -49 -31 -79t-81 -30t-81 30z" />
    <glyph glyph-name="less" unicode="&#x3c;" horiz-adv-x="816" 
d="M705 447l-376 -119l376 -120v-179h-27l-577 183v232l577 182h27v-179z" />
    <glyph glyph-name="equal" unicode="=" horiz-adv-x="816" 
d="M705 538v-180h-594v180h594zM705 298v-180h-594v180h594z" />
    <glyph glyph-name="greater" unicode="&#x3e;" horiz-adv-x="816" 
d="M715 444v-232l-577 -183h-27v179l376 120l-376 119v179h27z" />
    <glyph glyph-name="question" unicode="?" horiz-adv-x="632" 
d="M249 321.5q23 28.5 86 60.5q48 25 62.5 37.5t14.5 28.5v8q0 22 -25 35t-68 13q-49 0 -78 -19.5t-29 -51.5v-19h-185v19q0 72 35 125.5t100 82t154 28.5q82 0 148 -25t103.5 -69.5t37.5 -100.5v-16q0 -44 -26.5 -79.5t-83.5 -65.5q-35 -18 -56 -30t-26.5 -18.5t-5.5 -16.5
v-5h-181v5q0 45 23 73.5zM236 17q-31 30 -31 79q0 48 31 78t81 30t81 -30t31 -78q0 -49 -31 -79t-81 -30t-81 30z" />
    <glyph glyph-name="at" unicode="@" horiz-adv-x="1030" 
d="M773.5 621.5q108.5 -47.5 166.5 -136.5t58 -210v-36q0 -99 -56 -154t-157 -55q-50 0 -88.5 14.5t-61.5 41.5q-58 -56 -160 -56q-70 0 -123 28t-82.5 79t-29.5 117v10q0 66 29 116t82.5 77.5t123.5 27.5q82 0 136 -39l3 28h144q-84 64 -233 64q-160 0 -249 -70t-89 -197
v-28q0 -121 76.5 -188.5t212.5 -67.5h184v-128h-184q-126 0 -227.5 49.5t-159 136t-57.5 194.5v36q0 118 60 207t170 138t255 49q148 0 256.5 -47.5zM843 291q0 111 -75 175v-270q0 -39 38 -39q17 0 27 14.5t10 40.5v79zM431.5 200.5q25.5 -18.5 74.5 -18.5q30 0 55.5 7.5
t40.5 21.5v95q-32 27 -96 27q-100 0 -100 -69v-10q0 -35 25.5 -53.5z" />
    <glyph glyph-name="A" unicode="A" horiz-adv-x="770" 
d="M768 30v-30h-196l-43 108h-288l-43 -108h-196v30l272 626h222zM462 274l-77 191l-77 -191h154z" />
    <glyph glyph-name="B" unicode="B" horiz-adv-x="785" 
d="M722 273.5q22 -36.5 22 -83.5v-10q0 -85 -67 -132.5t-188 -47.5h-425v656h406q122 0 188 -47t66 -133v-10q0 -86 -67 -133q43 -23 65 -59.5zM265 486v-80h205q54 0 54 35v10q0 35 -54 35h-205zM539 217q0 37 -54 37h-220v-84h220q54 0 54 37v10z" />
    <glyph glyph-name="C" unicode="C" horiz-adv-x="874" 
d="M227 28.5q-93 41.5 -144 118t-51 178.5v5q0 102 51 178.5t144 118.5t216 42q116 0 207.5 -37t143 -103.5t51.5 -150.5v-7h-205v7q0 48 -53.5 76t-144.5 28q-104 0 -154.5 -37t-50.5 -113v-10q0 -76 50 -112t156 -36q94 0 145.5 26.5t51.5 75.5v7h205v-7q0 -83 -51.5 -149
t-143 -103t-207.5 -37q-123 0 -216 41.5z" />
    <glyph glyph-name="D" unicode="D" horiz-adv-x="826" 
d="M410 656q191 0 287.5 -81.5t96.5 -243.5v-7q0 -324 -384 -324h-346v656h346zM547 213q42 33 42 108v12q0 74 -43.5 108.5t-136.5 34.5h-144v-296h145q95 0 137 33z" />
    <glyph glyph-name="E" unicode="E" horiz-adv-x="723" 
d="M672 656v-172h-407v-71h387v-169h-387v-72h407v-172h-608v656h608z" />
    <glyph glyph-name="F" unicode="F" horiz-adv-x="704" 
d="M672 656v-180h-407v-76h387v-180h-387v-220h-201v656h608z" />
    <glyph glyph-name="G" unicode="G" horiz-adv-x="879" 
d="M847 373v-373h-178l-4 39q-44 -28 -94 -40t-120 -12q-127 0 -222 41.5t-146 117.5t-51 179v5q0 102 51 178.5t144 118.5t217 42t214.5 -28.5t139 -82.5t48.5 -128v-3h-205v3q0 16 -26 29.5t-69 22t-92 8.5q-217 0 -217 -158v-10q0 -79 53 -117t164 -38q134 0 203 39v19
h-311v148h501z" />
    <glyph glyph-name="H" unicode="H" horiz-adv-x="819" 
d="M265 656v-238h289v238h201v-656h-201v238h-289v-238h-201v656h201z" />
    <glyph glyph-name="I" unicode="I" horiz-adv-x="299" 
d="M250 656v-656h-201v656h201z" />
    <glyph glyph-name="J" unicode="J" horiz-adv-x="749" 
d="M186.5 25q-75.5 38 -116 110t-40.5 170v28h201v-28q0 -131 134 -131q70 0 99.5 29.5t29.5 99.5v173h-271v180h472v-349q0 -152 -86.5 -236t-243.5 -84q-103 0 -178.5 38z" />
    <glyph glyph-name="K" unicode="K" horiz-adv-x="813" 
d="M783 626l-273 -257l254 -339v-30h-224l-186 253l-89 -88v-165h-201v656h201v-269l283 269h235v-30z" />
    <glyph glyph-name="L" unicode="L" horiz-adv-x="687" 
d="M265 656v-476h407v-180h-608v656h201z" />
    <glyph glyph-name="M" unicode="M" horiz-adv-x="1029" 
d="M965 0h-198v365l-154 -365h-197l-153 363v-363h-199v656h269l182 -431l180 431h270v-656z" />
    <glyph glyph-name="N" unicode="N" horiz-adv-x="819" 
d="M755 656v-656h-186l-317 371v-371h-188v656h187l316 -370v370h188z" />
    <glyph glyph-name="O" unicode="O" horiz-adv-x="877" 
d="M225 28.5q-92 41.5 -142.5 118.5t-50.5 178v5q0 101 50.5 178t142.5 119t213 42q123 0 215 -42t142 -118.5t50 -178.5v-5q0 -102 -50 -178.5t-142 -118t-215 -41.5q-121 0 -213 41.5zM591 210.5q49 36.5 49 111.5v10q0 150 -202 150q-99 0 -150 -38t-51 -112v-10
q0 -75 50 -111.5t151 -36.5q104 0 153 36.5z" />
    <glyph glyph-name="P" unicode="P" horiz-adv-x="787" 
d="M491 656q124 0 194 -59t70 -163v-10q0 -104 -70 -163.5t-194 -59.5h-226v-201h-201v656h427zM550 424v10q0 48 -64 48h-221v-107h221q64 0 64 49z" />
    <glyph glyph-name="Q" unicode="Q" horiz-adv-x="877" 
d="M653 627q92 -42 142 -118.5t50 -178.5v-5q0 -116 -65 -199t-181 -117l57 -122v-30h-203l-61 132q-109 7 -190.5 50.5t-125.5 117t-44 168.5v5q0 101 50.5 178t142.5 119t213 42q123 0 215 -42zM640 332q0 150 -202 150q-99 0 -150 -38t-51 -112v-10q0 -75 50 -111.5
t151 -36.5q104 0 153 36.5t49 111.5v10z" />
    <glyph glyph-name="R" unicode="R" horiz-adv-x="806" 
d="M708.5 297q-46.5 -49 -134.5 -64l177 -203v-30h-227l-186 226h-73v-226h-201v656h427q123 0 193.5 -59t70.5 -162v-10q0 -79 -46.5 -128zM265 375h221q64 0 64 49v10q0 48 -64 48h-221v-107z" />
    <glyph glyph-name="S" unicode="S" horiz-adv-x="771" 
d="M133.5 48q-86.5 61 -86.5 177v10h195v-10q0 -34 39 -52.5t110 -18.5q129 0 129 43v6q0 27 -65 37l-185 29q-108 17 -161 62t-53 120v10q0 99 84 153.5t236 54.5q161 0 246.5 -58.5t85.5 -167.5v-8h-193v8q0 30 -34 44.5t-105 14.5q-120 0 -120 -36v-6q0 -11 14.5 -18.5
t48.5 -12.5l186 -29q111 -17 165 -63.5t54 -124.5v-10q0 -102 -89.5 -158.5t-250.5 -56.5q-164 0 -250.5 61z" />
    <glyph glyph-name="T" unicode="T" horiz-adv-x="691" 
d="M15 476v180h661v-180h-230v-476h-201v476h-230z" />
    <glyph glyph-name="U" unicode="U" horiz-adv-x="793" 
d="M215.5 27.5q-77.5 40.5 -119.5 115.5t-42 174v339h201v-343q0 -139 141 -139q72 0 107 34.5t35 104.5v343h201v-339q0 -100 -42.5 -174.5t-120 -115t-180.5 -40.5t-180.5 40.5z" />
    <glyph glyph-name="V" unicode="V" horiz-adv-x="770" 
d="M768 656v-30l-267 -626h-232l-267 626v30h206l176 -448l176 448h208z" />
    <glyph glyph-name="W" unicode="W" horiz-adv-x="1175" 
d="M1173 656v-30l-211 -626h-245l-129 396l-128 -396h-245l-213 626v30h204l133 -423l140 423h218l141 -422l131 422h204z" />
    <glyph glyph-name="X" unicode="X" horiz-adv-x="819" 
d="M789 626l-244 -298l244 -298v-30h-232l-148 186l-147 -186h-232v30l244 298l-244 298v30h232l147 -186l148 186h232v-30z" />
    <glyph glyph-name="Y" unicode="Y" horiz-adv-x="726" 
d="M735 656v-30l-271 -372v-254h-201v254l-272 372v30h210l163 -231l162 231h209z" />
    <glyph glyph-name="Z" unicode="Z" horiz-adv-x="696" 
d="M659 477l-348 -298h348v-179h-622v179l348 298h-348v179h622v-179z" />
    <glyph glyph-name="bracketleft" unicode="[" horiz-adv-x="457" 
d="M425 727v-172h-191v-454h191v-172h-361v798h361z" />
    <glyph glyph-name="backslash" unicode="\" horiz-adv-x="703" 
d="M37 727h203l426 -768v-30h-203l-426 768v30z" />
    <glyph glyph-name="bracketright" unicode="]" horiz-adv-x="457" 
d="M32 101h191v454h-191v172h361v-798h-361v172z" />
    <glyph glyph-name="asciicircum" unicode="^" horiz-adv-x="557" 
d="M547 399v-27h-200l-69 104l-68 -104h-200v27l182 257h172z" />
    <glyph glyph-name="underscore" unicode="_" horiz-adv-x="564" 
d="M514 -25v-158h-464v158h464z" />
    <glyph glyph-name="grave" unicode="`" horiz-adv-x="600" 
d="M74 758l452 -60v-152l-452 60v152z" />
    <glyph glyph-name="a" unicode="a" horiz-adv-x="716" 
d="M706 170v-170h-109q-85 0 -127 50q-39 -30 -94 -46.5t-119 -16.5q-100 0 -157 41t-57 114q0 122 166 142l227 26q-12 50 -95 50q-96 0 -96 -40v-3h-198v3q0 61 36 105.5t103 69t157 24.5q137 0 213.5 -61t76.5 -170v-94q0 -13 6.5 -18.5t22.5 -5.5h44zM291 123
q41 0 82 13.5t65 33.5v33l-169 -20q-33 -4 -33 -29q0 -31 55 -31z" />
    <glyph glyph-name="b" unicode="b" horiz-adv-x="710" 
d="M551 486.5q63 -32.5 96.5 -92t33.5 -137.5v-6q0 -78 -33.5 -138t-96.5 -93t-147 -33q-94 0 -159 48l-4 -35h-180v696h194v-220q63 43 149 43q84 0 147 -32.5zM481 257q0 41 -29.5 63t-84.5 22q-36 0 -65.5 -8.5t-46.5 -24.5v-110q18 -16 47.5 -25.5t64.5 -9.5
q54 0 84 22.5t30 64.5v6z" />
    <glyph glyph-name="c" unicode="c" horiz-adv-x="670" 
d="M174 18.5q-70 31.5 -107.5 90t-37.5 138.5v9q0 81 37.5 140.5t107.5 91t165 31.5q90 0 159.5 -29t107.5 -81.5t38 -120.5v-6h-199v6q0 25 -29 40t-77 15q-57 0 -83.5 -21.5t-26.5 -68.5v-4q0 -44 27 -65t83 -21q51 0 78.5 14.5t27.5 40.5v6h199v-6q0 -71 -37 -123
t-105.5 -80t-162.5 -28q-95 0 -165 31.5z" />
    <glyph glyph-name="d" unicode="d" horiz-adv-x="710" 
d="M649 696v-696h-180l-4 35q-65 -48 -159 -48q-84 0 -147 33t-96.5 93t-33.5 138v6q0 78 33.5 137.5t96.5 92t147 32.5q86 0 149 -43v220h194zM259 186.5q30 -22.5 84 -22.5q35 0 64.5 9.5t47.5 25.5v110q-17 16 -46.5 24.5t-65.5 8.5q-55 0 -84.5 -22t-29.5 -63v-6
q0 -42 30 -64.5z" />
    <glyph glyph-name="e" unicode="e" horiz-adv-x="671" 
d="M642 205h-417q6 -34 34 -51.5t77 -17.5q89 0 106 32h199q-16 -89 -93 -135t-211 -46q-144 0 -226 68t-82 188v17q0 80 37 138.5t106.5 89.5t164.5 31q149 0 227 -67.5t78 -196.5v-50zM266 360.5q-27 -14.5 -37 -42.5h214q-10 28 -37 42.5t-70 14.5t-70 -14.5z" />
    <glyph glyph-name="f" unicode="f" horiz-adv-x="500" 
d="M508 336h-193v-336h-194v336h-138v170h138v10q0 84 52.5 132t143.5 48h151v-163h-124q-29 0 -29 -22v-5h193v-170z" />
    <glyph glyph-name="g" unicode="g" horiz-adv-x="709" 
d="M648 506v-436q0 -128 -77.5 -191t-235.5 -62q-143 1 -223 53t-80 146v5h198v-5q0 -16 31 -27.5t75 -11.5q118 0 118 83v12q-61 -35 -149 -35q-134 0 -205.5 60t-71.5 172v6q0 115 73.5 179.5t203.5 64.5q97 0 159 -44l4 31h180zM407.5 202.5q29.5 8.5 46.5 24.5v90
q-18 16 -47.5 25.5t-64.5 9.5q-59 0 -86.5 -18.5t-27.5 -58.5v-6q0 -39 27.5 -57t86.5 -18q36 0 65.5 8.5z" />
    <glyph glyph-name="h" unicode="h" horiz-adv-x="711" 
d="M591 448.5q66 -70.5 66 -207.5v-241h-194v241q0 49 -26 75t-76 26q-35 0 -62.5 -14.5t-43.5 -41.5v-286h-194v696h194v-219q59 42 142 42q128 0 194 -70.5z" />
    <glyph glyph-name="i" unicode="i" horiz-adv-x="286" 
d="M240 506v-506h-194v506h194zM62.5 574.5q-31.5 29.5 -31.5 76.5t31 76t81 29t81 -29t31 -76t-31 -76.5t-81 -29.5q-49 0 -80.5 29.5z" />
    <glyph glyph-name="j" unicode="j" horiz-adv-x="286" 
d="M5 0q41 0 41 33v473h194v-494q0 -52 -25.5 -93.5t-71 -65t-102.5 -23.5h-95v170h59zM62.5 574.5q-31.5 29.5 -31.5 76.5t31 76t81 29t81 -29t31 -76t-31 -76.5t-81 -29.5q-49 0 -80.5 29.5z" />
    <glyph glyph-name="k" unicode="k" horiz-adv-x="681" 
d="M683 27v-27h-215l-128 170l-85 -84v-86h-194v696h194v-386l204 196h214v-27l-191 -189z" />
    <glyph glyph-name="l" unicode="l" horiz-adv-x="319" 
d="M96.5 43.5q-50.5 43.5 -50.5 117.5v535h194v-500q0 -14 7.5 -20t23.5 -6h43v-170h-79q-88 0 -138.5 43.5z" />
    <glyph glyph-name="m" unicode="m" horiz-adv-x="1108" 
d="M987 448.5q67 -70.5 67 -207.5v-241h-194v241q0 49 -25 75t-71 26q-37 0 -66 -16t-46 -45q2 -26 2 -40v-241h-194v241q0 49 -24.5 75t-70.5 26q-36 0 -64.5 -15.5t-45.5 -42.5v-284h-194v506h180l4 -37q64 50 156 50q132 0 196 -79q73 79 193 79q130 0 197 -70.5z" />
    <glyph glyph-name="n" unicode="n" horiz-adv-x="711" 
d="M590.5 450.5q66.5 -69.5 66.5 -209.5v-241h-194v241q0 49 -26 75t-76 26q-35 0 -62.5 -14.5t-43.5 -41.5v-286h-194v506h180l4 -36q63 49 152 49q127 1 193.5 -68.5z" />
    <glyph glyph-name="o" unicode="o" horiz-adv-x="685" 
d="M175 18.5q-71 31.5 -108.5 90.5t-37.5 138v9q0 81 37.5 140t108.5 91t169 32q148 0 230 -70t82 -193v-9q0 -121 -82 -190.5t-230 -69.5q-98 0 -169 31.5zM427 184.5q29 21.5 29 64.5v4q0 45 -29 67.5t-84 22.5q-56 0 -85 -22.5t-29 -67.5v-4q0 -43 29.5 -64.5t84.5 -21.5
t84 21.5z" />
    <glyph glyph-name="p" unicode="p" horiz-adv-x="710" 
d="M551 486.5q63 -32.5 96.5 -92t33.5 -137.5v-6q0 -78 -33.5 -138t-96.5 -93t-147 -33q-87 0 -149 41v-198h-194v676h180l4 -37q67 50 159 50q84 0 147 -32.5zM481 257q0 41 -29.5 63t-84.5 22q-36 0 -65.5 -8.5t-46.5 -24.5v-110q18 -16 47.5 -25.5t64.5 -9.5
q54 0 84 22.5t30 64.5v6z" />
    <glyph glyph-name="q" unicode="q" horiz-adv-x="710" 
d="M649 506v-676h-194v198q-62 -41 -149 -41q-84 0 -147 33t-96.5 93t-33.5 138v6q0 78 33.5 137.5t96.5 92t147 32.5q92 0 159 -50l4 37h180zM407.5 173.5q29.5 9.5 47.5 25.5v110q-17 16 -46.5 24.5t-65.5 8.5q-55 0 -84.5 -22t-29.5 -63v-6q0 -42 30 -64.5t84 -22.5
q35 0 64.5 9.5z" />
    <glyph glyph-name="r" unicode="r" horiz-adv-x="473" 
d="M458 506v-170h-116q-73 0 -102 -26v-310h-194v506h181l4 -39q59 39 137 39h90z" />
    <glyph glyph-name="s" unicode="s" horiz-adv-x="688" 
d="M120.5 34.5q-80.5 47.5 -80.5 135.5v3h177v-3q0 -23 31 -33.5t101 -10.5q53 0 82 5.5t29 16.5v4q0 9 -9.5 13.5t-34.5 6.5l-142 14q-115 11 -169 48t-54 104v10q0 82 78 126.5t220 44.5q146 0 220 -46t74 -137v-3h-176v3q0 24 -28 34t-96 10q-111 0 -111 -21v-4
q0 -15 43 -19l145 -15q117 -12 171.5 -49t54.5 -104v-10q0 -81 -78 -126t-219 -45q-148 0 -228.5 47.5z" />
    <glyph glyph-name="t" unicode="t" horiz-adv-x="520" 
d="M328 336v-131q0 -35 40 -35h118v-170h-153q-92 0 -145.5 49t-53.5 133v154h-151v170h110q26 0 36 10.5t10 35.5v87h189v-133h188v-170h-188z" />
    <glyph glyph-name="u" unicode="u" horiz-adv-x="711" 
d="M650 506v-506h-180l-4 36q-63 -49 -152 -49q-127 -1 -193.5 68.5t-66.5 209.5v241h194v-241q0 -49 26 -75t76 -26q35 0 62.5 14.5t43.5 41.5v286h194z" />
    <glyph glyph-name="v" unicode="v" horiz-adv-x="697" 
d="M697 506v-27l-222 -479h-252l-223 479v27h207l142 -319l141 319h207z" />
    <glyph glyph-name="w" unicode="w" horiz-adv-x="1067" 
d="M1067 506v-27l-182 -479h-255l-97 256l-96 -256h-254l-183 479v27h210l102 -310l119 310h203l123 -318l110 318h200z" />
    <glyph glyph-name="x" unicode="x" horiz-adv-x="656" 
d="M651 27v-27h-222l-102 130l-100 -130h-222v27l196 227l-193 225v27h221l98 -126l97 126h221v-27l-192 -225z" />
    <glyph glyph-name="y" unicode="y" horiz-adv-x="697" 
d="M697 506v-27l-252 -534q-26 -56 -73.5 -85.5t-131.5 -29.5h-168v170h149q12 0 17 1l-238 478v27h207l147 -309l136 309h207z" />
    <glyph glyph-name="z" unicode="z" horiz-adv-x="642" 
d="M585 342l-260 -178h260v-164h-529v164l260 178h-260v164h529v-164z" />
    <glyph glyph-name="braceleft" unicode="{" horiz-adv-x="544" 
d="M243 328q102 -21 102 -131v-62q0 -33 41 -33h126v-173h-162q-57 0 -102.5 23.5t-71 65t-25.5 93.5v97q0 16 -11 25t-30 9h-69v172h69q19 0 30 9t11 25v97q0 52 25.5 93.5t71 65t102.5 23.5h162v-172h-126q-20 0 -30.5 -9t-10.5 -25v-62q0 -110 -102 -131z" />
    <glyph glyph-name="bar" unicode="|" horiz-adv-x="308" 
d="M239 727v-798h-170v798h170z" />
    <glyph glyph-name="braceright" unicode="}" horiz-adv-x="544" 
d="M503 414v-172h-69q-19 0 -30 -9t-11 -25v-97q0 -52 -25.5 -93.5t-71 -65t-102.5 -23.5h-162v172h126q20 0 30.5 9t10.5 25v62q0 110 102 131q-102 21 -102 131v62q0 33 -41 33h-126v173h162q57 0 102.5 -23.5t71 -65t25.5 -93.5v-97q0 -16 11 -25t30 -9h69z" />
    <glyph glyph-name="asciitilde" unicode="~" horiz-adv-x="816" 
d="M489.5 215.5q-35.5 6.5 -87.5 19.5t-85.5 19.5t-68.5 6.5q-71 0 -148 -39v179q72 41 149 41q35 0 68 -6.5t85 -19.5q51 -14 87.5 -21t74.5 -7q80 0 151 37v-179q-70 -37 -153 -37q-37 0 -72.5 6.5z" />
    <glyph glyph-name="uni00A0" unicode="&#xa0;" horiz-adv-x="400" 
 />
    <glyph glyph-name="exclamdown" unicode="&#xa1;" horiz-adv-x="352" 
d="M95 332q-31 30 -31 78q0 49 31 79t81 30t81 -30t31 -79q0 -48 -31 -78t-81 -30t-81 30zM266 263l11 -433h-202l10 433h181z" />
    <glyph glyph-name="cent" unicode="&#xa2;" horiz-adv-x="816" 
d="M547 357v3q0 26 -37 42t-99 16q-71 0 -105 -20t-34 -61v-18q0 -41 34 -61t105 -20q67 0 101.5 15t34.5 43v3h199v-3q0 -91 -65.5 -151t-181.5 -77v-78h-180v79q-117 19 -182.5 85t-65.5 165v18q0 99 65.5 165t182.5 85v79h180v-79q113 -18 180 -79t67 -148v-3h-199z" />
    <glyph glyph-name="sterling" unicode="&#xa3;" horiz-adv-x="816" 
d="M588 398v7q0 49 -30 72t-95 23t-94.5 -18.5t-29.5 -59.5v-45h235v-157h-235q-5 -39 -29 -63h469v-157h-725v157h30q28 0 40.5 10.5t12.5 33.5v19h-83v157h83v48q0 116 86 180t241 64q159 0 238 -65.5t79 -198.5v-7h-193z" />
    <glyph glyph-name="currency" unicode="&#xa4;" horiz-adv-x="816" 
d="M664 233l103 -105l-122 -110l-100 108q-60 -22 -137 -22t-137 22l-100 -108l-122 110l103 105q-16 40 -16 86v7q0 49 17 89l-104 106l122 110l100 -108q60 22 137 22t137 -22l100 108l122 -110l-104 -106q17 -40 17 -89v-7q0 -46 -16 -86zM490 327q0 29 -19.5 41.5
t-62.5 12.5t-62.5 -12.5t-19.5 -41.5v-7q0 -27 20 -39.5t62 -12.5t62 12.5t20 39.5v7z" />
    <glyph glyph-name="yen" unicode="&#xa5;" horiz-adv-x="816" 
d="M780 626l-191 -262h142v-131h-222v-37h222v-131h-222v-65h-201v65h-222v131h222v37h-222v131h142l-192 262v30h210l163 -231l162 231h209v-30z" />
    <glyph glyph-name="brokenbar" unicode="&#xa6;" horiz-adv-x="308" 
d="M239 727v-267h-170v267h170zM239 197v-268h-170v268h170z" />
    <glyph glyph-name="section" unicode="&#xa7;" horiz-adv-x="690" 
d="M619 418q41 -34 41 -84v-13q0 -55 -58 -93q23 -31 23 -67v-16q0 -73 -74.5 -115.5t-204.5 -42.5q-136 0 -214.5 47t-78.5 129v3h178v-3q0 -22 28.5 -32t88.5 -10q46 0 70 6.5t24 18.5v3q0 8 -8 12t-32 7l-219 27q-72 9 -112.5 43t-40.5 84v13q0 55 58 93q-23 31 -23 67
v16q0 73 74.5 115.5t204.5 42.5q136 0 214.5 -47t78.5 -129v-3h-178v3q0 22 -28.5 32t-88.5 10q-46 0 -70 -6.5t-24 -18.5v-3q0 -8 8 -12t32 -7l219 -27q71 -9 112 -43zM218 327.5q10 -7.5 28 -9.5l232 -27q4 5 4 14v5q0 11 -10 18.5t-28 9.5l-232 27q-4 -5 -4 -14v-5
q0 -11 10 -18.5z" />
    <glyph glyph-name="dieresis" unicode="&#xa8;" horiz-adv-x="600" 
d="M93.5 578.5q-29.5 27.5 -29.5 71.5t29.5 71t76.5 27q46 0 75 -27t29 -71t-29 -71.5t-75 -27.5q-47 0 -76.5 27.5zM355 578.5q-29 27.5 -29 71.5t29 71t76 27t75.5 -27t28.5 -71t-29 -71.5t-75 -27.5q-47 0 -76 27.5z" />
    <glyph glyph-name="copyright" unicode="&#xa9;" horiz-adv-x="897" 
d="M229.5 28q-94.5 41 -146 116.5t-51.5 176.5v13q0 101 51.5 177t146 117t220.5 41t220 -41t144.5 -116.5t50.5 -177.5v-13q0 -102 -50.5 -177.5t-144.5 -116t-220 -40.5t-220.5 41zM603.5 121q64.5 28 99.5 79.5t35 120.5v13q0 69 -35 121t-100 80t-152 28q-88 0 -154 -28
t-102 -79.5t-36 -119.5v-13q0 -69 36 -121t102.5 -80.5t154.5 -28.5q87 0 151.5 28zM328.5 161q-52.5 23 -81.5 64.5t-29 96.5v13q0 54 28.5 96t81 65t120.5 23q67 0 119.5 -21.5t82 -59.5t29.5 -86v-3h-143v3q0 19 -23.5 30t-62.5 11q-45 0 -66.5 -14.5t-21.5 -43.5v-13
q0 -27 24 -42.5t66 -15.5q84 0 84 41v3h143v-3q0 -49 -28.5 -87t-80.5 -59t-119 -21q-70 0 -122.5 23z" />
    <glyph glyph-name="ordfeminine" unicode="&#xaa;" horiz-adv-x="606" 
d="M599 382v-138h-86q-73 0 -110 40q-65 -51 -179 -51q-92 0 -143 34.5t-51 95.5q0 50 35.5 78t108.5 36l199 20q-4 22 -25.5 30.5t-71.5 8.5q-40 0 -61 -8.5t-21 -24.5v-4h-161v4q0 74 67.5 117.5t181.5 43.5q119 0 185 -49t66 -138v-76q0 -19 28 -19h38zM198.5 348
q11.5 -5 39.5 -5q43 0 79.5 12t57.5 31v19l-152 -16q-17 -1 -26.5 -7.5t-9.5 -16.5q0 -12 11.5 -17z" />
    <glyph glyph-name="guillemotleft" unicode="&#xab;" horiz-adv-x="809" 
d="M264 278l183 -201v-27h-200l-201 214v28l201 214h200v-27zM568 278l183 -201v-27h-200l-201 214v28l201 214h200v-27z" />
    <glyph glyph-name="logicalnot" unicode="&#xac;" horiz-adv-x="816" 
d="M101 238v180h614v-360h-170v180h-444z" />
    <glyph glyph-name="uni00AD" unicode="&#xad;" horiz-adv-x="442" 
d="M392 365v-173h-342v173h342z" />
    <glyph glyph-name="registered" unicode="&#xae;" horiz-adv-x="581" 
d="M428.5 682q58.5 -27 90 -76.5t31.5 -116.5v-7q0 -67 -31.5 -116.5t-90 -76.5t-136.5 -27q-79 0 -138 27t-91 76.5t-32 116.5v7q0 66 32 116t91.5 77t137.5 27t136.5 -27zM452 492q0 133 -161 133q-80 0 -121.5 -34t-40.5 -99v-12q-1 -66 40.5 -100t121.5 -34q79 0 120 34
t41 100v12zM389.5 565.5q21.5 -19.5 21.5 -54.5v-3q0 -44 -31 -60l31 -53v-8h-101l-28 51h-14v-51h-95v198h156q39 0 60.5 -19.5zM268 489h31q17 0 17 13v3q0 13 -17 13h-31v-29z" />
    <glyph glyph-name="macron" unicode="&#xaf;" horiz-adv-x="600" 
d="M526 727v-152h-452v152h452z" />
    <glyph glyph-name="degree" unicode="&#xb0;" horiz-adv-x="446" 
d="M81 361q-55 47 -55 123v16q0 76 55 122t144 46t142 -46.5t53 -123.5v-15q0 -77 -53 -123t-142 -46t-144 47zM263.5 456q14.5 12 14.5 33v7q0 20 -14.5 32t-39.5 12t-40 -12t-15 -32v-8q0 -20 15 -32t40 -12t39.5 12z" />
    <glyph glyph-name="plusminus" unicode="&#xb1;" horiz-adv-x="816" 
d="M705 514v-160h-207v-132h-180v132h-207v160h207v132h180v-132h207zM111 169h594v-170h-594v170z" />
    <glyph glyph-name="uni00B2" unicode="&#xb2;" 
d="M302 568q32 14 41.5 20.5t9.5 14.5v4q0 13 -16.5 18.5t-54.5 5.5q-37 0 -58 -10.5t-21 -28.5v-9h-160v9q0 88 58.5 131t177.5 43q112 0 175 -37t63 -103v-10q0 -44 -28 -73t-96 -57l-51 -21h178v-122h-474v116z" />
    <glyph glyph-name="uni00B3" unicode="&#xb3;" 
d="M91 373.5q-62 38.5 -62 117.5v3h161v-3q0 -14 20.5 -20t68.5 -6q90 0 90 22v4q0 11 -19 14.5t-72 3.5h-101v86l94 36h-232v126h480v-126l-114 -39l14 -3q56 -12 85 -41t29 -72v-6q0 -67 -64 -101.5t-189 -34.5q-127 1 -189 39.5z" />
    <glyph glyph-name="acute" unicode="&#xb4;" horiz-adv-x="600" 
d="M526 757v-152l-452 -60v152z" />
    <glyph glyph-name="uni00B5" unicode="&#xb5;" horiz-adv-x="740" 
d="M730 170v-170h-109q-90 0 -131 55q-21 -32 -55.5 -50t-76.5 -18q-60 0 -103 31v-188h-194v676h194v-241q0 -49 26 -75t74 -26q35 0 63 14.5t45 41.5v286h194v-312q0 -13 6.5 -18.5t22.5 -5.5h44z" />
    <glyph glyph-name="paragraph" unicode="&#xb6;" horiz-adv-x="967" 
d="M663 0h-191v201h-176q-124 0 -194 59.5t-70 163.5v10q0 104 70 163t194 59h367v-656zM903 656v-656h-191v656h191z" />
    <glyph glyph-name="periodcentered" unicode="&#xb7;" horiz-adv-x="334" 
d="M86 195q-31 30 -31 79q0 48 31 78t81 30t81 -30t31 -78q0 -49 -31 -79t-81 -30t-81 30z" />
    <glyph glyph-name="cedilla" unicode="&#xb8;" horiz-adv-x="600" 
d="M424 0l-48 -170h-201l69 243z" />
    <glyph glyph-name="uni00B9" unicode="&#xb9;" 
d="M238 476v121q-16 -4 -40 -4h-118v133h114q26 0 35 6.5t9 24.5h165v-281h134v-132h-457v132h158z" />
    <glyph glyph-name="ordmasculine" unicode="&#xba;" horiz-adv-x="575" 
d="M92 289q-72 56 -72 154v9q0 99 71.5 155.5t197.5 56.5q125 0 195.5 -56t70.5 -156v-8q0 -100 -70.5 -155.5t-195.5 -55.5t-197 56zM366.5 393.5q26.5 17.5 26.5 51.5v5q0 71 -105 71q-106 0 -106 -72v-5q0 -33 27 -50.5t79 -17.5t78.5 17.5z" />
    <glyph glyph-name="guillemotright" unicode="&#xbb;" horiz-adv-x="809" 
d="M241 278l-183 201v27h200l201 -214v-28l-201 -214h-200v27zM545 278l-183 201v27h200l201 -214v-28l-201 -214h-200v27z" />
    <glyph glyph-name="onequarter" unicode="&#xbc;" horiz-adv-x="1408" 
d="M238 376v121q-16 -4 -40 -4h-118v133h114q26 0 35 6.5t9 24.5h165v-281h134v-132h-457v132h158zM913 656h190v-30l-539 -626h-190v27zM873 61v132q60 102 80 221h173v-24q-28 -122 -64 -197h96v153h169v-153h69v-132h-69v-61h-169v61h-285z" />
    <glyph glyph-name="onehalf" unicode="&#xbd;" horiz-adv-x="1418" 
d="M238 376v121q-16 -4 -40 -4h-118v133h114q26 0 35 6.5t9 24.5h165v-281h134v-132h-457v132h158zM913 656h190v-30l-539 -626h-190v27zM1166 225q32 14 41.5 20.5t9.5 14.5v4q0 13 -16.5 18.5t-54.5 5.5q-37 0 -58 -10.5t-21 -28.5v-9h-160v9q0 88 58.5 131t177.5 43
q112 0 175 -37t63 -103v-10q0 -44 -28 -73t-96 -57l-51 -21h178v-122h-474v116z" />
    <glyph glyph-name="threequarters" unicode="&#xbe;" horiz-adv-x="1359" 
d="M91 273.5q-62 38.5 -62 117.5v3h161v-3q0 -14 20.5 -20t68.5 -6q90 0 90 22v4q0 11 -19 14.5t-72 3.5h-101v86l94 36h-232v126h480v-126l-114 -39l14 -3q56 -12 85 -41t29 -72v-6q0 -67 -64 -101.5t-189 -34.5q-127 1 -189 39.5zM864 656h190v-30l-539 -626h-190v27z
M824 61v132q60 102 80 221h173v-24q-28 -122 -64 -197h96v153h169v-153h69v-132h-69v-61h-169v61h-285z" />
    <glyph glyph-name="questiondown" unicode="&#xbf;" horiz-adv-x="632" 
d="M234 332q-31 30 -31 78q0 49 31 79t81 30t81 -30t31 -79q0 -48 -31 -78t-81 -30t-81 30zM168 -156.5q-66 26.5 -103.5 73t-37.5 105.5v16q0 47 26.5 85t83.5 70q35 18 56 30t26.5 18.5t5.5 16.5v5h181v-5q0 -45 -23 -73.5t-86 -60.5q-46 -28 -61.5 -43.5t-15.5 -32.5v-8
q0 -26 25 -42t68 -16q49 0 78 19.5t29 51.5v19h185v-19q0 -72 -35 -125.5t-100 -82t-154 -28.5q-82 0 -148 26.5z" />
    <glyph glyph-name="Agrave" unicode="&#xc0;" horiz-adv-x="770" 
d="M768 30v-30h-196l-43 108h-288l-43 -108h-196v30l272 626h222zM462 274l-77 191l-77 -191h154zM159 908l452 -60v-152l-452 60v152z" />
    <glyph glyph-name="Aacute" unicode="&#xc1;" horiz-adv-x="770" 
d="M768 30v-30h-196l-43 108h-288l-43 -108h-196v30l272 626h222zM462 274l-77 191l-77 -191h154zM611 907v-152l-452 -60v152z" />
    <glyph glyph-name="Acircumflex" unicode="&#xc2;" horiz-adv-x="770" 
d="M768 30v-30h-196l-43 108h-288l-43 -108h-196v30l272 626h222zM462 274l-77 191l-77 -191h154zM385 906l226 -56v-155l-226 56l-226 -56v155z" />
    <glyph glyph-name="Atilde" unicode="&#xc3;" horiz-adv-x="770" 
d="M768 30v-30h-196l-43 108h-288l-43 -108h-196v30l272 626h222zM462 274l-77 191l-77 -191h154zM443 714.5q-24 3.5 -62 10.5q-35 7 -58.5 10.5t-48.5 3.5q-59 0 -115 -27v150q58 29 117 29q32 0 66.5 -7t41.5 -8q35 -8 60.5 -12t51.5 -4q63 0 115 26v-150
q-53 -25 -117 -25q-27 0 -51 3.5z" />
    <glyph glyph-name="Adieresis" unicode="&#xc4;" horiz-adv-x="770" 
d="M768 30v-30h-196l-43 108h-288l-43 -108h-196v30l272 626h222zM462 274l-77 191l-77 -191h154zM178.5 728.5q-29.5 27.5 -29.5 71.5t29.5 71t76.5 27q46 0 75 -27t29 -71t-29 -71.5t-75 -27.5q-47 0 -76.5 27.5zM440 728.5q-29 27.5 -29 71.5t29 71t76 27t75.5 -27
t28.5 -71t-29 -71.5t-75 -27.5q-47 0 -76 27.5z" />
    <glyph glyph-name="Aring" unicode="&#xc5;" horiz-adv-x="770" 
d="M768 30v-30h-196l-43 108h-288l-43 -108h-196v30l272 626h222zM462 274l-77 191l-77 -191h154zM251.5 649q-47.5 37 -47.5 106q0 67 48.5 105t132.5 38t132.5 -38t48.5 -105q0 -69 -47.5 -106t-133.5 -37t-133.5 37zM422 724q13 11 13 31t-13 31t-37 11t-37 -11t-13 -31
t13 -31t37 -11t37 11z" />
    <glyph glyph-name="AE" unicode="&#xc6;" horiz-adv-x="1072" 
d="M618 484l15 -71h368v-169h-331l15 -72h336v-172h-509l-22 108h-248l-44 -108h-196v30l272 626h747v-172h-403zM415 484h-22l-85 -210h149z" />
    <glyph glyph-name="Ccedilla" unicode="&#xc7;" horiz-adv-x="874" 
d="M227 28.5q-93 41.5 -144 118t-51 178.5v5q0 102 51 178.5t144 118.5t216 42q116 0 207.5 -37t143 -103.5t51.5 -150.5v-7h-205v7q0 48 -53.5 76t-144.5 28q-104 0 -154.5 -37t-50.5 -113v-10q0 -76 50 -112t156 -36q94 0 145.5 26.5t51.5 75.5v7h205v-7q0 -83 -51.5 -149
t-143 -103t-207.5 -37q-123 0 -216 41.5zM547 0l-48 -170h-201l69 243z" />
    <glyph glyph-name="Egrave" unicode="&#xc8;" horiz-adv-x="723" 
d="M672 656v-172h-407v-71h387v-169h-387v-72h407v-172h-608v656h608zM142 908l452 -60v-152l-452 60v152z" />
    <glyph glyph-name="Eacute" unicode="&#xc9;" horiz-adv-x="723" 
d="M672 656v-172h-407v-71h387v-169h-387v-72h407v-172h-608v656h608zM594 907v-152l-452 -60v152z" />
    <glyph glyph-name="Ecircumflex" unicode="&#xca;" horiz-adv-x="723" 
d="M672 656v-172h-407v-71h387v-169h-387v-72h407v-172h-608v656h608zM368 906l226 -56v-155l-226 56l-226 -56v155z" />
    <glyph glyph-name="Edieresis" unicode="&#xcb;" horiz-adv-x="723" 
d="M672 656v-172h-407v-71h387v-169h-387v-72h407v-172h-608v656h608zM161.5 728.5q-29.5 27.5 -29.5 71.5t29.5 71t76.5 27q46 0 75 -27t29 -71t-29 -71.5t-75 -27.5q-47 0 -76.5 27.5zM423 728.5q-29 27.5 -29 71.5t29 71t76 27t75.5 -27t28.5 -71t-29 -71.5t-75 -27.5
q-47 0 -76 27.5z" />
    <glyph glyph-name="Igrave" unicode="&#xcc;" horiz-adv-x="299" 
d="M250 656v-656h-201v656h201zM-8 900l316 -44v-152l-316 44v152z" />
    <glyph glyph-name="Iacute" unicode="&#xcd;" horiz-adv-x="299" 
d="M250 656v-656h-201v656h201zM308 899v-152l-316 -44v152z" />
    <glyph glyph-name="Icircumflex" unicode="&#xce;" horiz-adv-x="299" 
d="M250 656v-656h-201v656h201zM150 899l158 -28v-157l-158 28l-158 -28v157z" />
    <glyph glyph-name="Idieresis" unicode="&#xcf;" horiz-adv-x="299" 
d="M250 656v-656h-201v656h201zM-56.5 728.5q-29.5 27.5 -29.5 71.5t29.5 71t76.5 27q46 0 75 -27t29 -71t-29 -71.5t-75 -27.5q-47 0 -76.5 27.5zM205 728.5q-29 27.5 -29 71.5t29 71t76 27t75.5 -27t28.5 -71t-29 -71.5t-75 -27.5q-47 0 -76 27.5z" />
    <glyph glyph-name="Eth" unicode="&#xd0;" horiz-adv-x="859" 
d="M730.5 574.5q96.5 -81.5 96.5 -243.5v-7q0 -324 -384 -324h-346v242h-107v173h107v241h346q191 0 287.5 -81.5zM622 333q0 74 -43.5 108.5t-136.5 34.5h-144v-61h137v-173h-137v-62h145q95 0 137 33t42 108v12z" />
    <glyph glyph-name="Ntilde" unicode="&#xd1;" horiz-adv-x="819" 
d="M755 656v-656h-186l-317 371v-371h-188v656h187l316 -370v370h188zM468 714.5q-24 3.5 -62 10.5q-35 7 -58.5 10.5t-48.5 3.5q-59 0 -115 -27v150q58 29 117 29q32 0 66.5 -7t41.5 -8q35 -8 60.5 -12t51.5 -4q63 0 115 26v-150q-53 -25 -117 -25q-27 0 -51 3.5z" />
    <glyph glyph-name="Ograve" unicode="&#xd2;" horiz-adv-x="877" 
d="M225 28.5q-92 41.5 -142.5 118.5t-50.5 178v5q0 101 50.5 178t142.5 119t213 42q123 0 215 -42t142 -118.5t50 -178.5v-5q0 -102 -50 -178.5t-142 -118t-215 -41.5q-121 0 -213 41.5zM591 210.5q49 36.5 49 111.5v10q0 150 -202 150q-99 0 -150 -38t-51 -112v-10
q0 -75 50 -111.5t151 -36.5q104 0 153 36.5zM215 908l452 -60v-152l-452 60v152z" />
    <glyph glyph-name="Oacute" unicode="&#xd3;" horiz-adv-x="877" 
d="M225 28.5q-92 41.5 -142.5 118.5t-50.5 178v5q0 101 50.5 178t142.5 119t213 42q123 0 215 -42t142 -118.5t50 -178.5v-5q0 -102 -50 -178.5t-142 -118t-215 -41.5q-121 0 -213 41.5zM591 210.5q49 36.5 49 111.5v10q0 150 -202 150q-99 0 -150 -38t-51 -112v-10
q0 -75 50 -111.5t151 -36.5q104 0 153 36.5zM667 907v-152l-452 -60v152z" />
    <glyph glyph-name="Ocircumflex" unicode="&#xd4;" horiz-adv-x="877" 
d="M225 28.5q-92 41.5 -142.5 118.5t-50.5 178v5q0 101 50.5 178t142.5 119t213 42q123 0 215 -42t142 -118.5t50 -178.5v-5q0 -102 -50 -178.5t-142 -118t-215 -41.5q-121 0 -213 41.5zM591 210.5q49 36.5 49 111.5v10q0 150 -202 150q-99 0 -150 -38t-51 -112v-10
q0 -75 50 -111.5t151 -36.5q104 0 153 36.5zM441 906l226 -56v-155l-226 56l-226 -56v155z" />
    <glyph glyph-name="Otilde" unicode="&#xd5;" horiz-adv-x="877" 
d="M225 28.5q-92 41.5 -142.5 118.5t-50.5 178v5q0 101 50.5 178t142.5 119t213 42q123 0 215 -42t142 -118.5t50 -178.5v-5q0 -102 -50 -178.5t-142 -118t-215 -41.5q-121 0 -213 41.5zM591 210.5q49 36.5 49 111.5v10q0 150 -202 150q-99 0 -150 -38t-51 -112v-10
q0 -75 50 -111.5t151 -36.5q104 0 153 36.5zM499 714.5q-24 3.5 -62 10.5q-35 7 -58.5 10.5t-48.5 3.5q-59 0 -115 -27v150q58 29 117 29q32 0 66.5 -7t41.5 -8q35 -8 60.5 -12t51.5 -4q63 0 115 26v-150q-53 -25 -117 -25q-27 0 -51 3.5z" />
    <glyph glyph-name="Odieresis" unicode="&#xd6;" horiz-adv-x="877" 
d="M225 28.5q-92 41.5 -142.5 118.5t-50.5 178v5q0 101 50.5 178t142.5 119t213 42q123 0 215 -42t142 -118.5t50 -178.5v-5q0 -102 -50 -178.5t-142 -118t-215 -41.5q-121 0 -213 41.5zM591 210.5q49 36.5 49 111.5v10q0 150 -202 150q-99 0 -150 -38t-51 -112v-10
q0 -75 50 -111.5t151 -36.5q104 0 153 36.5zM234.5 728.5q-29.5 27.5 -29.5 71.5t29.5 71t76.5 27q46 0 75 -27t29 -71t-29 -71.5t-75 -27.5q-47 0 -76.5 27.5zM496 728.5q-29 27.5 -29 71.5t29 71t76 27t75.5 -27t28.5 -71t-29 -71.5t-75 -27.5q-47 0 -76 27.5z" />
    <glyph glyph-name="multiply" unicode="&#xd7;" horiz-adv-x="816" 
d="M536 328l173 -173l-128 -128l-173 173l-173 -173l-128 128l173 173l-173 173l128 128l173 -173l173 173l128 -128z" />
    <glyph glyph-name="Oslash" unicode="&#xd8;" horiz-adv-x="877" 
d="M810 482.5q35 -67.5 35 -152.5v-5q0 -102 -49.5 -178.5t-141.5 -118t-214 -41.5q-52 0 -94 7l-39 -65h-203v30l63 102q-65 45 -100 112.5t-35 151.5v5q0 102 50.5 178.5t143 118.5t214.5 42q50 0 91 -7l39 65h203v-30l-62 -102q64 -45 99 -112.5zM237 321q0 -68 31 -108
l175 289h-4q-103 0 -152.5 -40.5t-49.5 -126.5v-14zM641 335q0 70 -32 109l-175 -290h5q103 0 152.5 40.5t49.5 126.5v14z" />
    <glyph glyph-name="Ugrave" unicode="&#xd9;" horiz-adv-x="793" 
d="M215.5 27.5q-77.5 40.5 -119.5 115.5t-42 174v339h201v-343q0 -139 141 -139q72 0 107 34.5t35 104.5v343h201v-339q0 -100 -42.5 -174.5t-120 -115t-180.5 -40.5t-180.5 40.5zM171 908l452 -60v-152l-452 60v152z" />
    <glyph glyph-name="Uacute" unicode="&#xda;" horiz-adv-x="793" 
d="M215.5 27.5q-77.5 40.5 -119.5 115.5t-42 174v339h201v-343q0 -139 141 -139q72 0 107 34.5t35 104.5v343h201v-339q0 -100 -42.5 -174.5t-120 -115t-180.5 -40.5t-180.5 40.5zM623 907v-152l-452 -60v152z" />
    <glyph glyph-name="Ucircumflex" unicode="&#xdb;" horiz-adv-x="793" 
d="M215.5 27.5q-77.5 40.5 -119.5 115.5t-42 174v339h201v-343q0 -139 141 -139q72 0 107 34.5t35 104.5v343h201v-339q0 -100 -42.5 -174.5t-120 -115t-180.5 -40.5t-180.5 40.5zM397 906l226 -56v-155l-226 56l-226 -56v155z" />
    <glyph glyph-name="Udieresis" unicode="&#xdc;" horiz-adv-x="793" 
d="M215.5 27.5q-77.5 40.5 -119.5 115.5t-42 174v339h201v-343q0 -139 141 -139q72 0 107 34.5t35 104.5v343h201v-339q0 -100 -42.5 -174.5t-120 -115t-180.5 -40.5t-180.5 40.5zM190.5 728.5q-29.5 27.5 -29.5 71.5t29.5 71t76.5 27q46 0 75 -27t29 -71t-29 -71.5
t-75 -27.5q-47 0 -76.5 27.5zM452 728.5q-29 27.5 -29 71.5t29 71t76 27t75.5 -27t28.5 -71t-29 -71.5t-75 -27.5q-47 0 -76 27.5z" />
    <glyph glyph-name="Yacute" unicode="&#xdd;" horiz-adv-x="726" 
d="M735 656v-30l-271 -372v-254h-201v254l-272 372v30h210l163 -231l162 231h209zM590 907v-152l-452 -60v152z" />
    <glyph glyph-name="Thorn" unicode="&#xde;" horiz-adv-x="787" 
d="M685 497q70 -59 70 -163v-10q0 -104 -70 -163.5t-194 -59.5h-226v-101h-201v656h201v-100h226q124 0 194 -59zM550 334q0 48 -64 48h-221v-107h221q64 0 64 49v10z" />
    <glyph glyph-name="germandbls" unicode="&#xdf;" horiz-adv-x="723" 
d="M672 291q22 -38 22 -86v-10q0 -89 -62 -142t-167 -53h-118v170h86q34 0 50 10.5t16 31.5v6q0 40 -64 40h-89v154h54q66 0 66 56v8q0 28 -25.5 42.5t-71.5 14.5q-59 0 -86 -19t-27 -59v-455h-195l1 457q0 77 37.5 134t107.5 87.5t165 30.5q86 0 151.5 -27.5t101.5 -78
t36 -116.5v-16q0 -73 -53 -118q42 -24 64 -62z" />
    <glyph glyph-name="agrave" unicode="&#xe0;" horiz-adv-x="716" 
d="M706 170v-170h-109q-85 0 -127 50q-39 -30 -94 -46.5t-119 -16.5q-100 0 -157 41t-57 114q0 122 166 142l227 26q-12 50 -95 50q-96 0 -96 -40v-3h-198v3q0 61 36 105.5t103 69t157 24.5q137 0 213.5 -61t76.5 -170v-94q0 -13 6.5 -18.5t22.5 -5.5h44zM291 123
q41 0 82 13.5t65 33.5v33l-169 -20q-33 -4 -33 -29q0 -31 55 -31zM113 758l452 -60v-152l-452 60v152z" />
    <glyph glyph-name="aacute" unicode="&#xe1;" horiz-adv-x="716" 
d="M706 170v-170h-109q-85 0 -127 50q-39 -30 -94 -46.5t-119 -16.5q-100 0 -157 41t-57 114q0 122 166 142l227 26q-12 50 -95 50q-96 0 -96 -40v-3h-198v3q0 61 36 105.5t103 69t157 24.5q137 0 213.5 -61t76.5 -170v-94q0 -13 6.5 -18.5t22.5 -5.5h44zM291 123
q41 0 82 13.5t65 33.5v33l-169 -20q-33 -4 -33 -29q0 -31 55 -31zM565 757v-152l-452 -60v152z" />
    <glyph glyph-name="acircumflex" unicode="&#xe2;" horiz-adv-x="716" 
d="M706 170v-170h-109q-85 0 -127 50q-39 -30 -94 -46.5t-119 -16.5q-100 0 -157 41t-57 114q0 122 166 142l227 26q-12 50 -95 50q-96 0 -96 -40v-3h-198v3q0 61 36 105.5t103 69t157 24.5q137 0 213.5 -61t76.5 -170v-94q0 -13 6.5 -18.5t22.5 -5.5h44zM291 123
q41 0 82 13.5t65 33.5v33l-169 -20q-33 -4 -33 -29q0 -31 55 -31zM339 756l226 -56v-155l-226 56l-226 -56v155z" />
    <glyph glyph-name="atilde" unicode="&#xe3;" horiz-adv-x="716" 
d="M706 170v-170h-109q-85 0 -127 50q-39 -30 -94 -46.5t-119 -16.5q-100 0 -157 41t-57 114q0 122 166 142l227 26q-12 50 -95 50q-96 0 -96 -40v-3h-198v3q0 61 36 105.5t103 69t157 24.5q137 0 213.5 -61t76.5 -170v-94q0 -13 6.5 -18.5t22.5 -5.5h44zM291 123
q41 0 82 13.5t65 33.5v33l-169 -20q-33 -4 -33 -29q0 -31 55 -31zM397 564.5q-24 3.5 -62 10.5q-35 7 -58.5 10.5t-48.5 3.5q-59 0 -115 -27v150q58 29 117 29q32 0 66.5 -7t41.5 -8q35 -8 60.5 -12t51.5 -4q63 0 115 26v-150q-53 -25 -117 -25q-27 0 -51 3.5z" />
    <glyph glyph-name="adieresis" unicode="&#xe4;" horiz-adv-x="716" 
d="M706 170v-170h-109q-85 0 -127 50q-39 -30 -94 -46.5t-119 -16.5q-100 0 -157 41t-57 114q0 122 166 142l227 26q-12 50 -95 50q-96 0 -96 -40v-3h-198v3q0 61 36 105.5t103 69t157 24.5q137 0 213.5 -61t76.5 -170v-94q0 -13 6.5 -18.5t22.5 -5.5h44zM291 123
q41 0 82 13.5t65 33.5v33l-169 -20q-33 -4 -33 -29q0 -31 55 -31zM132.5 578.5q-29.5 27.5 -29.5 71.5t29.5 71t76.5 27q46 0 75 -27t29 -71t-29 -71.5t-75 -27.5q-47 0 -76.5 27.5zM394 578.5q-29 27.5 -29 71.5t29 71t76 27t75.5 -27t28.5 -71t-29 -71.5t-75 -27.5
q-47 0 -76 27.5z" />
    <glyph glyph-name="aring" unicode="&#xe5;" horiz-adv-x="716" 
d="M706 170v-170h-109q-85 0 -127 50q-39 -30 -94 -46.5t-119 -16.5q-100 0 -157 41t-57 114q0 122 166 142l227 26q-12 50 -95 50q-96 0 -96 -40v-3h-198v3q0 61 36 105.5t103 69t157 24.5q137 0 213.5 -61t76.5 -170v-94q0 -13 6.5 -18.5t22.5 -5.5h44zM291 123
q41 0 82 13.5t65 33.5v33l-169 -20q-33 -4 -33 -29q0 -31 55 -31zM205.5 580q-47.5 37 -47.5 106q0 67 48.5 105t132.5 38t132.5 -38t48.5 -105q0 -69 -47.5 -106t-133.5 -37t-133.5 37zM376 655q13 11 13 31t-13 31t-37 11t-37 -11t-13 -31t13 -31t37 -11t37 11z" />
    <glyph glyph-name="ae" unicode="&#xe6;" horiz-adv-x="1098" 
d="M1069 205h-427q14 -69 127 -69q40 0 66.5 8.5t33.5 23.5h199q-14 -86 -91 -133.5t-204 -47.5q-163 0 -248 73q-41 -35 -102 -54t-138 -19q-114 0 -178 41.5t-64 115.5q0 60 42 95.5t124 44.5l236 26q-15 50 -111 50q-89 0 -89 -40v-3h-198v3q0 61 36 106t103.5 69
t159.5 24q144 0 209 -65q74 65 214 65q143 0 221.5 -66.5t78.5 -187.5v-60zM686 360.5q-29 -14.5 -40 -42.5h224q-20 57 -110 57q-45 0 -74 -14.5zM385 138.5q48 15.5 70 38.5q-2 9 -4 25l-182 -24q-33 -4 -33 -30q0 -13 11.5 -19t38.5 -6q51 0 99 15.5z" />
    <glyph glyph-name="ccedilla" unicode="&#xe7;" horiz-adv-x="670" 
d="M174 18.5q-70 31.5 -107.5 90t-37.5 138.5v9q0 81 37.5 140.5t107.5 91t165 31.5q90 0 159.5 -29t107.5 -81.5t38 -120.5v-6h-199v6q0 25 -29 40t-77 15q-57 0 -83.5 -21.5t-26.5 -68.5v-4q0 -44 27 -65t83 -21q51 0 78.5 14.5t27.5 40.5v6h199v-6q0 -71 -37 -123
t-105.5 -80t-162.5 -28q-95 0 -165 31.5zM434 0l-48 -170h-201l69 243z" />
    <glyph glyph-name="egrave" unicode="&#xe8;" horiz-adv-x="671" 
d="M642 205h-417q6 -34 34 -51.5t77 -17.5q89 0 106 32h199q-16 -89 -93 -135t-211 -46q-144 0 -226 68t-82 188v17q0 80 37 138.5t106.5 89.5t164.5 31q149 0 227 -67.5t78 -196.5v-50zM266 360.5q-27 -14.5 -37 -42.5h214q-10 28 -37 42.5t-70 14.5t-70 -14.5zM110 758
l452 -60v-152l-452 60v152z" />
    <glyph glyph-name="eacute" unicode="&#xe9;" horiz-adv-x="671" 
d="M642 205h-417q6 -34 34 -51.5t77 -17.5q89 0 106 32h199q-16 -89 -93 -135t-211 -46q-144 0 -226 68t-82 188v17q0 80 37 138.5t106.5 89.5t164.5 31q149 0 227 -67.5t78 -196.5v-50zM266 360.5q-27 -14.5 -37 -42.5h214q-10 28 -37 42.5t-70 14.5t-70 -14.5zM562 757
v-152l-452 -60v152z" />
    <glyph glyph-name="ecircumflex" unicode="&#xea;" horiz-adv-x="671" 
d="M642 205h-417q6 -34 34 -51.5t77 -17.5q89 0 106 32h199q-16 -89 -93 -135t-211 -46q-144 0 -226 68t-82 188v17q0 80 37 138.5t106.5 89.5t164.5 31q149 0 227 -67.5t78 -196.5v-50zM266 360.5q-27 -14.5 -37 -42.5h214q-10 28 -37 42.5t-70 14.5t-70 -14.5zM336 756
l226 -56v-155l-226 56l-226 -56v155z" />
    <glyph glyph-name="edieresis" unicode="&#xeb;" horiz-adv-x="671" 
d="M642 205h-417q6 -34 34 -51.5t77 -17.5q89 0 106 32h199q-16 -89 -93 -135t-211 -46q-144 0 -226 68t-82 188v17q0 80 37 138.5t106.5 89.5t164.5 31q149 0 227 -67.5t78 -196.5v-50zM266 360.5q-27 -14.5 -37 -42.5h214q-10 28 -37 42.5t-70 14.5t-70 -14.5z
M129.5 578.5q-29.5 27.5 -29.5 71.5t29.5 71t76.5 27q46 0 75 -27t29 -71t-29 -71.5t-75 -27.5q-47 0 -76.5 27.5zM391 578.5q-29 27.5 -29 71.5t29 71t76 27t75.5 -27t28.5 -71t-29 -71.5t-75 -27.5q-47 0 -76 27.5z" />
    <glyph glyph-name="igrave" unicode="&#xec;" horiz-adv-x="286" 
d="M240 506v-506h-194v506h194zM-15 750l316 -44v-152l-316 44v152z" />
    <glyph glyph-name="iacute" unicode="&#xed;" horiz-adv-x="286" 
d="M240 506v-506h-194v506h194zM301 749v-152l-316 -44v152z" />
    <glyph glyph-name="icircumflex" unicode="&#xee;" horiz-adv-x="286" 
d="M240 506v-506h-194v506h194zM143 749l158 -28v-157l-158 28l-158 -28v157z" />
    <glyph glyph-name="idieresis" unicode="&#xef;" horiz-adv-x="286" 
d="M240 506v-506h-194v506h194zM-53.5 579.5q-29.5 27.5 -29.5 71.5t29.5 71t76.5 27q46 0 75 -27t29 -71t-29 -71.5t-75 -27.5q-47 0 -76.5 27.5zM188 579.5q-29 27.5 -29 71.5t29 71t76 27t75.5 -27t28.5 -71t-29 -71.5t-75 -27.5q-47 0 -76 27.5z" />
    <glyph glyph-name="eth" unicode="&#xf0;" horiz-adv-x="684" 
d="M653 577l-110 -17q50 -48 74.5 -107.5t24.5 -133.5v-76q0 -78 -37.5 -136t-106.5 -89t-163 -31q-92 0 -161 29.5t-107 83t-38 123.5v17q0 67 33.5 119t93 81t136.5 29q97 0 149 -52q-9 29 -30 52t-62 48l-1 1l-304 -48v134l129 20l-79 49v27h225l57 -33l277 44v-134z
M448 243v17q-28 51 -114 51q-52 0 -78.5 -19t-26.5 -56v-6q0 -38 27.5 -58t79.5 -20q112 0 112 91z" />
    <glyph glyph-name="ntilde" unicode="&#xf1;" horiz-adv-x="711" 
d="M590.5 450.5q66.5 -69.5 66.5 -209.5v-241h-194v241q0 49 -26 75t-76 26q-35 0 -62.5 -14.5t-43.5 -41.5v-286h-194v506h180l4 -36q63 49 152 49q127 1 193.5 -68.5zM419 564.5q-24 3.5 -62 10.5q-35 7 -58.5 10.5t-48.5 3.5q-59 0 -115 -27v150q58 29 117 29
q32 0 66.5 -7t41.5 -8q35 -8 60.5 -12t51.5 -4q63 0 115 26v-150q-53 -25 -117 -25q-27 0 -51 3.5z" />
    <glyph glyph-name="ograve" unicode="&#xf2;" horiz-adv-x="685" 
d="M175 18.5q-71 31.5 -108.5 90.5t-37.5 138v9q0 81 37.5 140t108.5 91t169 32q148 0 230 -70t82 -193v-9q0 -121 -82 -190.5t-230 -69.5q-98 0 -169 31.5zM427 184.5q29 21.5 29 64.5v4q0 45 -29 67.5t-84 22.5q-56 0 -85 -22.5t-29 -67.5v-4q0 -43 29.5 -64.5t84.5 -21.5
t84 21.5zM117 758l452 -60v-152l-452 60v152z" />
    <glyph glyph-name="oacute" unicode="&#xf3;" horiz-adv-x="685" 
d="M175 18.5q-71 31.5 -108.5 90.5t-37.5 138v9q0 81 37.5 140t108.5 91t169 32q148 0 230 -70t82 -193v-9q0 -121 -82 -190.5t-230 -69.5q-98 0 -169 31.5zM427 184.5q29 21.5 29 64.5v4q0 45 -29 67.5t-84 22.5q-56 0 -85 -22.5t-29 -67.5v-4q0 -43 29.5 -64.5t84.5 -21.5
t84 21.5zM569 757v-152l-452 -60v152z" />
    <glyph glyph-name="ocircumflex" unicode="&#xf4;" horiz-adv-x="685" 
d="M175 18.5q-71 31.5 -108.5 90.5t-37.5 138v9q0 81 37.5 140t108.5 91t169 32q148 0 230 -70t82 -193v-9q0 -121 -82 -190.5t-230 -69.5q-98 0 -169 31.5zM427 184.5q29 21.5 29 64.5v4q0 45 -29 67.5t-84 22.5q-56 0 -85 -22.5t-29 -67.5v-4q0 -43 29.5 -64.5t84.5 -21.5
t84 21.5zM343 756l226 -56v-155l-226 56l-226 -56v155z" />
    <glyph glyph-name="otilde" unicode="&#xf5;" horiz-adv-x="685" 
d="M175 18.5q-71 31.5 -108.5 90.5t-37.5 138v9q0 81 37.5 140t108.5 91t169 32q148 0 230 -70t82 -193v-9q0 -121 -82 -190.5t-230 -69.5q-98 0 -169 31.5zM427 184.5q29 21.5 29 64.5v4q0 45 -29 67.5t-84 22.5q-56 0 -85 -22.5t-29 -67.5v-4q0 -43 29.5 -64.5t84.5 -21.5
t84 21.5zM401 564.5q-24 3.5 -62 10.5q-35 7 -58.5 10.5t-48.5 3.5q-59 0 -115 -27v150q58 29 117 29q32 0 66.5 -7t41.5 -8q35 -8 60.5 -12t51.5 -4q63 0 115 26v-150q-53 -25 -117 -25q-27 0 -51 3.5z" />
    <glyph glyph-name="odieresis" unicode="&#xf6;" horiz-adv-x="685" 
d="M175 18.5q-71 31.5 -108.5 90.5t-37.5 138v9q0 81 37.5 140t108.5 91t169 32q148 0 230 -70t82 -193v-9q0 -121 -82 -190.5t-230 -69.5q-98 0 -169 31.5zM427 184.5q29 21.5 29 64.5v4q0 45 -29 67.5t-84 22.5q-56 0 -85 -22.5t-29 -67.5v-4q0 -43 29.5 -64.5t84.5 -21.5
t84 21.5zM136.5 578.5q-29.5 27.5 -29.5 71.5t29.5 71t76.5 27q46 0 75 -27t29 -71t-29 -71.5t-75 -27.5q-47 0 -76.5 27.5zM398 578.5q-29 27.5 -29 71.5t29 71t76 27t75.5 -27t28.5 -71t-29 -71.5t-75 -27.5q-47 0 -76 27.5z" />
    <glyph glyph-name="divide" unicode="&#xf7;" horiz-adv-x="816" 
d="M331 477q-30 29 -30 75t30 74.5t77 28.5q48 0 77.5 -28.5t29.5 -74.5q0 -47 -29.5 -75.5t-77.5 -28.5q-47 0 -77 29zM715 418v-180h-614v180h614zM331 30q-30 29 -30 75t30 74.5t77 28.5q48 0 77.5 -28.5t29.5 -74.5q0 -47 -29.5 -75.5t-77.5 -28.5q-47 0 -77 29z" />
    <glyph glyph-name="oslash" unicode="&#xf8;" horiz-adv-x="685" 
d="M632.5 372q23.5 -51 23.5 -116v-9q0 -122 -82.5 -191t-229.5 -69q-35 0 -62 4l-30 -50h-180v24l51 84q-45 34 -69.5 84.5t-24.5 113.5v9q0 81 38 140.5t109 91t168 31.5q33 0 61 -3l29 47h180v-23l-50 -83q45 -34 68.5 -85zM200 239q0 -38 15 -62l120 200
q-70 -2 -102.5 -29t-32.5 -85v-24zM486 263q0 39 -15 65l-121 -199q70 1 103 27.5t33 82.5v24z" />
    <glyph glyph-name="ugrave" unicode="&#xf9;" horiz-adv-x="711" 
d="M650 506v-506h-180l-4 36q-63 -49 -152 -49q-127 -1 -193.5 68.5t-66.5 209.5v241h194v-241q0 -49 26 -75t76 -26q35 0 62.5 14.5t43.5 41.5v286h194zM127 758l452 -60v-152l-452 60v152z" />
    <glyph glyph-name="uacute" unicode="&#xfa;" horiz-adv-x="711" 
d="M650 506v-506h-180l-4 36q-63 -49 -152 -49q-127 -1 -193.5 68.5t-66.5 209.5v241h194v-241q0 -49 26 -75t76 -26q35 0 62.5 14.5t43.5 41.5v286h194zM579 757v-152l-452 -60v152z" />
    <glyph glyph-name="ucircumflex" unicode="&#xfb;" horiz-adv-x="711" 
d="M650 506v-506h-180l-4 36q-63 -49 -152 -49q-127 -1 -193.5 68.5t-66.5 209.5v241h194v-241q0 -49 26 -75t76 -26q35 0 62.5 14.5t43.5 41.5v286h194zM353 756l226 -56v-155l-226 56l-226 -56v155z" />
    <glyph glyph-name="udieresis" unicode="&#xfc;" horiz-adv-x="711" 
d="M650 506v-506h-180l-4 36q-63 -49 -152 -49q-127 -1 -193.5 68.5t-66.5 209.5v241h194v-241q0 -49 26 -75t76 -26q35 0 62.5 14.5t43.5 41.5v286h194zM146.5 578.5q-29.5 27.5 -29.5 71.5t29.5 71t76.5 27q46 0 75 -27t29 -71t-29 -71.5t-75 -27.5q-47 0 -76.5 27.5z
M408 578.5q-29 27.5 -29 71.5t29 71t76 27t75.5 -27t28.5 -71t-29 -71.5t-75 -27.5q-47 0 -76 27.5z" />
    <glyph glyph-name="yacute" unicode="&#xfd;" horiz-adv-x="697" 
d="M697 506v-27l-252 -534q-26 -56 -73.5 -85.5t-131.5 -29.5h-168v170h149q12 0 17 1l-238 478v27h207l147 -309l136 309h207zM575 757v-152l-452 -60v152z" />
    <glyph glyph-name="thorn" unicode="&#xfe;" horiz-adv-x="710" 
d="M551 486.5q63 -32.5 96.5 -92t33.5 -137.5v-6q0 -78 -33.5 -138t-96.5 -93t-147 -33q-87 0 -149 41v-198h-194v866h194v-220q63 43 149 43q84 0 147 -32.5zM481 257q0 41 -29.5 63t-84.5 22q-36 0 -65.5 -8.5t-46.5 -24.5v-110q18 -16 47.5 -25.5t64.5 -9.5q54 0 84 22.5
t30 64.5v6z" />
    <glyph glyph-name="ydieresis" unicode="&#xff;" horiz-adv-x="697" 
d="M697 506v-27l-252 -534q-26 -56 -73.5 -85.5t-131.5 -29.5h-168v170h149q12 0 17 1l-238 478v27h207l147 -309l136 309h207zM142.5 578.5q-29.5 27.5 -29.5 71.5t29.5 71t76.5 27q46 0 75 -27t29 -71t-29 -71.5t-75 -27.5q-47 0 -76.5 27.5zM404 578.5q-29 27.5 -29 71.5
t29 71t76 27t75.5 -27t28.5 -71t-29 -71.5t-75 -27.5q-47 0 -76 27.5z" />
    <glyph glyph-name="Amacron" unicode="&#x100;" horiz-adv-x="770" 
d="M768 30v-30h-196l-43 108h-288l-43 -108h-196v30l272 626h222zM462 274l-77 191l-77 -191h154zM611 877v-152h-452v152h452z" />
    <glyph glyph-name="amacron" unicode="&#x101;" horiz-adv-x="716" 
d="M706 170v-170h-109q-85 0 -127 50q-39 -30 -94 -46.5t-119 -16.5q-100 0 -157 41t-57 114q0 122 166 142l227 26q-12 50 -95 50q-96 0 -96 -40v-3h-198v3q0 61 36 105.5t103 69t157 24.5q137 0 213.5 -61t76.5 -170v-94q0 -13 6.5 -18.5t22.5 -5.5h44zM291 123
q41 0 82 13.5t65 33.5v33l-169 -20q-33 -4 -33 -29q0 -31 55 -31zM565 727v-152h-452v152h452z" />
    <glyph glyph-name="Abreve" unicode="&#x102;" horiz-adv-x="770" 
d="M768 30v-30h-196l-43 108h-288l-43 -108h-196v30l272 626h222zM462 274l-77 191l-77 -191h154zM159 747v152q122 -45 228 -45q107 0 224 45v-152q-117 -45 -224 -45q-106 0 -228 45z" />
    <glyph glyph-name="abreve" unicode="&#x103;" horiz-adv-x="716" 
d="M706 170v-170h-109q-85 0 -127 50q-39 -30 -94 -46.5t-119 -16.5q-100 0 -157 41t-57 114q0 122 166 142l227 26q-12 50 -95 50q-96 0 -96 -40v-3h-198v3q0 61 36 105.5t103 69t157 24.5q137 0 213.5 -61t76.5 -170v-94q0 -13 6.5 -18.5t22.5 -5.5h44zM291 123
q41 0 82 13.5t65 33.5v33l-169 -20q-33 -4 -33 -29q0 -31 55 -31zM113 597v152q122 -45 228 -45q107 0 224 45v-152q-117 -45 -224 -45q-106 0 -228 45z" />
    <glyph glyph-name="Aogonek" unicode="&#x104;" horiz-adv-x="770" 
d="M768 30v-30h-196l-43 108h-288l-43 -108h-196v30l272 626h222zM462 274l-77 191l-77 -191h154zM519 -149q-31 21 -31 58q0 27 17 48.5t62 51.5l153 102l48 -111l-48 -35q-6 -4 -8.5 -7.5t-2.5 -7.5q0 -5 4 -7.5t11 -2.5h44v-110h-165q-53 0 -84 21z" />
    <glyph glyph-name="aogonek" unicode="&#x105;" horiz-adv-x="716" 
d="M706 170v-170h-109q-85 0 -127 50q-39 -30 -94 -46.5t-119 -16.5q-100 0 -157 41t-57 114q0 122 166 142l227 26q-12 50 -95 50q-96 0 -96 -40v-3h-198v3q0 61 36 105.5t103 69t157 24.5q137 0 213.5 -61t76.5 -170v-94q0 -13 6.5 -18.5t22.5 -5.5h44zM291 123
q41 0 82 13.5t65 33.5v33l-169 -20q-33 -4 -33 -29q0 -31 55 -31zM457 -149q-31 21 -31 58q0 27 17 48.5t62 51.5l153 102l48 -111l-48 -35q-6 -4 -8.5 -7.5t-2.5 -7.5q0 -5 4 -7.5t11 -2.5h44v-110h-165q-53 0 -84 21z" />
    <glyph glyph-name="Cacute" unicode="&#x106;" horiz-adv-x="874" 
d="M227 28.5q-93 41.5 -144 118t-51 178.5v5q0 102 51 178.5t144 118.5t216 42q116 0 207.5 -37t143 -103.5t51.5 -150.5v-7h-205v7q0 48 -53.5 76t-144.5 28q-104 0 -154.5 -37t-50.5 -113v-10q0 -76 50 -112t156 -36q94 0 145.5 26.5t51.5 75.5v7h205v-7q0 -83 -51.5 -149
t-143 -103t-207.5 -37q-123 0 -216 41.5zM673 907v-152l-452 -60v152z" />
    <glyph glyph-name="cacute" unicode="&#x107;" horiz-adv-x="670" 
d="M174 18.5q-70 31.5 -107.5 90t-37.5 138.5v9q0 81 37.5 140.5t107.5 91t165 31.5q90 0 159.5 -29t107.5 -81.5t38 -120.5v-6h-199v6q0 25 -29 40t-77 15q-57 0 -83.5 -21.5t-26.5 -68.5v-4q0 -44 27 -65t83 -21q51 0 78.5 14.5t27.5 40.5v6h199v-6q0 -71 -37 -123
t-105.5 -80t-162.5 -28q-95 0 -165 31.5zM560 757v-152l-452 -60v152z" />
    <glyph glyph-name="Ccircumflex" unicode="&#x108;" horiz-adv-x="874" 
d="M227 28.5q-93 41.5 -144 118t-51 178.5v5q0 102 51 178.5t144 118.5t216 42q116 0 207.5 -37t143 -103.5t51.5 -150.5v-7h-205v7q0 48 -53.5 76t-144.5 28q-104 0 -154.5 -37t-50.5 -113v-10q0 -76 50 -112t156 -36q94 0 145.5 26.5t51.5 75.5v7h205v-7q0 -83 -51.5 -149
t-143 -103t-207.5 -37q-123 0 -216 41.5zM447 906l226 -56v-155l-226 56l-226 -56v155z" />
    <glyph glyph-name="ccircumflex" unicode="&#x109;" horiz-adv-x="670" 
d="M174 18.5q-70 31.5 -107.5 90t-37.5 138.5v9q0 81 37.5 140.5t107.5 91t165 31.5q90 0 159.5 -29t107.5 -81.5t38 -120.5v-6h-199v6q0 25 -29 40t-77 15q-57 0 -83.5 -21.5t-26.5 -68.5v-4q0 -44 27 -65t83 -21q51 0 78.5 14.5t27.5 40.5v6h199v-6q0 -71 -37 -123
t-105.5 -80t-162.5 -28q-95 0 -165 31.5zM334 756l226 -56v-155l-226 56l-226 -56v155z" />
    <glyph glyph-name="Cdotaccent" unicode="&#x10a;" horiz-adv-x="874" 
d="M227 28.5q-93 41.5 -144 118t-51 178.5v5q0 102 51 178.5t144 118.5t216 42q116 0 207.5 -37t143 -103.5t51.5 -150.5v-7h-205v7q0 48 -53.5 76t-144.5 28q-104 0 -154.5 -37t-50.5 -113v-10q0 -76 50 -112t156 -36q94 0 145.5 26.5t51.5 75.5v7h205v-7q0 -83 -51.5 -149
t-143 -103t-207.5 -37q-123 0 -216 41.5zM366.5 724.5q-31.5 29.5 -31.5 76.5t31 76t81 29t81 -29t31 -76t-31 -76.5t-81 -29.5q-49 0 -80.5 29.5z" />
    <glyph glyph-name="cdotaccent" unicode="&#x10b;" horiz-adv-x="670" 
d="M174 18.5q-70 31.5 -107.5 90t-37.5 138.5v9q0 81 37.5 140.5t107.5 91t165 31.5q90 0 159.5 -29t107.5 -81.5t38 -120.5v-6h-199v6q0 25 -29 40t-77 15q-57 0 -83.5 -21.5t-26.5 -68.5v-4q0 -44 27 -65t83 -21q51 0 78.5 14.5t27.5 40.5v6h199v-6q0 -71 -37 -123
t-105.5 -80t-162.5 -28q-95 0 -165 31.5zM253.5 574.5q-31.5 29.5 -31.5 76.5t31 76t81 29t81 -29t31 -76t-31 -76.5t-81 -29.5q-49 0 -80.5 29.5z" />
    <glyph glyph-name="Ccaron" unicode="&#x10c;" horiz-adv-x="874" 
d="M227 28.5q-93 41.5 -144 118t-51 178.5v5q0 102 51 178.5t144 118.5t216 42q116 0 207.5 -37t143 -103.5t51.5 -150.5v-7h-205v7q0 48 -53.5 76t-144.5 28q-104 0 -154.5 -37t-50.5 -113v-10q0 -76 50 -112t156 -36q94 0 145.5 26.5t51.5 75.5v7h205v-7q0 -83 -51.5 -149
t-143 -103t-207.5 -37q-123 0 -216 41.5zM221 906l226 -56l226 56v-155l-226 -56l-226 56v155z" />
    <glyph glyph-name="ccaron" unicode="&#x10d;" horiz-adv-x="670" 
d="M174 18.5q-70 31.5 -107.5 90t-37.5 138.5v9q0 81 37.5 140.5t107.5 91t165 31.5q90 0 159.5 -29t107.5 -81.5t38 -120.5v-6h-199v6q0 25 -29 40t-77 15q-57 0 -83.5 -21.5t-26.5 -68.5v-4q0 -44 27 -65t83 -21q51 0 78.5 14.5t27.5 40.5v6h199v-6q0 -71 -37 -123
t-105.5 -80t-162.5 -28q-95 0 -165 31.5zM108 756l226 -56l226 56v-155l-226 -56l-226 56v155z" />
    <glyph glyph-name="Dcaron" unicode="&#x10e;" horiz-adv-x="826" 
d="M410 656q191 0 287.5 -81.5t96.5 -243.5v-7q0 -324 -384 -324h-346v656h346zM547 213q42 33 42 108v12q0 74 -43.5 108.5t-136.5 34.5h-144v-296h145q95 0 137 33zM192 906l226 -56l226 56v-155l-226 -56l-226 56v155z" />
    <glyph glyph-name="dcaron" unicode="&#x10f;" horiz-adv-x="920" 
d="M649 696v-696h-180l-4 35q-65 -48 -159 -48q-84 0 -147 33t-96.5 93t-33.5 138v6q0 78 33.5 137.5t96.5 92t147 32.5q86 0 149 -43v220h194zM259 186.5q30 -22.5 84 -22.5q35 0 64.5 9.5t47.5 25.5v110q-17 16 -46.5 24.5t-65.5 8.5q-55 0 -84.5 -22t-29.5 -63v-6
q0 -42 30 -64.5zM941 696l-67 -190h-174l22 190h219z" />
    <glyph glyph-name="Dcroat" unicode="&#x110;" horiz-adv-x="859" 
d="M730.5 574.5q96.5 -81.5 96.5 -243.5v-7q0 -324 -384 -324h-346v242h-107v173h107v241h346q191 0 287.5 -81.5zM622 333q0 74 -43.5 108.5t-136.5 34.5h-144v-61h137v-173h-137v-62h145q95 0 137 33t42 108v12z" />
    <glyph glyph-name="dcroat" unicode="&#x111;" horiz-adv-x="736" 
d="M756 516h-107v-516h-180l-4 35q-65 -48 -159 -48q-83 0 -146 31.5t-97 89t-34 133.5v6q0 69 33.5 121.5t94.5 81.5t141 29q92 0 157 -40v77h-191v140h191v40h194v-40h107v-140zM258.5 179q29.5 -20 84.5 -20q35 0 64.5 9.5t47.5 25.5v95q-18 13 -47.5 20.5t-64.5 7.5
q-56 0 -85 -19t-29 -56v-6q0 -37 29.5 -57z" />
    <glyph glyph-name="Emacron" unicode="&#x112;" horiz-adv-x="723" 
d="M672 656v-172h-407v-71h387v-169h-387v-72h407v-172h-608v656h608zM594 877v-152h-452v152h452z" />
    <glyph glyph-name="emacron" unicode="&#x113;" horiz-adv-x="671" 
d="M642 205h-417q6 -34 34 -51.5t77 -17.5q89 0 106 32h199q-16 -89 -93 -135t-211 -46q-144 0 -226 68t-82 188v17q0 80 37 138.5t106.5 89.5t164.5 31q149 0 227 -67.5t78 -196.5v-50zM266 360.5q-27 -14.5 -37 -42.5h214q-10 28 -37 42.5t-70 14.5t-70 -14.5zM562 727
v-152h-452v152h452z" />
    <glyph glyph-name="Ebreve" unicode="&#x114;" horiz-adv-x="723" 
d="M672 656v-172h-407v-71h387v-169h-387v-72h407v-172h-608v656h608zM142 747v152q122 -45 228 -45q107 0 224 45v-152q-117 -45 -224 -45q-106 0 -228 45z" />
    <glyph glyph-name="ebreve" unicode="&#x115;" horiz-adv-x="671" 
d="M642 205h-417q6 -34 34 -51.5t77 -17.5q89 0 106 32h199q-16 -89 -93 -135t-211 -46q-144 0 -226 68t-82 188v17q0 80 37 138.5t106.5 89.5t164.5 31q149 0 227 -67.5t78 -196.5v-50zM266 360.5q-27 -14.5 -37 -42.5h214q-10 28 -37 42.5t-70 14.5t-70 -14.5zM110 597
v152q122 -45 228 -45q107 0 224 45v-152q-117 -45 -224 -45q-106 0 -228 45z" />
    <glyph glyph-name="Edotaccent" unicode="&#x116;" horiz-adv-x="723" 
d="M672 656v-172h-407v-71h387v-169h-387v-72h407v-172h-608v656h608zM287.5 724.5q-31.5 29.5 -31.5 76.5t31 76t81 29t81 -29t31 -76t-31 -76.5t-81 -29.5q-49 0 -80.5 29.5z" />
    <glyph glyph-name="edotaccent" unicode="&#x117;" horiz-adv-x="671" 
d="M642 205h-417q6 -34 34 -51.5t77 -17.5q89 0 106 32h199q-16 -89 -93 -135t-211 -46q-144 0 -226 68t-82 188v17q0 80 37 138.5t106.5 89.5t164.5 31q149 0 227 -67.5t78 -196.5v-50zM266 360.5q-27 -14.5 -37 -42.5h214q-10 28 -37 42.5t-70 14.5t-70 -14.5z
M255.5 574.5q-31.5 29.5 -31.5 76.5t31 76t81 29t81 -29t31 -76t-31 -76.5t-81 -29.5q-49 0 -80.5 29.5z" />
    <glyph glyph-name="Eogonek" unicode="&#x118;" horiz-adv-x="723" 
d="M672 656v-172h-407v-71h387v-169h-387v-72h407v-172h-608v656h608zM423 -149q-31 21 -31 58q0 27 17 48.5t62 51.5l153 102l48 -111l-48 -35q-6 -4 -8.5 -7.5t-2.5 -7.5q0 -5 4 -7.5t11 -2.5h44v-110h-165q-53 0 -84 21z" />
    <glyph glyph-name="eogonek" unicode="&#x119;" horiz-adv-x="671" 
d="M642 205h-417q6 -34 34 -51.5t77 -17.5q89 0 106 32h199q-16 -89 -93 -135t-211 -46q-144 0 -226 68t-82 188v17q0 80 37 138.5t106.5 89.5t164.5 31q149 0 227 -67.5t78 -196.5v-50zM266 360.5q-27 -14.5 -37 -42.5h214q-10 28 -37 42.5t-70 14.5t-70 -14.5zM292 -149
q-31 21 -31 58q0 28 18.5 53.5t60.5 60.5l143 118l106 -76l-96 -93q-11 -11 -11 -20q0 -5 5 -8.5t12 -3.5h42v-110h-165q-53 0 -84 21z" />
    <glyph glyph-name="Ecaron" unicode="&#x11a;" horiz-adv-x="723" 
d="M672 656v-172h-407v-71h387v-169h-387v-72h407v-172h-608v656h608zM142 906l226 -56l226 56v-155l-226 -56l-226 56v155z" />
    <glyph glyph-name="ecaron" unicode="&#x11b;" horiz-adv-x="671" 
d="M642 205h-417q6 -34 34 -51.5t77 -17.5q89 0 106 32h199q-16 -89 -93 -135t-211 -46q-144 0 -226 68t-82 188v17q0 80 37 138.5t106.5 89.5t164.5 31q149 0 227 -67.5t78 -196.5v-50zM266 360.5q-27 -14.5 -37 -42.5h214q-10 28 -37 42.5t-70 14.5t-70 -14.5zM110 756
l226 -56l226 56v-155l-226 -56l-226 56v155z" />
    <glyph glyph-name="Gcircumflex" unicode="&#x11c;" horiz-adv-x="879" 
d="M847 373v-373h-178l-4 39q-44 -28 -94 -40t-120 -12q-127 0 -222 41.5t-146 117.5t-51 179v5q0 102 51 178.5t144 118.5t217 42t214.5 -28.5t139 -82.5t48.5 -128v-3h-205v3q0 16 -26 29.5t-69 22t-92 8.5q-217 0 -217 -158v-10q0 -79 53 -117t164 -38q134 0 203 39v19
h-311v148h501zM448 906l226 -56v-155l-226 56l-226 -56v155z" />
    <glyph glyph-name="gcircumflex" unicode="&#x11d;" horiz-adv-x="709" 
d="M648 506v-436q0 -128 -77.5 -191t-235.5 -62q-143 1 -223 53t-80 146v5h198v-5q0 -16 31 -27.5t75 -11.5q118 0 118 83v12q-61 -35 -149 -35q-134 0 -205.5 60t-71.5 172v6q0 115 73.5 179.5t203.5 64.5q97 0 159 -44l4 31h180zM407.5 202.5q29.5 8.5 46.5 24.5v90
q-18 16 -47.5 25.5t-64.5 9.5q-59 0 -86.5 -18.5t-27.5 -58.5v-6q0 -39 27.5 -57t86.5 -18q36 0 65.5 8.5zM347 756l226 -56v-155l-226 56l-226 -56v155z" />
    <glyph glyph-name="Gbreve" unicode="&#x11e;" horiz-adv-x="879" 
d="M847 373v-373h-178l-4 39q-44 -28 -94 -40t-120 -12q-127 0 -222 41.5t-146 117.5t-51 179v5q0 102 51 178.5t144 118.5t217 42t214.5 -28.5t139 -82.5t48.5 -128v-3h-205v3q0 16 -26 29.5t-69 22t-92 8.5q-217 0 -217 -158v-10q0 -79 53 -117t164 -38q134 0 203 39v19
h-311v148h501zM222 747v152q122 -45 228 -45q107 0 224 45v-152q-117 -45 -224 -45q-106 0 -228 45z" />
    <glyph glyph-name="gbreve" unicode="&#x11f;" horiz-adv-x="709" 
d="M648 506v-436q0 -128 -77.5 -191t-235.5 -62q-143 1 -223 53t-80 146v5h198v-5q0 -16 31 -27.5t75 -11.5q118 0 118 83v12q-61 -35 -149 -35q-134 0 -205.5 60t-71.5 172v6q0 115 73.5 179.5t203.5 64.5q97 0 159 -44l4 31h180zM407.5 202.5q29.5 8.5 46.5 24.5v90
q-18 16 -47.5 25.5t-64.5 9.5q-59 0 -86.5 -18.5t-27.5 -58.5v-6q0 -39 27.5 -57t86.5 -18q36 0 65.5 8.5zM121 597v152q122 -45 228 -45q107 0 224 45v-152q-117 -45 -224 -45q-106 0 -228 45z" />
    <glyph glyph-name="Gdotaccent" unicode="&#x120;" horiz-adv-x="879" 
d="M847 373v-373h-178l-4 39q-44 -28 -94 -40t-120 -12q-127 0 -222 41.5t-146 117.5t-51 179v5q0 102 51 178.5t144 118.5t217 42t214.5 -28.5t139 -82.5t48.5 -128v-3h-205v3q0 16 -26 29.5t-69 22t-92 8.5q-217 0 -217 -158v-10q0 -79 53 -117t164 -38q134 0 203 39v19
h-311v148h501zM367.5 724.5q-31.5 29.5 -31.5 76.5t31 76t81 29t81 -29t31 -76t-31 -76.5t-81 -29.5q-49 0 -80.5 29.5z" />
    <glyph glyph-name="gdotaccent" unicode="&#x121;" horiz-adv-x="709" 
d="M648 506v-436q0 -128 -77.5 -191t-235.5 -62q-143 1 -223 53t-80 146v5h198v-5q0 -16 31 -27.5t75 -11.5q118 0 118 83v12q-61 -35 -149 -35q-134 0 -205.5 60t-71.5 172v6q0 115 73.5 179.5t203.5 64.5q97 0 159 -44l4 31h180zM407.5 202.5q29.5 8.5 46.5 24.5v90
q-18 16 -47.5 25.5t-64.5 9.5q-59 0 -86.5 -18.5t-27.5 -58.5v-6q0 -39 27.5 -57t86.5 -18q36 0 65.5 8.5zM266.5 574.5q-31.5 29.5 -31.5 76.5t31 76t81 29t81 -29t31 -76t-31 -76.5t-81 -29.5q-49 0 -80.5 29.5z" />
    <glyph glyph-name="uni0122" unicode="&#x122;" horiz-adv-x="879" 
d="M847 373v-373h-178l-4 39q-44 -28 -94 -40t-120 -12q-127 0 -222 41.5t-146 117.5t-51 179v5q0 102 51 178.5t144 118.5t217 42t214.5 -28.5t139 -82.5t48.5 -128v-3h-205v3q0 16 -26 29.5t-69 22t-92 8.5q-217 0 -217 -158v-10q0 -79 53 -117t164 -38q134 0 203 39v19
h-311v148h501zM544 -58l-68 -192h-191l58 192h201z" />
    <glyph glyph-name="uni0123" unicode="&#x123;" horiz-adv-x="709" 
d="M648 506v-436q0 -128 -77.5 -191t-235.5 -62q-143 1 -223 53t-80 146v5h198v-5q0 -16 31 -27.5t75 -11.5q118 0 118 83v12q-61 -35 -149 -35q-134 0 -205.5 60t-71.5 172v6q0 115 73.5 179.5t203.5 64.5q97 0 159 -44l4 31h180zM407.5 202.5q29.5 8.5 46.5 24.5v90
q-18 16 -47.5 25.5t-64.5 9.5q-59 0 -86.5 -18.5t-27.5 -58.5v-6q0 -39 27.5 -57t86.5 -18q36 0 65.5 8.5zM482 746l-49 -192h-201l58 192h192z" />
    <glyph glyph-name="Hcircumflex" unicode="&#x124;" horiz-adv-x="819" 
d="M265 656v-238h289v238h201v-656h-201v238h-289v-238h-201v656h201zM410 906l226 -56v-155l-226 56l-226 -56v155z" />
    <glyph glyph-name="hcircumflex" unicode="&#x125;" horiz-adv-x="711" 
d="M591 448.5q66 -70.5 66 -207.5v-241h-194v241q0 49 -26 75t-76 26q-35 0 -62.5 -14.5t-43.5 -41.5v-286h-194v696h194v-219q59 42 142 42q128 0 194 -70.5zM158 916l226 -56v-155l-226 56l-226 -56v155z" />
    <glyph glyph-name="Hbar" unicode="&#x126;" horiz-adv-x="819" 
d="M829 422h-74v-422h-201v182h-289v-182h-201v422h-74v173h74v61h201v-61h289v61h201v-61h74v-173zM554 422h-289v-67h289v67z" />
    <glyph glyph-name="hbar" unicode="&#x127;" horiz-adv-x="737" 
d="M617 408.5q66 -70.5 66 -207.5v-201h-194v201q0 49 -26 75t-76 26q-35 0 -62.5 -14.5t-43.5 -41.5v-246h-194v516h-107v140h107v40h194v-40h191v-140h-191v-79q59 42 142 42q128 0 194 -70.5z" />
    <glyph glyph-name="Itilde" unicode="&#x128;" horiz-adv-x="299" 
d="M250 656v-656h-201v656h201zM148 725q-19 5 -39 9.5t-37 4.5q-41 0 -80 -24v150q40 26 82 26q23 0 46.5 -7t28.5 -8q50 -16 79 -16q43 0 80 22v-150q-37 -21 -82 -21q-28 0 -78 14z" />
    <glyph glyph-name="itilde" unicode="&#x129;" horiz-adv-x="286" 
d="M240 506v-506h-194v506h194zM141 575q-19 5 -39 9.5t-37 4.5q-41 0 -80 -24v150q40 26 82 26q23 0 46.5 -7t28.5 -8q50 -16 79 -16q43 0 80 22v-150q-37 -21 -82 -21q-28 0 -78 14z" />
    <glyph glyph-name="Imacron" unicode="&#x12a;" horiz-adv-x="299" 
d="M250 656v-656h-201v656h201zM308 877v-152h-316v152h316z" />
    <glyph glyph-name="imacron" unicode="&#x12b;" horiz-adv-x="286" 
d="M240 506v-506h-194v506h194zM301 727v-152h-316v152h316z" />
    <glyph glyph-name="Ibreve" unicode="&#x12c;" horiz-adv-x="299" 
d="M250 656v-656h-201v656h201zM-8 746v152q74 -43 158 -43q91 0 158 43v-152q-67 -43 -158 -43q-84 0 -158 43z" />
    <glyph glyph-name="ibreve" unicode="&#x12d;" horiz-adv-x="286" 
d="M240 506v-506h-194v506h194zM-15 596v152q74 -43 158 -43q91 0 158 43v-152q-67 -43 -158 -43q-84 0 -158 43z" />
    <glyph glyph-name="Iogonek" unicode="&#x12e;" horiz-adv-x="299" 
d="M250 656v-656h-201v656h201zM1 -149q-31 21 -31 58q0 27 17 48.5t62 51.5l153 102l48 -111l-48 -35q-6 -4 -8.5 -7.5t-2.5 -7.5q0 -5 4 -7.5t11 -2.5h44v-110h-165q-53 0 -84 21z" />
    <glyph glyph-name="iogonek" unicode="&#x12f;" horiz-adv-x="286" 
d="M240 506v-506h-194v506h194zM62.5 574.5q-31.5 29.5 -31.5 76.5t31 76t81 29t81 -29t31 -76t-31 -76.5t-81 -29.5q-49 0 -80.5 29.5zM-9 -149q-31 21 -31 58q0 27 17 48.5t62 51.5l153 102l48 -111l-48 -35q-6 -4 -8.5 -7.5t-2.5 -7.5q0 -5 4 -7.5t11 -2.5h44v-110h-165
q-53 0 -84 21z" />
    <glyph glyph-name="Idotaccent" unicode="&#x130;" horiz-adv-x="299" 
d="M250 656v-656h-201v656h201zM69.5 724.5q-31.5 29.5 -31.5 76.5t31 76t81 29t81 -29t31 -76t-31 -76.5t-81 -29.5q-49 0 -80.5 29.5z" />
    <glyph glyph-name="dotlessi" unicode="&#x131;" horiz-adv-x="286" 
d="M240 506v-506h-194v506h194z" />
    <glyph glyph-name="IJ" unicode="&#x132;" horiz-adv-x="841" 
d="M265 656v-656h-201v656h201zM457 180q68 0 98.5 31.5t30.5 103.5v161h-241v180h442v-337q0 -152 -86.5 -235.5t-243.5 -83.5h-112v180h112z" />
    <glyph glyph-name="ij" unicode="&#x133;" horiz-adv-x="572" 
d="M240 506v-506h-194v506h194zM62.5 574.5q-31.5 29.5 -31.5 76.5t31 76t81 29t81 -29t31 -76t-31 -76.5t-81 -29.5q-49 0 -80.5 29.5zM291 0q41 0 41 33v473h194v-494q0 -52 -25.5 -93.5t-71 -65t-102.5 -23.5h-95v170h59zM348.5 574.5q-31.5 29.5 -31.5 76.5t31 76t81 29
t81 -29t31 -76t-31 -76.5t-81 -29.5q-49 0 -80.5 29.5z" />
    <glyph glyph-name="Jcircumflex" unicode="&#x134;" horiz-adv-x="749" 
d="M186.5 25q-75.5 38 -116 110t-40.5 170v28h201v-28q0 -131 134 -131q70 0 99.5 29.5t29.5 99.5v173h-271v180h472v-349q0 -152 -86.5 -236t-243.5 -84q-103 0 -178.5 38zM450 906l226 -56v-155l-226 56l-226 -56v155z" />
    <glyph glyph-name="jcircumflex" unicode="&#x135;" horiz-adv-x="286" 
d="M5 0q41 0 41 33v473h194v-494q0 -52 -25.5 -93.5t-71 -65t-102.5 -23.5h-95v170h59zM143 749l158 -28v-157l-158 28l-158 -28v157z" />
    <glyph glyph-name="uni0136" unicode="&#x136;" horiz-adv-x="813" 
d="M783 626l-273 -257l254 -339v-30h-224l-186 253l-89 -88v-165h-201v656h201v-269l283 269h235v-30zM502 -58l-68 -192h-191l58 192h201z" />
    <glyph glyph-name="uni0137" unicode="&#x137;" horiz-adv-x="681" 
d="M683 27v-27h-215l-128 170l-85 -84v-86h-194v696h194v-386l204 196h214v-27l-191 -189zM440 -58l-68 -192h-191l58 192h201z" />
    <glyph glyph-name="Lacute" unicode="&#x139;" horiz-adv-x="687" 
d="M265 656v-476h407v-180h-608v656h201zM392 907v-152l-452 -60v152z" />
    <glyph glyph-name="lacute" unicode="&#x13a;" horiz-adv-x="319" 
d="M96.5 43.5q-50.5 43.5 -50.5 117.5v535h194v-500q0 -14 7.5 -20t23.5 -6h43v-170h-79q-88 0 -138.5 43.5zM305 909v-152l-316 -44v152z" />
    <glyph glyph-name="uni013B" unicode="&#x13b;" horiz-adv-x="687" 
d="M265 656v-476h407v-180h-608v656h201zM448 -58l-68 -192h-191l58 192h201z" />
    <glyph glyph-name="uni013C" unicode="&#x13c;" horiz-adv-x="319" 
d="M96.5 43.5q-50.5 43.5 -50.5 117.5v535h194v-500q0 -14 7.5 -20t23.5 -6h43v-170h-79q-88 0 -138.5 43.5zM331 -58l-68 -192h-191l58 192h201z" />
    <glyph glyph-name="Lcaron" unicode="&#x13d;" horiz-adv-x="687" 
d="M265 656v-476h407v-180h-608v656h201zM606 656l-67 -190h-174l22 190h219z" />
    <glyph glyph-name="lcaron" unicode="&#x13e;" horiz-adv-x="509" 
d="M96.5 43.5q-50.5 43.5 -50.5 117.5v535h194v-500q0 -14 7.5 -20t23.5 -6h43v-170h-79q-88 0 -138.5 43.5zM532 696l-67 -190h-174l22 190h219z" />
    <glyph glyph-name="Ldot" unicode="&#x13f;" horiz-adv-x="687" 
d="M265 656v-476h407v-180h-608v656h201zM427 320q-31 30 -31 79q0 48 31 78t81 30t81 -30t31 -78q0 -49 -31 -79t-81 -30t-81 30z" />
    <glyph glyph-name="ldot" unicode="&#x140;" horiz-adv-x="407" 
d="M96.5 43.5q-50.5 43.5 -50.5 117.5v535h194v-500q0 -14 7.5 -20t23.5 -6h43v-170h-79q-88 0 -138.5 43.5zM277 269q-27 30 -27 80t26.5 79t71.5 29q44 0 69.5 -29t25.5 -79t-26 -80t-69 -30q-44 0 -71 30z" />
    <glyph glyph-name="Lslash" unicode="&#x141;" horiz-adv-x="720" 
d="M705 180v-180h-608v253l-107 -22v176l107 22v227h201v-195l248 51v-176l-248 -51v-105h407z" />
    <glyph glyph-name="lslash" unicode="&#x142;" horiz-adv-x="398" 
d="M281 313v-117q0 -14 7.5 -20t23.5 -6h43v-170h-79q-88 0 -138.5 43.5t-50.5 117.5v122l-97 -20v170l97 20v243h194v-213l117 25v-170z" />
    <glyph glyph-name="Nacute" unicode="&#x143;" horiz-adv-x="819" 
d="M755 656v-656h-186l-317 371v-371h-188v656h187l316 -370v370h188zM636 907v-152l-452 -60v152z" />
    <glyph glyph-name="nacute" unicode="&#x144;" horiz-adv-x="711" 
d="M590.5 450.5q66.5 -69.5 66.5 -209.5v-241h-194v241q0 49 -26 75t-76 26q-35 0 -62.5 -14.5t-43.5 -41.5v-286h-194v506h180l4 -36q63 49 152 49q127 1 193.5 -68.5zM587 757v-152l-452 -60v152z" />
    <glyph glyph-name="uni0145" unicode="&#x145;" horiz-adv-x="819" 
d="M755 656v-656h-186l-317 371v-371h-188v656h187l316 -370v370h188zM506 -58l-68 -192h-191l58 192h201z" />
    <glyph glyph-name="uni0146" unicode="&#x146;" horiz-adv-x="711" 
d="M590.5 450.5q66.5 -69.5 66.5 -209.5v-241h-194v241q0 49 -26 75t-76 26q-35 0 -62.5 -14.5t-43.5 -41.5v-286h-194v506h180l4 -36q63 49 152 49q127 1 193.5 -68.5zM457 -58l-68 -192h-191l58 192h201z" />
    <glyph glyph-name="Ncaron" unicode="&#x147;" horiz-adv-x="819" 
d="M755 656v-656h-186l-317 371v-371h-188v656h187l316 -370v370h188zM184 906l226 -56l226 56v-155l-226 -56l-226 56v155z" />
    <glyph glyph-name="ncaron" unicode="&#x148;" horiz-adv-x="711" 
d="M590.5 450.5q66.5 -69.5 66.5 -209.5v-241h-194v241q0 49 -26 75t-76 26q-35 0 -62.5 -14.5t-43.5 -41.5v-286h-194v506h180l4 -36q63 49 152 49q127 1 193.5 -68.5zM135 756l226 -56l226 56v-155l-226 -56l-226 56v155z" />
    <glyph glyph-name="Eng" unicode="&#x14a;" horiz-adv-x="819" 
d="M755 656v-578q0 -122 -66 -185t-194 -63h-52v170h42q43 0 64 21l-296 352v-373h-189v656h190l313 -373v373h188z" />
    <glyph glyph-name="eng" unicode="&#x14b;" horiz-adv-x="711" 
d="M590.5 450.5q66.5 -69.5 66.5 -209.5v-163q0 -122 -66 -185t-194 -63h-52v170h36q43 0 62.5 20t19.5 61v160q0 49 -26 75t-76 26q-35 0 -62.5 -14.5t-43.5 -41.5v-286h-194v506h180l4 -36q63 49 152 49q127 1 193.5 -68.5z" />
    <glyph glyph-name="Omacron" unicode="&#x14c;" horiz-adv-x="877" 
d="M225 28.5q-92 41.5 -142.5 118.5t-50.5 178v5q0 101 50.5 178t142.5 119t213 42q123 0 215 -42t142 -118.5t50 -178.5v-5q0 -102 -50 -178.5t-142 -118t-215 -41.5q-121 0 -213 41.5zM591 210.5q49 36.5 49 111.5v10q0 150 -202 150q-99 0 -150 -38t-51 -112v-10
q0 -75 50 -111.5t151 -36.5q104 0 153 36.5zM667 877v-152h-452v152h452z" />
    <glyph glyph-name="omacron" unicode="&#x14d;" horiz-adv-x="685" 
d="M175 18.5q-71 31.5 -108.5 90.5t-37.5 138v9q0 81 37.5 140t108.5 91t169 32q148 0 230 -70t82 -193v-9q0 -121 -82 -190.5t-230 -69.5q-98 0 -169 31.5zM427 184.5q29 21.5 29 64.5v4q0 45 -29 67.5t-84 22.5q-56 0 -85 -22.5t-29 -67.5v-4q0 -43 29.5 -64.5t84.5 -21.5
t84 21.5zM569 727v-152h-452v152h452z" />
    <glyph glyph-name="Obreve" unicode="&#x14e;" horiz-adv-x="877" 
d="M225 28.5q-92 41.5 -142.5 118.5t-50.5 178v5q0 101 50.5 178t142.5 119t213 42q123 0 215 -42t142 -118.5t50 -178.5v-5q0 -102 -50 -178.5t-142 -118t-215 -41.5q-121 0 -213 41.5zM591 210.5q49 36.5 49 111.5v10q0 150 -202 150q-99 0 -150 -38t-51 -112v-10
q0 -75 50 -111.5t151 -36.5q104 0 153 36.5zM215 747v152q122 -45 228 -45q107 0 224 45v-152q-117 -45 -224 -45q-106 0 -228 45z" />
    <glyph glyph-name="obreve" unicode="&#x14f;" horiz-adv-x="685" 
d="M175 18.5q-71 31.5 -108.5 90.5t-37.5 138v9q0 81 37.5 140t108.5 91t169 32q148 0 230 -70t82 -193v-9q0 -121 -82 -190.5t-230 -69.5q-98 0 -169 31.5zM427 184.5q29 21.5 29 64.5v4q0 45 -29 67.5t-84 22.5q-56 0 -85 -22.5t-29 -67.5v-4q0 -43 29.5 -64.5t84.5 -21.5
t84 21.5zM117 597v152q122 -45 228 -45q107 0 224 45v-152q-117 -45 -224 -45q-106 0 -228 45z" />
    <glyph glyph-name="Ohungarumlaut" unicode="&#x150;" horiz-adv-x="877" 
d="M225 28.5q-92 41.5 -142.5 118.5t-50.5 178v5q0 101 50.5 178t142.5 119t213 42q123 0 215 -42t142 -118.5t50 -178.5v-5q0 -102 -50 -178.5t-142 -118t-215 -41.5q-121 0 -213 41.5zM591 210.5q49 36.5 49 111.5v10q0 150 -202 150q-99 0 -150 -38t-51 -112v-10
q0 -75 50 -111.5t151 -36.5q104 0 153 36.5zM454 906v-154l-280 -57v154zM774 906v-154l-280 -57v154z" />
    <glyph glyph-name="ohungarumlaut" unicode="&#x151;" horiz-adv-x="685" 
d="M175 18.5q-71 31.5 -108.5 90.5t-37.5 138v9q0 81 37.5 140t108.5 91t169 32q148 0 230 -70t82 -193v-9q0 -121 -82 -190.5t-230 -69.5q-98 0 -169 31.5zM427 184.5q29 21.5 29 64.5v4q0 45 -29 67.5t-84 22.5q-56 0 -85 -22.5t-29 -67.5v-4q0 -43 29.5 -64.5t84.5 -21.5
t84 21.5zM356 756v-154l-280 -57v154zM676 756v-154l-280 -57v154z" />
    <glyph glyph-name="OE" unicode="&#x152;" horiz-adv-x="1263" 
d="M32 324v7q0 162 96.5 243.5t287.5 81.5h796v-172h-440v-71h388v-169h-388v-72h440v-172h-796q-384 0 -384 324zM571 476h-154q-91 0 -135.5 -35.5t-44.5 -107.5v-12q0 -73 43 -107t136 -34h155v296z" />
    <glyph glyph-name="oe" unicode="&#x153;" horiz-adv-x="1114" 
d="M1085 205h-422q6 -34 35 -51.5t78 -17.5q92 0 109 32h199q-16 -89 -93.5 -135t-213.5 -46q-68 0 -123.5 20.5t-94.5 59.5q-36 -39 -90 -59.5t-123 -20.5q-97 0 -168.5 31.5t-110 90t-38.5 138.5v9q0 81 38 140.5t109.5 91t169.5 31.5q68 0 122.5 -21t90.5 -60
q40 39 95.5 60t122.5 21q150 0 229 -69t79 -200v-45zM705 360.5q-28 -14.5 -38 -42.5h219q-10 28 -38 42.5t-72 14.5q-43 0 -71 -14.5zM461 253q0 90 -116 90q-115 0 -115 -90v-4q0 -86 115 -86q57 0 86.5 21.5t29.5 64.5v4z" />
    <glyph glyph-name="Racute" unicode="&#x154;" horiz-adv-x="806" 
d="M708.5 297q-46.5 -49 -134.5 -64l177 -203v-30h-227l-186 226h-73v-226h-201v656h427q123 0 193.5 -59t70.5 -162v-10q0 -79 -46.5 -128zM265 375h221q64 0 64 49v10q0 48 -64 48h-221v-107zM630 907v-152l-452 -60v152z" />
    <glyph glyph-name="racute" unicode="&#x155;" horiz-adv-x="473" 
d="M458 506v-170h-116q-73 0 -102 -26v-310h-194v506h181l4 -39q59 39 137 39h90zM468 757v-152l-452 -60v152z" />
    <glyph glyph-name="uni0156" unicode="&#x156;" horiz-adv-x="806" 
d="M708.5 297q-46.5 -49 -134.5 -64l177 -203v-30h-227l-186 226h-73v-226h-201v656h427q123 0 193.5 -59t70.5 -162v-10q0 -79 -46.5 -128zM265 375h221q64 0 64 49v10q0 48 -64 48h-221v-107zM500 -58l-68 -192h-191l58 192h201z" />
    <glyph glyph-name="uni0157" unicode="&#x157;" horiz-adv-x="473" 
d="M458 506v-170h-116q-73 0 -102 -26v-310h-194v506h181l4 -39q59 39 137 39h90zM249 -58l-68 -192h-191l58 192h201z" />
    <glyph glyph-name="Rcaron" unicode="&#x158;" horiz-adv-x="806" 
d="M708.5 297q-46.5 -49 -134.5 -64l177 -203v-30h-227l-186 226h-73v-226h-201v656h427q123 0 193.5 -59t70.5 -162v-10q0 -79 -46.5 -128zM265 375h221q64 0 64 49v10q0 48 -64 48h-221v-107zM178 906l226 -56l226 56v-155l-226 -56l-226 56v155z" />
    <glyph glyph-name="rcaron" unicode="&#x159;" horiz-adv-x="473" 
d="M458 506v-170h-116q-73 0 -102 -26v-310h-194v506h181l4 -39q59 39 137 39h90zM16 756l226 -56l226 56v-155l-226 -56l-226 56v155z" />
    <glyph glyph-name="Sacute" unicode="&#x15a;" horiz-adv-x="771" 
d="M133.5 48q-86.5 61 -86.5 177v10h195v-10q0 -34 39 -52.5t110 -18.5q129 0 129 43v6q0 27 -65 37l-185 29q-108 17 -161 62t-53 120v10q0 99 84 153.5t236 54.5q161 0 246.5 -58.5t85.5 -167.5v-8h-193v8q0 30 -34 44.5t-105 14.5q-120 0 -120 -36v-6q0 -11 14.5 -18.5
t48.5 -12.5l186 -29q111 -17 165 -63.5t54 -124.5v-10q0 -102 -89.5 -158.5t-250.5 -56.5q-164 0 -250.5 61zM607 907v-152l-452 -60v152z" />
    <glyph glyph-name="sacute" unicode="&#x15b;" horiz-adv-x="688" 
d="M120.5 34.5q-80.5 47.5 -80.5 135.5v3h177v-3q0 -23 31 -33.5t101 -10.5q53 0 82 5.5t29 16.5v4q0 9 -9.5 13.5t-34.5 6.5l-142 14q-115 11 -169 48t-54 104v10q0 82 78 126.5t220 44.5q146 0 220 -46t74 -137v-3h-176v3q0 24 -28 34t-96 10q-111 0 -111 -21v-4
q0 -15 43 -19l145 -15q117 -12 171.5 -49t54.5 -104v-10q0 -81 -78 -126t-219 -45q-148 0 -228.5 47.5zM584 757v-152l-452 -60v152z" />
    <glyph glyph-name="Scircumflex" unicode="&#x15c;" horiz-adv-x="771" 
d="M133.5 48q-86.5 61 -86.5 177v10h195v-10q0 -34 39 -52.5t110 -18.5q129 0 129 43v6q0 27 -65 37l-185 29q-108 17 -161 62t-53 120v10q0 99 84 153.5t236 54.5q161 0 246.5 -58.5t85.5 -167.5v-8h-193v8q0 30 -34 44.5t-105 14.5q-120 0 -120 -36v-6q0 -11 14.5 -18.5
t48.5 -12.5l186 -29q111 -17 165 -63.5t54 -124.5v-10q0 -102 -89.5 -158.5t-250.5 -56.5q-164 0 -250.5 61zM381 906l226 -56v-155l-226 56l-226 -56v155z" />
    <glyph glyph-name="scircumflex" unicode="&#x15d;" horiz-adv-x="688" 
d="M120.5 34.5q-80.5 47.5 -80.5 135.5v3h177v-3q0 -23 31 -33.5t101 -10.5q53 0 82 5.5t29 16.5v4q0 9 -9.5 13.5t-34.5 6.5l-142 14q-115 11 -169 48t-54 104v10q0 82 78 126.5t220 44.5q146 0 220 -46t74 -137v-3h-176v3q0 24 -28 34t-96 10q-111 0 -111 -21v-4
q0 -15 43 -19l145 -15q117 -12 171.5 -49t54.5 -104v-10q0 -81 -78 -126t-219 -45q-148 0 -228.5 47.5zM358 756l226 -56v-155l-226 56l-226 -56v155z" />
    <glyph glyph-name="Scedilla" unicode="&#x15e;" horiz-adv-x="771" 
d="M133.5 48q-86.5 61 -86.5 177v10h195v-10q0 -34 39 -52.5t110 -18.5q129 0 129 43v6q0 27 -65 37l-185 29q-108 17 -161 62t-53 120v10q0 99 84 153.5t236 54.5q161 0 246.5 -58.5t85.5 -167.5v-8h-193v8q0 30 -34 44.5t-105 14.5q-120 0 -120 -36v-6q0 -11 14.5 -18.5
t48.5 -12.5l186 -29q111 -17 165 -63.5t54 -124.5v-10q0 -102 -89.5 -158.5t-250.5 -56.5q-164 0 -250.5 61zM483 0l-48 -170h-201l69 243z" />
    <glyph glyph-name="scedilla" unicode="&#x15f;" horiz-adv-x="688" 
d="M120.5 34.5q-80.5 47.5 -80.5 135.5v3h177v-3q0 -23 31 -33.5t101 -10.5q53 0 82 5.5t29 16.5v4q0 9 -9.5 13.5t-34.5 6.5l-142 14q-115 11 -169 48t-54 104v10q0 82 78 126.5t220 44.5q146 0 220 -46t74 -137v-3h-176v3q0 24 -28 34t-96 10q-111 0 -111 -21v-4
q0 -15 43 -19l145 -15q117 -12 171.5 -49t54.5 -104v-10q0 -81 -78 -126t-219 -45q-148 0 -228.5 47.5zM458 0l-48 -170h-201l69 243z" />
    <glyph glyph-name="Scaron" unicode="&#x160;" horiz-adv-x="771" 
d="M133.5 48q-86.5 61 -86.5 177v10h195v-10q0 -34 39 -52.5t110 -18.5q129 0 129 43v6q0 27 -65 37l-185 29q-108 17 -161 62t-53 120v10q0 99 84 153.5t236 54.5q161 0 246.5 -58.5t85.5 -167.5v-8h-193v8q0 30 -34 44.5t-105 14.5q-120 0 -120 -36v-6q0 -11 14.5 -18.5
t48.5 -12.5l186 -29q111 -17 165 -63.5t54 -124.5v-10q0 -102 -89.5 -158.5t-250.5 -56.5q-164 0 -250.5 61zM155 906l226 -56l226 56v-155l-226 -56l-226 56v155z" />
    <glyph glyph-name="scaron" unicode="&#x161;" horiz-adv-x="688" 
d="M120.5 34.5q-80.5 47.5 -80.5 135.5v3h177v-3q0 -23 31 -33.5t101 -10.5q53 0 82 5.5t29 16.5v4q0 9 -9.5 13.5t-34.5 6.5l-142 14q-115 11 -169 48t-54 104v10q0 82 78 126.5t220 44.5q146 0 220 -46t74 -137v-3h-176v3q0 24 -28 34t-96 10q-111 0 -111 -21v-4
q0 -15 43 -19l145 -15q117 -12 171.5 -49t54.5 -104v-10q0 -81 -78 -126t-219 -45q-148 0 -228.5 47.5zM132 756l226 -56l226 56v-155l-226 -56l-226 56v155z" />
    <glyph glyph-name="uni0162" unicode="&#x162;" horiz-adv-x="691" 
d="M15 476v180h661v-180h-230v-476h-201v476h-230zM446 0l-48 -170h-201l69 243z" />
    <glyph glyph-name="uni0163" unicode="&#x163;" horiz-adv-x="520" 
d="M328 336v-131q0 -35 40 -35h118v-170h-153q-92 0 -145.5 49t-53.5 133v154h-151v170h110q26 0 36 10.5t10 35.5v87h189v-133h188v-170h-188zM443 0l-48 -170h-201l69 243z" />
    <glyph glyph-name="Tcaron" unicode="&#x164;" horiz-adv-x="691" 
d="M15 476v180h661v-180h-230v-476h-201v476h-230zM120 906l226 -56l226 56v-155l-226 -56l-226 56v155z" />
    <glyph glyph-name="tcaron" unicode="&#x165;" horiz-adv-x="570" 
d="M328 336v-131q0 -35 40 -35h118v-170h-153q-92 0 -145.5 49t-53.5 133v154h-151v170h110q26 0 36 10.5t10 35.5v87h189v-133h188v-170h-188zM620 740l-67 -190h-174l22 190h219z" />
    <glyph glyph-name="Tbar" unicode="&#x166;" horiz-adv-x="711" 
d="M456 476v-111h185v-173h-185v-192h-201v192h-165v173h165v111h-230v180h661v-180h-230z" />
    <glyph glyph-name="tbar" unicode="&#x167;" horiz-adv-x="558" 
d="M355 374v-39h188v-132h-188v-6q0 -27 30 -27h128v-170h-153q-92 0 -145.5 49t-53.5 133v21h-151v132h151v39h-151v132h110q26 0 36 10.5t10 35.5v87h189v-133h188v-132h-188z" />
    <glyph glyph-name="Utilde" unicode="&#x168;" horiz-adv-x="793" 
d="M215.5 27.5q-77.5 40.5 -119.5 115.5t-42 174v339h201v-343q0 -139 141 -139q72 0 107 34.5t35 104.5v343h201v-339q0 -100 -42.5 -174.5t-120 -115t-180.5 -40.5t-180.5 40.5zM455 714.5q-24 3.5 -62 10.5q-35 7 -58.5 10.5t-48.5 3.5q-59 0 -115 -27v150q58 29 117 29
q32 0 66.5 -7t41.5 -8q35 -8 60.5 -12t51.5 -4q63 0 115 26v-150q-53 -25 -117 -25q-27 0 -51 3.5z" />
    <glyph glyph-name="utilde" unicode="&#x169;" horiz-adv-x="711" 
d="M650 506v-506h-180l-4 36q-63 -49 -152 -49q-127 -1 -193.5 68.5t-66.5 209.5v241h194v-241q0 -49 26 -75t76 -26q35 0 62.5 14.5t43.5 41.5v286h194zM411 564.5q-24 3.5 -62 10.5q-35 7 -58.5 10.5t-48.5 3.5q-59 0 -115 -27v150q58 29 117 29q32 0 66.5 -7t41.5 -8
q35 -8 60.5 -12t51.5 -4q63 0 115 26v-150q-53 -25 -117 -25q-27 0 -51 3.5z" />
    <glyph glyph-name="Umacron" unicode="&#x16a;" horiz-adv-x="793" 
d="M215.5 27.5q-77.5 40.5 -119.5 115.5t-42 174v339h201v-343q0 -139 141 -139q72 0 107 34.5t35 104.5v343h201v-339q0 -100 -42.5 -174.5t-120 -115t-180.5 -40.5t-180.5 40.5zM623 877v-152h-452v152h452z" />
    <glyph glyph-name="umacron" unicode="&#x16b;" horiz-adv-x="711" 
d="M650 506v-506h-180l-4 36q-63 -49 -152 -49q-127 -1 -193.5 68.5t-66.5 209.5v241h194v-241q0 -49 26 -75t76 -26q35 0 62.5 14.5t43.5 41.5v286h194zM579 727v-152h-452v152h452z" />
    <glyph glyph-name="Ubreve" unicode="&#x16c;" horiz-adv-x="793" 
d="M215.5 27.5q-77.5 40.5 -119.5 115.5t-42 174v339h201v-343q0 -139 141 -139q72 0 107 34.5t35 104.5v343h201v-339q0 -100 -42.5 -174.5t-120 -115t-180.5 -40.5t-180.5 40.5zM171 747v152q122 -45 228 -45q107 0 224 45v-152q-117 -45 -224 -45q-106 0 -228 45z" />
    <glyph glyph-name="ubreve" unicode="&#x16d;" horiz-adv-x="711" 
d="M650 506v-506h-180l-4 36q-63 -49 -152 -49q-127 -1 -193.5 68.5t-66.5 209.5v241h194v-241q0 -49 26 -75t76 -26q35 0 62.5 14.5t43.5 41.5v286h194zM127 597v152q122 -45 228 -45q107 0 224 45v-152q-117 -45 -224 -45q-106 0 -228 45z" />
    <glyph glyph-name="Uring" unicode="&#x16e;" horiz-adv-x="793" 
d="M215.5 27.5q-77.5 40.5 -119.5 115.5t-42 174v339h201v-343q0 -139 141 -139q72 0 107 34.5t35 104.5v343h201v-339q0 -100 -42.5 -174.5t-120 -115t-180.5 -40.5t-180.5 40.5zM263.5 730q-47.5 37 -47.5 106q0 67 48.5 105t132.5 38t132.5 -38t48.5 -105
q0 -69 -47.5 -106t-133.5 -37t-133.5 37zM434 805q13 11 13 31t-13 31t-37 11t-37 -11t-13 -31t13 -31t37 -11t37 11z" />
    <glyph glyph-name="uring" unicode="&#x16f;" horiz-adv-x="711" 
d="M650 506v-506h-180l-4 36q-63 -49 -152 -49q-127 -1 -193.5 68.5t-66.5 209.5v241h194v-241q0 -49 26 -75t76 -26q35 0 62.5 14.5t43.5 41.5v286h194zM219.5 580q-47.5 37 -47.5 106q0 67 48.5 105t132.5 38t132.5 -38t48.5 -105q0 -69 -47.5 -106t-133.5 -37t-133.5 37z
M390 655q13 11 13 31t-13 31t-37 11t-37 -11t-13 -31t13 -31t37 -11t37 11z" />
    <glyph glyph-name="Uhungarumlaut" unicode="&#x170;" horiz-adv-x="793" 
d="M215.5 27.5q-77.5 40.5 -119.5 115.5t-42 174v339h201v-343q0 -139 141 -139q72 0 107 34.5t35 104.5v343h201v-339q0 -100 -42.5 -174.5t-120 -115t-180.5 -40.5t-180.5 40.5zM410 906v-154l-280 -57v154zM730 906v-154l-280 -57v154z" />
    <glyph glyph-name="uhungarumlaut" unicode="&#x171;" horiz-adv-x="711" 
d="M650 506v-506h-180l-4 36q-63 -49 -152 -49q-127 -1 -193.5 68.5t-66.5 209.5v241h194v-241q0 -49 26 -75t76 -26q35 0 62.5 14.5t43.5 41.5v286h194zM366 756v-154l-280 -57v154zM686 756v-154l-280 -57v154z" />
    <glyph glyph-name="Uogonek" unicode="&#x172;" horiz-adv-x="793" 
d="M215.5 27.5q-77.5 40.5 -119.5 115.5t-42 174v339h201v-343q0 -139 141 -139q72 0 107 34.5t35 104.5v343h201v-339q0 -100 -42.5 -174.5t-120 -115t-180.5 -40.5t-180.5 40.5zM335 -149q-31 21 -31 58q0 28 18.5 53.5t60.5 60.5l143 118l106 -76l-96 -93
q-11 -11 -11 -20q0 -5 5 -8.5t12 -3.5h42v-110h-165q-53 0 -84 21z" />
    <glyph glyph-name="uogonek" unicode="&#x173;" horiz-adv-x="711" 
d="M650 506v-506h-180l-4 36q-63 -49 -152 -49q-127 -1 -193.5 68.5t-66.5 209.5v241h194v-241q0 -49 26 -75t76 -26q35 0 62.5 14.5t43.5 41.5v286h194zM401 -149q-31 21 -31 58q0 27 17 48.5t62 51.5l153 102l48 -111l-48 -35q-6 -4 -8.5 -7.5t-2.5 -7.5q0 -5 4 -7.5
t11 -2.5h44v-110h-165q-53 0 -84 21z" />
    <glyph glyph-name="Wcircumflex" unicode="&#x174;" horiz-adv-x="1175" 
d="M1173 656v-30l-211 -626h-245l-129 396l-128 -396h-245l-213 626v30h204l133 -423l140 423h218l141 -422l131 422h204zM588 906l226 -56v-155l-226 56l-226 -56v155z" />
    <glyph glyph-name="wcircumflex" unicode="&#x175;" horiz-adv-x="1067" 
d="M1067 506v-27l-182 -479h-255l-97 256l-96 -256h-254l-183 479v27h210l102 -310l119 310h203l123 -318l110 318h200zM534 756l226 -56v-155l-226 56l-226 -56v155z" />
    <glyph glyph-name="Ycircumflex" unicode="&#x176;" horiz-adv-x="726" 
d="M735 656v-30l-271 -372v-254h-201v254l-272 372v30h210l163 -231l162 231h209zM364 906l226 -56v-155l-226 56l-226 -56v155z" />
    <glyph glyph-name="ycircumflex" unicode="&#x177;" horiz-adv-x="697" 
d="M697 506v-27l-252 -534q-26 -56 -73.5 -85.5t-131.5 -29.5h-168v170h149q12 0 17 1l-238 478v27h207l147 -309l136 309h207zM349 756l226 -56v-155l-226 56l-226 -56v155z" />
    <glyph glyph-name="Ydieresis" unicode="&#x178;" horiz-adv-x="726" 
d="M735 656v-30l-271 -372v-254h-201v254l-272 372v30h210l163 -231l162 231h209zM157.5 728.5q-29.5 27.5 -29.5 71.5t29.5 71t76.5 27q46 0 75 -27t29 -71t-29 -71.5t-75 -27.5q-47 0 -76.5 27.5zM419 728.5q-29 27.5 -29 71.5t29 71t76 27t75.5 -27t28.5 -71t-29 -71.5
t-75 -27.5q-47 0 -76 27.5z" />
    <glyph glyph-name="Zacute" unicode="&#x179;" horiz-adv-x="696" 
d="M659 477l-348 -298h348v-179h-622v179l348 298h-348v179h622v-179zM574 907v-152l-452 -60v152z" />
    <glyph glyph-name="zacute" unicode="&#x17a;" horiz-adv-x="642" 
d="M585 342l-260 -178h260v-164h-529v164l260 178h-260v164h529v-164zM552 757v-152l-452 -60v152z" />
    <glyph glyph-name="Zdotaccent" unicode="&#x17b;" horiz-adv-x="696" 
d="M659 477l-348 -298h348v-179h-622v179l348 298h-348v179h622v-179zM267.5 724.5q-31.5 29.5 -31.5 76.5t31 76t81 29t81 -29t31 -76t-31 -76.5t-81 -29.5q-49 0 -80.5 29.5z" />
    <glyph glyph-name="zdotaccent" unicode="&#x17c;" horiz-adv-x="642" 
d="M585 342l-260 -178h260v-164h-529v164l260 178h-260v164h529v-164zM245.5 574.5q-31.5 29.5 -31.5 76.5t31 76t81 29t81 -29t31 -76t-31 -76.5t-81 -29.5q-49 0 -80.5 29.5z" />
    <glyph glyph-name="Zcaron" unicode="&#x17d;" horiz-adv-x="696" 
d="M659 477l-348 -298h348v-179h-622v179l348 298h-348v179h622v-179zM122 906l226 -56l226 56v-155l-226 -56l-226 56v155z" />
    <glyph glyph-name="zcaron" unicode="&#x17e;" horiz-adv-x="642" 
d="M585 342l-260 -178h260v-164h-529v164l260 178h-260v164h529v-164zM100 756l226 -56l226 56v-155l-226 -56l-226 56v155z" />
    <glyph glyph-name="uni018F" unicode="&#x18f;" horiz-adv-x="877" 
d="M649.5 629q94.5 -41 145 -118t50.5 -181v-5q0 -102 -49.5 -178.5t-141.5 -118t-214 -41.5q-129 0 -220.5 43.5t-139.5 126t-48 198.5v37h599q-18 54 -70 82t-134 28q-73 0 -120 -17t-58 -48h-213q14 71 66.5 124t136 81t188.5 28q128 0 222.5 -41zM557.5 177.5
q47.5 23.5 67.5 67.5h-380q16 -48 61.5 -69.5t131.5 -21.5q72 0 119.5 23.5z" />
    <glyph glyph-name="florin" unicode="&#x192;" horiz-adv-x="816" 
d="M768 236h-283v-219q0 -53 -24.5 -94t-69 -63.5t-102.5 -22.5h-196v170h169q16 0 22.5 7.5t6.5 24.5v197h-238v170h238v110q0 53 24.5 94t69 63.5t102.5 22.5h241v-170h-214q-16 0 -22.5 -7.5t-6.5 -24.5v-88h283v-170z" />
    <glyph glyph-name="uni01CD" unicode="&#x1cd;" horiz-adv-x="770" 
d="M768 30v-30h-196l-43 108h-288l-43 -108h-196v30l272 626h222zM462 274l-77 191l-77 -191h154zM159 906l226 -56l226 56v-155l-226 -56l-226 56v155z" />
    <glyph glyph-name="uni01CE" unicode="&#x1ce;" horiz-adv-x="716" 
d="M706 170v-170h-109q-85 0 -127 50q-39 -30 -94 -46.5t-119 -16.5q-100 0 -157 41t-57 114q0 122 166 142l227 26q-12 50 -95 50q-96 0 -96 -40v-3h-198v3q0 61 36 105.5t103 69t157 24.5q137 0 213.5 -61t76.5 -170v-94q0 -13 6.5 -18.5t22.5 -5.5h44zM291 123
q41 0 82 13.5t65 33.5v33l-169 -20q-33 -4 -33 -29q0 -31 55 -31zM113 756l226 -56l226 56v-155l-226 -56l-226 56v155z" />
    <glyph glyph-name="uni01D2" unicode="&#x1d2;" horiz-adv-x="685" 
d="M175 18.5q-71 31.5 -108.5 90.5t-37.5 138v9q0 81 37.5 140t108.5 91t169 32q148 0 230 -70t82 -193v-9q0 -121 -82 -190.5t-230 -69.5q-98 0 -169 31.5zM427 184.5q29 21.5 29 64.5v4q0 45 -29 67.5t-84 22.5q-56 0 -85 -22.5t-29 -67.5v-4q0 -43 29.5 -64.5t84.5 -21.5
t84 21.5zM117 756l226 -56l226 56v-155l-226 -56l-226 56v155z" />
    <glyph glyph-name="Gcaron" unicode="&#x1e6;" horiz-adv-x="879" 
d="M847 373v-373h-178l-4 39q-44 -28 -94 -40t-120 -12q-127 0 -222 41.5t-146 117.5t-51 179v5q0 102 51 178.5t144 118.5t217 42t214.5 -28.5t139 -82.5t48.5 -128v-3h-205v3q0 16 -26 29.5t-69 22t-92 8.5q-217 0 -217 -158v-10q0 -79 53 -117t164 -38q134 0 203 39v19
h-311v148h501zM222 906l226 -56l226 56v-155l-226 -56l-226 56v155z" />
    <glyph glyph-name="gcaron" unicode="&#x1e7;" horiz-adv-x="709" 
d="M648 506v-436q0 -128 -77.5 -191t-235.5 -62q-143 1 -223 53t-80 146v5h198v-5q0 -16 31 -27.5t75 -11.5q118 0 118 83v12q-61 -35 -149 -35q-134 0 -205.5 60t-71.5 172v6q0 115 73.5 179.5t203.5 64.5q97 0 159 -44l4 31h180zM407.5 202.5q29.5 8.5 46.5 24.5v90
q-18 16 -47.5 25.5t-64.5 9.5q-59 0 -86.5 -18.5t-27.5 -58.5v-6q0 -39 27.5 -57t86.5 -18q36 0 65.5 8.5zM121 756l226 -56l226 56v-155l-226 -56l-226 56v155z" />
    <glyph glyph-name="uni01F4" unicode="&#x1f4;" horiz-adv-x="879" 
d="M847 373v-373h-178l-4 39q-44 -28 -94 -40t-120 -12q-127 0 -222 41.5t-146 117.5t-51 179v5q0 102 51 178.5t144 118.5t217 42t214.5 -28.5t139 -82.5t48.5 -128v-3h-205v3q0 16 -26 29.5t-69 22t-92 8.5q-217 0 -217 -158v-10q0 -79 53 -117t164 -38q134 0 203 39v19
h-311v148h501zM674 907v-152l-452 -60v152z" />
    <glyph glyph-name="uni01F5" unicode="&#x1f5;" horiz-adv-x="709" 
d="M648 506v-436q0 -128 -77.5 -191t-235.5 -62q-143 1 -223 53t-80 146v5h198v-5q0 -16 31 -27.5t75 -11.5q118 0 118 83v12q-61 -35 -149 -35q-134 0 -205.5 60t-71.5 172v6q0 115 73.5 179.5t203.5 64.5q97 0 159 -44l4 31h180zM407.5 202.5q29.5 8.5 46.5 24.5v90
q-18 16 -47.5 25.5t-64.5 9.5q-59 0 -86.5 -18.5t-27.5 -58.5v-6q0 -39 27.5 -57t86.5 -18q36 0 65.5 8.5zM573 757v-152l-452 -60v152z" />
    <glyph glyph-name="AEacute" unicode="&#x1fc;" horiz-adv-x="1072" 
d="M618 484l15 -71h368v-169h-331l15 -72h336v-172h-509l-22 108h-248l-44 -108h-196v30l272 626h747v-172h-403zM415 484h-22l-85 -210h149zM762 907v-152l-452 -60v152z" />
    <glyph glyph-name="aeacute" unicode="&#x1fd;" horiz-adv-x="1098" 
d="M1069 205h-427q14 -69 127 -69q40 0 66.5 8.5t33.5 23.5h199q-14 -86 -91 -133.5t-204 -47.5q-163 0 -248 73q-41 -35 -102 -54t-138 -19q-114 0 -178 41.5t-64 115.5q0 60 42 95.5t124 44.5l236 26q-15 50 -111 50q-89 0 -89 -40v-3h-198v3q0 61 36 106t103.5 69
t159.5 24q144 0 209 -65q74 65 214 65q143 0 221.5 -66.5t78.5 -187.5v-60zM686 360.5q-29 -14.5 -40 -42.5h224q-20 57 -110 57q-45 0 -74 -14.5zM385 138.5q48 15.5 70 38.5q-2 9 -4 25l-182 -24q-33 -4 -33 -30q0 -13 11.5 -19t38.5 -6q51 0 99 15.5zM780 757v-152
l-452 -60v152z" />
    <glyph glyph-name="Oslashacute" unicode="&#x1fe;" horiz-adv-x="877" 
d="M810 482.5q35 -67.5 35 -152.5v-5q0 -102 -49.5 -178.5t-141.5 -118t-214 -41.5q-52 0 -94 7l-39 -65h-203v30l63 102q-65 45 -100 112.5t-35 151.5v5q0 102 50.5 178.5t143 118.5t214.5 42q50 0 91 -7l39 65h203v-30l-62 -102q64 -45 99 -112.5zM237 321q0 -68 31 -108
l175 289h-4q-103 0 -152.5 -40.5t-49.5 -126.5v-14zM641 335q0 70 -32 109l-175 -290h5q103 0 152.5 40.5t49.5 126.5v14zM665 907v-152l-452 -60v152z" />
    <glyph glyph-name="oslashacute" unicode="&#x1ff;" horiz-adv-x="685" 
d="M632.5 372q23.5 -51 23.5 -116v-9q0 -122 -82.5 -191t-229.5 -69q-35 0 -62 4l-30 -50h-180v24l51 84q-45 34 -69.5 84.5t-24.5 113.5v9q0 81 38 140.5t109 91t168 31.5q33 0 61 -3l29 47h180v-23l-50 -83q45 -34 68.5 -85zM200 239q0 -38 15 -62l120 200
q-70 -2 -102.5 -29t-32.5 -85v-24zM486 263q0 39 -15 65l-121 -199q70 1 103 27.5t33 82.5v24zM569 757v-152l-452 -60v152z" />
    <glyph glyph-name="uni0218" unicode="&#x218;" horiz-adv-x="771" 
d="M133.5 48q-86.5 61 -86.5 177v10h195v-10q0 -34 39 -52.5t110 -18.5q129 0 129 43v6q0 27 -65 37l-185 29q-108 17 -161 62t-53 120v10q0 99 84 153.5t236 54.5q161 0 246.5 -58.5t85.5 -167.5v-8h-193v8q0 30 -34 44.5t-105 14.5q-120 0 -120 -36v-6q0 -11 14.5 -18.5
t48.5 -12.5l186 -29q111 -17 165 -63.5t54 -124.5v-10q0 -102 -89.5 -158.5t-250.5 -56.5q-164 0 -250.5 61zM479 -58l-68 -192h-191l58 192h201z" />
    <glyph glyph-name="uni0219" unicode="&#x219;" horiz-adv-x="688" 
d="M120.5 34.5q-80.5 47.5 -80.5 135.5v3h177v-3q0 -23 31 -33.5t101 -10.5q53 0 82 5.5t29 16.5v4q0 9 -9.5 13.5t-34.5 6.5l-142 14q-115 11 -169 48t-54 104v10q0 82 78 126.5t220 44.5q146 0 220 -46t74 -137v-3h-176v3q0 24 -28 34t-96 10q-111 0 -111 -21v-4
q0 -15 43 -19l145 -15q117 -12 171.5 -49t54.5 -104v-10q0 -81 -78 -126t-219 -45q-148 0 -228.5 47.5zM454 -58l-68 -192h-191l58 192h201z" />
    <glyph glyph-name="uni021A" unicode="&#x21a;" horiz-adv-x="691" 
d="M15 476v180h661v-180h-230v-476h-201v476h-230zM442 -58l-68 -192h-191l58 192h201z" />
    <glyph glyph-name="uni021B" unicode="&#x21b;" horiz-adv-x="520" 
d="M328 336v-131q0 -35 40 -35h118v-170h-153q-92 0 -145.5 49t-53.5 133v154h-151v170h110q26 0 36 10.5t10 35.5v87h189v-133h188v-170h-188zM439 -58l-68 -192h-191l58 192h201z" />
    <glyph glyph-name="uni0232" unicode="&#x232;" horiz-adv-x="726" 
d="M735 656v-30l-271 -372v-254h-201v254l-272 372v30h210l163 -231l162 231h209zM590 877v-152h-452v152h452z" />
    <glyph glyph-name="uni0233" unicode="&#x233;" horiz-adv-x="697" 
d="M697 506v-27l-252 -534q-26 -56 -73.5 -85.5t-131.5 -29.5h-168v170h149q12 0 17 1l-238 478v27h207l147 -309l136 309h207zM575 727v-152h-452v152h452z" />
    <glyph glyph-name="uni0237" unicode="&#x237;" horiz-adv-x="286" 
d="M5 0q41 0 41 33v473h194v-494q0 -52 -25.5 -93.5t-71 -65t-102.5 -23.5h-95v170h59z" />
    <glyph glyph-name="uni0259" unicode="&#x259;" horiz-adv-x="671" 
d="M560 451q82 -68 82 -188v-17q0 -80 -37 -138.5t-106.5 -89.5t-164.5 -31q-149 0 -227 67.5t-78 196.5v50h417q-6 34 -34 51.5t-77 17.5q-89 0 -106 -32h-199q16 89 93 135t211 46q144 0 226 -68zM405 145.5q27 14.5 37 42.5h-214q10 -28 37 -42.5t70 -14.5t70 14.5z" />
    <glyph glyph-name="uni02BB" unicode="&#x2bb;" horiz-adv-x="600" 
d="M735 746l-49 -192h-201l58 192h192z" />
    <glyph glyph-name="uni02BC" unicode="&#x2bc;" horiz-adv-x="334" 
d="M301 696v-27l-106 -286h-174l69 313h211z" />
    <glyph glyph-name="circumflex" unicode="&#x2c6;" horiz-adv-x="600" 
d="M300 756l226 -56v-155l-226 56l-226 -56v155z" />
    <glyph glyph-name="caron" unicode="&#x2c7;" horiz-adv-x="600" 
d="M74 756l226 -56l226 56v-155l-226 -56l-226 56v155z" />
    <glyph glyph-name="uni02C9" unicode="&#x2c9;" horiz-adv-x="600" 
d="M826 727v-152h-452v152h452z" />
    <glyph glyph-name="breve" unicode="&#x2d8;" horiz-adv-x="600" 
d="M74 597v152q122 -45 228 -45q107 0 224 45v-152q-117 -45 -224 -45q-106 0 -228 45z" />
    <glyph glyph-name="dotaccent" unicode="&#x2d9;" horiz-adv-x="600" 
d="M219.5 574.5q-31.5 29.5 -31.5 76.5t31 76t81 29t81 -29t31 -76t-31 -76.5t-81 -29.5q-49 0 -80.5 29.5z" />
    <glyph glyph-name="ring" unicode="&#x2da;" horiz-adv-x="600" 
d="M166.5 580q-47.5 37 -47.5 106q0 67 48.5 105t132.5 38t132.5 -38t48.5 -105q0 -69 -47.5 -106t-133.5 -37t-133.5 37zM337 655q13 11 13 31t-13 31t-37 11t-37 -11t-13 -31t13 -31t37 -11t37 11z" />
    <glyph glyph-name="ogonek" unicode="&#x2db;" horiz-adv-x="600" 
d="M191 -149q-31 21 -31 58q0 27 17 48.5t62 51.5l153 102l48 -111l-48 -35q-6 -4 -8.5 -7.5t-2.5 -7.5q0 -5 4 -7.5t11 -2.5h44v-110h-165q-53 0 -84 21z" />
    <glyph glyph-name="tilde" unicode="&#x2dc;" horiz-adv-x="600" 
d="M358 564.5q-24 3.5 -62 10.5q-35 7 -58.5 10.5t-48.5 3.5q-59 0 -115 -27v150q58 29 117 29q32 0 66.5 -7t41.5 -8q35 -8 60.5 -12t51.5 -4q63 0 115 26v-150q-53 -25 -117 -25q-27 0 -51 3.5z" />
    <glyph glyph-name="hungarumlaut" unicode="&#x2dd;" horiz-adv-x="600" 
d="M280 756v-154l-280 -57v154zM600 756v-154l-280 -57v154z" />
    <glyph glyph-name="gravecomb" unicode="&#x300;" horiz-adv-x="0" 
d="M-226 758l452 -60v-152l-452 60v152z" />
    <glyph glyph-name="acutecomb" unicode="&#x301;" horiz-adv-x="0" 
d="M226 757v-152l-452 -60v152z" />
    <glyph glyph-name="uni0302" unicode="&#x302;" horiz-adv-x="0" 
d="M0 756l226 -56v-155l-226 56l-226 -56v155z" />
    <glyph glyph-name="tildecomb" unicode="&#x303;" horiz-adv-x="0" 
d="M58 564.5q-24 3.5 -62 10.5q-35 7 -58.5 10.5t-48.5 3.5q-59 0 -115 -27v150q58 29 117 29q32 0 66.5 -7t41.5 -8q35 -8 60.5 -12t51.5 -4q63 0 115 26v-150q-53 -25 -117 -25q-27 0 -51 3.5z" />
    <glyph glyph-name="uni0304" unicode="&#x304;" horiz-adv-x="0" 
d="M226 727v-152h-452v152h452z" />
    <glyph glyph-name="uni0306" unicode="&#x306;" horiz-adv-x="0" 
d="M-226 597v152q122 -45 228 -45q107 0 224 45v-152q-117 -45 -224 -45q-106 0 -228 45z" />
    <glyph glyph-name="uni0307" unicode="&#x307;" horiz-adv-x="0" 
d="M-80.5 574.5q-31.5 29.5 -31.5 76.5t31 76t81 29t81 -29t31 -76t-31 -76.5t-81 -29.5q-49 0 -80.5 29.5z" />
    <glyph glyph-name="uni0308" unicode="&#x308;" horiz-adv-x="0" 
d="M-206.5 578.5q-29.5 27.5 -29.5 71.5t29.5 71t76.5 27q46 0 75 -27t29 -71t-29 -71.5t-75 -27.5q-47 0 -76.5 27.5zM55 578.5q-29 27.5 -29 71.5t29 71t76 27t75.5 -27t28.5 -71t-29 -71.5t-75 -27.5q-47 0 -76 27.5z" />
    <glyph glyph-name="uni030A" unicode="&#x30a;" horiz-adv-x="0" 
d="M-133.5 580q-47.5 37 -47.5 106q0 67 48.5 105t132.5 38t132.5 -38t48.5 -105q0 -69 -47.5 -106t-133.5 -37t-133.5 37zM37 655q13 11 13 31t-13 31t-37 11t-37 -11t-13 -31t13 -31t37 -11t37 11z" />
    <glyph glyph-name="uni030B" unicode="&#x30b;" horiz-adv-x="0" 
d="M13 756v-154l-280 -57v154zM333 756v-154l-280 -57v154z" />
    <glyph glyph-name="uni030C" unicode="&#x30c;" horiz-adv-x="0" 
d="M-226 756l226 -56l226 56v-155l-226 -56l-226 56v155z" />
    <glyph glyph-name="uni0312" unicode="&#x312;" horiz-adv-x="0" 
d="M135 746l-49 -192h-201l58 192h192z" />
    <glyph glyph-name="dotbelowcomb" unicode="&#x323;" horiz-adv-x="0" 
d="M-81 -221q-31 29 -31 76t31.5 76.5t80.5 29.5q50 0 81 -29.5t31 -76.5t-31 -76t-81 -29t-81 29z" />
    <glyph glyph-name="uni0326" unicode="&#x326;" horiz-adv-x="0" 
d="M97 -58l-68 -192h-191l58 192h201z" />
    <glyph glyph-name="uni0327" unicode="&#x327;" horiz-adv-x="0" 
d="M100 0l-48 -170h-201l69 243z" />
    <glyph glyph-name="uni0328" unicode="&#x328;" horiz-adv-x="0" 
d="M-249 -149q-31 21 -31 58q0 27 17 48.5t62 51.5l153 102l48 -111l-48 -35q-6 -4 -8.5 -7.5t-2.5 -7.5q0 -5 4 -7.5t11 -2.5h44v-110h-165q-53 0 -84 21z" />
    <glyph glyph-name="uni0374" unicode="&#x374;" horiz-adv-x="334" 
d="M301 656v-27l-106 -302h-174l69 329h211z" />
    <glyph glyph-name="tonos" unicode="&#x384;" horiz-adv-x="600" 
d="M396 816l-20 -262h-172l20 262h172z" />
    <glyph glyph-name="dieresistonos" unicode="&#x385;" horiz-adv-x="600" 
d="M400 816l-20 -262h-172l20 262h172zM21 578.5q-28 27.5 -28 71.5t28 71t73 27q44 0 71.5 -27t27.5 -71t-27.5 -71.5t-71.5 -27.5q-45 0 -73 27.5zM435.5 578.5q-27.5 27.5 -27.5 71.5t27.5 71t72.5 27q44 0 71.5 -27t27.5 -71t-27.5 -71.5t-71.5 -27.5q-45 0 -72.5 27.5z
" />
    <glyph glyph-name="Alphatonos" unicode="&#x386;" horiz-adv-x="770" 
d="M768 30v-30h-196l-43 108h-288l-43 -108h-196v30l272 626h222zM462 274l-77 191l-77 -191h154zM81 656l-20 -262h-172l20 262h172z" />
    <glyph glyph-name="anoteleia" unicode="&#x387;" horiz-adv-x="334" 
d="M86 319q-31 30 -31 79q0 48 31 78t81 30t81 -30t31 -78q0 -49 -31 -79t-81 -30t-81 30z" />
    <glyph glyph-name="Epsilontonos" unicode="&#x388;" horiz-adv-x="723" 
d="M672 656v-172h-407v-71h387v-169h-387v-72h407v-172h-608v656h608zM-64 656l-20 -262h-172l20 262h172z" />
    <glyph glyph-name="Etatonos" unicode="&#x389;" horiz-adv-x="819" 
d="M265 656v-238h289v238h201v-656h-201v238h-289v-238h-201v656h201zM-64 656l-20 -262h-172l20 262h172z" />
    <glyph glyph-name="Iotatonos" unicode="&#x38a;" horiz-adv-x="299" 
d="M250 656v-656h-201v656h201zM-79 656l-20 -262h-172l20 262h172z" />
    <glyph glyph-name="Omicrontonos" unicode="&#x38c;" horiz-adv-x="877" 
d="M225 28.5q-92 41.5 -142.5 118.5t-50.5 178v5q0 101 50.5 178t142.5 119t213 42q123 0 215 -42t142 -118.5t50 -178.5v-5q0 -102 -50 -178.5t-142 -118t-215 -41.5q-121 0 -213 41.5zM591 210.5q49 36.5 49 111.5v10q0 150 -202 150q-99 0 -150 -38t-51 -112v-10
q0 -75 50 -111.5t151 -36.5q104 0 153 36.5zM-22 656l-20 -262h-172l20 262h172z" />
    <glyph glyph-name="Upsilontonos" unicode="&#x38e;" horiz-adv-x="726" 
d="M735 656v-30l-271 -372v-254h-201v254l-272 372v30h210l163 -231l162 231h209zM-64 656l-20 -262h-172l20 262h172z" />
    <glyph glyph-name="Omegatonos" unicode="&#x38f;" horiz-adv-x="880" 
d="M803 253q-42 -53 -129 -78v-25h171v-150h-362v278q81 4 119 26t38 65v10q0 47 -49 70t-151 23t-151 -23t-49 -70v-10q0 -43 38 -65t119 -26v-278h-362v150h171v25q-87 25 -129 78t-42 134v7q0 85 48.5 147t139.5 95t217 33t217 -33t139.5 -95t48.5 -147v-7
q0 -81 -42 -134zM-12 656l-20 -262h-172l20 262h172z" />
    <glyph glyph-name="iotadieresistonos" unicode="&#x390;" horiz-adv-x="329" 
d="M96.5 43.5q-50.5 43.5 -50.5 117.5v345h194v-309q0 -14 7.5 -20.5t23.5 -6.5h53v-170h-89q-88 0 -138.5 43.5zM244 816l-20 -262h-172l20 262h172zM-135 578.5q-28 27.5 -28 71.5t28 71t73 27q44 0 71.5 -27t27.5 -71t-27.5 -71.5t-71.5 -27.5q-45 0 -73 27.5z
M279.5 578.5q-27.5 27.5 -27.5 71.5t27.5 71t72.5 27q44 0 71.5 -27t27.5 -71t-27.5 -71.5t-71.5 -27.5q-45 0 -72.5 27.5z" />
    <glyph glyph-name="Alpha" unicode="&#x391;" horiz-adv-x="770" 
d="M768 30v-30h-196l-43 108h-288l-43 -108h-196v30l272 626h222zM462 274l-77 191l-77 -191h154z" />
    <glyph glyph-name="Beta" unicode="&#x392;" horiz-adv-x="785" 
d="M722 273.5q22 -36.5 22 -83.5v-10q0 -85 -67 -132.5t-188 -47.5h-425v656h406q122 0 188 -47t66 -133v-10q0 -86 -67 -133q43 -23 65 -59.5zM265 486v-80h205q54 0 54 35v10q0 35 -54 35h-205zM539 217q0 37 -54 37h-220v-84h220q54 0 54 37v10z" />
    <glyph glyph-name="Gamma" unicode="&#x393;" horiz-adv-x="687" 
d="M672 656v-180h-407v-476h-201v656h608z" />
    <glyph glyph-name="uni0394" unicode="&#x394;" horiz-adv-x="773" 
d="M736 179v-179h-699v179l227 477h245zM243 180h287l-143 310z" />
    <glyph glyph-name="Epsilon" unicode="&#x395;" horiz-adv-x="723" 
d="M672 656v-172h-407v-71h387v-169h-387v-72h407v-172h-608v656h608z" />
    <glyph glyph-name="Zeta" unicode="&#x396;" horiz-adv-x="696" 
d="M659 477l-348 -298h348v-179h-622v179l348 298h-348v179h622v-179z" />
    <glyph glyph-name="Eta" unicode="&#x397;" horiz-adv-x="819" 
d="M265 656v-238h289v238h201v-656h-201v238h-289v-238h-201v656h201z" />
    <glyph glyph-name="Theta" unicode="&#x398;" horiz-adv-x="877" 
d="M654 627.5q92 -41.5 141.5 -118.5t49.5 -179v-5q0 -102 -49.5 -178.5t-141.5 -118t-214 -41.5t-214.5 41.5t-143 118t-50.5 178.5v5q0 102 50.5 178.5t143 118.5t214.5 42t214 -41.5zM247 412h383q-34 90 -191 90q-156 0 -192 -90zM630 245h-383q34 -91 192 -91
q157 0 191 91z" />
    <glyph glyph-name="Iota" unicode="&#x399;" horiz-adv-x="299" 
d="M250 656v-656h-201v656h201z" />
    <glyph glyph-name="Kappa" unicode="&#x39a;" horiz-adv-x="813" 
d="M783 626l-273 -257l254 -339v-30h-224l-186 253l-89 -88v-165h-201v656h201v-269l283 269h235v-30z" />
    <glyph glyph-name="Lambda" unicode="&#x39b;" horiz-adv-x="770" 
d="M768 30v-30h-206l-176 448l-176 -448h-208v30l267 626h232z" />
    <glyph glyph-name="Mu" unicode="&#x39c;" horiz-adv-x="1029" 
d="M965 0h-198v365l-154 -365h-197l-153 363v-363h-199v656h269l182 -431l180 431h270v-656z" />
    <glyph glyph-name="Nu" unicode="&#x39d;" horiz-adv-x="819" 
d="M755 656v-656h-186l-317 371v-371h-188v656h187l316 -370v370h188z" />
    <glyph glyph-name="Xi" unicode="&#x39e;" horiz-adv-x="790" 
d="M491 484v-71h228v-169h-228v-72h248v-172h-688v172h249v72h-229v169h229v71h-249v172h688v-172h-248z" />
    <glyph glyph-name="Omicron" unicode="&#x39f;" horiz-adv-x="877" 
d="M225 28.5q-92 41.5 -142.5 118.5t-50.5 178v5q0 101 50.5 178t142.5 119t213 42q123 0 215 -42t142 -118.5t50 -178.5v-5q0 -102 -50 -178.5t-142 -118t-215 -41.5q-121 0 -213 41.5zM591 210.5q49 36.5 49 111.5v10q0 150 -202 150q-99 0 -150 -38t-51 -112v-10
q0 -75 50 -111.5t151 -36.5q104 0 153 36.5z" />
    <glyph glyph-name="Pi" unicode="&#x3a0;" horiz-adv-x="799" 
d="M735 656v-656h-201v476h-269v-476h-201v656h671z" />
    <glyph glyph-name="Rho" unicode="&#x3a1;" horiz-adv-x="787" 
d="M491 656q124 0 194 -59t70 -163v-10q0 -104 -70 -163.5t-194 -59.5h-226v-201h-201v656h427zM550 424v10q0 48 -64 48h-221v-107h221q64 0 64 49z" />
    <glyph glyph-name="Sigma" unicode="&#x3a3;" horiz-adv-x="703" 
d="M652 476h-284l167 -91v-113l-168 -92h285v-180h-615v179l269 149l-269 149v179h615v-180z" />
    <glyph glyph-name="Tau" unicode="&#x3a4;" horiz-adv-x="691" 
d="M15 476v180h661v-180h-230v-476h-201v476h-230z" />
    <glyph glyph-name="Upsilon" unicode="&#x3a5;" horiz-adv-x="726" 
d="M735 656v-30l-271 -372v-254h-201v254l-272 372v30h210l163 -231l162 231h209z" />
    <glyph glyph-name="Phi" unicode="&#x3a6;" horiz-adv-x="1077" 
d="M885.5 582.5q76.5 -34.5 118 -98.5t41.5 -149v-5q0 -88 -41.5 -154t-117.5 -101.5t-179 -35.5h-68v-79h-201v79h-68q-103 0 -179 35.5t-117.5 101.5t-41.5 154v5q0 85 41.5 149t118 98.5t178.5 34.5h68v79h201v-79h68q102 0 178.5 -34.5zM270 245.5q33 -26.5 100 -26.5
h73v218h-73q-133 0 -133 -100v-10q0 -55 33 -81.5zM840 337q0 100 -133 100h-73v-218h73q67 0 100 26.5t33 81.5v10z" />
    <glyph glyph-name="Chi" unicode="&#x3a7;" horiz-adv-x="819" 
d="M789 626l-244 -298l244 -298v-30h-232l-148 186l-147 -186h-232v30l244 298l-244 298v30h232l147 -186l148 186h232v-30z" />
    <glyph glyph-name="Psi" unicode="&#x3a8;" horiz-adv-x="1057" 
d="M1012 656v-259q0 -117 -84 -183t-233 -66h-66v-148h-201v148h-65q-149 0 -233.5 66t-84.5 183v259h201v-236q0 -49 24.5 -70.5t81.5 -21.5h76v328h201v-328h77q56 0 80.5 21.5t24.5 70.5v236h201z" />
    <glyph glyph-name="uni03A9" unicode="&#x3a9;" horiz-adv-x="880" 
d="M803 253q-42 -53 -129 -78v-25h171v-150h-362v278q81 4 119 26t38 65v10q0 47 -49 70t-151 23t-151 -23t-49 -70v-10q0 -43 38 -65t119 -26v-278h-362v150h171v25q-87 25 -129 78t-42 134v7q0 85 48.5 147t139.5 95t217 33t217 -33t139.5 -95t48.5 -147v-7
q0 -81 -42 -134z" />
    <glyph glyph-name="Iotadieresis" unicode="&#x3aa;" horiz-adv-x="299" 
d="M250 656v-656h-201v656h201zM-56.5 728.5q-29.5 27.5 -29.5 71.5t29.5 71t76.5 27q46 0 75 -27t29 -71t-29 -71.5t-75 -27.5q-47 0 -76.5 27.5zM205 728.5q-29 27.5 -29 71.5t29 71t76 27t75.5 -27t28.5 -71t-29 -71.5t-75 -27.5q-47 0 -76 27.5z" />
    <glyph glyph-name="Upsilondieresis" unicode="&#x3ab;" horiz-adv-x="726" 
d="M735 656v-30l-271 -372v-254h-201v254l-272 372v30h210l163 -231l162 231h209zM157.5 728.5q-29.5 27.5 -29.5 71.5t29.5 71t76.5 27q46 0 75 -27t29 -71t-29 -71.5t-75 -27.5q-47 0 -76.5 27.5zM419 728.5q-29 27.5 -29 71.5t29 71t76 27t75.5 -27t28.5 -71t-29 -71.5
t-75 -27.5q-47 0 -76 27.5z" />
    <glyph glyph-name="alphatonos" unicode="&#x3ac;" horiz-adv-x="737" 
d="M727 170v-170h-109q-87 0 -128 52q-70 -65 -179 -65q-85 0 -148.5 32.5t-98.5 92.5t-35 139v6q0 79 35 138t98.5 91.5t148.5 32.5q92 0 159 -50l4 37h180v-312q0 -13 6.5 -18.5t22.5 -5.5h44zM260 187q31 -23 88 -23q35 0 64.5 9.5t47.5 25.5v110q-17 16 -46.5 24.5
t-65.5 8.5q-57 0 -88 -22t-31 -63v-6q0 -41 31 -64zM471 816l-20 -262h-172l20 262h172z" />
    <glyph glyph-name="epsilontonos" unicode="&#x3ad;" horiz-adv-x="684" 
d="M461 302v3q0 29 -10 44t-33 21.5t-66 6.5q-102 0 -102 -31v-8q0 -13 11.5 -18.5t37.5 -5.5h124v-120h-134q-26 0 -37.5 -5.5t-11.5 -18.5v-8q0 -16 27.5 -25t74.5 -9q56 0 82 10.5t31.5 24.5t5.5 38v3h189v-3q0 -112 -74.5 -163t-237.5 -51q-151 0 -227 38t-76 113v10
q0 74 65 109q-49 34 -49 96v10q0 76 75 116t217 40q152 0 229.5 -54t77.5 -160v-3h-189zM446 816l-20 -262h-172l20 262h172z" />
    <glyph glyph-name="etatonos" unicode="&#x3ae;" horiz-adv-x="733" 
d="M679 241v-411h-194v411q0 49 -26 75t-74 26q-36 0 -64 -15t-44 -41l-1 -286h-193v308q0 13 -6.5 18.5t-22.5 5.5h-44v174h109q80 0 121 -44q69 57 183 57q256 0 256 -278zM483 816l-20 -262h-172l20 262h172z" />
    <glyph glyph-name="iotatonos" unicode="&#x3af;" horiz-adv-x="329" 
d="M96.5 43.5q-50.5 43.5 -50.5 117.5v345h194v-309q0 -14 7.5 -20.5t23.5 -6.5h53v-170h-89q-88 0 -138.5 43.5zM247 816l-20 -262h-172l20 262h172z" />
    <glyph glyph-name="upsilondieresistonos" unicode="&#x3b0;" horiz-adv-x="704" 
d="M134 58q-80 71 -80 196v252h194v-254q0 -93 107 -93q50 0 75.5 23.5t25.5 69.5v254h194v-252q0 -127 -77.5 -197t-217.5 -70q-141 0 -221 71zM456 816l-20 -262h-172l20 262h172zM77 578.5q-28 27.5 -28 71.5t28 71t73 27q44 0 71.5 -27t27.5 -71t-27.5 -71.5
t-71.5 -27.5q-45 0 -73 27.5zM491.5 578.5q-27.5 27.5 -27.5 71.5t27.5 71t72.5 27q44 0 71.5 -27t27.5 -71t-27.5 -71.5t-71.5 -27.5q-45 0 -72.5 27.5z" />
    <glyph glyph-name="alpha" unicode="&#x3b1;" horiz-adv-x="737" 
d="M727 170v-170h-109q-87 0 -128 52q-70 -65 -179 -65q-85 0 -148.5 32.5t-98.5 92.5t-35 139v6q0 79 35 138t98.5 91.5t148.5 32.5q92 0 159 -50l4 37h180v-312q0 -13 6.5 -18.5t22.5 -5.5h44zM260 187q31 -23 88 -23q35 0 64.5 9.5t47.5 25.5v110q-17 16 -46.5 24.5
t-65.5 8.5q-57 0 -88 -22t-31 -63v-6q0 -41 31 -64z" />
    <glyph glyph-name="beta" unicode="&#x3b2;" horiz-adv-x="723" 
d="M694 208v-12q0 -100 -68.5 -154.5t-195.5 -54.5q-105 0 -175 40v-197h-194v622q0 122 81 189.5t228 67.5q95 0 165 -25.5t107.5 -73t37.5 -111.5v-12q0 -92 -83 -133q97 -41 97 -146zM500 229q0 22 -15.5 32t-47.5 10h-114v155h95q32 0 50 12.5t18 35.5v7q0 52 -108 52
q-62 0 -92.5 -20.5t-30.5 -63.5v-245q41 -41 138 -41q107 0 107 59v7z" />
    <glyph glyph-name="gamma" unicode="&#x3b3;" horiz-adv-x="695" 
d="M696 479l-251 -498v-151h-194v151l-252 498v27h201l148 -303l147 303h201v-27z" />
    <glyph glyph-name="delta" unicode="&#x3b4;" horiz-adv-x="685" 
d="M621 364q35 -49 35 -118v-9q0 -118 -83 -184t-229 -66q-97 0 -168 30t-109 86.5t-38 133.5v9q0 75 45 124t130 69l-149 84v173h548v-170h-237l140 -72q80 -41 115 -90zM456 242q0 26 -15 46.5t-55 45.5h-4q-74 0 -113 -22.5t-39 -65.5v-4q0 -49 29 -75t84 -26
q113 0 113 97v4z" />
    <glyph glyph-name="epsilon" unicode="&#x3b5;" horiz-adv-x="684" 
d="M461 302v3q0 29 -10 44t-33 21.5t-66 6.5q-102 0 -102 -31v-8q0 -13 11.5 -18.5t37.5 -5.5h124v-120h-134q-26 0 -37.5 -5.5t-11.5 -18.5v-8q0 -16 27.5 -25t74.5 -9q56 0 82 10.5t31.5 24.5t5.5 38v3h189v-3q0 -112 -74.5 -163t-237.5 -51q-151 0 -227 38t-76 113v10
q0 74 65 109q-49 34 -49 96v10q0 76 75 116t217 40q152 0 229.5 -54t77.5 -160v-3h-189z" />
    <glyph glyph-name="zeta" unicode="&#x3b6;" horiz-adv-x="599" 
d="M244.5 280q-19.5 -22 -19.5 -49v-10q0 -51 80 -51h106q96 0 142 -42t46 -129v-9q0 -160 -188 -160h-157v140h134q22 0 22 12v5q0 13 -22 13h-84q-143 0 -211.5 48.5t-68.5 151.5v15q0 47 17 85t56.5 75.5t110.5 83.5l103 67h-274v170h562v-165l-273 -187
q-62 -42 -81.5 -64z" />
    <glyph glyph-name="eta" unicode="&#x3b7;" horiz-adv-x="733" 
d="M679 241v-411h-194v411q0 49 -26 75t-74 26q-36 0 -64 -15t-44 -41l-1 -286h-193v308q0 13 -6.5 18.5t-22.5 5.5h-44v174h109q80 0 121 -44q69 57 183 57q256 0 256 -278z" />
    <glyph glyph-name="theta" unicode="&#x3b8;" horiz-adv-x="675" 
d="M564.5 600q81.5 -69 81.5 -192v-161q0 -122 -81.5 -191t-225.5 -69q-94 0 -164 31.5t-108 90t-38 138.5v161q0 81 37.5 140t107.5 90t165 31q144 0 225.5 -69zM246 485q-32 -25 -32 -73v-3h248v3q0 47 -32.5 72.5t-91.5 25.5q-60 0 -92 -25zM429.5 174.5
q32.5 25.5 32.5 72.5v2h-248v-2q0 -48 32 -73t92 -25q59 0 91.5 25.5z" />
    <glyph glyph-name="iota" unicode="&#x3b9;" horiz-adv-x="329" 
d="M96.5 43.5q-50.5 43.5 -50.5 117.5v345h194v-309q0 -14 7.5 -20.5t23.5 -6.5h53v-170h-89q-88 0 -138.5 43.5z" />
    <glyph glyph-name="kappa" unicode="&#x3ba;" horiz-adv-x="681" 
d="M683 27v-27h-214l-128 169l-86 -85v-84h-194v506h194v-196l204 196h214v-27l-191 -189z" />
    <glyph glyph-name="lambda" unicode="&#x3bb;" horiz-adv-x="705" 
d="M705 27v-27h-206l-140 291l-144 -291h-206v27l244 480q-8 10 -19 14.5t-29 4.5h-169v170h188q77 0 126 -27.5t79 -87.5z" />
    <glyph glyph-name="uni03BC" unicode="&#x3bc;" horiz-adv-x="740" 
d="M730 170v-170h-109q-90 0 -131 55q-21 -32 -55.5 -50t-76.5 -18q-60 0 -103 31v-188h-194v676h194v-241q0 -49 26 -75t74 -26q35 0 63 14.5t45 41.5v286h194v-312q0 -13 6.5 -18.5t22.5 -5.5h44z" />
    <glyph glyph-name="nu" unicode="&#x3bd;" horiz-adv-x="697" 
d="M697 506v-27l-222 -479h-252l-223 479v27h207l142 -319l141 319h207z" />
    <glyph glyph-name="xi" unicode="&#x3be;" horiz-adv-x="663" 
d="M464 472v2q0 28 -29 43.5t-80 15.5q-49 0 -77.5 -14.5t-28.5 -40.5v-7q0 -25 18 -38.5t52 -13.5h178v-155h-204q-64 0 -64 -41v-8q0 -24 25.5 -34.5t84.5 -10.5h127q96 0 142 -42t46 -129v-9q0 -160 -188 -160h-157v140h134q22 0 22 12v5q0 13 -22 13h-104
q-145 0 -227.5 52t-82.5 143v15q0 95 84 139q-65 44 -65 132v19q0 62 38 109.5t106.5 73.5t157.5 26q93 0 164 -29.5t110 -82.5t39 -123v-2h-199z" />
    <glyph glyph-name="omicron" unicode="&#x3bf;" horiz-adv-x="685" 
d="M175 18.5q-71 31.5 -108.5 90.5t-37.5 138v9q0 81 37.5 140t108.5 91t169 32q148 0 230 -70t82 -193v-9q0 -121 -82 -190.5t-230 -69.5q-98 0 -169 31.5zM427 184.5q29 21.5 29 64.5v4q0 45 -29 67.5t-84 22.5q-56 0 -85 -22.5t-29 -67.5v-4q0 -43 29.5 -64.5t84.5 -21.5
t84 21.5z" />
    <glyph glyph-name="pi" unicode="&#x3c0;" horiz-adv-x="814" 
d="M10 332v174h800v-174h-144v-130q0 -17 8.5 -24.5t28.5 -7.5h87v-170h-119q-92 0 -145.5 49t-53.5 133v150h-137v-332h-194v332h-131z" />
    <glyph glyph-name="rho" unicode="&#x3c1;" horiz-adv-x="704" 
d="M592.5 449.5q82.5 -69.5 82.5 -193.5v-9q0 -77 -34 -136t-96.5 -91.5t-143.5 -32.5q-90 0 -152 41v-198h-195v426q0 124 82 193.5t227 69.5q147 0 229.5 -69.5zM475 256q0 87 -113 87t-113 -90v-54q18 -17 49 -26.5t67 -9.5q54 0 82 21.5t28 62.5v9z" />
    <glyph glyph-name="uni03C2" unicode="&#x3c2;" horiz-adv-x="665" 
d="M423 -30q22 0 22 12v5q0 13 -22 13h-84q-152 0 -231 62.5t-79 181.5v18q0 78 37.5 136t107 89.5t162.5 31.5q91 0 161 -30t108.5 -84t38.5 -125v-6h-199v6q0 29 -28.5 46t-77.5 17q-56 0 -82.5 -20t-26.5 -61v-18q0 -39 26 -56.5t84 -17.5h106q96 0 142 -42t46 -129v-9
q0 -160 -188 -160h-157v140h134z" />
    <glyph glyph-name="sigma" unicode="&#x3c3;" horiz-adv-x="735" 
d="M735 332h-114q35 -37 35 -96v-9q0 -73 -38 -127t-108.5 -83.5t-165.5 -29.5q-97 0 -168 31.5t-109 90t-38 138.5v9q0 117 83.5 183.5t230.5 66.5h392v-174zM448.5 289q-7.5 18 -27.5 43h-78q-59 0 -86 -20.5t-27 -63.5v-4q0 -85 113 -85q56 0 84.5 21.5t28.5 63.5v4
q0 23 -7.5 41z" />
    <glyph glyph-name="tau" unicode="&#x3c4;" horiz-adv-x="572" 
d="M214 49q-53 49 -53 133v150h-151v174h543v-174h-198v-127q0 -35 40 -35h128v-170h-163q-93 0 -146 49z" />
    <glyph glyph-name="upsilon" unicode="&#x3c5;" horiz-adv-x="704" 
d="M134 58q-80 71 -80 196v252h194v-254q0 -93 107 -93q50 0 75.5 23.5t25.5 69.5v254h194v-252q0 -127 -77.5 -197t-217.5 -70q-141 0 -221 71z" />
    <glyph glyph-name="phi" unicode="&#x3c6;" horiz-adv-x="968" 
d="M858 441q81 -65 81 -181v-14q0 -116 -81 -181t-227 -65h-50v-170h-194v170h-50q-146 0 -227 65t-81 181v14q0 116 81 181t227 65h50v190h194v-190h50q146 0 227 -65zM392 170v166h-66q-50 0 -76 -20.5t-26 -58.5v-8q0 -38 26 -58.5t76 -20.5h66zM744 257q0 38 -26 58.5
t-76 20.5h-66v-166h66q50 0 76 20.5t26 58.5v8z" />
    <glyph glyph-name="chi" unicode="&#x3c7;" horiz-adv-x="656" 
d="M650 -143v-27h-213l-110 199l-109 -199h-213v27l196 312l-193 310v27h212l106 -194l105 194h213v-27l-192 -310z" />
    <glyph glyph-name="psi" unicode="&#x3c8;" horiz-adv-x="898" 
d="M844 506v-260q0 -114 -78.5 -179t-219.5 -67v-170h-194v170q-141 2 -219.5 67t-78.5 179v260h195v-237q0 -50 24.5 -73t77.5 -23h1v523h194v-523h1q53 0 77.5 23t24.5 73v237h195z" />
    <glyph glyph-name="omega" unicode="&#x3c9;" horiz-adv-x="968" 
d="M857.5 439q81.5 -67 81.5 -192v-9q0 -74 -34 -131t-95.5 -88.5t-141.5 -31.5q-60 0 -106.5 18t-77.5 53q-31 -35 -77.5 -53t-106.5 -18q-80 0 -141.5 31.5t-95.5 88.5t-34 131v9q0 125 81.5 192t226.5 67h30v-170h-40q-49 0 -76 -21t-27 -64v-7q0 -39 26.5 -61.5
t71.5 -22.5q41 0 65 22v185h194v-185q24 -22 65 -22q45 0 71.5 22.5t26.5 61.5v7q0 43 -27 64t-76 21h-40v170h30q145 0 226.5 -67z" />
    <glyph glyph-name="iotadieresis" unicode="&#x3ca;" horiz-adv-x="329" 
d="M96.5 43.5q-50.5 43.5 -50.5 117.5v345h194v-309q0 -14 7.5 -20.5t23.5 -6.5h53v-170h-89q-88 0 -138.5 43.5zM-62.5 578.5q-29.5 27.5 -29.5 71.5t29.5 71t76.5 27q46 0 75 -27t29 -71t-29 -71.5t-75 -27.5q-47 0 -76.5 27.5zM199 578.5q-29 27.5 -29 71.5t29 71t76 27
t75.5 -27t28.5 -71t-29 -71.5t-75 -27.5q-47 0 -76 27.5z" />
    <glyph glyph-name="upsilondieresis" unicode="&#x3cb;" horiz-adv-x="704" 
d="M134 58q-80 71 -80 196v252h194v-254q0 -93 107 -93q50 0 75.5 23.5t25.5 69.5v254h194v-252q0 -127 -77.5 -197t-217.5 -70q-141 0 -221 71zM149.5 578.5q-29.5 27.5 -29.5 71.5t29.5 71t76.5 27q46 0 75 -27t29 -71t-29 -71.5t-75 -27.5q-47 0 -76.5 27.5zM411 578.5
q-29 27.5 -29 71.5t29 71t76 27t75.5 -27t28.5 -71t-29 -71.5t-75 -27.5q-47 0 -76 27.5z" />
    <glyph glyph-name="omicrontonos" unicode="&#x3cc;" horiz-adv-x="685" 
d="M175 18.5q-71 31.5 -108.5 90.5t-37.5 138v9q0 81 37.5 140t108.5 91t169 32q148 0 230 -70t82 -193v-9q0 -121 -82 -190.5t-230 -69.5q-98 0 -169 31.5zM427 184.5q29 21.5 29 64.5v4q0 45 -29 67.5t-84 22.5q-56 0 -85 -22.5t-29 -67.5v-4q0 -43 29.5 -64.5t84.5 -21.5
t84 21.5zM446 816l-20 -262h-172l20 262h172z" />
    <glyph glyph-name="upsilontonos" unicode="&#x3cd;" horiz-adv-x="704" 
d="M134 58q-80 71 -80 196v252h194v-254q0 -93 107 -93q50 0 75.5 23.5t25.5 69.5v254h194v-252q0 -127 -77.5 -197t-217.5 -70q-141 0 -221 71zM459 816l-20 -262h-172l20 262h172z" />
    <glyph glyph-name="omegatonos" unicode="&#x3ce;" horiz-adv-x="968" 
d="M857.5 439q81.5 -67 81.5 -192v-9q0 -74 -34 -131t-95.5 -88.5t-141.5 -31.5q-60 0 -106.5 18t-77.5 53q-31 -35 -77.5 -53t-106.5 -18q-80 0 -141.5 31.5t-95.5 88.5t-34 131v9q0 125 81.5 192t226.5 67h30v-170h-40q-49 0 -76 -21t-27 -64v-7q0 -39 26.5 -61.5
t71.5 -22.5q41 0 65 22v185h194v-185q24 -22 65 -22q45 0 71.5 22.5t26.5 61.5v7q0 43 -27 64t-76 21h-40v170h30q145 0 226.5 -67zM587 816l-20 -262h-172l20 262h172z" />
    <glyph glyph-name="uni0400" unicode="&#x400;" horiz-adv-x="723" 
d="M672 656v-172h-407v-71h387v-169h-387v-72h407v-172h-608v656h608zM142 908l452 -60v-152l-452 60v152z" />
    <glyph glyph-name="uni0401" unicode="&#x401;" horiz-adv-x="723" 
d="M672 656v-172h-407v-71h387v-169h-387v-72h407v-172h-608v656h608zM161.5 728.5q-29.5 27.5 -29.5 71.5t29.5 71t76.5 27q46 0 75 -27t29 -71t-29 -71.5t-75 -27.5q-47 0 -76.5 27.5zM423 728.5q-29 27.5 -29 71.5t29 71t76 27t75.5 -27t28.5 -71t-29 -71.5t-75 -27.5
q-47 0 -76 27.5z" />
    <glyph glyph-name="uni0402" unicode="&#x402;" horiz-adv-x="944" 
d="M837.5 362.5q77.5 -50.5 77.5 -151.5v-10q0 -96 -74.5 -148.5t-210.5 -52.5h-122v163h104q56 0 79.5 9t23.5 31v7q0 16 -10.5 25t-36 12.5t-73.5 3.5q-64 0 -169 -7v-244h-201v476h-210v180h659v-180h-248v-76q95 13 183 13q151 0 228.5 -50.5z" />
    <glyph glyph-name="uni0403" unicode="&#x403;" horiz-adv-x="627" 
d="M612 656v-180h-347v-476h-201v656h548zM588 907v-152l-452 -60v152z" />
    <glyph glyph-name="uni0404" unicode="&#x404;" horiz-adv-x="874" 
d="M640 371v3q0 53 -55 85.5t-147 32.5q-149 0 -188 -84h305v-160h-303q21 -41 69.5 -62.5t120.5 -21.5q94 0 146 31t52 85v3h205v-3q0 -84 -51.5 -150.5t-143.5 -104.5t-208 -38q-123 0 -216 41.5t-143.5 118t-50.5 178.5v5q0 102 50.5 178.5t143.5 118.5t216 42
q116 0 208 -38t143.5 -105.5t51.5 -151.5v-3h-205z" />
    <glyph glyph-name="uni0405" unicode="&#x405;" horiz-adv-x="771" 
d="M133.5 48q-86.5 61 -86.5 177v10h195v-10q0 -34 39 -52.5t110 -18.5q129 0 129 43v6q0 27 -65 37l-185 29q-108 17 -161 62t-53 120v10q0 99 84 153.5t236 54.5q161 0 246.5 -58.5t85.5 -167.5v-8h-193v8q0 30 -34 44.5t-105 14.5q-120 0 -120 -36v-6q0 -11 14.5 -18.5
t48.5 -12.5l186 -29q111 -17 165 -63.5t54 -124.5v-10q0 -102 -89.5 -158.5t-250.5 -56.5q-164 0 -250.5 61z" />
    <glyph glyph-name="uni0406" unicode="&#x406;" horiz-adv-x="299" 
d="M250 656v-656h-201v656h201z" />
    <glyph glyph-name="uni0407" unicode="&#x407;" horiz-adv-x="299" 
d="M250 656v-656h-201v656h201zM-56.5 728.5q-29.5 27.5 -29.5 71.5t29.5 71t76.5 27q46 0 75 -27t29 -71t-29 -71.5t-75 -27.5q-47 0 -76.5 27.5zM205 728.5q-29 27.5 -29 71.5t29 71t76 27t75.5 -27t28.5 -71t-29 -71.5t-75 -27.5q-47 0 -76 27.5z" />
    <glyph glyph-name="uni0408" unicode="&#x408;" horiz-adv-x="749" 
d="M186.5 25q-75.5 38 -116 110t-40.5 170v28h201v-28q0 -131 134 -131q70 0 99.5 29.5t29.5 99.5v173h-271v180h472v-349q0 -152 -86.5 -236t-243.5 -84q-103 0 -178.5 38z" />
    <glyph glyph-name="uni0409" unicode="&#x409;" horiz-adv-x="1240" 
d="M1141 398.5q67 -55.5 67 -162.5v-12q0 -109 -67.5 -166t-196.5 -57h-416v475h-219l-5 -193q-4 -139 -65 -211t-177 -72h-62v180h24q51 0 73.5 27.5t23.5 91.5l8 357h600v-202h215q130 0 197 -55.5zM1003 235q0 46 -64 46h-210v-107h210q33 0 48.5 12t15.5 37v12z" />
    <glyph glyph-name="uni040A" unicode="&#x40a;" horiz-adv-x="1276" 
d="M265 656v-228h299v228h201v-212h215q131 0 197.5 -53.5t66.5 -159.5v-12q0 -108 -67 -163.5t-197 -55.5h-416v248h-299v-248h-201v656h201zM1023.5 180q15.5 12 15.5 38v12q0 46 -64 46h-210v-108h210q33 0 48.5 12z" />
    <glyph glyph-name="uni040B" unicode="&#x40b;" horiz-adv-x="960" 
d="M838 354q77 -65 77 -192v-162h-201v152q0 50 -34 73.5t-105 23.5q-68 0 -149 -6v-243h-201v476h-210v180h659v-180h-248v-70q106 13 183 13q152 0 229 -65z" />
    <glyph glyph-name="uni040C" unicode="&#x40c;" horiz-adv-x="803" 
d="M773 626l-254 -285l235 -311v-30h-227l-176 238h-86v-238h-201v656h201v-238h75l197 238h236v-30zM623 907v-152l-452 -60v152z" />
    <glyph glyph-name="uni040D" unicode="&#x40d;" horiz-adv-x="819" 
d="M262 656v-378l292 378h201v-656h-198v378l-292 -378h-201v656h198zM184 908l452 -60v-152l-452 60v152z" />
    <glyph glyph-name="uni040E" unicode="&#x40e;" horiz-adv-x="763" 
d="M757 656v-30l-234 -452q-50 -97 -104 -135.5t-138 -38.5h-173v180h166h5l-261 446v30h207l174 -323l151 323h207zM223 742.5q-56 45.5 -56 138.5v10h156v-10q0 -43 70 -43q60 0 60 43v10h166v-10q0 -94 -55.5 -139t-170.5 -45q-114 0 -170 45.5z" />
    <glyph glyph-name="uni040F" unicode="&#x40f;" horiz-adv-x="799" 
d="M735 0h-235v-143h-201v143h-235v656h201v-476h269v476h201v-656z" />
    <glyph glyph-name="uni0410" unicode="&#x410;" horiz-adv-x="770" 
d="M768 30v-30h-196l-43 108h-288l-43 -108h-196v30l272 626h222zM462 274l-77 191l-77 -191h154z" />
    <glyph glyph-name="uni0411" unicode="&#x411;" horiz-adv-x="785" 
d="M693 656v-170h-428v-80h215q131 0 197.5 -50t66.5 -148v-10q0 -98 -67 -148t-197 -50h-416v656h629zM540 208v10q0 38 -64 38h-211v-86h211q64 0 64 38z" />
    <glyph glyph-name="uni0412" unicode="&#x412;" horiz-adv-x="785" 
d="M722 273.5q22 -36.5 22 -83.5v-10q0 -85 -67 -132.5t-188 -47.5h-425v656h406q122 0 188 -47t66 -133v-10q0 -86 -67 -133q43 -23 65 -59.5zM265 486v-80h205q54 0 54 35v10q0 35 -54 35h-205zM539 217q0 37 -54 37h-220v-84h220q54 0 54 37v10z" />
    <glyph glyph-name="uni0413" unicode="&#x413;" horiz-adv-x="627" 
d="M612 656v-180h-347v-476h-201v656h548z" />
    <glyph glyph-name="uni0414" unicode="&#x414;" horiz-adv-x="867" 
d="M852 180v-313h-201v133h-442v-133h-201v313h83q46 70 49 188l7 288h604v-476h101zM281 180h269v296l-222 -1l-3 -107q-3 -116 -44 -188z" />
    <glyph glyph-name="uni0415" unicode="&#x415;" horiz-adv-x="723" 
d="M672 656v-172h-407v-71h387v-169h-387v-72h407v-172h-608v656h608z" />
    <glyph glyph-name="uni0416" unicode="&#x416;" horiz-adv-x="1257" 
d="M1227 626l-244 -285l225 -311v-30h-227l-169 238h-83v-238h-201v238h-83l-169 -238h-227v30l225 311l-244 285v30h236l190 -238h72v238h201v-238h72l190 238h236v-30z" />
    <glyph glyph-name="uni0417" unicode="&#x417;" horiz-adv-x="833" 
d="M758.5 279q23.5 -33 23.5 -76v-10q0 -64 -43 -110.5t-123.5 -71t-191.5 -24.5q-190 0 -286.5 73.5t-96.5 217.5v7h203v-7q0 -60 44 -87t143 -27q67 0 106 12.5t39 34.5v10q0 15 -10 21.5t-38 9t-87 2.5h-122v150h118q50 0 76 3t36.5 10.5t10.5 21.5v10q0 21 -36.5 32
t-105.5 11q-64 0 -100.5 -11t-53 -35t-16.5 -66v-7h-203v7q0 142 96 215.5t282 73.5q106 0 183.5 -24t118.5 -69.5t41 -107.5v-10q0 -80 -75 -124q44 -22 67.5 -55z" />
    <glyph glyph-name="uni0418" unicode="&#x418;" horiz-adv-x="819" 
d="M262 656v-378l292 378h201v-656h-198v378l-292 -378h-201v656h198z" />
    <glyph glyph-name="uni0419" unicode="&#x419;" horiz-adv-x="819" 
d="M262 656v-378l292 378h201v-656h-198v378l-292 -378h-201v656h198zM240 742.5q-56 45.5 -56 138.5v10h156v-10q0 -43 70 -43q60 0 60 43v10h166v-10q0 -94 -55.5 -139t-170.5 -45q-114 0 -170 45.5z" />
    <glyph glyph-name="uni041A" unicode="&#x41a;" horiz-adv-x="803" 
d="M773 626l-254 -285l235 -311v-30h-227l-176 238h-86v-238h-201v656h201v-238h75l197 238h236v-30z" />
    <glyph glyph-name="uni041B" unicode="&#x41b;" horiz-adv-x="794" 
d="M730 0h-201v476h-220l-5 -193q-4 -139 -65 -211t-177 -72h-62v180h24q51 0 73.5 27.5t23.5 91.5l8 357h601v-656z" />
    <glyph glyph-name="uni041C" unicode="&#x41c;" horiz-adv-x="1029" 
d="M965 0h-198v365l-154 -365h-197l-153 363v-363h-199v656h269l182 -431l180 431h270v-656z" />
    <glyph glyph-name="uni041D" unicode="&#x41d;" horiz-adv-x="819" 
d="M265 656v-238h289v238h201v-656h-201v238h-289v-238h-201v656h201z" />
    <glyph glyph-name="uni041E" unicode="&#x41e;" horiz-adv-x="877" 
d="M225 28.5q-92 41.5 -142.5 118.5t-50.5 178v5q0 101 50.5 178t142.5 119t213 42q123 0 215 -42t142 -118.5t50 -178.5v-5q0 -102 -50 -178.5t-142 -118t-215 -41.5q-121 0 -213 41.5zM591 210.5q49 36.5 49 111.5v10q0 150 -202 150q-99 0 -150 -38t-51 -112v-10
q0 -75 50 -111.5t151 -36.5q104 0 153 36.5z" />
    <glyph glyph-name="uni041F" unicode="&#x41f;" horiz-adv-x="799" 
d="M735 656v-656h-201v476h-269v-476h-201v656h671z" />
    <glyph glyph-name="uni0420" unicode="&#x420;" horiz-adv-x="787" 
d="M491 656q124 0 194 -59t70 -163v-10q0 -104 -70 -163.5t-194 -59.5h-226v-201h-201v656h427zM550 424v10q0 48 -64 48h-221v-107h221q64 0 64 49z" />
    <glyph glyph-name="uni0421" unicode="&#x421;" horiz-adv-x="874" 
d="M227 28.5q-93 41.5 -144 118t-51 178.5v5q0 102 51 178.5t144 118.5t216 42q116 0 207.5 -37t143 -103.5t51.5 -150.5v-7h-205v7q0 48 -53.5 76t-144.5 28q-104 0 -154.5 -37t-50.5 -113v-10q0 -76 50 -112t156 -36q94 0 145.5 26.5t51.5 75.5v7h205v-7q0 -83 -51.5 -149
t-143 -103t-207.5 -37q-123 0 -216 41.5z" />
    <glyph glyph-name="uni0422" unicode="&#x422;" horiz-adv-x="691" 
d="M15 476v180h661v-180h-230v-476h-201v476h-230z" />
    <glyph glyph-name="uni0423" unicode="&#x423;" horiz-adv-x="738" 
d="M757 656v-30l-234 -452q-50 -97 -104 -135.5t-138 -38.5h-173v180h166h5l-261 446v30h207l174 -323l151 323h207z" />
    <glyph glyph-name="uni0424" unicode="&#x424;" horiz-adv-x="1096" 
d="M913 568q73 -33 112 -94t39 -145v-5q0 -83 -39 -144t-111.5 -93t-172.5 -32h-92v-68h-201v68h-93q-99 0 -172 32.5t-112 93t-39 143.5v5q0 84 39 145t112 94t172 33h93v68h201v-68h92q99 0 172 -33zM264 247.5q27 -22.5 91 -22.5h101v206h-101q-63 0 -90.5 -23t-27.5 -75
v-10q0 -53 27 -75.5zM859 333q0 52 -27.5 75t-90.5 23h-100v-206h100q64 0 91 22.5t27 75.5v10z" />
    <glyph glyph-name="uni0425" unicode="&#x425;" horiz-adv-x="819" 
d="M789 626l-244 -298l244 -298v-30h-232l-148 186l-147 -186h-232v30l244 298l-244 298v30h232l147 -186l148 186h232v-30z" />
    <glyph glyph-name="uni0426" unicode="&#x426;" horiz-adv-x="850" 
d="M835 180v-313h-201v133h-570v656h201v-476h269v476h201v-476h100z" />
    <glyph glyph-name="uni0427" unicode="&#x427;" horiz-adv-x="799" 
d="M735 656v-656h-201v223q-104 -13 -183 -13q-152 0 -229 65t-77 192v189h201v-169q0 -50 34 -73.5t105 -23.5q68 0 149 6v260h201z" />
    <glyph glyph-name="uni0428" unicode="&#x428;" horiz-adv-x="1159" 
d="M265 656v-476h214v476h201v-476h214v476h201v-656h-1031v656h201z" />
    <glyph glyph-name="uni0429" unicode="&#x429;" horiz-adv-x="1208" 
d="M1193 180v-313h-201v133h-928v656h201v-476h213v476h201v-476h213v476h201v-476h100z" />
    <glyph glyph-name="uni042A" unicode="&#x42a;" horiz-adv-x="937" 
d="M838 398.5q67 -55.5 67 -162.5v-12q0 -109 -67.5 -166t-196.5 -57h-416v475h-210v180h411v-202h215q130 0 197 -55.5zM700 235q0 46 -64 46h-210v-107h210q33 0 48.5 12t15.5 37v12z" />
    <glyph glyph-name="uni042B" unicode="&#x42b;" horiz-adv-x="1013" 
d="M265 656v-202h179q130 0 197 -55.5t67 -162.5v-12q0 -109 -67.5 -166t-196.5 -57h-380v655h201zM949 656v-656h-201v656h201zM487.5 186q15.5 12 15.5 37v12q0 47 -64 47h-174v-108h174q33 0 48.5 12z" />
    <glyph glyph-name="uni042C" unicode="&#x42c;" horiz-adv-x="776" 
d="M265 656v-202h215q130 0 197 -55.5t67 -162.5v-12q0 -109 -67.5 -166t-196.5 -57h-416v655h201zM523.5 186q15.5 12 15.5 37v12q0 46 -64 46h-210v-107h210q33 0 48.5 12z" />
    <glyph glyph-name="uni042D" unicode="&#x42d;" horiz-adv-x="874" 
d="M648 627q93 -42 143.5 -118.5t50.5 -178.5v-5q0 -102 -50.5 -178.5t-143.5 -118t-216 -41.5q-116 0 -208 38t-143.5 104.5t-51.5 150.5v3h205v-3q0 -54 52 -85t146 -31q72 0 120.5 21.5t69.5 62.5h-303v160h305q-39 84 -188 84q-92 0 -147 -32.5t-55 -85.5v-3h-205v3
q0 84 51.5 151.5t143.5 105.5t208 38q123 0 216 -42z" />
    <glyph glyph-name="uni042E" unicode="&#x42e;" horiz-adv-x="1161" 
d="M939.5 627.5q90.5 -41.5 140 -118.5t49.5 -179v-5q0 -102 -49.5 -178.5t-140 -118t-211.5 -41.5q-101 0 -183 30.5t-135.5 87t-72.5 133.5h-72v-238h-201v656h201v-238h72q20 76 73.5 133t135 87.5t182.5 30.5q121 0 211.5 -41.5zM924 332q0 150 -196 150
q-96 0 -146.5 -38.5t-50.5 -111.5v-10q0 -148 197 -148q100 0 148 36t48 112v10z" />
    <glyph glyph-name="uni042F" unicode="&#x42f;" horiz-adv-x="806" 
d="M742 656v-656h-201v215h-60l-199 -215h-227v30l188 191q-90 16 -141 70t-51 133v10q0 104 70 163t194 59h427zM256 424q0 -49 64 -49h221v107h-221q-64 0 -64 -48v-10z" />
    <glyph glyph-name="uni0430" unicode="&#x430;" horiz-adv-x="716" 
d="M706 170v-170h-109q-85 0 -127 50q-39 -30 -94 -46.5t-119 -16.5q-100 0 -157 41t-57 114q0 122 166 142l227 26q-12 50 -95 50q-96 0 -96 -40v-3h-198v3q0 61 36 105.5t103 69t157 24.5q137 0 213.5 -61t76.5 -170v-94q0 -13 6.5 -18.5t22.5 -5.5h44zM291 123
q41 0 82 13.5t65 33.5v33l-169 -20q-33 -4 -33 -29q0 -31 55 -31z" />
    <glyph glyph-name="uni0431" unicode="&#x431;" horiz-adv-x="704" 
d="M609.5 395q65.5 -54 65.5 -157v-12q0 -115 -78 -177t-222 -62q-331 0 -331 316v17q0 165 67.5 245.5t217.5 95.5l88 9q19 2 26.5 6.5t7.5 13.5v6h198v-58q0 -52 -35 -82t-102 -36l-173 -15q-58 -5 -84 -29.5t-26 -71.5v-12q78 57 189 57q126 0 191.5 -54zM475 228
q0 35 -28.5 54.5t-80.5 19.5q-39 0 -72 -10t-55 -28v-17q0 -53 31 -79t95 -26q50 0 80 20.5t30 55.5v10z" />
    <glyph glyph-name="uni0432" unicode="&#x432;" horiz-adv-x="710" 
d="M675 150v-10q0 -68 -58.5 -104t-168.5 -36h-387v506h372q110 0 168.5 -35.5t58.5 -102.5v-10q0 -65 -53 -100q68 -35 68 -108zM255 375v-62h155q26 0 37.5 6.5t11.5 20.5v8q0 14 -11.5 20.5t-37.5 6.5h-155zM474 168q0 28 -49 28h-170v-65h170q49 0 49 29v8z" />
    <glyph glyph-name="uni0433" unicode="&#x433;" horiz-adv-x="513" 
d="M498 506v-172h-243v-334h-194v506h437z" />
    <glyph glyph-name="uni0434" unicode="&#x434;" horiz-adv-x="762" 
d="M757 170v-298h-194v128h-364v-128h-194v298h77q21 32 31 66t11 84l6 186h535v-336h92zM471 170v166h-166l-1 -16q-2 -53 -10.5 -87t-27.5 -63h205z" />
    <glyph glyph-name="uni0435" unicode="&#x435;" horiz-adv-x="671" 
d="M642 205h-417q6 -34 34 -51.5t77 -17.5q89 0 106 32h199q-16 -89 -93 -135t-211 -46q-144 0 -226 68t-82 188v17q0 80 37 138.5t106.5 89.5t164.5 31q149 0 227 -67.5t78 -196.5v-50zM266 360.5q-27 -14.5 -37 -42.5h214q-10 28 -37 42.5t-70 14.5t-70 -14.5z" />
    <glyph glyph-name="uni0436" unicode="&#x436;" horiz-adv-x="1018" 
d="M1013 27v-27h-209l-118 170h-80v-170h-194v170h-80l-118 -170h-209v27l166 232l-156 220v27h210l114 -166h73v166h194v-166h73l114 166h210v-27l-157 -220z" />
    <glyph glyph-name="uni0437" unicode="&#x437;" horiz-adv-x="684" 
d="M649 148v-10q0 -75 -76 -113t-227 -38q-165 0 -238.5 55t-73.5 179v3h179v-3q0 -49 30.5 -71t98.5 -22q47 0 74.5 9t27.5 25v8q0 13 -11.5 18.5t-37.5 5.5h-134v120h124q26 0 37.5 5.5t11.5 18.5v8q0 31 -102 31q-64 0 -91.5 -21t-27.5 -71v-3h-179v3q0 119 75.5 176.5
t231.5 57.5q142 0 217 -40t75 -116v-10q0 -62 -49 -96q65 -35 65 -109z" />
    <glyph glyph-name="uni0438" unicode="&#x438;" horiz-adv-x="713" 
d="M245 506v-273l233 273h174v-506h-184v272l-233 -272h-174v506h184z" />
    <glyph glyph-name="uni0439" unicode="&#x439;" horiz-adv-x="713" 
d="M245 506v-273l233 273h174v-506h-184v272l-233 -272h-174v506h184zM187 592.5q-56 45.5 -56 138.5v10h156v-10q0 -43 70 -43q60 0 60 43v10h166v-10q0 -94 -55.5 -139t-170.5 -45q-114 0 -170 45.5z" />
    <glyph glyph-name="uni043A" unicode="&#x43a;" horiz-adv-x="687" 
d="M682 30v-30h-212l-132 170h-83v-170h-194v506h194v-169h73l129 169h215v-27l-169 -219z" />
    <glyph glyph-name="uni043B" unicode="&#x43b;" horiz-adv-x="712" 
d="M651 0h-194v334h-170l-3 -81q-5 -122 -57 -187.5t-146 -65.5h-71v172h25q35 0 51.5 22t18.5 71l8 241h538v-506z" />
    <glyph glyph-name="uni043C" unicode="&#x43c;" horiz-adv-x="913" 
d="M852 506v-506h-188v318l-24 -73l-97 -245h-172l-97 245l-25 76v-76l2 -245h-190v506h277l119 -307l119 307h276z" />
    <glyph glyph-name="uni043D" unicode="&#x43d;" horiz-adv-x="718" 
d="M255 506v-167h208v167h194v-506h-194v169h-208v-169h-194v506h194z" />
    <glyph glyph-name="uni043E" unicode="&#x43e;" horiz-adv-x="685" 
d="M175 18.5q-71 31.5 -108.5 90.5t-37.5 138v9q0 81 37.5 140t108.5 91t169 32q148 0 230 -70t82 -193v-9q0 -121 -82 -190.5t-230 -69.5q-98 0 -169 31.5zM427 184.5q29 21.5 29 64.5v4q0 45 -29 67.5t-84 22.5q-56 0 -85 -22.5t-29 -67.5v-4q0 -43 29.5 -64.5t84.5 -21.5
t84 21.5z" />
    <glyph glyph-name="uni043F" unicode="&#x43f;" horiz-adv-x="708" 
d="M647 506v-506h-194v336h-198v-336h-194v506h586z" />
    <glyph glyph-name="uni0440" unicode="&#x440;" horiz-adv-x="710" 
d="M551 486.5q63 -32.5 96.5 -92t33.5 -137.5v-6q0 -78 -33.5 -138t-96.5 -93t-147 -33q-87 0 -149 41v-198h-194v676h180l4 -37q67 50 159 50q84 0 147 -32.5zM481 257q0 41 -29.5 63t-84.5 22q-36 0 -65.5 -8.5t-46.5 -24.5v-110q18 -16 47.5 -25.5t64.5 -9.5
q54 0 84 22.5t30 64.5v6z" />
    <glyph glyph-name="uni0441" unicode="&#x441;" horiz-adv-x="670" 
d="M174 18.5q-70 31.5 -107.5 90t-37.5 138.5v9q0 81 37.5 140.5t107.5 91t165 31.5q90 0 159.5 -29t107.5 -81.5t38 -120.5v-6h-199v6q0 25 -29 40t-77 15q-57 0 -83.5 -21.5t-26.5 -68.5v-4q0 -44 27 -65t83 -21q51 0 78.5 14.5t27.5 40.5v6h199v-6q0 -71 -37 -123
t-105.5 -80t-162.5 -28q-95 0 -165 31.5z" />
    <glyph glyph-name="uni0442" unicode="&#x442;" horiz-adv-x="606" 
d="M15 333v173h576v-173h-191v-333h-194v333h-191z" />
    <glyph glyph-name="uni0443" unicode="&#x443;" horiz-adv-x="697" 
d="M697 506v-27l-252 -534q-26 -56 -73.5 -85.5t-131.5 -29.5h-168v170h149q12 0 17 1l-238 478v27h207l147 -309l136 309h207z" />
    <glyph glyph-name="uni0444" unicode="&#x444;" horiz-adv-x="968" 
d="M858 441q81 -65 81 -181v-14q0 -116 -81 -181t-227 -65h-50v-170h-194v170h-50q-146 0 -227 65t-81 181v14q0 116 81 181t227 65h50v190h194v-190h50q146 0 227 -65zM392 170v166h-66q-50 0 -76 -20.5t-26 -58.5v-8q0 -38 26 -58.5t76 -20.5h66zM744 257q0 38 -26 58.5
t-76 20.5h-66v-166h66q50 0 76 20.5t26 58.5v8z" />
    <glyph glyph-name="uni0445" unicode="&#x445;" horiz-adv-x="656" 
d="M651 27v-27h-222l-102 130l-100 -130h-222v27l196 227l-193 225v27h221l98 -126l97 126h221v-27l-192 -225z" />
    <glyph glyph-name="uni0446" unicode="&#x446;" horiz-adv-x="734" 
d="M729 170v-298h-194v128h-474v506h194v-336h188v336h194v-336h92z" />
    <glyph glyph-name="uni0447" unicode="&#x447;" horiz-adv-x="677" 
d="M616 506v-506h-194v146q-74 -8 -132 -8q-260 0 -260 235v133h194v-128q0 -34 24.5 -50.5t77.5 -16.5t96 4v191h194z" />
    <glyph glyph-name="uni0448" unicode="&#x448;" horiz-adv-x="1039" 
d="M255 506v-336h168v336h194v-336h167v336h194v-506h-917v506h194z" />
    <glyph glyph-name="uni0449" unicode="&#x449;" horiz-adv-x="1075" 
d="M1070 170v-298h-194v128h-815v506h194v-336h168v336h194v-336h167v336h194v-336h92z" />
    <glyph glyph-name="uni044A" unicode="&#x44a;" horiz-adv-x="835" 
d="M698 379.5q52 -24.5 80 -69t28 -103.5v-10q0 -90 -62 -143.5t-167 -53.5h-385v333h-177v173h371v-102h191q69 0 121 -24.5zM609 208q0 17 -12 27.5t-32 10.5h-179v-88h179q19 0 31.5 11t12.5 28v11z" />
    <glyph glyph-name="uni044B" unicode="&#x44b;" horiz-adv-x="902" 
d="M522 379.5q52 -24.5 80 -69t28 -103.5v-10q0 -90 -62 -143.5t-167 -53.5h-355v506h194v-102h161q69 0 121 -24.5zM856 506v-506h-194v506h194zM433 208q0 18 -12.5 29.5t-31.5 11.5h-149v-94h149q19 0 31.5 11.5t12.5 29.5v12z" />
    <glyph glyph-name="uni044C" unicode="&#x44c;" horiz-adv-x="704" 
d="M567 379.5q52 -24.5 80 -69t28 -103.5v-10q0 -90 -62 -143.5t-167 -53.5h-385v506h194v-102h191q69 0 121 -24.5zM478 208q0 17 -12 27.5t-32 10.5h-179v-88h179q19 0 31.5 11t12.5 28v11z" />
    <glyph glyph-name="uni044D" unicode="&#x44d;" horiz-adv-x="670" 
d="M496.5 487.5q69.5 -31.5 107 -89.5t37.5 -136v-18q0 -78 -37.5 -136t-107.5 -89.5t-165 -31.5q-93 0 -162 28.5t-106 81.5t-37 124v3h188v-3q0 -43 30.5 -66.5t86.5 -23.5q95 0 116 62h-189v120h189q-21 62 -112 62q-57 0 -89 -23.5t-32 -66.5v-3h-188v3q0 69 39 122
t108.5 82.5t160.5 29.5q93 0 162.5 -31.5z" />
    <glyph glyph-name="uni044E" unicode="&#x44e;" horiz-adv-x="928" 
d="M818 449.5q81 -69.5 81 -193.5v-9q0 -122 -81 -191t-224 -69q-115 0 -190 47t-98 133h-51v-167h-194v506h194v-166h52q24 86 98 132.5t189 46.5q143 0 224 -69.5zM699 253q0 44 -27 67t-79 23q-106 0 -106 -90v-4q0 -86 106 -86q52 0 79 22t27 64v4z" />
    <glyph glyph-name="uni044F" unicode="&#x44f;" horiz-adv-x="715" 
d="M654 1h-194v151h-15l-176 -152h-225v23l164 134q-79 13 -123.5 54t-44.5 103v10q0 83 63.5 132.5t171.5 49.5h379v-505zM240 314q0 -18 13.5 -28.5t36.5 -10.5h170v88h-170q-23 0 -36.5 -10.5t-13.5 -28.5v-10z" />
    <glyph glyph-name="uni0450" unicode="&#x450;" horiz-adv-x="671" 
d="M642 205h-417q6 -34 34 -51.5t77 -17.5q89 0 106 32h199q-16 -89 -93 -135t-211 -46q-144 0 -226 68t-82 188v17q0 80 37 138.5t106.5 89.5t164.5 31q149 0 227 -67.5t78 -196.5v-50zM266 360.5q-27 -14.5 -37 -42.5h214q-10 28 -37 42.5t-70 14.5t-70 -14.5zM110 758
l452 -60v-152l-452 60v152z" />
    <glyph glyph-name="uni0451" unicode="&#x451;" horiz-adv-x="671" 
d="M642 205h-417q6 -34 34 -51.5t77 -17.5q89 0 106 32h199q-16 -89 -93 -135t-211 -46q-144 0 -226 68t-82 188v17q0 80 37 138.5t106.5 89.5t164.5 31q149 0 227 -67.5t78 -196.5v-50zM266 360.5q-27 -14.5 -37 -42.5h214q-10 28 -37 42.5t-70 14.5t-70 -14.5z
M129.5 578.5q-29.5 27.5 -29.5 71.5t29.5 71t76.5 27q46 0 75 -27t29 -71t-29 -71.5t-75 -27.5q-47 0 -76.5 27.5zM391 578.5q-29 27.5 -29 71.5t29 71t76 27t75.5 -27t28.5 -71t-29 -71.5t-75 -27.5q-47 0 -76 27.5z" />
    <glyph glyph-name="uni0452" unicode="&#x452;" horiz-adv-x="737" 
d="M617 408.5q66 -70.5 66 -207.5v-93q0 -278 -270 -278h-42v170h26q47 0 69.5 24.5t22.5 76.5v100q0 49 -26 75t-76 26q-35 0 -62.5 -14.5t-43.5 -41.5v-246h-194v516h-107v140h107v40h194v-40h191v-140h-191v-79q59 42 142 42q128 0 194 -70.5z" />
    <glyph glyph-name="uni0453" unicode="&#x453;" horiz-adv-x="513" 
d="M498 506v-172h-243v-334h-194v506h437zM508 757v-152l-452 -60v152z" />
    <glyph glyph-name="uni0454" unicode="&#x454;" horiz-adv-x="670" 
d="M456 282v3q0 42 -32 66t-89 24q-91 0 -112 -62h189v-120h-189q21 -62 116 -62q56 0 86.5 23.5t30.5 66.5v3h188v-3q0 -71 -37 -124t-106 -81.5t-162 -28.5q-95 0 -165 31.5t-107.5 89.5t-37.5 136v18q0 78 37.5 136t107 89.5t162.5 31.5q90 0 160 -29.5t109 -82.5
t39 -122v-3h-188z" />
    <glyph glyph-name="uni0455" unicode="&#x455;" horiz-adv-x="688" 
d="M120.5 34.5q-80.5 47.5 -80.5 135.5v3h177v-3q0 -23 31 -33.5t101 -10.5q53 0 82 5.5t29 16.5v4q0 9 -9.5 13.5t-34.5 6.5l-142 14q-115 11 -169 48t-54 104v10q0 82 78 126.5t220 44.5q146 0 220 -46t74 -137v-3h-176v3q0 24 -28 34t-96 10q-111 0 -111 -21v-4
q0 -15 43 -19l145 -15q117 -12 171.5 -49t54.5 -104v-10q0 -81 -78 -126t-219 -45q-148 0 -228.5 47.5z" />
    <glyph glyph-name="uni0456" unicode="&#x456;" horiz-adv-x="286" 
d="M240 506v-506h-194v506h194zM62.5 574.5q-31.5 29.5 -31.5 76.5t31 76t81 29t81 -29t31 -76t-31 -76.5t-81 -29.5q-49 0 -80.5 29.5z" />
    <glyph glyph-name="uni0457" unicode="&#x457;" horiz-adv-x="336" 
d="M26.5 575q-20.5 27 -20.5 76t20.5 75.5t58.5 26.5q37 0 57 -26t20 -76q0 -49 -20 -76t-57 -27q-38 0 -58.5 27zM194.5 574.5q-20.5 26.5 -20.5 76.5q0 49 20 75.5t58 26.5t58 -26.5t20 -75.5q0 -50 -20.5 -76.5t-57.5 -26.5t-57.5 26.5zM265 506v-506h-194v506h194z" />
    <glyph glyph-name="uni0458" unicode="&#x458;" horiz-adv-x="286" 
d="M5 0q41 0 41 33v473h194v-494q0 -52 -25.5 -93.5t-71 -65t-102.5 -23.5h-95v170h59zM62.5 574.5q-31.5 29.5 -31.5 76.5t31 76t81 29t81 -29t31 -76t-31 -76.5t-81 -29.5q-49 0 -80.5 29.5z" />
    <glyph glyph-name="uni0459" unicode="&#x459;" horiz-adv-x="1100" 
d="M963 379.5q52 -24.5 80 -69t28 -103.5v-10q0 -90 -62 -143.5t-167 -53.5h-385v334h-170l-3 -81q-5 -122 -57 -187.5t-146 -65.5h-71v172h25q35 0 51.5 22t18.5 71l8 241h538v-102h191q69 0 121 -24.5zM874 208q0 17 -12 27.5t-32 10.5h-179v-88h179q20 0 32 10.5t12 27.5
v12z" />
    <glyph glyph-name="uni045A" unicode="&#x45a;" horiz-adv-x="1107" 
d="M255 506v-167h208v167h195v-142h191q106 0 167.5 -46.5t61.5 -130.5v-10q0 -84 -61.5 -130.5t-167.5 -46.5h-386v169h-208v-169h-194v506h194zM869 148.5q12 10.5 12 27.5v12q0 17 -12 27.5t-32 10.5h-179v-88h179q20 0 32 10.5z" />
    <glyph glyph-name="uni045B" unicode="&#x45b;" horiz-adv-x="737" 
d="M617 408.5q66 -70.5 66 -207.5v-201h-194v201q0 49 -26 75t-76 26q-35 0 -62.5 -14.5t-43.5 -41.5v-246h-194v516h-107v140h107v40h194v-40h191v-140h-191v-79q59 42 142 42q128 0 194 -70.5z" />
    <glyph glyph-name="uni045C" unicode="&#x45c;" horiz-adv-x="687" 
d="M682 30v-30h-212l-132 170h-83v-170h-194v506h194v-169h73l129 169h215v-27l-169 -219zM565 757v-152l-452 -60v152z" />
    <glyph glyph-name="uni045D" unicode="&#x45d;" horiz-adv-x="713" 
d="M245 506v-273l233 273h174v-506h-184v272l-233 -272h-174v506h184zM131 758l452 -60v-152l-452 60v152z" />
    <glyph glyph-name="uni045E" unicode="&#x45e;" horiz-adv-x="697" 
d="M697 506v-27l-252 -534q-26 -56 -73.5 -85.5t-131.5 -29.5h-168v170h149q12 0 17 1l-238 478v27h207l147 -309l136 309h207zM179 592.5q-56 45.5 -56 138.5v10h156v-10q0 -43 70 -43q60 0 60 43v10h166v-10q0 -94 -55.5 -139t-170.5 -45q-114 0 -170 45.5z" />
    <glyph glyph-name="uni045F" unicode="&#x45f;" horiz-adv-x="698" 
d="M637 0h-199v-128h-177v128h-200v506h194v-336h188v336h194v-506z" />
    <glyph glyph-name="uni0462" unicode="&#x462;" horiz-adv-x="893" 
d="M794.5 339.5q66.5 -47.5 66.5 -140.5v-10q0 -93 -67 -141t-197 -48h-416v453h-191v158h191v58h201v-58h241v-158h-241v-66h215q131 0 197.5 -47.5zM657 199q0 38 -64 38h-211v-86h211q64 0 64 38v10z" />
    <glyph glyph-name="uni0463" unicode="&#x463;" horiz-adv-x="815" 
d="M726 278.5q60 -37.5 60 -116.5v-10q0 -79 -59 -115.5t-180 -36.5h-375v364h-157v142h157v190h194v-190h207v-142h-207v-48h181q119 0 179 -37.5zM606 163q0 26 -45 26h-195v-62h195q45 0 45 26v10z" />
    <glyph glyph-name="uni0472" unicode="&#x472;" horiz-adv-x="877" 
d="M654 627.5q92 -41.5 141.5 -118.5t49.5 -179v-5q0 -102 -49.5 -178.5t-141.5 -118t-214 -41.5t-214.5 41.5t-143 118t-50.5 178.5v5q0 102 50.5 178.5t143 118.5t214.5 42t214 -41.5zM243 400q30 11 53 16t49 5q29 0 93 -10q6 -1 39.5 -6t64.5 -5q19 0 41.5 4t46.5 9
q-36 89 -191 89q-166 0 -196 -102zM633 254q-32 -10 -54.5 -14t-48.5 -4q-34 0 -100 10t-98 10q-34 0 -84 -12q35 -90 191 -90q166 0 194 100z" />
    <glyph glyph-name="uni0473" unicode="&#x473;" horiz-adv-x="685" 
d="M573.5 449.5q82.5 -69.5 82.5 -193.5v-9q0 -122 -82.5 -191t-229.5 -69q-97 0 -168 31.5t-109 90t-38 138.5v9q0 81 38 140.5t109 91t168 31.5q147 0 229.5 -69.5zM250.5 360q-33.5 -17 -44.5 -52q39 14 68 14q22 0 70 -8q45 -9 76 -9q26 0 58 9q-13 32 -46 47.5
t-89 15.5q-59 0 -92.5 -17zM437 146q34 17 44 53q-21 -7 -36.5 -10t-34.5 -3q-23 0 -73 8q-48 8 -73 8q-27 0 -57 -8q12 -34 45 -49.5t91 -15.5q60 0 94 17z" />
    <glyph glyph-name="uni0474" unicode="&#x474;" horiz-adv-x="793" 
d="M778 656v-179h-54q-16 0 -25 -6.5t-16 -22.5l-183 -448h-232l-266 626v30h196l186 -472l125 339q28 75 61.5 104t94.5 29h113z" />
    <glyph glyph-name="uni0475" unicode="&#x475;" horiz-adv-x="705" 
d="M690 506v-173h-40q-18 0 -26.5 -5t-15.5 -21l-133 -307h-252l-223 479v27h202l145 -327l94 231q21 53 51 74.5t82 21.5h116z" />
    <glyph glyph-name="uni0490" unicode="&#x490;" horiz-adv-x="627" 
d="M411 656v133h201v-313h-347v-476h-201v656h347z" />
    <glyph glyph-name="uni0491" unicode="&#x491;" horiz-adv-x="513" 
d="M294 506v128h194v-298h-233v-336h-194v506h233z" />
    <glyph glyph-name="uni0492" unicode="&#x492;" horiz-adv-x="710" 
d="M298 476v-139h247v-173h-247v-164h-201v164h-107v173h107v319h598v-180h-397z" />
    <glyph glyph-name="uni0493" unicode="&#x493;" horiz-adv-x="603" 
d="M289 334v-68h154v-140h-153v-126h-194v126h-106v140h106v240h477v-172h-284z" />
    <glyph glyph-name="uni0494" unicode="&#x494;" horiz-adv-x="790" 
d="M672 314q77 -65 77 -192v-38q0 -118 -74 -186t-203 -68h-95v170h52q119 0 119 97v15q0 50 -34 73.5t-105 23.5q-64 0 -144 -6v-203h-201v656h624v-170h-423v-120q91 13 178 13q152 0 229 -65z" />
    <glyph glyph-name="uni0495" unicode="&#x495;" horiz-adv-x="696" 
d="M579.5 225q67.5 -54 67.5 -154v-35q0 -95 -59 -150.5t-160 -55.5h-75v170h29q33 0 52 13t19 35v12q0 53 -93 53q-52 0 -105 -6v-107h-194v506h533v-170h-339v-65q72 8 133 8q124 0 191.5 -54z" />
    <glyph glyph-name="uni0496" unicode="&#x496;" horiz-adv-x="1236" 
d="M983 341l108 -161h130v-313h-201v133h-55l-158 238h-78v-238h-201v238h-83l-169 -238h-227v30l225 311l-244 285v30h236l190 -238h72v238h201v-238h72l190 238h236v-30z" />
    <glyph glyph-name="uni0497" unicode="&#x497;" horiz-adv-x="1049" 
d="M1044 170v-298h-194v128h-53l-118 170h-80v-170h-194v170h-80l-118 -170h-209v27l166 232l-156 220v27h210l116 -169h71v169h194v-169h71l116 169h210v-27l-157 -220l64 -89h141z" />
    <glyph glyph-name="uni0498" unicode="&#x498;" horiz-adv-x="833" 
d="M758.5 279q23.5 -33 23.5 -76v-10q0 -64 -43 -110.5t-123.5 -71t-191.5 -24.5q-190 0 -286.5 73.5t-96.5 217.5v7h203v-7q0 -60 44 -87t143 -27q67 0 106 12.5t39 34.5v10q0 15 -10 21.5t-38 9t-87 2.5h-122v150h118q50 0 76 3t36.5 10.5t10.5 21.5v10q0 21 -36.5 32
t-105.5 11q-64 0 -100.5 -11t-53 -35t-16.5 -66v-7h-203v7q0 142 96 215.5t282 73.5q106 0 183.5 -24t118.5 -69.5t41 -107.5v-10q0 -80 -75 -124q44 -22 67.5 -55zM537 40v-183h-201v183h201z" />
    <glyph glyph-name="uni0499" unicode="&#x499;" horiz-adv-x="684" 
d="M649 148v-10q0 -75 -76 -113t-227 -38q-165 0 -238.5 55t-73.5 179v3h179v-3q0 -49 30.5 -71t98.5 -22q47 0 74.5 9t27.5 25v8q0 13 -11.5 18.5t-37.5 5.5h-134v120h124q26 0 37.5 5.5t11.5 18.5v8q0 31 -102 31q-64 0 -91.5 -21t-27.5 -71v-3h-179v3q0 119 75.5 176.5
t231.5 57.5q142 0 217 -40t75 -116v-10q0 -62 -49 -96q65 -35 65 -109zM445 36v-179h-193v179h193z" />
    <glyph glyph-name="uni049A" unicode="&#x49a;" horiz-adv-x="792" 
d="M777 180v-313h-201v133h-54l-173 238h-84v-238h-201v656h201v-238h75l197 238h236v-30l-254 -285l119 -161h139z" />
    <glyph glyph-name="uni049B" unicode="&#x49b;" horiz-adv-x="717" 
d="M712 170v-298h-194v128h-48l-132 170h-83v-170h-194v506h194v-169h73l129 169h215v-27l-169 -219l70 -90h139z" />
    <glyph glyph-name="uni049C" unicode="&#x49c;" horiz-adv-x="843" 
d="M813 626l-228 -294l209 -302v-30h-215l-161 238h-13v-116h-108v116h-42v-238h-191v656h191v-238h42v117h108v-117h13l171 238h224v-30z" />
    <glyph glyph-name="uni049D" unicode="&#x49d;" horiz-adv-x="754" 
d="M749 30v-30h-212l-119 170h-23v-99h-98v99h-42v-170h-194v506h194v-169h42v77h98v-77h14l115 169h215v-27l-155 -220z" />
    <glyph glyph-name="uni04A0" unicode="&#x4a0;" horiz-adv-x="1034" 
d="M1004 626l-254 -285l235 -311v-30h-227l-176 238h-86v-238h-201v476h-280v180h481v-238h75l197 238h236v-30z" />
    <glyph glyph-name="uni04A1" unicode="&#x4a1;" horiz-adv-x="865" 
d="M867 30v-30h-212l-132 170h-83v-170h-194v333h-231v173h425v-169h73l129 169h215v-27l-169 -219z" />
    <glyph glyph-name="uni04A2" unicode="&#x4a2;" horiz-adv-x="870" 
d="M855 180v-313h-201v133h-100v238h-289v-238h-201v656h201v-238h289v238h201v-476h100z" />
    <glyph glyph-name="uni04A3" unicode="&#x4a3;" horiz-adv-x="754" 
d="M749 170v-298h-194v128h-92v167h-208v-167h-194v506h194v-166h208v166h194v-336h92z" />
    <glyph glyph-name="uni04A4" unicode="&#x4a4;" horiz-adv-x="1080" 
d="M265 656v-238h279v238h521v-180h-320v-476h-201v238h-279v-238h-201v656h201z" />
    <glyph glyph-name="uni04A5" unicode="&#x4a5;" horiz-adv-x="923" 
d="M255 506v-166h198v166h455v-173h-261v-333h-194v167h-198v-167h-194v506h194z" />
    <glyph glyph-name="uni04AA" unicode="&#x4aa;" horiz-adv-x="874" 
d="M227 28.5q-93 41.5 -144 118t-51 178.5v5q0 102 51 178.5t144 118.5t216 42q116 0 207.5 -37t143 -103.5t51.5 -150.5v-7h-205v7q0 48 -53.5 76t-144.5 28q-104 0 -154.5 -37t-50.5 -113v-10q0 -76 50 -112t156 -36q94 0 145.5 26.5t51.5 75.5v7h205v-7q0 -83 -51.5 -149
t-143 -103t-207.5 -37q-123 0 -216 41.5zM548 40v-183h-201v183h201z" />
    <glyph glyph-name="uni04AB" unicode="&#x4ab;" horiz-adv-x="670" 
d="M174 18.5q-70 31.5 -107.5 90t-37.5 138.5v9q0 81 37.5 140.5t107.5 91t165 31.5q90 0 159.5 -29t107.5 -81.5t38 -120.5v-6h-199v6q0 25 -29 40t-77 15q-57 0 -83.5 -21.5t-26.5 -68.5v-4q0 -44 27 -65t83 -21q51 0 78.5 14.5t27.5 40.5v6h199v-6q0 -71 -37 -123
t-105.5 -80t-162.5 -28q-95 0 -165 31.5zM431 36v-179h-193v179h193z" />
    <glyph glyph-name="uni04AE" unicode="&#x4ae;" horiz-adv-x="726" 
d="M735 656v-30l-271 -372v-254h-201v254l-272 372v30h210l163 -231l162 231h209z" />
    <glyph glyph-name="uni04AF" unicode="&#x4af;" horiz-adv-x="695" 
d="M696 479l-251 -498v-151h-194v151l-252 498v27h201l148 -303l147 303h201v-27z" />
    <glyph glyph-name="uni04B0" unicode="&#x4b0;" horiz-adv-x="726" 
d="M735 626l-212 -291h132v-180h-191v-155h-201v155h-191v180h132l-213 291v30h210l163 -231l162 231h209v-30z" />
    <glyph glyph-name="uni04B1" unicode="&#x4b1;" horiz-adv-x="695" 
d="M696 479l-171 -340h94v-140h-174v-169h-194v169h-175v140h95l-172 340v27h201l148 -303l147 303h201v-27z" />
    <glyph glyph-name="uni04B2" unicode="&#x4b2;" horiz-adv-x="812" 
d="M797 180v-313h-201v133h-54l-136 182l-144 -182h-232v30l244 298l-244 298v30h232l147 -186l148 186h232v-30l-244 -298l114 -148h138z" />
    <glyph glyph-name="uni04B3" unicode="&#x4b3;" horiz-adv-x="676" 
d="M671 170v-298h-194v128h-48l-102 130l-100 -130h-222v27l196 227l-193 225v27h221l98 -126l97 126h221v-27l-192 -225l73 -84h145z" />
    <glyph glyph-name="uni04B6" unicode="&#x4b6;" horiz-adv-x="850" 
d="M835 180v-313h-201v133h-100v223q-104 -13 -183 -13q-152 0 -229 65t-77 192v189h201v-169q0 -50 34 -73.5t105 -23.5q68 0 149 6v260h201v-476h100z" />
    <glyph glyph-name="uni04B7" unicode="&#x4b7;" horiz-adv-x="732" 
d="M708 170v-298h-194v128h-92v146q-74 -8 -132 -8q-260 0 -260 235v133h194v-128q0 -34 24.5 -50.5t77.5 -16.5t96 4v191h194v-336h92z" />
    <glyph glyph-name="uni04B8" unicode="&#x4b8;" horiz-adv-x="799" 
d="M735 656v-656h-201v223q-42 -6 -84 -9v-112h-118v108q-143 5 -215 69t-72 188v189h201v-169q0 -77 86 -93v121h118v-123q58 2 84 4v260h201z" />
    <glyph glyph-name="uni04B9" unicode="&#x4b9;" horiz-adv-x="677" 
d="M616 506v-506h-194v145q-12 -2 -40 -4v-90h-118v87q-116 5 -175 61.5t-59 162.5v144h194v-139q0 -43 40 -58v105h118v-113l40 3v202h194z" />
    <glyph glyph-name="uni04BA" unicode="&#x4ba;" horiz-adv-x="799" 
d="M677 381q77 -65 77 -192v-189h-201v169q0 50 -34 73.5t-105 23.5q-68 0 -149 -6v-260h-201v656h201v-223q104 13 183 13q152 0 229 -65z" />
    <glyph glyph-name="uni04BB" unicode="&#x4bb;" horiz-adv-x="711" 
d="M591 448.5q66 -70.5 66 -207.5v-241h-194v241q0 49 -26 75t-76 26q-35 0 -62.5 -14.5t-43.5 -41.5v-286h-194v696h194v-219q59 42 142 42q128 0 194 -70.5z" />
    <glyph glyph-name="uni04C0" unicode="&#x4c0;" horiz-adv-x="299" 
d="M250 656v-656h-201v656h201z" />
    <glyph glyph-name="uni04C1" unicode="&#x4c1;" horiz-adv-x="1257" 
d="M1227 626l-244 -285l225 -311v-30h-227l-169 238h-83v-238h-201v238h-83l-169 -238h-227v30l225 311l-244 285v30h236l190 -238h72v238h201v-238h72l190 238h236v-30zM459 742.5q-56 45.5 -56 138.5v10h156v-10q0 -43 70 -43q60 0 60 43v10h166v-10q0 -94 -55.5 -139
t-170.5 -45q-114 0 -170 45.5z" />
    <glyph glyph-name="uni04C2" unicode="&#x4c2;" horiz-adv-x="1018" 
d="M1013 27v-27h-209l-118 170h-80v-170h-194v170h-80l-118 -170h-209v27l166 232l-156 220v27h210l114 -166h73v166h194v-166h73l114 166h210v-27l-157 -220zM339 592.5q-56 45.5 -56 138.5v10h156v-10q0 -43 70 -43q60 0 60 43v10h166v-10q0 -94 -55.5 -139t-170.5 -45
q-114 0 -170 45.5z" />
    <glyph glyph-name="uni04CF" unicode="&#x4cf;" horiz-adv-x="286" 
d="M240 696v-696h-194v696h194z" />
    <glyph glyph-name="uni04D0" unicode="&#x4d0;" horiz-adv-x="770" 
d="M768 30v-30h-196l-43 108h-288l-43 -108h-196v30l272 626h222zM462 274l-77 191l-77 -191h154zM215 742.5q-56 45.5 -56 138.5v10h156v-10q0 -43 70 -43q60 0 60 43v10h166v-10q0 -94 -55.5 -139t-170.5 -45q-114 0 -170 45.5z" />
    <glyph glyph-name="uni04D1" unicode="&#x4d1;" horiz-adv-x="716" 
d="M706 170v-170h-109q-85 0 -127 50q-39 -30 -94 -46.5t-119 -16.5q-100 0 -157 41t-57 114q0 122 166 142l227 26q-12 50 -95 50q-96 0 -96 -40v-3h-198v3q0 61 36 105.5t103 69t157 24.5q137 0 213.5 -61t76.5 -170v-94q0 -13 6.5 -18.5t22.5 -5.5h44zM291 123
q41 0 82 13.5t65 33.5v33l-169 -20q-33 -4 -33 -29q0 -31 55 -31zM169 592.5q-56 45.5 -56 138.5v10h156v-10q0 -43 70 -43q60 0 60 43v10h166v-10q0 -94 -55.5 -139t-170.5 -45q-114 0 -170 45.5z" />
    <glyph glyph-name="uni04D2" unicode="&#x4d2;" horiz-adv-x="770" 
d="M768 30v-30h-196l-43 108h-288l-43 -108h-196v30l272 626h222zM462 274l-77 191l-77 -191h154zM178.5 728.5q-29.5 27.5 -29.5 71.5t29.5 71t76.5 27q46 0 75 -27t29 -71t-29 -71.5t-75 -27.5q-47 0 -76.5 27.5zM440 728.5q-29 27.5 -29 71.5t29 71t76 27t75.5 -27
t28.5 -71t-29 -71.5t-75 -27.5q-47 0 -76 27.5z" />
    <glyph glyph-name="uni04D3" unicode="&#x4d3;" horiz-adv-x="716" 
d="M706 170v-170h-109q-85 0 -127 50q-39 -30 -94 -46.5t-119 -16.5q-100 0 -157 41t-57 114q0 122 166 142l227 26q-12 50 -95 50q-96 0 -96 -40v-3h-198v3q0 61 36 105.5t103 69t157 24.5q137 0 213.5 -61t76.5 -170v-94q0 -13 6.5 -18.5t22.5 -5.5h44zM291 123
q41 0 82 13.5t65 33.5v33l-169 -20q-33 -4 -33 -29q0 -31 55 -31zM132.5 578.5q-29.5 27.5 -29.5 71.5t29.5 71t76.5 27q46 0 75 -27t29 -71t-29 -71.5t-75 -27.5q-47 0 -76.5 27.5zM394 578.5q-29 27.5 -29 71.5t29 71t76 27t75.5 -27t28.5 -71t-29 -71.5t-75 -27.5
q-47 0 -76 27.5z" />
    <glyph glyph-name="uni04D4" unicode="&#x4d4;" horiz-adv-x="1072" 
d="M618 484l15 -71h368v-169h-331l15 -72h336v-172h-509l-22 108h-248l-44 -108h-196v30l272 626h747v-172h-403zM415 484h-22l-85 -210h149z" />
    <glyph glyph-name="uni04D5" unicode="&#x4d5;" horiz-adv-x="1098" 
d="M1069 205h-427q14 -69 127 -69q40 0 66.5 8.5t33.5 23.5h199q-14 -86 -91 -133.5t-204 -47.5q-163 0 -248 73q-41 -35 -102 -54t-138 -19q-114 0 -178 41.5t-64 115.5q0 60 42 95.5t124 44.5l236 26q-15 50 -111 50q-89 0 -89 -40v-3h-198v3q0 61 36 106t103.5 69
t159.5 24q144 0 209 -65q74 65 214 65q143 0 221.5 -66.5t78.5 -187.5v-60zM686 360.5q-29 -14.5 -40 -42.5h224q-20 57 -110 57q-45 0 -74 -14.5zM385 138.5q48 15.5 70 38.5q-2 9 -4 25l-182 -24q-33 -4 -33 -30q0 -13 11.5 -19t38.5 -6q51 0 99 15.5z" />
    <glyph glyph-name="uni04D6" unicode="&#x4d6;" horiz-adv-x="723" 
d="M672 656v-172h-407v-71h387v-169h-387v-72h407v-172h-608v656h608zM198 742.5q-56 45.5 -56 138.5v10h156v-10q0 -43 70 -43q60 0 60 43v10h166v-10q0 -94 -55.5 -139t-170.5 -45q-114 0 -170 45.5z" />
    <glyph glyph-name="uni04D7" unicode="&#x4d7;" horiz-adv-x="671" 
d="M642 205h-417q6 -34 34 -51.5t77 -17.5q89 0 106 32h199q-16 -89 -93 -135t-211 -46q-144 0 -226 68t-82 188v17q0 80 37 138.5t106.5 89.5t164.5 31q149 0 227 -67.5t78 -196.5v-50zM266 360.5q-27 -14.5 -37 -42.5h214q-10 28 -37 42.5t-70 14.5t-70 -14.5zM166 592.5
q-56 45.5 -56 138.5v10h156v-10q0 -43 70 -43q60 0 60 43v10h166v-10q0 -94 -55.5 -139t-170.5 -45q-114 0 -170 45.5z" />
    <glyph glyph-name="uni04D8" unicode="&#x4d8;" horiz-adv-x="877" 
d="M649.5 629q94.5 -41 145 -118t50.5 -181v-5q0 -102 -49.5 -178.5t-141.5 -118t-214 -41.5q-129 0 -220.5 43.5t-139.5 126t-48 198.5v37h599q-18 54 -70 82t-134 28q-73 0 -120 -17t-58 -48h-213q14 71 66.5 124t136 81t188.5 28q128 0 222.5 -41zM557.5 177.5
q47.5 23.5 67.5 67.5h-380q16 -48 61.5 -69.5t131.5 -21.5q72 0 119.5 23.5z" />
    <glyph glyph-name="uni04D9" unicode="&#x4d9;" horiz-adv-x="671" 
d="M560 451q82 -68 82 -188v-17q0 -80 -37 -138.5t-106.5 -89.5t-164.5 -31q-149 0 -227 67.5t-78 196.5v50h417q-6 34 -34 51.5t-77 17.5q-89 0 -106 -32h-199q16 89 93 135t211 46q144 0 226 -68zM405 145.5q27 14.5 37 42.5h-214q10 -28 37 -42.5t70 -14.5t70 14.5z" />
    <glyph glyph-name="uni04DA" unicode="&#x4da;" horiz-adv-x="877" 
d="M649.5 629q94.5 -41 145 -118t50.5 -181v-5q0 -102 -49.5 -178.5t-141.5 -118t-214 -41.5q-129 0 -220.5 43.5t-139.5 126t-48 198.5v37h599q-18 54 -70 82t-134 28q-73 0 -120 -17t-58 -48h-213q14 71 66.5 124t136 81t188.5 28q128 0 222.5 -41zM557.5 177.5
q47.5 23.5 67.5 67.5h-380q16 -48 61.5 -69.5t131.5 -21.5q72 0 119.5 23.5zM232.5 728.5q-29.5 27.5 -29.5 71.5t29.5 71t76.5 27q46 0 75 -27t29 -71t-29 -71.5t-75 -27.5q-47 0 -76.5 27.5zM494 728.5q-29 27.5 -29 71.5t29 71t76 27t75.5 -27t28.5 -71t-29 -71.5
t-75 -27.5q-47 0 -76 27.5z" />
    <glyph glyph-name="uni04DB" unicode="&#x4db;" horiz-adv-x="671" 
d="M560 451q82 -68 82 -188v-17q0 -80 -37 -138.5t-106.5 -89.5t-164.5 -31q-149 0 -227 67.5t-78 196.5v50h417q-6 34 -34 51.5t-77 17.5q-89 0 -106 -32h-199q16 89 93 135t211 46q144 0 226 -68zM405 145.5q27 14.5 37 42.5h-214q10 -28 37 -42.5t70 -14.5t70 14.5z
M128.5 578.5q-29.5 27.5 -29.5 71.5t29.5 71t76.5 27q46 0 75 -27t29 -71t-29 -71.5t-75 -27.5q-47 0 -76.5 27.5zM390 578.5q-29 27.5 -29 71.5t29 71t76 27t75.5 -27t28.5 -71t-29 -71.5t-75 -27.5q-47 0 -76 27.5z" />
    <glyph glyph-name="uni04DC" unicode="&#x4dc;" horiz-adv-x="1257" 
d="M1227 626l-244 -285l225 -311v-30h-227l-169 238h-83v-238h-201v238h-83l-169 -238h-227v30l225 311l-244 285v30h236l190 -238h72v238h201v-238h72l190 238h236v-30zM422.5 728.5q-29.5 27.5 -29.5 71.5t29.5 71t76.5 27q46 0 75 -27t29 -71t-29 -71.5t-75 -27.5
q-47 0 -76.5 27.5zM684 728.5q-29 27.5 -29 71.5t29 71t76 27t75.5 -27t28.5 -71t-29 -71.5t-75 -27.5q-47 0 -76 27.5z" />
    <glyph glyph-name="uni04DD" unicode="&#x4dd;" horiz-adv-x="1018" 
d="M1013 27v-27h-209l-118 170h-80v-170h-194v170h-80l-118 -170h-209v27l166 232l-156 220v27h210l114 -166h73v166h194v-166h73l114 166h210v-27l-157 -220zM302.5 578.5q-29.5 27.5 -29.5 71.5t29.5 71t76.5 27q46 0 75 -27t29 -71t-29 -71.5t-75 -27.5q-47 0 -76.5 27.5
zM564 578.5q-29 27.5 -29 71.5t29 71t76 27t75.5 -27t28.5 -71t-29 -71.5t-75 -27.5q-47 0 -76 27.5z" />
    <glyph glyph-name="uni04DE" unicode="&#x4de;" horiz-adv-x="833" 
d="M758.5 279q23.5 -33 23.5 -76v-10q0 -64 -43 -110.5t-123.5 -71t-191.5 -24.5q-190 0 -286.5 73.5t-96.5 217.5v7h203v-7q0 -60 44 -87t143 -27q67 0 106 12.5t39 34.5v10q0 15 -10 21.5t-38 9t-87 2.5h-122v150h118q50 0 76 3t36.5 10.5t10.5 21.5v10q0 21 -36.5 32
t-105.5 11q-64 0 -100.5 -11t-53 -35t-16.5 -66v-7h-203v7q0 142 96 215.5t282 73.5q106 0 183.5 -24t118.5 -69.5t41 -107.5v-10q0 -80 -75 -124q44 -22 67.5 -55zM229.5 728.5q-29.5 27.5 -29.5 71.5t29.5 71t76.5 27q46 0 75 -27t29 -71t-29 -71.5t-75 -27.5
q-47 0 -76.5 27.5zM491 728.5q-29 27.5 -29 71.5t29 71t76 27t75.5 -27t28.5 -71t-29 -71.5t-75 -27.5q-47 0 -76 27.5z" />
    <glyph glyph-name="uni04DF" unicode="&#x4df;" horiz-adv-x="684" 
d="M649 148v-10q0 -75 -76 -113t-227 -38q-165 0 -238.5 55t-73.5 179v3h179v-3q0 -49 30.5 -71t98.5 -22q47 0 74.5 9t27.5 25v8q0 13 -11.5 18.5t-37.5 5.5h-134v120h124q26 0 37.5 5.5t11.5 18.5v8q0 31 -102 31q-64 0 -91.5 -21t-27.5 -71v-3h-179v3q0 119 75.5 176.5
t231.5 57.5q142 0 217 -40t75 -116v-10q0 -62 -49 -96q65 -35 65 -109zM141.5 578.5q-29.5 27.5 -29.5 71.5t29.5 71t76.5 27q46 0 75 -27t29 -71t-29 -71.5t-75 -27.5q-47 0 -76.5 27.5zM403 578.5q-29 27.5 -29 71.5t29 71t76 27t75.5 -27t28.5 -71t-29 -71.5t-75 -27.5
q-47 0 -76 27.5z" />
    <glyph glyph-name="uni04E2" unicode="&#x4e2;" horiz-adv-x="819" 
d="M262 656v-378l292 378h201v-656h-198v378l-292 -378h-201v656h198zM636 877v-152h-452v152h452z" />
    <glyph glyph-name="uni04E3" unicode="&#x4e3;" horiz-adv-x="713" 
d="M245 506v-273l233 273h174v-506h-184v272l-233 -272h-174v506h184zM583 727v-152h-452v152h452z" />
    <glyph glyph-name="uni04E4" unicode="&#x4e4;" horiz-adv-x="819" 
d="M262 656v-378l292 378h201v-656h-198v378l-292 -378h-201v656h198zM203.5 728.5q-29.5 27.5 -29.5 71.5t29.5 71t76.5 27q46 0 75 -27t29 -71t-29 -71.5t-75 -27.5q-47 0 -76.5 27.5zM465 728.5q-29 27.5 -29 71.5t29 71t76 27t75.5 -27t28.5 -71t-29 -71.5t-75 -27.5
q-47 0 -76 27.5z" />
    <glyph glyph-name="uni04E5" unicode="&#x4e5;" horiz-adv-x="713" 
d="M245 506v-273l233 273h174v-506h-184v272l-233 -272h-174v506h184zM150.5 578.5q-29.5 27.5 -29.5 71.5t29.5 71t76.5 27q46 0 75 -27t29 -71t-29 -71.5t-75 -27.5q-47 0 -76.5 27.5zM412 578.5q-29 27.5 -29 71.5t29 71t76 27t75.5 -27t28.5 -71t-29 -71.5t-75 -27.5
q-47 0 -76 27.5z" />
    <glyph glyph-name="uni04E6" unicode="&#x4e6;" horiz-adv-x="877" 
d="M225 28.5q-92 41.5 -142.5 118.5t-50.5 178v5q0 101 50.5 178t142.5 119t213 42q123 0 215 -42t142 -118.5t50 -178.5v-5q0 -102 -50 -178.5t-142 -118t-215 -41.5q-121 0 -213 41.5zM591 210.5q49 36.5 49 111.5v10q0 150 -202 150q-99 0 -150 -38t-51 -112v-10
q0 -75 50 -111.5t151 -36.5q104 0 153 36.5zM234.5 728.5q-29.5 27.5 -29.5 71.5t29.5 71t76.5 27q46 0 75 -27t29 -71t-29 -71.5t-75 -27.5q-47 0 -76.5 27.5zM496 728.5q-29 27.5 -29 71.5t29 71t76 27t75.5 -27t28.5 -71t-29 -71.5t-75 -27.5q-47 0 -76 27.5z" />
    <glyph glyph-name="uni04E7" unicode="&#x4e7;" horiz-adv-x="685" 
d="M175 18.5q-71 31.5 -108.5 90.5t-37.5 138v9q0 81 37.5 140t108.5 91t169 32q148 0 230 -70t82 -193v-9q0 -121 -82 -190.5t-230 -69.5q-98 0 -169 31.5zM427 184.5q29 21.5 29 64.5v4q0 45 -29 67.5t-84 22.5q-56 0 -85 -22.5t-29 -67.5v-4q0 -43 29.5 -64.5t84.5 -21.5
t84 21.5zM136.5 578.5q-29.5 27.5 -29.5 71.5t29.5 71t76.5 27q46 0 75 -27t29 -71t-29 -71.5t-75 -27.5q-47 0 -76.5 27.5zM398 578.5q-29 27.5 -29 71.5t29 71t76 27t75.5 -27t28.5 -71t-29 -71.5t-75 -27.5q-47 0 -76 27.5z" />
    <glyph glyph-name="uni04E8" unicode="&#x4e8;" horiz-adv-x="877" 
d="M654 627.5q92 -41.5 141.5 -118.5t49.5 -179v-5q0 -102 -49.5 -178.5t-141.5 -118t-214 -41.5t-214.5 41.5t-143 118t-50.5 178.5v5q0 102 50.5 178.5t143 118.5t214.5 42t214 -41.5zM247 412h383q-34 90 -191 90q-156 0 -192 -90zM630 245h-383q34 -91 192 -91
q157 0 191 91z" />
    <glyph glyph-name="uni04E9" unicode="&#x4e9;" horiz-adv-x="685" 
d="M573.5 449.5q82.5 -69.5 82.5 -193.5v-9q0 -122 -82.5 -191t-229.5 -69q-97 0 -168 31.5t-109 90t-38 138.5v9q0 81 38 140.5t109 91t168 31.5q147 0 229.5 -69.5zM254 361.5q-33 -15.5 -46 -48.5h270q-13 33 -46 48.5t-89 15.5t-89 -15.5zM433.5 144.5
q33.5 15.5 45.5 48.5h-272q12 -33 45.5 -48.5t90.5 -15.5t90.5 15.5z" />
    <glyph glyph-name="uni04EE" unicode="&#x4ee;" horiz-adv-x="763" 
d="M757 656v-30l-234 -452q-50 -97 -104 -135.5t-138 -38.5h-173v180h166h5l-261 446v30h207l174 -323l151 323h207zM619 877v-152h-452v152h452z" />
    <glyph glyph-name="uni04EF" unicode="&#x4ef;" horiz-adv-x="697" 
d="M697 506v-27l-252 -534q-26 -56 -73.5 -85.5t-131.5 -29.5h-168v170h149q12 0 17 1l-238 478v27h207l147 -309l136 309h207zM575 727v-152h-452v152h452z" />
    <glyph glyph-name="uni04F0" unicode="&#x4f0;" horiz-adv-x="763" 
d="M757 656v-30l-234 -452q-50 -97 -104 -135.5t-138 -38.5h-173v180h166h5l-261 446v30h207l174 -323l151 323h207zM186.5 728.5q-29.5 27.5 -29.5 71.5t29.5 71t76.5 27q46 0 75 -27t29 -71t-29 -71.5t-75 -27.5q-47 0 -76.5 27.5zM448 728.5q-29 27.5 -29 71.5t29 71
t76 27t75.5 -27t28.5 -71t-29 -71.5t-75 -27.5q-47 0 -76 27.5z" />
    <glyph glyph-name="uni04F1" unicode="&#x4f1;" horiz-adv-x="697" 
d="M697 506v-27l-252 -534q-26 -56 -73.5 -85.5t-131.5 -29.5h-168v170h149q12 0 17 1l-238 478v27h207l147 -309l136 309h207zM142.5 578.5q-29.5 27.5 -29.5 71.5t29.5 71t76.5 27q46 0 75 -27t29 -71t-29 -71.5t-75 -27.5q-47 0 -76.5 27.5zM404 578.5q-29 27.5 -29 71.5
t29 71t76 27t75.5 -27t28.5 -71t-29 -71.5t-75 -27.5q-47 0 -76 27.5z" />
    <glyph glyph-name="uni04F2" unicode="&#x4f2;" horiz-adv-x="763" 
d="M757 656v-30l-234 -452q-50 -97 -104 -135.5t-138 -38.5h-173v180h166h5l-261 446v30h207l174 -323l151 323h207zM406 906v-154l-280 -57v154zM726 906v-154l-280 -57v154z" />
    <glyph glyph-name="uni04F3" unicode="&#x4f3;" horiz-adv-x="697" 
d="M697 506v-27l-252 -534q-26 -56 -73.5 -85.5t-131.5 -29.5h-168v170h149q12 0 17 1l-238 478v27h207l147 -309l136 309h207zM362 756v-154l-280 -57v154zM682 756v-154l-280 -57v154z" />
    <glyph glyph-name="uni04F4" unicode="&#x4f4;" horiz-adv-x="799" 
d="M735 656v-656h-201v223q-104 -13 -183 -13q-152 0 -229 65t-77 192v189h201v-169q0 -50 34 -73.5t105 -23.5q68 0 149 6v260h201zM194.5 728.5q-29.5 27.5 -29.5 71.5t29.5 71t76.5 27q46 0 75 -27t29 -71t-29 -71.5t-75 -27.5q-47 0 -76.5 27.5zM456 728.5
q-29 27.5 -29 71.5t29 71t76 27t75.5 -27t28.5 -71t-29 -71.5t-75 -27.5q-47 0 -76 27.5z" />
    <glyph glyph-name="uni04F5" unicode="&#x4f5;" horiz-adv-x="677" 
d="M616 506v-506h-194v146q-74 -8 -132 -8q-260 0 -260 235v133h194v-128q0 -34 24.5 -50.5t77.5 -16.5t96 4v191h194zM118.5 578.5q-29.5 27.5 -29.5 71.5t29.5 71t76.5 27q46 0 75 -27t29 -71t-29 -71.5t-75 -27.5q-47 0 -76.5 27.5zM380 578.5q-29 27.5 -29 71.5t29 71
t76 27t75.5 -27t28.5 -71t-29 -71.5t-75 -27.5q-47 0 -76 27.5z" />
    <glyph glyph-name="uni04F8" unicode="&#x4f8;" horiz-adv-x="1013" 
d="M265 656v-202h179q130 0 197 -55.5t67 -162.5v-12q0 -109 -67.5 -166t-196.5 -57h-380v655h201zM949 656v-656h-201v656h201zM487.5 186q15.5 12 15.5 37v12q0 47 -64 47h-174v-108h174q33 0 48.5 12zM300.5 728.5q-29.5 27.5 -29.5 71.5t29.5 71t76.5 27q46 0 75 -27
t29 -71t-29 -71.5t-75 -27.5q-47 0 -76.5 27.5zM562 728.5q-29 27.5 -29 71.5t29 71t76 27t75.5 -27t28.5 -71t-29 -71.5t-75 -27.5q-47 0 -76 27.5z" />
    <glyph glyph-name="uni04F9" unicode="&#x4f9;" horiz-adv-x="902" 
d="M522 379.5q52 -24.5 80 -69t28 -103.5v-10q0 -90 -62 -143.5t-167 -53.5h-355v506h194v-102h161q69 0 121 -24.5zM856 506v-506h-194v506h194zM433 208q0 18 -12.5 29.5t-31.5 11.5h-149v-94h149q19 0 31.5 11.5t12.5 29.5v12zM244.5 578.5q-29.5 27.5 -29.5 71.5
t29.5 71t76.5 27q46 0 75 -27t29 -71t-29 -71.5t-75 -27.5q-47 0 -76.5 27.5zM506 578.5q-29 27.5 -29 71.5t29 71t76 27t75.5 -27t28.5 -71t-29 -71.5t-75 -27.5q-47 0 -76 27.5z" />
    <glyph glyph-name="uni1E62" unicode="&#x1e62;" horiz-adv-x="771" 
d="M133.5 48q-86.5 61 -86.5 177v10h195v-10q0 -34 39 -52.5t110 -18.5q129 0 129 43v6q0 27 -65 37l-185 29q-108 17 -161 62t-53 120v10q0 99 84 153.5t236 54.5q161 0 246.5 -58.5t85.5 -167.5v-8h-193v8q0 30 -34 44.5t-105 14.5q-120 0 -120 -36v-6q0 -11 14.5 -18.5
t48.5 -12.5l186 -29q111 -17 165 -63.5t54 -124.5v-10q0 -102 -89.5 -158.5t-250.5 -56.5q-164 0 -250.5 61zM302 -221q-31 29 -31 76t31.5 76.5t80.5 29.5q50 0 81 -29.5t31 -76.5t-31 -76t-81 -29t-81 29z" />
    <glyph glyph-name="uni1E63" unicode="&#x1e63;" horiz-adv-x="688" 
d="M120.5 34.5q-80.5 47.5 -80.5 135.5v3h177v-3q0 -23 31 -33.5t101 -10.5q53 0 82 5.5t29 16.5v4q0 9 -9.5 13.5t-34.5 6.5l-142 14q-115 11 -169 48t-54 104v10q0 82 78 126.5t220 44.5q146 0 220 -46t74 -137v-3h-176v3q0 24 -28 34t-96 10q-111 0 -111 -21v-4
q0 -15 43 -19l145 -15q117 -12 171.5 -49t54.5 -104v-10q0 -81 -78 -126t-219 -45q-148 0 -228.5 47.5zM277 -221q-31 29 -31 76t31.5 76.5t80.5 29.5q50 0 81 -29.5t31 -76.5t-31 -76t-81 -29t-81 29z" />
    <glyph glyph-name="Wgrave" unicode="&#x1e80;" horiz-adv-x="1175" 
d="M1173 656v-30l-211 -626h-245l-129 396l-128 -396h-245l-213 626v30h204l133 -423l140 423h218l141 -422l131 422h204zM362 908l452 -60v-152l-452 60v152z" />
    <glyph glyph-name="wgrave" unicode="&#x1e81;" horiz-adv-x="1067" 
d="M1067 506v-27l-182 -479h-255l-97 256l-96 -256h-254l-183 479v27h210l102 -310l119 310h203l123 -318l110 318h200zM308 758l452 -60v-152l-452 60v152z" />
    <glyph glyph-name="Wacute" unicode="&#x1e82;" horiz-adv-x="1175" 
d="M1173 656v-30l-211 -626h-245l-129 396l-128 -396h-245l-213 626v30h204l133 -423l140 423h218l141 -422l131 422h204zM814 907v-152l-452 -60v152z" />
    <glyph glyph-name="wacute" unicode="&#x1e83;" horiz-adv-x="1067" 
d="M1067 506v-27l-182 -479h-255l-97 256l-96 -256h-254l-183 479v27h210l102 -310l119 310h203l123 -318l110 318h200zM760 757v-152l-452 -60v152z" />
    <glyph glyph-name="Wdieresis" unicode="&#x1e84;" horiz-adv-x="1175" 
d="M1173 656v-30l-211 -626h-245l-129 396l-128 -396h-245l-213 626v30h204l133 -423l140 423h218l141 -422l131 422h204zM381.5 728.5q-29.5 27.5 -29.5 71.5t29.5 71t76.5 27q46 0 75 -27t29 -71t-29 -71.5t-75 -27.5q-47 0 -76.5 27.5zM643 728.5q-29 27.5 -29 71.5
t29 71t76 27t75.5 -27t28.5 -71t-29 -71.5t-75 -27.5q-47 0 -76 27.5z" />
    <glyph glyph-name="wdieresis" unicode="&#x1e85;" horiz-adv-x="1067" 
d="M1067 506v-27l-182 -479h-255l-97 256l-96 -256h-254l-183 479v27h210l102 -310l119 310h203l123 -318l110 318h200zM327.5 578.5q-29.5 27.5 -29.5 71.5t29.5 71t76.5 27q46 0 75 -27t29 -71t-29 -71.5t-75 -27.5q-47 0 -76.5 27.5zM589 578.5q-29 27.5 -29 71.5t29 71
t76 27t75.5 -27t28.5 -71t-29 -71.5t-75 -27.5q-47 0 -76 27.5z" />
    <glyph glyph-name="uni1E9E" unicode="&#x1e9e;" horiz-adv-x="821" 
d="M745.5 332.5q42.5 -43.5 42.5 -122.5v-10q0 -101 -65.5 -150.5t-198.5 -49.5h-141v170h136q64 0 64 32v10q0 33 -64 33h-136v145l122 86h-206q-34 0 -34 -32v-444h-201v469q0 93 50.5 140t150.5 47h480v-180l-132 -87q90 -13 132.5 -56.5z" />
    <glyph glyph-name="uni1EB8" unicode="&#x1eb8;" horiz-adv-x="723" 
d="M672 656v-172h-407v-71h387v-169h-387v-72h407v-172h-608v656h608zM287 -221q-31 29 -31 76t31.5 76.5t80.5 29.5q50 0 81 -29.5t31 -76.5t-31 -76t-81 -29t-81 29z" />
    <glyph glyph-name="uni1EB9" unicode="&#x1eb9;" horiz-adv-x="671" 
d="M642 205h-417q6 -34 34 -51.5t77 -17.5q89 0 106 32h199q-16 -89 -93 -135t-211 -46q-144 0 -226 68t-82 188v17q0 80 37 138.5t106.5 89.5t164.5 31q149 0 227 -67.5t78 -196.5v-50zM266 360.5q-27 -14.5 -37 -42.5h214q-10 28 -37 42.5t-70 14.5t-70 -14.5zM255 -221
q-31 29 -31 76t31.5 76.5t80.5 29.5q50 0 81 -29.5t31 -76.5t-31 -76t-81 -29t-81 29z" />
    <glyph glyph-name="uni1EBC" unicode="&#x1ebc;" horiz-adv-x="723" 
d="M672 656v-172h-407v-71h387v-169h-387v-72h407v-172h-608v656h608zM426 714.5q-24 3.5 -62 10.5q-35 7 -58.5 10.5t-48.5 3.5q-59 0 -115 -27v150q58 29 117 29q32 0 66.5 -7t41.5 -8q35 -8 60.5 -12t51.5 -4q63 0 115 26v-150q-53 -25 -117 -25q-27 0 -51 3.5z" />
    <glyph glyph-name="uni1EBD" unicode="&#x1ebd;" horiz-adv-x="671" 
d="M642 205h-417q6 -34 34 -51.5t77 -17.5q89 0 106 32h199q-16 -89 -93 -135t-211 -46q-144 0 -226 68t-82 188v17q0 80 37 138.5t106.5 89.5t164.5 31q149 0 227 -67.5t78 -196.5v-50zM266 360.5q-27 -14.5 -37 -42.5h214q-10 28 -37 42.5t-70 14.5t-70 -14.5zM394 564.5
q-24 3.5 -62 10.5q-35 7 -58.5 10.5t-48.5 3.5q-59 0 -115 -27v150q58 29 117 29q32 0 66.5 -7t41.5 -8q35 -8 60.5 -12t51.5 -4q63 0 115 26v-150q-53 -25 -117 -25q-27 0 -51 3.5z" />
    <glyph glyph-name="uni1ECA" unicode="&#x1eca;" horiz-adv-x="299" 
d="M250 656v-656h-201v656h201zM69 -221q-31 29 -31 76t31.5 76.5t80.5 29.5q50 0 81 -29.5t31 -76.5t-31 -76t-81 -29t-81 29z" />
    <glyph glyph-name="uni1ECB" unicode="&#x1ecb;" horiz-adv-x="286" 
d="M240 506v-506h-194v506h194zM62.5 574.5q-31.5 29.5 -31.5 76.5t31 76t81 29t81 -29t31 -76t-31 -76.5t-81 -29.5q-49 0 -80.5 29.5zM62 -221q-31 29 -31 76t31.5 76.5t80.5 29.5q50 0 81 -29.5t31 -76.5t-31 -76t-81 -29t-81 29z" />
    <glyph glyph-name="uni1ECC" unicode="&#x1ecc;" horiz-adv-x="877" 
d="M225 28.5q-92 41.5 -142.5 118.5t-50.5 178v5q0 101 50.5 178t142.5 119t213 42q123 0 215 -42t142 -118.5t50 -178.5v-5q0 -102 -50 -178.5t-142 -118t-215 -41.5q-121 0 -213 41.5zM591 210.5q49 36.5 49 111.5v10q0 150 -202 150q-99 0 -150 -38t-51 -112v-10
q0 -75 50 -111.5t151 -36.5q104 0 153 36.5zM358 -221q-31 29 -31 76t31.5 76.5t80.5 29.5q50 0 81 -29.5t31 -76.5t-31 -76t-81 -29t-81 29z" />
    <glyph glyph-name="uni1ECD" unicode="&#x1ecd;" horiz-adv-x="685" 
d="M175 18.5q-71 31.5 -108.5 90.5t-37.5 138v9q0 81 37.5 140t108.5 91t169 32q148 0 230 -70t82 -193v-9q0 -121 -82 -190.5t-230 -69.5q-98 0 -169 31.5zM427 184.5q29 21.5 29 64.5v4q0 45 -29 67.5t-84 22.5q-56 0 -85 -22.5t-29 -67.5v-4q0 -43 29.5 -64.5t84.5 -21.5
t84 21.5zM262 -221q-31 29 -31 76t31.5 76.5t80.5 29.5q50 0 81 -29.5t31 -76.5t-31 -76t-81 -29t-81 29z" />
    <glyph glyph-name="uni1EE4" unicode="&#x1ee4;" horiz-adv-x="793" 
d="M215.5 27.5q-77.5 40.5 -119.5 115.5t-42 174v339h201v-343q0 -139 141 -139q72 0 107 34.5t35 104.5v343h201v-339q0 -100 -42.5 -174.5t-120 -115t-180.5 -40.5t-180.5 40.5zM316 -221q-31 29 -31 76t31.5 76.5t80.5 29.5q50 0 81 -29.5t31 -76.5t-31 -76t-81 -29
t-81 29z" />
    <glyph glyph-name="uni1EE5" unicode="&#x1ee5;" horiz-adv-x="711" 
d="M650 506v-506h-180l-4 36q-63 -49 -152 -49q-127 -1 -193.5 68.5t-66.5 209.5v241h194v-241q0 -49 26 -75t76 -26q35 0 62.5 14.5t43.5 41.5v286h194zM275 -221q-31 29 -31 76t31.5 76.5t80.5 29.5q50 0 81 -29.5t31 -76.5t-31 -76t-81 -29t-81 29z" />
    <glyph glyph-name="Ygrave" unicode="&#x1ef2;" horiz-adv-x="726" 
d="M735 656v-30l-271 -372v-254h-201v254l-272 372v30h210l163 -231l162 231h209zM138 908l452 -60v-152l-452 60v152z" />
    <glyph glyph-name="ygrave" unicode="&#x1ef3;" horiz-adv-x="697" 
d="M697 506v-27l-252 -534q-26 -56 -73.5 -85.5t-131.5 -29.5h-168v170h149q12 0 17 1l-238 478v27h207l147 -309l136 309h207zM123 758l452 -60v-152l-452 60v152z" />
    <glyph glyph-name="uni1EF8" unicode="&#x1ef8;" horiz-adv-x="726" 
d="M735 656v-30l-271 -372v-254h-201v254l-272 372v30h210l163 -231l162 231h209zM422 714.5q-24 3.5 -62 10.5q-35 7 -58.5 10.5t-48.5 3.5q-59 0 -115 -27v150q58 29 117 29q32 0 66.5 -7t41.5 -8q35 -8 60.5 -12t51.5 -4q63 0 115 26v-150q-53 -25 -117 -25
q-27 0 -51 3.5z" />
    <glyph glyph-name="uni1EF9" unicode="&#x1ef9;" horiz-adv-x="697" 
d="M697 506v-27l-252 -534q-26 -56 -73.5 -85.5t-131.5 -29.5h-168v170h149q12 0 17 1l-238 478v27h207l147 -309l136 309h207zM407 564.5q-24 3.5 -62 10.5q-35 7 -58.5 10.5t-48.5 3.5q-59 0 -115 -27v150q58 29 117 29q32 0 66.5 -7t41.5 -8q35 -8 60.5 -12t51.5 -4
q63 0 115 26v-150q-53 -25 -117 -25q-27 0 -51 3.5z" />
    <glyph glyph-name="uni2009" unicode="&#x2009;" horiz-adv-x="200" 
 />
    <glyph glyph-name="uni2010" unicode="&#x2010;" horiz-adv-x="442" 
d="M392 365v-173h-342v173h342z" />
    <glyph glyph-name="uni2011" unicode="&#x2011;" horiz-adv-x="442" 
d="M392 365v-173h-342v173h342z" />
    <glyph glyph-name="endash" unicode="&#x2013;" horiz-adv-x="564" 
d="M514 365v-173h-464v173h464z" />
    <glyph glyph-name="emdash" unicode="&#x2014;" horiz-adv-x="1122" 
d="M1054 365v-173h-986v173h986z" />
    <glyph glyph-name="uni2015" unicode="&#x2015;" horiz-adv-x="1122" 
d="M1054 365v-173h-986v173h986z" />
    <glyph glyph-name="quoteleft" unicode="&#x2018;" horiz-adv-x="334" 
d="M33 410l106 286h174l-69 -313h-211v27z" />
    <glyph glyph-name="quoteright" unicode="&#x2019;" horiz-adv-x="334" 
d="M301 696v-27l-106 -286h-174l69 313h211z" />
    <glyph glyph-name="quotesinglbase" unicode="&#x201a;" horiz-adv-x="334" 
d="M301 170v-27l-106 -286h-174l69 313h211z" />
    <glyph glyph-name="quotedblleft" unicode="&#x201c;" horiz-adv-x="583" 
d="M33 410l106 286h164l-69 -313h-201v27zM292 410l106 286h164l-69 -313h-201v27z" />
    <glyph glyph-name="quotedblright" unicode="&#x201d;" horiz-adv-x="583" 
d="M291 696v-27l-106 -286h-164l69 313h201zM550 696v-27l-106 -286h-164l69 313h201z" />
    <glyph glyph-name="quotedblbase" unicode="&#x201e;" horiz-adv-x="583" 
d="M291 170v-27l-106 -286h-164l69 313h201zM550 170v-27l-106 -286h-164l69 313h201z" />
    <glyph glyph-name="dagger" unicode="&#x2020;" horiz-adv-x="531" 
d="M511 420h-150v-192h-190v192h-151v159h151v106h190v-106h150v-159z" />
    <glyph glyph-name="daggerdbl" unicode="&#x2021;" horiz-adv-x="531" 
d="M356 475v-47h155v-129h-155v-81h-180v81h-156v129h156v47h-156v129h156v81h180v-81h155v-129h-155z" />
    <glyph glyph-name="bullet" unicode="&#x2022;" horiz-adv-x="497" 
d="M126.5 172q-47.5 46 -47.5 119q0 72 47 117.5t122 45.5q76 0 123 -45t47 -118q0 -74 -47 -119.5t-123 -45.5q-74 0 -121.5 46z" />
    <glyph glyph-name="ellipsis" unicode="&#x2026;" horiz-adv-x="906" 
d="M86 17q-31 30 -31 79q0 48 31 78t81 30t81 -30t31 -78q0 -49 -31 -79t-81 -30t-81 30zM372 17q-31 30 -31 79q0 48 31 78t81 30t81 -30t31 -78q0 -49 -31 -79t-81 -30t-81 30zM658 17q-31 30 -31 79q0 48 31 78t81 30t81 -30t31 -78q0 -49 -31 -79t-81 -30t-81 30z" />
    <glyph glyph-name="perthousand" unicode="&#x2030;" horiz-adv-x="1414" 
d="M72 381q-56 42 -56 113v14q0 73 55 114.5t152 41.5t151 -41t54 -115v-14q0 -72 -55 -113.5t-150 -41.5t-151 42zM258.5 469q13.5 10 13.5 27v10q0 18 -13.5 28t-36.5 10t-36.5 -10t-13.5 -28v-10q0 -17 13.5 -27t36.5 -10t36.5 10zM598 35q-56 42 -56 113v14
q0 73 55 114.5t152 41.5t151 -41t54 -115v-14q0 -72 -55 -113.5t-150 -41.5t-151 42zM784.5 123q13.5 10 13.5 27v10q0 18 -13.5 28t-36.5 10t-36.5 -10t-13.5 -28v-10q0 -17 13.5 -27t36.5 -10t36.5 10zM659 656h190v-30l-539 -626h-190v27zM1042 35q-56 42 -56 113v14
q0 73 55 114.5t152 41.5t151 -41t54 -115v-14q0 -72 -55 -113.5t-150 -41.5t-151 42zM1228.5 123q13.5 10 13.5 27v10q0 18 -13.5 28t-36.5 10t-36.5 -10t-13.5 -28v-10q0 -17 13.5 -27t36.5 -10t36.5 10z" />
    <glyph glyph-name="minute" unicode="&#x2032;" horiz-adv-x="334" 
d="M301 656v-27l-106 -302h-174l69 329h211z" />
    <glyph glyph-name="second" unicode="&#x2033;" horiz-adv-x="573" 
d="M291 656v-27l-106 -302h-164l69 329h201zM540 656v-27l-106 -302h-164l69 329h201z" />
    <glyph glyph-name="guilsinglleft" unicode="&#x2039;" horiz-adv-x="515" 
d="M46 292l201 214h210v-27l-183 -201l183 -201v-27h-210l-201 214v28z" />
    <glyph glyph-name="guilsinglright" unicode="&#x203a;" horiz-adv-x="515" 
d="M268 50h-210v27l183 201l-183 201v27h210l201 -214v-28z" />
    <glyph glyph-name="fraction" unicode="&#x2044;" horiz-adv-x="369" 
d="M359 656h190v-30l-539 -626h-190v27z" />
    <glyph glyph-name="uni2070" unicode="&#x2070;" 
d="M81.5 392q-71.5 56 -71.5 153v10q0 99 71.5 155t196.5 56t195.5 -55.5t70.5 -155.5v-10q0 -98 -70.5 -153.5t-195.5 -55.5t-196.5 56zM354.5 494.5q26.5 18.5 26.5 53.5v5q0 73 -104 73t-104 -73v-5q0 -35 26.5 -53.5t77.5 -18.5t77.5 18.5z" />
    <glyph glyph-name="uni2074" unicode="&#x2074;" 
d="M19 404v132q60 102 80 221h173v-24q-28 -122 -64 -197h96v153h169v-153h69v-132h-69v-61h-169v61h-285z" />
    <glyph glyph-name="uni2075" unicode="&#x2075;" 
d="M96 370q-60 36 -60 115v3h158v-2q0 -14 20 -20t69 -6q90 0 90 22v4q0 10 -17 13.5t-74 4.5q-21 1 -56 -1q-11 -1 -30 -1h-159l13 255h456v-122h-319l-2 -39q51 19 128 19q105 0 164 -34.5t59 -96.5v-4q0 -74 -61.5 -110t-188.5 -36q-130 0 -190 36z" />
    <glyph glyph-name="uni2076" unicode="&#x2076;" 
d="M87.5 381.5q-71.5 47.5 -71.5 132.5v63q0 91 71 140t202 49q119 0 183 -40t64 -114v-3h-160v3q0 30 -88 30q-109 0 -109 -49v-7q54 18 129 18q112 0 173.5 -31.5t61.5 -89.5v-4q0 -71 -66 -108t-190 -37q-128 0 -199.5 47.5zM356 457.5q22 6.5 22 19.5v4q0 12 -18 17
t-62 5q-83 0 -119 -17v-3q0 -32 108 -32q47 0 69 6.5z" />
    <glyph glyph-name="uni2077" unicode="&#x2077;" 
d="M193 486.5q46 69.5 129 137.5h-288v132h483v-132q-88 -72 -137 -141t-49 -120v-20h-184v20q0 54 46 123.5z" />
    <glyph glyph-name="uni2078" unicode="&#x2078;" 
d="M83.5 368.5q-65.5 34.5 -65.5 101.5v12q0 54 52 82q-31 28 -31 64v12q0 37 30 65.5t84 44.5t124 16t124 -16t84 -44.5t30 -65.5v-12q0 -36 -31 -64q52 -28 52 -82v-12q0 -67 -65.5 -101.5t-193.5 -34.5t-193.5 34.5zM343.5 604.5q19.5 5.5 19.5 18.5v4q0 13 -20 18.5
t-66 5.5t-66 -5.5t-20 -18.5v-4q0 -13 20.5 -18.5t66.5 -5.5t65.5 5.5zM351 457q21 5 21 18v4q0 13 -22.5 18.5t-72.5 5.5t-72.5 -5.5t-22.5 -18.5v-4q0 -13 21 -18t74 -5t74 5z" />
    <glyph glyph-name="uni2079" unicode="&#x2079;" 
d="M82 373q-64 40 -64 114v3h160v-3q0 -30 88 -30q109 0 109 49v7q-54 -18 -129 -18q-112 0 -173.5 31.5t-61.5 89.5v4q0 71 66 108t190 37q128 0 199.5 -47.5t71.5 -132.5v-63q0 -91 -71 -140t-202 -49q-119 0 -183 40zM375 613v3q0 32 -108 32q-47 0 -69 -6t-22 -20v-4
q0 -12 18 -17t62 -5q83 0 119 17z" />
    <glyph glyph-name="uni2080" unicode="&#x2080;" 
d="M81.5 -51q-71.5 56 -71.5 153v10q0 99 71.5 155t196.5 56t195.5 -55.5t70.5 -155.5v-10q0 -98 -70.5 -153.5t-195.5 -55.5t-196.5 56zM354.5 51.5q26.5 18.5 26.5 53.5v5q0 73 -104 73t-104 -73v-5q0 -35 26.5 -53.5t77.5 -18.5t77.5 18.5z" />
    <glyph glyph-name="uni2081" unicode="&#x2081;" 
d="M238 33v121q-16 -4 -40 -4h-118v133h114q26 0 35 6.5t9 24.5h165v-281h134v-132h-457v132h158z" />
    <glyph glyph-name="uni2082" unicode="&#x2082;" 
d="M302 125q32 14 41.5 20.5t9.5 14.5v4q0 13 -16.5 18.5t-54.5 5.5q-37 0 -58 -10.5t-21 -28.5v-9h-160v9q0 88 58.5 131t177.5 43q112 0 175 -37t63 -103v-10q0 -44 -28 -73t-96 -57l-51 -21h178v-122h-474v116z" />
    <glyph glyph-name="uni2083" unicode="&#x2083;" 
d="M91 -69.5q-62 38.5 -62 117.5v3h161v-3q0 -14 20.5 -20t68.5 -6q90 0 90 22v4q0 11 -19 14.5t-72 3.5h-101v86l94 36h-232v126h480v-126l-114 -39l14 -3q56 -12 85 -41t29 -72v-6q0 -67 -64 -101.5t-189 -34.5q-127 1 -189 39.5z" />
    <glyph glyph-name="uni2084" unicode="&#x2084;" 
d="M19 -39v132q60 102 80 221h173v-24q-28 -122 -64 -197h96v153h169v-153h69v-132h-69v-61h-169v61h-285z" />
    <glyph glyph-name="uni2085" unicode="&#x2085;" 
d="M96 -73q-60 36 -60 115v3h158v-2q0 -14 20 -20t69 -6q90 0 90 22v4q0 10 -17 13.5t-74 4.5q-21 1 -56 -1q-11 -1 -30 -1h-159l13 255h456v-122h-319l-2 -39q51 19 128 19q105 0 164 -34.5t59 -96.5v-4q0 -74 -61.5 -110t-188.5 -36q-130 0 -190 36z" />
    <glyph glyph-name="uni2086" unicode="&#x2086;" 
d="M87.5 -61.5q-71.5 47.5 -71.5 132.5v63q0 91 71 140t202 49q119 0 183 -40t64 -114v-3h-160v3q0 30 -88 30q-109 0 -109 -49v-7q54 18 129 18q112 0 173.5 -31.5t61.5 -89.5v-4q0 -71 -66 -108t-190 -37q-128 0 -199.5 47.5zM356 14.5q22 6.5 22 19.5v4q0 12 -18 17
t-62 5q-83 0 -119 -17v-3q0 -32 108 -32q47 0 69 6.5z" />
    <glyph glyph-name="uni2087" unicode="&#x2087;" 
d="M193 43.5q46 69.5 129 137.5h-288v132h483v-132q-88 -72 -137 -141t-49 -120v-20h-184v20q0 54 46 123.5z" />
    <glyph glyph-name="uni2088" unicode="&#x2088;" 
d="M83.5 -74.5q-65.5 34.5 -65.5 101.5v12q0 54 52 82q-31 28 -31 64v12q0 37 30 65.5t84 44.5t124 16t124 -16t84 -44.5t30 -65.5v-12q0 -36 -31 -64q52 -28 52 -82v-12q0 -67 -65.5 -101.5t-193.5 -34.5t-193.5 34.5zM343.5 161.5q19.5 5.5 19.5 18.5v4q0 13 -20 18.5
t-66 5.5t-66 -5.5t-20 -18.5v-4q0 -13 20.5 -18.5t66.5 -5.5t65.5 5.5zM351 14q21 5 21 18v4q0 13 -22.5 18.5t-72.5 5.5t-72.5 -5.5t-22.5 -18.5v-4q0 -13 21 -18t74 -5t74 5z" />
    <glyph glyph-name="uni2089" unicode="&#x2089;" 
d="M82 -70q-64 40 -64 114v3h160v-3q0 -30 88 -30q109 0 109 49v7q-54 -18 -129 -18q-112 0 -173.5 31.5t-61.5 89.5v4q0 71 66 108t190 37q128 0 199.5 -47.5t71.5 -132.5v-63q0 -91 -71 -140t-202 -49q-119 0 -183 40zM375 170v3q0 32 -108 32q-47 0 -69 -6t-22 -20v-4
q0 -12 18 -17t62 -5q83 0 119 17z" />
    <glyph glyph-name="Euro" unicode="&#x20ac;" horiz-adv-x="816" 
d="M620 371v5q0 57 -46 91.5t-122 34.5q-120 0 -162 -61h260v-100h-283v-26h283v-100h-262q20 -31 61 -46t104 -15q79 0 123 33t44 91v5h192v-5q0 -84 -46 -150.5t-127.5 -103.5t-185.5 -37q-142 0 -238.5 61t-128.5 167h-86v100h72v26h-72v100h86q32 106 129 167t238 61
q104 0 185.5 -37.5t127.5 -104t46 -151.5v-5h-192z" />
    <glyph glyph-name="uni20AE" unicode="&#x20ae;" horiz-adv-x="816" 
d="M509 477v-61l208 32v-135l-208 -32v-40l208 32v-135l-208 -32v-106h-201v86l-208 -32v135l208 32v40l-208 -32v135l208 32v81h-270v179h741v-179h-270z" />
    <glyph glyph-name="uni20B4" unicode="&#x20b4;" horiz-adv-x="816" 
d="M589 347l-96 -36h290v-105h-506q-3 -7 -3 -14q0 -30 33 -44t104 -14q67 0 104 10.5t37 30.5v3h195v-3q0 -91 -84 -139.5t-240 -48.5q-102 0 -180 21.5t-120.5 60t-42.5 89.5q0 26 9 48h-57v105h199l95 36h-294v105h509q2 8 2 12q0 29 -31.5 43.5t-96.5 14.5
q-61 0 -94.5 -10.5t-33.5 -30.5v-3h-205v3q0 89 85.5 138.5t238.5 49.5q99 0 174 -21.5t116 -61t41 -90.5q0 -23 -9 -44h55v-105h-194z" />
    <glyph glyph-name="uni20B8" unicode="&#x20b8;" horiz-adv-x="816" 
d="M763 656v-131h-711v131h711zM52 347v141h711v-141h-255v-347h-201v347h-255z" />
    <glyph glyph-name="uni20B9" unicode="&#x20b9;" horiz-adv-x="816" 
d="M652 525q8 -15 11 -37h93v-131h-94q-14 -80 -83 -124t-183 -44h-3l340 -159v-30h-268l-405 189v131l326 1q45 0 69 8t34 28h-429v131h435q-3 20 -12 37h-423v131h696v-131h-104z" />
    <glyph glyph-name="uni20BA" unicode="&#x20ba;" horiz-adv-x="816" 
d="M793 394v-56q0 -163 -100 -250.5t-292 -87.5h-319v176l-82 -27v151l82 27v44l-82 -27v151l82 27v134h201v-79l254 82v-151l-254 -82v-44l254 82v-151l-254 -82v-59h118q100 0 150.5 42.5t50.5 120.5v59h191z" />
    <glyph glyph-name="uni20BD" unicode="&#x20bd;" horiz-adv-x="816" 
d="M722.5 603.5q70.5 -52.5 70.5 -144.5v-10q0 -93 -70 -145.5t-194 -52.5h-226v-37h323v-131h-323v-83h-201v83h-82v131h82v37h-82v131h82v274h427q123 0 193.5 -52.5zM593 447q0 55 -64 55h-226v-120h226q64 0 64 55v10z" />
    <glyph glyph-name="uni20BF" unicode="&#x20bf;" horiz-adv-x="816" 
d="M681 323q62 -42 62 -121v-9q0 -65 -41.5 -106t-119.5 -54v-93h-161v88h-50v-88h-161v88h-75v1h-47v601h122v87h161v-88h50v88h161v-91q86 -11 132.5 -53t46.5 -109v-9q0 -87 -80 -132zM561 464.5q-12 8.5 -37 8.5h-252v-77h252q49 0 49 34v9q0 17 -12 25.5zM559 225
q0 32 -49 32h-238v-74h238q49 0 49 33v9z" />
    <glyph glyph-name="uni2113" unicode="&#x2113;" horiz-adv-x="695" 
d="M454 207h194l-1 -8q-14 -108 -86.5 -160t-210.5 -52q-115 0 -181 40t-81 119l-88 -29v162l96 30l13 108q16 124 95 188t215 64q130 0 203 -51.5t73 -142.5q0 -149 -227 -221l-187 -60q3 -25 20.5 -34.5t57.5 -9.5q45 0 68 12t26 37zM336.5 485q-26.5 -21 -32.5 -68
l-7 -56l105 33q45 14 66.5 31t21.5 39q0 42 -73 42q-54 0 -80.5 -21z" />
    <glyph glyph-name="uni2116" unicode="&#x2116;" horiz-adv-x="1303" 
d="M1186 621.5q53 -46.5 53 -123.5v-15q0 -77 -53 -123t-142 -46t-144 47t-55 123v16q0 76 55 122t144 46t142 -46.5zM567 656h188v-656h-186l-317 371v-371h-188v656h187l316 -370v370zM1097 496q0 20 -14.5 32t-39.5 12t-40 -12t-15 -32v-8q0 -20 15 -32t40 -12t39.5 12
t14.5 33v7zM865 240h354v-160h-354v160z" />
    <glyph glyph-name="trademark" unicode="&#x2122;" horiz-adv-x="901" 
d="M22 656h339v-118h-103v-210h-133v210h-103v118zM860 328h-125v142l-50 -142h-117l-50 141v-141h-126v328h176l59 -178l57 178h176v-328z" />
    <glyph glyph-name="uni2126" unicode="&#x2126;" horiz-adv-x="880" 
d="M803 253q-42 -53 -129 -78v-25h171v-150h-362v278q81 4 119 26t38 65v10q0 47 -49 70t-151 23t-151 -23t-49 -70v-10q0 -43 38 -65t119 -26v-278h-362v150h171v25q-87 25 -129 78t-42 134v7q0 85 48.5 147t139.5 95t217 33t217 -33t139.5 -95t48.5 -147v-7
q0 -81 -42 -134z" />
    <glyph glyph-name="estimated" unicode="&#x212e;" horiz-adv-x="758" 
d="M190 320v-250q77 -60 189 -60q90 0 152 35.5t94 104.5h61q-42 -75 -122.5 -117.5t-184.5 -42.5q-103 0 -181.5 41t-122 115t-43.5 171v21q0 97 43.5 171.5t122 115.5t181.5 41t181.5 -41t122 -115.5t43.5 -171.5v-18h-536zM379 646q-112 0 -190 -61v-242h377v239
q-75 64 -187 64z" />
    <glyph glyph-name="oneeighth" unicode="&#x215b;" horiz-adv-x="1408" 
d="M238 376v121q-16 -4 -40 -4h-118v133h114q26 0 35 6.5t9 24.5h165v-281h134v-132h-457v132h158zM913 656h190v-30l-539 -626h-190v27zM937.5 25.5q-65.5 34.5 -65.5 101.5v12q0 54 52 82q-31 28 -31 64v12q0 37 30 65.5t84 44.5t124 16t124 -16t84 -44.5t30 -65.5v-12
q0 -36 -31 -64q52 -28 52 -82v-12q0 -67 -65.5 -101.5t-193.5 -34.5t-193.5 34.5zM1197.5 261.5q19.5 5.5 19.5 18.5v4q0 13 -20 18.5t-66 5.5t-66 -5.5t-20 -18.5v-4q0 -13 20.5 -18.5t66.5 -5.5t65.5 5.5zM1205 114q21 5 21 18v4q0 13 -22.5 18.5t-72.5 5.5t-72.5 -5.5
t-22.5 -18.5v-4q0 -13 21 -18t74 -5t74 5z" />
    <glyph glyph-name="threeeighths" unicode="&#x215c;" horiz-adv-x="1359" 
d="M91 273.5q-62 38.5 -62 117.5v3h161v-3q0 -14 20.5 -20t68.5 -6q90 0 90 22v4q0 11 -19 14.5t-72 3.5h-101v86l94 36h-232v126h480v-126l-114 -39l14 -3q56 -12 85 -41t29 -72v-6q0 -67 -64 -101.5t-189 -34.5q-127 1 -189 39.5zM864 656h190v-30l-539 -626h-190v27z
M888.5 25.5q-65.5 34.5 -65.5 101.5v12q0 54 52 82q-31 28 -31 64v12q0 37 30 65.5t84 44.5t124 16t124 -16t84 -44.5t30 -65.5v-12q0 -36 -31 -64q52 -28 52 -82v-12q0 -67 -65.5 -101.5t-193.5 -34.5t-193.5 34.5zM1148.5 261.5q19.5 5.5 19.5 18.5v4q0 13 -20 18.5
t-66 5.5t-66 -5.5t-20 -18.5v-4q0 -13 20.5 -18.5t66.5 -5.5t65.5 5.5zM1156 114q21 5 21 18v4q0 13 -22.5 18.5t-72.5 5.5t-72.5 -5.5t-22.5 -18.5v-4q0 -13 21 -18t74 -5t74 5z" />
    <glyph glyph-name="fiveeighths" unicode="&#x215d;" horiz-adv-x="1359" 
d="M96 270q-60 36 -60 115v3h158v-2q0 -14 20 -20t69 -6q90 0 90 22v4q0 10 -17 13.5t-74 4.5q-21 1 -56 -1q-11 -1 -30 -1h-159l13 255h456v-122h-319l-2 -39q51 19 128 19q105 0 164 -34.5t59 -96.5v-4q0 -74 -61.5 -110t-188.5 -36q-130 0 -190 36zM864 656h190v-30
l-539 -626h-190v27zM888.5 25.5q-65.5 34.5 -65.5 101.5v12q0 54 52 82q-31 28 -31 64v12q0 37 30 65.5t84 44.5t124 16t124 -16t84 -44.5t30 -65.5v-12q0 -36 -31 -64q52 -28 52 -82v-12q0 -67 -65.5 -101.5t-193.5 -34.5t-193.5 34.5zM1148.5 261.5q19.5 5.5 19.5 18.5v4
q0 13 -20 18.5t-66 5.5t-66 -5.5t-20 -18.5v-4q0 -13 20.5 -18.5t66.5 -5.5t65.5 5.5zM1156 114q21 5 21 18v4q0 13 -22.5 18.5t-72.5 5.5t-72.5 -5.5t-22.5 -18.5v-4q0 -13 21 -18t74 -5t74 5z" />
    <glyph glyph-name="seveneighths" unicode="&#x215e;" horiz-adv-x="1309" 
d="M193 386.5q46 69.5 129 137.5h-288v132h483v-132q-88 -72 -137 -141t-49 -120v-20h-184v20q0 54 46 123.5zM814 656h190v-30l-539 -626h-190v27zM838.5 25.5q-65.5 34.5 -65.5 101.5v12q0 54 52 82q-31 28 -31 64v12q0 37 30 65.5t84 44.5t124 16t124 -16t84 -44.5
t30 -65.5v-12q0 -36 -31 -64q52 -28 52 -82v-12q0 -67 -65.5 -101.5t-193.5 -34.5t-193.5 34.5zM1098.5 261.5q19.5 5.5 19.5 18.5v4q0 13 -20 18.5t-66 5.5t-66 -5.5t-20 -18.5v-4q0 -13 20.5 -18.5t66.5 -5.5t65.5 5.5zM1106 114q21 5 21 18v4q0 13 -22.5 18.5t-72.5 5.5
t-72.5 -5.5t-22.5 -18.5v-4q0 -13 21 -18t74 -5t74 5z" />
    <glyph glyph-name="arrowleft" unicode="&#x2190;" horiz-adv-x="734" 
d="M689 207h-355l174 -173v-30h-217l-276 276v30l276 276h217v-30l-175 -175l356 1v-175z" />
    <glyph glyph-name="arrowup" unicode="&#x2191;" horiz-adv-x="734" 
d="M658 359v-217h-30l-173 174v-316h-175l1 317l-175 -175h-30v217l276 276h30z" />
    <glyph glyph-name="arrowright" unicode="&#x2192;" horiz-adv-x="734" 
d="M719 310v-30l-276 -276h-217v30l174 173h-355v175l356 -1l-175 175v30h217z" />
    <glyph glyph-name="arrowdown" unicode="&#x2193;" horiz-adv-x="734" 
d="M658 459v-217l-276 -276h-30l-276 276v217h30l175 -175l-1 317h175v-316l173 174h30z" />
    <glyph glyph-name="uni2196" unicode="&#x2196;" horiz-adv-x="734" 
d="M676 402h-269l252 -251l-123 -124l-252 252l1 -267h-21l-153 153v391l21 21h390l154 -154v-21z" />
    <glyph glyph-name="uni2197" unicode="&#x2197;" horiz-adv-x="734" 
d="M623 556v-391l-153 -153h-21l1 267l-252 -252l-123 124l252 251h-269v21l154 154h390z" />
    <glyph glyph-name="uni2198" unicode="&#x2198;" horiz-adv-x="734" 
d="M623 438v-391l-21 -21h-390l-154 154v21h269l-252 251l123 124l252 -252l-1 267h21z" />
    <glyph glyph-name="uni2199" unicode="&#x2199;" horiz-adv-x="734" 
d="M676 190v-21l-154 -154h-390l-21 21v391l153 153h21l-1 -267l252 252l123 -124l-252 -251h269z" />
    <glyph glyph-name="uni21E1" unicode="&#x21e1;" horiz-adv-x="734" 
d="M322 503.5q-19 18.5 -19 44.5t19 45t45 19t45 -19t19 -45t-19 -44.5t-45 -18.5t-45 18.5zM213.5 401.5q-18.5 18.5 -18.5 44.5q0 27 18.5 45.5t44.5 18.5q27 0 45.5 -18.5t18.5 -45.5q0 -26 -18.5 -44.5t-45.5 -18.5q-26 0 -44.5 18.5zM431 401.5q-19 18.5 -19 44.5
q0 27 19 45.5t45 18.5t44.5 -18.5t18.5 -45.5q0 -26 -18.5 -44.5t-44.5 -18.5t-45 18.5zM322 301.5q-19 18.5 -19 45.5q0 26 19 44.5t45 18.5t45 -18.5t19 -44.5q0 -27 -19 -45.5t-45 -18.5t-45 18.5zM103 300.5q-19 18.5 -19 45.5q0 26 19 44.5t45 18.5t44.5 -18.5
t18.5 -44.5q0 -27 -18.5 -45.5t-44.5 -18.5t-45 18.5zM541.5 300.5q-18.5 18.5 -18.5 45.5q0 26 18.5 44.5t44.5 18.5q27 0 45.5 -18.5t18.5 -44.5q0 -27 -18.5 -45.5t-45.5 -18.5q-26 0 -44.5 18.5zM322 154.5q-19 18.5 -19 45.5q0 26 19 44.5t45 18.5t45 -18.5t19 -44.5
q0 -27 -19 -45.5t-45 -18.5t-45 18.5zM322 8q-19 19 -19 45t19 45t45 19t45 -19t19 -45t-19 -45t-45 -19t-45 19z" />
    <glyph glyph-name="uni21E3" unicode="&#x21e3;" horiz-adv-x="734" 
d="M412 577q19 -19 19 -45t-19 -45t-45 -19t-45 19t-19 45t19 45t45 19t45 -19zM412 430.5q19 -18.5 19 -45.5q0 -26 -19 -44.5t-45 -18.5t-45 18.5t-19 44.5q0 27 19 45.5t45 18.5t45 -18.5zM192.5 284.5q18.5 -18.5 18.5 -45.5q0 -26 -18.5 -44.5t-44.5 -18.5t-45 18.5
t-19 44.5q0 27 19 45.5t45 18.5t44.5 -18.5zM631.5 284.5q18.5 -18.5 18.5 -45.5q0 -26 -18.5 -44.5t-45.5 -18.5q-26 0 -44.5 18.5t-18.5 44.5q0 27 18.5 45.5t44.5 18.5q27 0 45.5 -18.5zM412 283.5q19 -18.5 19 -45.5q0 -26 -19 -44.5t-45 -18.5t-45 18.5t-19 44.5
q0 27 19 45.5t45 18.5t45 -18.5zM303.5 183.5q18.5 -18.5 18.5 -44.5q0 -27 -18.5 -45.5t-45.5 -18.5q-26 0 -44.5 18.5t-18.5 45.5q0 26 18.5 44.5t44.5 18.5q27 0 45.5 -18.5zM520.5 183.5q18.5 -18.5 18.5 -44.5q0 -27 -18.5 -45.5t-44.5 -18.5t-45 18.5t-19 45.5
q0 26 19 44.5t45 18.5t44.5 -18.5zM412 81.5q19 -18.5 19 -44.5t-19 -45t-45 -19t-45 19t-19 45t19 44.5t45 18.5t45 -18.5z" />
    <glyph glyph-name="partialdiff" unicode="&#x2202;" horiz-adv-x="789" 
d="M671 599q97 -68 97 -193q0 -26 -2 -39l-14 -121q-15 -126 -115.5 -192.5t-276.5 -66.5q-168 0 -256.5 49.5t-88.5 142.5q0 8 2 26l2 16q12 96 99.5 145.5t246.5 49.5q127 0 200 -48l2 14q1 7 1 19q0 111 -171 111q-59 0 -98.5 -10.5t-45.5 -27.5l-1 -3h-202l1 5
q11 56 58 99.5t121 67.5t164 24q180 0 277 -68zM498 170q40 16 50 53q-52 36 -182 36q-57 0 -87.5 -4t-44 -13.5t-15.5 -27.5l-1 -8q-3 -25 36.5 -38.5t117.5 -13.5q86 0 126 16z" />
    <glyph glyph-name="uni2206" unicode="&#x2206;" horiz-adv-x="773" 
d="M736 179v-179h-699v179l227 477h245zM243 180h287l-143 310z" />
    <glyph glyph-name="product" unicode="&#x220f;" horiz-adv-x="984" 
d="M15 476v180h954v-180h-169v-575h-201v575h-214v-575h-201v575h-169z" />
    <glyph glyph-name="summation" unicode="&#x2211;" horiz-adv-x="713" 
d="M662 476h-328l201 -137v-121l-202 -138h329v-180h-625v179l293 199l-293 199v179h625v-180z" />
    <glyph glyph-name="minus" unicode="&#x2212;" horiz-adv-x="816" 
d="M715 418v-180h-614v180h614z" />
    <glyph glyph-name="uni2215" unicode="&#x2215;" horiz-adv-x="703" 
d="M463 727h203v-30l-426 -768h-203v30z" />
    <glyph glyph-name="uni2219" unicode="&#x2219;" horiz-adv-x="334" 
d="M86 250q-31 30 -31 79q0 48 31 78t81 30t81 -30t31 -78q0 -49 -31 -79t-81 -30t-81 30z" />
    <glyph glyph-name="radical" unicode="&#x221a;" horiz-adv-x="866" 
d="M866 486h-160l-288 -585h-211l-207 417v23h201l116 -248l270 563h279v-170z" />
    <glyph glyph-name="infinity" unicode="&#x221e;" horiz-adv-x="1033" 
d="M887 559q59 -33 92.5 -91.5t33.5 -132.5v-14q0 -74 -33.5 -132.5t-92.5 -91.5t-134 -33q-72 0 -121.5 26.5t-107.5 96.5l-7 9l-8 -9q-58 -70 -107 -96.5t-122 -26.5q-75 0 -134 33t-92.5 91.5t-33.5 132.5v14q0 74 33.5 132.5t92.5 91.5t134 33q73 0 122 -26.5t107 -96.5
l8 -9l7 9q58 70 107.5 96.5t121.5 26.5q75 0 134 -33zM317.5 250q19.5 11 36.5 31l41 47l-41 47q-18 20 -36.5 31t-35.5 11q-31 0 -51.5 -23.5t-20.5 -58.5v-14q0 -35 20.5 -58.5t51.5 -23.5q16 0 35.5 11zM823 335q0 35 -20.5 58.5t-51.5 23.5q-17 0 -35.5 -11t-36.5 -31
l-41 -47l41 -47q18 -20 36.5 -31t35.5 -11q31 0 51.5 23.5t20.5 58.5v14z" />
    <glyph glyph-name="integral" unicode="&#x222b;" horiz-adv-x="540" 
d="M144 64q29 0 29 22v403q0 53 24.5 94t69 63.5t102.5 22.5h151v-163h-124q-29 0 -29 -22v-403q0 -53 -24.5 -94t-69 -63.5t-102.5 -22.5h-151v163h124z" />
    <glyph glyph-name="approxequal" unicode="&#x2248;" horiz-adv-x="816" 
d="M487 340.5q-34 6.5 -84 19.5t-82 19.5t-66 6.5q-68 0 -142 -39v179q69 41 143 41q34 0 68 -7t79 -20q53 -14 86 -20.5t69 -6.5q77 0 145 37v-179q-67 -37 -146 -37q-36 0 -70 6.5zM487 99.5q-34 6.5 -84 19.5t-82 19.5t-66 6.5q-68 0 -142 -39v179q69 41 143 41
q34 0 68 -7t79 -20q53 -14 86 -20.5t69 -6.5q77 0 145 37v-179q-67 -37 -146 -37q-36 0 -70 6.5z" />
    <glyph glyph-name="notequal" unicode="&#x2260;" horiz-adv-x="816" 
d="M518 358l-38 -60h225v-180h-341l-49 -77h-160v29l31 48h-75v180h190l38 60h-228v180h344l49 77h160v-29l-31 -48h72v-180h-187z" />
    <glyph glyph-name="lessequal" unicode="&#x2264;" horiz-adv-x="816" 
d="M705 499l-344 -76l344 -82v-155h-27l-567 133v212l567 122h27v-154zM111 158h594v-158h-594v158z" />
    <glyph glyph-name="greaterequal" unicode="&#x2265;" horiz-adv-x="816" 
d="M705 531v-212l-567 -133h-27v155l344 82l-344 76v154h27zM111 158h594v-158h-594v158z" />
    <glyph glyph-name="uni2460" unicode="&#x2460;" horiz-adv-x="853" 
d="M208 28.5q-95 41.5 -146.5 118t-51.5 178.5v5q0 102 51.5 178.5t146.5 118.5t220 42t219 -41.5t145 -118.5t51 -179v-5q0 -102 -51 -178.5t-145 -118t-219 -41.5t-220 41.5zM656 146.5q81 63.5 81 178.5v5q0 116 -81 179.5t-228 63.5t-229.5 -64t-82.5 -179v-5
q0 -114 82.5 -178t229.5 -64t228 63.5zM376 265v103q-10 -3 -34 -3h-100v113h97q22 0 29.5 5.5t7.5 20.5h141v-239h113v-112h-388v112h134z" />
    <glyph glyph-name="uni2461" unicode="&#x2461;" horiz-adv-x="853" 
d="M208 28.5q-95 41.5 -146.5 118t-51.5 178.5v5q0 102 51.5 178.5t146.5 118.5t220 42t219 -41.5t145 -118.5t51 -179v-5q0 -102 -51 -178.5t-145 -118t-219 -41.5t-220 41.5zM656 146.5q81 63.5 81 178.5v5q0 116 -81 179.5t-228 63.5t-229.5 -64t-82.5 -179v-5
q0 -114 82.5 -178t229.5 -64t228 63.5zM444 343q26 11 34.5 17t8.5 13v3q0 11 -14 16t-46 5q-31 0 -49 -9t-18 -24v-8h-136v8q0 148 200 148q96 0 149 -31.5t53 -87.5v-9q0 -37 -23.5 -62t-81.5 -48l-43 -18h151v-104h-403v99z" />
    <glyph glyph-name="uni2462" unicode="&#x2462;" horiz-adv-x="853" 
d="M208 28.5q-95 41.5 -146.5 118t-51.5 178.5v5q0 102 51.5 178.5t146.5 118.5t220 42t219 -41.5t145 -118.5t51 -179v-5q0 -102 -51 -178.5t-145 -118t-219 -41.5t-220 41.5zM656 146.5q81 63.5 81 178.5v5q0 116 -81 179.5t-228 63.5t-229.5 -64t-82.5 -179v-5
q0 -114 82.5 -178t229.5 -64t228 63.5zM272.5 178q-52.5 33 -52.5 100v2h137v-2q0 -12 17.5 -17t57.5 -5q77 0 77 18v4q0 9 -16 12t-62 3h-86v73l80 31h-197v107h408v-107l-97 -33l12 -3q48 -10 72.5 -34.5t24.5 -61.5v-5q0 -116 -215 -116q-108 1 -160.5 34z" />
    <glyph glyph-name="uni2463" unicode="&#x2463;" horiz-adv-x="853" 
d="M208 28.5q-95 41.5 -146.5 118t-51.5 178.5v5q0 102 51.5 178.5t146.5 118.5t220 42t219 -41.5t145 -118.5t51 -179v-5q0 -102 -51 -178.5t-145 -118t-219 -41.5t-220 41.5zM656 146.5q81 63.5 81 178.5v5q0 116 -81 179.5t-228 63.5t-229.5 -64t-82.5 -179v-5
q0 -114 82.5 -178t229.5 -64t228 63.5zM204 204v112q51 85 68 188h147v-20q-22 -101 -54 -168h81v130h144v-130h59v-112h-59v-52h-144v52h-242z" />
    </font>
</defs>
</svg>
