<?xml version="1.0" encoding="utf-8"?>
<!-- Generator: Adobe Illustrator 15.0.0, SVG Export Plug-In . SVG Version: 6.00 Build 0)  -->
<!DOCTYPE svg PUBLIC "-//W3C//DTD SVG 1.1//EN" "http://www.w3.org/Graphics/SVG/1.1/DTD/svg11.dtd">
<svg version="1.1" id="Layer_1" xmlns="http://www.w3.org/2000/svg" xmlns:xlink="http://www.w3.org/1999/xlink" x="0px" y="0px"
	 width="141.73px" height="141.73px" viewBox="0 0 141.73 141.73" enable-background="new 0 0 141.73 141.73" xml:space="preserve">
<g>
	<path d="M72.086,3.535c-13.202,0-24.577,13.213-29.761,32.246H19.762c-4.761,0-8.622,3.86-8.622,8.621v42.586v42.586
		c0,4.761,3.86,8.621,8.622,8.621h102.207c4.762,0,8.621-3.86,8.621-8.621V86.988V44.402c0-4.761-3.859-8.621-8.621-8.621h-20.127
		C96.658,16.748,85.285,3.535,72.086,3.535L72.086,3.535z M48.649,35.781c1.427-4.795,3.274-9.13,5.513-12.92
		c2.54-4.295,5.551-7.76,8.715-10.023c2.984-2.136,6.082-3.219,9.209-3.219c3.123,0,6.223,1.083,9.207,3.219
		c3.162,2.263,6.176,5.728,8.713,10.023c2.24,3.79,4.09,8.125,5.514,12.92H48.649L48.649,35.781z M101.795,61.991
		c1.682,0,3.041-1.359,3.041-3.042c0-5.962-0.559-11.702-1.588-17.084h18.721c1.4,0,2.537,1.138,2.537,2.537v42.586v42.586
		c0,1.399-1.137,2.537-2.537,2.537H19.762c-1.399,0-2.537-1.138-2.537-2.537V86.988V44.402c0-1.399,1.138-2.537,2.537-2.537h21.158
		c-1.029,5.382-1.588,11.122-1.588,17.084c0,1.683,1.362,3.042,3.041,3.042c1.68,0,3.043-1.359,3.043-3.042
		c0-5.89,0.576-11.623,1.707-17.084h49.922c1.133,5.461,1.707,11.194,1.707,17.084C98.752,60.632,100.115,61.991,101.795,61.991
		L101.795,61.991z"/>
</g>
</svg>
