<?xml version="1.0" encoding="utf-8"?>
<!-- Generator: Adobe Illustrator 15.0.0, SVG Export Plug-In . SVG Version: 6.00 Build 0)  -->
<!DOCTYPE svg PUBLIC "-//W3C//DTD SVG 1.1//EN" "http://www.w3.org/Graphics/SVG/1.1/DTD/svg11.dtd">
<svg version="1.1" id="Layer_1" xmlns="http://www.w3.org/2000/svg" xmlns:xlink="http://www.w3.org/1999/xlink" x="0px" y="0px"
	 width="141.73px" height="141.73px" viewBox="0 0 141.73 141.73" enable-background="new 0 0 141.73 141.73" xml:space="preserve">
<path d="M121.969,3.535H70.865H19.762c-4.761,0-8.621,3.86-8.621,8.621v117.418c0,4.761,3.86,8.621,8.621,8.621
	c12.064,0,51.104-42.233,51.104-42.233s39.039,42.233,51.104,42.233c4.761,0,8.621-3.86,8.621-8.621V12.156
	C130.59,7.396,126.729,3.535,121.969,3.535z M124.506,129.574c0,1.394-1.126,2.524-2.516,2.537
	c-0.359-0.03-6.105-0.843-26.238-19.752C84.91,102.174,75.428,91.935,75.334,91.831l-4.469-4.843l-4.469,4.843
	c-0.095,0.104-9.576,10.343-20.418,20.528c-20.133,18.909-25.88,19.722-26.238,19.752c-1.391-0.013-2.516-1.144-2.516-2.537V12.156
	c0-1.399,1.138-2.537,2.537-2.537h51.104h51.104c1.399,0,2.537,1.138,2.537,2.537V129.574z"/>
</svg>
