<?xml version="1.0" encoding="utf-8"?>
<!-- Generator: Adobe Illustrator 15.0.0, SVG Export Plug-In . SVG Version: 6.00 Build 0)  -->
<!DOCTYPE svg PUBLIC "-//W3C//DTD SVG 1.1//EN" "http://www.w3.org/Graphics/SVG/1.1/DTD/svg11.dtd">
<svg version="1.1" id="Layer_1" xmlns="http://www.w3.org/2000/svg" xmlns:xlink="http://www.w3.org/1999/xlink" x="0px" y="0px"
	 width="566.93px" height="566.93px" viewBox="0 0 566.93 566.93" enable-background="new 0 0 566.93 566.93" xml:space="preserve">
<g>
	<path d="M112.548,225.19h44.546v86.446c0,9.571-2.137,16.848-6.459,21.825c-4.309,4.977-10.58,7.467-18.808,7.467
		c-12.002,0-34.861-10.647-45.246-23.675l-13.318,47.217c9.158,7.301,10.863,9.395,22.381,14.216
		c12.048,5.076,25.458,7.623,40.191,7.623c25.479,0,44.769-6.505,57.882-19.54c13.12-13.018,19.667-32.558,19.667-58.575V181.246
		h-88.441L112.548,225.19z"/>
	<path d="M368.587,235.661c-13.393-6.774-28.525-10.195-45.377-10.195s-31.914,3.421-45.23,10.195
		c-13.3,6.802-23.753,16.328-31.309,28.585c-7.556,12.26-11.333,26.045-11.333,41.344c0,15.505,3.778,29.406,11.333,41.659
		c7.556,12.254,18.047,21.829,31.458,28.71c13.388,6.908,28.414,10.35,45.082,10.35c16.852,0,31.984-3.441,45.377-10.35
		c13.414-6.881,23.835-16.456,31.313-28.71c7.464-12.253,11.199-26.154,11.199-41.659c0-15.515-3.735-29.317-11.199-41.486
		C392.422,251.951,382.001,242.463,368.587,235.661z M346.755,333.023c-6.127,6.604-13.973,9.9-23.545,9.9s-17.418-3.297-23.545-9.9
		c-6.126-6.59-9.204-15.738-9.204-27.433c0-11.479,3.078-20.481,9.204-26.986c6.127-6.509,13.973-9.76,23.545-9.76
		s17.418,3.251,23.545,9.76c6.126,6.505,9.189,15.508,9.189,26.986C355.944,317.285,352.881,326.434,346.755,333.023z"/>
	<polygon points="433.059,320.809 433.059,376.172 433.059,386.31 487.626,386.31 487.626,376.172 487.626,256.616 487.626,246.479 
		433.059,264.699 	"/>
	<path d="M460.339,238.646c9.976,0,18.013-2.83,24.132-8.476c6.134-5.652,9.197-12.784,9.197-21.415
		c0-8.221-3.063-14.956-9.197-20.227c-6.119-5.271-14.156-7.91-24.132-7.91c-9.947,0-17.983,2.788-24.117,8.327
		c-6.12,5.561-9.19,12.444-9.19,20.672c0,8.252,3.07,15.136,9.19,20.697C442.355,235.852,450.392,238.646,460.339,238.646z"/>
</g>
</svg>
