<?xml version="1.0" encoding="utf-8"?>
<!-- Generator: Adobe Illustrator 15.0.0, SVG Export Plug-In . SVG Version: 6.00 Build 0)  -->
<!DOCTYPE svg PUBLIC "-//W3C//DTD SVG 1.1//EN" "http://www.w3.org/Graphics/SVG/1.1/DTD/svg11.dtd">
<svg version="1.1" id="Layer_1" xmlns="http://www.w3.org/2000/svg" xmlns:xlink="http://www.w3.org/1999/xlink" x="0px" y="0px"
	 width="141.73px" height="141.73px" viewBox="0 0 141.73 141.73" enable-background="new 0 0 141.73 141.73" xml:space="preserve">
<path d="M23.838,23.45c-0.798,2.484-1.342,5.23-1.634,8.197c-0.377,3.841-0.329,8.05,0.131,12.53
	c1.433,13.848,6.854,30.284,16.063,46.464c9.211,16.18,20.575,29.231,31.752,37.533c3.616,2.681,7.211,4.87,10.705,6.507
	c2.7,1.264,5.339,2.198,7.883,2.78c5.642,1.29,10.814,0.845,15.126-1.609l0.661-0.377l5.288-3.01l5.549-3.159
	c1.89-1.075,3.228-2.736,3.905-4.606c0.706-1.945,0.701-4.12-0.143-6.094c-0.12-0.289-0.26-0.573-0.418-0.851l-14.679-25.787
	c-2.293-4.026-7.505-5.379-11.642-3.023l-5.55,3.159l-5.047,2.872c-5.294-6.206-10.164-13.193-14.487-20.788
	c-4.323-7.596-7.847-15.353-10.48-23.072l5.047-2.873v-0.001l5.549-3.159c4.138-2.355,5.635-7.527,3.345-11.551L56.084,7.744
	c-0.159-0.278-0.332-0.546-0.521-0.797c-1.267-1.732-3.133-2.847-5.169-3.232c-1.954-0.372-4.064-0.07-5.952,1.004l-11.498,6.545
	C28.632,13.72,25.609,17.94,23.838,23.45z M95.396,94.231c1.216-0.691,2.716-0.356,3.344,0.747l14.68,25.786
	c0.098,0.172,0.168,0.352,0.214,0.536c0,0,0,0,0.001,0.003c0.182,0.743-0.048,1.557-0.601,2.165
	c-0.188,0.213-0.415,0.398-0.677,0.547c-0.003,0.001-0.003,0.001-0.005,0.003l-5.55,3.158L89.848,97.39L95.396,94.231z
	 M76.41,98.039c0.798,0.952,1.6,1.882,2.409,2.786c0.023,0.029,0.047,0.059,0.075,0.083c0.936,1.022,2.484,1.303,3.742,0.586
	l1.923-1.094l16.956,29.787l-0.661,0.376c-5.787,3.295-14.95,1.149-25.136-5.885c-0.312-0.215-0.622-0.434-0.932-0.657
	c-4.339-3.103-8.66-6.937-12.891-11.441c-0.927-0.981-1.843-1.996-2.756-3.041c-5.669-6.483-10.869-13.854-15.454-21.908
	c-4.586-8.057-8.27-16.292-10.949-24.474c-0.432-1.318-0.836-2.625-1.207-3.923c-1.714-5.938-2.805-11.61-3.257-16.926
	c-0.034-0.379-0.064-0.758-0.09-1.135c-0.85-12.353,1.984-21.327,7.771-24.621l0.661-0.376l16.956,29.787l-1.922,1.094
	c-0.077,0.044-0.152,0.09-0.222,0.14c-0.073,0.049-0.142,0.102-0.208,0.157c-0.054,0.042-0.102,0.086-0.149,0.131
	c-0.03,0.027-0.058,0.053-0.083,0.082c-0.043,0.042-0.081,0.084-0.122,0.129c-0.114,0.131-0.215,0.269-0.304,0.414
	c-0.043,0.07-0.086,0.144-0.122,0.217c-0.029,0.059-0.057,0.12-0.085,0.182c-0.011,0.03-0.025,0.06-0.036,0.09
	c-0.02,0.053-0.038,0.105-0.055,0.157c-0.015,0.047-0.03,0.095-0.042,0.14c-0.024,0.081-0.042,0.16-0.055,0.237
	c-0.007,0.025-0.012,0.052-0.015,0.079c-0.007,0.038-0.013,0.077-0.016,0.114c-0.027,0.198-0.032,0.399-0.016,0.601
	c0.001,0.038,0.006,0.077,0.011,0.116c0.008,0.076,0.019,0.15,0.034,0.226c0.015,0.076,0.031,0.154,0.053,0.229
	c0.011,0.043,0.024,0.084,0.037,0.126c0.009,0.034,0.02,0.066,0.034,0.096c-0.002,0.005,0.001,0.01,0.005,0.016
	c0.357,1.14,0.745,2.288,1.149,3.44c2.646,7.525,6.177,15.302,10.571,23.022C66.408,84.913,71.293,91.92,76.41,98.039z
	 M47.457,10.004c0.262-0.149,0.537-0.25,0.815-0.303c0.803-0.163,1.619,0.054,2.169,0.589c0.002,0.002,0.002,0.002,0.002,0.002
	c0.137,0.136,0.255,0.289,0.354,0.46l14.678,25.787c0.628,1.102,0.149,2.562-1.066,3.254l-5.55,3.159L41.902,13.166l5.55-3.159
	C47.455,10.006,47.455,10.006,47.457,10.004z"/>
</svg>
